%TF.GenerationSoftware,KiCad,Pcbnew,8.0.0*%
%TF.CreationDate,2024-11-14T09:55:05-06:00*%
%TF.ProjectId,RainSegmentDriver,5261696e-5365-4676-9d65-6e7444726976,rev?*%
%TF.SameCoordinates,Original*%
%TF.FileFunction,Drillmap*%
%TF.FilePolarity,Positive*%
%FSLAX45Y45*%
G04 Gerber Fmt 4.5, Leading zero omitted, Abs format (unit mm)*
G04 Created by KiCad (PCBNEW 8.0.0) date 2024-11-14 09:55:05*
%MOMM*%
%LPD*%
G01*
G04 APERTURE LIST*
%ADD10C,0.050000*%
%ADD11C,0.200000*%
%ADD12C,0.100000*%
%ADD13C,0.115000*%
%ADD14C,0.120000*%
%ADD15C,0.160000*%
G04 APERTURE END LIST*
D10*
X12315000Y-6548000D02*
X17473000Y-6548000D01*
X17473000Y-11628000D01*
X12315000Y-11628000D01*
X12315000Y-6548000D01*
D11*
D12*
X13690000Y-9275500D02*
X13720000Y-9305500D01*
X13720000Y-9275500D02*
X13690000Y-9305500D01*
X14537500Y-10925500D02*
X14567500Y-10955500D01*
X14567500Y-10925500D02*
X14537500Y-10955500D01*
X14625000Y-11103000D02*
X14655000Y-11133000D01*
X14655000Y-11103000D02*
X14625000Y-11133000D01*
X14650000Y-11305500D02*
X14680000Y-11335500D01*
X14680000Y-11305500D02*
X14650000Y-11335500D01*
X14652500Y-11428000D02*
X14682500Y-11458000D01*
X14682500Y-11428000D02*
X14652500Y-11458000D01*
X14760000Y-11063000D02*
X14790000Y-11093000D01*
X14790000Y-11063000D02*
X14760000Y-11093000D01*
X14887500Y-11063000D02*
X14917500Y-11093000D01*
X14917500Y-11063000D02*
X14887500Y-11093000D01*
X14946000Y-11268000D02*
X14976000Y-11298000D01*
X14976000Y-11268000D02*
X14946000Y-11298000D01*
X15007500Y-8925500D02*
X15037500Y-8955500D01*
X15037500Y-8925500D02*
X15007500Y-8955500D01*
X15145000Y-10368000D02*
X15175000Y-10398000D01*
X15175000Y-10368000D02*
X15145000Y-10398000D01*
X15365000Y-9648000D02*
X15395000Y-9678000D01*
X15395000Y-9648000D02*
X15365000Y-9678000D01*
X15365000Y-11208000D02*
X15395000Y-11238000D01*
X15395000Y-11208000D02*
X15365000Y-11238000D01*
X15491000Y-11072000D02*
X15521000Y-11102000D01*
X15521000Y-11072000D02*
X15491000Y-11102000D01*
X15491000Y-11308000D02*
X15521000Y-11338000D01*
X15521000Y-11308000D02*
X15491000Y-11338000D01*
X15621250Y-11069250D02*
X15651250Y-11099250D01*
X15651250Y-11069250D02*
X15621250Y-11099250D01*
X15905000Y-10658000D02*
X15935000Y-10688000D01*
X15935000Y-10658000D02*
X15905000Y-10688000D01*
X14950000Y-7700000D02*
G75*
G02*
X14870000Y-7700000I-40000J0D01*
G01*
X14870000Y-7700000D02*
G75*
G02*
X14950000Y-7700000I40000J0D01*
G01*
X14950000Y-8000000D02*
G75*
G02*
X14870000Y-8000000I-40000J0D01*
G01*
X14870000Y-8000000D02*
G75*
G02*
X14950000Y-8000000I40000J0D01*
G01*
X14950000Y-8240000D02*
G75*
G02*
X14870000Y-8240000I-40000J0D01*
G01*
X14870000Y-8240000D02*
G75*
G02*
X14950000Y-8240000I40000J0D01*
G01*
X14950000Y-8540000D02*
G75*
G02*
X14870000Y-8540000I-40000J0D01*
G01*
X14870000Y-8540000D02*
G75*
G02*
X14950000Y-8540000I40000J0D01*
G01*
X14950000Y-8780000D02*
G75*
G02*
X14870000Y-8780000I-40000J0D01*
G01*
X14870000Y-8780000D02*
G75*
G02*
X14950000Y-8780000I40000J0D01*
G01*
X14950000Y-9080000D02*
G75*
G02*
X14870000Y-9080000I-40000J0D01*
G01*
X14870000Y-9080000D02*
G75*
G02*
X14950000Y-9080000I40000J0D01*
G01*
X14950000Y-9320000D02*
G75*
G02*
X14870000Y-9320000I-40000J0D01*
G01*
X14870000Y-9320000D02*
G75*
G02*
X14950000Y-9320000I40000J0D01*
G01*
X14950000Y-9620000D02*
G75*
G02*
X14870000Y-9620000I-40000J0D01*
G01*
X14870000Y-9620000D02*
G75*
G02*
X14950000Y-9620000I40000J0D01*
G01*
X13815500Y-8210500D02*
X13815500Y-8300500D01*
X13770500Y-8255500D02*
X13860500Y-8255500D01*
X13815500Y-8464500D02*
X13815500Y-8554500D01*
X13770500Y-8509500D02*
X13860500Y-8509500D01*
X13815500Y-8718500D02*
X13815500Y-8808500D01*
X13770500Y-8763500D02*
X13860500Y-8763500D01*
X13815500Y-8972500D02*
X13815500Y-9062500D01*
X13770500Y-9017500D02*
X13860500Y-9017500D01*
X14069500Y-8337500D02*
X14069500Y-8427500D01*
X14024500Y-8382500D02*
X14114500Y-8382500D01*
X14069500Y-8591500D02*
X14069500Y-8681500D01*
X14024500Y-8636500D02*
X14114500Y-8636500D01*
X14069500Y-8845500D02*
X14069500Y-8935500D01*
X14024500Y-8890500D02*
X14114500Y-8890500D01*
X14069500Y-9099500D02*
X14069500Y-9189500D01*
X14024500Y-9144500D02*
X14114500Y-9144500D01*
X15730500Y-8239000D02*
X15730500Y-8329000D01*
X15685500Y-8284000D02*
X15775500Y-8284000D01*
X15730500Y-8493000D02*
X15730500Y-8583000D01*
X15685500Y-8538000D02*
X15775500Y-8538000D01*
X15730500Y-8747000D02*
X15730500Y-8837000D01*
X15685500Y-8792000D02*
X15775500Y-8792000D01*
X15730500Y-9001000D02*
X15730500Y-9091000D01*
X15685500Y-9046000D02*
X15775500Y-9046000D01*
X15972500Y-9814000D02*
X15972500Y-9904000D01*
X15927500Y-9859000D02*
X16017500Y-9859000D01*
X15972500Y-10068000D02*
X15972500Y-10158000D01*
X15927500Y-10113000D02*
X16017500Y-10113000D01*
X15984500Y-8366000D02*
X15984500Y-8456000D01*
X15939500Y-8411000D02*
X16029500Y-8411000D01*
X15984500Y-8620000D02*
X15984500Y-8710000D01*
X15939500Y-8665000D02*
X16029500Y-8665000D01*
X15984500Y-8874000D02*
X15984500Y-8964000D01*
X15939500Y-8919000D02*
X16029500Y-8919000D01*
X15984500Y-9128000D02*
X15984500Y-9218000D01*
X15939500Y-9173000D02*
X16029500Y-9173000D01*
X16670856Y-10364856D02*
X16670856Y-10294144D01*
X16600144Y-10294144D01*
X16600144Y-10364856D01*
X16670856Y-10364856D01*
X16924856Y-10364856D02*
X16924856Y-10294144D01*
X16854144Y-10294144D01*
X16854144Y-10364856D01*
X16924856Y-10364856D01*
X17178856Y-10364856D02*
X17178856Y-10294144D01*
X17108144Y-10294144D01*
X17108144Y-10364856D01*
X17178856Y-10364856D01*
D13*
X12840000Y-6954500D02*
X12897500Y-6897000D01*
X12840000Y-6839500D01*
X12782500Y-6897000D01*
X12840000Y-6954500D01*
X12840000Y-7454500D02*
X12897500Y-7397000D01*
X12840000Y-7339500D01*
X12782500Y-7397000D01*
X12840000Y-7454500D01*
X13660000Y-6954500D02*
X13717500Y-6897000D01*
X13660000Y-6839500D01*
X13602500Y-6897000D01*
X13660000Y-6954500D01*
X13660000Y-7454500D02*
X13717500Y-7397000D01*
X13660000Y-7339500D01*
X13602500Y-7397000D01*
X13660000Y-7454500D01*
X16130000Y-6957500D02*
X16187500Y-6900000D01*
X16130000Y-6842500D01*
X16072500Y-6900000D01*
X16130000Y-6957500D01*
X16130000Y-7457500D02*
X16187500Y-7400000D01*
X16130000Y-7342500D01*
X16072500Y-7400000D01*
X16130000Y-7457500D01*
X16950000Y-6957500D02*
X17007500Y-6900000D01*
X16950000Y-6842500D01*
X16892500Y-6900000D01*
X16950000Y-6957500D01*
X16950000Y-7457500D02*
X17007500Y-7400000D01*
X16950000Y-7342500D01*
X16892500Y-7400000D01*
X16950000Y-7457500D01*
D14*
X12532500Y-10743000D02*
X12652500Y-10863000D01*
X12652500Y-10743000D02*
X12532500Y-10863000D01*
X12652500Y-10803000D02*
G75*
G02*
X12532500Y-10803000I-60000J0D01*
G01*
X12532500Y-10803000D02*
G75*
G02*
X12652500Y-10803000I60000J0D01*
G01*
X12882500Y-10743000D02*
X13002500Y-10863000D01*
X13002500Y-10743000D02*
X12882500Y-10863000D01*
X13002500Y-10803000D02*
G75*
G02*
X12882500Y-10803000I-60000J0D01*
G01*
X12882500Y-10803000D02*
G75*
G02*
X13002500Y-10803000I60000J0D01*
G01*
X13232500Y-10743000D02*
X13352500Y-10863000D01*
X13352500Y-10743000D02*
X13232500Y-10863000D01*
X13352500Y-10803000D02*
G75*
G02*
X13232500Y-10803000I-60000J0D01*
G01*
X13232500Y-10803000D02*
G75*
G02*
X13352500Y-10803000I60000J0D01*
G01*
X13582500Y-10743000D02*
X13702500Y-10863000D01*
X13702500Y-10743000D02*
X13582500Y-10863000D01*
X13702500Y-10803000D02*
G75*
G02*
X13582500Y-10803000I-60000J0D01*
G01*
X13582500Y-10803000D02*
G75*
G02*
X13702500Y-10803000I60000J0D01*
G01*
X13932500Y-10743000D02*
X14052500Y-10863000D01*
X14052500Y-10743000D02*
X13932500Y-10863000D01*
X14052500Y-10803000D02*
G75*
G02*
X13932500Y-10803000I-60000J0D01*
G01*
X13932500Y-10803000D02*
G75*
G02*
X14052500Y-10803000I60000J0D01*
G01*
X14282500Y-10743000D02*
X14402500Y-10863000D01*
X14402500Y-10743000D02*
X14282500Y-10863000D01*
X14402500Y-10803000D02*
G75*
G02*
X14282500Y-10803000I-60000J0D01*
G01*
X14282500Y-10803000D02*
G75*
G02*
X14402500Y-10803000I60000J0D01*
G01*
D15*
X12795500Y-7843000D02*
X12955500Y-8003000D01*
X12955500Y-7843000D02*
X12795500Y-8003000D01*
X12875500Y-7843000D02*
X12875500Y-8003000D01*
X12795500Y-7923000D02*
X12955500Y-7923000D01*
X12795500Y-9397000D02*
X12955500Y-9557000D01*
X12955500Y-9397000D02*
X12795500Y-9557000D01*
X12875500Y-9397000D02*
X12875500Y-9557000D01*
X12795500Y-9477000D02*
X12955500Y-9477000D01*
X16045000Y-10985000D02*
X16205000Y-11145000D01*
X16205000Y-10985000D02*
X16045000Y-11145000D01*
X16125000Y-10985000D02*
X16125000Y-11145000D01*
X16045000Y-11065000D02*
X16205000Y-11065000D01*
X16045000Y-11326000D02*
X16205000Y-11486000D01*
X16205000Y-11326000D02*
X16045000Y-11486000D01*
X16125000Y-11326000D02*
X16125000Y-11486000D01*
X16045000Y-11406000D02*
X16205000Y-11406000D01*
X16844500Y-7871500D02*
X17004500Y-8031500D01*
X17004500Y-7871500D02*
X16844500Y-8031500D01*
X16924500Y-7871500D02*
X16924500Y-8031500D01*
X16844500Y-7951500D02*
X17004500Y-7951500D01*
X16844500Y-9425500D02*
X17004500Y-9585500D01*
X17004500Y-9425500D02*
X16844500Y-9585500D01*
X16924500Y-9425500D02*
X16924500Y-9585500D01*
X16844500Y-9505500D02*
X17004500Y-9505500D01*
X17035000Y-10985000D02*
X17195000Y-11145000D01*
X17195000Y-10985000D02*
X17035000Y-11145000D01*
X17115000Y-10985000D02*
X17115000Y-11145000D01*
X17035000Y-11065000D02*
X17195000Y-11065000D01*
X17035000Y-11326000D02*
X17195000Y-11486000D01*
X17195000Y-11326000D02*
X17035000Y-11486000D01*
X17115000Y-11326000D02*
X17115000Y-11486000D01*
X17035000Y-11406000D02*
X17195000Y-11406000D01*
D11*
X12573277Y-11941984D02*
X12573277Y-11741984D01*
X12573277Y-11741984D02*
X12620896Y-11741984D01*
X12620896Y-11741984D02*
X12649467Y-11751508D01*
X12649467Y-11751508D02*
X12668515Y-11770555D01*
X12668515Y-11770555D02*
X12678039Y-11789603D01*
X12678039Y-11789603D02*
X12687562Y-11827698D01*
X12687562Y-11827698D02*
X12687562Y-11856269D01*
X12687562Y-11856269D02*
X12678039Y-11894365D01*
X12678039Y-11894365D02*
X12668515Y-11913412D01*
X12668515Y-11913412D02*
X12649467Y-11932460D01*
X12649467Y-11932460D02*
X12620896Y-11941984D01*
X12620896Y-11941984D02*
X12573277Y-11941984D01*
X12773277Y-11941984D02*
X12773277Y-11808650D01*
X12773277Y-11846746D02*
X12782801Y-11827698D01*
X12782801Y-11827698D02*
X12792324Y-11818174D01*
X12792324Y-11818174D02*
X12811372Y-11808650D01*
X12811372Y-11808650D02*
X12830420Y-11808650D01*
X12897086Y-11941984D02*
X12897086Y-11808650D01*
X12897086Y-11741984D02*
X12887562Y-11751508D01*
X12887562Y-11751508D02*
X12897086Y-11761031D01*
X12897086Y-11761031D02*
X12906610Y-11751508D01*
X12906610Y-11751508D02*
X12897086Y-11741984D01*
X12897086Y-11741984D02*
X12897086Y-11761031D01*
X13020896Y-11941984D02*
X13001848Y-11932460D01*
X13001848Y-11932460D02*
X12992324Y-11913412D01*
X12992324Y-11913412D02*
X12992324Y-11741984D01*
X13125658Y-11941984D02*
X13106610Y-11932460D01*
X13106610Y-11932460D02*
X13097086Y-11913412D01*
X13097086Y-11913412D02*
X13097086Y-11741984D01*
X13354229Y-11941984D02*
X13354229Y-11741984D01*
X13354229Y-11741984D02*
X13420896Y-11884841D01*
X13420896Y-11884841D02*
X13487562Y-11741984D01*
X13487562Y-11741984D02*
X13487562Y-11941984D01*
X13668515Y-11941984D02*
X13668515Y-11837222D01*
X13668515Y-11837222D02*
X13658991Y-11818174D01*
X13658991Y-11818174D02*
X13639943Y-11808650D01*
X13639943Y-11808650D02*
X13601848Y-11808650D01*
X13601848Y-11808650D02*
X13582801Y-11818174D01*
X13668515Y-11932460D02*
X13649467Y-11941984D01*
X13649467Y-11941984D02*
X13601848Y-11941984D01*
X13601848Y-11941984D02*
X13582801Y-11932460D01*
X13582801Y-11932460D02*
X13573277Y-11913412D01*
X13573277Y-11913412D02*
X13573277Y-11894365D01*
X13573277Y-11894365D02*
X13582801Y-11875317D01*
X13582801Y-11875317D02*
X13601848Y-11865793D01*
X13601848Y-11865793D02*
X13649467Y-11865793D01*
X13649467Y-11865793D02*
X13668515Y-11856269D01*
X13763753Y-11808650D02*
X13763753Y-12008650D01*
X13763753Y-11818174D02*
X13782801Y-11808650D01*
X13782801Y-11808650D02*
X13820896Y-11808650D01*
X13820896Y-11808650D02*
X13839943Y-11818174D01*
X13839943Y-11818174D02*
X13849467Y-11827698D01*
X13849467Y-11827698D02*
X13858991Y-11846746D01*
X13858991Y-11846746D02*
X13858991Y-11903888D01*
X13858991Y-11903888D02*
X13849467Y-11922936D01*
X13849467Y-11922936D02*
X13839943Y-11932460D01*
X13839943Y-11932460D02*
X13820896Y-11941984D01*
X13820896Y-11941984D02*
X13782801Y-11941984D01*
X13782801Y-11941984D02*
X13763753Y-11932460D01*
X13944705Y-11922936D02*
X13954229Y-11932460D01*
X13954229Y-11932460D02*
X13944705Y-11941984D01*
X13944705Y-11941984D02*
X13935182Y-11932460D01*
X13935182Y-11932460D02*
X13944705Y-11922936D01*
X13944705Y-11922936D02*
X13944705Y-11941984D01*
X13944705Y-11818174D02*
X13954229Y-11827698D01*
X13954229Y-11827698D02*
X13944705Y-11837222D01*
X13944705Y-11837222D02*
X13935182Y-11827698D01*
X13935182Y-11827698D02*
X13944705Y-11818174D01*
X13944705Y-11818174D02*
X13944705Y-11837222D01*
D12*
X12282500Y-12255500D02*
X12312500Y-12285500D01*
X12312500Y-12255500D02*
X12282500Y-12285500D01*
D11*
X12611372Y-12161984D02*
X12630420Y-12161984D01*
X12630420Y-12161984D02*
X12649467Y-12171508D01*
X12649467Y-12171508D02*
X12658991Y-12181031D01*
X12658991Y-12181031D02*
X12668515Y-12200079D01*
X12668515Y-12200079D02*
X12678039Y-12238174D01*
X12678039Y-12238174D02*
X12678039Y-12285793D01*
X12678039Y-12285793D02*
X12668515Y-12323888D01*
X12668515Y-12323888D02*
X12658991Y-12342936D01*
X12658991Y-12342936D02*
X12649467Y-12352460D01*
X12649467Y-12352460D02*
X12630420Y-12361984D01*
X12630420Y-12361984D02*
X12611372Y-12361984D01*
X12611372Y-12361984D02*
X12592324Y-12352460D01*
X12592324Y-12352460D02*
X12582801Y-12342936D01*
X12582801Y-12342936D02*
X12573277Y-12323888D01*
X12573277Y-12323888D02*
X12563753Y-12285793D01*
X12563753Y-12285793D02*
X12563753Y-12238174D01*
X12563753Y-12238174D02*
X12573277Y-12200079D01*
X12573277Y-12200079D02*
X12582801Y-12181031D01*
X12582801Y-12181031D02*
X12592324Y-12171508D01*
X12592324Y-12171508D02*
X12611372Y-12161984D01*
X12763753Y-12342936D02*
X12773277Y-12352460D01*
X12773277Y-12352460D02*
X12763753Y-12361984D01*
X12763753Y-12361984D02*
X12754229Y-12352460D01*
X12754229Y-12352460D02*
X12763753Y-12342936D01*
X12763753Y-12342936D02*
X12763753Y-12361984D01*
X12839943Y-12161984D02*
X12963753Y-12161984D01*
X12963753Y-12161984D02*
X12897086Y-12238174D01*
X12897086Y-12238174D02*
X12925658Y-12238174D01*
X12925658Y-12238174D02*
X12944705Y-12247698D01*
X12944705Y-12247698D02*
X12954229Y-12257222D01*
X12954229Y-12257222D02*
X12963753Y-12276269D01*
X12963753Y-12276269D02*
X12963753Y-12323888D01*
X12963753Y-12323888D02*
X12954229Y-12342936D01*
X12954229Y-12342936D02*
X12944705Y-12352460D01*
X12944705Y-12352460D02*
X12925658Y-12361984D01*
X12925658Y-12361984D02*
X12868515Y-12361984D01*
X12868515Y-12361984D02*
X12849467Y-12352460D01*
X12849467Y-12352460D02*
X12839943Y-12342936D01*
X13087562Y-12161984D02*
X13106610Y-12161984D01*
X13106610Y-12161984D02*
X13125658Y-12171508D01*
X13125658Y-12171508D02*
X13135182Y-12181031D01*
X13135182Y-12181031D02*
X13144705Y-12200079D01*
X13144705Y-12200079D02*
X13154229Y-12238174D01*
X13154229Y-12238174D02*
X13154229Y-12285793D01*
X13154229Y-12285793D02*
X13144705Y-12323888D01*
X13144705Y-12323888D02*
X13135182Y-12342936D01*
X13135182Y-12342936D02*
X13125658Y-12352460D01*
X13125658Y-12352460D02*
X13106610Y-12361984D01*
X13106610Y-12361984D02*
X13087562Y-12361984D01*
X13087562Y-12361984D02*
X13068515Y-12352460D01*
X13068515Y-12352460D02*
X13058991Y-12342936D01*
X13058991Y-12342936D02*
X13049467Y-12323888D01*
X13049467Y-12323888D02*
X13039943Y-12285793D01*
X13039943Y-12285793D02*
X13039943Y-12238174D01*
X13039943Y-12238174D02*
X13049467Y-12200079D01*
X13049467Y-12200079D02*
X13058991Y-12181031D01*
X13058991Y-12181031D02*
X13068515Y-12171508D01*
X13068515Y-12171508D02*
X13087562Y-12161984D01*
X13278039Y-12161984D02*
X13297086Y-12161984D01*
X13297086Y-12161984D02*
X13316134Y-12171508D01*
X13316134Y-12171508D02*
X13325658Y-12181031D01*
X13325658Y-12181031D02*
X13335182Y-12200079D01*
X13335182Y-12200079D02*
X13344705Y-12238174D01*
X13344705Y-12238174D02*
X13344705Y-12285793D01*
X13344705Y-12285793D02*
X13335182Y-12323888D01*
X13335182Y-12323888D02*
X13325658Y-12342936D01*
X13325658Y-12342936D02*
X13316134Y-12352460D01*
X13316134Y-12352460D02*
X13297086Y-12361984D01*
X13297086Y-12361984D02*
X13278039Y-12361984D01*
X13278039Y-12361984D02*
X13258991Y-12352460D01*
X13258991Y-12352460D02*
X13249467Y-12342936D01*
X13249467Y-12342936D02*
X13239943Y-12323888D01*
X13239943Y-12323888D02*
X13230420Y-12285793D01*
X13230420Y-12285793D02*
X13230420Y-12238174D01*
X13230420Y-12238174D02*
X13239943Y-12200079D01*
X13239943Y-12200079D02*
X13249467Y-12181031D01*
X13249467Y-12181031D02*
X13258991Y-12171508D01*
X13258991Y-12171508D02*
X13278039Y-12161984D01*
X13430420Y-12361984D02*
X13430420Y-12228650D01*
X13430420Y-12247698D02*
X13439943Y-12238174D01*
X13439943Y-12238174D02*
X13458991Y-12228650D01*
X13458991Y-12228650D02*
X13487563Y-12228650D01*
X13487563Y-12228650D02*
X13506610Y-12238174D01*
X13506610Y-12238174D02*
X13516134Y-12257222D01*
X13516134Y-12257222D02*
X13516134Y-12361984D01*
X13516134Y-12257222D02*
X13525658Y-12238174D01*
X13525658Y-12238174D02*
X13544705Y-12228650D01*
X13544705Y-12228650D02*
X13573277Y-12228650D01*
X13573277Y-12228650D02*
X13592324Y-12238174D01*
X13592324Y-12238174D02*
X13601848Y-12257222D01*
X13601848Y-12257222D02*
X13601848Y-12361984D01*
X13697086Y-12361984D02*
X13697086Y-12228650D01*
X13697086Y-12247698D02*
X13706610Y-12238174D01*
X13706610Y-12238174D02*
X13725658Y-12228650D01*
X13725658Y-12228650D02*
X13754229Y-12228650D01*
X13754229Y-12228650D02*
X13773277Y-12238174D01*
X13773277Y-12238174D02*
X13782801Y-12257222D01*
X13782801Y-12257222D02*
X13782801Y-12361984D01*
X13782801Y-12257222D02*
X13792324Y-12238174D01*
X13792324Y-12238174D02*
X13811372Y-12228650D01*
X13811372Y-12228650D02*
X13839943Y-12228650D01*
X13839943Y-12228650D02*
X13858991Y-12238174D01*
X13858991Y-12238174D02*
X13868515Y-12257222D01*
X13868515Y-12257222D02*
X13868515Y-12361984D01*
X14258991Y-12152460D02*
X14087563Y-12409603D01*
X14516134Y-12161984D02*
X14535182Y-12161984D01*
X14535182Y-12161984D02*
X14554229Y-12171508D01*
X14554229Y-12171508D02*
X14563753Y-12181031D01*
X14563753Y-12181031D02*
X14573277Y-12200079D01*
X14573277Y-12200079D02*
X14582801Y-12238174D01*
X14582801Y-12238174D02*
X14582801Y-12285793D01*
X14582801Y-12285793D02*
X14573277Y-12323888D01*
X14573277Y-12323888D02*
X14563753Y-12342936D01*
X14563753Y-12342936D02*
X14554229Y-12352460D01*
X14554229Y-12352460D02*
X14535182Y-12361984D01*
X14535182Y-12361984D02*
X14516134Y-12361984D01*
X14516134Y-12361984D02*
X14497086Y-12352460D01*
X14497086Y-12352460D02*
X14487563Y-12342936D01*
X14487563Y-12342936D02*
X14478039Y-12323888D01*
X14478039Y-12323888D02*
X14468515Y-12285793D01*
X14468515Y-12285793D02*
X14468515Y-12238174D01*
X14468515Y-12238174D02*
X14478039Y-12200079D01*
X14478039Y-12200079D02*
X14487563Y-12181031D01*
X14487563Y-12181031D02*
X14497086Y-12171508D01*
X14497086Y-12171508D02*
X14516134Y-12161984D01*
X14668515Y-12342936D02*
X14678039Y-12352460D01*
X14678039Y-12352460D02*
X14668515Y-12361984D01*
X14668515Y-12361984D02*
X14658991Y-12352460D01*
X14658991Y-12352460D02*
X14668515Y-12342936D01*
X14668515Y-12342936D02*
X14668515Y-12361984D01*
X14801848Y-12161984D02*
X14820896Y-12161984D01*
X14820896Y-12161984D02*
X14839944Y-12171508D01*
X14839944Y-12171508D02*
X14849467Y-12181031D01*
X14849467Y-12181031D02*
X14858991Y-12200079D01*
X14858991Y-12200079D02*
X14868515Y-12238174D01*
X14868515Y-12238174D02*
X14868515Y-12285793D01*
X14868515Y-12285793D02*
X14858991Y-12323888D01*
X14858991Y-12323888D02*
X14849467Y-12342936D01*
X14849467Y-12342936D02*
X14839944Y-12352460D01*
X14839944Y-12352460D02*
X14820896Y-12361984D01*
X14820896Y-12361984D02*
X14801848Y-12361984D01*
X14801848Y-12361984D02*
X14782801Y-12352460D01*
X14782801Y-12352460D02*
X14773277Y-12342936D01*
X14773277Y-12342936D02*
X14763753Y-12323888D01*
X14763753Y-12323888D02*
X14754229Y-12285793D01*
X14754229Y-12285793D02*
X14754229Y-12238174D01*
X14754229Y-12238174D02*
X14763753Y-12200079D01*
X14763753Y-12200079D02*
X14773277Y-12181031D01*
X14773277Y-12181031D02*
X14782801Y-12171508D01*
X14782801Y-12171508D02*
X14801848Y-12161984D01*
X15058991Y-12361984D02*
X14944706Y-12361984D01*
X15001848Y-12361984D02*
X15001848Y-12161984D01*
X15001848Y-12161984D02*
X14982801Y-12190555D01*
X14982801Y-12190555D02*
X14963753Y-12209603D01*
X14963753Y-12209603D02*
X14944706Y-12219127D01*
X15249467Y-12361984D02*
X15135182Y-12361984D01*
X15192325Y-12361984D02*
X15192325Y-12161984D01*
X15192325Y-12161984D02*
X15173277Y-12190555D01*
X15173277Y-12190555D02*
X15154229Y-12209603D01*
X15154229Y-12209603D02*
X15135182Y-12219127D01*
X15363753Y-12247698D02*
X15344706Y-12238174D01*
X15344706Y-12238174D02*
X15335182Y-12228650D01*
X15335182Y-12228650D02*
X15325658Y-12209603D01*
X15325658Y-12209603D02*
X15325658Y-12200079D01*
X15325658Y-12200079D02*
X15335182Y-12181031D01*
X15335182Y-12181031D02*
X15344706Y-12171508D01*
X15344706Y-12171508D02*
X15363753Y-12161984D01*
X15363753Y-12161984D02*
X15401848Y-12161984D01*
X15401848Y-12161984D02*
X15420896Y-12171508D01*
X15420896Y-12171508D02*
X15430420Y-12181031D01*
X15430420Y-12181031D02*
X15439944Y-12200079D01*
X15439944Y-12200079D02*
X15439944Y-12209603D01*
X15439944Y-12209603D02*
X15430420Y-12228650D01*
X15430420Y-12228650D02*
X15420896Y-12238174D01*
X15420896Y-12238174D02*
X15401848Y-12247698D01*
X15401848Y-12247698D02*
X15363753Y-12247698D01*
X15363753Y-12247698D02*
X15344706Y-12257222D01*
X15344706Y-12257222D02*
X15335182Y-12266746D01*
X15335182Y-12266746D02*
X15325658Y-12285793D01*
X15325658Y-12285793D02*
X15325658Y-12323888D01*
X15325658Y-12323888D02*
X15335182Y-12342936D01*
X15335182Y-12342936D02*
X15344706Y-12352460D01*
X15344706Y-12352460D02*
X15363753Y-12361984D01*
X15363753Y-12361984D02*
X15401848Y-12361984D01*
X15401848Y-12361984D02*
X15420896Y-12352460D01*
X15420896Y-12352460D02*
X15430420Y-12342936D01*
X15430420Y-12342936D02*
X15439944Y-12323888D01*
X15439944Y-12323888D02*
X15439944Y-12285793D01*
X15439944Y-12285793D02*
X15430420Y-12266746D01*
X15430420Y-12266746D02*
X15420896Y-12257222D01*
X15420896Y-12257222D02*
X15401848Y-12247698D01*
X15516134Y-12161984D02*
X15516134Y-12200079D01*
X15592325Y-12161984D02*
X15592325Y-12200079D01*
X15887563Y-12438174D02*
X15878039Y-12428650D01*
X15878039Y-12428650D02*
X15858991Y-12400079D01*
X15858991Y-12400079D02*
X15849468Y-12381031D01*
X15849468Y-12381031D02*
X15839944Y-12352460D01*
X15839944Y-12352460D02*
X15830420Y-12304841D01*
X15830420Y-12304841D02*
X15830420Y-12266746D01*
X15830420Y-12266746D02*
X15839944Y-12219127D01*
X15839944Y-12219127D02*
X15849468Y-12190555D01*
X15849468Y-12190555D02*
X15858991Y-12171508D01*
X15858991Y-12171508D02*
X15878039Y-12142936D01*
X15878039Y-12142936D02*
X15887563Y-12133412D01*
X16068515Y-12361984D02*
X15954229Y-12361984D01*
X16011372Y-12361984D02*
X16011372Y-12161984D01*
X16011372Y-12161984D02*
X15992325Y-12190555D01*
X15992325Y-12190555D02*
X15973277Y-12209603D01*
X15973277Y-12209603D02*
X15954229Y-12219127D01*
X16239944Y-12161984D02*
X16201848Y-12161984D01*
X16201848Y-12161984D02*
X16182801Y-12171508D01*
X16182801Y-12171508D02*
X16173277Y-12181031D01*
X16173277Y-12181031D02*
X16154229Y-12209603D01*
X16154229Y-12209603D02*
X16144706Y-12247698D01*
X16144706Y-12247698D02*
X16144706Y-12323888D01*
X16144706Y-12323888D02*
X16154229Y-12342936D01*
X16154229Y-12342936D02*
X16163753Y-12352460D01*
X16163753Y-12352460D02*
X16182801Y-12361984D01*
X16182801Y-12361984D02*
X16220896Y-12361984D01*
X16220896Y-12361984D02*
X16239944Y-12352460D01*
X16239944Y-12352460D02*
X16249468Y-12342936D01*
X16249468Y-12342936D02*
X16258991Y-12323888D01*
X16258991Y-12323888D02*
X16258991Y-12276269D01*
X16258991Y-12276269D02*
X16249468Y-12257222D01*
X16249468Y-12257222D02*
X16239944Y-12247698D01*
X16239944Y-12247698D02*
X16220896Y-12238174D01*
X16220896Y-12238174D02*
X16182801Y-12238174D01*
X16182801Y-12238174D02*
X16163753Y-12247698D01*
X16163753Y-12247698D02*
X16154229Y-12257222D01*
X16154229Y-12257222D02*
X16144706Y-12276269D01*
X16497087Y-12361984D02*
X16497087Y-12161984D01*
X16582801Y-12361984D02*
X16582801Y-12257222D01*
X16582801Y-12257222D02*
X16573277Y-12238174D01*
X16573277Y-12238174D02*
X16554230Y-12228650D01*
X16554230Y-12228650D02*
X16525658Y-12228650D01*
X16525658Y-12228650D02*
X16506610Y-12238174D01*
X16506610Y-12238174D02*
X16497087Y-12247698D01*
X16706610Y-12361984D02*
X16687563Y-12352460D01*
X16687563Y-12352460D02*
X16678039Y-12342936D01*
X16678039Y-12342936D02*
X16668515Y-12323888D01*
X16668515Y-12323888D02*
X16668515Y-12266746D01*
X16668515Y-12266746D02*
X16678039Y-12247698D01*
X16678039Y-12247698D02*
X16687563Y-12238174D01*
X16687563Y-12238174D02*
X16706610Y-12228650D01*
X16706610Y-12228650D02*
X16735182Y-12228650D01*
X16735182Y-12228650D02*
X16754230Y-12238174D01*
X16754230Y-12238174D02*
X16763753Y-12247698D01*
X16763753Y-12247698D02*
X16773277Y-12266746D01*
X16773277Y-12266746D02*
X16773277Y-12323888D01*
X16773277Y-12323888D02*
X16763753Y-12342936D01*
X16763753Y-12342936D02*
X16754230Y-12352460D01*
X16754230Y-12352460D02*
X16735182Y-12361984D01*
X16735182Y-12361984D02*
X16706610Y-12361984D01*
X16887563Y-12361984D02*
X16868515Y-12352460D01*
X16868515Y-12352460D02*
X16858992Y-12333412D01*
X16858992Y-12333412D02*
X16858992Y-12161984D01*
X17039944Y-12352460D02*
X17020896Y-12361984D01*
X17020896Y-12361984D02*
X16982801Y-12361984D01*
X16982801Y-12361984D02*
X16963753Y-12352460D01*
X16963753Y-12352460D02*
X16954230Y-12333412D01*
X16954230Y-12333412D02*
X16954230Y-12257222D01*
X16954230Y-12257222D02*
X16963753Y-12238174D01*
X16963753Y-12238174D02*
X16982801Y-12228650D01*
X16982801Y-12228650D02*
X17020896Y-12228650D01*
X17020896Y-12228650D02*
X17039944Y-12238174D01*
X17039944Y-12238174D02*
X17049468Y-12257222D01*
X17049468Y-12257222D02*
X17049468Y-12276269D01*
X17049468Y-12276269D02*
X16954230Y-12295317D01*
X17125658Y-12352460D02*
X17144706Y-12361984D01*
X17144706Y-12361984D02*
X17182801Y-12361984D01*
X17182801Y-12361984D02*
X17201849Y-12352460D01*
X17201849Y-12352460D02*
X17211373Y-12333412D01*
X17211373Y-12333412D02*
X17211373Y-12323888D01*
X17211373Y-12323888D02*
X17201849Y-12304841D01*
X17201849Y-12304841D02*
X17182801Y-12295317D01*
X17182801Y-12295317D02*
X17154230Y-12295317D01*
X17154230Y-12295317D02*
X17135182Y-12285793D01*
X17135182Y-12285793D02*
X17125658Y-12266746D01*
X17125658Y-12266746D02*
X17125658Y-12257222D01*
X17125658Y-12257222D02*
X17135182Y-12238174D01*
X17135182Y-12238174D02*
X17154230Y-12228650D01*
X17154230Y-12228650D02*
X17182801Y-12228650D01*
X17182801Y-12228650D02*
X17201849Y-12238174D01*
X17278039Y-12438174D02*
X17287563Y-12428650D01*
X17287563Y-12428650D02*
X17306611Y-12400079D01*
X17306611Y-12400079D02*
X17316134Y-12381031D01*
X17316134Y-12381031D02*
X17325658Y-12352460D01*
X17325658Y-12352460D02*
X17335182Y-12304841D01*
X17335182Y-12304841D02*
X17335182Y-12266746D01*
X17335182Y-12266746D02*
X17325658Y-12219127D01*
X17325658Y-12219127D02*
X17316134Y-12190555D01*
X17316134Y-12190555D02*
X17306611Y-12171508D01*
X17306611Y-12171508D02*
X17287563Y-12142936D01*
X17287563Y-12142936D02*
X17278039Y-12133412D01*
D12*
X12312500Y-12534500D02*
G75*
G02*
X12232500Y-12534500I-40000J0D01*
G01*
X12232500Y-12534500D02*
G75*
G02*
X12312500Y-12534500I40000J0D01*
G01*
D11*
X12611372Y-12425984D02*
X12630420Y-12425984D01*
X12630420Y-12425984D02*
X12649467Y-12435508D01*
X12649467Y-12435508D02*
X12658991Y-12445031D01*
X12658991Y-12445031D02*
X12668515Y-12464079D01*
X12668515Y-12464079D02*
X12678039Y-12502174D01*
X12678039Y-12502174D02*
X12678039Y-12549793D01*
X12678039Y-12549793D02*
X12668515Y-12587888D01*
X12668515Y-12587888D02*
X12658991Y-12606936D01*
X12658991Y-12606936D02*
X12649467Y-12616460D01*
X12649467Y-12616460D02*
X12630420Y-12625984D01*
X12630420Y-12625984D02*
X12611372Y-12625984D01*
X12611372Y-12625984D02*
X12592324Y-12616460D01*
X12592324Y-12616460D02*
X12582801Y-12606936D01*
X12582801Y-12606936D02*
X12573277Y-12587888D01*
X12573277Y-12587888D02*
X12563753Y-12549793D01*
X12563753Y-12549793D02*
X12563753Y-12502174D01*
X12563753Y-12502174D02*
X12573277Y-12464079D01*
X12573277Y-12464079D02*
X12582801Y-12445031D01*
X12582801Y-12445031D02*
X12592324Y-12435508D01*
X12592324Y-12435508D02*
X12611372Y-12425984D01*
X12763753Y-12606936D02*
X12773277Y-12616460D01*
X12773277Y-12616460D02*
X12763753Y-12625984D01*
X12763753Y-12625984D02*
X12754229Y-12616460D01*
X12754229Y-12616460D02*
X12763753Y-12606936D01*
X12763753Y-12606936D02*
X12763753Y-12625984D01*
X12887562Y-12511698D02*
X12868515Y-12502174D01*
X12868515Y-12502174D02*
X12858991Y-12492650D01*
X12858991Y-12492650D02*
X12849467Y-12473603D01*
X12849467Y-12473603D02*
X12849467Y-12464079D01*
X12849467Y-12464079D02*
X12858991Y-12445031D01*
X12858991Y-12445031D02*
X12868515Y-12435508D01*
X12868515Y-12435508D02*
X12887562Y-12425984D01*
X12887562Y-12425984D02*
X12925658Y-12425984D01*
X12925658Y-12425984D02*
X12944705Y-12435508D01*
X12944705Y-12435508D02*
X12954229Y-12445031D01*
X12954229Y-12445031D02*
X12963753Y-12464079D01*
X12963753Y-12464079D02*
X12963753Y-12473603D01*
X12963753Y-12473603D02*
X12954229Y-12492650D01*
X12954229Y-12492650D02*
X12944705Y-12502174D01*
X12944705Y-12502174D02*
X12925658Y-12511698D01*
X12925658Y-12511698D02*
X12887562Y-12511698D01*
X12887562Y-12511698D02*
X12868515Y-12521222D01*
X12868515Y-12521222D02*
X12858991Y-12530746D01*
X12858991Y-12530746D02*
X12849467Y-12549793D01*
X12849467Y-12549793D02*
X12849467Y-12587888D01*
X12849467Y-12587888D02*
X12858991Y-12606936D01*
X12858991Y-12606936D02*
X12868515Y-12616460D01*
X12868515Y-12616460D02*
X12887562Y-12625984D01*
X12887562Y-12625984D02*
X12925658Y-12625984D01*
X12925658Y-12625984D02*
X12944705Y-12616460D01*
X12944705Y-12616460D02*
X12954229Y-12606936D01*
X12954229Y-12606936D02*
X12963753Y-12587888D01*
X12963753Y-12587888D02*
X12963753Y-12549793D01*
X12963753Y-12549793D02*
X12954229Y-12530746D01*
X12954229Y-12530746D02*
X12944705Y-12521222D01*
X12944705Y-12521222D02*
X12925658Y-12511698D01*
X13087562Y-12425984D02*
X13106610Y-12425984D01*
X13106610Y-12425984D02*
X13125658Y-12435508D01*
X13125658Y-12435508D02*
X13135182Y-12445031D01*
X13135182Y-12445031D02*
X13144705Y-12464079D01*
X13144705Y-12464079D02*
X13154229Y-12502174D01*
X13154229Y-12502174D02*
X13154229Y-12549793D01*
X13154229Y-12549793D02*
X13144705Y-12587888D01*
X13144705Y-12587888D02*
X13135182Y-12606936D01*
X13135182Y-12606936D02*
X13125658Y-12616460D01*
X13125658Y-12616460D02*
X13106610Y-12625984D01*
X13106610Y-12625984D02*
X13087562Y-12625984D01*
X13087562Y-12625984D02*
X13068515Y-12616460D01*
X13068515Y-12616460D02*
X13058991Y-12606936D01*
X13058991Y-12606936D02*
X13049467Y-12587888D01*
X13049467Y-12587888D02*
X13039943Y-12549793D01*
X13039943Y-12549793D02*
X13039943Y-12502174D01*
X13039943Y-12502174D02*
X13049467Y-12464079D01*
X13049467Y-12464079D02*
X13058991Y-12445031D01*
X13058991Y-12445031D02*
X13068515Y-12435508D01*
X13068515Y-12435508D02*
X13087562Y-12425984D01*
X13278039Y-12425984D02*
X13297086Y-12425984D01*
X13297086Y-12425984D02*
X13316134Y-12435508D01*
X13316134Y-12435508D02*
X13325658Y-12445031D01*
X13325658Y-12445031D02*
X13335182Y-12464079D01*
X13335182Y-12464079D02*
X13344705Y-12502174D01*
X13344705Y-12502174D02*
X13344705Y-12549793D01*
X13344705Y-12549793D02*
X13335182Y-12587888D01*
X13335182Y-12587888D02*
X13325658Y-12606936D01*
X13325658Y-12606936D02*
X13316134Y-12616460D01*
X13316134Y-12616460D02*
X13297086Y-12625984D01*
X13297086Y-12625984D02*
X13278039Y-12625984D01*
X13278039Y-12625984D02*
X13258991Y-12616460D01*
X13258991Y-12616460D02*
X13249467Y-12606936D01*
X13249467Y-12606936D02*
X13239943Y-12587888D01*
X13239943Y-12587888D02*
X13230420Y-12549793D01*
X13230420Y-12549793D02*
X13230420Y-12502174D01*
X13230420Y-12502174D02*
X13239943Y-12464079D01*
X13239943Y-12464079D02*
X13249467Y-12445031D01*
X13249467Y-12445031D02*
X13258991Y-12435508D01*
X13258991Y-12435508D02*
X13278039Y-12425984D01*
X13430420Y-12625984D02*
X13430420Y-12492650D01*
X13430420Y-12511698D02*
X13439943Y-12502174D01*
X13439943Y-12502174D02*
X13458991Y-12492650D01*
X13458991Y-12492650D02*
X13487563Y-12492650D01*
X13487563Y-12492650D02*
X13506610Y-12502174D01*
X13506610Y-12502174D02*
X13516134Y-12521222D01*
X13516134Y-12521222D02*
X13516134Y-12625984D01*
X13516134Y-12521222D02*
X13525658Y-12502174D01*
X13525658Y-12502174D02*
X13544705Y-12492650D01*
X13544705Y-12492650D02*
X13573277Y-12492650D01*
X13573277Y-12492650D02*
X13592324Y-12502174D01*
X13592324Y-12502174D02*
X13601848Y-12521222D01*
X13601848Y-12521222D02*
X13601848Y-12625984D01*
X13697086Y-12625984D02*
X13697086Y-12492650D01*
X13697086Y-12511698D02*
X13706610Y-12502174D01*
X13706610Y-12502174D02*
X13725658Y-12492650D01*
X13725658Y-12492650D02*
X13754229Y-12492650D01*
X13754229Y-12492650D02*
X13773277Y-12502174D01*
X13773277Y-12502174D02*
X13782801Y-12521222D01*
X13782801Y-12521222D02*
X13782801Y-12625984D01*
X13782801Y-12521222D02*
X13792324Y-12502174D01*
X13792324Y-12502174D02*
X13811372Y-12492650D01*
X13811372Y-12492650D02*
X13839943Y-12492650D01*
X13839943Y-12492650D02*
X13858991Y-12502174D01*
X13858991Y-12502174D02*
X13868515Y-12521222D01*
X13868515Y-12521222D02*
X13868515Y-12625984D01*
X14258991Y-12416460D02*
X14087563Y-12673603D01*
X14516134Y-12425984D02*
X14535182Y-12425984D01*
X14535182Y-12425984D02*
X14554229Y-12435508D01*
X14554229Y-12435508D02*
X14563753Y-12445031D01*
X14563753Y-12445031D02*
X14573277Y-12464079D01*
X14573277Y-12464079D02*
X14582801Y-12502174D01*
X14582801Y-12502174D02*
X14582801Y-12549793D01*
X14582801Y-12549793D02*
X14573277Y-12587888D01*
X14573277Y-12587888D02*
X14563753Y-12606936D01*
X14563753Y-12606936D02*
X14554229Y-12616460D01*
X14554229Y-12616460D02*
X14535182Y-12625984D01*
X14535182Y-12625984D02*
X14516134Y-12625984D01*
X14516134Y-12625984D02*
X14497086Y-12616460D01*
X14497086Y-12616460D02*
X14487563Y-12606936D01*
X14487563Y-12606936D02*
X14478039Y-12587888D01*
X14478039Y-12587888D02*
X14468515Y-12549793D01*
X14468515Y-12549793D02*
X14468515Y-12502174D01*
X14468515Y-12502174D02*
X14478039Y-12464079D01*
X14478039Y-12464079D02*
X14487563Y-12445031D01*
X14487563Y-12445031D02*
X14497086Y-12435508D01*
X14497086Y-12435508D02*
X14516134Y-12425984D01*
X14668515Y-12606936D02*
X14678039Y-12616460D01*
X14678039Y-12616460D02*
X14668515Y-12625984D01*
X14668515Y-12625984D02*
X14658991Y-12616460D01*
X14658991Y-12616460D02*
X14668515Y-12606936D01*
X14668515Y-12606936D02*
X14668515Y-12625984D01*
X14801848Y-12425984D02*
X14820896Y-12425984D01*
X14820896Y-12425984D02*
X14839944Y-12435508D01*
X14839944Y-12435508D02*
X14849467Y-12445031D01*
X14849467Y-12445031D02*
X14858991Y-12464079D01*
X14858991Y-12464079D02*
X14868515Y-12502174D01*
X14868515Y-12502174D02*
X14868515Y-12549793D01*
X14868515Y-12549793D02*
X14858991Y-12587888D01*
X14858991Y-12587888D02*
X14849467Y-12606936D01*
X14849467Y-12606936D02*
X14839944Y-12616460D01*
X14839944Y-12616460D02*
X14820896Y-12625984D01*
X14820896Y-12625984D02*
X14801848Y-12625984D01*
X14801848Y-12625984D02*
X14782801Y-12616460D01*
X14782801Y-12616460D02*
X14773277Y-12606936D01*
X14773277Y-12606936D02*
X14763753Y-12587888D01*
X14763753Y-12587888D02*
X14754229Y-12549793D01*
X14754229Y-12549793D02*
X14754229Y-12502174D01*
X14754229Y-12502174D02*
X14763753Y-12464079D01*
X14763753Y-12464079D02*
X14773277Y-12445031D01*
X14773277Y-12445031D02*
X14782801Y-12435508D01*
X14782801Y-12435508D02*
X14801848Y-12425984D01*
X14935182Y-12425984D02*
X15058991Y-12425984D01*
X15058991Y-12425984D02*
X14992325Y-12502174D01*
X14992325Y-12502174D02*
X15020896Y-12502174D01*
X15020896Y-12502174D02*
X15039944Y-12511698D01*
X15039944Y-12511698D02*
X15049467Y-12521222D01*
X15049467Y-12521222D02*
X15058991Y-12540269D01*
X15058991Y-12540269D02*
X15058991Y-12587888D01*
X15058991Y-12587888D02*
X15049467Y-12606936D01*
X15049467Y-12606936D02*
X15039944Y-12616460D01*
X15039944Y-12616460D02*
X15020896Y-12625984D01*
X15020896Y-12625984D02*
X14963753Y-12625984D01*
X14963753Y-12625984D02*
X14944706Y-12616460D01*
X14944706Y-12616460D02*
X14935182Y-12606936D01*
X15249467Y-12625984D02*
X15135182Y-12625984D01*
X15192325Y-12625984D02*
X15192325Y-12425984D01*
X15192325Y-12425984D02*
X15173277Y-12454555D01*
X15173277Y-12454555D02*
X15154229Y-12473603D01*
X15154229Y-12473603D02*
X15135182Y-12483127D01*
X15430420Y-12425984D02*
X15335182Y-12425984D01*
X15335182Y-12425984D02*
X15325658Y-12521222D01*
X15325658Y-12521222D02*
X15335182Y-12511698D01*
X15335182Y-12511698D02*
X15354229Y-12502174D01*
X15354229Y-12502174D02*
X15401848Y-12502174D01*
X15401848Y-12502174D02*
X15420896Y-12511698D01*
X15420896Y-12511698D02*
X15430420Y-12521222D01*
X15430420Y-12521222D02*
X15439944Y-12540269D01*
X15439944Y-12540269D02*
X15439944Y-12587888D01*
X15439944Y-12587888D02*
X15430420Y-12606936D01*
X15430420Y-12606936D02*
X15420896Y-12616460D01*
X15420896Y-12616460D02*
X15401848Y-12625984D01*
X15401848Y-12625984D02*
X15354229Y-12625984D01*
X15354229Y-12625984D02*
X15335182Y-12616460D01*
X15335182Y-12616460D02*
X15325658Y-12606936D01*
X15516134Y-12425984D02*
X15516134Y-12464079D01*
X15592325Y-12425984D02*
X15592325Y-12464079D01*
X15887563Y-12702174D02*
X15878039Y-12692650D01*
X15878039Y-12692650D02*
X15858991Y-12664079D01*
X15858991Y-12664079D02*
X15849468Y-12645031D01*
X15849468Y-12645031D02*
X15839944Y-12616460D01*
X15839944Y-12616460D02*
X15830420Y-12568841D01*
X15830420Y-12568841D02*
X15830420Y-12530746D01*
X15830420Y-12530746D02*
X15839944Y-12483127D01*
X15839944Y-12483127D02*
X15849468Y-12454555D01*
X15849468Y-12454555D02*
X15858991Y-12435508D01*
X15858991Y-12435508D02*
X15878039Y-12406936D01*
X15878039Y-12406936D02*
X15887563Y-12397412D01*
X15992325Y-12511698D02*
X15973277Y-12502174D01*
X15973277Y-12502174D02*
X15963753Y-12492650D01*
X15963753Y-12492650D02*
X15954229Y-12473603D01*
X15954229Y-12473603D02*
X15954229Y-12464079D01*
X15954229Y-12464079D02*
X15963753Y-12445031D01*
X15963753Y-12445031D02*
X15973277Y-12435508D01*
X15973277Y-12435508D02*
X15992325Y-12425984D01*
X15992325Y-12425984D02*
X16030420Y-12425984D01*
X16030420Y-12425984D02*
X16049468Y-12435508D01*
X16049468Y-12435508D02*
X16058991Y-12445031D01*
X16058991Y-12445031D02*
X16068515Y-12464079D01*
X16068515Y-12464079D02*
X16068515Y-12473603D01*
X16068515Y-12473603D02*
X16058991Y-12492650D01*
X16058991Y-12492650D02*
X16049468Y-12502174D01*
X16049468Y-12502174D02*
X16030420Y-12511698D01*
X16030420Y-12511698D02*
X15992325Y-12511698D01*
X15992325Y-12511698D02*
X15973277Y-12521222D01*
X15973277Y-12521222D02*
X15963753Y-12530746D01*
X15963753Y-12530746D02*
X15954229Y-12549793D01*
X15954229Y-12549793D02*
X15954229Y-12587888D01*
X15954229Y-12587888D02*
X15963753Y-12606936D01*
X15963753Y-12606936D02*
X15973277Y-12616460D01*
X15973277Y-12616460D02*
X15992325Y-12625984D01*
X15992325Y-12625984D02*
X16030420Y-12625984D01*
X16030420Y-12625984D02*
X16049468Y-12616460D01*
X16049468Y-12616460D02*
X16058991Y-12606936D01*
X16058991Y-12606936D02*
X16068515Y-12587888D01*
X16068515Y-12587888D02*
X16068515Y-12549793D01*
X16068515Y-12549793D02*
X16058991Y-12530746D01*
X16058991Y-12530746D02*
X16049468Y-12521222D01*
X16049468Y-12521222D02*
X16030420Y-12511698D01*
X16306610Y-12625984D02*
X16306610Y-12425984D01*
X16392325Y-12625984D02*
X16392325Y-12521222D01*
X16392325Y-12521222D02*
X16382801Y-12502174D01*
X16382801Y-12502174D02*
X16363753Y-12492650D01*
X16363753Y-12492650D02*
X16335182Y-12492650D01*
X16335182Y-12492650D02*
X16316134Y-12502174D01*
X16316134Y-12502174D02*
X16306610Y-12511698D01*
X16516134Y-12625984D02*
X16497087Y-12616460D01*
X16497087Y-12616460D02*
X16487563Y-12606936D01*
X16487563Y-12606936D02*
X16478039Y-12587888D01*
X16478039Y-12587888D02*
X16478039Y-12530746D01*
X16478039Y-12530746D02*
X16487563Y-12511698D01*
X16487563Y-12511698D02*
X16497087Y-12502174D01*
X16497087Y-12502174D02*
X16516134Y-12492650D01*
X16516134Y-12492650D02*
X16544706Y-12492650D01*
X16544706Y-12492650D02*
X16563753Y-12502174D01*
X16563753Y-12502174D02*
X16573277Y-12511698D01*
X16573277Y-12511698D02*
X16582801Y-12530746D01*
X16582801Y-12530746D02*
X16582801Y-12587888D01*
X16582801Y-12587888D02*
X16573277Y-12606936D01*
X16573277Y-12606936D02*
X16563753Y-12616460D01*
X16563753Y-12616460D02*
X16544706Y-12625984D01*
X16544706Y-12625984D02*
X16516134Y-12625984D01*
X16697087Y-12625984D02*
X16678039Y-12616460D01*
X16678039Y-12616460D02*
X16668515Y-12597412D01*
X16668515Y-12597412D02*
X16668515Y-12425984D01*
X16849468Y-12616460D02*
X16830420Y-12625984D01*
X16830420Y-12625984D02*
X16792325Y-12625984D01*
X16792325Y-12625984D02*
X16773277Y-12616460D01*
X16773277Y-12616460D02*
X16763753Y-12597412D01*
X16763753Y-12597412D02*
X16763753Y-12521222D01*
X16763753Y-12521222D02*
X16773277Y-12502174D01*
X16773277Y-12502174D02*
X16792325Y-12492650D01*
X16792325Y-12492650D02*
X16830420Y-12492650D01*
X16830420Y-12492650D02*
X16849468Y-12502174D01*
X16849468Y-12502174D02*
X16858992Y-12521222D01*
X16858992Y-12521222D02*
X16858992Y-12540269D01*
X16858992Y-12540269D02*
X16763753Y-12559317D01*
X16935182Y-12616460D02*
X16954230Y-12625984D01*
X16954230Y-12625984D02*
X16992325Y-12625984D01*
X16992325Y-12625984D02*
X17011373Y-12616460D01*
X17011373Y-12616460D02*
X17020896Y-12597412D01*
X17020896Y-12597412D02*
X17020896Y-12587888D01*
X17020896Y-12587888D02*
X17011373Y-12568841D01*
X17011373Y-12568841D02*
X16992325Y-12559317D01*
X16992325Y-12559317D02*
X16963753Y-12559317D01*
X16963753Y-12559317D02*
X16944706Y-12549793D01*
X16944706Y-12549793D02*
X16935182Y-12530746D01*
X16935182Y-12530746D02*
X16935182Y-12521222D01*
X16935182Y-12521222D02*
X16944706Y-12502174D01*
X16944706Y-12502174D02*
X16963753Y-12492650D01*
X16963753Y-12492650D02*
X16992325Y-12492650D01*
X16992325Y-12492650D02*
X17011373Y-12502174D01*
X17087563Y-12702174D02*
X17097087Y-12692650D01*
X17097087Y-12692650D02*
X17116134Y-12664079D01*
X17116134Y-12664079D02*
X17125658Y-12645031D01*
X17125658Y-12645031D02*
X17135182Y-12616460D01*
X17135182Y-12616460D02*
X17144706Y-12568841D01*
X17144706Y-12568841D02*
X17144706Y-12530746D01*
X17144706Y-12530746D02*
X17135182Y-12483127D01*
X17135182Y-12483127D02*
X17125658Y-12454555D01*
X17125658Y-12454555D02*
X17116134Y-12435508D01*
X17116134Y-12435508D02*
X17097087Y-12406936D01*
X17097087Y-12406936D02*
X17087563Y-12397412D01*
D12*
X12267500Y-12753500D02*
X12267500Y-12843500D01*
X12222500Y-12798500D02*
X12312500Y-12798500D01*
D11*
X12611372Y-12689984D02*
X12630420Y-12689984D01*
X12630420Y-12689984D02*
X12649467Y-12699508D01*
X12649467Y-12699508D02*
X12658991Y-12709031D01*
X12658991Y-12709031D02*
X12668515Y-12728079D01*
X12668515Y-12728079D02*
X12678039Y-12766174D01*
X12678039Y-12766174D02*
X12678039Y-12813793D01*
X12678039Y-12813793D02*
X12668515Y-12851888D01*
X12668515Y-12851888D02*
X12658991Y-12870936D01*
X12658991Y-12870936D02*
X12649467Y-12880460D01*
X12649467Y-12880460D02*
X12630420Y-12889984D01*
X12630420Y-12889984D02*
X12611372Y-12889984D01*
X12611372Y-12889984D02*
X12592324Y-12880460D01*
X12592324Y-12880460D02*
X12582801Y-12870936D01*
X12582801Y-12870936D02*
X12573277Y-12851888D01*
X12573277Y-12851888D02*
X12563753Y-12813793D01*
X12563753Y-12813793D02*
X12563753Y-12766174D01*
X12563753Y-12766174D02*
X12573277Y-12728079D01*
X12573277Y-12728079D02*
X12582801Y-12709031D01*
X12582801Y-12709031D02*
X12592324Y-12699508D01*
X12592324Y-12699508D02*
X12611372Y-12689984D01*
X12763753Y-12870936D02*
X12773277Y-12880460D01*
X12773277Y-12880460D02*
X12763753Y-12889984D01*
X12763753Y-12889984D02*
X12754229Y-12880460D01*
X12754229Y-12880460D02*
X12763753Y-12870936D01*
X12763753Y-12870936D02*
X12763753Y-12889984D01*
X12868515Y-12889984D02*
X12906610Y-12889984D01*
X12906610Y-12889984D02*
X12925658Y-12880460D01*
X12925658Y-12880460D02*
X12935182Y-12870936D01*
X12935182Y-12870936D02*
X12954229Y-12842365D01*
X12954229Y-12842365D02*
X12963753Y-12804269D01*
X12963753Y-12804269D02*
X12963753Y-12728079D01*
X12963753Y-12728079D02*
X12954229Y-12709031D01*
X12954229Y-12709031D02*
X12944705Y-12699508D01*
X12944705Y-12699508D02*
X12925658Y-12689984D01*
X12925658Y-12689984D02*
X12887562Y-12689984D01*
X12887562Y-12689984D02*
X12868515Y-12699508D01*
X12868515Y-12699508D02*
X12858991Y-12709031D01*
X12858991Y-12709031D02*
X12849467Y-12728079D01*
X12849467Y-12728079D02*
X12849467Y-12775698D01*
X12849467Y-12775698D02*
X12858991Y-12794746D01*
X12858991Y-12794746D02*
X12868515Y-12804269D01*
X12868515Y-12804269D02*
X12887562Y-12813793D01*
X12887562Y-12813793D02*
X12925658Y-12813793D01*
X12925658Y-12813793D02*
X12944705Y-12804269D01*
X12944705Y-12804269D02*
X12954229Y-12794746D01*
X12954229Y-12794746D02*
X12963753Y-12775698D01*
X13087562Y-12689984D02*
X13106610Y-12689984D01*
X13106610Y-12689984D02*
X13125658Y-12699508D01*
X13125658Y-12699508D02*
X13135182Y-12709031D01*
X13135182Y-12709031D02*
X13144705Y-12728079D01*
X13144705Y-12728079D02*
X13154229Y-12766174D01*
X13154229Y-12766174D02*
X13154229Y-12813793D01*
X13154229Y-12813793D02*
X13144705Y-12851888D01*
X13144705Y-12851888D02*
X13135182Y-12870936D01*
X13135182Y-12870936D02*
X13125658Y-12880460D01*
X13125658Y-12880460D02*
X13106610Y-12889984D01*
X13106610Y-12889984D02*
X13087562Y-12889984D01*
X13087562Y-12889984D02*
X13068515Y-12880460D01*
X13068515Y-12880460D02*
X13058991Y-12870936D01*
X13058991Y-12870936D02*
X13049467Y-12851888D01*
X13049467Y-12851888D02*
X13039943Y-12813793D01*
X13039943Y-12813793D02*
X13039943Y-12766174D01*
X13039943Y-12766174D02*
X13049467Y-12728079D01*
X13049467Y-12728079D02*
X13058991Y-12709031D01*
X13058991Y-12709031D02*
X13068515Y-12699508D01*
X13068515Y-12699508D02*
X13087562Y-12689984D01*
X13278039Y-12689984D02*
X13297086Y-12689984D01*
X13297086Y-12689984D02*
X13316134Y-12699508D01*
X13316134Y-12699508D02*
X13325658Y-12709031D01*
X13325658Y-12709031D02*
X13335182Y-12728079D01*
X13335182Y-12728079D02*
X13344705Y-12766174D01*
X13344705Y-12766174D02*
X13344705Y-12813793D01*
X13344705Y-12813793D02*
X13335182Y-12851888D01*
X13335182Y-12851888D02*
X13325658Y-12870936D01*
X13325658Y-12870936D02*
X13316134Y-12880460D01*
X13316134Y-12880460D02*
X13297086Y-12889984D01*
X13297086Y-12889984D02*
X13278039Y-12889984D01*
X13278039Y-12889984D02*
X13258991Y-12880460D01*
X13258991Y-12880460D02*
X13249467Y-12870936D01*
X13249467Y-12870936D02*
X13239943Y-12851888D01*
X13239943Y-12851888D02*
X13230420Y-12813793D01*
X13230420Y-12813793D02*
X13230420Y-12766174D01*
X13230420Y-12766174D02*
X13239943Y-12728079D01*
X13239943Y-12728079D02*
X13249467Y-12709031D01*
X13249467Y-12709031D02*
X13258991Y-12699508D01*
X13258991Y-12699508D02*
X13278039Y-12689984D01*
X13430420Y-12889984D02*
X13430420Y-12756650D01*
X13430420Y-12775698D02*
X13439943Y-12766174D01*
X13439943Y-12766174D02*
X13458991Y-12756650D01*
X13458991Y-12756650D02*
X13487563Y-12756650D01*
X13487563Y-12756650D02*
X13506610Y-12766174D01*
X13506610Y-12766174D02*
X13516134Y-12785222D01*
X13516134Y-12785222D02*
X13516134Y-12889984D01*
X13516134Y-12785222D02*
X13525658Y-12766174D01*
X13525658Y-12766174D02*
X13544705Y-12756650D01*
X13544705Y-12756650D02*
X13573277Y-12756650D01*
X13573277Y-12756650D02*
X13592324Y-12766174D01*
X13592324Y-12766174D02*
X13601848Y-12785222D01*
X13601848Y-12785222D02*
X13601848Y-12889984D01*
X13697086Y-12889984D02*
X13697086Y-12756650D01*
X13697086Y-12775698D02*
X13706610Y-12766174D01*
X13706610Y-12766174D02*
X13725658Y-12756650D01*
X13725658Y-12756650D02*
X13754229Y-12756650D01*
X13754229Y-12756650D02*
X13773277Y-12766174D01*
X13773277Y-12766174D02*
X13782801Y-12785222D01*
X13782801Y-12785222D02*
X13782801Y-12889984D01*
X13782801Y-12785222D02*
X13792324Y-12766174D01*
X13792324Y-12766174D02*
X13811372Y-12756650D01*
X13811372Y-12756650D02*
X13839943Y-12756650D01*
X13839943Y-12756650D02*
X13858991Y-12766174D01*
X13858991Y-12766174D02*
X13868515Y-12785222D01*
X13868515Y-12785222D02*
X13868515Y-12889984D01*
X14258991Y-12680460D02*
X14087563Y-12937603D01*
X14516134Y-12689984D02*
X14535182Y-12689984D01*
X14535182Y-12689984D02*
X14554229Y-12699508D01*
X14554229Y-12699508D02*
X14563753Y-12709031D01*
X14563753Y-12709031D02*
X14573277Y-12728079D01*
X14573277Y-12728079D02*
X14582801Y-12766174D01*
X14582801Y-12766174D02*
X14582801Y-12813793D01*
X14582801Y-12813793D02*
X14573277Y-12851888D01*
X14573277Y-12851888D02*
X14563753Y-12870936D01*
X14563753Y-12870936D02*
X14554229Y-12880460D01*
X14554229Y-12880460D02*
X14535182Y-12889984D01*
X14535182Y-12889984D02*
X14516134Y-12889984D01*
X14516134Y-12889984D02*
X14497086Y-12880460D01*
X14497086Y-12880460D02*
X14487563Y-12870936D01*
X14487563Y-12870936D02*
X14478039Y-12851888D01*
X14478039Y-12851888D02*
X14468515Y-12813793D01*
X14468515Y-12813793D02*
X14468515Y-12766174D01*
X14468515Y-12766174D02*
X14478039Y-12728079D01*
X14478039Y-12728079D02*
X14487563Y-12709031D01*
X14487563Y-12709031D02*
X14497086Y-12699508D01*
X14497086Y-12699508D02*
X14516134Y-12689984D01*
X14668515Y-12870936D02*
X14678039Y-12880460D01*
X14678039Y-12880460D02*
X14668515Y-12889984D01*
X14668515Y-12889984D02*
X14658991Y-12880460D01*
X14658991Y-12880460D02*
X14668515Y-12870936D01*
X14668515Y-12870936D02*
X14668515Y-12889984D01*
X14801848Y-12689984D02*
X14820896Y-12689984D01*
X14820896Y-12689984D02*
X14839944Y-12699508D01*
X14839944Y-12699508D02*
X14849467Y-12709031D01*
X14849467Y-12709031D02*
X14858991Y-12728079D01*
X14858991Y-12728079D02*
X14868515Y-12766174D01*
X14868515Y-12766174D02*
X14868515Y-12813793D01*
X14868515Y-12813793D02*
X14858991Y-12851888D01*
X14858991Y-12851888D02*
X14849467Y-12870936D01*
X14849467Y-12870936D02*
X14839944Y-12880460D01*
X14839944Y-12880460D02*
X14820896Y-12889984D01*
X14820896Y-12889984D02*
X14801848Y-12889984D01*
X14801848Y-12889984D02*
X14782801Y-12880460D01*
X14782801Y-12880460D02*
X14773277Y-12870936D01*
X14773277Y-12870936D02*
X14763753Y-12851888D01*
X14763753Y-12851888D02*
X14754229Y-12813793D01*
X14754229Y-12813793D02*
X14754229Y-12766174D01*
X14754229Y-12766174D02*
X14763753Y-12728079D01*
X14763753Y-12728079D02*
X14773277Y-12709031D01*
X14773277Y-12709031D02*
X14782801Y-12699508D01*
X14782801Y-12699508D02*
X14801848Y-12689984D01*
X14935182Y-12689984D02*
X15058991Y-12689984D01*
X15058991Y-12689984D02*
X14992325Y-12766174D01*
X14992325Y-12766174D02*
X15020896Y-12766174D01*
X15020896Y-12766174D02*
X15039944Y-12775698D01*
X15039944Y-12775698D02*
X15049467Y-12785222D01*
X15049467Y-12785222D02*
X15058991Y-12804269D01*
X15058991Y-12804269D02*
X15058991Y-12851888D01*
X15058991Y-12851888D02*
X15049467Y-12870936D01*
X15049467Y-12870936D02*
X15039944Y-12880460D01*
X15039944Y-12880460D02*
X15020896Y-12889984D01*
X15020896Y-12889984D02*
X14963753Y-12889984D01*
X14963753Y-12889984D02*
X14944706Y-12880460D01*
X14944706Y-12880460D02*
X14935182Y-12870936D01*
X15239944Y-12689984D02*
X15144706Y-12689984D01*
X15144706Y-12689984D02*
X15135182Y-12785222D01*
X15135182Y-12785222D02*
X15144706Y-12775698D01*
X15144706Y-12775698D02*
X15163753Y-12766174D01*
X15163753Y-12766174D02*
X15211372Y-12766174D01*
X15211372Y-12766174D02*
X15230420Y-12775698D01*
X15230420Y-12775698D02*
X15239944Y-12785222D01*
X15239944Y-12785222D02*
X15249467Y-12804269D01*
X15249467Y-12804269D02*
X15249467Y-12851888D01*
X15249467Y-12851888D02*
X15239944Y-12870936D01*
X15239944Y-12870936D02*
X15230420Y-12880460D01*
X15230420Y-12880460D02*
X15211372Y-12889984D01*
X15211372Y-12889984D02*
X15163753Y-12889984D01*
X15163753Y-12889984D02*
X15144706Y-12880460D01*
X15144706Y-12880460D02*
X15135182Y-12870936D01*
X15420896Y-12756650D02*
X15420896Y-12889984D01*
X15373277Y-12680460D02*
X15325658Y-12823317D01*
X15325658Y-12823317D02*
X15449467Y-12823317D01*
X15516134Y-12689984D02*
X15516134Y-12728079D01*
X15592325Y-12689984D02*
X15592325Y-12728079D01*
X15887563Y-12966174D02*
X15878039Y-12956650D01*
X15878039Y-12956650D02*
X15858991Y-12928079D01*
X15858991Y-12928079D02*
X15849468Y-12909031D01*
X15849468Y-12909031D02*
X15839944Y-12880460D01*
X15839944Y-12880460D02*
X15830420Y-12832841D01*
X15830420Y-12832841D02*
X15830420Y-12794746D01*
X15830420Y-12794746D02*
X15839944Y-12747127D01*
X15839944Y-12747127D02*
X15849468Y-12718555D01*
X15849468Y-12718555D02*
X15858991Y-12699508D01*
X15858991Y-12699508D02*
X15878039Y-12670936D01*
X15878039Y-12670936D02*
X15887563Y-12661412D01*
X16068515Y-12889984D02*
X15954229Y-12889984D01*
X16011372Y-12889984D02*
X16011372Y-12689984D01*
X16011372Y-12689984D02*
X15992325Y-12718555D01*
X15992325Y-12718555D02*
X15973277Y-12737603D01*
X15973277Y-12737603D02*
X15954229Y-12747127D01*
X16182801Y-12775698D02*
X16163753Y-12766174D01*
X16163753Y-12766174D02*
X16154229Y-12756650D01*
X16154229Y-12756650D02*
X16144706Y-12737603D01*
X16144706Y-12737603D02*
X16144706Y-12728079D01*
X16144706Y-12728079D02*
X16154229Y-12709031D01*
X16154229Y-12709031D02*
X16163753Y-12699508D01*
X16163753Y-12699508D02*
X16182801Y-12689984D01*
X16182801Y-12689984D02*
X16220896Y-12689984D01*
X16220896Y-12689984D02*
X16239944Y-12699508D01*
X16239944Y-12699508D02*
X16249468Y-12709031D01*
X16249468Y-12709031D02*
X16258991Y-12728079D01*
X16258991Y-12728079D02*
X16258991Y-12737603D01*
X16258991Y-12737603D02*
X16249468Y-12756650D01*
X16249468Y-12756650D02*
X16239944Y-12766174D01*
X16239944Y-12766174D02*
X16220896Y-12775698D01*
X16220896Y-12775698D02*
X16182801Y-12775698D01*
X16182801Y-12775698D02*
X16163753Y-12785222D01*
X16163753Y-12785222D02*
X16154229Y-12794746D01*
X16154229Y-12794746D02*
X16144706Y-12813793D01*
X16144706Y-12813793D02*
X16144706Y-12851888D01*
X16144706Y-12851888D02*
X16154229Y-12870936D01*
X16154229Y-12870936D02*
X16163753Y-12880460D01*
X16163753Y-12880460D02*
X16182801Y-12889984D01*
X16182801Y-12889984D02*
X16220896Y-12889984D01*
X16220896Y-12889984D02*
X16239944Y-12880460D01*
X16239944Y-12880460D02*
X16249468Y-12870936D01*
X16249468Y-12870936D02*
X16258991Y-12851888D01*
X16258991Y-12851888D02*
X16258991Y-12813793D01*
X16258991Y-12813793D02*
X16249468Y-12794746D01*
X16249468Y-12794746D02*
X16239944Y-12785222D01*
X16239944Y-12785222D02*
X16220896Y-12775698D01*
X16497087Y-12889984D02*
X16497087Y-12689984D01*
X16582801Y-12889984D02*
X16582801Y-12785222D01*
X16582801Y-12785222D02*
X16573277Y-12766174D01*
X16573277Y-12766174D02*
X16554230Y-12756650D01*
X16554230Y-12756650D02*
X16525658Y-12756650D01*
X16525658Y-12756650D02*
X16506610Y-12766174D01*
X16506610Y-12766174D02*
X16497087Y-12775698D01*
X16706610Y-12889984D02*
X16687563Y-12880460D01*
X16687563Y-12880460D02*
X16678039Y-12870936D01*
X16678039Y-12870936D02*
X16668515Y-12851888D01*
X16668515Y-12851888D02*
X16668515Y-12794746D01*
X16668515Y-12794746D02*
X16678039Y-12775698D01*
X16678039Y-12775698D02*
X16687563Y-12766174D01*
X16687563Y-12766174D02*
X16706610Y-12756650D01*
X16706610Y-12756650D02*
X16735182Y-12756650D01*
X16735182Y-12756650D02*
X16754230Y-12766174D01*
X16754230Y-12766174D02*
X16763753Y-12775698D01*
X16763753Y-12775698D02*
X16773277Y-12794746D01*
X16773277Y-12794746D02*
X16773277Y-12851888D01*
X16773277Y-12851888D02*
X16763753Y-12870936D01*
X16763753Y-12870936D02*
X16754230Y-12880460D01*
X16754230Y-12880460D02*
X16735182Y-12889984D01*
X16735182Y-12889984D02*
X16706610Y-12889984D01*
X16887563Y-12889984D02*
X16868515Y-12880460D01*
X16868515Y-12880460D02*
X16858992Y-12861412D01*
X16858992Y-12861412D02*
X16858992Y-12689984D01*
X17039944Y-12880460D02*
X17020896Y-12889984D01*
X17020896Y-12889984D02*
X16982801Y-12889984D01*
X16982801Y-12889984D02*
X16963753Y-12880460D01*
X16963753Y-12880460D02*
X16954230Y-12861412D01*
X16954230Y-12861412D02*
X16954230Y-12785222D01*
X16954230Y-12785222D02*
X16963753Y-12766174D01*
X16963753Y-12766174D02*
X16982801Y-12756650D01*
X16982801Y-12756650D02*
X17020896Y-12756650D01*
X17020896Y-12756650D02*
X17039944Y-12766174D01*
X17039944Y-12766174D02*
X17049468Y-12785222D01*
X17049468Y-12785222D02*
X17049468Y-12804269D01*
X17049468Y-12804269D02*
X16954230Y-12823317D01*
X17125658Y-12880460D02*
X17144706Y-12889984D01*
X17144706Y-12889984D02*
X17182801Y-12889984D01*
X17182801Y-12889984D02*
X17201849Y-12880460D01*
X17201849Y-12880460D02*
X17211373Y-12861412D01*
X17211373Y-12861412D02*
X17211373Y-12851888D01*
X17211373Y-12851888D02*
X17201849Y-12832841D01*
X17201849Y-12832841D02*
X17182801Y-12823317D01*
X17182801Y-12823317D02*
X17154230Y-12823317D01*
X17154230Y-12823317D02*
X17135182Y-12813793D01*
X17135182Y-12813793D02*
X17125658Y-12794746D01*
X17125658Y-12794746D02*
X17125658Y-12785222D01*
X17125658Y-12785222D02*
X17135182Y-12766174D01*
X17135182Y-12766174D02*
X17154230Y-12756650D01*
X17154230Y-12756650D02*
X17182801Y-12756650D01*
X17182801Y-12756650D02*
X17201849Y-12766174D01*
X17278039Y-12966174D02*
X17287563Y-12956650D01*
X17287563Y-12956650D02*
X17306611Y-12928079D01*
X17306611Y-12928079D02*
X17316134Y-12909031D01*
X17316134Y-12909031D02*
X17325658Y-12880460D01*
X17325658Y-12880460D02*
X17335182Y-12832841D01*
X17335182Y-12832841D02*
X17335182Y-12794746D01*
X17335182Y-12794746D02*
X17325658Y-12747127D01*
X17325658Y-12747127D02*
X17316134Y-12718555D01*
X17316134Y-12718555D02*
X17306611Y-12699508D01*
X17306611Y-12699508D02*
X17287563Y-12670936D01*
X17287563Y-12670936D02*
X17278039Y-12661412D01*
D12*
X12297856Y-13097856D02*
X12297856Y-13027144D01*
X12227144Y-13027144D01*
X12227144Y-13097856D01*
X12297856Y-13097856D01*
D11*
X12678039Y-13153984D02*
X12563753Y-13153984D01*
X12620896Y-13153984D02*
X12620896Y-12953984D01*
X12620896Y-12953984D02*
X12601848Y-12982555D01*
X12601848Y-12982555D02*
X12582801Y-13001603D01*
X12582801Y-13001603D02*
X12563753Y-13011127D01*
X12763753Y-13134936D02*
X12773277Y-13144460D01*
X12773277Y-13144460D02*
X12763753Y-13153984D01*
X12763753Y-13153984D02*
X12754229Y-13144460D01*
X12754229Y-13144460D02*
X12763753Y-13134936D01*
X12763753Y-13134936D02*
X12763753Y-13153984D01*
X12897086Y-12953984D02*
X12916134Y-12953984D01*
X12916134Y-12953984D02*
X12935182Y-12963508D01*
X12935182Y-12963508D02*
X12944705Y-12973031D01*
X12944705Y-12973031D02*
X12954229Y-12992079D01*
X12954229Y-12992079D02*
X12963753Y-13030174D01*
X12963753Y-13030174D02*
X12963753Y-13077793D01*
X12963753Y-13077793D02*
X12954229Y-13115888D01*
X12954229Y-13115888D02*
X12944705Y-13134936D01*
X12944705Y-13134936D02*
X12935182Y-13144460D01*
X12935182Y-13144460D02*
X12916134Y-13153984D01*
X12916134Y-13153984D02*
X12897086Y-13153984D01*
X12897086Y-13153984D02*
X12878039Y-13144460D01*
X12878039Y-13144460D02*
X12868515Y-13134936D01*
X12868515Y-13134936D02*
X12858991Y-13115888D01*
X12858991Y-13115888D02*
X12849467Y-13077793D01*
X12849467Y-13077793D02*
X12849467Y-13030174D01*
X12849467Y-13030174D02*
X12858991Y-12992079D01*
X12858991Y-12992079D02*
X12868515Y-12973031D01*
X12868515Y-12973031D02*
X12878039Y-12963508D01*
X12878039Y-12963508D02*
X12897086Y-12953984D01*
X13087562Y-12953984D02*
X13106610Y-12953984D01*
X13106610Y-12953984D02*
X13125658Y-12963508D01*
X13125658Y-12963508D02*
X13135182Y-12973031D01*
X13135182Y-12973031D02*
X13144705Y-12992079D01*
X13144705Y-12992079D02*
X13154229Y-13030174D01*
X13154229Y-13030174D02*
X13154229Y-13077793D01*
X13154229Y-13077793D02*
X13144705Y-13115888D01*
X13144705Y-13115888D02*
X13135182Y-13134936D01*
X13135182Y-13134936D02*
X13125658Y-13144460D01*
X13125658Y-13144460D02*
X13106610Y-13153984D01*
X13106610Y-13153984D02*
X13087562Y-13153984D01*
X13087562Y-13153984D02*
X13068515Y-13144460D01*
X13068515Y-13144460D02*
X13058991Y-13134936D01*
X13058991Y-13134936D02*
X13049467Y-13115888D01*
X13049467Y-13115888D02*
X13039943Y-13077793D01*
X13039943Y-13077793D02*
X13039943Y-13030174D01*
X13039943Y-13030174D02*
X13049467Y-12992079D01*
X13049467Y-12992079D02*
X13058991Y-12973031D01*
X13058991Y-12973031D02*
X13068515Y-12963508D01*
X13068515Y-12963508D02*
X13087562Y-12953984D01*
X13278039Y-12953984D02*
X13297086Y-12953984D01*
X13297086Y-12953984D02*
X13316134Y-12963508D01*
X13316134Y-12963508D02*
X13325658Y-12973031D01*
X13325658Y-12973031D02*
X13335182Y-12992079D01*
X13335182Y-12992079D02*
X13344705Y-13030174D01*
X13344705Y-13030174D02*
X13344705Y-13077793D01*
X13344705Y-13077793D02*
X13335182Y-13115888D01*
X13335182Y-13115888D02*
X13325658Y-13134936D01*
X13325658Y-13134936D02*
X13316134Y-13144460D01*
X13316134Y-13144460D02*
X13297086Y-13153984D01*
X13297086Y-13153984D02*
X13278039Y-13153984D01*
X13278039Y-13153984D02*
X13258991Y-13144460D01*
X13258991Y-13144460D02*
X13249467Y-13134936D01*
X13249467Y-13134936D02*
X13239943Y-13115888D01*
X13239943Y-13115888D02*
X13230420Y-13077793D01*
X13230420Y-13077793D02*
X13230420Y-13030174D01*
X13230420Y-13030174D02*
X13239943Y-12992079D01*
X13239943Y-12992079D02*
X13249467Y-12973031D01*
X13249467Y-12973031D02*
X13258991Y-12963508D01*
X13258991Y-12963508D02*
X13278039Y-12953984D01*
X13430420Y-13153984D02*
X13430420Y-13020650D01*
X13430420Y-13039698D02*
X13439943Y-13030174D01*
X13439943Y-13030174D02*
X13458991Y-13020650D01*
X13458991Y-13020650D02*
X13487563Y-13020650D01*
X13487563Y-13020650D02*
X13506610Y-13030174D01*
X13506610Y-13030174D02*
X13516134Y-13049222D01*
X13516134Y-13049222D02*
X13516134Y-13153984D01*
X13516134Y-13049222D02*
X13525658Y-13030174D01*
X13525658Y-13030174D02*
X13544705Y-13020650D01*
X13544705Y-13020650D02*
X13573277Y-13020650D01*
X13573277Y-13020650D02*
X13592324Y-13030174D01*
X13592324Y-13030174D02*
X13601848Y-13049222D01*
X13601848Y-13049222D02*
X13601848Y-13153984D01*
X13697086Y-13153984D02*
X13697086Y-13020650D01*
X13697086Y-13039698D02*
X13706610Y-13030174D01*
X13706610Y-13030174D02*
X13725658Y-13020650D01*
X13725658Y-13020650D02*
X13754229Y-13020650D01*
X13754229Y-13020650D02*
X13773277Y-13030174D01*
X13773277Y-13030174D02*
X13782801Y-13049222D01*
X13782801Y-13049222D02*
X13782801Y-13153984D01*
X13782801Y-13049222D02*
X13792324Y-13030174D01*
X13792324Y-13030174D02*
X13811372Y-13020650D01*
X13811372Y-13020650D02*
X13839943Y-13020650D01*
X13839943Y-13020650D02*
X13858991Y-13030174D01*
X13858991Y-13030174D02*
X13868515Y-13049222D01*
X13868515Y-13049222D02*
X13868515Y-13153984D01*
X14258991Y-12944460D02*
X14087563Y-13201603D01*
X14516134Y-12953984D02*
X14535182Y-12953984D01*
X14535182Y-12953984D02*
X14554229Y-12963508D01*
X14554229Y-12963508D02*
X14563753Y-12973031D01*
X14563753Y-12973031D02*
X14573277Y-12992079D01*
X14573277Y-12992079D02*
X14582801Y-13030174D01*
X14582801Y-13030174D02*
X14582801Y-13077793D01*
X14582801Y-13077793D02*
X14573277Y-13115888D01*
X14573277Y-13115888D02*
X14563753Y-13134936D01*
X14563753Y-13134936D02*
X14554229Y-13144460D01*
X14554229Y-13144460D02*
X14535182Y-13153984D01*
X14535182Y-13153984D02*
X14516134Y-13153984D01*
X14516134Y-13153984D02*
X14497086Y-13144460D01*
X14497086Y-13144460D02*
X14487563Y-13134936D01*
X14487563Y-13134936D02*
X14478039Y-13115888D01*
X14478039Y-13115888D02*
X14468515Y-13077793D01*
X14468515Y-13077793D02*
X14468515Y-13030174D01*
X14468515Y-13030174D02*
X14478039Y-12992079D01*
X14478039Y-12992079D02*
X14487563Y-12973031D01*
X14487563Y-12973031D02*
X14497086Y-12963508D01*
X14497086Y-12963508D02*
X14516134Y-12953984D01*
X14668515Y-13134936D02*
X14678039Y-13144460D01*
X14678039Y-13144460D02*
X14668515Y-13153984D01*
X14668515Y-13153984D02*
X14658991Y-13144460D01*
X14658991Y-13144460D02*
X14668515Y-13134936D01*
X14668515Y-13134936D02*
X14668515Y-13153984D01*
X14801848Y-12953984D02*
X14820896Y-12953984D01*
X14820896Y-12953984D02*
X14839944Y-12963508D01*
X14839944Y-12963508D02*
X14849467Y-12973031D01*
X14849467Y-12973031D02*
X14858991Y-12992079D01*
X14858991Y-12992079D02*
X14868515Y-13030174D01*
X14868515Y-13030174D02*
X14868515Y-13077793D01*
X14868515Y-13077793D02*
X14858991Y-13115888D01*
X14858991Y-13115888D02*
X14849467Y-13134936D01*
X14849467Y-13134936D02*
X14839944Y-13144460D01*
X14839944Y-13144460D02*
X14820896Y-13153984D01*
X14820896Y-13153984D02*
X14801848Y-13153984D01*
X14801848Y-13153984D02*
X14782801Y-13144460D01*
X14782801Y-13144460D02*
X14773277Y-13134936D01*
X14773277Y-13134936D02*
X14763753Y-13115888D01*
X14763753Y-13115888D02*
X14754229Y-13077793D01*
X14754229Y-13077793D02*
X14754229Y-13030174D01*
X14754229Y-13030174D02*
X14763753Y-12992079D01*
X14763753Y-12992079D02*
X14773277Y-12973031D01*
X14773277Y-12973031D02*
X14782801Y-12963508D01*
X14782801Y-12963508D02*
X14801848Y-12953984D01*
X14935182Y-12953984D02*
X15058991Y-12953984D01*
X15058991Y-12953984D02*
X14992325Y-13030174D01*
X14992325Y-13030174D02*
X15020896Y-13030174D01*
X15020896Y-13030174D02*
X15039944Y-13039698D01*
X15039944Y-13039698D02*
X15049467Y-13049222D01*
X15049467Y-13049222D02*
X15058991Y-13068269D01*
X15058991Y-13068269D02*
X15058991Y-13115888D01*
X15058991Y-13115888D02*
X15049467Y-13134936D01*
X15049467Y-13134936D02*
X15039944Y-13144460D01*
X15039944Y-13144460D02*
X15020896Y-13153984D01*
X15020896Y-13153984D02*
X14963753Y-13153984D01*
X14963753Y-13153984D02*
X14944706Y-13144460D01*
X14944706Y-13144460D02*
X14935182Y-13134936D01*
X15154229Y-13153984D02*
X15192325Y-13153984D01*
X15192325Y-13153984D02*
X15211372Y-13144460D01*
X15211372Y-13144460D02*
X15220896Y-13134936D01*
X15220896Y-13134936D02*
X15239944Y-13106365D01*
X15239944Y-13106365D02*
X15249467Y-13068269D01*
X15249467Y-13068269D02*
X15249467Y-12992079D01*
X15249467Y-12992079D02*
X15239944Y-12973031D01*
X15239944Y-12973031D02*
X15230420Y-12963508D01*
X15230420Y-12963508D02*
X15211372Y-12953984D01*
X15211372Y-12953984D02*
X15173277Y-12953984D01*
X15173277Y-12953984D02*
X15154229Y-12963508D01*
X15154229Y-12963508D02*
X15144706Y-12973031D01*
X15144706Y-12973031D02*
X15135182Y-12992079D01*
X15135182Y-12992079D02*
X15135182Y-13039698D01*
X15135182Y-13039698D02*
X15144706Y-13058746D01*
X15144706Y-13058746D02*
X15154229Y-13068269D01*
X15154229Y-13068269D02*
X15173277Y-13077793D01*
X15173277Y-13077793D02*
X15211372Y-13077793D01*
X15211372Y-13077793D02*
X15230420Y-13068269D01*
X15230420Y-13068269D02*
X15239944Y-13058746D01*
X15239944Y-13058746D02*
X15249467Y-13039698D01*
X15420896Y-13020650D02*
X15420896Y-13153984D01*
X15373277Y-12944460D02*
X15325658Y-13087317D01*
X15325658Y-13087317D02*
X15449467Y-13087317D01*
X15516134Y-12953984D02*
X15516134Y-12992079D01*
X15592325Y-12953984D02*
X15592325Y-12992079D01*
X15887563Y-13230174D02*
X15878039Y-13220650D01*
X15878039Y-13220650D02*
X15858991Y-13192079D01*
X15858991Y-13192079D02*
X15849468Y-13173031D01*
X15849468Y-13173031D02*
X15839944Y-13144460D01*
X15839944Y-13144460D02*
X15830420Y-13096841D01*
X15830420Y-13096841D02*
X15830420Y-13058746D01*
X15830420Y-13058746D02*
X15839944Y-13011127D01*
X15839944Y-13011127D02*
X15849468Y-12982555D01*
X15849468Y-12982555D02*
X15858991Y-12963508D01*
X15858991Y-12963508D02*
X15878039Y-12934936D01*
X15878039Y-12934936D02*
X15887563Y-12925412D01*
X15944706Y-12953984D02*
X16068515Y-12953984D01*
X16068515Y-12953984D02*
X16001848Y-13030174D01*
X16001848Y-13030174D02*
X16030420Y-13030174D01*
X16030420Y-13030174D02*
X16049468Y-13039698D01*
X16049468Y-13039698D02*
X16058991Y-13049222D01*
X16058991Y-13049222D02*
X16068515Y-13068269D01*
X16068515Y-13068269D02*
X16068515Y-13115888D01*
X16068515Y-13115888D02*
X16058991Y-13134936D01*
X16058991Y-13134936D02*
X16049468Y-13144460D01*
X16049468Y-13144460D02*
X16030420Y-13153984D01*
X16030420Y-13153984D02*
X15973277Y-13153984D01*
X15973277Y-13153984D02*
X15954229Y-13144460D01*
X15954229Y-13144460D02*
X15944706Y-13134936D01*
X16306610Y-13153984D02*
X16306610Y-12953984D01*
X16392325Y-13153984D02*
X16392325Y-13049222D01*
X16392325Y-13049222D02*
X16382801Y-13030174D01*
X16382801Y-13030174D02*
X16363753Y-13020650D01*
X16363753Y-13020650D02*
X16335182Y-13020650D01*
X16335182Y-13020650D02*
X16316134Y-13030174D01*
X16316134Y-13030174D02*
X16306610Y-13039698D01*
X16516134Y-13153984D02*
X16497087Y-13144460D01*
X16497087Y-13144460D02*
X16487563Y-13134936D01*
X16487563Y-13134936D02*
X16478039Y-13115888D01*
X16478039Y-13115888D02*
X16478039Y-13058746D01*
X16478039Y-13058746D02*
X16487563Y-13039698D01*
X16487563Y-13039698D02*
X16497087Y-13030174D01*
X16497087Y-13030174D02*
X16516134Y-13020650D01*
X16516134Y-13020650D02*
X16544706Y-13020650D01*
X16544706Y-13020650D02*
X16563753Y-13030174D01*
X16563753Y-13030174D02*
X16573277Y-13039698D01*
X16573277Y-13039698D02*
X16582801Y-13058746D01*
X16582801Y-13058746D02*
X16582801Y-13115888D01*
X16582801Y-13115888D02*
X16573277Y-13134936D01*
X16573277Y-13134936D02*
X16563753Y-13144460D01*
X16563753Y-13144460D02*
X16544706Y-13153984D01*
X16544706Y-13153984D02*
X16516134Y-13153984D01*
X16697087Y-13153984D02*
X16678039Y-13144460D01*
X16678039Y-13144460D02*
X16668515Y-13125412D01*
X16668515Y-13125412D02*
X16668515Y-12953984D01*
X16849468Y-13144460D02*
X16830420Y-13153984D01*
X16830420Y-13153984D02*
X16792325Y-13153984D01*
X16792325Y-13153984D02*
X16773277Y-13144460D01*
X16773277Y-13144460D02*
X16763753Y-13125412D01*
X16763753Y-13125412D02*
X16763753Y-13049222D01*
X16763753Y-13049222D02*
X16773277Y-13030174D01*
X16773277Y-13030174D02*
X16792325Y-13020650D01*
X16792325Y-13020650D02*
X16830420Y-13020650D01*
X16830420Y-13020650D02*
X16849468Y-13030174D01*
X16849468Y-13030174D02*
X16858992Y-13049222D01*
X16858992Y-13049222D02*
X16858992Y-13068269D01*
X16858992Y-13068269D02*
X16763753Y-13087317D01*
X16935182Y-13144460D02*
X16954230Y-13153984D01*
X16954230Y-13153984D02*
X16992325Y-13153984D01*
X16992325Y-13153984D02*
X17011373Y-13144460D01*
X17011373Y-13144460D02*
X17020896Y-13125412D01*
X17020896Y-13125412D02*
X17020896Y-13115888D01*
X17020896Y-13115888D02*
X17011373Y-13096841D01*
X17011373Y-13096841D02*
X16992325Y-13087317D01*
X16992325Y-13087317D02*
X16963753Y-13087317D01*
X16963753Y-13087317D02*
X16944706Y-13077793D01*
X16944706Y-13077793D02*
X16935182Y-13058746D01*
X16935182Y-13058746D02*
X16935182Y-13049222D01*
X16935182Y-13049222D02*
X16944706Y-13030174D01*
X16944706Y-13030174D02*
X16963753Y-13020650D01*
X16963753Y-13020650D02*
X16992325Y-13020650D01*
X16992325Y-13020650D02*
X17011373Y-13030174D01*
X17087563Y-13230174D02*
X17097087Y-13220650D01*
X17097087Y-13220650D02*
X17116134Y-13192079D01*
X17116134Y-13192079D02*
X17125658Y-13173031D01*
X17125658Y-13173031D02*
X17135182Y-13144460D01*
X17135182Y-13144460D02*
X17144706Y-13096841D01*
X17144706Y-13096841D02*
X17144706Y-13058746D01*
X17144706Y-13058746D02*
X17135182Y-13011127D01*
X17135182Y-13011127D02*
X17125658Y-12982555D01*
X17125658Y-12982555D02*
X17116134Y-12963508D01*
X17116134Y-12963508D02*
X17097087Y-12934936D01*
X17097087Y-12934936D02*
X17087563Y-12925412D01*
D13*
X12255000Y-13384000D02*
X12312500Y-13326500D01*
X12255000Y-13269000D01*
X12197500Y-13326500D01*
X12255000Y-13384000D01*
D11*
X12678039Y-13417984D02*
X12563753Y-13417984D01*
X12620896Y-13417984D02*
X12620896Y-13217984D01*
X12620896Y-13217984D02*
X12601848Y-13246555D01*
X12601848Y-13246555D02*
X12582801Y-13265603D01*
X12582801Y-13265603D02*
X12563753Y-13275127D01*
X12763753Y-13398936D02*
X12773277Y-13408460D01*
X12773277Y-13408460D02*
X12763753Y-13417984D01*
X12763753Y-13417984D02*
X12754229Y-13408460D01*
X12754229Y-13408460D02*
X12763753Y-13398936D01*
X12763753Y-13398936D02*
X12763753Y-13417984D01*
X12963753Y-13417984D02*
X12849467Y-13417984D01*
X12906610Y-13417984D02*
X12906610Y-13217984D01*
X12906610Y-13217984D02*
X12887562Y-13246555D01*
X12887562Y-13246555D02*
X12868515Y-13265603D01*
X12868515Y-13265603D02*
X12849467Y-13275127D01*
X13144705Y-13217984D02*
X13049467Y-13217984D01*
X13049467Y-13217984D02*
X13039943Y-13313222D01*
X13039943Y-13313222D02*
X13049467Y-13303698D01*
X13049467Y-13303698D02*
X13068515Y-13294174D01*
X13068515Y-13294174D02*
X13116134Y-13294174D01*
X13116134Y-13294174D02*
X13135182Y-13303698D01*
X13135182Y-13303698D02*
X13144705Y-13313222D01*
X13144705Y-13313222D02*
X13154229Y-13332269D01*
X13154229Y-13332269D02*
X13154229Y-13379888D01*
X13154229Y-13379888D02*
X13144705Y-13398936D01*
X13144705Y-13398936D02*
X13135182Y-13408460D01*
X13135182Y-13408460D02*
X13116134Y-13417984D01*
X13116134Y-13417984D02*
X13068515Y-13417984D01*
X13068515Y-13417984D02*
X13049467Y-13408460D01*
X13049467Y-13408460D02*
X13039943Y-13398936D01*
X13278039Y-13217984D02*
X13297086Y-13217984D01*
X13297086Y-13217984D02*
X13316134Y-13227508D01*
X13316134Y-13227508D02*
X13325658Y-13237031D01*
X13325658Y-13237031D02*
X13335182Y-13256079D01*
X13335182Y-13256079D02*
X13344705Y-13294174D01*
X13344705Y-13294174D02*
X13344705Y-13341793D01*
X13344705Y-13341793D02*
X13335182Y-13379888D01*
X13335182Y-13379888D02*
X13325658Y-13398936D01*
X13325658Y-13398936D02*
X13316134Y-13408460D01*
X13316134Y-13408460D02*
X13297086Y-13417984D01*
X13297086Y-13417984D02*
X13278039Y-13417984D01*
X13278039Y-13417984D02*
X13258991Y-13408460D01*
X13258991Y-13408460D02*
X13249467Y-13398936D01*
X13249467Y-13398936D02*
X13239943Y-13379888D01*
X13239943Y-13379888D02*
X13230420Y-13341793D01*
X13230420Y-13341793D02*
X13230420Y-13294174D01*
X13230420Y-13294174D02*
X13239943Y-13256079D01*
X13239943Y-13256079D02*
X13249467Y-13237031D01*
X13249467Y-13237031D02*
X13258991Y-13227508D01*
X13258991Y-13227508D02*
X13278039Y-13217984D01*
X13430420Y-13417984D02*
X13430420Y-13284650D01*
X13430420Y-13303698D02*
X13439943Y-13294174D01*
X13439943Y-13294174D02*
X13458991Y-13284650D01*
X13458991Y-13284650D02*
X13487563Y-13284650D01*
X13487563Y-13284650D02*
X13506610Y-13294174D01*
X13506610Y-13294174D02*
X13516134Y-13313222D01*
X13516134Y-13313222D02*
X13516134Y-13417984D01*
X13516134Y-13313222D02*
X13525658Y-13294174D01*
X13525658Y-13294174D02*
X13544705Y-13284650D01*
X13544705Y-13284650D02*
X13573277Y-13284650D01*
X13573277Y-13284650D02*
X13592324Y-13294174D01*
X13592324Y-13294174D02*
X13601848Y-13313222D01*
X13601848Y-13313222D02*
X13601848Y-13417984D01*
X13697086Y-13417984D02*
X13697086Y-13284650D01*
X13697086Y-13303698D02*
X13706610Y-13294174D01*
X13706610Y-13294174D02*
X13725658Y-13284650D01*
X13725658Y-13284650D02*
X13754229Y-13284650D01*
X13754229Y-13284650D02*
X13773277Y-13294174D01*
X13773277Y-13294174D02*
X13782801Y-13313222D01*
X13782801Y-13313222D02*
X13782801Y-13417984D01*
X13782801Y-13313222D02*
X13792324Y-13294174D01*
X13792324Y-13294174D02*
X13811372Y-13284650D01*
X13811372Y-13284650D02*
X13839943Y-13284650D01*
X13839943Y-13284650D02*
X13858991Y-13294174D01*
X13858991Y-13294174D02*
X13868515Y-13313222D01*
X13868515Y-13313222D02*
X13868515Y-13417984D01*
X14258991Y-13208460D02*
X14087563Y-13465603D01*
X14516134Y-13217984D02*
X14535182Y-13217984D01*
X14535182Y-13217984D02*
X14554229Y-13227508D01*
X14554229Y-13227508D02*
X14563753Y-13237031D01*
X14563753Y-13237031D02*
X14573277Y-13256079D01*
X14573277Y-13256079D02*
X14582801Y-13294174D01*
X14582801Y-13294174D02*
X14582801Y-13341793D01*
X14582801Y-13341793D02*
X14573277Y-13379888D01*
X14573277Y-13379888D02*
X14563753Y-13398936D01*
X14563753Y-13398936D02*
X14554229Y-13408460D01*
X14554229Y-13408460D02*
X14535182Y-13417984D01*
X14535182Y-13417984D02*
X14516134Y-13417984D01*
X14516134Y-13417984D02*
X14497086Y-13408460D01*
X14497086Y-13408460D02*
X14487563Y-13398936D01*
X14487563Y-13398936D02*
X14478039Y-13379888D01*
X14478039Y-13379888D02*
X14468515Y-13341793D01*
X14468515Y-13341793D02*
X14468515Y-13294174D01*
X14468515Y-13294174D02*
X14478039Y-13256079D01*
X14478039Y-13256079D02*
X14487563Y-13237031D01*
X14487563Y-13237031D02*
X14497086Y-13227508D01*
X14497086Y-13227508D02*
X14516134Y-13217984D01*
X14668515Y-13398936D02*
X14678039Y-13408460D01*
X14678039Y-13408460D02*
X14668515Y-13417984D01*
X14668515Y-13417984D02*
X14658991Y-13408460D01*
X14658991Y-13408460D02*
X14668515Y-13398936D01*
X14668515Y-13398936D02*
X14668515Y-13417984D01*
X14801848Y-13217984D02*
X14820896Y-13217984D01*
X14820896Y-13217984D02*
X14839944Y-13227508D01*
X14839944Y-13227508D02*
X14849467Y-13237031D01*
X14849467Y-13237031D02*
X14858991Y-13256079D01*
X14858991Y-13256079D02*
X14868515Y-13294174D01*
X14868515Y-13294174D02*
X14868515Y-13341793D01*
X14868515Y-13341793D02*
X14858991Y-13379888D01*
X14858991Y-13379888D02*
X14849467Y-13398936D01*
X14849467Y-13398936D02*
X14839944Y-13408460D01*
X14839944Y-13408460D02*
X14820896Y-13417984D01*
X14820896Y-13417984D02*
X14801848Y-13417984D01*
X14801848Y-13417984D02*
X14782801Y-13408460D01*
X14782801Y-13408460D02*
X14773277Y-13398936D01*
X14773277Y-13398936D02*
X14763753Y-13379888D01*
X14763753Y-13379888D02*
X14754229Y-13341793D01*
X14754229Y-13341793D02*
X14754229Y-13294174D01*
X14754229Y-13294174D02*
X14763753Y-13256079D01*
X14763753Y-13256079D02*
X14773277Y-13237031D01*
X14773277Y-13237031D02*
X14782801Y-13227508D01*
X14782801Y-13227508D02*
X14801848Y-13217984D01*
X15039944Y-13284650D02*
X15039944Y-13417984D01*
X14992325Y-13208460D02*
X14944706Y-13351317D01*
X14944706Y-13351317D02*
X15068515Y-13351317D01*
X15239944Y-13217984D02*
X15144706Y-13217984D01*
X15144706Y-13217984D02*
X15135182Y-13313222D01*
X15135182Y-13313222D02*
X15144706Y-13303698D01*
X15144706Y-13303698D02*
X15163753Y-13294174D01*
X15163753Y-13294174D02*
X15211372Y-13294174D01*
X15211372Y-13294174D02*
X15230420Y-13303698D01*
X15230420Y-13303698D02*
X15239944Y-13313222D01*
X15239944Y-13313222D02*
X15249467Y-13332269D01*
X15249467Y-13332269D02*
X15249467Y-13379888D01*
X15249467Y-13379888D02*
X15239944Y-13398936D01*
X15239944Y-13398936D02*
X15230420Y-13408460D01*
X15230420Y-13408460D02*
X15211372Y-13417984D01*
X15211372Y-13417984D02*
X15163753Y-13417984D01*
X15163753Y-13417984D02*
X15144706Y-13408460D01*
X15144706Y-13408460D02*
X15135182Y-13398936D01*
X15316134Y-13217984D02*
X15439944Y-13217984D01*
X15439944Y-13217984D02*
X15373277Y-13294174D01*
X15373277Y-13294174D02*
X15401848Y-13294174D01*
X15401848Y-13294174D02*
X15420896Y-13303698D01*
X15420896Y-13303698D02*
X15430420Y-13313222D01*
X15430420Y-13313222D02*
X15439944Y-13332269D01*
X15439944Y-13332269D02*
X15439944Y-13379888D01*
X15439944Y-13379888D02*
X15430420Y-13398936D01*
X15430420Y-13398936D02*
X15420896Y-13408460D01*
X15420896Y-13408460D02*
X15401848Y-13417984D01*
X15401848Y-13417984D02*
X15344706Y-13417984D01*
X15344706Y-13417984D02*
X15325658Y-13408460D01*
X15325658Y-13408460D02*
X15316134Y-13398936D01*
X15516134Y-13217984D02*
X15516134Y-13256079D01*
X15592325Y-13217984D02*
X15592325Y-13256079D01*
X15887563Y-13494174D02*
X15878039Y-13484650D01*
X15878039Y-13484650D02*
X15858991Y-13456079D01*
X15858991Y-13456079D02*
X15849468Y-13437031D01*
X15849468Y-13437031D02*
X15839944Y-13408460D01*
X15839944Y-13408460D02*
X15830420Y-13360841D01*
X15830420Y-13360841D02*
X15830420Y-13322746D01*
X15830420Y-13322746D02*
X15839944Y-13275127D01*
X15839944Y-13275127D02*
X15849468Y-13246555D01*
X15849468Y-13246555D02*
X15858991Y-13227508D01*
X15858991Y-13227508D02*
X15878039Y-13198936D01*
X15878039Y-13198936D02*
X15887563Y-13189412D01*
X15992325Y-13303698D02*
X15973277Y-13294174D01*
X15973277Y-13294174D02*
X15963753Y-13284650D01*
X15963753Y-13284650D02*
X15954229Y-13265603D01*
X15954229Y-13265603D02*
X15954229Y-13256079D01*
X15954229Y-13256079D02*
X15963753Y-13237031D01*
X15963753Y-13237031D02*
X15973277Y-13227508D01*
X15973277Y-13227508D02*
X15992325Y-13217984D01*
X15992325Y-13217984D02*
X16030420Y-13217984D01*
X16030420Y-13217984D02*
X16049468Y-13227508D01*
X16049468Y-13227508D02*
X16058991Y-13237031D01*
X16058991Y-13237031D02*
X16068515Y-13256079D01*
X16068515Y-13256079D02*
X16068515Y-13265603D01*
X16068515Y-13265603D02*
X16058991Y-13284650D01*
X16058991Y-13284650D02*
X16049468Y-13294174D01*
X16049468Y-13294174D02*
X16030420Y-13303698D01*
X16030420Y-13303698D02*
X15992325Y-13303698D01*
X15992325Y-13303698D02*
X15973277Y-13313222D01*
X15973277Y-13313222D02*
X15963753Y-13322746D01*
X15963753Y-13322746D02*
X15954229Y-13341793D01*
X15954229Y-13341793D02*
X15954229Y-13379888D01*
X15954229Y-13379888D02*
X15963753Y-13398936D01*
X15963753Y-13398936D02*
X15973277Y-13408460D01*
X15973277Y-13408460D02*
X15992325Y-13417984D01*
X15992325Y-13417984D02*
X16030420Y-13417984D01*
X16030420Y-13417984D02*
X16049468Y-13408460D01*
X16049468Y-13408460D02*
X16058991Y-13398936D01*
X16058991Y-13398936D02*
X16068515Y-13379888D01*
X16068515Y-13379888D02*
X16068515Y-13341793D01*
X16068515Y-13341793D02*
X16058991Y-13322746D01*
X16058991Y-13322746D02*
X16049468Y-13313222D01*
X16049468Y-13313222D02*
X16030420Y-13303698D01*
X16306610Y-13417984D02*
X16306610Y-13217984D01*
X16392325Y-13417984D02*
X16392325Y-13313222D01*
X16392325Y-13313222D02*
X16382801Y-13294174D01*
X16382801Y-13294174D02*
X16363753Y-13284650D01*
X16363753Y-13284650D02*
X16335182Y-13284650D01*
X16335182Y-13284650D02*
X16316134Y-13294174D01*
X16316134Y-13294174D02*
X16306610Y-13303698D01*
X16516134Y-13417984D02*
X16497087Y-13408460D01*
X16497087Y-13408460D02*
X16487563Y-13398936D01*
X16487563Y-13398936D02*
X16478039Y-13379888D01*
X16478039Y-13379888D02*
X16478039Y-13322746D01*
X16478039Y-13322746D02*
X16487563Y-13303698D01*
X16487563Y-13303698D02*
X16497087Y-13294174D01*
X16497087Y-13294174D02*
X16516134Y-13284650D01*
X16516134Y-13284650D02*
X16544706Y-13284650D01*
X16544706Y-13284650D02*
X16563753Y-13294174D01*
X16563753Y-13294174D02*
X16573277Y-13303698D01*
X16573277Y-13303698D02*
X16582801Y-13322746D01*
X16582801Y-13322746D02*
X16582801Y-13379888D01*
X16582801Y-13379888D02*
X16573277Y-13398936D01*
X16573277Y-13398936D02*
X16563753Y-13408460D01*
X16563753Y-13408460D02*
X16544706Y-13417984D01*
X16544706Y-13417984D02*
X16516134Y-13417984D01*
X16697087Y-13417984D02*
X16678039Y-13408460D01*
X16678039Y-13408460D02*
X16668515Y-13389412D01*
X16668515Y-13389412D02*
X16668515Y-13217984D01*
X16849468Y-13408460D02*
X16830420Y-13417984D01*
X16830420Y-13417984D02*
X16792325Y-13417984D01*
X16792325Y-13417984D02*
X16773277Y-13408460D01*
X16773277Y-13408460D02*
X16763753Y-13389412D01*
X16763753Y-13389412D02*
X16763753Y-13313222D01*
X16763753Y-13313222D02*
X16773277Y-13294174D01*
X16773277Y-13294174D02*
X16792325Y-13284650D01*
X16792325Y-13284650D02*
X16830420Y-13284650D01*
X16830420Y-13284650D02*
X16849468Y-13294174D01*
X16849468Y-13294174D02*
X16858992Y-13313222D01*
X16858992Y-13313222D02*
X16858992Y-13332269D01*
X16858992Y-13332269D02*
X16763753Y-13351317D01*
X16935182Y-13408460D02*
X16954230Y-13417984D01*
X16954230Y-13417984D02*
X16992325Y-13417984D01*
X16992325Y-13417984D02*
X17011373Y-13408460D01*
X17011373Y-13408460D02*
X17020896Y-13389412D01*
X17020896Y-13389412D02*
X17020896Y-13379888D01*
X17020896Y-13379888D02*
X17011373Y-13360841D01*
X17011373Y-13360841D02*
X16992325Y-13351317D01*
X16992325Y-13351317D02*
X16963753Y-13351317D01*
X16963753Y-13351317D02*
X16944706Y-13341793D01*
X16944706Y-13341793D02*
X16935182Y-13322746D01*
X16935182Y-13322746D02*
X16935182Y-13313222D01*
X16935182Y-13313222D02*
X16944706Y-13294174D01*
X16944706Y-13294174D02*
X16963753Y-13284650D01*
X16963753Y-13284650D02*
X16992325Y-13284650D01*
X16992325Y-13284650D02*
X17011373Y-13294174D01*
X17087563Y-13494174D02*
X17097087Y-13484650D01*
X17097087Y-13484650D02*
X17116134Y-13456079D01*
X17116134Y-13456079D02*
X17125658Y-13437031D01*
X17125658Y-13437031D02*
X17135182Y-13408460D01*
X17135182Y-13408460D02*
X17144706Y-13360841D01*
X17144706Y-13360841D02*
X17144706Y-13322746D01*
X17144706Y-13322746D02*
X17135182Y-13275127D01*
X17135182Y-13275127D02*
X17125658Y-13246555D01*
X17125658Y-13246555D02*
X17116134Y-13227508D01*
X17116134Y-13227508D02*
X17097087Y-13198936D01*
X17097087Y-13198936D02*
X17087563Y-13189412D01*
D14*
X12192500Y-13530500D02*
X12312500Y-13650500D01*
X12312500Y-13530500D02*
X12192500Y-13650500D01*
X12312500Y-13590500D02*
G75*
G02*
X12192500Y-13590500I-60000J0D01*
G01*
X12192500Y-13590500D02*
G75*
G02*
X12312500Y-13590500I60000J0D01*
G01*
D11*
X12678039Y-13681984D02*
X12563753Y-13681984D01*
X12620896Y-13681984D02*
X12620896Y-13481984D01*
X12620896Y-13481984D02*
X12601848Y-13510555D01*
X12601848Y-13510555D02*
X12582801Y-13529603D01*
X12582801Y-13529603D02*
X12563753Y-13539127D01*
X12763753Y-13662936D02*
X12773277Y-13672460D01*
X12773277Y-13672460D02*
X12763753Y-13681984D01*
X12763753Y-13681984D02*
X12754229Y-13672460D01*
X12754229Y-13672460D02*
X12763753Y-13662936D01*
X12763753Y-13662936D02*
X12763753Y-13681984D01*
X12849467Y-13501031D02*
X12858991Y-13491508D01*
X12858991Y-13491508D02*
X12878039Y-13481984D01*
X12878039Y-13481984D02*
X12925658Y-13481984D01*
X12925658Y-13481984D02*
X12944705Y-13491508D01*
X12944705Y-13491508D02*
X12954229Y-13501031D01*
X12954229Y-13501031D02*
X12963753Y-13520079D01*
X12963753Y-13520079D02*
X12963753Y-13539127D01*
X12963753Y-13539127D02*
X12954229Y-13567698D01*
X12954229Y-13567698D02*
X12839943Y-13681984D01*
X12839943Y-13681984D02*
X12963753Y-13681984D01*
X13087562Y-13481984D02*
X13106610Y-13481984D01*
X13106610Y-13481984D02*
X13125658Y-13491508D01*
X13125658Y-13491508D02*
X13135182Y-13501031D01*
X13135182Y-13501031D02*
X13144705Y-13520079D01*
X13144705Y-13520079D02*
X13154229Y-13558174D01*
X13154229Y-13558174D02*
X13154229Y-13605793D01*
X13154229Y-13605793D02*
X13144705Y-13643888D01*
X13144705Y-13643888D02*
X13135182Y-13662936D01*
X13135182Y-13662936D02*
X13125658Y-13672460D01*
X13125658Y-13672460D02*
X13106610Y-13681984D01*
X13106610Y-13681984D02*
X13087562Y-13681984D01*
X13087562Y-13681984D02*
X13068515Y-13672460D01*
X13068515Y-13672460D02*
X13058991Y-13662936D01*
X13058991Y-13662936D02*
X13049467Y-13643888D01*
X13049467Y-13643888D02*
X13039943Y-13605793D01*
X13039943Y-13605793D02*
X13039943Y-13558174D01*
X13039943Y-13558174D02*
X13049467Y-13520079D01*
X13049467Y-13520079D02*
X13058991Y-13501031D01*
X13058991Y-13501031D02*
X13068515Y-13491508D01*
X13068515Y-13491508D02*
X13087562Y-13481984D01*
X13278039Y-13481984D02*
X13297086Y-13481984D01*
X13297086Y-13481984D02*
X13316134Y-13491508D01*
X13316134Y-13491508D02*
X13325658Y-13501031D01*
X13325658Y-13501031D02*
X13335182Y-13520079D01*
X13335182Y-13520079D02*
X13344705Y-13558174D01*
X13344705Y-13558174D02*
X13344705Y-13605793D01*
X13344705Y-13605793D02*
X13335182Y-13643888D01*
X13335182Y-13643888D02*
X13325658Y-13662936D01*
X13325658Y-13662936D02*
X13316134Y-13672460D01*
X13316134Y-13672460D02*
X13297086Y-13681984D01*
X13297086Y-13681984D02*
X13278039Y-13681984D01*
X13278039Y-13681984D02*
X13258991Y-13672460D01*
X13258991Y-13672460D02*
X13249467Y-13662936D01*
X13249467Y-13662936D02*
X13239943Y-13643888D01*
X13239943Y-13643888D02*
X13230420Y-13605793D01*
X13230420Y-13605793D02*
X13230420Y-13558174D01*
X13230420Y-13558174D02*
X13239943Y-13520079D01*
X13239943Y-13520079D02*
X13249467Y-13501031D01*
X13249467Y-13501031D02*
X13258991Y-13491508D01*
X13258991Y-13491508D02*
X13278039Y-13481984D01*
X13430420Y-13681984D02*
X13430420Y-13548650D01*
X13430420Y-13567698D02*
X13439943Y-13558174D01*
X13439943Y-13558174D02*
X13458991Y-13548650D01*
X13458991Y-13548650D02*
X13487563Y-13548650D01*
X13487563Y-13548650D02*
X13506610Y-13558174D01*
X13506610Y-13558174D02*
X13516134Y-13577222D01*
X13516134Y-13577222D02*
X13516134Y-13681984D01*
X13516134Y-13577222D02*
X13525658Y-13558174D01*
X13525658Y-13558174D02*
X13544705Y-13548650D01*
X13544705Y-13548650D02*
X13573277Y-13548650D01*
X13573277Y-13548650D02*
X13592324Y-13558174D01*
X13592324Y-13558174D02*
X13601848Y-13577222D01*
X13601848Y-13577222D02*
X13601848Y-13681984D01*
X13697086Y-13681984D02*
X13697086Y-13548650D01*
X13697086Y-13567698D02*
X13706610Y-13558174D01*
X13706610Y-13558174D02*
X13725658Y-13548650D01*
X13725658Y-13548650D02*
X13754229Y-13548650D01*
X13754229Y-13548650D02*
X13773277Y-13558174D01*
X13773277Y-13558174D02*
X13782801Y-13577222D01*
X13782801Y-13577222D02*
X13782801Y-13681984D01*
X13782801Y-13577222D02*
X13792324Y-13558174D01*
X13792324Y-13558174D02*
X13811372Y-13548650D01*
X13811372Y-13548650D02*
X13839943Y-13548650D01*
X13839943Y-13548650D02*
X13858991Y-13558174D01*
X13858991Y-13558174D02*
X13868515Y-13577222D01*
X13868515Y-13577222D02*
X13868515Y-13681984D01*
X14258991Y-13472460D02*
X14087563Y-13729603D01*
X14516134Y-13481984D02*
X14535182Y-13481984D01*
X14535182Y-13481984D02*
X14554229Y-13491508D01*
X14554229Y-13491508D02*
X14563753Y-13501031D01*
X14563753Y-13501031D02*
X14573277Y-13520079D01*
X14573277Y-13520079D02*
X14582801Y-13558174D01*
X14582801Y-13558174D02*
X14582801Y-13605793D01*
X14582801Y-13605793D02*
X14573277Y-13643888D01*
X14573277Y-13643888D02*
X14563753Y-13662936D01*
X14563753Y-13662936D02*
X14554229Y-13672460D01*
X14554229Y-13672460D02*
X14535182Y-13681984D01*
X14535182Y-13681984D02*
X14516134Y-13681984D01*
X14516134Y-13681984D02*
X14497086Y-13672460D01*
X14497086Y-13672460D02*
X14487563Y-13662936D01*
X14487563Y-13662936D02*
X14478039Y-13643888D01*
X14478039Y-13643888D02*
X14468515Y-13605793D01*
X14468515Y-13605793D02*
X14468515Y-13558174D01*
X14468515Y-13558174D02*
X14478039Y-13520079D01*
X14478039Y-13520079D02*
X14487563Y-13501031D01*
X14487563Y-13501031D02*
X14497086Y-13491508D01*
X14497086Y-13491508D02*
X14516134Y-13481984D01*
X14668515Y-13662936D02*
X14678039Y-13672460D01*
X14678039Y-13672460D02*
X14668515Y-13681984D01*
X14668515Y-13681984D02*
X14658991Y-13672460D01*
X14658991Y-13672460D02*
X14668515Y-13662936D01*
X14668515Y-13662936D02*
X14668515Y-13681984D01*
X14801848Y-13481984D02*
X14820896Y-13481984D01*
X14820896Y-13481984D02*
X14839944Y-13491508D01*
X14839944Y-13491508D02*
X14849467Y-13501031D01*
X14849467Y-13501031D02*
X14858991Y-13520079D01*
X14858991Y-13520079D02*
X14868515Y-13558174D01*
X14868515Y-13558174D02*
X14868515Y-13605793D01*
X14868515Y-13605793D02*
X14858991Y-13643888D01*
X14858991Y-13643888D02*
X14849467Y-13662936D01*
X14849467Y-13662936D02*
X14839944Y-13672460D01*
X14839944Y-13672460D02*
X14820896Y-13681984D01*
X14820896Y-13681984D02*
X14801848Y-13681984D01*
X14801848Y-13681984D02*
X14782801Y-13672460D01*
X14782801Y-13672460D02*
X14773277Y-13662936D01*
X14773277Y-13662936D02*
X14763753Y-13643888D01*
X14763753Y-13643888D02*
X14754229Y-13605793D01*
X14754229Y-13605793D02*
X14754229Y-13558174D01*
X14754229Y-13558174D02*
X14763753Y-13520079D01*
X14763753Y-13520079D02*
X14773277Y-13501031D01*
X14773277Y-13501031D02*
X14782801Y-13491508D01*
X14782801Y-13491508D02*
X14801848Y-13481984D01*
X15039944Y-13548650D02*
X15039944Y-13681984D01*
X14992325Y-13472460D02*
X14944706Y-13615317D01*
X14944706Y-13615317D02*
X15068515Y-13615317D01*
X15125658Y-13481984D02*
X15258991Y-13481984D01*
X15258991Y-13481984D02*
X15173277Y-13681984D01*
X15325658Y-13501031D02*
X15335182Y-13491508D01*
X15335182Y-13491508D02*
X15354229Y-13481984D01*
X15354229Y-13481984D02*
X15401848Y-13481984D01*
X15401848Y-13481984D02*
X15420896Y-13491508D01*
X15420896Y-13491508D02*
X15430420Y-13501031D01*
X15430420Y-13501031D02*
X15439944Y-13520079D01*
X15439944Y-13520079D02*
X15439944Y-13539127D01*
X15439944Y-13539127D02*
X15430420Y-13567698D01*
X15430420Y-13567698D02*
X15316134Y-13681984D01*
X15316134Y-13681984D02*
X15439944Y-13681984D01*
X15516134Y-13481984D02*
X15516134Y-13520079D01*
X15592325Y-13481984D02*
X15592325Y-13520079D01*
X15887563Y-13758174D02*
X15878039Y-13748650D01*
X15878039Y-13748650D02*
X15858991Y-13720079D01*
X15858991Y-13720079D02*
X15849468Y-13701031D01*
X15849468Y-13701031D02*
X15839944Y-13672460D01*
X15839944Y-13672460D02*
X15830420Y-13624841D01*
X15830420Y-13624841D02*
X15830420Y-13586746D01*
X15830420Y-13586746D02*
X15839944Y-13539127D01*
X15839944Y-13539127D02*
X15849468Y-13510555D01*
X15849468Y-13510555D02*
X15858991Y-13491508D01*
X15858991Y-13491508D02*
X15878039Y-13462936D01*
X15878039Y-13462936D02*
X15887563Y-13453412D01*
X16049468Y-13481984D02*
X16011372Y-13481984D01*
X16011372Y-13481984D02*
X15992325Y-13491508D01*
X15992325Y-13491508D02*
X15982801Y-13501031D01*
X15982801Y-13501031D02*
X15963753Y-13529603D01*
X15963753Y-13529603D02*
X15954229Y-13567698D01*
X15954229Y-13567698D02*
X15954229Y-13643888D01*
X15954229Y-13643888D02*
X15963753Y-13662936D01*
X15963753Y-13662936D02*
X15973277Y-13672460D01*
X15973277Y-13672460D02*
X15992325Y-13681984D01*
X15992325Y-13681984D02*
X16030420Y-13681984D01*
X16030420Y-13681984D02*
X16049468Y-13672460D01*
X16049468Y-13672460D02*
X16058991Y-13662936D01*
X16058991Y-13662936D02*
X16068515Y-13643888D01*
X16068515Y-13643888D02*
X16068515Y-13596269D01*
X16068515Y-13596269D02*
X16058991Y-13577222D01*
X16058991Y-13577222D02*
X16049468Y-13567698D01*
X16049468Y-13567698D02*
X16030420Y-13558174D01*
X16030420Y-13558174D02*
X15992325Y-13558174D01*
X15992325Y-13558174D02*
X15973277Y-13567698D01*
X15973277Y-13567698D02*
X15963753Y-13577222D01*
X15963753Y-13577222D02*
X15954229Y-13596269D01*
X16306610Y-13681984D02*
X16306610Y-13481984D01*
X16392325Y-13681984D02*
X16392325Y-13577222D01*
X16392325Y-13577222D02*
X16382801Y-13558174D01*
X16382801Y-13558174D02*
X16363753Y-13548650D01*
X16363753Y-13548650D02*
X16335182Y-13548650D01*
X16335182Y-13548650D02*
X16316134Y-13558174D01*
X16316134Y-13558174D02*
X16306610Y-13567698D01*
X16516134Y-13681984D02*
X16497087Y-13672460D01*
X16497087Y-13672460D02*
X16487563Y-13662936D01*
X16487563Y-13662936D02*
X16478039Y-13643888D01*
X16478039Y-13643888D02*
X16478039Y-13586746D01*
X16478039Y-13586746D02*
X16487563Y-13567698D01*
X16487563Y-13567698D02*
X16497087Y-13558174D01*
X16497087Y-13558174D02*
X16516134Y-13548650D01*
X16516134Y-13548650D02*
X16544706Y-13548650D01*
X16544706Y-13548650D02*
X16563753Y-13558174D01*
X16563753Y-13558174D02*
X16573277Y-13567698D01*
X16573277Y-13567698D02*
X16582801Y-13586746D01*
X16582801Y-13586746D02*
X16582801Y-13643888D01*
X16582801Y-13643888D02*
X16573277Y-13662936D01*
X16573277Y-13662936D02*
X16563753Y-13672460D01*
X16563753Y-13672460D02*
X16544706Y-13681984D01*
X16544706Y-13681984D02*
X16516134Y-13681984D01*
X16697087Y-13681984D02*
X16678039Y-13672460D01*
X16678039Y-13672460D02*
X16668515Y-13653412D01*
X16668515Y-13653412D02*
X16668515Y-13481984D01*
X16849468Y-13672460D02*
X16830420Y-13681984D01*
X16830420Y-13681984D02*
X16792325Y-13681984D01*
X16792325Y-13681984D02*
X16773277Y-13672460D01*
X16773277Y-13672460D02*
X16763753Y-13653412D01*
X16763753Y-13653412D02*
X16763753Y-13577222D01*
X16763753Y-13577222D02*
X16773277Y-13558174D01*
X16773277Y-13558174D02*
X16792325Y-13548650D01*
X16792325Y-13548650D02*
X16830420Y-13548650D01*
X16830420Y-13548650D02*
X16849468Y-13558174D01*
X16849468Y-13558174D02*
X16858992Y-13577222D01*
X16858992Y-13577222D02*
X16858992Y-13596269D01*
X16858992Y-13596269D02*
X16763753Y-13615317D01*
X16935182Y-13672460D02*
X16954230Y-13681984D01*
X16954230Y-13681984D02*
X16992325Y-13681984D01*
X16992325Y-13681984D02*
X17011373Y-13672460D01*
X17011373Y-13672460D02*
X17020896Y-13653412D01*
X17020896Y-13653412D02*
X17020896Y-13643888D01*
X17020896Y-13643888D02*
X17011373Y-13624841D01*
X17011373Y-13624841D02*
X16992325Y-13615317D01*
X16992325Y-13615317D02*
X16963753Y-13615317D01*
X16963753Y-13615317D02*
X16944706Y-13605793D01*
X16944706Y-13605793D02*
X16935182Y-13586746D01*
X16935182Y-13586746D02*
X16935182Y-13577222D01*
X16935182Y-13577222D02*
X16944706Y-13558174D01*
X16944706Y-13558174D02*
X16963753Y-13548650D01*
X16963753Y-13548650D02*
X16992325Y-13548650D01*
X16992325Y-13548650D02*
X17011373Y-13558174D01*
X17087563Y-13758174D02*
X17097087Y-13748650D01*
X17097087Y-13748650D02*
X17116134Y-13720079D01*
X17116134Y-13720079D02*
X17125658Y-13701031D01*
X17125658Y-13701031D02*
X17135182Y-13672460D01*
X17135182Y-13672460D02*
X17144706Y-13624841D01*
X17144706Y-13624841D02*
X17144706Y-13586746D01*
X17144706Y-13586746D02*
X17135182Y-13539127D01*
X17135182Y-13539127D02*
X17125658Y-13510555D01*
X17125658Y-13510555D02*
X17116134Y-13491508D01*
X17116134Y-13491508D02*
X17097087Y-13462936D01*
X17097087Y-13462936D02*
X17087563Y-13453412D01*
D15*
X12152500Y-13774500D02*
X12312500Y-13934500D01*
X12312500Y-13774500D02*
X12152500Y-13934500D01*
X12232500Y-13774500D02*
X12232500Y-13934500D01*
X12152500Y-13854500D02*
X12312500Y-13854500D01*
D11*
X12678039Y-13945984D02*
X12563753Y-13945984D01*
X12620896Y-13945984D02*
X12620896Y-13745984D01*
X12620896Y-13745984D02*
X12601848Y-13774555D01*
X12601848Y-13774555D02*
X12582801Y-13793603D01*
X12582801Y-13793603D02*
X12563753Y-13803127D01*
X12763753Y-13926936D02*
X12773277Y-13936460D01*
X12773277Y-13936460D02*
X12763753Y-13945984D01*
X12763753Y-13945984D02*
X12754229Y-13936460D01*
X12754229Y-13936460D02*
X12763753Y-13926936D01*
X12763753Y-13926936D02*
X12763753Y-13945984D01*
X12944705Y-13745984D02*
X12906610Y-13745984D01*
X12906610Y-13745984D02*
X12887562Y-13755508D01*
X12887562Y-13755508D02*
X12878039Y-13765031D01*
X12878039Y-13765031D02*
X12858991Y-13793603D01*
X12858991Y-13793603D02*
X12849467Y-13831698D01*
X12849467Y-13831698D02*
X12849467Y-13907888D01*
X12849467Y-13907888D02*
X12858991Y-13926936D01*
X12858991Y-13926936D02*
X12868515Y-13936460D01*
X12868515Y-13936460D02*
X12887562Y-13945984D01*
X12887562Y-13945984D02*
X12925658Y-13945984D01*
X12925658Y-13945984D02*
X12944705Y-13936460D01*
X12944705Y-13936460D02*
X12954229Y-13926936D01*
X12954229Y-13926936D02*
X12963753Y-13907888D01*
X12963753Y-13907888D02*
X12963753Y-13860269D01*
X12963753Y-13860269D02*
X12954229Y-13841222D01*
X12954229Y-13841222D02*
X12944705Y-13831698D01*
X12944705Y-13831698D02*
X12925658Y-13822174D01*
X12925658Y-13822174D02*
X12887562Y-13822174D01*
X12887562Y-13822174D02*
X12868515Y-13831698D01*
X12868515Y-13831698D02*
X12858991Y-13841222D01*
X12858991Y-13841222D02*
X12849467Y-13860269D01*
X13087562Y-13745984D02*
X13106610Y-13745984D01*
X13106610Y-13745984D02*
X13125658Y-13755508D01*
X13125658Y-13755508D02*
X13135182Y-13765031D01*
X13135182Y-13765031D02*
X13144705Y-13784079D01*
X13144705Y-13784079D02*
X13154229Y-13822174D01*
X13154229Y-13822174D02*
X13154229Y-13869793D01*
X13154229Y-13869793D02*
X13144705Y-13907888D01*
X13144705Y-13907888D02*
X13135182Y-13926936D01*
X13135182Y-13926936D02*
X13125658Y-13936460D01*
X13125658Y-13936460D02*
X13106610Y-13945984D01*
X13106610Y-13945984D02*
X13087562Y-13945984D01*
X13087562Y-13945984D02*
X13068515Y-13936460D01*
X13068515Y-13936460D02*
X13058991Y-13926936D01*
X13058991Y-13926936D02*
X13049467Y-13907888D01*
X13049467Y-13907888D02*
X13039943Y-13869793D01*
X13039943Y-13869793D02*
X13039943Y-13822174D01*
X13039943Y-13822174D02*
X13049467Y-13784079D01*
X13049467Y-13784079D02*
X13058991Y-13765031D01*
X13058991Y-13765031D02*
X13068515Y-13755508D01*
X13068515Y-13755508D02*
X13087562Y-13745984D01*
X13278039Y-13745984D02*
X13297086Y-13745984D01*
X13297086Y-13745984D02*
X13316134Y-13755508D01*
X13316134Y-13755508D02*
X13325658Y-13765031D01*
X13325658Y-13765031D02*
X13335182Y-13784079D01*
X13335182Y-13784079D02*
X13344705Y-13822174D01*
X13344705Y-13822174D02*
X13344705Y-13869793D01*
X13344705Y-13869793D02*
X13335182Y-13907888D01*
X13335182Y-13907888D02*
X13325658Y-13926936D01*
X13325658Y-13926936D02*
X13316134Y-13936460D01*
X13316134Y-13936460D02*
X13297086Y-13945984D01*
X13297086Y-13945984D02*
X13278039Y-13945984D01*
X13278039Y-13945984D02*
X13258991Y-13936460D01*
X13258991Y-13936460D02*
X13249467Y-13926936D01*
X13249467Y-13926936D02*
X13239943Y-13907888D01*
X13239943Y-13907888D02*
X13230420Y-13869793D01*
X13230420Y-13869793D02*
X13230420Y-13822174D01*
X13230420Y-13822174D02*
X13239943Y-13784079D01*
X13239943Y-13784079D02*
X13249467Y-13765031D01*
X13249467Y-13765031D02*
X13258991Y-13755508D01*
X13258991Y-13755508D02*
X13278039Y-13745984D01*
X13430420Y-13945984D02*
X13430420Y-13812650D01*
X13430420Y-13831698D02*
X13439943Y-13822174D01*
X13439943Y-13822174D02*
X13458991Y-13812650D01*
X13458991Y-13812650D02*
X13487563Y-13812650D01*
X13487563Y-13812650D02*
X13506610Y-13822174D01*
X13506610Y-13822174D02*
X13516134Y-13841222D01*
X13516134Y-13841222D02*
X13516134Y-13945984D01*
X13516134Y-13841222D02*
X13525658Y-13822174D01*
X13525658Y-13822174D02*
X13544705Y-13812650D01*
X13544705Y-13812650D02*
X13573277Y-13812650D01*
X13573277Y-13812650D02*
X13592324Y-13822174D01*
X13592324Y-13822174D02*
X13601848Y-13841222D01*
X13601848Y-13841222D02*
X13601848Y-13945984D01*
X13697086Y-13945984D02*
X13697086Y-13812650D01*
X13697086Y-13831698D02*
X13706610Y-13822174D01*
X13706610Y-13822174D02*
X13725658Y-13812650D01*
X13725658Y-13812650D02*
X13754229Y-13812650D01*
X13754229Y-13812650D02*
X13773277Y-13822174D01*
X13773277Y-13822174D02*
X13782801Y-13841222D01*
X13782801Y-13841222D02*
X13782801Y-13945984D01*
X13782801Y-13841222D02*
X13792324Y-13822174D01*
X13792324Y-13822174D02*
X13811372Y-13812650D01*
X13811372Y-13812650D02*
X13839943Y-13812650D01*
X13839943Y-13812650D02*
X13858991Y-13822174D01*
X13858991Y-13822174D02*
X13868515Y-13841222D01*
X13868515Y-13841222D02*
X13868515Y-13945984D01*
X14258991Y-13736460D02*
X14087563Y-13993603D01*
X14516134Y-13745984D02*
X14535182Y-13745984D01*
X14535182Y-13745984D02*
X14554229Y-13755508D01*
X14554229Y-13755508D02*
X14563753Y-13765031D01*
X14563753Y-13765031D02*
X14573277Y-13784079D01*
X14573277Y-13784079D02*
X14582801Y-13822174D01*
X14582801Y-13822174D02*
X14582801Y-13869793D01*
X14582801Y-13869793D02*
X14573277Y-13907888D01*
X14573277Y-13907888D02*
X14563753Y-13926936D01*
X14563753Y-13926936D02*
X14554229Y-13936460D01*
X14554229Y-13936460D02*
X14535182Y-13945984D01*
X14535182Y-13945984D02*
X14516134Y-13945984D01*
X14516134Y-13945984D02*
X14497086Y-13936460D01*
X14497086Y-13936460D02*
X14487563Y-13926936D01*
X14487563Y-13926936D02*
X14478039Y-13907888D01*
X14478039Y-13907888D02*
X14468515Y-13869793D01*
X14468515Y-13869793D02*
X14468515Y-13822174D01*
X14468515Y-13822174D02*
X14478039Y-13784079D01*
X14478039Y-13784079D02*
X14487563Y-13765031D01*
X14487563Y-13765031D02*
X14497086Y-13755508D01*
X14497086Y-13755508D02*
X14516134Y-13745984D01*
X14668515Y-13926936D02*
X14678039Y-13936460D01*
X14678039Y-13936460D02*
X14668515Y-13945984D01*
X14668515Y-13945984D02*
X14658991Y-13936460D01*
X14658991Y-13936460D02*
X14668515Y-13926936D01*
X14668515Y-13926936D02*
X14668515Y-13945984D01*
X14801848Y-13745984D02*
X14820896Y-13745984D01*
X14820896Y-13745984D02*
X14839944Y-13755508D01*
X14839944Y-13755508D02*
X14849467Y-13765031D01*
X14849467Y-13765031D02*
X14858991Y-13784079D01*
X14858991Y-13784079D02*
X14868515Y-13822174D01*
X14868515Y-13822174D02*
X14868515Y-13869793D01*
X14868515Y-13869793D02*
X14858991Y-13907888D01*
X14858991Y-13907888D02*
X14849467Y-13926936D01*
X14849467Y-13926936D02*
X14839944Y-13936460D01*
X14839944Y-13936460D02*
X14820896Y-13945984D01*
X14820896Y-13945984D02*
X14801848Y-13945984D01*
X14801848Y-13945984D02*
X14782801Y-13936460D01*
X14782801Y-13936460D02*
X14773277Y-13926936D01*
X14773277Y-13926936D02*
X14763753Y-13907888D01*
X14763753Y-13907888D02*
X14754229Y-13869793D01*
X14754229Y-13869793D02*
X14754229Y-13822174D01*
X14754229Y-13822174D02*
X14763753Y-13784079D01*
X14763753Y-13784079D02*
X14773277Y-13765031D01*
X14773277Y-13765031D02*
X14782801Y-13755508D01*
X14782801Y-13755508D02*
X14801848Y-13745984D01*
X15039944Y-13745984D02*
X15001848Y-13745984D01*
X15001848Y-13745984D02*
X14982801Y-13755508D01*
X14982801Y-13755508D02*
X14973277Y-13765031D01*
X14973277Y-13765031D02*
X14954229Y-13793603D01*
X14954229Y-13793603D02*
X14944706Y-13831698D01*
X14944706Y-13831698D02*
X14944706Y-13907888D01*
X14944706Y-13907888D02*
X14954229Y-13926936D01*
X14954229Y-13926936D02*
X14963753Y-13936460D01*
X14963753Y-13936460D02*
X14982801Y-13945984D01*
X14982801Y-13945984D02*
X15020896Y-13945984D01*
X15020896Y-13945984D02*
X15039944Y-13936460D01*
X15039944Y-13936460D02*
X15049467Y-13926936D01*
X15049467Y-13926936D02*
X15058991Y-13907888D01*
X15058991Y-13907888D02*
X15058991Y-13860269D01*
X15058991Y-13860269D02*
X15049467Y-13841222D01*
X15049467Y-13841222D02*
X15039944Y-13831698D01*
X15039944Y-13831698D02*
X15020896Y-13822174D01*
X15020896Y-13822174D02*
X14982801Y-13822174D01*
X14982801Y-13822174D02*
X14963753Y-13831698D01*
X14963753Y-13831698D02*
X14954229Y-13841222D01*
X14954229Y-13841222D02*
X14944706Y-13860269D01*
X15125658Y-13745984D02*
X15249467Y-13745984D01*
X15249467Y-13745984D02*
X15182801Y-13822174D01*
X15182801Y-13822174D02*
X15211372Y-13822174D01*
X15211372Y-13822174D02*
X15230420Y-13831698D01*
X15230420Y-13831698D02*
X15239944Y-13841222D01*
X15239944Y-13841222D02*
X15249467Y-13860269D01*
X15249467Y-13860269D02*
X15249467Y-13907888D01*
X15249467Y-13907888D02*
X15239944Y-13926936D01*
X15239944Y-13926936D02*
X15230420Y-13936460D01*
X15230420Y-13936460D02*
X15211372Y-13945984D01*
X15211372Y-13945984D02*
X15154229Y-13945984D01*
X15154229Y-13945984D02*
X15135182Y-13936460D01*
X15135182Y-13936460D02*
X15125658Y-13926936D01*
X15373277Y-13745984D02*
X15392325Y-13745984D01*
X15392325Y-13745984D02*
X15411372Y-13755508D01*
X15411372Y-13755508D02*
X15420896Y-13765031D01*
X15420896Y-13765031D02*
X15430420Y-13784079D01*
X15430420Y-13784079D02*
X15439944Y-13822174D01*
X15439944Y-13822174D02*
X15439944Y-13869793D01*
X15439944Y-13869793D02*
X15430420Y-13907888D01*
X15430420Y-13907888D02*
X15420896Y-13926936D01*
X15420896Y-13926936D02*
X15411372Y-13936460D01*
X15411372Y-13936460D02*
X15392325Y-13945984D01*
X15392325Y-13945984D02*
X15373277Y-13945984D01*
X15373277Y-13945984D02*
X15354229Y-13936460D01*
X15354229Y-13936460D02*
X15344706Y-13926936D01*
X15344706Y-13926936D02*
X15335182Y-13907888D01*
X15335182Y-13907888D02*
X15325658Y-13869793D01*
X15325658Y-13869793D02*
X15325658Y-13822174D01*
X15325658Y-13822174D02*
X15335182Y-13784079D01*
X15335182Y-13784079D02*
X15344706Y-13765031D01*
X15344706Y-13765031D02*
X15354229Y-13755508D01*
X15354229Y-13755508D02*
X15373277Y-13745984D01*
X15516134Y-13745984D02*
X15516134Y-13784079D01*
X15592325Y-13745984D02*
X15592325Y-13784079D01*
X15887563Y-14022174D02*
X15878039Y-14012650D01*
X15878039Y-14012650D02*
X15858991Y-13984079D01*
X15858991Y-13984079D02*
X15849468Y-13965031D01*
X15849468Y-13965031D02*
X15839944Y-13936460D01*
X15839944Y-13936460D02*
X15830420Y-13888841D01*
X15830420Y-13888841D02*
X15830420Y-13850746D01*
X15830420Y-13850746D02*
X15839944Y-13803127D01*
X15839944Y-13803127D02*
X15849468Y-13774555D01*
X15849468Y-13774555D02*
X15858991Y-13755508D01*
X15858991Y-13755508D02*
X15878039Y-13726936D01*
X15878039Y-13726936D02*
X15887563Y-13717412D01*
X15992325Y-13831698D02*
X15973277Y-13822174D01*
X15973277Y-13822174D02*
X15963753Y-13812650D01*
X15963753Y-13812650D02*
X15954229Y-13793603D01*
X15954229Y-13793603D02*
X15954229Y-13784079D01*
X15954229Y-13784079D02*
X15963753Y-13765031D01*
X15963753Y-13765031D02*
X15973277Y-13755508D01*
X15973277Y-13755508D02*
X15992325Y-13745984D01*
X15992325Y-13745984D02*
X16030420Y-13745984D01*
X16030420Y-13745984D02*
X16049468Y-13755508D01*
X16049468Y-13755508D02*
X16058991Y-13765031D01*
X16058991Y-13765031D02*
X16068515Y-13784079D01*
X16068515Y-13784079D02*
X16068515Y-13793603D01*
X16068515Y-13793603D02*
X16058991Y-13812650D01*
X16058991Y-13812650D02*
X16049468Y-13822174D01*
X16049468Y-13822174D02*
X16030420Y-13831698D01*
X16030420Y-13831698D02*
X15992325Y-13831698D01*
X15992325Y-13831698D02*
X15973277Y-13841222D01*
X15973277Y-13841222D02*
X15963753Y-13850746D01*
X15963753Y-13850746D02*
X15954229Y-13869793D01*
X15954229Y-13869793D02*
X15954229Y-13907888D01*
X15954229Y-13907888D02*
X15963753Y-13926936D01*
X15963753Y-13926936D02*
X15973277Y-13936460D01*
X15973277Y-13936460D02*
X15992325Y-13945984D01*
X15992325Y-13945984D02*
X16030420Y-13945984D01*
X16030420Y-13945984D02*
X16049468Y-13936460D01*
X16049468Y-13936460D02*
X16058991Y-13926936D01*
X16058991Y-13926936D02*
X16068515Y-13907888D01*
X16068515Y-13907888D02*
X16068515Y-13869793D01*
X16068515Y-13869793D02*
X16058991Y-13850746D01*
X16058991Y-13850746D02*
X16049468Y-13841222D01*
X16049468Y-13841222D02*
X16030420Y-13831698D01*
X16306610Y-13945984D02*
X16306610Y-13745984D01*
X16392325Y-13945984D02*
X16392325Y-13841222D01*
X16392325Y-13841222D02*
X16382801Y-13822174D01*
X16382801Y-13822174D02*
X16363753Y-13812650D01*
X16363753Y-13812650D02*
X16335182Y-13812650D01*
X16335182Y-13812650D02*
X16316134Y-13822174D01*
X16316134Y-13822174D02*
X16306610Y-13831698D01*
X16516134Y-13945984D02*
X16497087Y-13936460D01*
X16497087Y-13936460D02*
X16487563Y-13926936D01*
X16487563Y-13926936D02*
X16478039Y-13907888D01*
X16478039Y-13907888D02*
X16478039Y-13850746D01*
X16478039Y-13850746D02*
X16487563Y-13831698D01*
X16487563Y-13831698D02*
X16497087Y-13822174D01*
X16497087Y-13822174D02*
X16516134Y-13812650D01*
X16516134Y-13812650D02*
X16544706Y-13812650D01*
X16544706Y-13812650D02*
X16563753Y-13822174D01*
X16563753Y-13822174D02*
X16573277Y-13831698D01*
X16573277Y-13831698D02*
X16582801Y-13850746D01*
X16582801Y-13850746D02*
X16582801Y-13907888D01*
X16582801Y-13907888D02*
X16573277Y-13926936D01*
X16573277Y-13926936D02*
X16563753Y-13936460D01*
X16563753Y-13936460D02*
X16544706Y-13945984D01*
X16544706Y-13945984D02*
X16516134Y-13945984D01*
X16697087Y-13945984D02*
X16678039Y-13936460D01*
X16678039Y-13936460D02*
X16668515Y-13917412D01*
X16668515Y-13917412D02*
X16668515Y-13745984D01*
X16849468Y-13936460D02*
X16830420Y-13945984D01*
X16830420Y-13945984D02*
X16792325Y-13945984D01*
X16792325Y-13945984D02*
X16773277Y-13936460D01*
X16773277Y-13936460D02*
X16763753Y-13917412D01*
X16763753Y-13917412D02*
X16763753Y-13841222D01*
X16763753Y-13841222D02*
X16773277Y-13822174D01*
X16773277Y-13822174D02*
X16792325Y-13812650D01*
X16792325Y-13812650D02*
X16830420Y-13812650D01*
X16830420Y-13812650D02*
X16849468Y-13822174D01*
X16849468Y-13822174D02*
X16858992Y-13841222D01*
X16858992Y-13841222D02*
X16858992Y-13860269D01*
X16858992Y-13860269D02*
X16763753Y-13879317D01*
X16935182Y-13936460D02*
X16954230Y-13945984D01*
X16954230Y-13945984D02*
X16992325Y-13945984D01*
X16992325Y-13945984D02*
X17011373Y-13936460D01*
X17011373Y-13936460D02*
X17020896Y-13917412D01*
X17020896Y-13917412D02*
X17020896Y-13907888D01*
X17020896Y-13907888D02*
X17011373Y-13888841D01*
X17011373Y-13888841D02*
X16992325Y-13879317D01*
X16992325Y-13879317D02*
X16963753Y-13879317D01*
X16963753Y-13879317D02*
X16944706Y-13869793D01*
X16944706Y-13869793D02*
X16935182Y-13850746D01*
X16935182Y-13850746D02*
X16935182Y-13841222D01*
X16935182Y-13841222D02*
X16944706Y-13822174D01*
X16944706Y-13822174D02*
X16963753Y-13812650D01*
X16963753Y-13812650D02*
X16992325Y-13812650D01*
X16992325Y-13812650D02*
X17011373Y-13822174D01*
X17087563Y-14022174D02*
X17097087Y-14012650D01*
X17097087Y-14012650D02*
X17116134Y-13984079D01*
X17116134Y-13984079D02*
X17125658Y-13965031D01*
X17125658Y-13965031D02*
X17135182Y-13936460D01*
X17135182Y-13936460D02*
X17144706Y-13888841D01*
X17144706Y-13888841D02*
X17144706Y-13850746D01*
X17144706Y-13850746D02*
X17135182Y-13803127D01*
X17135182Y-13803127D02*
X17125658Y-13774555D01*
X17125658Y-13774555D02*
X17116134Y-13755508D01*
X17116134Y-13755508D02*
X17097087Y-13726936D01*
X17097087Y-13726936D02*
X17087563Y-13717412D01*
M02*
