G04 #@! TF.GenerationSoftware,KiCad,Pcbnew,8.0.0*
G04 #@! TF.CreationDate,2024-11-14T09:55:02-06:00*
G04 #@! TF.ProjectId,RainSegmentDriver,5261696e-5365-4676-9d65-6e7444726976,rev?*
G04 #@! TF.SameCoordinates,Original*
G04 #@! TF.FileFunction,Legend,Bot*
G04 #@! TF.FilePolarity,Positive*
%FSLAX46Y46*%
G04 Gerber Fmt 4.6, Leading zero omitted, Abs format (unit mm)*
G04 Created by KiCad (PCBNEW 8.0.0) date 2024-11-14 09:55:02*
%MOMM*%
%LPD*%
G01*
G04 APERTURE LIST*
G04 Aperture macros list*
%AMRoundRect*
0 Rectangle with rounded corners*
0 $1 Rounding radius*
0 $2 $3 $4 $5 $6 $7 $8 $9 X,Y pos of 4 corners*
0 Add a 4 corners polygon primitive as box body*
4,1,4,$2,$3,$4,$5,$6,$7,$8,$9,$2,$3,0*
0 Add four circle primitives for the rounded corners*
1,1,$1+$1,$2,$3*
1,1,$1+$1,$4,$5*
1,1,$1+$1,$6,$7*
1,1,$1+$1,$8,$9*
0 Add four rect primitives between the rounded corners*
20,1,$1+$1,$2,$3,$4,$5,0*
20,1,$1+$1,$4,$5,$6,$7,0*
20,1,$1+$1,$6,$7,$8,$9,0*
20,1,$1+$1,$8,$9,$2,$3,0*%
G04 Aperture macros list end*
%ADD10C,0.100000*%
%ADD11C,0.010000*%
%ADD12R,1.800000X1.800000*%
%ADD13C,1.800000*%
%ADD14C,2.362000*%
%ADD15C,3.200000*%
%ADD16RoundRect,0.250000X-0.650000X-1.550000X0.650000X-1.550000X0.650000X1.550000X-0.650000X1.550000X0*%
%ADD17O,1.800000X3.600000*%
%ADD18C,3.250000*%
%ADD19R,1.500000X1.500000*%
%ADD20C,1.500000*%
%ADD21C,3.000000*%
%ADD22R,3.000000X1.500000*%
%ADD23O,3.000000X1.500000*%
%ADD24C,1.600000*%
G04 APERTURE END LIST*
D10*
X158036907Y-114251895D02*
X157541669Y-114251895D01*
X157541669Y-114251895D02*
X157808335Y-114556657D01*
X157808335Y-114556657D02*
X157694050Y-114556657D01*
X157694050Y-114556657D02*
X157617859Y-114594752D01*
X157617859Y-114594752D02*
X157579764Y-114632847D01*
X157579764Y-114632847D02*
X157541669Y-114709038D01*
X157541669Y-114709038D02*
X157541669Y-114899514D01*
X157541669Y-114899514D02*
X157579764Y-114975704D01*
X157579764Y-114975704D02*
X157617859Y-115013800D01*
X157617859Y-115013800D02*
X157694050Y-115051895D01*
X157694050Y-115051895D02*
X157922621Y-115051895D01*
X157922621Y-115051895D02*
X157998812Y-115013800D01*
X157998812Y-115013800D02*
X158036907Y-114975704D01*
X157275002Y-114251895D02*
X156779764Y-114251895D01*
X156779764Y-114251895D02*
X157046430Y-114556657D01*
X157046430Y-114556657D02*
X156932145Y-114556657D01*
X156932145Y-114556657D02*
X156855954Y-114594752D01*
X156855954Y-114594752D02*
X156817859Y-114632847D01*
X156817859Y-114632847D02*
X156779764Y-114709038D01*
X156779764Y-114709038D02*
X156779764Y-114899514D01*
X156779764Y-114899514D02*
X156817859Y-114975704D01*
X156817859Y-114975704D02*
X156855954Y-115013800D01*
X156855954Y-115013800D02*
X156932145Y-115051895D01*
X156932145Y-115051895D02*
X157160716Y-115051895D01*
X157160716Y-115051895D02*
X157236907Y-115013800D01*
X157236907Y-115013800D02*
X157275002Y-114975704D01*
X156284525Y-114251895D02*
X156208335Y-114251895D01*
X156208335Y-114251895D02*
X156132144Y-114289990D01*
X156132144Y-114289990D02*
X156094049Y-114328085D01*
X156094049Y-114328085D02*
X156055954Y-114404276D01*
X156055954Y-114404276D02*
X156017859Y-114556657D01*
X156017859Y-114556657D02*
X156017859Y-114747133D01*
X156017859Y-114747133D02*
X156055954Y-114899514D01*
X156055954Y-114899514D02*
X156094049Y-114975704D01*
X156094049Y-114975704D02*
X156132144Y-115013800D01*
X156132144Y-115013800D02*
X156208335Y-115051895D01*
X156208335Y-115051895D02*
X156284525Y-115051895D01*
X156284525Y-115051895D02*
X156360716Y-115013800D01*
X156360716Y-115013800D02*
X156398811Y-114975704D01*
X156398811Y-114975704D02*
X156436906Y-114899514D01*
X156436906Y-114899514D02*
X156475002Y-114747133D01*
X156475002Y-114747133D02*
X156475002Y-114556657D01*
X156475002Y-114556657D02*
X156436906Y-114404276D01*
X156436906Y-114404276D02*
X156398811Y-114328085D01*
X156398811Y-114328085D02*
X156360716Y-114289990D01*
X156360716Y-114289990D02*
X156284525Y-114251895D01*
X155865478Y-115128085D02*
X155255954Y-115128085D01*
X154608334Y-114975704D02*
X154646430Y-115013800D01*
X154646430Y-115013800D02*
X154760715Y-115051895D01*
X154760715Y-115051895D02*
X154836906Y-115051895D01*
X154836906Y-115051895D02*
X154951192Y-115013800D01*
X154951192Y-115013800D02*
X155027382Y-114937609D01*
X155027382Y-114937609D02*
X155065477Y-114861419D01*
X155065477Y-114861419D02*
X155103573Y-114709038D01*
X155103573Y-114709038D02*
X155103573Y-114594752D01*
X155103573Y-114594752D02*
X155065477Y-114442371D01*
X155065477Y-114442371D02*
X155027382Y-114366180D01*
X155027382Y-114366180D02*
X154951192Y-114289990D01*
X154951192Y-114289990D02*
X154836906Y-114251895D01*
X154836906Y-114251895D02*
X154760715Y-114251895D01*
X154760715Y-114251895D02*
X154646430Y-114289990D01*
X154646430Y-114289990D02*
X154608334Y-114328085D01*
X154151192Y-115051895D02*
X154227382Y-115013800D01*
X154227382Y-115013800D02*
X154265477Y-114975704D01*
X154265477Y-114975704D02*
X154303573Y-114899514D01*
X154303573Y-114899514D02*
X154303573Y-114670942D01*
X154303573Y-114670942D02*
X154265477Y-114594752D01*
X154265477Y-114594752D02*
X154227382Y-114556657D01*
X154227382Y-114556657D02*
X154151192Y-114518561D01*
X154151192Y-114518561D02*
X154036906Y-114518561D01*
X154036906Y-114518561D02*
X153960715Y-114556657D01*
X153960715Y-114556657D02*
X153922620Y-114594752D01*
X153922620Y-114594752D02*
X153884525Y-114670942D01*
X153884525Y-114670942D02*
X153884525Y-114899514D01*
X153884525Y-114899514D02*
X153922620Y-114975704D01*
X153922620Y-114975704D02*
X153960715Y-115013800D01*
X153960715Y-115013800D02*
X154036906Y-115051895D01*
X154036906Y-115051895D02*
X154151192Y-115051895D01*
X153541667Y-115051895D02*
X153541667Y-114518561D01*
X153541667Y-114594752D02*
X153503572Y-114556657D01*
X153503572Y-114556657D02*
X153427382Y-114518561D01*
X153427382Y-114518561D02*
X153313096Y-114518561D01*
X153313096Y-114518561D02*
X153236905Y-114556657D01*
X153236905Y-114556657D02*
X153198810Y-114632847D01*
X153198810Y-114632847D02*
X153198810Y-115051895D01*
X153198810Y-114632847D02*
X153160715Y-114556657D01*
X153160715Y-114556657D02*
X153084524Y-114518561D01*
X153084524Y-114518561D02*
X152970239Y-114518561D01*
X152970239Y-114518561D02*
X152894048Y-114556657D01*
X152894048Y-114556657D02*
X152855953Y-114632847D01*
X152855953Y-114632847D02*
X152855953Y-115051895D01*
X152475000Y-115051895D02*
X152475000Y-114251895D01*
X152475000Y-114556657D02*
X152398810Y-114518561D01*
X152398810Y-114518561D02*
X152246429Y-114518561D01*
X152246429Y-114518561D02*
X152170238Y-114556657D01*
X152170238Y-114556657D02*
X152132143Y-114594752D01*
X152132143Y-114594752D02*
X152094048Y-114670942D01*
X152094048Y-114670942D02*
X152094048Y-114899514D01*
X152094048Y-114899514D02*
X152132143Y-114975704D01*
X152132143Y-114975704D02*
X152170238Y-115013800D01*
X152170238Y-115013800D02*
X152246429Y-115051895D01*
X152246429Y-115051895D02*
X152398810Y-115051895D01*
X152398810Y-115051895D02*
X152475000Y-115013800D01*
X151751190Y-115051895D02*
X151751190Y-114518561D01*
X151751190Y-114251895D02*
X151789286Y-114289990D01*
X151789286Y-114289990D02*
X151751190Y-114328085D01*
X151751190Y-114328085D02*
X151713095Y-114289990D01*
X151713095Y-114289990D02*
X151751190Y-114251895D01*
X151751190Y-114251895D02*
X151751190Y-114328085D01*
X151370238Y-114518561D02*
X151370238Y-115051895D01*
X151370238Y-114594752D02*
X151332143Y-114556657D01*
X151332143Y-114556657D02*
X151255953Y-114518561D01*
X151255953Y-114518561D02*
X151141667Y-114518561D01*
X151141667Y-114518561D02*
X151065476Y-114556657D01*
X151065476Y-114556657D02*
X151027381Y-114632847D01*
X151027381Y-114632847D02*
X151027381Y-115051895D01*
X150341666Y-115013800D02*
X150417857Y-115051895D01*
X150417857Y-115051895D02*
X150570238Y-115051895D01*
X150570238Y-115051895D02*
X150646428Y-115013800D01*
X150646428Y-115013800D02*
X150684524Y-114937609D01*
X150684524Y-114937609D02*
X150684524Y-114632847D01*
X150684524Y-114632847D02*
X150646428Y-114556657D01*
X150646428Y-114556657D02*
X150570238Y-114518561D01*
X150570238Y-114518561D02*
X150417857Y-114518561D01*
X150417857Y-114518561D02*
X150341666Y-114556657D01*
X150341666Y-114556657D02*
X150303571Y-114632847D01*
X150303571Y-114632847D02*
X150303571Y-114709038D01*
X150303571Y-114709038D02*
X150684524Y-114785228D01*
X149617857Y-115051895D02*
X149617857Y-114251895D01*
X149617857Y-115013800D02*
X149694048Y-115051895D01*
X149694048Y-115051895D02*
X149846429Y-115051895D01*
X149846429Y-115051895D02*
X149922619Y-115013800D01*
X149922619Y-115013800D02*
X149960714Y-114975704D01*
X149960714Y-114975704D02*
X149998810Y-114899514D01*
X149998810Y-114899514D02*
X149998810Y-114670942D01*
X149998810Y-114670942D02*
X149960714Y-114594752D01*
X149960714Y-114594752D02*
X149922619Y-114556657D01*
X149922619Y-114556657D02*
X149846429Y-114518561D01*
X149846429Y-114518561D02*
X149694048Y-114518561D01*
X149694048Y-114518561D02*
X149617857Y-114556657D01*
X148665476Y-115013800D02*
X148551190Y-115051895D01*
X148551190Y-115051895D02*
X148360714Y-115051895D01*
X148360714Y-115051895D02*
X148284523Y-115013800D01*
X148284523Y-115013800D02*
X148246428Y-114975704D01*
X148246428Y-114975704D02*
X148208333Y-114899514D01*
X148208333Y-114899514D02*
X148208333Y-114823323D01*
X148208333Y-114823323D02*
X148246428Y-114747133D01*
X148246428Y-114747133D02*
X148284523Y-114709038D01*
X148284523Y-114709038D02*
X148360714Y-114670942D01*
X148360714Y-114670942D02*
X148513095Y-114632847D01*
X148513095Y-114632847D02*
X148589285Y-114594752D01*
X148589285Y-114594752D02*
X148627380Y-114556657D01*
X148627380Y-114556657D02*
X148665476Y-114480466D01*
X148665476Y-114480466D02*
X148665476Y-114404276D01*
X148665476Y-114404276D02*
X148627380Y-114328085D01*
X148627380Y-114328085D02*
X148589285Y-114289990D01*
X148589285Y-114289990D02*
X148513095Y-114251895D01*
X148513095Y-114251895D02*
X148322618Y-114251895D01*
X148322618Y-114251895D02*
X148208333Y-114289990D01*
X147560713Y-115013800D02*
X147636904Y-115051895D01*
X147636904Y-115051895D02*
X147789285Y-115051895D01*
X147789285Y-115051895D02*
X147865475Y-115013800D01*
X147865475Y-115013800D02*
X147903571Y-114937609D01*
X147903571Y-114937609D02*
X147903571Y-114632847D01*
X147903571Y-114632847D02*
X147865475Y-114556657D01*
X147865475Y-114556657D02*
X147789285Y-114518561D01*
X147789285Y-114518561D02*
X147636904Y-114518561D01*
X147636904Y-114518561D02*
X147560713Y-114556657D01*
X147560713Y-114556657D02*
X147522618Y-114632847D01*
X147522618Y-114632847D02*
X147522618Y-114709038D01*
X147522618Y-114709038D02*
X147903571Y-114785228D01*
X147255952Y-114518561D02*
X147103571Y-115051895D01*
X147103571Y-115051895D02*
X146951190Y-114670942D01*
X146951190Y-114670942D02*
X146798809Y-115051895D01*
X146798809Y-115051895D02*
X146646428Y-114518561D01*
X146036904Y-115013800D02*
X146113095Y-115051895D01*
X146113095Y-115051895D02*
X146265476Y-115051895D01*
X146265476Y-115051895D02*
X146341666Y-115013800D01*
X146341666Y-115013800D02*
X146379762Y-114937609D01*
X146379762Y-114937609D02*
X146379762Y-114632847D01*
X146379762Y-114632847D02*
X146341666Y-114556657D01*
X146341666Y-114556657D02*
X146265476Y-114518561D01*
X146265476Y-114518561D02*
X146113095Y-114518561D01*
X146113095Y-114518561D02*
X146036904Y-114556657D01*
X146036904Y-114556657D02*
X145998809Y-114632847D01*
X145998809Y-114632847D02*
X145998809Y-114709038D01*
X145998809Y-114709038D02*
X146379762Y-114785228D01*
X145655952Y-115051895D02*
X145655952Y-114518561D01*
X145655952Y-114670942D02*
X145617857Y-114594752D01*
X145617857Y-114594752D02*
X145579762Y-114556657D01*
X145579762Y-114556657D02*
X145503571Y-114518561D01*
X145503571Y-114518561D02*
X145427381Y-114518561D01*
X144665476Y-114251895D02*
X144208333Y-114251895D01*
X144436905Y-115051895D02*
X144436905Y-114251895D01*
X143598809Y-114518561D02*
X143598809Y-115051895D01*
X143941666Y-114518561D02*
X143941666Y-114937609D01*
X143941666Y-114937609D02*
X143903571Y-115013800D01*
X143903571Y-115013800D02*
X143827381Y-115051895D01*
X143827381Y-115051895D02*
X143713095Y-115051895D01*
X143713095Y-115051895D02*
X143636904Y-115013800D01*
X143636904Y-115013800D02*
X143598809Y-114975704D01*
X143217856Y-114518561D02*
X143217856Y-115051895D01*
X143217856Y-114594752D02*
X143179761Y-114556657D01*
X143179761Y-114556657D02*
X143103571Y-114518561D01*
X143103571Y-114518561D02*
X142989285Y-114518561D01*
X142989285Y-114518561D02*
X142913094Y-114556657D01*
X142913094Y-114556657D02*
X142874999Y-114632847D01*
X142874999Y-114632847D02*
X142874999Y-115051895D01*
X142494046Y-114518561D02*
X142494046Y-115051895D01*
X142494046Y-114594752D02*
X142455951Y-114556657D01*
X142455951Y-114556657D02*
X142379761Y-114518561D01*
X142379761Y-114518561D02*
X142265475Y-114518561D01*
X142265475Y-114518561D02*
X142189284Y-114556657D01*
X142189284Y-114556657D02*
X142151189Y-114632847D01*
X142151189Y-114632847D02*
X142151189Y-115051895D01*
X141465474Y-115013800D02*
X141541665Y-115051895D01*
X141541665Y-115051895D02*
X141694046Y-115051895D01*
X141694046Y-115051895D02*
X141770236Y-115013800D01*
X141770236Y-115013800D02*
X141808332Y-114937609D01*
X141808332Y-114937609D02*
X141808332Y-114632847D01*
X141808332Y-114632847D02*
X141770236Y-114556657D01*
X141770236Y-114556657D02*
X141694046Y-114518561D01*
X141694046Y-114518561D02*
X141541665Y-114518561D01*
X141541665Y-114518561D02*
X141465474Y-114556657D01*
X141465474Y-114556657D02*
X141427379Y-114632847D01*
X141427379Y-114632847D02*
X141427379Y-114709038D01*
X141427379Y-114709038D02*
X141808332Y-114785228D01*
X140970237Y-115051895D02*
X141046427Y-115013800D01*
X141046427Y-115013800D02*
X141084522Y-114937609D01*
X141084522Y-114937609D02*
X141084522Y-114251895D01*
X140703570Y-115013800D02*
X140627379Y-115051895D01*
X140627379Y-115051895D02*
X140474998Y-115051895D01*
X140474998Y-115051895D02*
X140398808Y-115013800D01*
X140398808Y-115013800D02*
X140360712Y-114937609D01*
X140360712Y-114937609D02*
X140360712Y-114899514D01*
X140360712Y-114899514D02*
X140398808Y-114823323D01*
X140398808Y-114823323D02*
X140474998Y-114785228D01*
X140474998Y-114785228D02*
X140589284Y-114785228D01*
X140589284Y-114785228D02*
X140665474Y-114747133D01*
X140665474Y-114747133D02*
X140703570Y-114670942D01*
X140703570Y-114670942D02*
X140703570Y-114632847D01*
X140703570Y-114632847D02*
X140665474Y-114556657D01*
X140665474Y-114556657D02*
X140589284Y-114518561D01*
X140589284Y-114518561D02*
X140474998Y-114518561D01*
X140474998Y-114518561D02*
X140398808Y-114556657D01*
X139217855Y-115318561D02*
X139217855Y-114175704D01*
X137579759Y-115051895D02*
X137846426Y-114670942D01*
X138036902Y-115051895D02*
X138036902Y-114251895D01*
X138036902Y-114251895D02*
X137732140Y-114251895D01*
X137732140Y-114251895D02*
X137655950Y-114289990D01*
X137655950Y-114289990D02*
X137617855Y-114328085D01*
X137617855Y-114328085D02*
X137579759Y-114404276D01*
X137579759Y-114404276D02*
X137579759Y-114518561D01*
X137579759Y-114518561D02*
X137617855Y-114594752D01*
X137617855Y-114594752D02*
X137655950Y-114632847D01*
X137655950Y-114632847D02*
X137732140Y-114670942D01*
X137732140Y-114670942D02*
X138036902Y-114670942D01*
X136894045Y-115051895D02*
X136894045Y-114632847D01*
X136894045Y-114632847D02*
X136932140Y-114556657D01*
X136932140Y-114556657D02*
X137008331Y-114518561D01*
X137008331Y-114518561D02*
X137160712Y-114518561D01*
X137160712Y-114518561D02*
X137236902Y-114556657D01*
X136894045Y-115013800D02*
X136970236Y-115051895D01*
X136970236Y-115051895D02*
X137160712Y-115051895D01*
X137160712Y-115051895D02*
X137236902Y-115013800D01*
X137236902Y-115013800D02*
X137274998Y-114937609D01*
X137274998Y-114937609D02*
X137274998Y-114861419D01*
X137274998Y-114861419D02*
X137236902Y-114785228D01*
X137236902Y-114785228D02*
X137160712Y-114747133D01*
X137160712Y-114747133D02*
X136970236Y-114747133D01*
X136970236Y-114747133D02*
X136894045Y-114709038D01*
X136513092Y-115051895D02*
X136513092Y-114518561D01*
X136513092Y-114251895D02*
X136551188Y-114289990D01*
X136551188Y-114289990D02*
X136513092Y-114328085D01*
X136513092Y-114328085D02*
X136474997Y-114289990D01*
X136474997Y-114289990D02*
X136513092Y-114251895D01*
X136513092Y-114251895D02*
X136513092Y-114328085D01*
X136132140Y-114518561D02*
X136132140Y-115051895D01*
X136132140Y-114594752D02*
X136094045Y-114556657D01*
X136094045Y-114556657D02*
X136017855Y-114518561D01*
X136017855Y-114518561D02*
X135903569Y-114518561D01*
X135903569Y-114518561D02*
X135827378Y-114556657D01*
X135827378Y-114556657D02*
X135789283Y-114632847D01*
X135789283Y-114632847D02*
X135789283Y-115051895D01*
X134417854Y-115051895D02*
X134798806Y-115051895D01*
X134798806Y-115051895D02*
X134798806Y-114251895D01*
X134151187Y-114632847D02*
X133884521Y-114632847D01*
X133770235Y-115051895D02*
X134151187Y-115051895D01*
X134151187Y-115051895D02*
X134151187Y-114251895D01*
X134151187Y-114251895D02*
X133770235Y-114251895D01*
X133427377Y-115051895D02*
X133427377Y-114251895D01*
X133427377Y-114251895D02*
X133236901Y-114251895D01*
X133236901Y-114251895D02*
X133122615Y-114289990D01*
X133122615Y-114289990D02*
X133046425Y-114366180D01*
X133046425Y-114366180D02*
X133008330Y-114442371D01*
X133008330Y-114442371D02*
X132970234Y-114594752D01*
X132970234Y-114594752D02*
X132970234Y-114709038D01*
X132970234Y-114709038D02*
X133008330Y-114861419D01*
X133008330Y-114861419D02*
X133046425Y-114937609D01*
X133046425Y-114937609D02*
X133122615Y-115013800D01*
X133122615Y-115013800D02*
X133236901Y-115051895D01*
X133236901Y-115051895D02*
X133427377Y-115051895D01*
X131674996Y-115051895D02*
X131674996Y-114251895D01*
X131674996Y-115013800D02*
X131751187Y-115051895D01*
X131751187Y-115051895D02*
X131903568Y-115051895D01*
X131903568Y-115051895D02*
X131979758Y-115013800D01*
X131979758Y-115013800D02*
X132017853Y-114975704D01*
X132017853Y-114975704D02*
X132055949Y-114899514D01*
X132055949Y-114899514D02*
X132055949Y-114670942D01*
X132055949Y-114670942D02*
X132017853Y-114594752D01*
X132017853Y-114594752D02*
X131979758Y-114556657D01*
X131979758Y-114556657D02*
X131903568Y-114518561D01*
X131903568Y-114518561D02*
X131751187Y-114518561D01*
X131751187Y-114518561D02*
X131674996Y-114556657D01*
X131294043Y-115051895D02*
X131294043Y-114518561D01*
X131294043Y-114670942D02*
X131255948Y-114594752D01*
X131255948Y-114594752D02*
X131217853Y-114556657D01*
X131217853Y-114556657D02*
X131141662Y-114518561D01*
X131141662Y-114518561D02*
X131065472Y-114518561D01*
X130798805Y-115051895D02*
X130798805Y-114518561D01*
X130798805Y-114251895D02*
X130836901Y-114289990D01*
X130836901Y-114289990D02*
X130798805Y-114328085D01*
X130798805Y-114328085D02*
X130760710Y-114289990D01*
X130760710Y-114289990D02*
X130798805Y-114251895D01*
X130798805Y-114251895D02*
X130798805Y-114328085D01*
X130494044Y-114518561D02*
X130303568Y-115051895D01*
X130303568Y-115051895D02*
X130113091Y-114518561D01*
X129503567Y-115013800D02*
X129579758Y-115051895D01*
X129579758Y-115051895D02*
X129732139Y-115051895D01*
X129732139Y-115051895D02*
X129808329Y-115013800D01*
X129808329Y-115013800D02*
X129846425Y-114937609D01*
X129846425Y-114937609D02*
X129846425Y-114632847D01*
X129846425Y-114632847D02*
X129808329Y-114556657D01*
X129808329Y-114556657D02*
X129732139Y-114518561D01*
X129732139Y-114518561D02*
X129579758Y-114518561D01*
X129579758Y-114518561D02*
X129503567Y-114556657D01*
X129503567Y-114556657D02*
X129465472Y-114632847D01*
X129465472Y-114632847D02*
X129465472Y-114709038D01*
X129465472Y-114709038D02*
X129846425Y-114785228D01*
X129122615Y-115051895D02*
X129122615Y-114518561D01*
X129122615Y-114670942D02*
X129084520Y-114594752D01*
X129084520Y-114594752D02*
X129046425Y-114556657D01*
X129046425Y-114556657D02*
X128970234Y-114518561D01*
X128970234Y-114518561D02*
X128894044Y-114518561D01*
X127827377Y-115318561D02*
X127827377Y-114175704D01*
X126189281Y-115051895D02*
X126455948Y-114670942D01*
X126646424Y-115051895D02*
X126646424Y-114251895D01*
X126646424Y-114251895D02*
X126341662Y-114251895D01*
X126341662Y-114251895D02*
X126265472Y-114289990D01*
X126265472Y-114289990D02*
X126227377Y-114328085D01*
X126227377Y-114328085D02*
X126189281Y-114404276D01*
X126189281Y-114404276D02*
X126189281Y-114518561D01*
X126189281Y-114518561D02*
X126227377Y-114594752D01*
X126227377Y-114594752D02*
X126265472Y-114632847D01*
X126265472Y-114632847D02*
X126341662Y-114670942D01*
X126341662Y-114670942D02*
X126646424Y-114670942D01*
X125541662Y-115013800D02*
X125617853Y-115051895D01*
X125617853Y-115051895D02*
X125770234Y-115051895D01*
X125770234Y-115051895D02*
X125846424Y-115013800D01*
X125846424Y-115013800D02*
X125884520Y-114937609D01*
X125884520Y-114937609D02*
X125884520Y-114632847D01*
X125884520Y-114632847D02*
X125846424Y-114556657D01*
X125846424Y-114556657D02*
X125770234Y-114518561D01*
X125770234Y-114518561D02*
X125617853Y-114518561D01*
X125617853Y-114518561D02*
X125541662Y-114556657D01*
X125541662Y-114556657D02*
X125503567Y-114632847D01*
X125503567Y-114632847D02*
X125503567Y-114709038D01*
X125503567Y-114709038D02*
X125884520Y-114785228D01*
X125236901Y-114518561D02*
X125046425Y-115051895D01*
X125046425Y-115051895D02*
X124855948Y-114518561D01*
X124551186Y-114975704D02*
X124513091Y-115013800D01*
X124513091Y-115013800D02*
X124551186Y-115051895D01*
X124551186Y-115051895D02*
X124589282Y-115013800D01*
X124589282Y-115013800D02*
X124551186Y-114975704D01*
X124551186Y-114975704D02*
X124551186Y-115051895D01*
X124208330Y-114328085D02*
X124170234Y-114289990D01*
X124170234Y-114289990D02*
X124094044Y-114251895D01*
X124094044Y-114251895D02*
X123903568Y-114251895D01*
X123903568Y-114251895D02*
X123827377Y-114289990D01*
X123827377Y-114289990D02*
X123789282Y-114328085D01*
X123789282Y-114328085D02*
X123751187Y-114404276D01*
X123751187Y-114404276D02*
X123751187Y-114480466D01*
X123751187Y-114480466D02*
X123789282Y-114594752D01*
X123789282Y-114594752D02*
X124246425Y-115051895D01*
X124246425Y-115051895D02*
X123751187Y-115051895D01*
D11*
X166014475Y-111004017D02*
X166409295Y-111038872D01*
X166802142Y-111104276D01*
X167185245Y-111199216D01*
X167550833Y-111322682D01*
X167891133Y-111473661D01*
X168198376Y-111651142D01*
X168321696Y-111740037D01*
X168472393Y-111875841D01*
X168585629Y-112013999D01*
X168660500Y-112150498D01*
X168696099Y-112281325D01*
X168691523Y-112402466D01*
X168645865Y-112509909D01*
X168558220Y-112599641D01*
X168427683Y-112667648D01*
X168393261Y-112677842D01*
X168288194Y-112696511D01*
X168148531Y-112710869D01*
X167985190Y-112720548D01*
X167809088Y-112725181D01*
X167631141Y-112724401D01*
X167462267Y-112717840D01*
X167313382Y-112705132D01*
X167280674Y-112701185D01*
X166947164Y-112649785D01*
X166625969Y-112580757D01*
X166335867Y-112498079D01*
X166251400Y-112468678D01*
X166081941Y-112401782D01*
X165907189Y-112324110D01*
X165737843Y-112241030D01*
X165584598Y-112157909D01*
X165458154Y-112080116D01*
X165369205Y-112013018D01*
X165291675Y-111934383D01*
X165217239Y-111822990D01*
X165189970Y-111719779D01*
X165207866Y-111626405D01*
X165268927Y-111544524D01*
X165371153Y-111475791D01*
X165512543Y-111421862D01*
X165691096Y-111384393D01*
X165904813Y-111365038D01*
X166151692Y-111365453D01*
X166416154Y-111386825D01*
X166680306Y-111432754D01*
X166948886Y-111506446D01*
X167238050Y-111611561D01*
X167351272Y-111658854D01*
X167510885Y-111736167D01*
X167625685Y-111809532D01*
X167699026Y-111881805D01*
X167734261Y-111955842D01*
X167734745Y-112034497D01*
X167732073Y-112044387D01*
X167689734Y-112091564D01*
X167604861Y-112121923D01*
X167482128Y-112135250D01*
X167326211Y-112131335D01*
X167141786Y-112109963D01*
X166933527Y-112070923D01*
X166845846Y-112050668D01*
X166640162Y-111993130D01*
X166475398Y-111931078D01*
X166353525Y-111865718D01*
X166276514Y-111798257D01*
X166246337Y-111729901D01*
X166264966Y-111661857D01*
X166298716Y-111638163D01*
X166375250Y-111622573D01*
X166480186Y-111621178D01*
X166602497Y-111633345D01*
X166731160Y-111658439D01*
X166855149Y-111695824D01*
X166859312Y-111697357D01*
X166989023Y-111750502D01*
X167068866Y-111795886D01*
X167099132Y-111833726D01*
X167080112Y-111864241D01*
X167073689Y-111867534D01*
X167012151Y-111875973D01*
X166922054Y-111866306D01*
X166819004Y-111839983D01*
X166767256Y-111830267D01*
X166736484Y-111838699D01*
X166736667Y-111852255D01*
X166770589Y-111875342D01*
X166836833Y-111895744D01*
X166923798Y-111910302D01*
X167019880Y-111915857D01*
X167094049Y-111910174D01*
X167153847Y-111887363D01*
X167174015Y-111850764D01*
X167158387Y-111804328D01*
X167110796Y-111752008D01*
X167035078Y-111697756D01*
X166935065Y-111645523D01*
X166814591Y-111599262D01*
X166677492Y-111562926D01*
X166630483Y-111553982D01*
X166472555Y-111537961D01*
X166340187Y-111546290D01*
X166237455Y-111576385D01*
X166168437Y-111625662D01*
X166137210Y-111691536D01*
X166147852Y-111771424D01*
X166204441Y-111862740D01*
X166217879Y-111877469D01*
X166310846Y-111948985D01*
X166442901Y-112018890D01*
X166604351Y-112084606D01*
X166785506Y-112143556D01*
X166976675Y-112193162D01*
X167168168Y-112230847D01*
X167350293Y-112254033D01*
X167513360Y-112260143D01*
X167647678Y-112246599D01*
X167732519Y-112220342D01*
X167828476Y-112164211D01*
X167893231Y-112092265D01*
X167916992Y-112012996D01*
X167898983Y-111916875D01*
X167831259Y-111805929D01*
X167713656Y-111698513D01*
X167546624Y-111594953D01*
X167330619Y-111495575D01*
X167066092Y-111400704D01*
X167026347Y-111388038D01*
X166820891Y-111325963D01*
X166644395Y-111280682D01*
X166481612Y-111249770D01*
X166317298Y-111230804D01*
X166136206Y-111221361D01*
X165923092Y-111219018D01*
X165750730Y-111221381D01*
X165566162Y-111231395D01*
X165416498Y-111250842D01*
X165293007Y-111281442D01*
X165186955Y-111324911D01*
X165089610Y-111382968D01*
X165086354Y-111385223D01*
X164978387Y-111486821D01*
X164915770Y-111606073D01*
X164898341Y-111738185D01*
X164925942Y-111878362D01*
X164998413Y-112021809D01*
X165115595Y-112163733D01*
X165130746Y-112178495D01*
X165257513Y-112283241D01*
X165423420Y-112396040D01*
X165619935Y-112512108D01*
X165838525Y-112626662D01*
X166070656Y-112734917D01*
X166307795Y-112832090D01*
X166327814Y-112839739D01*
X166404084Y-112871629D01*
X166446517Y-112899923D01*
X166466912Y-112935607D01*
X166477071Y-112989667D01*
X166479429Y-113005375D01*
X166491475Y-113054473D01*
X166514152Y-113107008D01*
X166552668Y-113172092D01*
X166612230Y-113258837D01*
X166698045Y-113376357D01*
X166763296Y-113488211D01*
X166820883Y-113633325D01*
X166860715Y-113785669D01*
X166875592Y-113923075D01*
X166875592Y-114045342D01*
X166666042Y-113981025D01*
X166342173Y-113871394D01*
X165996681Y-113732557D01*
X165660434Y-113575700D01*
X165339299Y-113404402D01*
X165039142Y-113222238D01*
X164765830Y-113032787D01*
X164525231Y-112839624D01*
X164323211Y-112646329D01*
X164165636Y-112456477D01*
X164120542Y-112390555D01*
X164009199Y-112189631D01*
X163946750Y-112002421D01*
X163933106Y-111829188D01*
X163968179Y-111670194D01*
X164051880Y-111525701D01*
X164184122Y-111395973D01*
X164364816Y-111281272D01*
X164593874Y-111181861D01*
X164895888Y-111092861D01*
X165250000Y-111030000D01*
X165625452Y-111000722D01*
X166014475Y-111004017D01*
G36*
X166014475Y-111004017D02*
G01*
X166409295Y-111038872D01*
X166802142Y-111104276D01*
X167185245Y-111199216D01*
X167550833Y-111322682D01*
X167891133Y-111473661D01*
X168198376Y-111651142D01*
X168321696Y-111740037D01*
X168472393Y-111875841D01*
X168585629Y-112013999D01*
X168660500Y-112150498D01*
X168696099Y-112281325D01*
X168691523Y-112402466D01*
X168645865Y-112509909D01*
X168558220Y-112599641D01*
X168427683Y-112667648D01*
X168393261Y-112677842D01*
X168288194Y-112696511D01*
X168148531Y-112710869D01*
X167985190Y-112720548D01*
X167809088Y-112725181D01*
X167631141Y-112724401D01*
X167462267Y-112717840D01*
X167313382Y-112705132D01*
X167280674Y-112701185D01*
X166947164Y-112649785D01*
X166625969Y-112580757D01*
X166335867Y-112498079D01*
X166251400Y-112468678D01*
X166081941Y-112401782D01*
X165907189Y-112324110D01*
X165737843Y-112241030D01*
X165584598Y-112157909D01*
X165458154Y-112080116D01*
X165369205Y-112013018D01*
X165291675Y-111934383D01*
X165217239Y-111822990D01*
X165189970Y-111719779D01*
X165207866Y-111626405D01*
X165268927Y-111544524D01*
X165371153Y-111475791D01*
X165512543Y-111421862D01*
X165691096Y-111384393D01*
X165904813Y-111365038D01*
X166151692Y-111365453D01*
X166416154Y-111386825D01*
X166680306Y-111432754D01*
X166948886Y-111506446D01*
X167238050Y-111611561D01*
X167351272Y-111658854D01*
X167510885Y-111736167D01*
X167625685Y-111809532D01*
X167699026Y-111881805D01*
X167734261Y-111955842D01*
X167734745Y-112034497D01*
X167732073Y-112044387D01*
X167689734Y-112091564D01*
X167604861Y-112121923D01*
X167482128Y-112135250D01*
X167326211Y-112131335D01*
X167141786Y-112109963D01*
X166933527Y-112070923D01*
X166845846Y-112050668D01*
X166640162Y-111993130D01*
X166475398Y-111931078D01*
X166353525Y-111865718D01*
X166276514Y-111798257D01*
X166246337Y-111729901D01*
X166264966Y-111661857D01*
X166298716Y-111638163D01*
X166375250Y-111622573D01*
X166480186Y-111621178D01*
X166602497Y-111633345D01*
X166731160Y-111658439D01*
X166855149Y-111695824D01*
X166859312Y-111697357D01*
X166989023Y-111750502D01*
X167068866Y-111795886D01*
X167099132Y-111833726D01*
X167080112Y-111864241D01*
X167073689Y-111867534D01*
X167012151Y-111875973D01*
X166922054Y-111866306D01*
X166819004Y-111839983D01*
X166767256Y-111830267D01*
X166736484Y-111838699D01*
X166736667Y-111852255D01*
X166770589Y-111875342D01*
X166836833Y-111895744D01*
X166923798Y-111910302D01*
X167019880Y-111915857D01*
X167094049Y-111910174D01*
X167153847Y-111887363D01*
X167174015Y-111850764D01*
X167158387Y-111804328D01*
X167110796Y-111752008D01*
X167035078Y-111697756D01*
X166935065Y-111645523D01*
X166814591Y-111599262D01*
X166677492Y-111562926D01*
X166630483Y-111553982D01*
X166472555Y-111537961D01*
X166340187Y-111546290D01*
X166237455Y-111576385D01*
X166168437Y-111625662D01*
X166137210Y-111691536D01*
X166147852Y-111771424D01*
X166204441Y-111862740D01*
X166217879Y-111877469D01*
X166310846Y-111948985D01*
X166442901Y-112018890D01*
X166604351Y-112084606D01*
X166785506Y-112143556D01*
X166976675Y-112193162D01*
X167168168Y-112230847D01*
X167350293Y-112254033D01*
X167513360Y-112260143D01*
X167647678Y-112246599D01*
X167732519Y-112220342D01*
X167828476Y-112164211D01*
X167893231Y-112092265D01*
X167916992Y-112012996D01*
X167898983Y-111916875D01*
X167831259Y-111805929D01*
X167713656Y-111698513D01*
X167546624Y-111594953D01*
X167330619Y-111495575D01*
X167066092Y-111400704D01*
X167026347Y-111388038D01*
X166820891Y-111325963D01*
X166644395Y-111280682D01*
X166481612Y-111249770D01*
X166317298Y-111230804D01*
X166136206Y-111221361D01*
X165923092Y-111219018D01*
X165750730Y-111221381D01*
X165566162Y-111231395D01*
X165416498Y-111250842D01*
X165293007Y-111281442D01*
X165186955Y-111324911D01*
X165089610Y-111382968D01*
X165086354Y-111385223D01*
X164978387Y-111486821D01*
X164915770Y-111606073D01*
X164898341Y-111738185D01*
X164925942Y-111878362D01*
X164998413Y-112021809D01*
X165115595Y-112163733D01*
X165130746Y-112178495D01*
X165257513Y-112283241D01*
X165423420Y-112396040D01*
X165619935Y-112512108D01*
X165838525Y-112626662D01*
X166070656Y-112734917D01*
X166307795Y-112832090D01*
X166327814Y-112839739D01*
X166404084Y-112871629D01*
X166446517Y-112899923D01*
X166466912Y-112935607D01*
X166477071Y-112989667D01*
X166479429Y-113005375D01*
X166491475Y-113054473D01*
X166514152Y-113107008D01*
X166552668Y-113172092D01*
X166612230Y-113258837D01*
X166698045Y-113376357D01*
X166763296Y-113488211D01*
X166820883Y-113633325D01*
X166860715Y-113785669D01*
X166875592Y-113923075D01*
X166875592Y-114045342D01*
X166666042Y-113981025D01*
X166342173Y-113871394D01*
X165996681Y-113732557D01*
X165660434Y-113575700D01*
X165339299Y-113404402D01*
X165039142Y-113222238D01*
X164765830Y-113032787D01*
X164525231Y-112839624D01*
X164323211Y-112646329D01*
X164165636Y-112456477D01*
X164120542Y-112390555D01*
X164009199Y-112189631D01*
X163946750Y-112002421D01*
X163933106Y-111829188D01*
X163968179Y-111670194D01*
X164051880Y-111525701D01*
X164184122Y-111395973D01*
X164364816Y-111281272D01*
X164593874Y-111181861D01*
X164895888Y-111092861D01*
X165250000Y-111030000D01*
X165625452Y-111000722D01*
X166014475Y-111004017D01*
G37*
%LPC*%
D12*
X166355000Y-103295000D03*
D13*
X168895000Y-103295000D03*
X171435000Y-103295000D03*
D14*
X171150000Y-114060000D03*
X171150000Y-110650000D03*
X161250000Y-114060000D03*
X161250000Y-110650000D03*
D15*
X149200000Y-101030000D03*
X149075000Y-71405000D03*
D16*
X125925000Y-108030000D03*
D17*
X129425000Y-108030000D03*
X132925000Y-108030000D03*
X136425000Y-108030000D03*
X139925000Y-108030000D03*
X143425000Y-108030000D03*
D18*
X166195000Y-93000000D03*
X166195000Y-81570000D03*
D19*
X159845000Y-91730000D03*
D20*
X157305000Y-90460000D03*
X159845000Y-89190000D03*
X157305000Y-87920000D03*
X159845000Y-86650000D03*
X157305000Y-85380000D03*
X159845000Y-84110000D03*
X157305000Y-82840000D03*
D21*
X169245000Y-95055000D03*
X169245000Y-79515000D03*
D22*
X169500000Y-69000000D03*
X161300000Y-69000000D03*
D23*
X169500000Y-74000000D03*
X161300000Y-74000000D03*
D24*
X149100000Y-77000000D03*
X149100000Y-80000000D03*
D12*
X159725000Y-98590000D03*
D13*
X159725000Y-101130000D03*
D24*
X149100000Y-96200000D03*
X149100000Y-93200000D03*
D22*
X128400000Y-73970000D03*
X136600000Y-73970000D03*
D23*
X128400000Y-68970000D03*
X136600000Y-68970000D03*
D24*
X149100000Y-82400000D03*
X149100000Y-85400000D03*
X149100000Y-87800000D03*
X149100000Y-90800000D03*
D18*
X131805000Y-81285000D03*
X131805000Y-92715000D03*
D19*
X138155000Y-82555000D03*
D20*
X140695000Y-83825000D03*
X138155000Y-85095000D03*
X140695000Y-86365000D03*
X138155000Y-87635000D03*
X140695000Y-88905000D03*
X138155000Y-90175000D03*
X140695000Y-91445000D03*
D21*
X128755000Y-79230000D03*
X128755000Y-94770000D03*
%LPD*%
M02*
