M48
; DRILL file {KiCad 8.0.0} date 2024-11-14T09:55:04-0600
; FORMAT={-:-/ absolute / metric / decimal}
; #@! TF.CreationDate,2024-11-14T09:55:04-06:00
; #@! TF.GenerationSoftware,Kicad,Pcbnew,8.0.0
; #@! TF.FileFunction,Plated,1,2,PTH
FMAT,2
METRIC
; #@! TA.AperFunction,Plated,PTH,ViaDrill
T1C0.300
; #@! TA.AperFunction,Plated,PTH,ComponentDrill
T2C0.800
; #@! TA.AperFunction,Plated,PTH,ComponentDrill
T3C0.900
; #@! TA.AperFunction,Plated,PTH,ComponentDrill
T4C1.000
; #@! TA.AperFunction,Plated,PTH,ComponentDrill
T5C1.150
; #@! TA.AperFunction,Plated,PTH,ComponentDrill
T6C1.200
; #@! TA.AperFunction,Plated,PTH,ComponentDrill
T7C1.600
%
G90
G05
T1
X137.05Y-92.905
X145.525Y-109.405
X146.4Y-111.18
X146.65Y-113.205
X146.675Y-114.43
X147.75Y-110.78
X149.025Y-110.78
X149.61Y-112.83
X150.225Y-89.405
X151.6Y-103.83
X153.8Y-96.63
X153.8Y-112.23
X155.06Y-110.87
X155.06Y-113.23
X156.362Y-110.843
X159.2Y-106.73
T2
X149.1Y-77.0
X149.1Y-80.0
X149.1Y-82.4
X149.1Y-85.4
X149.1Y-87.8
X149.1Y-90.8
X149.1Y-93.2
X149.1Y-96.2
T3
X138.155Y-82.555
X138.155Y-85.095
X138.155Y-87.635
X138.155Y-90.175
X140.695Y-83.825
X140.695Y-86.365
X140.695Y-88.905
X140.695Y-91.445
X157.305Y-82.84
X157.305Y-85.38
X157.305Y-87.92
X157.305Y-90.46
X159.725Y-98.59
X159.725Y-101.13
X159.845Y-84.11
X159.845Y-86.65
X159.845Y-89.19
X159.845Y-91.73
T4
X166.355Y-103.295
X168.895Y-103.295
X171.435Y-103.295
T5
X128.4Y-68.97
X128.4Y-73.97
X136.6Y-68.97
X136.6Y-73.97
X161.3Y-69.0
X161.3Y-74.0
X169.5Y-69.0
X169.5Y-74.0
T6
X125.925Y-108.03
X129.425Y-108.03
X132.925Y-108.03
X136.425Y-108.03
X139.925Y-108.03
X143.425Y-108.03
T7
X128.755Y-79.23
X128.755Y-94.77
X161.25Y-110.65
X161.25Y-114.06
X169.245Y-79.515
X169.245Y-95.055
X171.15Y-110.65
X171.15Y-114.06
M30
