G04 #@! TF.GenerationSoftware,KiCad,Pcbnew,8.0.0*
G04 #@! TF.CreationDate,2024-11-14T09:55:02-06:00*
G04 #@! TF.ProjectId,RainSegmentDriver,5261696e-5365-4676-9d65-6e7444726976,rev?*
G04 #@! TF.SameCoordinates,Original*
G04 #@! TF.FileFunction,Legend,Top*
G04 #@! TF.FilePolarity,Positive*
%FSLAX46Y46*%
G04 Gerber Fmt 4.6, Leading zero omitted, Abs format (unit mm)*
G04 Created by KiCad (PCBNEW 8.0.0) date 2024-11-14 09:55:02*
%MOMM*%
%LPD*%
G01*
G04 APERTURE LIST*
G04 Aperture macros list*
%AMRoundRect*
0 Rectangle with rounded corners*
0 $1 Rounding radius*
0 $2 $3 $4 $5 $6 $7 $8 $9 X,Y pos of 4 corners*
0 Add a 4 corners polygon primitive as box body*
4,1,4,$2,$3,$4,$5,$6,$7,$8,$9,$2,$3,0*
0 Add four circle primitives for the rounded corners*
1,1,$1+$1,$2,$3*
1,1,$1+$1,$4,$5*
1,1,$1+$1,$6,$7*
1,1,$1+$1,$8,$9*
0 Add four rect primitives between the rounded corners*
20,1,$1+$1,$2,$3,$4,$5,0*
20,1,$1+$1,$4,$5,$6,$7,0*
20,1,$1+$1,$6,$7,$8,$9,0*
20,1,$1+$1,$8,$9,$2,$3,0*%
G04 Aperture macros list end*
%ADD10C,0.100000*%
%ADD11C,0.300000*%
%ADD12C,0.150000*%
%ADD13C,0.120000*%
%ADD14R,1.800000X1.800000*%
%ADD15C,1.800000*%
%ADD16C,2.362000*%
%ADD17C,3.200000*%
%ADD18R,0.508000X1.104900*%
%ADD19RoundRect,0.250000X-0.650000X-1.550000X0.650000X-1.550000X0.650000X1.550000X-0.650000X1.550000X0*%
%ADD20O,1.800000X3.600000*%
%ADD21C,3.250000*%
%ADD22R,1.500000X1.500000*%
%ADD23C,1.500000*%
%ADD24C,3.000000*%
%ADD25R,3.000000X1.500000*%
%ADD26O,3.000000X1.500000*%
%ADD27C,1.600000*%
%ADD28RoundRect,0.250000X0.312500X0.625000X-0.312500X0.625000X-0.312500X-0.625000X0.312500X-0.625000X0*%
G04 APERTURE END LIST*
D10*
X123275000Y-98705000D02*
X124375000Y-98705000D01*
X124775000Y-98705000D02*
X124775000Y-98705000D01*
X125175000Y-98705000D02*
X126275000Y-98705000D01*
X126675000Y-98705000D02*
X126675000Y-98705000D01*
X127075000Y-98705000D02*
X128175000Y-98705000D01*
X128575000Y-98705000D02*
X128575000Y-98705000D01*
X128975000Y-98705000D02*
X130075000Y-98705000D01*
X130475000Y-98705000D02*
X130475000Y-98705000D01*
X130875000Y-98705000D02*
X131975000Y-98705000D01*
X132375000Y-98705000D02*
X132375000Y-98705000D01*
X132775000Y-98705000D02*
X133875000Y-98705000D01*
X134275000Y-98705000D02*
X134275000Y-98705000D01*
X134675000Y-98705000D02*
X135775000Y-98705000D01*
X136175000Y-98705000D02*
X136175000Y-98705000D01*
X136575000Y-98705000D02*
X137675000Y-98705000D01*
X138075000Y-98705000D02*
X138075000Y-98705000D01*
X138475000Y-98705000D02*
X139575000Y-98705000D01*
X139975000Y-98705000D02*
X139975000Y-98705000D01*
X140375000Y-98705000D02*
X141475000Y-98705000D01*
X141875000Y-98705000D02*
X141875000Y-98705000D01*
X142275000Y-98705000D02*
X143375000Y-98705000D01*
X143775000Y-98705000D02*
X143775000Y-98705000D01*
X144175000Y-98705000D02*
X145275000Y-98705000D01*
X145675000Y-98705000D02*
X145675000Y-98705000D01*
X145985000Y-98705000D02*
X145985000Y-99805000D01*
X145985000Y-100205000D02*
X145985000Y-100205000D01*
X145985000Y-100605000D02*
X145985000Y-101705000D01*
X145985000Y-102105000D02*
X145985000Y-102105000D01*
X145985000Y-102505000D02*
X145985000Y-103605000D01*
X145985000Y-104005000D02*
X145985000Y-104005000D01*
X145985000Y-104405000D02*
X145985000Y-105505000D01*
X145985000Y-105905000D02*
X145985000Y-105905000D01*
X145985000Y-106305000D02*
X145985000Y-107405000D01*
X145985000Y-107805000D02*
X145985000Y-107805000D01*
X145985000Y-108205000D02*
X145985000Y-109305000D01*
X145985000Y-109705000D02*
X145985000Y-109705000D01*
X145985000Y-110105000D02*
X145985000Y-111205000D01*
X145985000Y-111605000D02*
X145985000Y-111605000D01*
X145985000Y-112005000D02*
X145985000Y-113105000D01*
X145985000Y-113505000D02*
X145985000Y-113505000D01*
X145985000Y-113905000D02*
X145985000Y-115005000D01*
X145985000Y-115405000D02*
X145985000Y-115405000D01*
X145985000Y-115805000D02*
X145985000Y-116140000D01*
X145985000Y-116140000D02*
X144885000Y-116140000D01*
X144485000Y-116140000D02*
X144485000Y-116140000D01*
X144085000Y-116140000D02*
X142985000Y-116140000D01*
X142585000Y-116140000D02*
X142585000Y-116140000D01*
X142185000Y-116140000D02*
X141085000Y-116140000D01*
X140685000Y-116140000D02*
X140685000Y-116140000D01*
X140285000Y-116140000D02*
X139185000Y-116140000D01*
X138785000Y-116140000D02*
X138785000Y-116140000D01*
X138385000Y-116140000D02*
X137285000Y-116140000D01*
X136885000Y-116140000D02*
X136885000Y-116140000D01*
X136485000Y-116140000D02*
X135385000Y-116140000D01*
X134985000Y-116140000D02*
X134985000Y-116140000D01*
X134585000Y-116140000D02*
X133485000Y-116140000D01*
X133085000Y-116140000D02*
X133085000Y-116140000D01*
X132685000Y-116140000D02*
X131585000Y-116140000D01*
X131185000Y-116140000D02*
X131185000Y-116140000D01*
X130785000Y-116140000D02*
X129685000Y-116140000D01*
X129285000Y-116140000D02*
X129285000Y-116140000D01*
X128885000Y-116140000D02*
X127785000Y-116140000D01*
X127385000Y-116140000D02*
X127385000Y-116140000D01*
X126985000Y-116140000D02*
X125885000Y-116140000D01*
X125485000Y-116140000D02*
X125485000Y-116140000D01*
X125085000Y-116140000D02*
X123985000Y-116140000D01*
X123585000Y-116140000D02*
X123585000Y-116140000D01*
X123275000Y-116140000D02*
X123275000Y-115040000D01*
X123275000Y-114640000D02*
X123275000Y-114640000D01*
X123275000Y-114240000D02*
X123275000Y-113140000D01*
X123275000Y-112740000D02*
X123275000Y-112740000D01*
X123275000Y-112340000D02*
X123275000Y-111240000D01*
X123275000Y-110840000D02*
X123275000Y-110840000D01*
X123275000Y-110440000D02*
X123275000Y-109340000D01*
X123275000Y-108940000D02*
X123275000Y-108940000D01*
X123275000Y-108540000D02*
X123275000Y-107440000D01*
X123275000Y-107040000D02*
X123275000Y-107040000D01*
X123275000Y-106640000D02*
X123275000Y-105540000D01*
X123275000Y-105140000D02*
X123275000Y-105140000D01*
X123275000Y-104740000D02*
X123275000Y-103640000D01*
X123275000Y-103240000D02*
X123275000Y-103240000D01*
X123275000Y-102840000D02*
X123275000Y-101740000D01*
X123275000Y-101340000D02*
X123275000Y-101340000D01*
X123275000Y-100940000D02*
X123275000Y-99840000D01*
X123275000Y-99440000D02*
X123275000Y-99440000D01*
X123275000Y-99040000D02*
X123275000Y-98705000D01*
D11*
X156379510Y-110187971D02*
X156450939Y-110259400D01*
X156450939Y-110259400D02*
X156379510Y-110330828D01*
X156379510Y-110330828D02*
X156308082Y-110259400D01*
X156308082Y-110259400D02*
X156379510Y-110187971D01*
X156379510Y-110187971D02*
X156379510Y-110330828D01*
D10*
X133133800Y-105011830D02*
X133171895Y-104897544D01*
X133171895Y-104897544D02*
X133171895Y-104707068D01*
X133171895Y-104707068D02*
X133133800Y-104630877D01*
X133133800Y-104630877D02*
X133095704Y-104592782D01*
X133095704Y-104592782D02*
X133019514Y-104554687D01*
X133019514Y-104554687D02*
X132943323Y-104554687D01*
X132943323Y-104554687D02*
X132867133Y-104592782D01*
X132867133Y-104592782D02*
X132829038Y-104630877D01*
X132829038Y-104630877D02*
X132790942Y-104707068D01*
X132790942Y-104707068D02*
X132752847Y-104859449D01*
X132752847Y-104859449D02*
X132714752Y-104935639D01*
X132714752Y-104935639D02*
X132676657Y-104973734D01*
X132676657Y-104973734D02*
X132600466Y-105011830D01*
X132600466Y-105011830D02*
X132524276Y-105011830D01*
X132524276Y-105011830D02*
X132448085Y-104973734D01*
X132448085Y-104973734D02*
X132409990Y-104935639D01*
X132409990Y-104935639D02*
X132371895Y-104859449D01*
X132371895Y-104859449D02*
X132371895Y-104668972D01*
X132371895Y-104668972D02*
X132409990Y-104554687D01*
X133171895Y-104211829D02*
X132638561Y-104211829D01*
X132371895Y-104211829D02*
X132409990Y-104249925D01*
X132409990Y-104249925D02*
X132448085Y-104211829D01*
X132448085Y-104211829D02*
X132409990Y-104173734D01*
X132409990Y-104173734D02*
X132371895Y-104211829D01*
X132371895Y-104211829D02*
X132448085Y-104211829D01*
X132638561Y-103488020D02*
X133286180Y-103488020D01*
X133286180Y-103488020D02*
X133362371Y-103526115D01*
X133362371Y-103526115D02*
X133400466Y-103564211D01*
X133400466Y-103564211D02*
X133438561Y-103640401D01*
X133438561Y-103640401D02*
X133438561Y-103754687D01*
X133438561Y-103754687D02*
X133400466Y-103830877D01*
X133133800Y-103488020D02*
X133171895Y-103564211D01*
X133171895Y-103564211D02*
X133171895Y-103716592D01*
X133171895Y-103716592D02*
X133133800Y-103792782D01*
X133133800Y-103792782D02*
X133095704Y-103830877D01*
X133095704Y-103830877D02*
X133019514Y-103868973D01*
X133019514Y-103868973D02*
X132790942Y-103868973D01*
X132790942Y-103868973D02*
X132714752Y-103830877D01*
X132714752Y-103830877D02*
X132676657Y-103792782D01*
X132676657Y-103792782D02*
X132638561Y-103716592D01*
X132638561Y-103716592D02*
X132638561Y-103564211D01*
X132638561Y-103564211D02*
X132676657Y-103488020D01*
X133095704Y-103107067D02*
X133133800Y-103068972D01*
X133133800Y-103068972D02*
X133171895Y-103107067D01*
X133171895Y-103107067D02*
X133133800Y-103145163D01*
X133133800Y-103145163D02*
X133095704Y-103107067D01*
X133095704Y-103107067D02*
X133171895Y-103107067D01*
X132371895Y-102192782D02*
X132371895Y-101697544D01*
X132371895Y-101697544D02*
X132676657Y-101964210D01*
X132676657Y-101964210D02*
X132676657Y-101849925D01*
X132676657Y-101849925D02*
X132714752Y-101773734D01*
X132714752Y-101773734D02*
X132752847Y-101735639D01*
X132752847Y-101735639D02*
X132829038Y-101697544D01*
X132829038Y-101697544D02*
X133019514Y-101697544D01*
X133019514Y-101697544D02*
X133095704Y-101735639D01*
X133095704Y-101735639D02*
X133133800Y-101773734D01*
X133133800Y-101773734D02*
X133171895Y-101849925D01*
X133171895Y-101849925D02*
X133171895Y-102078496D01*
X133171895Y-102078496D02*
X133133800Y-102154687D01*
X133133800Y-102154687D02*
X133095704Y-102192782D01*
X141225312Y-73859990D02*
X141149122Y-73821895D01*
X141149122Y-73821895D02*
X141034836Y-73821895D01*
X141034836Y-73821895D02*
X140920550Y-73859990D01*
X140920550Y-73859990D02*
X140844360Y-73936180D01*
X140844360Y-73936180D02*
X140806265Y-74012371D01*
X140806265Y-74012371D02*
X140768169Y-74164752D01*
X140768169Y-74164752D02*
X140768169Y-74279038D01*
X140768169Y-74279038D02*
X140806265Y-74431419D01*
X140806265Y-74431419D02*
X140844360Y-74507609D01*
X140844360Y-74507609D02*
X140920550Y-74583800D01*
X140920550Y-74583800D02*
X141034836Y-74621895D01*
X141034836Y-74621895D02*
X141111027Y-74621895D01*
X141111027Y-74621895D02*
X141225312Y-74583800D01*
X141225312Y-74583800D02*
X141263408Y-74545704D01*
X141263408Y-74545704D02*
X141263408Y-74279038D01*
X141263408Y-74279038D02*
X141111027Y-74279038D01*
X141606265Y-74621895D02*
X141606265Y-73821895D01*
X141606265Y-73821895D02*
X142063408Y-74621895D01*
X142063408Y-74621895D02*
X142063408Y-73821895D01*
X142444360Y-74621895D02*
X142444360Y-73821895D01*
X142444360Y-73821895D02*
X142634836Y-73821895D01*
X142634836Y-73821895D02*
X142749122Y-73859990D01*
X142749122Y-73859990D02*
X142825312Y-73936180D01*
X142825312Y-73936180D02*
X142863407Y-74012371D01*
X142863407Y-74012371D02*
X142901503Y-74164752D01*
X142901503Y-74164752D02*
X142901503Y-74279038D01*
X142901503Y-74279038D02*
X142863407Y-74431419D01*
X142863407Y-74431419D02*
X142825312Y-74507609D01*
X142825312Y-74507609D02*
X142749122Y-74583800D01*
X142749122Y-74583800D02*
X142634836Y-74621895D01*
X142634836Y-74621895D02*
X142444360Y-74621895D01*
X136733800Y-105011830D02*
X136771895Y-104897544D01*
X136771895Y-104897544D02*
X136771895Y-104707068D01*
X136771895Y-104707068D02*
X136733800Y-104630877D01*
X136733800Y-104630877D02*
X136695704Y-104592782D01*
X136695704Y-104592782D02*
X136619514Y-104554687D01*
X136619514Y-104554687D02*
X136543323Y-104554687D01*
X136543323Y-104554687D02*
X136467133Y-104592782D01*
X136467133Y-104592782D02*
X136429038Y-104630877D01*
X136429038Y-104630877D02*
X136390942Y-104707068D01*
X136390942Y-104707068D02*
X136352847Y-104859449D01*
X136352847Y-104859449D02*
X136314752Y-104935639D01*
X136314752Y-104935639D02*
X136276657Y-104973734D01*
X136276657Y-104973734D02*
X136200466Y-105011830D01*
X136200466Y-105011830D02*
X136124276Y-105011830D01*
X136124276Y-105011830D02*
X136048085Y-104973734D01*
X136048085Y-104973734D02*
X136009990Y-104935639D01*
X136009990Y-104935639D02*
X135971895Y-104859449D01*
X135971895Y-104859449D02*
X135971895Y-104668972D01*
X135971895Y-104668972D02*
X136009990Y-104554687D01*
X136771895Y-104211829D02*
X136238561Y-104211829D01*
X135971895Y-104211829D02*
X136009990Y-104249925D01*
X136009990Y-104249925D02*
X136048085Y-104211829D01*
X136048085Y-104211829D02*
X136009990Y-104173734D01*
X136009990Y-104173734D02*
X135971895Y-104211829D01*
X135971895Y-104211829D02*
X136048085Y-104211829D01*
X136238561Y-103488020D02*
X136886180Y-103488020D01*
X136886180Y-103488020D02*
X136962371Y-103526115D01*
X136962371Y-103526115D02*
X137000466Y-103564211D01*
X137000466Y-103564211D02*
X137038561Y-103640401D01*
X137038561Y-103640401D02*
X137038561Y-103754687D01*
X137038561Y-103754687D02*
X137000466Y-103830877D01*
X136733800Y-103488020D02*
X136771895Y-103564211D01*
X136771895Y-103564211D02*
X136771895Y-103716592D01*
X136771895Y-103716592D02*
X136733800Y-103792782D01*
X136733800Y-103792782D02*
X136695704Y-103830877D01*
X136695704Y-103830877D02*
X136619514Y-103868973D01*
X136619514Y-103868973D02*
X136390942Y-103868973D01*
X136390942Y-103868973D02*
X136314752Y-103830877D01*
X136314752Y-103830877D02*
X136276657Y-103792782D01*
X136276657Y-103792782D02*
X136238561Y-103716592D01*
X136238561Y-103716592D02*
X136238561Y-103564211D01*
X136238561Y-103564211D02*
X136276657Y-103488020D01*
X136695704Y-103107067D02*
X136733800Y-103068972D01*
X136733800Y-103068972D02*
X136771895Y-103107067D01*
X136771895Y-103107067D02*
X136733800Y-103145163D01*
X136733800Y-103145163D02*
X136695704Y-103107067D01*
X136695704Y-103107067D02*
X136771895Y-103107067D01*
X136048085Y-102154687D02*
X136009990Y-102116591D01*
X136009990Y-102116591D02*
X135971895Y-102040401D01*
X135971895Y-102040401D02*
X135971895Y-101849925D01*
X135971895Y-101849925D02*
X136009990Y-101773734D01*
X136009990Y-101773734D02*
X136048085Y-101735639D01*
X136048085Y-101735639D02*
X136124276Y-101697544D01*
X136124276Y-101697544D02*
X136200466Y-101697544D01*
X136200466Y-101697544D02*
X136314752Y-101735639D01*
X136314752Y-101735639D02*
X136771895Y-102192782D01*
X136771895Y-102192782D02*
X136771895Y-101697544D01*
X157197419Y-100726115D02*
X156197419Y-100726115D01*
X156197419Y-100726115D02*
X156197419Y-100345163D01*
X156197419Y-100345163D02*
X156245038Y-100249925D01*
X156245038Y-100249925D02*
X156292657Y-100202306D01*
X156292657Y-100202306D02*
X156387895Y-100154687D01*
X156387895Y-100154687D02*
X156530752Y-100154687D01*
X156530752Y-100154687D02*
X156625990Y-100202306D01*
X156625990Y-100202306D02*
X156673609Y-100249925D01*
X156673609Y-100249925D02*
X156721228Y-100345163D01*
X156721228Y-100345163D02*
X156721228Y-100726115D01*
X156197419Y-99821353D02*
X157197419Y-99583258D01*
X157197419Y-99583258D02*
X156483133Y-99392782D01*
X156483133Y-99392782D02*
X157197419Y-99202306D01*
X157197419Y-99202306D02*
X156197419Y-98964211D01*
X157197419Y-98011830D02*
X156721228Y-98345163D01*
X157197419Y-98583258D02*
X156197419Y-98583258D01*
X156197419Y-98583258D02*
X156197419Y-98202306D01*
X156197419Y-98202306D02*
X156245038Y-98107068D01*
X156245038Y-98107068D02*
X156292657Y-98059449D01*
X156292657Y-98059449D02*
X156387895Y-98011830D01*
X156387895Y-98011830D02*
X156530752Y-98011830D01*
X156530752Y-98011830D02*
X156625990Y-98059449D01*
X156625990Y-98059449D02*
X156673609Y-98107068D01*
X156673609Y-98107068D02*
X156721228Y-98202306D01*
X156721228Y-98202306D02*
X156721228Y-98583258D01*
X154750312Y-69596895D02*
X154293169Y-69596895D01*
X154521741Y-69596895D02*
X154521741Y-68796895D01*
X154521741Y-68796895D02*
X154445550Y-68911180D01*
X154445550Y-68911180D02*
X154369360Y-68987371D01*
X154369360Y-68987371D02*
X154293169Y-69025466D01*
X155055074Y-68873085D02*
X155093170Y-68834990D01*
X155093170Y-68834990D02*
X155169360Y-68796895D01*
X155169360Y-68796895D02*
X155359836Y-68796895D01*
X155359836Y-68796895D02*
X155436027Y-68834990D01*
X155436027Y-68834990D02*
X155474122Y-68873085D01*
X155474122Y-68873085D02*
X155512217Y-68949276D01*
X155512217Y-68949276D02*
X155512217Y-69025466D01*
X155512217Y-69025466D02*
X155474122Y-69139752D01*
X155474122Y-69139752D02*
X155016979Y-69596895D01*
X155016979Y-69596895D02*
X155512217Y-69596895D01*
X155740789Y-68796895D02*
X156007456Y-69596895D01*
X156007456Y-69596895D02*
X156274122Y-68796895D01*
X156540789Y-69292133D02*
X157150313Y-69292133D01*
X156845551Y-69596895D02*
X156845551Y-68987371D01*
X125609990Y-103954687D02*
X125571895Y-104030877D01*
X125571895Y-104030877D02*
X125571895Y-104145163D01*
X125571895Y-104145163D02*
X125609990Y-104259449D01*
X125609990Y-104259449D02*
X125686180Y-104335639D01*
X125686180Y-104335639D02*
X125762371Y-104373734D01*
X125762371Y-104373734D02*
X125914752Y-104411830D01*
X125914752Y-104411830D02*
X126029038Y-104411830D01*
X126029038Y-104411830D02*
X126181419Y-104373734D01*
X126181419Y-104373734D02*
X126257609Y-104335639D01*
X126257609Y-104335639D02*
X126333800Y-104259449D01*
X126333800Y-104259449D02*
X126371895Y-104145163D01*
X126371895Y-104145163D02*
X126371895Y-104068972D01*
X126371895Y-104068972D02*
X126333800Y-103954687D01*
X126333800Y-103954687D02*
X126295704Y-103916591D01*
X126295704Y-103916591D02*
X126029038Y-103916591D01*
X126029038Y-103916591D02*
X126029038Y-104068972D01*
X126371895Y-103573734D02*
X125571895Y-103573734D01*
X125571895Y-103573734D02*
X126371895Y-103116591D01*
X126371895Y-103116591D02*
X125571895Y-103116591D01*
X126371895Y-102735639D02*
X125571895Y-102735639D01*
X125571895Y-102735639D02*
X125571895Y-102545163D01*
X125571895Y-102545163D02*
X125609990Y-102430877D01*
X125609990Y-102430877D02*
X125686180Y-102354687D01*
X125686180Y-102354687D02*
X125762371Y-102316592D01*
X125762371Y-102316592D02*
X125914752Y-102278496D01*
X125914752Y-102278496D02*
X126029038Y-102278496D01*
X126029038Y-102278496D02*
X126181419Y-102316592D01*
X126181419Y-102316592D02*
X126257609Y-102354687D01*
X126257609Y-102354687D02*
X126333800Y-102430877D01*
X126333800Y-102430877D02*
X126371895Y-102545163D01*
X126371895Y-102545163D02*
X126371895Y-102735639D01*
X141075312Y-69471895D02*
X140618169Y-69471895D01*
X140846741Y-69471895D02*
X140846741Y-68671895D01*
X140846741Y-68671895D02*
X140770550Y-68786180D01*
X140770550Y-68786180D02*
X140694360Y-68862371D01*
X140694360Y-68862371D02*
X140618169Y-68900466D01*
X141380074Y-68748085D02*
X141418170Y-68709990D01*
X141418170Y-68709990D02*
X141494360Y-68671895D01*
X141494360Y-68671895D02*
X141684836Y-68671895D01*
X141684836Y-68671895D02*
X141761027Y-68709990D01*
X141761027Y-68709990D02*
X141799122Y-68748085D01*
X141799122Y-68748085D02*
X141837217Y-68824276D01*
X141837217Y-68824276D02*
X141837217Y-68900466D01*
X141837217Y-68900466D02*
X141799122Y-69014752D01*
X141799122Y-69014752D02*
X141341979Y-69471895D01*
X141341979Y-69471895D02*
X141837217Y-69471895D01*
X142065789Y-68671895D02*
X142332456Y-69471895D01*
X142332456Y-69471895D02*
X142599122Y-68671895D01*
X142865789Y-69167133D02*
X143475313Y-69167133D01*
X143170551Y-69471895D02*
X143170551Y-68862371D01*
X140133800Y-105011830D02*
X140171895Y-104897544D01*
X140171895Y-104897544D02*
X140171895Y-104707068D01*
X140171895Y-104707068D02*
X140133800Y-104630877D01*
X140133800Y-104630877D02*
X140095704Y-104592782D01*
X140095704Y-104592782D02*
X140019514Y-104554687D01*
X140019514Y-104554687D02*
X139943323Y-104554687D01*
X139943323Y-104554687D02*
X139867133Y-104592782D01*
X139867133Y-104592782D02*
X139829038Y-104630877D01*
X139829038Y-104630877D02*
X139790942Y-104707068D01*
X139790942Y-104707068D02*
X139752847Y-104859449D01*
X139752847Y-104859449D02*
X139714752Y-104935639D01*
X139714752Y-104935639D02*
X139676657Y-104973734D01*
X139676657Y-104973734D02*
X139600466Y-105011830D01*
X139600466Y-105011830D02*
X139524276Y-105011830D01*
X139524276Y-105011830D02*
X139448085Y-104973734D01*
X139448085Y-104973734D02*
X139409990Y-104935639D01*
X139409990Y-104935639D02*
X139371895Y-104859449D01*
X139371895Y-104859449D02*
X139371895Y-104668972D01*
X139371895Y-104668972D02*
X139409990Y-104554687D01*
X140171895Y-104211829D02*
X139638561Y-104211829D01*
X139371895Y-104211829D02*
X139409990Y-104249925D01*
X139409990Y-104249925D02*
X139448085Y-104211829D01*
X139448085Y-104211829D02*
X139409990Y-104173734D01*
X139409990Y-104173734D02*
X139371895Y-104211829D01*
X139371895Y-104211829D02*
X139448085Y-104211829D01*
X139638561Y-103488020D02*
X140286180Y-103488020D01*
X140286180Y-103488020D02*
X140362371Y-103526115D01*
X140362371Y-103526115D02*
X140400466Y-103564211D01*
X140400466Y-103564211D02*
X140438561Y-103640401D01*
X140438561Y-103640401D02*
X140438561Y-103754687D01*
X140438561Y-103754687D02*
X140400466Y-103830877D01*
X140133800Y-103488020D02*
X140171895Y-103564211D01*
X140171895Y-103564211D02*
X140171895Y-103716592D01*
X140171895Y-103716592D02*
X140133800Y-103792782D01*
X140133800Y-103792782D02*
X140095704Y-103830877D01*
X140095704Y-103830877D02*
X140019514Y-103868973D01*
X140019514Y-103868973D02*
X139790942Y-103868973D01*
X139790942Y-103868973D02*
X139714752Y-103830877D01*
X139714752Y-103830877D02*
X139676657Y-103792782D01*
X139676657Y-103792782D02*
X139638561Y-103716592D01*
X139638561Y-103716592D02*
X139638561Y-103564211D01*
X139638561Y-103564211D02*
X139676657Y-103488020D01*
X140095704Y-103107067D02*
X140133800Y-103068972D01*
X140133800Y-103068972D02*
X140171895Y-103107067D01*
X140171895Y-103107067D02*
X140133800Y-103145163D01*
X140133800Y-103145163D02*
X140095704Y-103107067D01*
X140095704Y-103107067D02*
X140171895Y-103107067D01*
X140171895Y-101697544D02*
X140171895Y-102154687D01*
X140171895Y-101926115D02*
X139371895Y-101926115D01*
X139371895Y-101926115D02*
X139486180Y-102002306D01*
X139486180Y-102002306D02*
X139562371Y-102078496D01*
X139562371Y-102078496D02*
X139600466Y-102154687D01*
X129733800Y-105011830D02*
X129771895Y-104897544D01*
X129771895Y-104897544D02*
X129771895Y-104707068D01*
X129771895Y-104707068D02*
X129733800Y-104630877D01*
X129733800Y-104630877D02*
X129695704Y-104592782D01*
X129695704Y-104592782D02*
X129619514Y-104554687D01*
X129619514Y-104554687D02*
X129543323Y-104554687D01*
X129543323Y-104554687D02*
X129467133Y-104592782D01*
X129467133Y-104592782D02*
X129429038Y-104630877D01*
X129429038Y-104630877D02*
X129390942Y-104707068D01*
X129390942Y-104707068D02*
X129352847Y-104859449D01*
X129352847Y-104859449D02*
X129314752Y-104935639D01*
X129314752Y-104935639D02*
X129276657Y-104973734D01*
X129276657Y-104973734D02*
X129200466Y-105011830D01*
X129200466Y-105011830D02*
X129124276Y-105011830D01*
X129124276Y-105011830D02*
X129048085Y-104973734D01*
X129048085Y-104973734D02*
X129009990Y-104935639D01*
X129009990Y-104935639D02*
X128971895Y-104859449D01*
X128971895Y-104859449D02*
X128971895Y-104668972D01*
X128971895Y-104668972D02*
X129009990Y-104554687D01*
X129771895Y-104211829D02*
X129238561Y-104211829D01*
X128971895Y-104211829D02*
X129009990Y-104249925D01*
X129009990Y-104249925D02*
X129048085Y-104211829D01*
X129048085Y-104211829D02*
X129009990Y-104173734D01*
X129009990Y-104173734D02*
X128971895Y-104211829D01*
X128971895Y-104211829D02*
X129048085Y-104211829D01*
X129238561Y-103488020D02*
X129886180Y-103488020D01*
X129886180Y-103488020D02*
X129962371Y-103526115D01*
X129962371Y-103526115D02*
X130000466Y-103564211D01*
X130000466Y-103564211D02*
X130038561Y-103640401D01*
X130038561Y-103640401D02*
X130038561Y-103754687D01*
X130038561Y-103754687D02*
X130000466Y-103830877D01*
X129733800Y-103488020D02*
X129771895Y-103564211D01*
X129771895Y-103564211D02*
X129771895Y-103716592D01*
X129771895Y-103716592D02*
X129733800Y-103792782D01*
X129733800Y-103792782D02*
X129695704Y-103830877D01*
X129695704Y-103830877D02*
X129619514Y-103868973D01*
X129619514Y-103868973D02*
X129390942Y-103868973D01*
X129390942Y-103868973D02*
X129314752Y-103830877D01*
X129314752Y-103830877D02*
X129276657Y-103792782D01*
X129276657Y-103792782D02*
X129238561Y-103716592D01*
X129238561Y-103716592D02*
X129238561Y-103564211D01*
X129238561Y-103564211D02*
X129276657Y-103488020D01*
X129695704Y-103107067D02*
X129733800Y-103068972D01*
X129733800Y-103068972D02*
X129771895Y-103107067D01*
X129771895Y-103107067D02*
X129733800Y-103145163D01*
X129733800Y-103145163D02*
X129695704Y-103107067D01*
X129695704Y-103107067D02*
X129771895Y-103107067D01*
X129238561Y-101773734D02*
X129771895Y-101773734D01*
X128933800Y-101964210D02*
X129505228Y-102154687D01*
X129505228Y-102154687D02*
X129505228Y-101659448D01*
X144146895Y-90612782D02*
X144146895Y-90993734D01*
X144146895Y-90993734D02*
X143346895Y-90993734D01*
X143727847Y-90346115D02*
X143727847Y-90079449D01*
X144146895Y-89965163D02*
X144146895Y-90346115D01*
X144146895Y-90346115D02*
X143346895Y-90346115D01*
X143346895Y-90346115D02*
X143346895Y-89965163D01*
X144146895Y-89622305D02*
X143346895Y-89622305D01*
X143346895Y-89622305D02*
X143346895Y-89431829D01*
X143346895Y-89431829D02*
X143384990Y-89317543D01*
X143384990Y-89317543D02*
X143461180Y-89241353D01*
X143461180Y-89241353D02*
X143537371Y-89203258D01*
X143537371Y-89203258D02*
X143689752Y-89165162D01*
X143689752Y-89165162D02*
X143804038Y-89165162D01*
X143804038Y-89165162D02*
X143956419Y-89203258D01*
X143956419Y-89203258D02*
X144032609Y-89241353D01*
X144032609Y-89241353D02*
X144108800Y-89317543D01*
X144108800Y-89317543D02*
X144146895Y-89431829D01*
X144146895Y-89431829D02*
X144146895Y-89622305D01*
X144108800Y-88250877D02*
X144146895Y-88136591D01*
X144146895Y-88136591D02*
X144146895Y-87946115D01*
X144146895Y-87946115D02*
X144108800Y-87869924D01*
X144108800Y-87869924D02*
X144070704Y-87831829D01*
X144070704Y-87831829D02*
X143994514Y-87793734D01*
X143994514Y-87793734D02*
X143918323Y-87793734D01*
X143918323Y-87793734D02*
X143842133Y-87831829D01*
X143842133Y-87831829D02*
X143804038Y-87869924D01*
X143804038Y-87869924D02*
X143765942Y-87946115D01*
X143765942Y-87946115D02*
X143727847Y-88098496D01*
X143727847Y-88098496D02*
X143689752Y-88174686D01*
X143689752Y-88174686D02*
X143651657Y-88212781D01*
X143651657Y-88212781D02*
X143575466Y-88250877D01*
X143575466Y-88250877D02*
X143499276Y-88250877D01*
X143499276Y-88250877D02*
X143423085Y-88212781D01*
X143423085Y-88212781D02*
X143384990Y-88174686D01*
X143384990Y-88174686D02*
X143346895Y-88098496D01*
X143346895Y-88098496D02*
X143346895Y-87908019D01*
X143346895Y-87908019D02*
X143384990Y-87793734D01*
X144146895Y-87450876D02*
X143613561Y-87450876D01*
X143346895Y-87450876D02*
X143384990Y-87488972D01*
X143384990Y-87488972D02*
X143423085Y-87450876D01*
X143423085Y-87450876D02*
X143384990Y-87412781D01*
X143384990Y-87412781D02*
X143346895Y-87450876D01*
X143346895Y-87450876D02*
X143423085Y-87450876D01*
X143613561Y-86727067D02*
X144261180Y-86727067D01*
X144261180Y-86727067D02*
X144337371Y-86765162D01*
X144337371Y-86765162D02*
X144375466Y-86803258D01*
X144375466Y-86803258D02*
X144413561Y-86879448D01*
X144413561Y-86879448D02*
X144413561Y-86993734D01*
X144413561Y-86993734D02*
X144375466Y-87069924D01*
X144108800Y-86727067D02*
X144146895Y-86803258D01*
X144146895Y-86803258D02*
X144146895Y-86955639D01*
X144146895Y-86955639D02*
X144108800Y-87031829D01*
X144108800Y-87031829D02*
X144070704Y-87069924D01*
X144070704Y-87069924D02*
X143994514Y-87108020D01*
X143994514Y-87108020D02*
X143765942Y-87108020D01*
X143765942Y-87108020D02*
X143689752Y-87069924D01*
X143689752Y-87069924D02*
X143651657Y-87031829D01*
X143651657Y-87031829D02*
X143613561Y-86955639D01*
X143613561Y-86955639D02*
X143613561Y-86803258D01*
X143613561Y-86803258D02*
X143651657Y-86727067D01*
X144070704Y-86346114D02*
X144108800Y-86308019D01*
X144108800Y-86308019D02*
X144146895Y-86346114D01*
X144146895Y-86346114D02*
X144108800Y-86384210D01*
X144108800Y-86384210D02*
X144070704Y-86346114D01*
X144070704Y-86346114D02*
X144146895Y-86346114D01*
X144146895Y-85355638D02*
X143346895Y-85355638D01*
X143613561Y-84974686D02*
X144146895Y-84974686D01*
X143689752Y-84974686D02*
X143651657Y-84936591D01*
X143651657Y-84936591D02*
X143613561Y-84860401D01*
X143613561Y-84860401D02*
X143613561Y-84746115D01*
X143613561Y-84746115D02*
X143651657Y-84669924D01*
X143651657Y-84669924D02*
X143727847Y-84631829D01*
X143727847Y-84631829D02*
X144146895Y-84631829D01*
X155850312Y-73739990D02*
X155774122Y-73701895D01*
X155774122Y-73701895D02*
X155659836Y-73701895D01*
X155659836Y-73701895D02*
X155545550Y-73739990D01*
X155545550Y-73739990D02*
X155469360Y-73816180D01*
X155469360Y-73816180D02*
X155431265Y-73892371D01*
X155431265Y-73892371D02*
X155393169Y-74044752D01*
X155393169Y-74044752D02*
X155393169Y-74159038D01*
X155393169Y-74159038D02*
X155431265Y-74311419D01*
X155431265Y-74311419D02*
X155469360Y-74387609D01*
X155469360Y-74387609D02*
X155545550Y-74463800D01*
X155545550Y-74463800D02*
X155659836Y-74501895D01*
X155659836Y-74501895D02*
X155736027Y-74501895D01*
X155736027Y-74501895D02*
X155850312Y-74463800D01*
X155850312Y-74463800D02*
X155888408Y-74425704D01*
X155888408Y-74425704D02*
X155888408Y-74159038D01*
X155888408Y-74159038D02*
X155736027Y-74159038D01*
X156231265Y-74501895D02*
X156231265Y-73701895D01*
X156231265Y-73701895D02*
X156688408Y-74501895D01*
X156688408Y-74501895D02*
X156688408Y-73701895D01*
X157069360Y-74501895D02*
X157069360Y-73701895D01*
X157069360Y-73701895D02*
X157259836Y-73701895D01*
X157259836Y-73701895D02*
X157374122Y-73739990D01*
X157374122Y-73739990D02*
X157450312Y-73816180D01*
X157450312Y-73816180D02*
X157488407Y-73892371D01*
X157488407Y-73892371D02*
X157526503Y-74044752D01*
X157526503Y-74044752D02*
X157526503Y-74159038D01*
X157526503Y-74159038D02*
X157488407Y-74311419D01*
X157488407Y-74311419D02*
X157450312Y-74387609D01*
X157450312Y-74387609D02*
X157374122Y-74463800D01*
X157374122Y-74463800D02*
X157259836Y-74501895D01*
X157259836Y-74501895D02*
X157069360Y-74501895D01*
X154646895Y-90862782D02*
X154646895Y-91243734D01*
X154646895Y-91243734D02*
X153846895Y-91243734D01*
X154227847Y-90596115D02*
X154227847Y-90329449D01*
X154646895Y-90215163D02*
X154646895Y-90596115D01*
X154646895Y-90596115D02*
X153846895Y-90596115D01*
X153846895Y-90596115D02*
X153846895Y-90215163D01*
X154646895Y-89872305D02*
X153846895Y-89872305D01*
X153846895Y-89872305D02*
X153846895Y-89681829D01*
X153846895Y-89681829D02*
X153884990Y-89567543D01*
X153884990Y-89567543D02*
X153961180Y-89491353D01*
X153961180Y-89491353D02*
X154037371Y-89453258D01*
X154037371Y-89453258D02*
X154189752Y-89415162D01*
X154189752Y-89415162D02*
X154304038Y-89415162D01*
X154304038Y-89415162D02*
X154456419Y-89453258D01*
X154456419Y-89453258D02*
X154532609Y-89491353D01*
X154532609Y-89491353D02*
X154608800Y-89567543D01*
X154608800Y-89567543D02*
X154646895Y-89681829D01*
X154646895Y-89681829D02*
X154646895Y-89872305D01*
X154608800Y-88500877D02*
X154646895Y-88386591D01*
X154646895Y-88386591D02*
X154646895Y-88196115D01*
X154646895Y-88196115D02*
X154608800Y-88119924D01*
X154608800Y-88119924D02*
X154570704Y-88081829D01*
X154570704Y-88081829D02*
X154494514Y-88043734D01*
X154494514Y-88043734D02*
X154418323Y-88043734D01*
X154418323Y-88043734D02*
X154342133Y-88081829D01*
X154342133Y-88081829D02*
X154304038Y-88119924D01*
X154304038Y-88119924D02*
X154265942Y-88196115D01*
X154265942Y-88196115D02*
X154227847Y-88348496D01*
X154227847Y-88348496D02*
X154189752Y-88424686D01*
X154189752Y-88424686D02*
X154151657Y-88462781D01*
X154151657Y-88462781D02*
X154075466Y-88500877D01*
X154075466Y-88500877D02*
X153999276Y-88500877D01*
X153999276Y-88500877D02*
X153923085Y-88462781D01*
X153923085Y-88462781D02*
X153884990Y-88424686D01*
X153884990Y-88424686D02*
X153846895Y-88348496D01*
X153846895Y-88348496D02*
X153846895Y-88158019D01*
X153846895Y-88158019D02*
X153884990Y-88043734D01*
X154646895Y-87700876D02*
X154113561Y-87700876D01*
X153846895Y-87700876D02*
X153884990Y-87738972D01*
X153884990Y-87738972D02*
X153923085Y-87700876D01*
X153923085Y-87700876D02*
X153884990Y-87662781D01*
X153884990Y-87662781D02*
X153846895Y-87700876D01*
X153846895Y-87700876D02*
X153923085Y-87700876D01*
X154113561Y-86977067D02*
X154761180Y-86977067D01*
X154761180Y-86977067D02*
X154837371Y-87015162D01*
X154837371Y-87015162D02*
X154875466Y-87053258D01*
X154875466Y-87053258D02*
X154913561Y-87129448D01*
X154913561Y-87129448D02*
X154913561Y-87243734D01*
X154913561Y-87243734D02*
X154875466Y-87319924D01*
X154608800Y-86977067D02*
X154646895Y-87053258D01*
X154646895Y-87053258D02*
X154646895Y-87205639D01*
X154646895Y-87205639D02*
X154608800Y-87281829D01*
X154608800Y-87281829D02*
X154570704Y-87319924D01*
X154570704Y-87319924D02*
X154494514Y-87358020D01*
X154494514Y-87358020D02*
X154265942Y-87358020D01*
X154265942Y-87358020D02*
X154189752Y-87319924D01*
X154189752Y-87319924D02*
X154151657Y-87281829D01*
X154151657Y-87281829D02*
X154113561Y-87205639D01*
X154113561Y-87205639D02*
X154113561Y-87053258D01*
X154113561Y-87053258D02*
X154151657Y-86977067D01*
X154570704Y-86596114D02*
X154608800Y-86558019D01*
X154608800Y-86558019D02*
X154646895Y-86596114D01*
X154646895Y-86596114D02*
X154608800Y-86634210D01*
X154608800Y-86634210D02*
X154570704Y-86596114D01*
X154570704Y-86596114D02*
X154646895Y-86596114D01*
X153846895Y-85453257D02*
X153846895Y-85300876D01*
X153846895Y-85300876D02*
X153884990Y-85224686D01*
X153884990Y-85224686D02*
X153961180Y-85148495D01*
X153961180Y-85148495D02*
X154113561Y-85110400D01*
X154113561Y-85110400D02*
X154380228Y-85110400D01*
X154380228Y-85110400D02*
X154532609Y-85148495D01*
X154532609Y-85148495D02*
X154608800Y-85224686D01*
X154608800Y-85224686D02*
X154646895Y-85300876D01*
X154646895Y-85300876D02*
X154646895Y-85453257D01*
X154646895Y-85453257D02*
X154608800Y-85529448D01*
X154608800Y-85529448D02*
X154532609Y-85605638D01*
X154532609Y-85605638D02*
X154380228Y-85643734D01*
X154380228Y-85643734D02*
X154113561Y-85643734D01*
X154113561Y-85643734D02*
X153961180Y-85605638D01*
X153961180Y-85605638D02*
X153884990Y-85529448D01*
X153884990Y-85529448D02*
X153846895Y-85453257D01*
X154113561Y-84424686D02*
X154646895Y-84424686D01*
X154113561Y-84767543D02*
X154532609Y-84767543D01*
X154532609Y-84767543D02*
X154608800Y-84729448D01*
X154608800Y-84729448D02*
X154646895Y-84653258D01*
X154646895Y-84653258D02*
X154646895Y-84538972D01*
X154646895Y-84538972D02*
X154608800Y-84462781D01*
X154608800Y-84462781D02*
X154570704Y-84424686D01*
X154113561Y-84158019D02*
X154113561Y-83853257D01*
X153846895Y-84043733D02*
X154532609Y-84043733D01*
X154532609Y-84043733D02*
X154608800Y-84005638D01*
X154608800Y-84005638D02*
X154646895Y-83929448D01*
X154646895Y-83929448D02*
X154646895Y-83853257D01*
X130748261Y-99983395D02*
X130481594Y-99602442D01*
X130291118Y-99983395D02*
X130291118Y-99183395D01*
X130291118Y-99183395D02*
X130595880Y-99183395D01*
X130595880Y-99183395D02*
X130672070Y-99221490D01*
X130672070Y-99221490D02*
X130710165Y-99259585D01*
X130710165Y-99259585D02*
X130748261Y-99335776D01*
X130748261Y-99335776D02*
X130748261Y-99450061D01*
X130748261Y-99450061D02*
X130710165Y-99526252D01*
X130710165Y-99526252D02*
X130672070Y-99564347D01*
X130672070Y-99564347D02*
X130595880Y-99602442D01*
X130595880Y-99602442D02*
X130291118Y-99602442D01*
X131433975Y-99983395D02*
X131433975Y-99564347D01*
X131433975Y-99564347D02*
X131395880Y-99488157D01*
X131395880Y-99488157D02*
X131319689Y-99450061D01*
X131319689Y-99450061D02*
X131167308Y-99450061D01*
X131167308Y-99450061D02*
X131091118Y-99488157D01*
X131433975Y-99945300D02*
X131357784Y-99983395D01*
X131357784Y-99983395D02*
X131167308Y-99983395D01*
X131167308Y-99983395D02*
X131091118Y-99945300D01*
X131091118Y-99945300D02*
X131053022Y-99869109D01*
X131053022Y-99869109D02*
X131053022Y-99792919D01*
X131053022Y-99792919D02*
X131091118Y-99716728D01*
X131091118Y-99716728D02*
X131167308Y-99678633D01*
X131167308Y-99678633D02*
X131357784Y-99678633D01*
X131357784Y-99678633D02*
X131433975Y-99640538D01*
X131814928Y-99983395D02*
X131814928Y-99450061D01*
X131814928Y-99183395D02*
X131776832Y-99221490D01*
X131776832Y-99221490D02*
X131814928Y-99259585D01*
X131814928Y-99259585D02*
X131853023Y-99221490D01*
X131853023Y-99221490D02*
X131814928Y-99183395D01*
X131814928Y-99183395D02*
X131814928Y-99259585D01*
X132195880Y-99450061D02*
X132195880Y-99983395D01*
X132195880Y-99526252D02*
X132233975Y-99488157D01*
X132233975Y-99488157D02*
X132310165Y-99450061D01*
X132310165Y-99450061D02*
X132424451Y-99450061D01*
X132424451Y-99450061D02*
X132500642Y-99488157D01*
X132500642Y-99488157D02*
X132538737Y-99564347D01*
X132538737Y-99564347D02*
X132538737Y-99983395D01*
X133910166Y-99983395D02*
X133529214Y-99983395D01*
X133529214Y-99983395D02*
X133529214Y-99183395D01*
X134176833Y-99564347D02*
X134443499Y-99564347D01*
X134557785Y-99983395D02*
X134176833Y-99983395D01*
X134176833Y-99983395D02*
X134176833Y-99183395D01*
X134176833Y-99183395D02*
X134557785Y-99183395D01*
X134900643Y-99983395D02*
X134900643Y-99183395D01*
X134900643Y-99183395D02*
X135091119Y-99183395D01*
X135091119Y-99183395D02*
X135205405Y-99221490D01*
X135205405Y-99221490D02*
X135281595Y-99297680D01*
X135281595Y-99297680D02*
X135319690Y-99373871D01*
X135319690Y-99373871D02*
X135357786Y-99526252D01*
X135357786Y-99526252D02*
X135357786Y-99640538D01*
X135357786Y-99640538D02*
X135319690Y-99792919D01*
X135319690Y-99792919D02*
X135281595Y-99869109D01*
X135281595Y-99869109D02*
X135205405Y-99945300D01*
X135205405Y-99945300D02*
X135091119Y-99983395D01*
X135091119Y-99983395D02*
X134900643Y-99983395D01*
X135662547Y-99945300D02*
X135738738Y-99983395D01*
X135738738Y-99983395D02*
X135891119Y-99983395D01*
X135891119Y-99983395D02*
X135967309Y-99945300D01*
X135967309Y-99945300D02*
X136005405Y-99869109D01*
X136005405Y-99869109D02*
X136005405Y-99831014D01*
X136005405Y-99831014D02*
X135967309Y-99754823D01*
X135967309Y-99754823D02*
X135891119Y-99716728D01*
X135891119Y-99716728D02*
X135776833Y-99716728D01*
X135776833Y-99716728D02*
X135700643Y-99678633D01*
X135700643Y-99678633D02*
X135662547Y-99602442D01*
X135662547Y-99602442D02*
X135662547Y-99564347D01*
X135662547Y-99564347D02*
X135700643Y-99488157D01*
X135700643Y-99488157D02*
X135776833Y-99450061D01*
X135776833Y-99450061D02*
X135891119Y-99450061D01*
X135891119Y-99450061D02*
X135967309Y-99488157D01*
X137110167Y-99183395D02*
X137262548Y-99183395D01*
X137262548Y-99183395D02*
X137338738Y-99221490D01*
X137338738Y-99221490D02*
X137414929Y-99297680D01*
X137414929Y-99297680D02*
X137453024Y-99450061D01*
X137453024Y-99450061D02*
X137453024Y-99716728D01*
X137453024Y-99716728D02*
X137414929Y-99869109D01*
X137414929Y-99869109D02*
X137338738Y-99945300D01*
X137338738Y-99945300D02*
X137262548Y-99983395D01*
X137262548Y-99983395D02*
X137110167Y-99983395D01*
X137110167Y-99983395D02*
X137033976Y-99945300D01*
X137033976Y-99945300D02*
X136957786Y-99869109D01*
X136957786Y-99869109D02*
X136919690Y-99716728D01*
X136919690Y-99716728D02*
X136919690Y-99450061D01*
X136919690Y-99450061D02*
X136957786Y-99297680D01*
X136957786Y-99297680D02*
X137033976Y-99221490D01*
X137033976Y-99221490D02*
X137110167Y-99183395D01*
X138138738Y-99450061D02*
X138138738Y-99983395D01*
X137795881Y-99450061D02*
X137795881Y-99869109D01*
X137795881Y-99869109D02*
X137833976Y-99945300D01*
X137833976Y-99945300D02*
X137910166Y-99983395D01*
X137910166Y-99983395D02*
X138024452Y-99983395D01*
X138024452Y-99983395D02*
X138100643Y-99945300D01*
X138100643Y-99945300D02*
X138138738Y-99907204D01*
X138405405Y-99450061D02*
X138710167Y-99450061D01*
X138519691Y-99183395D02*
X138519691Y-99869109D01*
X138519691Y-99869109D02*
X138557786Y-99945300D01*
X138557786Y-99945300D02*
X138633976Y-99983395D01*
X138633976Y-99983395D02*
X138710167Y-99983395D01*
X143071895Y-104542782D02*
X143071895Y-104923734D01*
X143071895Y-104923734D02*
X143452847Y-104961830D01*
X143452847Y-104961830D02*
X143414752Y-104923734D01*
X143414752Y-104923734D02*
X143376657Y-104847544D01*
X143376657Y-104847544D02*
X143376657Y-104657068D01*
X143376657Y-104657068D02*
X143414752Y-104580877D01*
X143414752Y-104580877D02*
X143452847Y-104542782D01*
X143452847Y-104542782D02*
X143529038Y-104504687D01*
X143529038Y-104504687D02*
X143719514Y-104504687D01*
X143719514Y-104504687D02*
X143795704Y-104542782D01*
X143795704Y-104542782D02*
X143833800Y-104580877D01*
X143833800Y-104580877D02*
X143871895Y-104657068D01*
X143871895Y-104657068D02*
X143871895Y-104847544D01*
X143871895Y-104847544D02*
X143833800Y-104923734D01*
X143833800Y-104923734D02*
X143795704Y-104961830D01*
X143071895Y-104276115D02*
X143871895Y-104009448D01*
X143871895Y-104009448D02*
X143071895Y-103742782D01*
X143567133Y-103476115D02*
X143567133Y-102866592D01*
X143871895Y-103171353D02*
X143262371Y-103171353D01*
D12*
X168133095Y-105289819D02*
X168133095Y-106099342D01*
X168133095Y-106099342D02*
X168180714Y-106194580D01*
X168180714Y-106194580D02*
X168228333Y-106242200D01*
X168228333Y-106242200D02*
X168323571Y-106289819D01*
X168323571Y-106289819D02*
X168514047Y-106289819D01*
X168514047Y-106289819D02*
X168609285Y-106242200D01*
X168609285Y-106242200D02*
X168656904Y-106194580D01*
X168656904Y-106194580D02*
X168704523Y-106099342D01*
X168704523Y-106099342D02*
X168704523Y-105289819D01*
X169704523Y-106289819D02*
X169133095Y-106289819D01*
X169418809Y-106289819D02*
X169418809Y-105289819D01*
X169418809Y-105289819D02*
X169323571Y-105432676D01*
X169323571Y-105432676D02*
X169228333Y-105527914D01*
X169228333Y-105527914D02*
X169133095Y-105575533D01*
D10*
X158466666Y-107888609D02*
X158133333Y-107888609D01*
X158133333Y-108412419D02*
X158133333Y-107412419D01*
X158133333Y-107412419D02*
X158609523Y-107412419D01*
X159514285Y-108412419D02*
X158942857Y-108412419D01*
X159228571Y-108412419D02*
X159228571Y-107412419D01*
X159228571Y-107412419D02*
X159133333Y-107555276D01*
X159133333Y-107555276D02*
X159038095Y-107650514D01*
X159038095Y-107650514D02*
X158942857Y-107698133D01*
X155138095Y-107387419D02*
X155138095Y-108196942D01*
X155138095Y-108196942D02*
X155185714Y-108292180D01*
X155185714Y-108292180D02*
X155233333Y-108339800D01*
X155233333Y-108339800D02*
X155328571Y-108387419D01*
X155328571Y-108387419D02*
X155519047Y-108387419D01*
X155519047Y-108387419D02*
X155614285Y-108339800D01*
X155614285Y-108339800D02*
X155661904Y-108292180D01*
X155661904Y-108292180D02*
X155709523Y-108196942D01*
X155709523Y-108196942D02*
X155709523Y-107387419D01*
X156138095Y-107482657D02*
X156185714Y-107435038D01*
X156185714Y-107435038D02*
X156280952Y-107387419D01*
X156280952Y-107387419D02*
X156519047Y-107387419D01*
X156519047Y-107387419D02*
X156614285Y-107435038D01*
X156614285Y-107435038D02*
X156661904Y-107482657D01*
X156661904Y-107482657D02*
X156709523Y-107577895D01*
X156709523Y-107577895D02*
X156709523Y-107673133D01*
X156709523Y-107673133D02*
X156661904Y-107815990D01*
X156661904Y-107815990D02*
X156090476Y-108387419D01*
X156090476Y-108387419D02*
X156709523Y-108387419D01*
D12*
X147041666Y-105909819D02*
X147041666Y-106624104D01*
X147041666Y-106624104D02*
X146994047Y-106766961D01*
X146994047Y-106766961D02*
X146898809Y-106862200D01*
X146898809Y-106862200D02*
X146755952Y-106909819D01*
X146755952Y-106909819D02*
X146660714Y-106909819D01*
X147422619Y-105909819D02*
X148041666Y-105909819D01*
X148041666Y-105909819D02*
X147708333Y-106290771D01*
X147708333Y-106290771D02*
X147851190Y-106290771D01*
X147851190Y-106290771D02*
X147946428Y-106338390D01*
X147946428Y-106338390D02*
X147994047Y-106386009D01*
X147994047Y-106386009D02*
X148041666Y-106481247D01*
X148041666Y-106481247D02*
X148041666Y-106719342D01*
X148041666Y-106719342D02*
X147994047Y-106814580D01*
X147994047Y-106814580D02*
X147946428Y-106862200D01*
X147946428Y-106862200D02*
X147851190Y-106909819D01*
X147851190Y-106909819D02*
X147565476Y-106909819D01*
X147565476Y-106909819D02*
X147470238Y-106862200D01*
X147470238Y-106862200D02*
X147422619Y-106814580D01*
X154016666Y-77554819D02*
X154016666Y-78269104D01*
X154016666Y-78269104D02*
X153969047Y-78411961D01*
X153969047Y-78411961D02*
X153873809Y-78507200D01*
X153873809Y-78507200D02*
X153730952Y-78554819D01*
X153730952Y-78554819D02*
X153635714Y-78554819D01*
X154445238Y-77650057D02*
X154492857Y-77602438D01*
X154492857Y-77602438D02*
X154588095Y-77554819D01*
X154588095Y-77554819D02*
X154826190Y-77554819D01*
X154826190Y-77554819D02*
X154921428Y-77602438D01*
X154921428Y-77602438D02*
X154969047Y-77650057D01*
X154969047Y-77650057D02*
X155016666Y-77745295D01*
X155016666Y-77745295D02*
X155016666Y-77840533D01*
X155016666Y-77840533D02*
X154969047Y-77983390D01*
X154969047Y-77983390D02*
X154397619Y-78554819D01*
X154397619Y-78554819D02*
X155016666Y-78554819D01*
D10*
X156716666Y-75737419D02*
X156716666Y-76451704D01*
X156716666Y-76451704D02*
X156669047Y-76594561D01*
X156669047Y-76594561D02*
X156573809Y-76689800D01*
X156573809Y-76689800D02*
X156430952Y-76737419D01*
X156430952Y-76737419D02*
X156335714Y-76737419D01*
X157621428Y-76070752D02*
X157621428Y-76737419D01*
X157383333Y-75689800D02*
X157145238Y-76404085D01*
X157145238Y-76404085D02*
X157764285Y-76404085D01*
D12*
X152454819Y-78666666D02*
X151978628Y-78999999D01*
X152454819Y-79238094D02*
X151454819Y-79238094D01*
X151454819Y-79238094D02*
X151454819Y-78857142D01*
X151454819Y-78857142D02*
X151502438Y-78761904D01*
X151502438Y-78761904D02*
X151550057Y-78714285D01*
X151550057Y-78714285D02*
X151645295Y-78666666D01*
X151645295Y-78666666D02*
X151788152Y-78666666D01*
X151788152Y-78666666D02*
X151883390Y-78714285D01*
X151883390Y-78714285D02*
X151931009Y-78761904D01*
X151931009Y-78761904D02*
X151978628Y-78857142D01*
X151978628Y-78857142D02*
X151978628Y-79238094D01*
X152454819Y-77714285D02*
X152454819Y-78285713D01*
X152454819Y-77999999D02*
X151454819Y-77999999D01*
X151454819Y-77999999D02*
X151597676Y-78095237D01*
X151597676Y-78095237D02*
X151692914Y-78190475D01*
X151692914Y-78190475D02*
X151740533Y-78285713D01*
X155761905Y-102684819D02*
X155761905Y-101684819D01*
X155761905Y-101684819D02*
X156000000Y-101684819D01*
X156000000Y-101684819D02*
X156142857Y-101732438D01*
X156142857Y-101732438D02*
X156238095Y-101827676D01*
X156238095Y-101827676D02*
X156285714Y-101922914D01*
X156285714Y-101922914D02*
X156333333Y-102113390D01*
X156333333Y-102113390D02*
X156333333Y-102256247D01*
X156333333Y-102256247D02*
X156285714Y-102446723D01*
X156285714Y-102446723D02*
X156238095Y-102541961D01*
X156238095Y-102541961D02*
X156142857Y-102637200D01*
X156142857Y-102637200D02*
X156000000Y-102684819D01*
X156000000Y-102684819D02*
X155761905Y-102684819D01*
X157285714Y-102684819D02*
X156714286Y-102684819D01*
X157000000Y-102684819D02*
X157000000Y-101684819D01*
X157000000Y-101684819D02*
X156904762Y-101827676D01*
X156904762Y-101827676D02*
X156809524Y-101922914D01*
X156809524Y-101922914D02*
X156714286Y-101970533D01*
X152624819Y-94856666D02*
X152148628Y-95189999D01*
X152624819Y-95428094D02*
X151624819Y-95428094D01*
X151624819Y-95428094D02*
X151624819Y-95047142D01*
X151624819Y-95047142D02*
X151672438Y-94951904D01*
X151672438Y-94951904D02*
X151720057Y-94904285D01*
X151720057Y-94904285D02*
X151815295Y-94856666D01*
X151815295Y-94856666D02*
X151958152Y-94856666D01*
X151958152Y-94856666D02*
X152053390Y-94904285D01*
X152053390Y-94904285D02*
X152101009Y-94951904D01*
X152101009Y-94951904D02*
X152148628Y-95047142D01*
X152148628Y-95047142D02*
X152148628Y-95428094D01*
X151958152Y-93999523D02*
X152624819Y-93999523D01*
X151577200Y-94237618D02*
X152291485Y-94475713D01*
X152291485Y-94475713D02*
X152291485Y-93856666D01*
D10*
X140466666Y-76112419D02*
X140466666Y-76826704D01*
X140466666Y-76826704D02*
X140419047Y-76969561D01*
X140419047Y-76969561D02*
X140323809Y-77064800D01*
X140323809Y-77064800D02*
X140180952Y-77112419D01*
X140180952Y-77112419D02*
X140085714Y-77112419D01*
X141419047Y-76112419D02*
X140942857Y-76112419D01*
X140942857Y-76112419D02*
X140895238Y-76588609D01*
X140895238Y-76588609D02*
X140942857Y-76540990D01*
X140942857Y-76540990D02*
X141038095Y-76493371D01*
X141038095Y-76493371D02*
X141276190Y-76493371D01*
X141276190Y-76493371D02*
X141371428Y-76540990D01*
X141371428Y-76540990D02*
X141419047Y-76588609D01*
X141419047Y-76588609D02*
X141466666Y-76683847D01*
X141466666Y-76683847D02*
X141466666Y-76921942D01*
X141466666Y-76921942D02*
X141419047Y-77017180D01*
X141419047Y-77017180D02*
X141371428Y-77064800D01*
X141371428Y-77064800D02*
X141276190Y-77112419D01*
X141276190Y-77112419D02*
X141038095Y-77112419D01*
X141038095Y-77112419D02*
X140942857Y-77064800D01*
X140942857Y-77064800D02*
X140895238Y-77017180D01*
D12*
X152454819Y-84066666D02*
X151978628Y-84399999D01*
X152454819Y-84638094D02*
X151454819Y-84638094D01*
X151454819Y-84638094D02*
X151454819Y-84257142D01*
X151454819Y-84257142D02*
X151502438Y-84161904D01*
X151502438Y-84161904D02*
X151550057Y-84114285D01*
X151550057Y-84114285D02*
X151645295Y-84066666D01*
X151645295Y-84066666D02*
X151788152Y-84066666D01*
X151788152Y-84066666D02*
X151883390Y-84114285D01*
X151883390Y-84114285D02*
X151931009Y-84161904D01*
X151931009Y-84161904D02*
X151978628Y-84257142D01*
X151978628Y-84257142D02*
X151978628Y-84638094D01*
X151454819Y-83733332D02*
X151454819Y-83114285D01*
X151454819Y-83114285D02*
X151835771Y-83447618D01*
X151835771Y-83447618D02*
X151835771Y-83304761D01*
X151835771Y-83304761D02*
X151883390Y-83209523D01*
X151883390Y-83209523D02*
X151931009Y-83161904D01*
X151931009Y-83161904D02*
X152026247Y-83114285D01*
X152026247Y-83114285D02*
X152264342Y-83114285D01*
X152264342Y-83114285D02*
X152359580Y-83161904D01*
X152359580Y-83161904D02*
X152407200Y-83209523D01*
X152407200Y-83209523D02*
X152454819Y-83304761D01*
X152454819Y-83304761D02*
X152454819Y-83590475D01*
X152454819Y-83590475D02*
X152407200Y-83685713D01*
X152407200Y-83685713D02*
X152359580Y-83733332D01*
X163192319Y-103971666D02*
X162716128Y-104304999D01*
X163192319Y-104543094D02*
X162192319Y-104543094D01*
X162192319Y-104543094D02*
X162192319Y-104162142D01*
X162192319Y-104162142D02*
X162239938Y-104066904D01*
X162239938Y-104066904D02*
X162287557Y-104019285D01*
X162287557Y-104019285D02*
X162382795Y-103971666D01*
X162382795Y-103971666D02*
X162525652Y-103971666D01*
X162525652Y-103971666D02*
X162620890Y-104019285D01*
X162620890Y-104019285D02*
X162668509Y-104066904D01*
X162668509Y-104066904D02*
X162716128Y-104162142D01*
X162716128Y-104162142D02*
X162716128Y-104543094D01*
X162192319Y-103066904D02*
X162192319Y-103543094D01*
X162192319Y-103543094D02*
X162668509Y-103590713D01*
X162668509Y-103590713D02*
X162620890Y-103543094D01*
X162620890Y-103543094D02*
X162573271Y-103447856D01*
X162573271Y-103447856D02*
X162573271Y-103209761D01*
X162573271Y-103209761D02*
X162620890Y-103114523D01*
X162620890Y-103114523D02*
X162668509Y-103066904D01*
X162668509Y-103066904D02*
X162763747Y-103019285D01*
X162763747Y-103019285D02*
X163001842Y-103019285D01*
X163001842Y-103019285D02*
X163097080Y-103066904D01*
X163097080Y-103066904D02*
X163144700Y-103114523D01*
X163144700Y-103114523D02*
X163192319Y-103209761D01*
X163192319Y-103209761D02*
X163192319Y-103447856D01*
X163192319Y-103447856D02*
X163144700Y-103543094D01*
X163144700Y-103543094D02*
X163097080Y-103590713D01*
X152454819Y-89466666D02*
X151978628Y-89799999D01*
X152454819Y-90038094D02*
X151454819Y-90038094D01*
X151454819Y-90038094D02*
X151454819Y-89657142D01*
X151454819Y-89657142D02*
X151502438Y-89561904D01*
X151502438Y-89561904D02*
X151550057Y-89514285D01*
X151550057Y-89514285D02*
X151645295Y-89466666D01*
X151645295Y-89466666D02*
X151788152Y-89466666D01*
X151788152Y-89466666D02*
X151883390Y-89514285D01*
X151883390Y-89514285D02*
X151931009Y-89561904D01*
X151931009Y-89561904D02*
X151978628Y-89657142D01*
X151978628Y-89657142D02*
X151978628Y-90038094D01*
X151550057Y-89085713D02*
X151502438Y-89038094D01*
X151502438Y-89038094D02*
X151454819Y-88942856D01*
X151454819Y-88942856D02*
X151454819Y-88704761D01*
X151454819Y-88704761D02*
X151502438Y-88609523D01*
X151502438Y-88609523D02*
X151550057Y-88561904D01*
X151550057Y-88561904D02*
X151645295Y-88514285D01*
X151645295Y-88514285D02*
X151740533Y-88514285D01*
X151740533Y-88514285D02*
X151883390Y-88561904D01*
X151883390Y-88561904D02*
X152454819Y-89133332D01*
X152454819Y-89133332D02*
X152454819Y-88514285D01*
X143486666Y-77724819D02*
X143486666Y-78439104D01*
X143486666Y-78439104D02*
X143439047Y-78581961D01*
X143439047Y-78581961D02*
X143343809Y-78677200D01*
X143343809Y-78677200D02*
X143200952Y-78724819D01*
X143200952Y-78724819D02*
X143105714Y-78724819D01*
X144486666Y-78724819D02*
X143915238Y-78724819D01*
X144200952Y-78724819D02*
X144200952Y-77724819D01*
X144200952Y-77724819D02*
X144105714Y-77867676D01*
X144105714Y-77867676D02*
X144010476Y-77962914D01*
X144010476Y-77962914D02*
X143915238Y-78010533D01*
D13*
X164955000Y-104395000D02*
X164955000Y-102155000D01*
X172835000Y-104395000D02*
X164955000Y-104395000D01*
X164955000Y-102155000D02*
X163565000Y-102155000D01*
X172835000Y-102155000D02*
X172835000Y-104395000D01*
X174235000Y-102155000D02*
X172835000Y-102155000D01*
X174235000Y-102145000D02*
X174235000Y-100375000D01*
X163565000Y-100375000D02*
X163565000Y-102155000D01*
X174235000Y-100375000D02*
X163565000Y-100375000D01*
D10*
X174450000Y-115970000D02*
X157950000Y-115970000D01*
X157950000Y-108740000D01*
X174450000Y-108740000D01*
X174450000Y-115970000D01*
X156690000Y-108780000D02*
X147080000Y-108780000D01*
X147080000Y-115080000D01*
X156690000Y-115080000D01*
X156690000Y-108780000D01*
D13*
X123365000Y-106720000D02*
X123365000Y-116140000D01*
X123365000Y-106720000D02*
X124875000Y-106720000D01*
X123365000Y-112830000D02*
X145985000Y-112830000D01*
X123365000Y-116140000D02*
X145985000Y-116140000D01*
X125625000Y-105430000D02*
X126225000Y-105430000D01*
X125925000Y-106030000D02*
X125625000Y-105430000D01*
X126225000Y-105430000D02*
X125925000Y-106030000D01*
X126975000Y-106720000D02*
X128375000Y-106720000D01*
X130475000Y-106720000D02*
X131875000Y-106720000D01*
X133975000Y-106720000D02*
X135375000Y-106720000D01*
X137475000Y-106720000D02*
X138875000Y-106720000D01*
X140975000Y-106720000D02*
X142375000Y-106720000D01*
X145985000Y-106720000D02*
X144475000Y-106720000D01*
X145985000Y-116140000D02*
X145985000Y-106720000D01*
X155565000Y-79275000D02*
X155565000Y-95295000D01*
X155565000Y-79275000D02*
X167495000Y-79275000D01*
X155565000Y-95295000D02*
X167495000Y-95295000D01*
X159337000Y-96171000D02*
X160353000Y-96171000D01*
X159845000Y-95663000D02*
X159337000Y-96171000D01*
X160353000Y-96171000D02*
X159845000Y-95663000D01*
X170995000Y-79275000D02*
X174435000Y-79275000D01*
X170995000Y-95295000D02*
X174435000Y-95295000D01*
X174435000Y-79275000D02*
X174435000Y-95295000D01*
D10*
X174610000Y-66390000D02*
X158140000Y-66390000D01*
X158140000Y-76610000D01*
X174610000Y-76610000D01*
X174610000Y-66390000D01*
D13*
X147000000Y-77100000D02*
X147000000Y-79900000D01*
X151200000Y-77100000D02*
X151200000Y-79900000D01*
X147000001Y-77100000D02*
G75*
G02*
X151209241Y-77113964I2099999J-1400000D01*
G01*
X151199999Y-79900000D02*
G75*
G02*
X146990759Y-79886036I-2099999J1400000D01*
G01*
X158645000Y-98300000D02*
X158489000Y-98300000D01*
X160961000Y-98300000D02*
X160805000Y-98300000D01*
X158645164Y-100901129D02*
G75*
G02*
X158645001Y-98819040I1079836J1041129D01*
G01*
X158646392Y-101532334D02*
G75*
G02*
X158489485Y-98300001I1078608J1672334D01*
G01*
X160804999Y-98819040D02*
G75*
G02*
X160804836Y-100901129I-1079999J-1040960D01*
G01*
X160960515Y-98300001D02*
G75*
G02*
X160803608Y-101532334I-1235515J-1559999D01*
G01*
X147000000Y-96100000D02*
X147000000Y-93300000D01*
X151200000Y-96100000D02*
X151200000Y-93300000D01*
X147000001Y-93300000D02*
G75*
G02*
X151209241Y-93313964I2099999J-1400000D01*
G01*
X151199999Y-96100000D02*
G75*
G02*
X146990759Y-96086036I-2099999J1400000D01*
G01*
D10*
X123290000Y-76580000D02*
X139760000Y-76580000D01*
X139760000Y-66360000D01*
X123290000Y-66360000D01*
X123290000Y-76580000D01*
D13*
X147000000Y-82500000D02*
X147000000Y-85300000D01*
X151200000Y-82500000D02*
X151200000Y-85300000D01*
X147000001Y-82500000D02*
G75*
G02*
X151209241Y-82513964I2099999J-1400000D01*
G01*
X151199999Y-85300000D02*
G75*
G02*
X146990759Y-85286036I-2099999J1400000D01*
G01*
X160452064Y-102820000D02*
X158997936Y-102820000D01*
X160452064Y-104640000D02*
X158997936Y-104640000D01*
X147000000Y-87900000D02*
X147000000Y-90700000D01*
X151200000Y-87900000D02*
X151200000Y-90700000D01*
X147000001Y-87900000D02*
G75*
G02*
X151209241Y-87913964I2099999J-1400000D01*
G01*
X151199999Y-90700000D02*
G75*
G02*
X146990759Y-90686036I-2099999J1400000D01*
G01*
X123565000Y-95010000D02*
X123565000Y-78990000D01*
X127005000Y-78990000D02*
X123565000Y-78990000D01*
X127005000Y-95010000D02*
X123565000Y-95010000D01*
X137647000Y-78114000D02*
X138155000Y-78622000D01*
X138155000Y-78622000D02*
X138663000Y-78114000D01*
X138663000Y-78114000D02*
X137647000Y-78114000D01*
X142435000Y-78990000D02*
X130505000Y-78990000D01*
X142435000Y-95010000D02*
X130505000Y-95010000D01*
X142435000Y-95010000D02*
X142435000Y-78990000D01*
%LPC*%
D14*
X166355000Y-103295000D03*
D15*
X168895000Y-103295000D03*
X171435000Y-103295000D03*
D16*
X171150000Y-114060000D03*
X171150000Y-110650000D03*
X161250000Y-114060000D03*
X161250000Y-110650000D03*
D17*
X149200000Y-101030000D03*
X149075000Y-71405000D03*
D18*
X156330000Y-114470000D03*
X155060000Y-114470000D03*
X153790000Y-114470000D03*
X152520000Y-114470000D03*
X151250000Y-114470000D03*
X149980000Y-114470000D03*
X148710000Y-114470000D03*
X147440000Y-114470000D03*
X147440000Y-109390000D03*
X148710000Y-109390000D03*
X149980000Y-109390000D03*
X151250000Y-109390000D03*
X152520000Y-109390000D03*
X153790000Y-109390000D03*
X155060000Y-109390000D03*
X156330000Y-109390000D03*
D19*
X125925000Y-108030000D03*
D20*
X129425000Y-108030000D03*
X132925000Y-108030000D03*
X136425000Y-108030000D03*
X139925000Y-108030000D03*
X143425000Y-108030000D03*
D21*
X166195000Y-93000000D03*
X166195000Y-81570000D03*
D22*
X159845000Y-91730000D03*
D23*
X157305000Y-90460000D03*
X159845000Y-89190000D03*
X157305000Y-87920000D03*
X159845000Y-86650000D03*
X157305000Y-85380000D03*
X159845000Y-84110000D03*
X157305000Y-82840000D03*
D24*
X169245000Y-95055000D03*
X169245000Y-79515000D03*
D25*
X169500000Y-69000000D03*
X161300000Y-69000000D03*
D26*
X169500000Y-74000000D03*
X161300000Y-74000000D03*
D27*
X149100000Y-77000000D03*
X149100000Y-80000000D03*
D14*
X159725000Y-98590000D03*
D15*
X159725000Y-101130000D03*
D27*
X149100000Y-96200000D03*
X149100000Y-93200000D03*
D25*
X128400000Y-73970000D03*
X136600000Y-73970000D03*
D26*
X128400000Y-68970000D03*
X136600000Y-68970000D03*
D27*
X149100000Y-82400000D03*
X149100000Y-85400000D03*
D28*
X161187500Y-103730000D03*
X158262500Y-103730000D03*
D27*
X149100000Y-87800000D03*
X149100000Y-90800000D03*
D21*
X131805000Y-81285000D03*
X131805000Y-92715000D03*
D22*
X138155000Y-82555000D03*
D23*
X140695000Y-83825000D03*
X138155000Y-85095000D03*
X140695000Y-86365000D03*
X138155000Y-87635000D03*
X140695000Y-88905000D03*
X138155000Y-90175000D03*
X140695000Y-91445000D03*
D24*
X128755000Y-79230000D03*
X128755000Y-94770000D03*
%LPD*%
M02*
