G04 #@! TF.GenerationSoftware,KiCad,Pcbnew,8.0.0*
G04 #@! TF.CreationDate,2024-11-14T09:55:01-06:00*
G04 #@! TF.ProjectId,RainSegmentDriver,5261696e-5365-4676-9d65-6e7444726976,rev?*
G04 #@! TF.SameCoordinates,Original*
G04 #@! TF.FileFunction,Copper,L1,Top*
G04 #@! TF.FilePolarity,Positive*
%FSLAX46Y46*%
G04 Gerber Fmt 4.6, Leading zero omitted, Abs format (unit mm)*
G04 Created by KiCad (PCBNEW 8.0.0) date 2024-11-14 09:55:02*
%MOMM*%
%LPD*%
G01*
G04 APERTURE LIST*
G04 Aperture macros list*
%AMRoundRect*
0 Rectangle with rounded corners*
0 $1 Rounding radius*
0 $2 $3 $4 $5 $6 $7 $8 $9 X,Y pos of 4 corners*
0 Add a 4 corners polygon primitive as box body*
4,1,4,$2,$3,$4,$5,$6,$7,$8,$9,$2,$3,0*
0 Add four circle primitives for the rounded corners*
1,1,$1+$1,$2,$3*
1,1,$1+$1,$4,$5*
1,1,$1+$1,$6,$7*
1,1,$1+$1,$8,$9*
0 Add four rect primitives between the rounded corners*
20,1,$1+$1,$2,$3,$4,$5,0*
20,1,$1+$1,$4,$5,$6,$7,0*
20,1,$1+$1,$6,$7,$8,$9,0*
20,1,$1+$1,$8,$9,$2,$3,0*%
G04 Aperture macros list end*
G04 #@! TA.AperFunction,ComponentPad*
%ADD10R,1.800000X1.800000*%
G04 #@! TD*
G04 #@! TA.AperFunction,ComponentPad*
%ADD11C,1.800000*%
G04 #@! TD*
G04 #@! TA.AperFunction,ComponentPad*
%ADD12C,2.362000*%
G04 #@! TD*
G04 #@! TA.AperFunction,SMDPad,CuDef*
%ADD13R,0.508000X1.104900*%
G04 #@! TD*
G04 #@! TA.AperFunction,ComponentPad*
%ADD14RoundRect,0.250000X-0.650000X-1.550000X0.650000X-1.550000X0.650000X1.550000X-0.650000X1.550000X0*%
G04 #@! TD*
G04 #@! TA.AperFunction,ComponentPad*
%ADD15O,1.800000X3.600000*%
G04 #@! TD*
G04 #@! TA.AperFunction,ComponentPad*
%ADD16R,1.500000X1.500000*%
G04 #@! TD*
G04 #@! TA.AperFunction,ComponentPad*
%ADD17C,1.500000*%
G04 #@! TD*
G04 #@! TA.AperFunction,ComponentPad*
%ADD18C,3.000000*%
G04 #@! TD*
G04 #@! TA.AperFunction,ComponentPad*
%ADD19R,3.000000X1.500000*%
G04 #@! TD*
G04 #@! TA.AperFunction,ComponentPad*
%ADD20O,3.000000X1.500000*%
G04 #@! TD*
G04 #@! TA.AperFunction,ComponentPad*
%ADD21C,1.600000*%
G04 #@! TD*
G04 #@! TA.AperFunction,SMDPad,CuDef*
%ADD22RoundRect,0.250000X0.312500X0.625000X-0.312500X0.625000X-0.312500X-0.625000X0.312500X-0.625000X0*%
G04 #@! TD*
G04 #@! TA.AperFunction,ViaPad*
%ADD23C,0.600000*%
G04 #@! TD*
G04 #@! TA.AperFunction,Conductor*
%ADD24C,0.200000*%
G04 #@! TD*
G04 #@! TA.AperFunction,Conductor*
%ADD25C,0.750000*%
G04 #@! TD*
G04 #@! TA.AperFunction,Conductor*
%ADD26C,2.794000*%
G04 #@! TD*
G04 APERTURE END LIST*
D10*
X166355000Y-103295000D03*
D11*
X168895000Y-103295000D03*
X171435000Y-103295000D03*
D12*
X171150000Y-114060000D03*
X171150000Y-110650000D03*
X161250000Y-114060000D03*
X161250000Y-110650000D03*
D13*
X156330000Y-114470000D03*
X155060000Y-114470000D03*
X153790000Y-114470000D03*
X152520000Y-114470000D03*
X151250000Y-114470000D03*
X149980000Y-114470000D03*
X148710000Y-114470000D03*
X147440000Y-114470000D03*
X147440000Y-109390000D03*
X148710000Y-109390000D03*
X149980000Y-109390000D03*
X151250000Y-109390000D03*
X152520000Y-109390000D03*
X153790000Y-109390000D03*
X155060000Y-109390000D03*
X156330000Y-109390000D03*
D14*
X125925000Y-108030000D03*
D15*
X129425000Y-108030000D03*
X132925000Y-108030000D03*
X136425000Y-108030000D03*
X139925000Y-108030000D03*
X143425000Y-108030000D03*
D16*
X159845000Y-91730000D03*
D17*
X157305000Y-90460000D03*
X159845000Y-89190000D03*
X157305000Y-87920000D03*
X159845000Y-86650000D03*
X157305000Y-85380000D03*
X159845000Y-84110000D03*
X157305000Y-82840000D03*
D18*
X169245000Y-95055000D03*
X169245000Y-79515000D03*
D19*
X169500000Y-69000000D03*
X161300000Y-69000000D03*
D20*
X169500000Y-74000000D03*
X161300000Y-74000000D03*
D21*
X149100000Y-77000000D03*
X149100000Y-80000000D03*
D10*
X159725000Y-98590000D03*
D11*
X159725000Y-101130000D03*
D21*
X149100000Y-96200000D03*
X149100000Y-93200000D03*
D19*
X128400000Y-73970000D03*
X136600000Y-73970000D03*
D20*
X128400000Y-68970000D03*
X136600000Y-68970000D03*
D21*
X149100000Y-82400000D03*
X149100000Y-85400000D03*
D22*
X161187500Y-103730000D03*
X158262500Y-103730000D03*
D21*
X149100000Y-87800000D03*
X149100000Y-90800000D03*
D16*
X138155000Y-82555000D03*
D17*
X140695000Y-83825000D03*
X138155000Y-85095000D03*
X140695000Y-86365000D03*
X138155000Y-87635000D03*
X140695000Y-88905000D03*
X138155000Y-90175000D03*
X140695000Y-91445000D03*
D18*
X128755000Y-79230000D03*
X128755000Y-94770000D03*
D23*
X150225000Y-89405000D03*
X153800000Y-96630000D03*
X151600000Y-103830000D03*
X159200000Y-106730000D03*
X137050000Y-92905000D03*
X146675000Y-114430000D03*
X146650000Y-113205000D03*
X155060000Y-113230000D03*
X153800000Y-112230000D03*
X156362500Y-110842500D03*
X155060000Y-110870000D03*
X149025000Y-110780000D03*
X147749997Y-110780000D03*
X149610000Y-112830000D03*
X145525000Y-109405000D03*
X146400000Y-111180000D03*
D24*
X157540000Y-115680000D02*
X169530000Y-115680000D01*
X156330000Y-114470000D02*
X157540000Y-115680000D01*
X169530000Y-115680000D02*
X171150000Y-114060000D01*
X158262500Y-102592500D02*
X159725000Y-101130000D01*
X158262500Y-103730000D02*
X158262500Y-102592500D01*
X162412500Y-104955000D02*
X169775000Y-104955000D01*
X161187500Y-103730000D02*
X162412500Y-104955000D01*
X169775000Y-104955000D02*
X171435000Y-103295000D01*
D25*
X163575000Y-74925000D02*
X169500000Y-69000000D01*
X163575000Y-100515000D02*
X163575000Y-74925000D01*
X166355000Y-103295000D02*
X163575000Y-100515000D01*
X171150000Y-103580000D02*
X171435000Y-103295000D01*
X171150000Y-110650000D02*
X171150000Y-103580000D01*
D24*
X156475000Y-91290000D02*
X157305000Y-90460000D01*
X156475000Y-93269314D02*
X156475000Y-91290000D01*
X155025000Y-97620686D02*
X157070000Y-95575686D01*
X157070000Y-95575686D02*
X157070000Y-93864314D01*
X155025000Y-102555000D02*
X155025000Y-97620686D01*
X159200000Y-106730000D02*
X155025000Y-102555000D01*
X157070000Y-93864314D02*
X156475000Y-93269314D01*
X143325000Y-97980000D02*
X140825000Y-97980000D01*
X149175000Y-103830000D02*
X143325000Y-97980000D01*
X136450000Y-86800000D02*
X138155000Y-85095000D01*
X151600000Y-103830000D02*
X149175000Y-103830000D01*
X136450000Y-93605000D02*
X136450000Y-86800000D01*
X140825000Y-97980000D02*
X136450000Y-93605000D01*
X153800000Y-92980000D02*
X150225000Y-89405000D01*
X153800000Y-96630000D02*
X153800000Y-92980000D01*
X155060000Y-113230000D02*
X155060000Y-114470000D01*
X153800000Y-112230000D02*
X153790000Y-112240000D01*
X153790000Y-112240000D02*
X153790000Y-114470000D01*
X156362500Y-110842500D02*
X156330000Y-110810000D01*
X156330000Y-110810000D02*
X156330000Y-109390000D01*
X155060000Y-110870000D02*
X155060000Y-109390000D01*
X147445000Y-113205000D02*
X146650000Y-113205000D01*
X148710000Y-114470000D02*
X147445000Y-113205000D01*
X146715000Y-114470000D02*
X147440000Y-114470000D01*
X146675000Y-114430000D02*
X146715000Y-114470000D01*
X129425000Y-108030000D02*
X133975000Y-112580000D01*
X133975000Y-112580000D02*
X148090000Y-112580000D01*
X148090000Y-112580000D02*
X149980000Y-114470000D01*
X139800000Y-90155000D02*
X141125000Y-90155000D01*
X141125000Y-90155000D02*
X142730000Y-88550000D01*
X137050000Y-92905000D02*
X139800000Y-90155000D01*
X142730000Y-88550000D02*
X145710000Y-91530000D01*
X141950000Y-87770000D02*
X142730000Y-88550000D01*
X149025000Y-110345000D02*
X149980000Y-109390000D01*
X149025000Y-110780000D02*
X149025000Y-110345000D01*
X147749997Y-110350003D02*
X148710000Y-109390000D01*
X147749997Y-110780000D02*
X147749997Y-110350003D01*
X149610000Y-112830000D02*
X151250000Y-114470000D01*
X151250000Y-110030000D02*
X151250000Y-109390000D01*
X149900000Y-111380000D02*
X151250000Y-110030000D01*
X146600000Y-111380000D02*
X149900000Y-111380000D01*
X146400000Y-111180000D02*
X146600000Y-111380000D01*
X153790000Y-110340000D02*
X153790000Y-109390000D01*
X152350000Y-111780000D02*
X153790000Y-110340000D01*
X143675000Y-111780000D02*
X152350000Y-111780000D01*
X139925000Y-108030000D02*
X143675000Y-111780000D01*
X147425000Y-109405000D02*
X147440000Y-109390000D01*
X145525000Y-109405000D02*
X147425000Y-109405000D01*
X150230000Y-112180000D02*
X152520000Y-114470000D01*
X137075000Y-112180000D02*
X150230000Y-112180000D01*
X132925000Y-108030000D02*
X137075000Y-112180000D01*
D25*
X158630000Y-108030000D02*
X143425000Y-108030000D01*
X161250000Y-110650000D02*
X158630000Y-108030000D01*
X161250000Y-114060000D02*
X161250000Y-110650000D01*
X171150000Y-114060000D02*
X171150000Y-110650000D01*
D26*
X136600000Y-68970000D02*
X137840000Y-67730000D01*
X137840000Y-67730000D02*
X160030000Y-67730000D01*
X160030000Y-67730000D02*
X161300000Y-69000000D01*
X128400000Y-68970000D02*
X136600000Y-68970000D01*
X161300000Y-69000000D02*
X169500000Y-69000000D01*
D24*
X140695000Y-91445000D02*
X140695000Y-95345000D01*
X150150000Y-97250000D02*
X149100000Y-96200000D01*
X158600000Y-84135000D02*
X158600000Y-88700000D01*
X140695000Y-95345000D02*
X142620000Y-97270000D01*
X156670000Y-95410000D02*
X154830000Y-97250000D01*
X142620000Y-97270000D02*
X148030000Y-97270000D01*
X158000000Y-89300000D02*
X156530000Y-89300000D01*
X157305000Y-82840000D02*
X158600000Y-84135000D01*
X148030000Y-97270000D02*
X149100000Y-96200000D01*
X156670000Y-94030000D02*
X156670000Y-95410000D01*
X156530000Y-89300000D02*
X154620000Y-91210000D01*
X154830000Y-97250000D02*
X150150000Y-97250000D01*
X158600000Y-88700000D02*
X158000000Y-89300000D01*
X154620000Y-91980000D02*
X156670000Y-94030000D01*
X154620000Y-91210000D02*
X154620000Y-91980000D01*
X140720000Y-80000000D02*
X139610000Y-81110000D01*
X139610000Y-81110000D02*
X139610000Y-82740000D01*
X158700000Y-80000000D02*
X162390000Y-83690000D01*
X149100000Y-80000000D02*
X140720000Y-80000000D01*
X162390000Y-89210000D02*
X161200000Y-90400000D01*
X161200000Y-90400000D02*
X157365000Y-90400000D01*
X149100000Y-80000000D02*
X158700000Y-80000000D01*
X157365000Y-90400000D02*
X157305000Y-90460000D01*
X162390000Y-83690000D02*
X162390000Y-89210000D01*
X139610000Y-82740000D02*
X140695000Y-83825000D01*
X154787838Y-84630000D02*
X154787838Y-85400000D01*
X151367838Y-86350000D02*
X151457838Y-86350000D01*
X151187838Y-85220000D02*
X151187838Y-86170000D01*
X151187838Y-84630000D02*
X151187838Y-85220000D01*
X157285000Y-85400000D02*
X157305000Y-85380000D01*
X155237838Y-86170000D02*
X155237838Y-85580000D01*
X154337838Y-86170000D02*
X154337838Y-85400000D01*
X155417838Y-85400000D02*
X155507838Y-85400000D01*
X155507838Y-85400000D02*
X155932054Y-85400000D01*
X150917838Y-84450000D02*
X151007838Y-84450000D01*
X150737838Y-85220000D02*
X150737838Y-84630000D01*
X154967838Y-86350000D02*
X155057838Y-86350000D01*
X152537838Y-85400000D02*
X152537838Y-84630000D01*
X152537838Y-86170000D02*
X152537838Y-85400000D01*
X148800000Y-85100000D02*
X149100000Y-85400000D01*
X155932054Y-85400000D02*
X157285000Y-85400000D01*
X140475075Y-85100000D02*
X148800000Y-85100000D01*
X154067838Y-86350000D02*
X154157838Y-86350000D01*
X149100000Y-85400000D02*
X150557838Y-85400000D01*
X154787838Y-85400000D02*
X154787838Y-86170000D01*
X140695000Y-88905000D02*
X139300000Y-87510000D01*
X153887838Y-84630000D02*
X153887838Y-85400000D01*
X152267838Y-86350000D02*
X152357838Y-86350000D01*
X154337838Y-85400000D02*
X154337838Y-84630000D01*
X153167838Y-86350000D02*
X153257838Y-86350000D01*
X151637838Y-86170000D02*
X151637838Y-85400000D01*
X152987838Y-85400000D02*
X152987838Y-86170000D01*
X152087838Y-85400000D02*
X152087838Y-86170000D01*
X139300000Y-87510000D02*
X139300000Y-86275075D01*
X139300000Y-86275075D02*
X140475075Y-85100000D01*
X152717838Y-84450000D02*
X152807838Y-84450000D01*
X151817838Y-84450000D02*
X151907838Y-84450000D01*
X152987838Y-84630000D02*
X152987838Y-85400000D01*
X153887838Y-85400000D02*
X153887838Y-86170000D01*
X153437838Y-85400000D02*
X153437838Y-84630000D01*
X154517838Y-84450000D02*
X154607838Y-84450000D01*
X140695000Y-88905000D02*
X140990000Y-89200000D01*
X153617838Y-84450000D02*
X153707838Y-84450000D01*
X153437838Y-86170000D02*
X153437838Y-85400000D01*
X152087838Y-84630000D02*
X152087838Y-85400000D01*
X151637838Y-85400000D02*
X151637838Y-84630000D01*
X152987838Y-86170000D02*
G75*
G03*
X153167838Y-86349962I179962J0D01*
G01*
X150737838Y-84630000D02*
G75*
G02*
X150917838Y-84450038I179962J0D01*
G01*
X153437838Y-84630000D02*
G75*
G02*
X153617838Y-84450038I179962J0D01*
G01*
X153707838Y-84450000D02*
G75*
G02*
X153887800Y-84630000I-38J-180000D01*
G01*
X154337838Y-84630000D02*
G75*
G02*
X154517838Y-84450038I179962J0D01*
G01*
X155237838Y-85580000D02*
G75*
G02*
X155417838Y-85400038I179962J0D01*
G01*
X151187838Y-86170000D02*
G75*
G03*
X151367838Y-86349962I179962J0D01*
G01*
X151457838Y-86350000D02*
G75*
G03*
X151637800Y-86170000I-38J180000D01*
G01*
X155057838Y-86350000D02*
G75*
G03*
X155237800Y-86170000I-38J180000D01*
G01*
X152537838Y-84630000D02*
G75*
G02*
X152717838Y-84450038I179962J0D01*
G01*
X151907838Y-84450000D02*
G75*
G02*
X152087800Y-84630000I-38J-180000D01*
G01*
X151637838Y-84630000D02*
G75*
G02*
X151817838Y-84450038I179962J0D01*
G01*
X150557838Y-85400000D02*
G75*
G03*
X150737800Y-85220000I-38J180000D01*
G01*
X153887838Y-86170000D02*
G75*
G03*
X154067838Y-86349962I179962J0D01*
G01*
X153257838Y-86350000D02*
G75*
G03*
X153437800Y-86170000I-38J180000D01*
G01*
X154607838Y-84450000D02*
G75*
G02*
X154787800Y-84630000I-38J-180000D01*
G01*
X152087838Y-86170000D02*
G75*
G03*
X152267838Y-86349962I179962J0D01*
G01*
X154787838Y-86170000D02*
G75*
G03*
X154967838Y-86349962I179962J0D01*
G01*
X152807838Y-84450000D02*
G75*
G02*
X152987800Y-84630000I-38J-180000D01*
G01*
X151007838Y-84450000D02*
G75*
G02*
X151187800Y-84630000I-38J-180000D01*
G01*
X154157838Y-86350000D02*
G75*
G03*
X154337800Y-86170000I-38J180000D01*
G01*
X152357838Y-86350000D02*
G75*
G03*
X152537800Y-86170000I-38J180000D01*
G01*
X145710000Y-91530000D02*
X146640000Y-91530000D01*
X153571761Y-87800000D02*
X153571761Y-88570000D01*
X152671761Y-87030000D02*
X152671761Y-87800000D01*
X151771761Y-87030000D02*
X151771761Y-87800000D01*
X151771761Y-87800000D02*
X151771761Y-88570000D01*
X155640479Y-87800000D02*
X157185000Y-87800000D01*
X154021761Y-88570000D02*
X154021761Y-87800000D01*
X150421761Y-87620000D02*
X150421761Y-87030000D01*
X154471761Y-87030000D02*
X154471761Y-87800000D01*
X152221761Y-88570000D02*
X152221761Y-87800000D01*
X153301761Y-86850000D02*
X153391761Y-86850000D01*
X155101761Y-87800000D02*
X155191761Y-87800000D01*
X153121761Y-87800000D02*
X153121761Y-87030000D01*
X150871761Y-87030000D02*
X150871761Y-87620000D01*
X152851761Y-88750000D02*
X152941761Y-88750000D01*
X141950000Y-86680000D02*
X141950000Y-87770000D01*
X154471761Y-87800000D02*
X154471761Y-88570000D01*
X140695000Y-86365000D02*
X141635000Y-86365000D01*
X150871761Y-87620000D02*
X150871761Y-88570000D01*
X154921761Y-88570000D02*
X154921761Y-87980000D01*
X154201761Y-86850000D02*
X154291761Y-86850000D01*
X155191761Y-87800000D02*
X155640479Y-87800000D01*
X151051761Y-88750000D02*
X151141761Y-88750000D01*
X153571761Y-87030000D02*
X153571761Y-87800000D01*
X149100000Y-89070000D02*
X149100000Y-87800000D01*
X153751761Y-88750000D02*
X153841761Y-88750000D01*
X154021761Y-87800000D02*
X154021761Y-87030000D01*
X151321761Y-88570000D02*
X151321761Y-87800000D01*
X151321761Y-87800000D02*
X151321761Y-87030000D01*
X149100000Y-87800000D02*
X150241761Y-87800000D01*
X151951761Y-88750000D02*
X152041761Y-88750000D01*
X146640000Y-91530000D02*
X149100000Y-89070000D01*
X152671761Y-87800000D02*
X152671761Y-88570000D01*
X141635000Y-86365000D02*
X141950000Y-86680000D01*
X150601761Y-86850000D02*
X150691761Y-86850000D01*
X153121761Y-88570000D02*
X153121761Y-87800000D01*
X152221761Y-87800000D02*
X152221761Y-87030000D01*
X151501761Y-86850000D02*
X151591761Y-86850000D01*
X152401761Y-86850000D02*
X152491761Y-86850000D01*
X154651761Y-88750000D02*
X154741761Y-88750000D01*
X157185000Y-87800000D02*
X157305000Y-87920000D01*
X152491761Y-86850000D02*
G75*
G02*
X152671800Y-87030000I39J-180000D01*
G01*
X152221761Y-87030000D02*
G75*
G02*
X152401761Y-86849961I180039J0D01*
G01*
X151591761Y-86850000D02*
G75*
G02*
X151771800Y-87030000I39J-180000D01*
G01*
X154471761Y-88570000D02*
G75*
G03*
X154651761Y-88750039I180039J0D01*
G01*
X152941761Y-88750000D02*
G75*
G03*
X153121800Y-88570000I39J180000D01*
G01*
X151141761Y-88750000D02*
G75*
G03*
X151321800Y-88570000I39J180000D01*
G01*
X151771761Y-88570000D02*
G75*
G03*
X151951761Y-88750039I180039J0D01*
G01*
X150871761Y-88570000D02*
G75*
G03*
X151051761Y-88750039I180039J0D01*
G01*
X150241761Y-87800000D02*
G75*
G03*
X150421800Y-87620000I39J180000D01*
G01*
X153571761Y-88570000D02*
G75*
G03*
X153751761Y-88750039I180039J0D01*
G01*
X153121761Y-87030000D02*
G75*
G02*
X153301761Y-86849961I180039J0D01*
G01*
X150421761Y-87030000D02*
G75*
G02*
X150601761Y-86849961I180039J0D01*
G01*
X154741761Y-88750000D02*
G75*
G03*
X154921800Y-88570000I39J180000D01*
G01*
X151321761Y-87030000D02*
G75*
G02*
X151501761Y-86849961I180039J0D01*
G01*
X150691761Y-86850000D02*
G75*
G02*
X150871800Y-87030000I39J-180000D01*
G01*
X154921761Y-87980000D02*
G75*
G02*
X155101761Y-87799961I180039J0D01*
G01*
X152671761Y-88570000D02*
G75*
G03*
X152851761Y-88750039I180039J0D01*
G01*
X153841761Y-88750000D02*
G75*
G03*
X154021800Y-88570000I39J180000D01*
G01*
X154021761Y-87030000D02*
G75*
G02*
X154201761Y-86849961I180039J0D01*
G01*
X153391761Y-86850000D02*
G75*
G02*
X153571800Y-87030000I39J-180000D01*
G01*
X152041761Y-88750000D02*
G75*
G03*
X152221800Y-88570000I39J180000D01*
G01*
X154291761Y-86850000D02*
G75*
G02*
X154471800Y-87030000I39J-180000D01*
G01*
M02*
