G04 #@! TF.GenerationSoftware,KiCad,Pcbnew,8.0.0*
G04 #@! TF.CreationDate,2024-08-30T13:19:30-05:00*
G04 #@! TF.ProjectId,Rain and Switches Control Board,5261696e-2061-46e6-9420-537769746368,rev?*
G04 #@! TF.SameCoordinates,Original*
G04 #@! TF.FileFunction,Copper,L1,Top*
G04 #@! TF.FilePolarity,Positive*
%FSLAX46Y46*%
G04 Gerber Fmt 4.6, Leading zero omitted, Abs format (unit mm)*
G04 Created by KiCad (PCBNEW 8.0.0) date 2024-08-30 13:19:30*
%MOMM*%
%LPD*%
G01*
G04 APERTURE LIST*
G04 Aperture macros list*
%AMRoundRect*
0 Rectangle with rounded corners*
0 $1 Rounding radius*
0 $2 $3 $4 $5 $6 $7 $8 $9 X,Y pos of 4 corners*
0 Add a 4 corners polygon primitive as box body*
4,1,4,$2,$3,$4,$5,$6,$7,$8,$9,$2,$3,0*
0 Add four circle primitives for the rounded corners*
1,1,$1+$1,$2,$3*
1,1,$1+$1,$4,$5*
1,1,$1+$1,$6,$7*
1,1,$1+$1,$8,$9*
0 Add four rect primitives between the rounded corners*
20,1,$1+$1,$2,$3,$4,$5,0*
20,1,$1+$1,$4,$5,$6,$7,0*
20,1,$1+$1,$6,$7,$8,$9,0*
20,1,$1+$1,$8,$9,$2,$3,0*%
G04 Aperture macros list end*
G04 #@! TA.AperFunction,SMDPad,CuDef*
%ADD10RoundRect,0.250000X-0.625000X0.312500X-0.625000X-0.312500X0.625000X-0.312500X0.625000X0.312500X0*%
G04 #@! TD*
G04 #@! TA.AperFunction,ComponentPad*
%ADD11R,1.800000X1.800000*%
G04 #@! TD*
G04 #@! TA.AperFunction,ComponentPad*
%ADD12C,1.800000*%
G04 #@! TD*
G04 #@! TA.AperFunction,SMDPad,CuDef*
%ADD13RoundRect,0.250000X0.312500X0.625000X-0.312500X0.625000X-0.312500X-0.625000X0.312500X-0.625000X0*%
G04 #@! TD*
G04 #@! TA.AperFunction,ComponentPad*
%ADD14R,1.980000X3.960000*%
G04 #@! TD*
G04 #@! TA.AperFunction,ComponentPad*
%ADD15O,1.980000X3.960000*%
G04 #@! TD*
G04 #@! TA.AperFunction,ComponentPad*
%ADD16R,1.500000X1.500000*%
G04 #@! TD*
G04 #@! TA.AperFunction,ComponentPad*
%ADD17C,1.500000*%
G04 #@! TD*
G04 #@! TA.AperFunction,ComponentPad*
%ADD18C,3.000000*%
G04 #@! TD*
G04 #@! TA.AperFunction,ComponentPad*
%ADD19R,3.000000X1.500000*%
G04 #@! TD*
G04 #@! TA.AperFunction,ComponentPad*
%ADD20O,3.000000X1.500000*%
G04 #@! TD*
G04 #@! TA.AperFunction,SMDPad,CuDef*
%ADD21R,1.104900X0.508000*%
G04 #@! TD*
G04 #@! TA.AperFunction,SMDPad,CuDef*
%ADD22R,0.609600X1.549400*%
G04 #@! TD*
G04 #@! TA.AperFunction,ComponentPad*
%ADD23C,1.265000*%
G04 #@! TD*
G04 #@! TA.AperFunction,ViaPad*
%ADD24C,0.600000*%
G04 #@! TD*
G04 #@! TA.AperFunction,Conductor*
%ADD25C,0.762000*%
G04 #@! TD*
G04 #@! TA.AperFunction,Conductor*
%ADD26C,0.200000*%
G04 #@! TD*
G04 APERTURE END LIST*
D10*
X168800000Y-90035000D03*
X168800000Y-92960000D03*
D11*
X140180000Y-93350000D03*
D12*
X140180000Y-95890000D03*
X140180000Y-98430000D03*
D10*
X177870000Y-96750000D03*
X177870000Y-99675000D03*
D13*
X132252500Y-114310000D03*
X129327500Y-114310000D03*
D14*
X158140000Y-139250000D03*
D15*
X153140000Y-139250000D03*
D16*
X169270000Y-81000000D03*
D17*
X166730000Y-79730000D03*
X169270000Y-78460000D03*
X166730000Y-77190000D03*
X169270000Y-75920000D03*
X166730000Y-74650000D03*
X169270000Y-73380000D03*
X166730000Y-72110000D03*
D18*
X178670000Y-84325000D03*
X178670000Y-68785000D03*
D11*
X132210000Y-109890000D03*
D12*
X129670000Y-109890000D03*
D10*
X177790000Y-91185000D03*
X177790000Y-94110000D03*
D19*
X178800000Y-37285000D03*
X170600000Y-37285000D03*
D20*
X178800000Y-42285000D03*
X170600000Y-42285000D03*
D10*
X168400000Y-95420000D03*
X168400000Y-98345000D03*
D14*
X182620000Y-139250000D03*
D15*
X177620000Y-139250000D03*
D21*
X175820000Y-99080000D03*
X175820000Y-97810000D03*
X175820000Y-96540000D03*
X175820000Y-95270000D03*
X175820000Y-94000000D03*
X175820000Y-92730000D03*
X175820000Y-91460000D03*
X175820000Y-90190000D03*
X170740000Y-90190000D03*
X170740000Y-91460000D03*
X170740000Y-92730000D03*
X170740000Y-94000000D03*
X170740000Y-95270000D03*
X170740000Y-96540000D03*
X170740000Y-97810000D03*
X170740000Y-99080000D03*
D22*
X156540000Y-73005000D03*
X157810000Y-73005000D03*
X159080000Y-73005000D03*
X160350000Y-73005000D03*
X160350000Y-67605000D03*
X159080000Y-67605000D03*
X157810000Y-67605000D03*
X156540000Y-67605000D03*
D16*
X169165000Y-60295000D03*
D17*
X166625000Y-59025000D03*
X169165000Y-57755000D03*
X166625000Y-56485000D03*
X169165000Y-55215000D03*
X166625000Y-53945000D03*
X169165000Y-52675000D03*
X166625000Y-51405000D03*
D18*
X178565000Y-63620000D03*
X178565000Y-48080000D03*
D10*
X158230000Y-60357500D03*
X158230000Y-63282500D03*
D23*
X183915000Y-104265000D03*
X181375000Y-104265000D03*
X178835000Y-104265000D03*
X176295000Y-104265000D03*
X173755000Y-104265000D03*
X171215000Y-104265000D03*
X168675000Y-104265000D03*
X166135000Y-104265000D03*
X163595000Y-104265000D03*
X161055000Y-104265000D03*
X158515000Y-104265000D03*
X155975000Y-104265000D03*
X153435000Y-104265000D03*
X150895000Y-104265000D03*
X150895000Y-106805000D03*
X150895000Y-109345000D03*
X150895000Y-111885000D03*
X150895000Y-114425000D03*
X150895000Y-116965000D03*
X150895000Y-119505000D03*
X153435000Y-119505000D03*
X155975000Y-119505000D03*
X158515000Y-119505000D03*
X161055000Y-119505000D03*
X163595000Y-119505000D03*
X166135000Y-119505000D03*
X168675000Y-119505000D03*
X171215000Y-119505000D03*
X173755000Y-119505000D03*
X176295000Y-119505000D03*
X178835000Y-119505000D03*
X181375000Y-119505000D03*
X183915000Y-119505000D03*
D14*
X133660000Y-139250000D03*
D15*
X128660000Y-139250000D03*
D14*
X145900000Y-139250000D03*
D15*
X140900000Y-139250000D03*
D14*
X170380000Y-139250000D03*
D15*
X165380000Y-139250000D03*
D24*
X175705000Y-89495735D03*
X161495000Y-70355000D03*
X169570000Y-94195000D03*
X157830000Y-66090000D03*
X156620000Y-64060000D03*
X160385000Y-74635000D03*
D25*
X183000000Y-122740000D02*
X183915000Y-121825000D01*
X183915000Y-121825000D02*
X183915000Y-119505000D01*
X140682500Y-122740000D02*
X183000000Y-122740000D01*
X140166250Y-122223750D02*
X140682500Y-122740000D01*
X140166250Y-122223750D02*
X140180000Y-122210000D01*
X140180000Y-122210000D02*
X140180000Y-98430000D01*
X132252500Y-114310000D02*
X140166250Y-122223750D01*
X136660000Y-89830000D02*
X140180000Y-93350000D01*
X136660000Y-50840000D02*
X136660000Y-89830000D01*
X170600000Y-37285000D02*
X150215000Y-37285000D01*
X150215000Y-37285000D02*
X136660000Y-50840000D01*
X178800000Y-37285000D02*
X170600000Y-37285000D01*
D26*
X159990100Y-70355000D02*
X157810000Y-72535100D01*
X175705000Y-89495735D02*
X175705000Y-90360000D01*
X170615000Y-94180000D02*
X169585000Y-94180000D01*
X169585000Y-94180000D02*
X169570000Y-94195000D01*
X161495000Y-70355000D02*
X159990100Y-70355000D01*
X161495000Y-70355000D02*
X160350000Y-69210000D01*
X175705000Y-90360000D02*
X175695000Y-90370000D01*
X160350000Y-69210000D02*
X160350000Y-67605000D01*
X161860000Y-94440000D02*
X165765000Y-98345000D01*
X170740000Y-96540000D02*
X170205000Y-96540000D01*
X165765000Y-98345000D02*
X168400000Y-98345000D01*
X170205000Y-96540000D02*
X168400000Y-98345000D01*
X166090000Y-72750000D02*
X162520000Y-72750000D01*
X166730000Y-72110000D02*
X166090000Y-72750000D01*
X162520000Y-72750000D02*
X161860000Y-73410000D01*
X161860000Y-73410000D02*
X161860000Y-94440000D01*
X177660000Y-96540000D02*
X177870000Y-96750000D01*
X172410000Y-81180000D02*
X172410000Y-83365000D01*
X180470000Y-95460000D02*
X180470000Y-81660000D01*
X175820000Y-96540000D02*
X177660000Y-96540000D01*
X179180000Y-96750000D02*
X180470000Y-95460000D01*
X169270000Y-83280000D02*
X169270000Y-81000000D01*
X178970000Y-80160000D02*
X173430000Y-80160000D01*
X171555000Y-84220000D02*
X170210000Y-84220000D01*
X177870000Y-96750000D02*
X179180000Y-96750000D01*
X173430000Y-80160000D02*
X172410000Y-81180000D01*
X180470000Y-81660000D02*
X178970000Y-80160000D01*
X170210000Y-84220000D02*
X169270000Y-83280000D01*
X172410000Y-83365000D02*
X171555000Y-84220000D01*
X177870000Y-99675000D02*
X176005000Y-97810000D01*
X176005000Y-97810000D02*
X175820000Y-97810000D01*
X179180000Y-79730000D02*
X166730000Y-79730000D01*
X180870000Y-81420000D02*
X179180000Y-79730000D01*
X177870000Y-97782500D02*
X178040000Y-97612500D01*
X180870000Y-95625685D02*
X180870000Y-81420000D01*
X177870000Y-99675000D02*
X177870000Y-97782500D01*
X178040000Y-97612500D02*
X178883185Y-97612500D01*
X178883185Y-97612500D02*
X180870000Y-95625685D01*
X166269684Y-88957358D02*
X166191902Y-88879576D01*
X163870000Y-84734314D02*
X163280000Y-84734314D01*
X165102957Y-88101758D02*
X164685763Y-88518951D01*
X163060000Y-87204314D02*
X163060000Y-86604314D01*
X164090000Y-86164314D02*
X164090000Y-86054314D01*
X163870000Y-85834314D02*
X163280000Y-85834314D01*
X163519037Y-87663351D02*
X163060000Y-87204314D01*
X165880775Y-88879576D02*
X165463581Y-89296769D01*
X168800000Y-90035000D02*
X170225000Y-91460000D01*
X164950000Y-74650000D02*
X166730000Y-74650000D01*
X165152455Y-89296769D02*
X165074673Y-89218987D01*
X163596819Y-87741133D02*
X163519037Y-87663351D01*
X164374637Y-88518951D02*
X164296855Y-88441169D01*
X165491866Y-88179540D02*
X165414084Y-88101758D01*
X166630309Y-90463496D02*
X167047502Y-90046302D01*
X167672500Y-91162500D02*
X167018186Y-91162500D01*
X163060000Y-84514314D02*
X163060000Y-84404314D01*
X163870000Y-83634314D02*
X163280000Y-83634314D01*
X165930273Y-90074587D02*
X165852491Y-89996805D01*
X167047502Y-89735176D02*
X166969720Y-89657394D01*
X165074673Y-88907860D02*
X165491866Y-88490666D01*
X164090000Y-85064314D02*
X164090000Y-84954314D01*
X163060000Y-83304314D02*
X163060000Y-82751808D01*
X170225000Y-91460000D02*
X170740000Y-91460000D01*
X168800000Y-90035000D02*
X167672500Y-91162500D01*
X164325139Y-87323940D02*
X163907945Y-87741133D01*
X165852491Y-89685678D02*
X166269684Y-89268484D01*
X163060000Y-76540000D02*
X164950000Y-74650000D01*
X163280000Y-86384314D02*
X163870000Y-86384314D01*
X167018186Y-91162500D02*
X166630309Y-90774623D01*
X164714048Y-87401722D02*
X164636266Y-87323940D01*
X164090000Y-83964314D02*
X164090000Y-83854314D01*
X163060000Y-83414314D02*
X163060000Y-83304314D01*
X163280000Y-85284314D02*
X163870000Y-85284314D01*
X163280000Y-84184314D02*
X163870000Y-84184314D01*
X163060000Y-85614314D02*
X163060000Y-85504314D01*
X163060000Y-82751808D02*
X163060000Y-76540000D01*
X164296855Y-88130042D02*
X164714048Y-87712848D01*
X166658593Y-89657394D02*
X166241399Y-90074587D01*
X166241399Y-90074587D02*
G75*
G02*
X165930273Y-90074587I-155563J155564D01*
G01*
X164090000Y-84954314D02*
G75*
G03*
X163870000Y-84734300I-220000J14D01*
G01*
X164636266Y-87323940D02*
G75*
G03*
X164325139Y-87323940I-155564J-155562D01*
G01*
X164296856Y-88441168D02*
G75*
G02*
X164296850Y-88130037I155544J155568D01*
G01*
X163870000Y-85284314D02*
G75*
G03*
X164090014Y-85064314I0J220014D01*
G01*
X164685763Y-88518951D02*
G75*
G02*
X164374637Y-88518951I-155563J155564D01*
G01*
X163060000Y-85504314D02*
G75*
G02*
X163280000Y-85284300I220000J14D01*
G01*
X165491866Y-88490666D02*
G75*
G03*
X165491869Y-88179537I-155566J155566D01*
G01*
X166969720Y-89657394D02*
G75*
G03*
X166658594Y-89657395I-155563J-155562D01*
G01*
X165463581Y-89296769D02*
G75*
G02*
X165152455Y-89296769I-155563J155564D01*
G01*
X167047502Y-90046302D02*
G75*
G03*
X167047541Y-89735137I-155602J155602D01*
G01*
X163060000Y-84404314D02*
G75*
G02*
X163280000Y-84184300I220000J14D01*
G01*
X163280000Y-85834314D02*
G75*
G02*
X163059986Y-85614314I0J220014D01*
G01*
X163280000Y-83634314D02*
G75*
G02*
X163059986Y-83414314I0J220014D01*
G01*
X163060000Y-86604314D02*
G75*
G02*
X163280000Y-86384300I220000J14D01*
G01*
X166269684Y-89268484D02*
G75*
G03*
X166269705Y-88957337I-155584J155584D01*
G01*
X164714048Y-87712848D02*
G75*
G03*
X164714033Y-87401737I-155548J155548D01*
G01*
X165074674Y-89218986D02*
G75*
G02*
X165074650Y-88907837I155526J155586D01*
G01*
X163870000Y-84184314D02*
G75*
G03*
X164090014Y-83964314I0J220014D01*
G01*
X166191902Y-88879576D02*
G75*
G03*
X165880776Y-88879577I-155563J-155562D01*
G01*
X165414084Y-88101758D02*
G75*
G03*
X165102958Y-88101759I-155563J-155562D01*
G01*
X165852491Y-89996805D02*
G75*
G02*
X165852450Y-89685637I155609J155605D01*
G01*
X163870000Y-86384314D02*
G75*
G03*
X164090014Y-86164314I0J220014D01*
G01*
X166630310Y-90774622D02*
G75*
G02*
X166630350Y-90463537I155590J155522D01*
G01*
X164090000Y-86054314D02*
G75*
G03*
X163870000Y-85834300I-220000J14D01*
G01*
X163280000Y-84734314D02*
G75*
G02*
X163059986Y-84514314I0J220014D01*
G01*
X164090000Y-83854314D02*
G75*
G03*
X163870000Y-83634300I-220000J14D01*
G01*
X163907945Y-87741133D02*
G75*
G02*
X163596819Y-87741133I-155563J155564D01*
G01*
X179190000Y-87980000D02*
X177800000Y-86590000D01*
X165800000Y-78420000D02*
X167670000Y-78420000D01*
X175525169Y-86590000D02*
X174762400Y-86590000D01*
X176165169Y-86430000D02*
X176165169Y-86000000D01*
X177680000Y-94000000D02*
X177790000Y-94110000D01*
X174762400Y-86590000D02*
X167390000Y-86590000D01*
X169270000Y-76820000D02*
X169270000Y-75920000D01*
X175820000Y-94000000D02*
X177680000Y-94000000D01*
X165190000Y-79030000D02*
X165800000Y-78420000D01*
X177880000Y-94092500D02*
X177792500Y-94180000D01*
X176005169Y-85840000D02*
X175925169Y-85840000D01*
X167670000Y-78420000D02*
X169270000Y-76820000D01*
X175605169Y-86590000D02*
X175525169Y-86590000D01*
X165190000Y-84390000D02*
X165190000Y-79030000D01*
X177800000Y-86590000D02*
X176325169Y-86590000D01*
X179190000Y-92710000D02*
X179190000Y-87980000D01*
X167390000Y-86590000D02*
X165190000Y-84390000D01*
X175765169Y-86000000D02*
X175765169Y-86430000D01*
X177790000Y-94110000D02*
X179190000Y-92710000D01*
X176325169Y-86590000D02*
G75*
G02*
X176165200Y-86430000I31J160000D01*
G01*
X175925169Y-85840000D02*
G75*
G03*
X175765200Y-86000000I31J-160000D01*
G01*
X176165169Y-86000000D02*
G75*
G03*
X176005169Y-85840031I-159969J0D01*
G01*
X175765169Y-86430000D02*
G75*
G02*
X175605169Y-86589969I-159969J0D01*
G01*
X171994866Y-87250000D02*
X171994866Y-87920000D01*
X163690000Y-82210750D02*
X163690000Y-82330750D01*
X178780000Y-88370000D02*
X178780000Y-90195000D01*
X164690000Y-82930750D02*
X164690000Y-83977441D01*
X164690000Y-80911644D02*
X164690000Y-81730750D01*
X163930000Y-82570750D02*
X164450000Y-82570750D01*
X175820000Y-92730000D02*
X176245000Y-92730000D01*
X173194866Y-87250000D02*
X173194866Y-87920000D01*
X164690000Y-83977441D02*
X164690000Y-84590000D01*
X172834866Y-87010000D02*
X172954866Y-87010000D01*
X163930000Y-80071644D02*
X164450000Y-80071644D01*
X174154866Y-87010000D02*
X174710000Y-87010000D01*
X177420000Y-87010000D02*
X178780000Y-88370000D01*
X164690000Y-78120000D02*
X165620000Y-77190000D01*
X164690000Y-82810750D02*
X164690000Y-82930750D01*
X164690000Y-84590000D02*
X167110000Y-87010000D01*
X164690000Y-79460656D02*
X164690000Y-78120000D01*
X173434866Y-88160000D02*
X173554866Y-88160000D01*
X174034866Y-87010000D02*
X174154866Y-87010000D01*
X172234866Y-88160000D02*
X172354866Y-88160000D01*
X167110000Y-87010000D02*
X171754866Y-87010000D01*
X174710000Y-87010000D02*
X177420000Y-87010000D01*
X163690000Y-80431644D02*
X163690000Y-80311644D01*
X172594866Y-87920000D02*
X172594866Y-87250000D01*
X164690000Y-79831644D02*
X164690000Y-79711644D01*
X164450000Y-80671644D02*
X163930000Y-80671644D01*
X165620000Y-77190000D02*
X166730000Y-77190000D01*
X164450000Y-81970750D02*
X163930000Y-81970750D01*
X173794866Y-87920000D02*
X173794866Y-87250000D01*
X164690000Y-79711644D02*
X164690000Y-79460656D01*
X176245000Y-92730000D02*
X177790000Y-91185000D01*
X178780000Y-90195000D02*
X177790000Y-91185000D01*
X173554866Y-88160000D02*
G75*
G03*
X173794900Y-87920000I34J240000D01*
G01*
X164690000Y-81730750D02*
G75*
G02*
X164450000Y-81970800I-240000J-50D01*
G01*
X173794866Y-87250000D02*
G75*
G02*
X174034866Y-87009966I240034J0D01*
G01*
X173194866Y-87920000D02*
G75*
G03*
X173434866Y-88160034I240034J0D01*
G01*
X172354866Y-88160000D02*
G75*
G03*
X172594900Y-87920000I34J240000D01*
G01*
X163930000Y-80671644D02*
G75*
G02*
X163689956Y-80431644I0J240044D01*
G01*
X164450000Y-82570750D02*
G75*
G02*
X164689950Y-82810750I0J-239950D01*
G01*
X163690000Y-80311644D02*
G75*
G02*
X163930000Y-80071600I240000J44D01*
G01*
X164690000Y-80911644D02*
G75*
G03*
X164450000Y-80671600I-240000J44D01*
G01*
X172594866Y-87250000D02*
G75*
G02*
X172834866Y-87009966I240034J0D01*
G01*
X163690000Y-82330750D02*
G75*
G03*
X163930000Y-82570800I240000J-50D01*
G01*
X171754866Y-87010000D02*
G75*
G02*
X171994900Y-87250000I34J-240000D01*
G01*
X172954866Y-87010000D02*
G75*
G02*
X173194900Y-87250000I34J-240000D01*
G01*
X171994866Y-87920000D02*
G75*
G03*
X172234866Y-88160034I240034J0D01*
G01*
X164450000Y-80071644D02*
G75*
G03*
X164690044Y-79831644I0J240044D01*
G01*
X163930000Y-81970750D02*
G75*
G03*
X163690050Y-82210750I0J-239950D01*
G01*
X169030000Y-92730000D02*
X168800000Y-92960000D01*
X164370000Y-73600000D02*
X167525000Y-73600000D01*
X170460000Y-77270000D02*
X169270000Y-78460000D01*
X170460000Y-75185075D02*
X170460000Y-77270000D01*
X166179869Y-92091949D02*
X166102087Y-92014167D01*
X168800000Y-92960000D02*
X168250001Y-92960000D01*
X170740000Y-92730000D02*
X169030000Y-92730000D01*
X162660000Y-87369999D02*
X162660000Y-75310000D01*
X168287500Y-92910000D02*
X168190000Y-92812500D01*
X168102500Y-92812500D02*
X168190000Y-92812500D01*
X168605000Y-74680000D02*
X169954925Y-74680000D01*
X166392001Y-91102000D02*
X166314220Y-91024219D01*
X166780910Y-91802036D02*
X166490997Y-92091950D01*
X162660000Y-75310000D02*
X164370000Y-73600000D01*
X168250001Y-92960000D02*
X167092038Y-91802037D01*
X169954925Y-74680000D02*
X170460000Y-75185075D01*
X167525000Y-73600000D02*
X168605000Y-74680000D01*
X166106720Y-90816719D02*
X162660000Y-87369999D01*
X166102088Y-91703041D02*
X166392000Y-91413126D01*
X166314220Y-91024219D02*
X166106720Y-90816719D01*
X167092038Y-91802037D02*
G75*
G03*
X166780937Y-91802063I-155538J-155563D01*
G01*
X166490997Y-92091950D02*
G75*
G02*
X166179836Y-92091982I-155597J155550D01*
G01*
X166392000Y-91413126D02*
G75*
G03*
X166391963Y-91102038I-155600J155526D01*
G01*
X166102088Y-92014166D02*
G75*
G02*
X166102084Y-91703037I155512J155566D01*
G01*
X162890000Y-73200000D02*
X162260000Y-73830000D01*
X169090000Y-73200000D02*
X162890000Y-73200000D01*
X163690000Y-95420000D02*
X168400000Y-95420000D01*
X170740000Y-95270000D02*
X168550000Y-95270000D01*
X168550000Y-95270000D02*
X168400000Y-95420000D01*
X162260000Y-73830000D02*
X162260000Y-93990000D01*
X170606470Y-95450000D02*
X170610735Y-95445735D01*
X169270000Y-73380000D02*
X169090000Y-73200000D01*
X162260000Y-93990000D02*
X163690000Y-95420000D01*
X157190000Y-65490000D02*
X155994900Y-64294900D01*
X155994900Y-61095100D02*
X156732500Y-60357500D01*
X158280000Y-65490000D02*
X157190000Y-65490000D01*
X159080000Y-67605000D02*
X159080000Y-66290000D01*
X165292500Y-60357500D02*
X166625000Y-59025000D01*
X159080000Y-66290000D02*
X158280000Y-65490000D01*
X158230000Y-60357500D02*
X165292500Y-60357500D01*
X156732500Y-60357500D02*
X158230000Y-60357500D01*
X155994900Y-64294900D02*
X155994900Y-61095100D01*
X157830000Y-67585000D02*
X157810000Y-67605000D01*
X157830000Y-66090000D02*
X157830000Y-67585000D01*
X156620000Y-64060000D02*
X156690000Y-64060000D01*
X156690000Y-64060000D02*
X157467500Y-63282500D01*
X166177500Y-63282500D02*
X169165000Y-60295000D01*
X157467500Y-63282500D02*
X166177500Y-63282500D01*
X157467500Y-63282500D02*
X158230000Y-63282500D01*
X159080000Y-74430000D02*
X159715000Y-75065000D01*
X170045000Y-105635000D02*
X183915000Y-119505000D01*
X159715000Y-105025000D02*
X162535000Y-107845000D01*
X162535000Y-107845000D02*
X172255000Y-107845000D01*
X159080000Y-73005000D02*
X159080000Y-74430000D01*
X159715000Y-75065000D02*
X159715000Y-105025000D01*
X170045000Y-99830000D02*
X170045000Y-105635000D01*
X170615000Y-99260000D02*
X170045000Y-99830000D01*
X132282500Y-114280000D02*
X132252500Y-114310000D01*
X157265000Y-106855000D02*
X159585000Y-109175000D01*
X159585000Y-109175000D02*
X171695000Y-109175000D01*
X157265000Y-74199900D02*
X157265000Y-106855000D01*
X156540000Y-73474900D02*
X157265000Y-74199900D01*
X171695000Y-109175000D02*
X176295000Y-113775000D01*
X176295000Y-113775000D02*
X176295000Y-119505000D01*
X156540000Y-73005000D02*
X156540000Y-73474900D01*
X169760000Y-99110000D02*
X168675000Y-100195000D01*
X169760000Y-98491550D02*
X169760000Y-99110000D01*
X168675000Y-100195000D02*
X168675000Y-100720000D01*
X170740000Y-97810000D02*
X170441550Y-97810000D01*
X170441550Y-97810000D02*
X169760000Y-98491550D01*
X168675000Y-100720000D02*
X168675000Y-104265000D01*
X160385000Y-74635000D02*
X160350000Y-74600000D01*
X160350000Y-74600000D02*
X160350000Y-73005000D01*
X175695000Y-103665000D02*
X176295000Y-104265000D01*
X175695000Y-99205000D02*
X175695000Y-103665000D01*
X175820000Y-99080000D02*
X175695000Y-99205000D01*
X171847500Y-91237500D02*
X171847500Y-103632500D01*
X170980000Y-90370000D02*
X171847500Y-91237500D01*
X171847500Y-103632500D02*
X171215000Y-104265000D01*
X170615000Y-90370000D02*
X170980000Y-90370000D01*
X154715000Y-120495000D02*
X155595000Y-121375000D01*
X156545000Y-67600000D02*
X156540000Y-67605000D01*
X155595000Y-121375000D02*
X176965000Y-121375000D01*
X154715000Y-69430000D02*
X154715000Y-120495000D01*
X156540000Y-67605000D02*
X154715000Y-69430000D01*
X176965000Y-121375000D02*
X178835000Y-119505000D01*
X175695000Y-91640000D02*
X175410000Y-91640000D01*
X175410000Y-91640000D02*
X173755000Y-93295000D01*
X173755000Y-93295000D02*
X173755000Y-104265000D01*
X129670000Y-113967500D02*
X129327500Y-114310000D01*
X129670000Y-109890000D02*
X129670000Y-113967500D01*
M02*
