G04 #@! TF.GenerationSoftware,KiCad,Pcbnew,8.0.0*
G04 #@! TF.CreationDate,2024-08-30T13:19:30-05:00*
G04 #@! TF.ProjectId,Rain and Switches Control Board,5261696e-2061-46e6-9420-537769746368,rev?*
G04 #@! TF.SameCoordinates,Original*
G04 #@! TF.FileFunction,Copper,L2,Bot*
G04 #@! TF.FilePolarity,Positive*
%FSLAX46Y46*%
G04 Gerber Fmt 4.6, Leading zero omitted, Abs format (unit mm)*
G04 Created by KiCad (PCBNEW 8.0.0) date 2024-08-30 13:19:30*
%MOMM*%
%LPD*%
G01*
G04 APERTURE LIST*
G04 #@! TA.AperFunction,ComponentPad*
%ADD10R,1.800000X1.800000*%
G04 #@! TD*
G04 #@! TA.AperFunction,ComponentPad*
%ADD11C,1.800000*%
G04 #@! TD*
G04 #@! TA.AperFunction,ComponentPad*
%ADD12R,1.980000X3.960000*%
G04 #@! TD*
G04 #@! TA.AperFunction,ComponentPad*
%ADD13O,1.980000X3.960000*%
G04 #@! TD*
G04 #@! TA.AperFunction,ComponentPad*
%ADD14R,1.500000X1.500000*%
G04 #@! TD*
G04 #@! TA.AperFunction,ComponentPad*
%ADD15C,1.500000*%
G04 #@! TD*
G04 #@! TA.AperFunction,ComponentPad*
%ADD16C,3.000000*%
G04 #@! TD*
G04 #@! TA.AperFunction,ComponentPad*
%ADD17R,3.000000X1.500000*%
G04 #@! TD*
G04 #@! TA.AperFunction,ComponentPad*
%ADD18O,3.000000X1.500000*%
G04 #@! TD*
G04 #@! TA.AperFunction,ComponentPad*
%ADD19C,1.265000*%
G04 #@! TD*
G04 #@! TA.AperFunction,ViaPad*
%ADD20C,0.600000*%
G04 #@! TD*
G04 #@! TA.AperFunction,Conductor*
%ADD21C,0.200000*%
G04 #@! TD*
G04 APERTURE END LIST*
D10*
X140180000Y-93350000D03*
D11*
X140180000Y-95890000D03*
X140180000Y-98430000D03*
D12*
X158140000Y-139250000D03*
D13*
X153140000Y-139250000D03*
D14*
X169270000Y-81000000D03*
D15*
X166730000Y-79730000D03*
X169270000Y-78460000D03*
X166730000Y-77190000D03*
X169270000Y-75920000D03*
X166730000Y-74650000D03*
X169270000Y-73380000D03*
X166730000Y-72110000D03*
D16*
X178670000Y-84325000D03*
X178670000Y-68785000D03*
D10*
X132210000Y-109890000D03*
D11*
X129670000Y-109890000D03*
D17*
X178800000Y-37285000D03*
X170600000Y-37285000D03*
D18*
X178800000Y-42285000D03*
X170600000Y-42285000D03*
D12*
X182620000Y-139250000D03*
D13*
X177620000Y-139250000D03*
D14*
X169165000Y-60295000D03*
D15*
X166625000Y-59025000D03*
X169165000Y-57755000D03*
X166625000Y-56485000D03*
X169165000Y-55215000D03*
X166625000Y-53945000D03*
X169165000Y-52675000D03*
X166625000Y-51405000D03*
D16*
X178565000Y-63620000D03*
X178565000Y-48080000D03*
D19*
X183915000Y-104265000D03*
X181375000Y-104265000D03*
X178835000Y-104265000D03*
X176295000Y-104265000D03*
X173755000Y-104265000D03*
X171215000Y-104265000D03*
X168675000Y-104265000D03*
X166135000Y-104265000D03*
X163595000Y-104265000D03*
X161055000Y-104265000D03*
X158515000Y-104265000D03*
X155975000Y-104265000D03*
X153435000Y-104265000D03*
X150895000Y-104265000D03*
X150895000Y-106805000D03*
X150895000Y-109345000D03*
X150895000Y-111885000D03*
X150895000Y-114425000D03*
X150895000Y-116965000D03*
X150895000Y-119505000D03*
X153435000Y-119505000D03*
X155975000Y-119505000D03*
X158515000Y-119505000D03*
X161055000Y-119505000D03*
X163595000Y-119505000D03*
X166135000Y-119505000D03*
X168675000Y-119505000D03*
X171215000Y-119505000D03*
X173755000Y-119505000D03*
X176295000Y-119505000D03*
X178835000Y-119505000D03*
X181375000Y-119505000D03*
X183915000Y-119505000D03*
D12*
X133660000Y-139250000D03*
D13*
X128660000Y-139250000D03*
D12*
X145900000Y-139250000D03*
D13*
X140900000Y-139250000D03*
D12*
X170380000Y-139250000D03*
D13*
X165380000Y-139250000D03*
D20*
X175705000Y-89495735D03*
X161495000Y-70355000D03*
X169570000Y-94195000D03*
X157830000Y-66090000D03*
X156620000Y-64060000D03*
X160385000Y-74635000D03*
D21*
X177620000Y-139250000D02*
X177620000Y-133530000D01*
X177620000Y-133530000D02*
X163595000Y-119505000D01*
X165380000Y-123830000D02*
X161055000Y-119505000D01*
X165380000Y-139250000D02*
X165380000Y-123830000D01*
X153140000Y-124880000D02*
X158515000Y-119505000D01*
X153140000Y-139250000D02*
X153140000Y-124880000D01*
X140900000Y-134580000D02*
X155975000Y-119505000D01*
X140900000Y-139250000D02*
X140900000Y-134580000D01*
X128660000Y-135390000D02*
X131520000Y-132530000D01*
X131520000Y-132530000D02*
X140410000Y-132530000D01*
X128660000Y-139250000D02*
X128660000Y-135390000D01*
X140410000Y-132530000D02*
X153435000Y-119505000D01*
X156620000Y-64060000D02*
X157830000Y-65270000D01*
X157830000Y-65270000D02*
X157830000Y-66090000D01*
X160385000Y-74635000D02*
X160385000Y-100635000D01*
X162335000Y-102585000D02*
X162335000Y-108085000D01*
X160385000Y-100635000D02*
X162335000Y-102585000D01*
X162335000Y-108085000D02*
X173755000Y-119505000D01*
X178895000Y-119565000D02*
X178835000Y-119505000D01*
G04 #@! TA.AperFunction,Conductor*
G36*
X185642539Y-23910185D02*
G01*
X185688294Y-23962989D01*
X185699500Y-24014500D01*
X185699500Y-148455500D01*
X185679815Y-148522539D01*
X185627011Y-148568294D01*
X185575500Y-148579500D01*
X125124500Y-148579500D01*
X125057461Y-148559815D01*
X125011706Y-148507011D01*
X125000500Y-148455500D01*
X125000500Y-140357304D01*
X127169500Y-140357304D01*
X127206201Y-140589027D01*
X127278697Y-140812150D01*
X127385212Y-141021195D01*
X127523104Y-141210989D01*
X127523108Y-141210994D01*
X127689005Y-141376891D01*
X127689010Y-141376895D01*
X127820031Y-141472086D01*
X127878808Y-141514790D01*
X128020895Y-141587187D01*
X128087849Y-141621302D01*
X128199410Y-141657550D01*
X128310974Y-141693799D01*
X128542695Y-141730500D01*
X128542696Y-141730500D01*
X128777304Y-141730500D01*
X128777305Y-141730500D01*
X129009026Y-141693799D01*
X129232153Y-141621301D01*
X129441192Y-141514790D01*
X129630996Y-141376890D01*
X129796890Y-141210996D01*
X129934790Y-141021192D01*
X130041301Y-140812153D01*
X130113799Y-140589026D01*
X130150500Y-140357305D01*
X130150500Y-140240000D01*
X132170000Y-140240000D01*
X132170000Y-141277844D01*
X132176401Y-141337372D01*
X132176403Y-141337379D01*
X132226645Y-141472086D01*
X132226649Y-141472093D01*
X132312809Y-141587187D01*
X132312812Y-141587190D01*
X132427906Y-141673350D01*
X132427913Y-141673354D01*
X132562620Y-141723596D01*
X132562627Y-141723598D01*
X132622155Y-141729999D01*
X132622172Y-141730000D01*
X132670000Y-141730000D01*
X132670000Y-140240000D01*
X134650000Y-140240000D01*
X134650000Y-141730000D01*
X134697828Y-141730000D01*
X134697844Y-141729999D01*
X134757372Y-141723598D01*
X134757379Y-141723596D01*
X134892086Y-141673354D01*
X134892093Y-141673350D01*
X135007187Y-141587190D01*
X135007190Y-141587187D01*
X135093350Y-141472093D01*
X135093354Y-141472086D01*
X135143596Y-141337379D01*
X135143598Y-141337372D01*
X135149999Y-141277844D01*
X135150000Y-141277827D01*
X135150000Y-140240000D01*
X134650000Y-140240000D01*
X132670000Y-140240000D01*
X132170000Y-140240000D01*
X130150500Y-140240000D01*
X130150500Y-139315004D01*
X133000000Y-139315004D01*
X133025364Y-139442515D01*
X133075116Y-139562627D01*
X133147345Y-139670725D01*
X133239275Y-139762655D01*
X133347373Y-139834884D01*
X133467485Y-139884636D01*
X133594996Y-139910000D01*
X133725004Y-139910000D01*
X133852515Y-139884636D01*
X133972627Y-139834884D01*
X134080725Y-139762655D01*
X134172655Y-139670725D01*
X134244884Y-139562627D01*
X134294636Y-139442515D01*
X134320000Y-139315004D01*
X134320000Y-139184996D01*
X134294636Y-139057485D01*
X134244884Y-138937373D01*
X134172655Y-138829275D01*
X134080725Y-138737345D01*
X133972627Y-138665116D01*
X133852515Y-138615364D01*
X133725004Y-138590000D01*
X133594996Y-138590000D01*
X133467485Y-138615364D01*
X133347373Y-138665116D01*
X133239275Y-138737345D01*
X133147345Y-138829275D01*
X133075116Y-138937373D01*
X133025364Y-139057485D01*
X133000000Y-139184996D01*
X133000000Y-139315004D01*
X130150500Y-139315004D01*
X130150500Y-138260000D01*
X132170000Y-138260000D01*
X132670000Y-138260000D01*
X132670000Y-136770000D01*
X134650000Y-136770000D01*
X134650000Y-138260000D01*
X135150000Y-138260000D01*
X135150000Y-137222172D01*
X135149999Y-137222155D01*
X135143598Y-137162627D01*
X135143596Y-137162620D01*
X135093354Y-137027913D01*
X135093350Y-137027906D01*
X135007190Y-136912812D01*
X135007187Y-136912809D01*
X134892093Y-136826649D01*
X134892086Y-136826645D01*
X134757379Y-136776403D01*
X134757372Y-136776401D01*
X134697844Y-136770000D01*
X134650000Y-136770000D01*
X132670000Y-136770000D01*
X132622155Y-136770000D01*
X132562627Y-136776401D01*
X132562620Y-136776403D01*
X132427913Y-136826645D01*
X132427906Y-136826649D01*
X132312812Y-136912809D01*
X132312809Y-136912812D01*
X132226649Y-137027906D01*
X132226645Y-137027913D01*
X132176403Y-137162620D01*
X132176401Y-137162627D01*
X132170000Y-137222155D01*
X132170000Y-138260000D01*
X130150500Y-138260000D01*
X130150500Y-138142695D01*
X130113799Y-137910974D01*
X130041301Y-137687847D01*
X129934790Y-137478808D01*
X129917171Y-137454558D01*
X129796895Y-137289010D01*
X129796891Y-137289005D01*
X129630994Y-137123108D01*
X129630989Y-137123104D01*
X129441193Y-136985210D01*
X129328204Y-136927638D01*
X129277409Y-136879663D01*
X129260500Y-136817154D01*
X129260500Y-135690097D01*
X129280185Y-135623058D01*
X129296819Y-135602416D01*
X131732417Y-133166819D01*
X131793740Y-133133334D01*
X131820098Y-133130500D01*
X140323331Y-133130500D01*
X140323347Y-133130501D01*
X140330943Y-133130501D01*
X140489054Y-133130501D01*
X140489057Y-133130501D01*
X140641785Y-133089577D01*
X140691904Y-133060639D01*
X140778716Y-133010520D01*
X140890520Y-132898716D01*
X140890520Y-132898714D01*
X140900728Y-132888507D01*
X140900729Y-132888504D01*
X153133175Y-120656059D01*
X153194496Y-120622576D01*
X153243638Y-120621854D01*
X153330012Y-120638000D01*
X153330013Y-120638000D01*
X153539986Y-120638000D01*
X153539988Y-120638000D01*
X153703248Y-120607481D01*
X153772761Y-120614512D01*
X153827439Y-120658009D01*
X153849922Y-120724163D01*
X153833069Y-120791970D01*
X153813712Y-120817051D01*
X140531286Y-134099478D01*
X140419481Y-134211282D01*
X140419479Y-134211285D01*
X140369361Y-134298094D01*
X140369359Y-134298096D01*
X140340425Y-134348209D01*
X140340424Y-134348210D01*
X140340423Y-134348215D01*
X140299499Y-134500943D01*
X140299499Y-134500945D01*
X140299499Y-134669046D01*
X140299500Y-134669059D01*
X140299500Y-136817154D01*
X140279815Y-136884193D01*
X140231796Y-136927638D01*
X140118806Y-136985210D01*
X139929010Y-137123104D01*
X139929005Y-137123108D01*
X139763108Y-137289005D01*
X139763104Y-137289010D01*
X139625212Y-137478804D01*
X139518697Y-137687849D01*
X139446201Y-137910972D01*
X139409500Y-138142695D01*
X139409500Y-140357304D01*
X139446201Y-140589027D01*
X139518697Y-140812150D01*
X139625212Y-141021195D01*
X139763104Y-141210989D01*
X139763108Y-141210994D01*
X139929005Y-141376891D01*
X139929010Y-141376895D01*
X140060031Y-141472086D01*
X140118808Y-141514790D01*
X140260895Y-141587187D01*
X140327849Y-141621302D01*
X140439410Y-141657550D01*
X140550974Y-141693799D01*
X140782695Y-141730500D01*
X140782696Y-141730500D01*
X141017304Y-141730500D01*
X141017305Y-141730500D01*
X141249026Y-141693799D01*
X141472153Y-141621301D01*
X141681192Y-141514790D01*
X141870996Y-141376890D01*
X142036890Y-141210996D01*
X142174790Y-141021192D01*
X142281301Y-140812153D01*
X142353799Y-140589026D01*
X142390500Y-140357305D01*
X142390500Y-140240000D01*
X144410000Y-140240000D01*
X144410000Y-141277844D01*
X144416401Y-141337372D01*
X144416403Y-141337379D01*
X144466645Y-141472086D01*
X144466649Y-141472093D01*
X144552809Y-141587187D01*
X144552812Y-141587190D01*
X144667906Y-141673350D01*
X144667913Y-141673354D01*
X144802620Y-141723596D01*
X144802627Y-141723598D01*
X144862155Y-141729999D01*
X144862172Y-141730000D01*
X144910000Y-141730000D01*
X144910000Y-140240000D01*
X146890000Y-140240000D01*
X146890000Y-141730000D01*
X146937828Y-141730000D01*
X146937844Y-141729999D01*
X146997372Y-141723598D01*
X146997379Y-141723596D01*
X147132086Y-141673354D01*
X147132093Y-141673350D01*
X147247187Y-141587190D01*
X147247190Y-141587187D01*
X147333350Y-141472093D01*
X147333354Y-141472086D01*
X147383596Y-141337379D01*
X147383598Y-141337372D01*
X147389999Y-141277844D01*
X147390000Y-141277827D01*
X147390000Y-140240000D01*
X146890000Y-140240000D01*
X144910000Y-140240000D01*
X144410000Y-140240000D01*
X142390500Y-140240000D01*
X142390500Y-139315004D01*
X145240000Y-139315004D01*
X145265364Y-139442515D01*
X145315116Y-139562627D01*
X145387345Y-139670725D01*
X145479275Y-139762655D01*
X145587373Y-139834884D01*
X145707485Y-139884636D01*
X145834996Y-139910000D01*
X145965004Y-139910000D01*
X146092515Y-139884636D01*
X146212627Y-139834884D01*
X146320725Y-139762655D01*
X146412655Y-139670725D01*
X146484884Y-139562627D01*
X146534636Y-139442515D01*
X146560000Y-139315004D01*
X146560000Y-139184996D01*
X146534636Y-139057485D01*
X146484884Y-138937373D01*
X146412655Y-138829275D01*
X146320725Y-138737345D01*
X146212627Y-138665116D01*
X146092515Y-138615364D01*
X145965004Y-138590000D01*
X145834996Y-138590000D01*
X145707485Y-138615364D01*
X145587373Y-138665116D01*
X145479275Y-138737345D01*
X145387345Y-138829275D01*
X145315116Y-138937373D01*
X145265364Y-139057485D01*
X145240000Y-139184996D01*
X145240000Y-139315004D01*
X142390500Y-139315004D01*
X142390500Y-138260000D01*
X144410000Y-138260000D01*
X144910000Y-138260000D01*
X144910000Y-136770000D01*
X146890000Y-136770000D01*
X146890000Y-138260000D01*
X147390000Y-138260000D01*
X147390000Y-137222172D01*
X147389999Y-137222155D01*
X147383598Y-137162627D01*
X147383596Y-137162620D01*
X147333354Y-137027913D01*
X147333350Y-137027906D01*
X147247190Y-136912812D01*
X147247187Y-136912809D01*
X147132093Y-136826649D01*
X147132086Y-136826645D01*
X146997379Y-136776403D01*
X146997372Y-136776401D01*
X146937844Y-136770000D01*
X146890000Y-136770000D01*
X144910000Y-136770000D01*
X144862155Y-136770000D01*
X144802627Y-136776401D01*
X144802620Y-136776403D01*
X144667913Y-136826645D01*
X144667906Y-136826649D01*
X144552812Y-136912809D01*
X144552809Y-136912812D01*
X144466649Y-137027906D01*
X144466645Y-137027913D01*
X144416403Y-137162620D01*
X144416401Y-137162627D01*
X144410000Y-137222155D01*
X144410000Y-138260000D01*
X142390500Y-138260000D01*
X142390500Y-138142695D01*
X142353799Y-137910974D01*
X142281301Y-137687847D01*
X142174790Y-137478808D01*
X142157171Y-137454558D01*
X142036895Y-137289010D01*
X142036891Y-137289005D01*
X141870994Y-137123108D01*
X141870989Y-137123104D01*
X141681193Y-136985210D01*
X141568204Y-136927638D01*
X141517409Y-136879663D01*
X141500500Y-136817154D01*
X141500500Y-134880096D01*
X141520185Y-134813057D01*
X141536814Y-134792420D01*
X155673174Y-120656059D01*
X155734495Y-120622576D01*
X155783633Y-120621853D01*
X155870012Y-120638000D01*
X155870015Y-120638000D01*
X156079986Y-120638000D01*
X156079988Y-120638000D01*
X156243248Y-120607481D01*
X156312761Y-120614512D01*
X156367439Y-120658009D01*
X156389922Y-120724163D01*
X156373069Y-120791970D01*
X156353712Y-120817051D01*
X152771286Y-124399478D01*
X152659481Y-124511282D01*
X152659479Y-124511285D01*
X152609361Y-124598094D01*
X152609359Y-124598096D01*
X152580425Y-124648209D01*
X152580424Y-124648210D01*
X152580423Y-124648215D01*
X152539499Y-124800943D01*
X152539499Y-124800945D01*
X152539499Y-124969046D01*
X152539500Y-124969059D01*
X152539500Y-136817154D01*
X152519815Y-136884193D01*
X152471796Y-136927638D01*
X152358806Y-136985210D01*
X152169010Y-137123104D01*
X152169005Y-137123108D01*
X152003108Y-137289005D01*
X152003104Y-137289010D01*
X151865212Y-137478804D01*
X151758697Y-137687849D01*
X151686201Y-137910972D01*
X151649500Y-138142695D01*
X151649500Y-140357304D01*
X151686201Y-140589027D01*
X151758697Y-140812150D01*
X151865212Y-141021195D01*
X152003104Y-141210989D01*
X152003108Y-141210994D01*
X152169005Y-141376891D01*
X152169010Y-141376895D01*
X152300031Y-141472086D01*
X152358808Y-141514790D01*
X152500895Y-141587187D01*
X152567849Y-141621302D01*
X152679410Y-141657550D01*
X152790974Y-141693799D01*
X153022695Y-141730500D01*
X153022696Y-141730500D01*
X153257304Y-141730500D01*
X153257305Y-141730500D01*
X153489026Y-141693799D01*
X153712153Y-141621301D01*
X153921192Y-141514790D01*
X154110996Y-141376890D01*
X154276890Y-141210996D01*
X154414790Y-141021192D01*
X154521301Y-140812153D01*
X154593799Y-140589026D01*
X154630500Y-140357305D01*
X154630500Y-140240000D01*
X156650000Y-140240000D01*
X156650000Y-141277844D01*
X156656401Y-141337372D01*
X156656403Y-141337379D01*
X156706645Y-141472086D01*
X156706649Y-141472093D01*
X156792809Y-141587187D01*
X156792812Y-141587190D01*
X156907906Y-141673350D01*
X156907913Y-141673354D01*
X157042620Y-141723596D01*
X157042627Y-141723598D01*
X157102155Y-141729999D01*
X157102172Y-141730000D01*
X157150000Y-141730000D01*
X157150000Y-140240000D01*
X159130000Y-140240000D01*
X159130000Y-141730000D01*
X159177828Y-141730000D01*
X159177844Y-141729999D01*
X159237372Y-141723598D01*
X159237379Y-141723596D01*
X159372086Y-141673354D01*
X159372093Y-141673350D01*
X159487187Y-141587190D01*
X159487190Y-141587187D01*
X159573350Y-141472093D01*
X159573354Y-141472086D01*
X159623596Y-141337379D01*
X159623598Y-141337372D01*
X159629999Y-141277844D01*
X159630000Y-141277827D01*
X159630000Y-140240000D01*
X159130000Y-140240000D01*
X157150000Y-140240000D01*
X156650000Y-140240000D01*
X154630500Y-140240000D01*
X154630500Y-139315004D01*
X157480000Y-139315004D01*
X157505364Y-139442515D01*
X157555116Y-139562627D01*
X157627345Y-139670725D01*
X157719275Y-139762655D01*
X157827373Y-139834884D01*
X157947485Y-139884636D01*
X158074996Y-139910000D01*
X158205004Y-139910000D01*
X158332515Y-139884636D01*
X158452627Y-139834884D01*
X158560725Y-139762655D01*
X158652655Y-139670725D01*
X158724884Y-139562627D01*
X158774636Y-139442515D01*
X158800000Y-139315004D01*
X158800000Y-139184996D01*
X158774636Y-139057485D01*
X158724884Y-138937373D01*
X158652655Y-138829275D01*
X158560725Y-138737345D01*
X158452627Y-138665116D01*
X158332515Y-138615364D01*
X158205004Y-138590000D01*
X158074996Y-138590000D01*
X157947485Y-138615364D01*
X157827373Y-138665116D01*
X157719275Y-138737345D01*
X157627345Y-138829275D01*
X157555116Y-138937373D01*
X157505364Y-139057485D01*
X157480000Y-139184996D01*
X157480000Y-139315004D01*
X154630500Y-139315004D01*
X154630500Y-138260000D01*
X156650000Y-138260000D01*
X157150000Y-138260000D01*
X157150000Y-136770000D01*
X159130000Y-136770000D01*
X159130000Y-138260000D01*
X159630000Y-138260000D01*
X159630000Y-137222172D01*
X159629999Y-137222155D01*
X159623598Y-137162627D01*
X159623596Y-137162620D01*
X159573354Y-137027913D01*
X159573350Y-137027906D01*
X159487190Y-136912812D01*
X159487187Y-136912809D01*
X159372093Y-136826649D01*
X159372086Y-136826645D01*
X159237379Y-136776403D01*
X159237372Y-136776401D01*
X159177844Y-136770000D01*
X159130000Y-136770000D01*
X157150000Y-136770000D01*
X157102155Y-136770000D01*
X157042627Y-136776401D01*
X157042620Y-136776403D01*
X156907913Y-136826645D01*
X156907906Y-136826649D01*
X156792812Y-136912809D01*
X156792809Y-136912812D01*
X156706649Y-137027906D01*
X156706645Y-137027913D01*
X156656403Y-137162620D01*
X156656401Y-137162627D01*
X156650000Y-137222155D01*
X156650000Y-138260000D01*
X154630500Y-138260000D01*
X154630500Y-138142695D01*
X154593799Y-137910974D01*
X154521301Y-137687847D01*
X154414790Y-137478808D01*
X154397171Y-137454558D01*
X154276895Y-137289010D01*
X154276891Y-137289005D01*
X154110994Y-137123108D01*
X154110989Y-137123104D01*
X153921193Y-136985210D01*
X153808204Y-136927638D01*
X153757409Y-136879663D01*
X153740500Y-136817154D01*
X153740500Y-125180096D01*
X153760185Y-125113057D01*
X153776814Y-125092420D01*
X158213174Y-120656059D01*
X158274495Y-120622576D01*
X158323633Y-120621853D01*
X158410012Y-120638000D01*
X158410015Y-120638000D01*
X158619986Y-120638000D01*
X158619988Y-120638000D01*
X158826389Y-120599417D01*
X159022185Y-120523565D01*
X159200710Y-120413027D01*
X159355884Y-120271567D01*
X159482423Y-120104003D01*
X159576017Y-119916040D01*
X159633480Y-119714080D01*
X159652854Y-119505000D01*
X159917146Y-119505000D01*
X159936519Y-119714079D01*
X159993982Y-119916037D01*
X159993987Y-119916050D01*
X160087577Y-120104003D01*
X160214117Y-120271569D01*
X160369289Y-120413026D01*
X160369291Y-120413028D01*
X160547811Y-120523563D01*
X160547812Y-120523563D01*
X160547815Y-120523565D01*
X160743611Y-120599417D01*
X160950012Y-120638000D01*
X160950014Y-120638000D01*
X161159987Y-120638000D01*
X161159988Y-120638000D01*
X161246359Y-120621854D01*
X161315873Y-120628884D01*
X161356825Y-120656061D01*
X164743181Y-124042416D01*
X164776666Y-124103739D01*
X164779500Y-124130097D01*
X164779500Y-136817154D01*
X164759815Y-136884193D01*
X164711796Y-136927638D01*
X164598806Y-136985210D01*
X164409010Y-137123104D01*
X164409005Y-137123108D01*
X164243108Y-137289005D01*
X164243104Y-137289010D01*
X164105212Y-137478804D01*
X163998697Y-137687849D01*
X163926201Y-137910972D01*
X163889500Y-138142695D01*
X163889500Y-140357304D01*
X163926201Y-140589027D01*
X163998697Y-140812150D01*
X164105212Y-141021195D01*
X164243104Y-141210989D01*
X164243108Y-141210994D01*
X164409005Y-141376891D01*
X164409010Y-141376895D01*
X164540031Y-141472086D01*
X164598808Y-141514790D01*
X164740895Y-141587187D01*
X164807849Y-141621302D01*
X164919410Y-141657550D01*
X165030974Y-141693799D01*
X165262695Y-141730500D01*
X165262696Y-141730500D01*
X165497304Y-141730500D01*
X165497305Y-141730500D01*
X165729026Y-141693799D01*
X165952153Y-141621301D01*
X166161192Y-141514790D01*
X166350996Y-141376890D01*
X166516890Y-141210996D01*
X166654790Y-141021192D01*
X166761301Y-140812153D01*
X166833799Y-140589026D01*
X166870500Y-140357305D01*
X166870500Y-140240000D01*
X168890000Y-140240000D01*
X168890000Y-141277844D01*
X168896401Y-141337372D01*
X168896403Y-141337379D01*
X168946645Y-141472086D01*
X168946649Y-141472093D01*
X169032809Y-141587187D01*
X169032812Y-141587190D01*
X169147906Y-141673350D01*
X169147913Y-141673354D01*
X169282620Y-141723596D01*
X169282627Y-141723598D01*
X169342155Y-141729999D01*
X169342172Y-141730000D01*
X169390000Y-141730000D01*
X169390000Y-140240000D01*
X171370000Y-140240000D01*
X171370000Y-141730000D01*
X171417828Y-141730000D01*
X171417844Y-141729999D01*
X171477372Y-141723598D01*
X171477379Y-141723596D01*
X171612086Y-141673354D01*
X171612093Y-141673350D01*
X171727187Y-141587190D01*
X171727190Y-141587187D01*
X171813350Y-141472093D01*
X171813354Y-141472086D01*
X171863596Y-141337379D01*
X171863598Y-141337372D01*
X171869999Y-141277844D01*
X171870000Y-141277827D01*
X171870000Y-140240000D01*
X171370000Y-140240000D01*
X169390000Y-140240000D01*
X168890000Y-140240000D01*
X166870500Y-140240000D01*
X166870500Y-139315004D01*
X169720000Y-139315004D01*
X169745364Y-139442515D01*
X169795116Y-139562627D01*
X169867345Y-139670725D01*
X169959275Y-139762655D01*
X170067373Y-139834884D01*
X170187485Y-139884636D01*
X170314996Y-139910000D01*
X170445004Y-139910000D01*
X170572515Y-139884636D01*
X170692627Y-139834884D01*
X170800725Y-139762655D01*
X170892655Y-139670725D01*
X170964884Y-139562627D01*
X171014636Y-139442515D01*
X171040000Y-139315004D01*
X171040000Y-139184996D01*
X171014636Y-139057485D01*
X170964884Y-138937373D01*
X170892655Y-138829275D01*
X170800725Y-138737345D01*
X170692627Y-138665116D01*
X170572515Y-138615364D01*
X170445004Y-138590000D01*
X170314996Y-138590000D01*
X170187485Y-138615364D01*
X170067373Y-138665116D01*
X169959275Y-138737345D01*
X169867345Y-138829275D01*
X169795116Y-138937373D01*
X169745364Y-139057485D01*
X169720000Y-139184996D01*
X169720000Y-139315004D01*
X166870500Y-139315004D01*
X166870500Y-138260000D01*
X168890000Y-138260000D01*
X169390000Y-138260000D01*
X169390000Y-136770000D01*
X171370000Y-136770000D01*
X171370000Y-138260000D01*
X171870000Y-138260000D01*
X171870000Y-137222172D01*
X171869999Y-137222155D01*
X171863598Y-137162627D01*
X171863596Y-137162620D01*
X171813354Y-137027913D01*
X171813350Y-137027906D01*
X171727190Y-136912812D01*
X171727187Y-136912809D01*
X171612093Y-136826649D01*
X171612086Y-136826645D01*
X171477379Y-136776403D01*
X171477372Y-136776401D01*
X171417844Y-136770000D01*
X171370000Y-136770000D01*
X169390000Y-136770000D01*
X169342155Y-136770000D01*
X169282627Y-136776401D01*
X169282620Y-136776403D01*
X169147913Y-136826645D01*
X169147906Y-136826649D01*
X169032812Y-136912809D01*
X169032809Y-136912812D01*
X168946649Y-137027906D01*
X168946645Y-137027913D01*
X168896403Y-137162620D01*
X168896401Y-137162627D01*
X168890000Y-137222155D01*
X168890000Y-138260000D01*
X166870500Y-138260000D01*
X166870500Y-138142695D01*
X166833799Y-137910974D01*
X166761301Y-137687847D01*
X166654790Y-137478808D01*
X166637171Y-137454558D01*
X166516895Y-137289010D01*
X166516891Y-137289005D01*
X166350994Y-137123108D01*
X166350989Y-137123104D01*
X166161193Y-136985210D01*
X166048204Y-136927638D01*
X165997409Y-136879663D01*
X165980500Y-136817154D01*
X165980500Y-123919060D01*
X165980501Y-123919047D01*
X165980501Y-123750944D01*
X165939576Y-123598214D01*
X165939573Y-123598209D01*
X165860524Y-123461290D01*
X165860518Y-123461282D01*
X163216286Y-120817050D01*
X163182801Y-120755727D01*
X163187785Y-120686035D01*
X163229657Y-120630102D01*
X163295121Y-120605685D01*
X163326740Y-120607479D01*
X163490012Y-120638000D01*
X163490015Y-120638000D01*
X163699987Y-120638000D01*
X163699988Y-120638000D01*
X163786360Y-120621854D01*
X163855874Y-120628884D01*
X163896826Y-120656061D01*
X176983181Y-133742416D01*
X177016666Y-133803739D01*
X177019500Y-133830097D01*
X177019500Y-136817154D01*
X176999815Y-136884193D01*
X176951796Y-136927638D01*
X176838806Y-136985210D01*
X176649010Y-137123104D01*
X176649005Y-137123108D01*
X176483108Y-137289005D01*
X176483104Y-137289010D01*
X176345212Y-137478804D01*
X176238697Y-137687849D01*
X176166201Y-137910972D01*
X176129500Y-138142695D01*
X176129500Y-140357304D01*
X176166201Y-140589027D01*
X176238697Y-140812150D01*
X176345212Y-141021195D01*
X176483104Y-141210989D01*
X176483108Y-141210994D01*
X176649005Y-141376891D01*
X176649010Y-141376895D01*
X176780031Y-141472086D01*
X176838808Y-141514790D01*
X176980895Y-141587187D01*
X177047849Y-141621302D01*
X177159410Y-141657550D01*
X177270974Y-141693799D01*
X177502695Y-141730500D01*
X177502696Y-141730500D01*
X177737304Y-141730500D01*
X177737305Y-141730500D01*
X177969026Y-141693799D01*
X178192153Y-141621301D01*
X178401192Y-141514790D01*
X178590996Y-141376890D01*
X178756890Y-141210996D01*
X178894790Y-141021192D01*
X179001301Y-140812153D01*
X179073799Y-140589026D01*
X179110500Y-140357305D01*
X179110500Y-140240000D01*
X181130000Y-140240000D01*
X181130000Y-141277844D01*
X181136401Y-141337372D01*
X181136403Y-141337379D01*
X181186645Y-141472086D01*
X181186649Y-141472093D01*
X181272809Y-141587187D01*
X181272812Y-141587190D01*
X181387906Y-141673350D01*
X181387913Y-141673354D01*
X181522620Y-141723596D01*
X181522627Y-141723598D01*
X181582155Y-141729999D01*
X181582172Y-141730000D01*
X181630000Y-141730000D01*
X181630000Y-140240000D01*
X183610000Y-140240000D01*
X183610000Y-141730000D01*
X183657828Y-141730000D01*
X183657844Y-141729999D01*
X183717372Y-141723598D01*
X183717379Y-141723596D01*
X183852086Y-141673354D01*
X183852093Y-141673350D01*
X183967187Y-141587190D01*
X183967190Y-141587187D01*
X184053350Y-141472093D01*
X184053354Y-141472086D01*
X184103596Y-141337379D01*
X184103598Y-141337372D01*
X184109999Y-141277844D01*
X184110000Y-141277827D01*
X184110000Y-140240000D01*
X183610000Y-140240000D01*
X181630000Y-140240000D01*
X181130000Y-140240000D01*
X179110500Y-140240000D01*
X179110500Y-139315004D01*
X181960000Y-139315004D01*
X181985364Y-139442515D01*
X182035116Y-139562627D01*
X182107345Y-139670725D01*
X182199275Y-139762655D01*
X182307373Y-139834884D01*
X182427485Y-139884636D01*
X182554996Y-139910000D01*
X182685004Y-139910000D01*
X182812515Y-139884636D01*
X182932627Y-139834884D01*
X183040725Y-139762655D01*
X183132655Y-139670725D01*
X183204884Y-139562627D01*
X183254636Y-139442515D01*
X183280000Y-139315004D01*
X183280000Y-139184996D01*
X183254636Y-139057485D01*
X183204884Y-138937373D01*
X183132655Y-138829275D01*
X183040725Y-138737345D01*
X182932627Y-138665116D01*
X182812515Y-138615364D01*
X182685004Y-138590000D01*
X182554996Y-138590000D01*
X182427485Y-138615364D01*
X182307373Y-138665116D01*
X182199275Y-138737345D01*
X182107345Y-138829275D01*
X182035116Y-138937373D01*
X181985364Y-139057485D01*
X181960000Y-139184996D01*
X181960000Y-139315004D01*
X179110500Y-139315004D01*
X179110500Y-138260000D01*
X181130000Y-138260000D01*
X181630000Y-138260000D01*
X181630000Y-136770000D01*
X183610000Y-136770000D01*
X183610000Y-138260000D01*
X184110000Y-138260000D01*
X184110000Y-137222172D01*
X184109999Y-137222155D01*
X184103598Y-137162627D01*
X184103596Y-137162620D01*
X184053354Y-137027913D01*
X184053350Y-137027906D01*
X183967190Y-136912812D01*
X183967187Y-136912809D01*
X183852093Y-136826649D01*
X183852086Y-136826645D01*
X183717379Y-136776403D01*
X183717372Y-136776401D01*
X183657844Y-136770000D01*
X183610000Y-136770000D01*
X181630000Y-136770000D01*
X181582155Y-136770000D01*
X181522627Y-136776401D01*
X181522620Y-136776403D01*
X181387913Y-136826645D01*
X181387906Y-136826649D01*
X181272812Y-136912809D01*
X181272809Y-136912812D01*
X181186649Y-137027906D01*
X181186645Y-137027913D01*
X181136403Y-137162620D01*
X181136401Y-137162627D01*
X181130000Y-137222155D01*
X181130000Y-138260000D01*
X179110500Y-138260000D01*
X179110500Y-138142695D01*
X179073799Y-137910974D01*
X179001301Y-137687847D01*
X178894790Y-137478808D01*
X178877171Y-137454558D01*
X178756895Y-137289010D01*
X178756891Y-137289005D01*
X178590994Y-137123108D01*
X178590989Y-137123104D01*
X178401193Y-136985210D01*
X178288204Y-136927638D01*
X178237409Y-136879663D01*
X178220500Y-136817154D01*
X178220500Y-133450945D01*
X178220500Y-133450943D01*
X178179577Y-133298216D01*
X178179577Y-133298215D01*
X178179577Y-133298214D01*
X178150639Y-133248095D01*
X178150637Y-133248092D01*
X178100520Y-133161284D01*
X177988716Y-133049480D01*
X177988715Y-133049479D01*
X177984385Y-133045149D01*
X177984374Y-133045139D01*
X170950523Y-126011288D01*
X179349500Y-126011288D01*
X179381161Y-126251785D01*
X179443947Y-126486104D01*
X179536773Y-126710205D01*
X179536776Y-126710212D01*
X179658064Y-126920289D01*
X179658066Y-126920292D01*
X179658067Y-126920293D01*
X179805733Y-127112736D01*
X179805739Y-127112743D01*
X179977256Y-127284260D01*
X179977262Y-127284265D01*
X180169711Y-127431936D01*
X180379788Y-127553224D01*
X180603900Y-127646054D01*
X180838211Y-127708838D01*
X181018586Y-127732584D01*
X181078711Y-127740500D01*
X181078712Y-127740500D01*
X181321289Y-127740500D01*
X181369388Y-127734167D01*
X181561789Y-127708838D01*
X181796100Y-127646054D01*
X182020212Y-127553224D01*
X182230289Y-127431936D01*
X182422738Y-127284265D01*
X182594265Y-127112738D01*
X182741936Y-126920289D01*
X182863224Y-126710212D01*
X182956054Y-126486100D01*
X183018838Y-126251789D01*
X183050500Y-126011288D01*
X183050500Y-125768712D01*
X183018838Y-125528211D01*
X182956054Y-125293900D01*
X182863224Y-125069788D01*
X182741936Y-124859711D01*
X182594265Y-124667262D01*
X182594260Y-124667256D01*
X182422743Y-124495739D01*
X182422736Y-124495733D01*
X182230293Y-124348067D01*
X182230292Y-124348066D01*
X182230289Y-124348064D01*
X182020212Y-124226776D01*
X182020205Y-124226773D01*
X181796104Y-124133947D01*
X181678944Y-124102554D01*
X181561789Y-124071162D01*
X181561788Y-124071161D01*
X181561785Y-124071161D01*
X181321289Y-124039500D01*
X181321288Y-124039500D01*
X181078712Y-124039500D01*
X181078711Y-124039500D01*
X180838214Y-124071161D01*
X180603895Y-124133947D01*
X180379794Y-124226773D01*
X180379785Y-124226777D01*
X180169706Y-124348067D01*
X179977263Y-124495733D01*
X179977256Y-124495739D01*
X179805739Y-124667256D01*
X179805733Y-124667263D01*
X179658067Y-124859706D01*
X179536777Y-125069785D01*
X179536773Y-125069794D01*
X179443947Y-125293895D01*
X179381161Y-125528214D01*
X179349500Y-125768711D01*
X179349500Y-126011288D01*
X170950523Y-126011288D01*
X165756285Y-120817050D01*
X165722800Y-120755727D01*
X165727784Y-120686035D01*
X165769656Y-120630102D01*
X165835120Y-120605685D01*
X165866740Y-120607479D01*
X166030012Y-120638000D01*
X166030015Y-120638000D01*
X166239986Y-120638000D01*
X166239988Y-120638000D01*
X166446389Y-120599417D01*
X166642185Y-120523565D01*
X166820710Y-120413027D01*
X166975884Y-120271567D01*
X167102423Y-120104003D01*
X167196017Y-119916040D01*
X167253480Y-119714080D01*
X167272854Y-119505000D01*
X167537146Y-119505000D01*
X167556519Y-119714079D01*
X167613982Y-119916037D01*
X167613987Y-119916050D01*
X167707577Y-120104003D01*
X167834117Y-120271569D01*
X167989289Y-120413026D01*
X167989291Y-120413028D01*
X168167811Y-120523563D01*
X168167812Y-120523563D01*
X168167815Y-120523565D01*
X168363611Y-120599417D01*
X168570012Y-120638000D01*
X168570014Y-120638000D01*
X168779986Y-120638000D01*
X168779988Y-120638000D01*
X168986389Y-120599417D01*
X169182185Y-120523565D01*
X169360710Y-120413027D01*
X169515884Y-120271567D01*
X169642423Y-120104003D01*
X169736017Y-119916040D01*
X169793480Y-119714080D01*
X169812854Y-119505000D01*
X169793480Y-119295920D01*
X169736017Y-119093960D01*
X169642423Y-118905997D01*
X169515884Y-118738433D01*
X169515882Y-118738430D01*
X169360710Y-118596973D01*
X169360708Y-118596971D01*
X169182188Y-118486436D01*
X169182182Y-118486434D01*
X168986389Y-118410583D01*
X168779988Y-118372000D01*
X168570012Y-118372000D01*
X168363611Y-118410583D01*
X168239792Y-118458550D01*
X168167817Y-118486434D01*
X168167811Y-118486436D01*
X167989291Y-118596971D01*
X167989289Y-118596973D01*
X167834117Y-118738430D01*
X167707577Y-118905996D01*
X167613987Y-119093949D01*
X167613982Y-119093962D01*
X167556519Y-119295920D01*
X167537146Y-119504999D01*
X167537146Y-119505000D01*
X167272854Y-119505000D01*
X167253480Y-119295920D01*
X167196017Y-119093960D01*
X167102423Y-118905997D01*
X166975884Y-118738433D01*
X166975882Y-118738430D01*
X166820710Y-118596973D01*
X166820708Y-118596971D01*
X166642188Y-118486436D01*
X166642182Y-118486434D01*
X166446389Y-118410583D01*
X166239988Y-118372000D01*
X166030012Y-118372000D01*
X165823611Y-118410583D01*
X165699792Y-118458550D01*
X165627817Y-118486434D01*
X165627811Y-118486436D01*
X165449291Y-118596971D01*
X165449289Y-118596973D01*
X165294117Y-118738430D01*
X165167577Y-118905996D01*
X165073987Y-119093949D01*
X165073982Y-119093962D01*
X165016519Y-119295920D01*
X164997146Y-119504999D01*
X164997146Y-119505000D01*
X165016519Y-119714075D01*
X165016519Y-119714077D01*
X165016520Y-119714080D01*
X165030296Y-119762500D01*
X165029709Y-119832367D01*
X164991442Y-119890825D01*
X164927645Y-119919315D01*
X164858572Y-119908790D01*
X164823349Y-119884114D01*
X164749538Y-119810303D01*
X164716053Y-119748980D01*
X164713748Y-119711184D01*
X164732854Y-119505000D01*
X164713480Y-119295920D01*
X164656017Y-119093960D01*
X164562423Y-118905997D01*
X164435884Y-118738433D01*
X164435882Y-118738430D01*
X164280710Y-118596973D01*
X164280708Y-118596971D01*
X164102188Y-118486436D01*
X164102182Y-118486434D01*
X163906389Y-118410583D01*
X163699988Y-118372000D01*
X163490012Y-118372000D01*
X163283611Y-118410583D01*
X163159792Y-118458550D01*
X163087817Y-118486434D01*
X163087811Y-118486436D01*
X162909291Y-118596971D01*
X162909289Y-118596973D01*
X162754117Y-118738430D01*
X162627577Y-118905996D01*
X162533987Y-119093949D01*
X162533982Y-119093962D01*
X162476519Y-119295920D01*
X162457146Y-119504999D01*
X162457146Y-119505000D01*
X162476519Y-119714075D01*
X162476519Y-119714077D01*
X162476520Y-119714080D01*
X162490296Y-119762500D01*
X162489709Y-119832367D01*
X162451442Y-119890825D01*
X162387645Y-119919315D01*
X162318572Y-119908790D01*
X162283349Y-119884114D01*
X162209538Y-119810303D01*
X162176053Y-119748980D01*
X162173748Y-119711184D01*
X162192854Y-119505000D01*
X162173480Y-119295920D01*
X162116017Y-119093960D01*
X162022423Y-118905997D01*
X161895884Y-118738433D01*
X161895882Y-118738430D01*
X161740710Y-118596973D01*
X161740708Y-118596971D01*
X161562188Y-118486436D01*
X161562182Y-118486434D01*
X161366389Y-118410583D01*
X161159988Y-118372000D01*
X160950012Y-118372000D01*
X160743611Y-118410583D01*
X160619792Y-118458550D01*
X160547817Y-118486434D01*
X160547811Y-118486436D01*
X160369291Y-118596971D01*
X160369289Y-118596973D01*
X160214117Y-118738430D01*
X160087577Y-118905996D01*
X159993987Y-119093949D01*
X159993982Y-119093962D01*
X159936519Y-119295920D01*
X159917146Y-119504999D01*
X159917146Y-119505000D01*
X159652854Y-119505000D01*
X159633480Y-119295920D01*
X159576017Y-119093960D01*
X159482423Y-118905997D01*
X159355884Y-118738433D01*
X159355882Y-118738430D01*
X159200710Y-118596973D01*
X159200708Y-118596971D01*
X159022188Y-118486436D01*
X159022182Y-118486434D01*
X158826389Y-118410583D01*
X158619988Y-118372000D01*
X158410012Y-118372000D01*
X158203611Y-118410583D01*
X158079792Y-118458550D01*
X158007817Y-118486434D01*
X158007811Y-118486436D01*
X157829291Y-118596971D01*
X157829289Y-118596973D01*
X157674117Y-118738430D01*
X157547577Y-118905996D01*
X157453987Y-119093949D01*
X157453982Y-119093962D01*
X157396519Y-119295920D01*
X157377146Y-119504999D01*
X157377146Y-119505000D01*
X157396251Y-119711180D01*
X157382836Y-119779750D01*
X157360461Y-119810302D01*
X157286650Y-119884113D01*
X157225327Y-119917598D01*
X157155635Y-119912614D01*
X157099702Y-119870742D01*
X157075285Y-119805278D01*
X157079702Y-119762503D01*
X157093480Y-119714080D01*
X157112854Y-119505000D01*
X157093480Y-119295920D01*
X157036017Y-119093960D01*
X156942423Y-118905997D01*
X156815884Y-118738433D01*
X156815882Y-118738430D01*
X156660710Y-118596973D01*
X156660708Y-118596971D01*
X156482188Y-118486436D01*
X156482182Y-118486434D01*
X156286389Y-118410583D01*
X156079988Y-118372000D01*
X155870012Y-118372000D01*
X155663611Y-118410583D01*
X155539792Y-118458550D01*
X155467817Y-118486434D01*
X155467811Y-118486436D01*
X155289291Y-118596971D01*
X155289289Y-118596973D01*
X155134117Y-118738430D01*
X155007577Y-118905996D01*
X154913987Y-119093949D01*
X154913982Y-119093962D01*
X154856519Y-119295920D01*
X154837146Y-119504999D01*
X154837146Y-119505000D01*
X154856251Y-119711180D01*
X154842836Y-119779750D01*
X154820461Y-119810302D01*
X154746650Y-119884113D01*
X154685327Y-119917598D01*
X154615635Y-119912614D01*
X154559702Y-119870742D01*
X154535285Y-119805278D01*
X154539702Y-119762503D01*
X154553480Y-119714080D01*
X154572854Y-119505000D01*
X154553480Y-119295920D01*
X154496017Y-119093960D01*
X154402423Y-118905997D01*
X154275884Y-118738433D01*
X154275882Y-118738430D01*
X154120710Y-118596973D01*
X154120708Y-118596971D01*
X153942188Y-118486436D01*
X153942182Y-118486434D01*
X153746389Y-118410583D01*
X153539988Y-118372000D01*
X153330012Y-118372000D01*
X153123611Y-118410583D01*
X152999792Y-118458550D01*
X152927817Y-118486434D01*
X152927811Y-118486436D01*
X152749291Y-118596971D01*
X152749289Y-118596973D01*
X152594117Y-118738430D01*
X152467577Y-118905996D01*
X152373987Y-119093949D01*
X152373982Y-119093962D01*
X152316519Y-119295920D01*
X152297146Y-119504999D01*
X152297146Y-119505000D01*
X152316251Y-119711179D01*
X152302836Y-119779749D01*
X152280461Y-119810301D01*
X152206651Y-119884111D01*
X152145328Y-119917596D01*
X152075636Y-119912612D01*
X152019703Y-119870740D01*
X151995286Y-119805276D01*
X151999704Y-119762496D01*
X152013480Y-119714080D01*
X152032854Y-119505000D01*
X152013480Y-119295920D01*
X151956017Y-119093960D01*
X151862423Y-118905997D01*
X151735884Y-118738433D01*
X151735882Y-118738430D01*
X151580710Y-118596973D01*
X151580708Y-118596971D01*
X151402188Y-118486436D01*
X151402182Y-118486434D01*
X151206389Y-118410583D01*
X150999988Y-118372000D01*
X150790012Y-118372000D01*
X150583611Y-118410583D01*
X150459792Y-118458550D01*
X150387817Y-118486434D01*
X150387811Y-118486436D01*
X150209291Y-118596971D01*
X150209289Y-118596973D01*
X150054117Y-118738430D01*
X149927577Y-118905996D01*
X149833987Y-119093949D01*
X149833982Y-119093962D01*
X149776519Y-119295920D01*
X149757146Y-119504999D01*
X149757146Y-119505000D01*
X149776519Y-119714079D01*
X149833982Y-119916037D01*
X149833987Y-119916050D01*
X149927577Y-120104003D01*
X150054117Y-120271569D01*
X150209289Y-120413026D01*
X150209291Y-120413028D01*
X150387811Y-120523563D01*
X150387812Y-120523563D01*
X150387815Y-120523565D01*
X150583611Y-120599417D01*
X150790012Y-120638000D01*
X150790014Y-120638000D01*
X150999986Y-120638000D01*
X150999988Y-120638000D01*
X151163248Y-120607481D01*
X151232760Y-120614512D01*
X151287438Y-120658009D01*
X151309921Y-120724163D01*
X151293068Y-120791970D01*
X151273711Y-120817051D01*
X140197584Y-131893181D01*
X140136261Y-131926666D01*
X140109903Y-131929500D01*
X131606670Y-131929500D01*
X131606654Y-131929499D01*
X131599058Y-131929499D01*
X131440943Y-131929499D01*
X131288215Y-131970423D01*
X131288213Y-131970423D01*
X131288213Y-131970424D01*
X131151281Y-132049482D01*
X128179479Y-135021284D01*
X128163558Y-135048861D01*
X128156828Y-135060519D01*
X128100423Y-135158215D01*
X128059499Y-135310943D01*
X128059499Y-135310945D01*
X128059499Y-135479046D01*
X128059500Y-135479059D01*
X128059500Y-136817154D01*
X128039815Y-136884193D01*
X127991796Y-136927638D01*
X127878806Y-136985210D01*
X127689010Y-137123104D01*
X127689005Y-137123108D01*
X127523108Y-137289005D01*
X127523104Y-137289010D01*
X127385212Y-137478804D01*
X127278697Y-137687849D01*
X127206201Y-137910972D01*
X127169500Y-138142695D01*
X127169500Y-140357304D01*
X125000500Y-140357304D01*
X125000500Y-126011288D01*
X127649500Y-126011288D01*
X127681161Y-126251785D01*
X127743947Y-126486104D01*
X127836773Y-126710205D01*
X127836776Y-126710212D01*
X127958064Y-126920289D01*
X127958066Y-126920292D01*
X127958067Y-126920293D01*
X128105733Y-127112736D01*
X128105739Y-127112743D01*
X128277256Y-127284260D01*
X128277262Y-127284265D01*
X128469711Y-127431936D01*
X128679788Y-127553224D01*
X128903900Y-127646054D01*
X129138211Y-127708838D01*
X129318586Y-127732584D01*
X129378711Y-127740500D01*
X129378712Y-127740500D01*
X129621289Y-127740500D01*
X129669388Y-127734167D01*
X129861789Y-127708838D01*
X130096100Y-127646054D01*
X130320212Y-127553224D01*
X130530289Y-127431936D01*
X130722738Y-127284265D01*
X130894265Y-127112738D01*
X131041936Y-126920289D01*
X131163224Y-126710212D01*
X131256054Y-126486100D01*
X131318838Y-126251789D01*
X131350500Y-126011288D01*
X131350500Y-125768712D01*
X131318838Y-125528211D01*
X131256054Y-125293900D01*
X131163224Y-125069788D01*
X131041936Y-124859711D01*
X130894265Y-124667262D01*
X130894260Y-124667256D01*
X130722743Y-124495739D01*
X130722736Y-124495733D01*
X130530293Y-124348067D01*
X130530292Y-124348066D01*
X130530289Y-124348064D01*
X130320212Y-124226776D01*
X130320205Y-124226773D01*
X130096104Y-124133947D01*
X129978944Y-124102554D01*
X129861789Y-124071162D01*
X129861788Y-124071161D01*
X129861785Y-124071161D01*
X129621289Y-124039500D01*
X129621288Y-124039500D01*
X129378712Y-124039500D01*
X129378711Y-124039500D01*
X129138214Y-124071161D01*
X128903895Y-124133947D01*
X128679794Y-124226773D01*
X128679785Y-124226777D01*
X128469706Y-124348067D01*
X128277263Y-124495733D01*
X128277256Y-124495739D01*
X128105739Y-124667256D01*
X128105733Y-124667263D01*
X127958067Y-124859706D01*
X127836777Y-125069785D01*
X127836773Y-125069794D01*
X127743947Y-125293895D01*
X127681161Y-125528214D01*
X127649500Y-125768711D01*
X127649500Y-126011288D01*
X125000500Y-126011288D01*
X125000500Y-116965000D01*
X149757146Y-116965000D01*
X149776519Y-117174079D01*
X149833982Y-117376037D01*
X149833987Y-117376050D01*
X149927577Y-117564003D01*
X150054117Y-117731569D01*
X150209289Y-117873026D01*
X150209291Y-117873028D01*
X150387811Y-117983563D01*
X150387812Y-117983563D01*
X150387815Y-117983565D01*
X150583611Y-118059417D01*
X150790012Y-118098000D01*
X150790014Y-118098000D01*
X150999986Y-118098000D01*
X150999988Y-118098000D01*
X151206389Y-118059417D01*
X151402185Y-117983565D01*
X151580710Y-117873027D01*
X151735884Y-117731567D01*
X151862423Y-117564003D01*
X151956017Y-117376040D01*
X152013480Y-117174080D01*
X152032854Y-116965000D01*
X152013480Y-116755920D01*
X151956017Y-116553960D01*
X151862423Y-116365997D01*
X151735884Y-116198433D01*
X151735882Y-116198430D01*
X151580710Y-116056973D01*
X151580708Y-116056971D01*
X151402188Y-115946436D01*
X151402182Y-115946434D01*
X151206389Y-115870583D01*
X150999988Y-115832000D01*
X150790012Y-115832000D01*
X150583611Y-115870583D01*
X150459792Y-115918550D01*
X150387817Y-115946434D01*
X150387811Y-115946436D01*
X150209291Y-116056971D01*
X150209289Y-116056973D01*
X150054117Y-116198430D01*
X149927577Y-116365996D01*
X149833987Y-116553949D01*
X149833982Y-116553962D01*
X149776519Y-116755920D01*
X149757146Y-116964999D01*
X149757146Y-116965000D01*
X125000500Y-116965000D01*
X125000500Y-114425000D01*
X149757146Y-114425000D01*
X149776519Y-114634079D01*
X149833982Y-114836037D01*
X149833987Y-114836050D01*
X149927577Y-115024003D01*
X150054117Y-115191569D01*
X150209289Y-115333026D01*
X150209291Y-115333028D01*
X150387811Y-115443563D01*
X150387812Y-115443563D01*
X150387815Y-115443565D01*
X150583611Y-115519417D01*
X150790012Y-115558000D01*
X150790014Y-115558000D01*
X150999986Y-115558000D01*
X150999988Y-115558000D01*
X151206389Y-115519417D01*
X151402185Y-115443565D01*
X151580710Y-115333027D01*
X151735884Y-115191567D01*
X151862423Y-115024003D01*
X151956017Y-114836040D01*
X152013480Y-114634080D01*
X152032854Y-114425000D01*
X152013480Y-114215920D01*
X151956017Y-114013960D01*
X151862423Y-113825997D01*
X151735884Y-113658433D01*
X151735882Y-113658430D01*
X151580710Y-113516973D01*
X151580708Y-113516971D01*
X151402188Y-113406436D01*
X151402182Y-113406434D01*
X151206389Y-113330583D01*
X150999988Y-113292000D01*
X150790012Y-113292000D01*
X150583611Y-113330583D01*
X150459792Y-113378550D01*
X150387817Y-113406434D01*
X150387811Y-113406436D01*
X150209291Y-113516971D01*
X150209289Y-113516973D01*
X150054117Y-113658430D01*
X149927577Y-113825996D01*
X149833987Y-114013949D01*
X149833982Y-114013962D01*
X149776519Y-114215920D01*
X149757146Y-114424999D01*
X149757146Y-114425000D01*
X125000500Y-114425000D01*
X125000500Y-111885000D01*
X149757146Y-111885000D01*
X149776519Y-112094079D01*
X149833982Y-112296037D01*
X149833987Y-112296050D01*
X149927577Y-112484003D01*
X150054117Y-112651569D01*
X150209289Y-112793026D01*
X150209291Y-112793028D01*
X150387811Y-112903563D01*
X150387812Y-112903563D01*
X150387815Y-112903565D01*
X150583611Y-112979417D01*
X150790012Y-113018000D01*
X150790014Y-113018000D01*
X150999986Y-113018000D01*
X150999988Y-113018000D01*
X151206389Y-112979417D01*
X151402185Y-112903565D01*
X151580710Y-112793027D01*
X151735884Y-112651567D01*
X151862423Y-112484003D01*
X151956017Y-112296040D01*
X152013480Y-112094080D01*
X152032854Y-111885000D01*
X152013480Y-111675920D01*
X151956017Y-111473960D01*
X151862423Y-111285997D01*
X151780063Y-111176935D01*
X151735882Y-111118430D01*
X151580710Y-110976973D01*
X151580708Y-110976971D01*
X151402188Y-110866436D01*
X151402182Y-110866434D01*
X151206389Y-110790583D01*
X150999988Y-110752000D01*
X150790012Y-110752000D01*
X150583611Y-110790583D01*
X150461661Y-110837827D01*
X150387817Y-110866434D01*
X150387811Y-110866436D01*
X150209291Y-110976971D01*
X150209289Y-110976973D01*
X150054117Y-111118430D01*
X149927577Y-111285996D01*
X149833987Y-111473949D01*
X149833982Y-111473962D01*
X149776519Y-111675920D01*
X149757146Y-111884999D01*
X149757146Y-111885000D01*
X125000500Y-111885000D01*
X125000500Y-109890006D01*
X128264700Y-109890006D01*
X128283864Y-110121297D01*
X128283866Y-110121308D01*
X128340842Y-110346300D01*
X128434075Y-110558848D01*
X128561016Y-110753147D01*
X128561019Y-110753151D01*
X128561021Y-110753153D01*
X128718216Y-110923913D01*
X128718219Y-110923915D01*
X128718222Y-110923918D01*
X128901365Y-111066464D01*
X128901371Y-111066468D01*
X128901374Y-111066470D01*
X129105497Y-111176936D01*
X129219487Y-111216068D01*
X129325015Y-111252297D01*
X129325017Y-111252297D01*
X129325019Y-111252298D01*
X129553951Y-111290500D01*
X129553952Y-111290500D01*
X129786048Y-111290500D01*
X129786049Y-111290500D01*
X130014981Y-111252298D01*
X130234503Y-111176936D01*
X130438626Y-111066470D01*
X130621784Y-110923913D01*
X130630511Y-110914432D01*
X130690394Y-110878441D01*
X130760232Y-110880538D01*
X130817850Y-110920060D01*
X130837924Y-110955080D01*
X130866645Y-111032086D01*
X130866649Y-111032093D01*
X130952809Y-111147187D01*
X130952812Y-111147190D01*
X131067906Y-111233350D01*
X131067913Y-111233354D01*
X131202620Y-111283596D01*
X131202627Y-111283598D01*
X131262155Y-111289999D01*
X131262172Y-111290000D01*
X131310000Y-111290000D01*
X131310000Y-110790000D01*
X133110000Y-110790000D01*
X133110000Y-111290000D01*
X133157828Y-111290000D01*
X133157844Y-111289999D01*
X133217372Y-111283598D01*
X133217379Y-111283596D01*
X133352086Y-111233354D01*
X133352093Y-111233350D01*
X133467187Y-111147190D01*
X133467190Y-111147187D01*
X133553350Y-111032093D01*
X133553354Y-111032086D01*
X133603596Y-110897379D01*
X133603598Y-110897372D01*
X133609999Y-110837844D01*
X133610000Y-110837827D01*
X133610000Y-110790000D01*
X133110000Y-110790000D01*
X131310000Y-110790000D01*
X131310000Y-109949244D01*
X131760000Y-109949244D01*
X131790667Y-110063694D01*
X131849910Y-110166306D01*
X131933694Y-110250090D01*
X132036306Y-110309333D01*
X132150756Y-110340000D01*
X132269244Y-110340000D01*
X132383694Y-110309333D01*
X132486306Y-110250090D01*
X132570090Y-110166306D01*
X132629333Y-110063694D01*
X132660000Y-109949244D01*
X132660000Y-109830756D01*
X132629333Y-109716306D01*
X132570090Y-109613694D01*
X132486306Y-109529910D01*
X132383694Y-109470667D01*
X132269244Y-109440000D01*
X132150756Y-109440000D01*
X132036306Y-109470667D01*
X131933694Y-109529910D01*
X131849910Y-109613694D01*
X131790667Y-109716306D01*
X131760000Y-109830756D01*
X131760000Y-109949244D01*
X131310000Y-109949244D01*
X131310000Y-109345000D01*
X149757146Y-109345000D01*
X149776519Y-109554079D01*
X149833982Y-109756037D01*
X149833987Y-109756050D01*
X149927577Y-109944003D01*
X150054117Y-110111569D01*
X150209289Y-110253026D01*
X150209291Y-110253028D01*
X150387811Y-110363563D01*
X150387812Y-110363563D01*
X150387815Y-110363565D01*
X150583611Y-110439417D01*
X150790012Y-110478000D01*
X150790014Y-110478000D01*
X150999986Y-110478000D01*
X150999988Y-110478000D01*
X151206389Y-110439417D01*
X151402185Y-110363565D01*
X151580710Y-110253027D01*
X151735884Y-110111567D01*
X151862423Y-109944003D01*
X151956017Y-109756040D01*
X152013480Y-109554080D01*
X152032854Y-109345000D01*
X152013480Y-109135920D01*
X151956017Y-108933960D01*
X151930456Y-108882627D01*
X151863376Y-108747911D01*
X151862423Y-108745997D01*
X151735884Y-108578433D01*
X151735882Y-108578430D01*
X151580710Y-108436973D01*
X151580708Y-108436971D01*
X151402188Y-108326436D01*
X151402182Y-108326434D01*
X151377278Y-108316786D01*
X151206389Y-108250583D01*
X150999988Y-108212000D01*
X150790012Y-108212000D01*
X150583611Y-108250583D01*
X150459792Y-108298550D01*
X150387817Y-108326434D01*
X150387811Y-108326436D01*
X150209291Y-108436971D01*
X150209289Y-108436973D01*
X150054117Y-108578430D01*
X149927577Y-108745996D01*
X149833987Y-108933949D01*
X149833982Y-108933962D01*
X149776519Y-109135920D01*
X149757146Y-109344999D01*
X149757146Y-109345000D01*
X131310000Y-109345000D01*
X131310000Y-108490000D01*
X133110000Y-108490000D01*
X133110000Y-108990000D01*
X133610000Y-108990000D01*
X133610000Y-108942172D01*
X133609999Y-108942155D01*
X133603598Y-108882627D01*
X133603596Y-108882620D01*
X133553354Y-108747913D01*
X133553350Y-108747906D01*
X133467190Y-108632812D01*
X133467187Y-108632809D01*
X133352093Y-108546649D01*
X133352086Y-108546645D01*
X133217379Y-108496403D01*
X133217372Y-108496401D01*
X133157844Y-108490000D01*
X133110000Y-108490000D01*
X131310000Y-108490000D01*
X131262155Y-108490000D01*
X131202627Y-108496401D01*
X131202620Y-108496403D01*
X131067913Y-108546645D01*
X131067906Y-108546649D01*
X130952812Y-108632809D01*
X130952809Y-108632812D01*
X130866649Y-108747906D01*
X130866646Y-108747911D01*
X130837924Y-108824920D01*
X130796052Y-108880853D01*
X130730588Y-108905270D01*
X130662315Y-108890418D01*
X130630514Y-108865571D01*
X130621784Y-108856087D01*
X130621779Y-108856083D01*
X130621777Y-108856081D01*
X130438634Y-108713535D01*
X130438628Y-108713531D01*
X130234504Y-108603064D01*
X130234495Y-108603061D01*
X130014984Y-108527702D01*
X129827404Y-108496401D01*
X129786049Y-108489500D01*
X129553951Y-108489500D01*
X129512596Y-108496401D01*
X129325015Y-108527702D01*
X129105504Y-108603061D01*
X129105495Y-108603064D01*
X128901371Y-108713531D01*
X128901365Y-108713535D01*
X128718222Y-108856081D01*
X128718219Y-108856084D01*
X128718216Y-108856086D01*
X128718216Y-108856087D01*
X128693791Y-108882620D01*
X128561016Y-109026852D01*
X128434075Y-109221151D01*
X128340842Y-109433699D01*
X128283866Y-109658691D01*
X128283864Y-109658702D01*
X128264700Y-109889993D01*
X128264700Y-109890006D01*
X125000500Y-109890006D01*
X125000500Y-106805000D01*
X149757146Y-106805000D01*
X149776519Y-107014079D01*
X149833982Y-107216037D01*
X149833987Y-107216050D01*
X149927577Y-107404003D01*
X150054117Y-107571569D01*
X150209289Y-107713026D01*
X150209291Y-107713028D01*
X150387811Y-107823563D01*
X150387812Y-107823563D01*
X150387815Y-107823565D01*
X150583611Y-107899417D01*
X150790012Y-107938000D01*
X150790014Y-107938000D01*
X150999986Y-107938000D01*
X150999988Y-107938000D01*
X151206389Y-107899417D01*
X151402185Y-107823565D01*
X151580710Y-107713027D01*
X151735884Y-107571567D01*
X151862423Y-107404003D01*
X151956017Y-107216040D01*
X152013480Y-107014080D01*
X152032854Y-106805000D01*
X152013480Y-106595920D01*
X151956017Y-106393960D01*
X151862423Y-106205997D01*
X151735884Y-106038433D01*
X151735882Y-106038430D01*
X151580710Y-105896973D01*
X151580708Y-105896971D01*
X151402188Y-105786436D01*
X151402182Y-105786434D01*
X151206389Y-105710583D01*
X150999988Y-105672000D01*
X150790012Y-105672000D01*
X150583611Y-105710583D01*
X150459792Y-105758550D01*
X150387817Y-105786434D01*
X150387811Y-105786436D01*
X150209291Y-105896971D01*
X150209289Y-105896973D01*
X150054117Y-106038430D01*
X149927577Y-106205996D01*
X149833987Y-106393949D01*
X149833982Y-106393962D01*
X149776519Y-106595920D01*
X149757146Y-106804999D01*
X149757146Y-106805000D01*
X125000500Y-106805000D01*
X125000500Y-104265000D01*
X149757146Y-104265000D01*
X149776519Y-104474079D01*
X149833982Y-104676037D01*
X149833987Y-104676050D01*
X149927577Y-104864003D01*
X150054117Y-105031569D01*
X150209289Y-105173026D01*
X150209291Y-105173028D01*
X150387811Y-105283563D01*
X150387812Y-105283563D01*
X150387815Y-105283565D01*
X150583611Y-105359417D01*
X150790012Y-105398000D01*
X150790014Y-105398000D01*
X150999986Y-105398000D01*
X150999988Y-105398000D01*
X151206389Y-105359417D01*
X151402185Y-105283565D01*
X151580710Y-105173027D01*
X151735884Y-105031567D01*
X151862423Y-104864003D01*
X151956017Y-104676040D01*
X152013480Y-104474080D01*
X152032854Y-104265000D01*
X152297146Y-104265000D01*
X152316519Y-104474079D01*
X152373982Y-104676037D01*
X152373987Y-104676050D01*
X152467577Y-104864003D01*
X152594117Y-105031569D01*
X152749289Y-105173026D01*
X152749291Y-105173028D01*
X152927811Y-105283563D01*
X152927812Y-105283563D01*
X152927815Y-105283565D01*
X153123611Y-105359417D01*
X153330012Y-105398000D01*
X153330014Y-105398000D01*
X153539986Y-105398000D01*
X153539988Y-105398000D01*
X153746389Y-105359417D01*
X153942185Y-105283565D01*
X154120710Y-105173027D01*
X154275884Y-105031567D01*
X154402423Y-104864003D01*
X154496017Y-104676040D01*
X154553480Y-104474080D01*
X154572854Y-104265000D01*
X154837146Y-104265000D01*
X154856519Y-104474079D01*
X154913982Y-104676037D01*
X154913987Y-104676050D01*
X155007577Y-104864003D01*
X155134117Y-105031569D01*
X155289289Y-105173026D01*
X155289291Y-105173028D01*
X155467811Y-105283563D01*
X155467812Y-105283563D01*
X155467815Y-105283565D01*
X155663611Y-105359417D01*
X155870012Y-105398000D01*
X155870014Y-105398000D01*
X156079986Y-105398000D01*
X156079988Y-105398000D01*
X156286389Y-105359417D01*
X156482185Y-105283565D01*
X156660710Y-105173027D01*
X156815884Y-105031567D01*
X156942423Y-104864003D01*
X157036017Y-104676040D01*
X157093480Y-104474080D01*
X157112854Y-104265000D01*
X157377146Y-104265000D01*
X157396519Y-104474079D01*
X157453982Y-104676037D01*
X157453987Y-104676050D01*
X157547577Y-104864003D01*
X157674117Y-105031569D01*
X157829289Y-105173026D01*
X157829291Y-105173028D01*
X158007811Y-105283563D01*
X158007812Y-105283563D01*
X158007815Y-105283565D01*
X158203611Y-105359417D01*
X158410012Y-105398000D01*
X158410014Y-105398000D01*
X158619986Y-105398000D01*
X158619988Y-105398000D01*
X158826389Y-105359417D01*
X159022185Y-105283565D01*
X159200710Y-105173027D01*
X159355884Y-105031567D01*
X159482423Y-104864003D01*
X159576017Y-104676040D01*
X159633480Y-104474080D01*
X159652854Y-104265000D01*
X159633480Y-104055920D01*
X159576017Y-103853960D01*
X159482423Y-103665997D01*
X159355884Y-103498433D01*
X159355882Y-103498430D01*
X159200710Y-103356973D01*
X159200708Y-103356971D01*
X159022188Y-103246436D01*
X159022182Y-103246434D01*
X158826389Y-103170583D01*
X158619988Y-103132000D01*
X158410012Y-103132000D01*
X158203611Y-103170583D01*
X158079792Y-103218550D01*
X158007817Y-103246434D01*
X158007811Y-103246436D01*
X157829291Y-103356971D01*
X157829289Y-103356973D01*
X157674117Y-103498430D01*
X157547577Y-103665996D01*
X157453987Y-103853949D01*
X157453982Y-103853962D01*
X157396519Y-104055920D01*
X157377146Y-104264999D01*
X157377146Y-104265000D01*
X157112854Y-104265000D01*
X157093480Y-104055920D01*
X157036017Y-103853960D01*
X156942423Y-103665997D01*
X156815884Y-103498433D01*
X156815882Y-103498430D01*
X156660710Y-103356973D01*
X156660708Y-103356971D01*
X156482188Y-103246436D01*
X156482182Y-103246434D01*
X156286389Y-103170583D01*
X156079988Y-103132000D01*
X155870012Y-103132000D01*
X155663611Y-103170583D01*
X155539792Y-103218550D01*
X155467817Y-103246434D01*
X155467811Y-103246436D01*
X155289291Y-103356971D01*
X155289289Y-103356973D01*
X155134117Y-103498430D01*
X155007577Y-103665996D01*
X154913987Y-103853949D01*
X154913982Y-103853962D01*
X154856519Y-104055920D01*
X154837146Y-104264999D01*
X154837146Y-104265000D01*
X154572854Y-104265000D01*
X154553480Y-104055920D01*
X154496017Y-103853960D01*
X154402423Y-103665997D01*
X154275884Y-103498433D01*
X154275882Y-103498430D01*
X154120710Y-103356973D01*
X154120708Y-103356971D01*
X153942188Y-103246436D01*
X153942182Y-103246434D01*
X153746389Y-103170583D01*
X153539988Y-103132000D01*
X153330012Y-103132000D01*
X153123611Y-103170583D01*
X152999792Y-103218550D01*
X152927817Y-103246434D01*
X152927811Y-103246436D01*
X152749291Y-103356971D01*
X152749289Y-103356973D01*
X152594117Y-103498430D01*
X152467577Y-103665996D01*
X152373987Y-103853949D01*
X152373982Y-103853962D01*
X152316519Y-104055920D01*
X152297146Y-104264999D01*
X152297146Y-104265000D01*
X152032854Y-104265000D01*
X152013480Y-104055920D01*
X151956017Y-103853960D01*
X151862423Y-103665997D01*
X151735884Y-103498433D01*
X151735882Y-103498430D01*
X151580710Y-103356973D01*
X151580708Y-103356971D01*
X151402188Y-103246436D01*
X151402182Y-103246434D01*
X151206389Y-103170583D01*
X150999988Y-103132000D01*
X150790012Y-103132000D01*
X150583611Y-103170583D01*
X150459792Y-103218550D01*
X150387817Y-103246434D01*
X150387811Y-103246436D01*
X150209291Y-103356971D01*
X150209289Y-103356973D01*
X150054117Y-103498430D01*
X149927577Y-103665996D01*
X149833987Y-103853949D01*
X149833982Y-103853962D01*
X149776519Y-104055920D01*
X149757146Y-104264999D01*
X149757146Y-104265000D01*
X125000500Y-104265000D01*
X125000500Y-98430006D01*
X138774700Y-98430006D01*
X138793864Y-98661297D01*
X138793866Y-98661308D01*
X138850842Y-98886300D01*
X138944075Y-99098848D01*
X139071016Y-99293147D01*
X139071019Y-99293151D01*
X139071021Y-99293153D01*
X139228216Y-99463913D01*
X139228219Y-99463915D01*
X139228222Y-99463918D01*
X139411365Y-99606464D01*
X139411371Y-99606468D01*
X139411374Y-99606470D01*
X139615497Y-99716936D01*
X139729487Y-99756068D01*
X139835015Y-99792297D01*
X139835017Y-99792297D01*
X139835019Y-99792298D01*
X140063951Y-99830500D01*
X140063952Y-99830500D01*
X140296048Y-99830500D01*
X140296049Y-99830500D01*
X140524981Y-99792298D01*
X140744503Y-99716936D01*
X140948626Y-99606470D01*
X141131784Y-99463913D01*
X141288979Y-99293153D01*
X141415924Y-99098849D01*
X141509157Y-98886300D01*
X141566134Y-98661305D01*
X141585300Y-98430000D01*
X141585300Y-98429993D01*
X141566135Y-98198702D01*
X141566133Y-98198691D01*
X141509157Y-97973699D01*
X141415924Y-97761151D01*
X141288983Y-97566852D01*
X141288980Y-97566849D01*
X141288979Y-97566847D01*
X141131784Y-97396087D01*
X141131779Y-97396083D01*
X141131777Y-97396081D01*
X140948634Y-97253535D01*
X140948628Y-97253531D01*
X140744504Y-97143064D01*
X140744495Y-97143061D01*
X140524984Y-97067702D01*
X140353282Y-97039050D01*
X140296049Y-97029500D01*
X140063951Y-97029500D01*
X140018164Y-97037140D01*
X139835015Y-97067702D01*
X139615504Y-97143061D01*
X139615495Y-97143064D01*
X139411371Y-97253531D01*
X139411365Y-97253535D01*
X139228222Y-97396081D01*
X139228219Y-97396084D01*
X139071016Y-97566852D01*
X138944075Y-97761151D01*
X138850842Y-97973699D01*
X138793866Y-98198691D01*
X138793864Y-98198702D01*
X138774700Y-98429993D01*
X138774700Y-98430006D01*
X125000500Y-98430006D01*
X125000500Y-95889999D01*
X138775202Y-95889999D01*
X138785303Y-96011903D01*
X138841380Y-95955826D01*
X139680000Y-95955826D01*
X139714075Y-96082993D01*
X139779901Y-96197007D01*
X139872993Y-96290099D01*
X139987007Y-96355925D01*
X140114174Y-96390000D01*
X140245826Y-96390000D01*
X140372993Y-96355925D01*
X140487007Y-96290099D01*
X140580099Y-96197007D01*
X140645925Y-96082993D01*
X140680000Y-95955826D01*
X140680000Y-95890001D01*
X141452792Y-95890001D01*
X141574695Y-96011904D01*
X141574696Y-96011904D01*
X141584798Y-95890004D01*
X141584798Y-95889994D01*
X141574696Y-95768095D01*
X141452792Y-95890000D01*
X141452792Y-95890001D01*
X140680000Y-95890001D01*
X140680000Y-95824174D01*
X140645925Y-95697007D01*
X140580099Y-95582993D01*
X140487007Y-95489901D01*
X140372993Y-95424075D01*
X140245826Y-95390000D01*
X140114174Y-95390000D01*
X139987007Y-95424075D01*
X139872993Y-95489901D01*
X139779901Y-95582993D01*
X139714075Y-95697007D01*
X139680000Y-95824174D01*
X139680000Y-95955826D01*
X138841380Y-95955826D01*
X138907207Y-95889999D01*
X138785303Y-95768095D01*
X138775202Y-95889999D01*
X125000500Y-95889999D01*
X125000500Y-94297870D01*
X138779500Y-94297870D01*
X138779501Y-94297876D01*
X138785908Y-94357483D01*
X138836202Y-94492328D01*
X138836206Y-94492335D01*
X138922452Y-94607544D01*
X138922455Y-94607547D01*
X139037664Y-94693793D01*
X139037671Y-94693797D01*
X139172517Y-94744091D01*
X139172516Y-94744091D01*
X139179444Y-94744835D01*
X139232127Y-94750500D01*
X141127872Y-94750499D01*
X141187483Y-94744091D01*
X141322331Y-94693796D01*
X141437546Y-94607546D01*
X141523796Y-94492331D01*
X141574091Y-94357483D01*
X141580500Y-94297873D01*
X141580499Y-92402128D01*
X141574091Y-92342517D01*
X141523796Y-92207669D01*
X141523795Y-92207668D01*
X141523793Y-92207664D01*
X141437547Y-92092455D01*
X141437544Y-92092452D01*
X141322335Y-92006206D01*
X141322328Y-92006202D01*
X141187482Y-91955908D01*
X141187483Y-91955908D01*
X141127883Y-91949501D01*
X141127881Y-91949500D01*
X141127873Y-91949500D01*
X141127864Y-91949500D01*
X139232129Y-91949500D01*
X139232123Y-91949501D01*
X139172516Y-91955908D01*
X139037671Y-92006202D01*
X139037664Y-92006206D01*
X138922455Y-92092452D01*
X138922452Y-92092455D01*
X138836206Y-92207664D01*
X138836202Y-92207671D01*
X138785908Y-92342517D01*
X138779501Y-92402116D01*
X138779501Y-92402123D01*
X138779500Y-92402135D01*
X138779500Y-94297870D01*
X125000500Y-94297870D01*
X125000500Y-74635003D01*
X159579435Y-74635003D01*
X159599630Y-74814249D01*
X159599631Y-74814254D01*
X159659211Y-74984523D01*
X159719515Y-75080496D01*
X159740016Y-75113123D01*
X159755185Y-75137263D01*
X159757445Y-75140097D01*
X159758334Y-75142275D01*
X159758889Y-75143158D01*
X159758734Y-75143255D01*
X159783855Y-75204783D01*
X159784500Y-75217412D01*
X159784500Y-100548330D01*
X159784499Y-100548348D01*
X159784499Y-100714054D01*
X159784498Y-100714054D01*
X159825423Y-100866785D01*
X159854358Y-100916900D01*
X159854359Y-100916904D01*
X159854360Y-100916904D01*
X159904479Y-101003714D01*
X159904481Y-101003717D01*
X160023349Y-101122585D01*
X160023355Y-101122590D01*
X161698181Y-102797416D01*
X161731666Y-102858739D01*
X161734500Y-102885097D01*
X161734500Y-103132171D01*
X161714815Y-103199210D01*
X161662011Y-103244965D01*
X161592853Y-103254909D01*
X161565707Y-103247798D01*
X161393441Y-103181063D01*
X161366389Y-103170583D01*
X161159988Y-103132000D01*
X160950012Y-103132000D01*
X160743611Y-103170583D01*
X160619792Y-103218550D01*
X160547817Y-103246434D01*
X160547811Y-103246436D01*
X160369291Y-103356971D01*
X160369289Y-103356973D01*
X160214117Y-103498430D01*
X160087577Y-103665996D01*
X159993987Y-103853949D01*
X159993982Y-103853962D01*
X159936519Y-104055920D01*
X159917146Y-104264999D01*
X159917146Y-104265000D01*
X159936519Y-104474079D01*
X159993982Y-104676037D01*
X159993987Y-104676050D01*
X160087577Y-104864003D01*
X160214117Y-105031569D01*
X160369289Y-105173026D01*
X160369291Y-105173028D01*
X160547811Y-105283563D01*
X160547812Y-105283563D01*
X160547815Y-105283565D01*
X160743611Y-105359417D01*
X160950012Y-105398000D01*
X160950014Y-105398000D01*
X161159986Y-105398000D01*
X161159988Y-105398000D01*
X161366389Y-105359417D01*
X161562185Y-105283565D01*
X161562184Y-105283565D01*
X161565706Y-105282201D01*
X161635330Y-105276339D01*
X161697070Y-105309049D01*
X161731325Y-105369946D01*
X161734500Y-105397828D01*
X161734500Y-107998330D01*
X161734499Y-107998348D01*
X161734499Y-108164054D01*
X161734498Y-108164054D01*
X161734499Y-108164057D01*
X161775423Y-108316785D01*
X161801528Y-108362000D01*
X161801528Y-108362001D01*
X161854475Y-108453709D01*
X161854481Y-108453717D01*
X161973349Y-108572585D01*
X161973355Y-108572590D01*
X171593714Y-118192949D01*
X171627199Y-118254272D01*
X171622215Y-118323964D01*
X171580343Y-118379897D01*
X171514879Y-118404314D01*
X171483251Y-118402519D01*
X171319988Y-118372000D01*
X171110012Y-118372000D01*
X170903611Y-118410583D01*
X170779792Y-118458550D01*
X170707817Y-118486434D01*
X170707811Y-118486436D01*
X170529291Y-118596971D01*
X170529289Y-118596973D01*
X170374117Y-118738430D01*
X170247577Y-118905996D01*
X170153987Y-119093949D01*
X170153982Y-119093962D01*
X170096519Y-119295920D01*
X170077146Y-119504999D01*
X170077146Y-119505000D01*
X170096519Y-119714079D01*
X170153982Y-119916037D01*
X170153987Y-119916050D01*
X170247577Y-120104003D01*
X170374117Y-120271569D01*
X170529289Y-120413026D01*
X170529291Y-120413028D01*
X170707811Y-120523563D01*
X170707812Y-120523563D01*
X170707815Y-120523565D01*
X170903611Y-120599417D01*
X171110012Y-120638000D01*
X171110014Y-120638000D01*
X171319986Y-120638000D01*
X171319988Y-120638000D01*
X171526389Y-120599417D01*
X171722185Y-120523565D01*
X171900710Y-120413027D01*
X172055884Y-120271567D01*
X172182423Y-120104003D01*
X172276017Y-119916040D01*
X172333480Y-119714080D01*
X172352854Y-119505000D01*
X172333480Y-119295920D01*
X172319703Y-119247499D01*
X172320289Y-119177634D01*
X172358556Y-119119175D01*
X172422353Y-119090684D01*
X172491425Y-119101208D01*
X172526650Y-119125885D01*
X172600461Y-119199696D01*
X172633946Y-119261019D01*
X172636251Y-119298818D01*
X172617146Y-119504999D01*
X172617146Y-119505000D01*
X172636519Y-119714079D01*
X172693982Y-119916037D01*
X172693987Y-119916050D01*
X172787577Y-120104003D01*
X172914117Y-120271569D01*
X173069289Y-120413026D01*
X173069291Y-120413028D01*
X173247811Y-120523563D01*
X173247812Y-120523563D01*
X173247815Y-120523565D01*
X173443611Y-120599417D01*
X173650012Y-120638000D01*
X173650014Y-120638000D01*
X173859986Y-120638000D01*
X173859988Y-120638000D01*
X174066389Y-120599417D01*
X174262185Y-120523565D01*
X174440710Y-120413027D01*
X174595884Y-120271567D01*
X174722423Y-120104003D01*
X174816017Y-119916040D01*
X174873480Y-119714080D01*
X174892854Y-119505000D01*
X175157146Y-119505000D01*
X175176519Y-119714079D01*
X175233982Y-119916037D01*
X175233987Y-119916050D01*
X175327577Y-120104003D01*
X175454117Y-120271569D01*
X175609289Y-120413026D01*
X175609291Y-120413028D01*
X175787811Y-120523563D01*
X175787812Y-120523563D01*
X175787815Y-120523565D01*
X175983611Y-120599417D01*
X176190012Y-120638000D01*
X176190014Y-120638000D01*
X176399986Y-120638000D01*
X176399988Y-120638000D01*
X176606389Y-120599417D01*
X176802185Y-120523565D01*
X176980710Y-120413027D01*
X177135884Y-120271567D01*
X177262423Y-120104003D01*
X177356017Y-119916040D01*
X177413480Y-119714080D01*
X177432854Y-119505000D01*
X177697146Y-119505000D01*
X177716519Y-119714079D01*
X177773982Y-119916037D01*
X177773987Y-119916050D01*
X177867577Y-120104003D01*
X177994117Y-120271569D01*
X178149289Y-120413026D01*
X178149291Y-120413028D01*
X178327811Y-120523563D01*
X178327812Y-120523563D01*
X178327815Y-120523565D01*
X178523611Y-120599417D01*
X178730012Y-120638000D01*
X178730014Y-120638000D01*
X178939986Y-120638000D01*
X178939988Y-120638000D01*
X179054784Y-120616541D01*
X181157947Y-120616541D01*
X181270061Y-120637500D01*
X181479939Y-120637500D01*
X181592052Y-120616541D01*
X181375001Y-120399490D01*
X181157947Y-120616541D01*
X179054784Y-120616541D01*
X179146389Y-120599417D01*
X179342185Y-120523565D01*
X179520710Y-120413027D01*
X179675884Y-120271567D01*
X179802423Y-120104003D01*
X179896017Y-119916040D01*
X179953480Y-119714080D01*
X179972854Y-119505000D01*
X180237648Y-119505000D01*
X180257014Y-119713990D01*
X180260226Y-119725281D01*
X180416986Y-119568522D01*
X180892500Y-119568522D01*
X180925382Y-119691238D01*
X180988904Y-119801262D01*
X181078738Y-119891096D01*
X181188762Y-119954618D01*
X181311478Y-119987500D01*
X181438522Y-119987500D01*
X181561238Y-119954618D01*
X181671262Y-119891096D01*
X181761096Y-119801262D01*
X181824618Y-119691238D01*
X181857500Y-119568522D01*
X181857500Y-119505001D01*
X182269490Y-119505001D01*
X182489771Y-119725282D01*
X182492985Y-119713990D01*
X182492986Y-119713982D01*
X182512352Y-119505000D01*
X182777146Y-119505000D01*
X182796519Y-119714079D01*
X182853982Y-119916037D01*
X182853987Y-119916050D01*
X182947577Y-120104003D01*
X183074117Y-120271569D01*
X183229289Y-120413026D01*
X183229291Y-120413028D01*
X183407811Y-120523563D01*
X183407812Y-120523563D01*
X183407815Y-120523565D01*
X183603611Y-120599417D01*
X183810012Y-120638000D01*
X183810014Y-120638000D01*
X184019986Y-120638000D01*
X184019988Y-120638000D01*
X184226389Y-120599417D01*
X184422185Y-120523565D01*
X184600710Y-120413027D01*
X184755884Y-120271567D01*
X184882423Y-120104003D01*
X184976017Y-119916040D01*
X185033480Y-119714080D01*
X185052854Y-119505000D01*
X185033480Y-119295920D01*
X184976017Y-119093960D01*
X184882423Y-118905997D01*
X184755884Y-118738433D01*
X184755882Y-118738430D01*
X184600710Y-118596973D01*
X184600708Y-118596971D01*
X184422188Y-118486436D01*
X184422182Y-118486434D01*
X184226389Y-118410583D01*
X184019988Y-118372000D01*
X183810012Y-118372000D01*
X183603611Y-118410583D01*
X183479792Y-118458550D01*
X183407817Y-118486434D01*
X183407811Y-118486436D01*
X183229291Y-118596971D01*
X183229289Y-118596973D01*
X183074117Y-118738430D01*
X182947577Y-118905996D01*
X182853987Y-119093949D01*
X182853982Y-119093962D01*
X182796519Y-119295920D01*
X182777146Y-119504999D01*
X182777146Y-119505000D01*
X182512352Y-119505000D01*
X182512352Y-119504999D01*
X182492985Y-119296009D01*
X182489772Y-119284717D01*
X182489771Y-119284717D01*
X182269490Y-119505000D01*
X182269490Y-119505001D01*
X181857500Y-119505001D01*
X181857500Y-119441478D01*
X181824618Y-119318762D01*
X181761096Y-119208738D01*
X181671262Y-119118904D01*
X181561238Y-119055382D01*
X181438522Y-119022500D01*
X181311478Y-119022500D01*
X181188762Y-119055382D01*
X181078738Y-119118904D01*
X180988904Y-119208738D01*
X180925382Y-119318762D01*
X180892500Y-119441478D01*
X180892500Y-119568522D01*
X180416986Y-119568522D01*
X180480510Y-119504999D01*
X180260227Y-119284716D01*
X180257014Y-119296013D01*
X180237648Y-119505000D01*
X179972854Y-119505000D01*
X179953480Y-119295920D01*
X179896017Y-119093960D01*
X179802423Y-118905997D01*
X179675884Y-118738433D01*
X179675882Y-118738430D01*
X179520710Y-118596973D01*
X179520708Y-118596971D01*
X179342188Y-118486436D01*
X179342182Y-118486434D01*
X179146389Y-118410583D01*
X179054773Y-118393457D01*
X181157947Y-118393457D01*
X181374999Y-118610509D01*
X181592050Y-118393457D01*
X181479940Y-118372500D01*
X181270060Y-118372500D01*
X181157947Y-118393457D01*
X179054773Y-118393457D01*
X178939988Y-118372000D01*
X178730012Y-118372000D01*
X178523611Y-118410583D01*
X178399792Y-118458550D01*
X178327817Y-118486434D01*
X178327811Y-118486436D01*
X178149291Y-118596971D01*
X178149289Y-118596973D01*
X177994117Y-118738430D01*
X177867577Y-118905996D01*
X177773987Y-119093949D01*
X177773982Y-119093962D01*
X177716519Y-119295920D01*
X177697146Y-119504999D01*
X177697146Y-119505000D01*
X177432854Y-119505000D01*
X177413480Y-119295920D01*
X177356017Y-119093960D01*
X177262423Y-118905997D01*
X177135884Y-118738433D01*
X177135882Y-118738430D01*
X176980710Y-118596973D01*
X176980708Y-118596971D01*
X176802188Y-118486436D01*
X176802182Y-118486434D01*
X176606389Y-118410583D01*
X176399988Y-118372000D01*
X176190012Y-118372000D01*
X175983611Y-118410583D01*
X175859792Y-118458550D01*
X175787817Y-118486434D01*
X175787811Y-118486436D01*
X175609291Y-118596971D01*
X175609289Y-118596973D01*
X175454117Y-118738430D01*
X175327577Y-118905996D01*
X175233987Y-119093949D01*
X175233982Y-119093962D01*
X175176519Y-119295920D01*
X175157146Y-119504999D01*
X175157146Y-119505000D01*
X174892854Y-119505000D01*
X174873480Y-119295920D01*
X174816017Y-119093960D01*
X174722423Y-118905997D01*
X174595884Y-118738433D01*
X174595882Y-118738430D01*
X174440710Y-118596973D01*
X174440708Y-118596971D01*
X174262188Y-118486436D01*
X174262182Y-118486434D01*
X174066389Y-118410583D01*
X173859988Y-118372000D01*
X173650012Y-118372000D01*
X173650010Y-118372000D01*
X173563636Y-118388145D01*
X173494121Y-118381113D01*
X173453172Y-118353937D01*
X162971819Y-107872584D01*
X162938334Y-107811261D01*
X162935500Y-107784903D01*
X162935500Y-105405575D01*
X162955185Y-105338536D01*
X163007989Y-105292781D01*
X163077147Y-105282837D01*
X163104285Y-105289945D01*
X163283611Y-105359417D01*
X163490012Y-105398000D01*
X163490014Y-105398000D01*
X163699986Y-105398000D01*
X163699988Y-105398000D01*
X163906389Y-105359417D01*
X164102185Y-105283565D01*
X164280710Y-105173027D01*
X164435884Y-105031567D01*
X164562423Y-104864003D01*
X164656017Y-104676040D01*
X164713480Y-104474080D01*
X164732854Y-104265000D01*
X164997146Y-104265000D01*
X165016519Y-104474079D01*
X165073982Y-104676037D01*
X165073987Y-104676050D01*
X165167577Y-104864003D01*
X165294117Y-105031569D01*
X165449289Y-105173026D01*
X165449291Y-105173028D01*
X165627811Y-105283563D01*
X165627812Y-105283563D01*
X165627815Y-105283565D01*
X165823611Y-105359417D01*
X166030012Y-105398000D01*
X166030014Y-105398000D01*
X166239986Y-105398000D01*
X166239988Y-105398000D01*
X166446389Y-105359417D01*
X166642185Y-105283565D01*
X166820710Y-105173027D01*
X166975884Y-105031567D01*
X167102423Y-104864003D01*
X167196017Y-104676040D01*
X167253480Y-104474080D01*
X167272854Y-104265000D01*
X167537146Y-104265000D01*
X167556519Y-104474079D01*
X167613982Y-104676037D01*
X167613987Y-104676050D01*
X167707577Y-104864003D01*
X167834117Y-105031569D01*
X167989289Y-105173026D01*
X167989291Y-105173028D01*
X168167811Y-105283563D01*
X168167812Y-105283563D01*
X168167815Y-105283565D01*
X168363611Y-105359417D01*
X168570012Y-105398000D01*
X168570014Y-105398000D01*
X168779986Y-105398000D01*
X168779988Y-105398000D01*
X168986389Y-105359417D01*
X169182185Y-105283565D01*
X169360710Y-105173027D01*
X169515884Y-105031567D01*
X169642423Y-104864003D01*
X169736017Y-104676040D01*
X169793480Y-104474080D01*
X169812854Y-104265000D01*
X170077146Y-104265000D01*
X170096519Y-104474079D01*
X170153982Y-104676037D01*
X170153987Y-104676050D01*
X170247577Y-104864003D01*
X170374117Y-105031569D01*
X170529289Y-105173026D01*
X170529291Y-105173028D01*
X170707811Y-105283563D01*
X170707812Y-105283563D01*
X170707815Y-105283565D01*
X170903611Y-105359417D01*
X171110012Y-105398000D01*
X171110014Y-105398000D01*
X171319986Y-105398000D01*
X171319988Y-105398000D01*
X171526389Y-105359417D01*
X171722185Y-105283565D01*
X171900710Y-105173027D01*
X172055884Y-105031567D01*
X172182423Y-104864003D01*
X172276017Y-104676040D01*
X172333480Y-104474080D01*
X172352854Y-104265000D01*
X172617146Y-104265000D01*
X172636519Y-104474079D01*
X172693982Y-104676037D01*
X172693987Y-104676050D01*
X172787577Y-104864003D01*
X172914117Y-105031569D01*
X173069289Y-105173026D01*
X173069291Y-105173028D01*
X173247811Y-105283563D01*
X173247812Y-105283563D01*
X173247815Y-105283565D01*
X173443611Y-105359417D01*
X173650012Y-105398000D01*
X173650014Y-105398000D01*
X173859986Y-105398000D01*
X173859988Y-105398000D01*
X174066389Y-105359417D01*
X174262185Y-105283565D01*
X174440710Y-105173027D01*
X174595884Y-105031567D01*
X174722423Y-104864003D01*
X174816017Y-104676040D01*
X174873480Y-104474080D01*
X174892854Y-104265000D01*
X175157146Y-104265000D01*
X175176519Y-104474079D01*
X175233982Y-104676037D01*
X175233987Y-104676050D01*
X175327577Y-104864003D01*
X175454117Y-105031569D01*
X175609289Y-105173026D01*
X175609291Y-105173028D01*
X175787811Y-105283563D01*
X175787812Y-105283563D01*
X175787815Y-105283565D01*
X175983611Y-105359417D01*
X176190012Y-105398000D01*
X176190014Y-105398000D01*
X176399986Y-105398000D01*
X176399988Y-105398000D01*
X176606389Y-105359417D01*
X176802185Y-105283565D01*
X176980710Y-105173027D01*
X177135884Y-105031567D01*
X177262423Y-104864003D01*
X177356017Y-104676040D01*
X177413480Y-104474080D01*
X177432854Y-104265000D01*
X177697146Y-104265000D01*
X177716519Y-104474079D01*
X177773982Y-104676037D01*
X177773987Y-104676050D01*
X177867577Y-104864003D01*
X177994117Y-105031569D01*
X178149289Y-105173026D01*
X178149291Y-105173028D01*
X178327811Y-105283563D01*
X178327812Y-105283563D01*
X178327815Y-105283565D01*
X178523611Y-105359417D01*
X178730012Y-105398000D01*
X178730014Y-105398000D01*
X178939986Y-105398000D01*
X178939988Y-105398000D01*
X179146389Y-105359417D01*
X179342185Y-105283565D01*
X179520710Y-105173027D01*
X179675884Y-105031567D01*
X179802423Y-104864003D01*
X179896017Y-104676040D01*
X179953480Y-104474080D01*
X179972854Y-104265000D01*
X180237146Y-104265000D01*
X180256519Y-104474079D01*
X180313982Y-104676037D01*
X180313987Y-104676050D01*
X180407577Y-104864003D01*
X180534117Y-105031569D01*
X180689289Y-105173026D01*
X180689291Y-105173028D01*
X180867811Y-105283563D01*
X180867812Y-105283563D01*
X180867815Y-105283565D01*
X181063611Y-105359417D01*
X181270012Y-105398000D01*
X181270014Y-105398000D01*
X181479986Y-105398000D01*
X181479988Y-105398000D01*
X181686389Y-105359417D01*
X181882185Y-105283565D01*
X182060710Y-105173027D01*
X182215884Y-105031567D01*
X182342423Y-104864003D01*
X182436017Y-104676040D01*
X182493480Y-104474080D01*
X182512854Y-104265000D01*
X182777146Y-104265000D01*
X182796519Y-104474079D01*
X182853982Y-104676037D01*
X182853987Y-104676050D01*
X182947577Y-104864003D01*
X183074117Y-105031569D01*
X183229289Y-105173026D01*
X183229291Y-105173028D01*
X183407811Y-105283563D01*
X183407812Y-105283563D01*
X183407815Y-105283565D01*
X183603611Y-105359417D01*
X183810012Y-105398000D01*
X183810014Y-105398000D01*
X184019986Y-105398000D01*
X184019988Y-105398000D01*
X184226389Y-105359417D01*
X184422185Y-105283565D01*
X184600710Y-105173027D01*
X184755884Y-105031567D01*
X184882423Y-104864003D01*
X184976017Y-104676040D01*
X185033480Y-104474080D01*
X185052854Y-104265000D01*
X185033480Y-104055920D01*
X184976017Y-103853960D01*
X184882423Y-103665997D01*
X184755884Y-103498433D01*
X184755882Y-103498430D01*
X184600710Y-103356973D01*
X184600708Y-103356971D01*
X184422188Y-103246436D01*
X184422182Y-103246434D01*
X184226389Y-103170583D01*
X184019988Y-103132000D01*
X183810012Y-103132000D01*
X183603611Y-103170583D01*
X183479792Y-103218550D01*
X183407817Y-103246434D01*
X183407811Y-103246436D01*
X183229291Y-103356971D01*
X183229289Y-103356973D01*
X183074117Y-103498430D01*
X182947577Y-103665996D01*
X182853987Y-103853949D01*
X182853982Y-103853962D01*
X182796519Y-104055920D01*
X182777146Y-104264999D01*
X182777146Y-104265000D01*
X182512854Y-104265000D01*
X182493480Y-104055920D01*
X182436017Y-103853960D01*
X182342423Y-103665997D01*
X182215884Y-103498433D01*
X182215882Y-103498430D01*
X182060710Y-103356973D01*
X182060708Y-103356971D01*
X181882188Y-103246436D01*
X181882182Y-103246434D01*
X181686389Y-103170583D01*
X181479988Y-103132000D01*
X181270012Y-103132000D01*
X181063611Y-103170583D01*
X180939792Y-103218550D01*
X180867817Y-103246434D01*
X180867811Y-103246436D01*
X180689291Y-103356971D01*
X180689289Y-103356973D01*
X180534117Y-103498430D01*
X180407577Y-103665996D01*
X180313987Y-103853949D01*
X180313982Y-103853962D01*
X180256519Y-104055920D01*
X180237146Y-104264999D01*
X180237146Y-104265000D01*
X179972854Y-104265000D01*
X179953480Y-104055920D01*
X179896017Y-103853960D01*
X179802423Y-103665997D01*
X179675884Y-103498433D01*
X179675882Y-103498430D01*
X179520710Y-103356973D01*
X179520708Y-103356971D01*
X179342188Y-103246436D01*
X179342182Y-103246434D01*
X179146389Y-103170583D01*
X178939988Y-103132000D01*
X178730012Y-103132000D01*
X178523611Y-103170583D01*
X178399792Y-103218550D01*
X178327817Y-103246434D01*
X178327811Y-103246436D01*
X178149291Y-103356971D01*
X178149289Y-103356973D01*
X177994117Y-103498430D01*
X177867577Y-103665996D01*
X177773987Y-103853949D01*
X177773982Y-103853962D01*
X177716519Y-104055920D01*
X177697146Y-104264999D01*
X177697146Y-104265000D01*
X177432854Y-104265000D01*
X177413480Y-104055920D01*
X177356017Y-103853960D01*
X177262423Y-103665997D01*
X177135884Y-103498433D01*
X177135882Y-103498430D01*
X176980710Y-103356973D01*
X176980708Y-103356971D01*
X176802188Y-103246436D01*
X176802182Y-103246434D01*
X176606389Y-103170583D01*
X176399988Y-103132000D01*
X176190012Y-103132000D01*
X175983611Y-103170583D01*
X175859792Y-103218550D01*
X175787817Y-103246434D01*
X175787811Y-103246436D01*
X175609291Y-103356971D01*
X175609289Y-103356973D01*
X175454117Y-103498430D01*
X175327577Y-103665996D01*
X175233987Y-103853949D01*
X175233982Y-103853962D01*
X175176519Y-104055920D01*
X175157146Y-104264999D01*
X175157146Y-104265000D01*
X174892854Y-104265000D01*
X174873480Y-104055920D01*
X174816017Y-103853960D01*
X174722423Y-103665997D01*
X174595884Y-103498433D01*
X174595882Y-103498430D01*
X174440710Y-103356973D01*
X174440708Y-103356971D01*
X174262188Y-103246436D01*
X174262182Y-103246434D01*
X174066389Y-103170583D01*
X173859988Y-103132000D01*
X173650012Y-103132000D01*
X173443611Y-103170583D01*
X173319792Y-103218550D01*
X173247817Y-103246434D01*
X173247811Y-103246436D01*
X173069291Y-103356971D01*
X173069289Y-103356973D01*
X172914117Y-103498430D01*
X172787577Y-103665996D01*
X172693987Y-103853949D01*
X172693982Y-103853962D01*
X172636519Y-104055920D01*
X172617146Y-104264999D01*
X172617146Y-104265000D01*
X172352854Y-104265000D01*
X172333480Y-104055920D01*
X172276017Y-103853960D01*
X172182423Y-103665997D01*
X172055884Y-103498433D01*
X172055882Y-103498430D01*
X171900710Y-103356973D01*
X171900708Y-103356971D01*
X171722188Y-103246436D01*
X171722182Y-103246434D01*
X171526389Y-103170583D01*
X171319988Y-103132000D01*
X171110012Y-103132000D01*
X170903611Y-103170583D01*
X170779792Y-103218550D01*
X170707817Y-103246434D01*
X170707811Y-103246436D01*
X170529291Y-103356971D01*
X170529289Y-103356973D01*
X170374117Y-103498430D01*
X170247577Y-103665996D01*
X170153987Y-103853949D01*
X170153982Y-103853962D01*
X170096519Y-104055920D01*
X170077146Y-104264999D01*
X170077146Y-104265000D01*
X169812854Y-104265000D01*
X169793480Y-104055920D01*
X169736017Y-103853960D01*
X169642423Y-103665997D01*
X169515884Y-103498433D01*
X169515882Y-103498430D01*
X169360710Y-103356973D01*
X169360708Y-103356971D01*
X169182188Y-103246436D01*
X169182182Y-103246434D01*
X168986389Y-103170583D01*
X168779988Y-103132000D01*
X168570012Y-103132000D01*
X168363611Y-103170583D01*
X168239792Y-103218550D01*
X168167817Y-103246434D01*
X168167811Y-103246436D01*
X167989291Y-103356971D01*
X167989289Y-103356973D01*
X167834117Y-103498430D01*
X167707577Y-103665996D01*
X167613987Y-103853949D01*
X167613982Y-103853962D01*
X167556519Y-104055920D01*
X167537146Y-104264999D01*
X167537146Y-104265000D01*
X167272854Y-104265000D01*
X167253480Y-104055920D01*
X167196017Y-103853960D01*
X167102423Y-103665997D01*
X166975884Y-103498433D01*
X166975882Y-103498430D01*
X166820710Y-103356973D01*
X166820708Y-103356971D01*
X166642188Y-103246436D01*
X166642182Y-103246434D01*
X166446389Y-103170583D01*
X166239988Y-103132000D01*
X166030012Y-103132000D01*
X165823611Y-103170583D01*
X165699792Y-103218550D01*
X165627817Y-103246434D01*
X165627811Y-103246436D01*
X165449291Y-103356971D01*
X165449289Y-103356973D01*
X165294117Y-103498430D01*
X165167577Y-103665996D01*
X165073987Y-103853949D01*
X165073982Y-103853962D01*
X165016519Y-104055920D01*
X164997146Y-104264999D01*
X164997146Y-104265000D01*
X164732854Y-104265000D01*
X164713480Y-104055920D01*
X164656017Y-103853960D01*
X164562423Y-103665997D01*
X164435884Y-103498433D01*
X164435882Y-103498430D01*
X164280710Y-103356973D01*
X164280708Y-103356971D01*
X164102188Y-103246436D01*
X164102182Y-103246434D01*
X163906389Y-103170583D01*
X163699988Y-103132000D01*
X163490012Y-103132000D01*
X163283611Y-103170583D01*
X163104294Y-103240051D01*
X163034670Y-103245913D01*
X162972930Y-103213203D01*
X162938675Y-103152306D01*
X162935500Y-103124424D01*
X162935500Y-102505945D01*
X162935500Y-102505943D01*
X162894577Y-102353216D01*
X162894573Y-102353209D01*
X162815524Y-102216290D01*
X162815521Y-102216286D01*
X162815520Y-102216284D01*
X162703716Y-102104480D01*
X162703715Y-102104479D01*
X162699385Y-102100149D01*
X162699374Y-102100139D01*
X161021819Y-100422584D01*
X160988334Y-100361261D01*
X160985500Y-100334903D01*
X160985500Y-82392934D01*
X173744500Y-82392934D01*
X173758680Y-82500633D01*
X173776591Y-82636677D01*
X173822837Y-82809270D01*
X173840222Y-82874152D01*
X173840225Y-82874162D01*
X173897152Y-83011594D01*
X173934306Y-83101292D01*
X174057233Y-83314208D01*
X174057235Y-83314211D01*
X174057236Y-83314212D01*
X174206897Y-83509254D01*
X174206903Y-83509261D01*
X174380738Y-83683096D01*
X174380745Y-83683102D01*
X174480911Y-83759962D01*
X174575792Y-83832767D01*
X174788708Y-83955694D01*
X174964384Y-84028461D01*
X174991207Y-84039572D01*
X175015847Y-84049778D01*
X175253323Y-84113409D01*
X175497073Y-84145500D01*
X175497080Y-84145500D01*
X175742920Y-84145500D01*
X175742927Y-84145500D01*
X175986677Y-84113409D01*
X176224153Y-84049778D01*
X176451292Y-83955694D01*
X176498766Y-83928284D01*
X176566665Y-83911811D01*
X176632692Y-83934663D01*
X176675883Y-83989583D01*
X176684450Y-84044517D01*
X176664390Y-84324998D01*
X176664390Y-84325001D01*
X176684804Y-84610433D01*
X176745628Y-84890037D01*
X176845635Y-85158166D01*
X176982770Y-85409309D01*
X176982775Y-85409317D01*
X177154254Y-85638387D01*
X177154270Y-85638405D01*
X177356594Y-85840729D01*
X177356612Y-85840745D01*
X177585682Y-86012224D01*
X177585690Y-86012229D01*
X177836833Y-86149364D01*
X177836832Y-86149364D01*
X177836836Y-86149365D01*
X177836839Y-86149367D01*
X178104954Y-86249369D01*
X178104960Y-86249370D01*
X178104962Y-86249371D01*
X178384566Y-86310195D01*
X178384568Y-86310195D01*
X178384572Y-86310196D01*
X178638220Y-86328337D01*
X178669999Y-86330610D01*
X178670000Y-86330610D01*
X178670001Y-86330610D01*
X178698595Y-86328564D01*
X178955428Y-86310196D01*
X179235046Y-86249369D01*
X179503161Y-86149367D01*
X179754315Y-86012226D01*
X179983395Y-85840739D01*
X180185739Y-85638395D01*
X180357226Y-85409315D01*
X180494367Y-85158161D01*
X180594369Y-84890046D01*
X180655196Y-84610428D01*
X180675610Y-84325000D01*
X180655196Y-84039572D01*
X180627403Y-83911811D01*
X180594371Y-83759962D01*
X180594370Y-83759960D01*
X180594369Y-83759954D01*
X180494367Y-83491839D01*
X180357226Y-83240685D01*
X180357224Y-83240682D01*
X180185745Y-83011612D01*
X180185729Y-83011594D01*
X179983405Y-82809270D01*
X179983387Y-82809254D01*
X179754317Y-82637775D01*
X179754309Y-82637770D01*
X179503166Y-82500635D01*
X179503167Y-82500635D01*
X179395915Y-82460632D01*
X179235046Y-82400631D01*
X179235043Y-82400630D01*
X179235037Y-82400628D01*
X178955433Y-82339804D01*
X178670001Y-82319390D01*
X178669999Y-82319390D01*
X178384566Y-82339804D01*
X178104962Y-82400628D01*
X177836832Y-82500635D01*
X177668008Y-82592821D01*
X177599735Y-82607673D01*
X177534270Y-82583256D01*
X177492399Y-82527322D01*
X177485642Y-82467803D01*
X177495499Y-82392934D01*
X177495500Y-82392927D01*
X177495500Y-82147073D01*
X177463409Y-81903323D01*
X177399778Y-81665847D01*
X177305694Y-81438708D01*
X177182767Y-81225792D01*
X177033101Y-81030744D01*
X177033096Y-81030738D01*
X176859261Y-80856903D01*
X176859254Y-80856897D01*
X176664212Y-80707236D01*
X176664211Y-80707235D01*
X176664208Y-80707233D01*
X176451292Y-80584306D01*
X176451285Y-80584303D01*
X176224162Y-80490225D01*
X176224155Y-80490223D01*
X176224153Y-80490222D01*
X175986677Y-80426591D01*
X175945939Y-80421227D01*
X175742934Y-80394500D01*
X175742927Y-80394500D01*
X175497073Y-80394500D01*
X175497065Y-80394500D01*
X175265059Y-80425045D01*
X175253323Y-80426591D01*
X175234357Y-80431673D01*
X175015847Y-80490222D01*
X175015837Y-80490225D01*
X174788714Y-80584303D01*
X174788705Y-80584307D01*
X174575787Y-80707236D01*
X174380745Y-80856897D01*
X174380738Y-80856903D01*
X174206903Y-81030738D01*
X174206897Y-81030745D01*
X174057236Y-81225787D01*
X173934307Y-81438705D01*
X173934303Y-81438714D01*
X173840225Y-81665837D01*
X173840222Y-81665847D01*
X173804849Y-81797864D01*
X173776592Y-81903320D01*
X173776590Y-81903331D01*
X173744500Y-82147065D01*
X173744500Y-82392934D01*
X160985500Y-82392934D01*
X160985500Y-79730002D01*
X165474723Y-79730002D01*
X165476990Y-79755909D01*
X165488935Y-79892454D01*
X165493793Y-79947975D01*
X165493793Y-79947979D01*
X165550422Y-80159322D01*
X165550424Y-80159326D01*
X165550425Y-80159330D01*
X165570380Y-80202123D01*
X165642897Y-80357638D01*
X165666074Y-80390738D01*
X165768402Y-80536877D01*
X165923123Y-80691598D01*
X166102361Y-80817102D01*
X166300670Y-80909575D01*
X166512023Y-80966207D01*
X166694926Y-80982208D01*
X166729998Y-80985277D01*
X166730000Y-80985277D01*
X166730002Y-80985277D01*
X166758254Y-80982805D01*
X166947977Y-80966207D01*
X167159330Y-80909575D01*
X167357639Y-80817102D01*
X167536877Y-80691598D01*
X167691598Y-80536877D01*
X167793926Y-80390736D01*
X167848502Y-80347113D01*
X167918001Y-80339921D01*
X167980355Y-80371443D01*
X168015769Y-80431673D01*
X168019500Y-80461862D01*
X168019500Y-81797870D01*
X168019501Y-81797876D01*
X168025908Y-81857483D01*
X168076202Y-81992328D01*
X168076206Y-81992335D01*
X168162452Y-82107544D01*
X168162455Y-82107547D01*
X168277664Y-82193793D01*
X168277671Y-82193797D01*
X168412517Y-82244091D01*
X168412516Y-82244091D01*
X168419444Y-82244835D01*
X168472127Y-82250500D01*
X170067872Y-82250499D01*
X170127483Y-82244091D01*
X170262331Y-82193796D01*
X170377546Y-82107546D01*
X170463796Y-81992331D01*
X170514091Y-81857483D01*
X170520500Y-81797873D01*
X170520499Y-80202128D01*
X170514091Y-80142517D01*
X170463796Y-80007669D01*
X170463795Y-80007668D01*
X170463793Y-80007664D01*
X170377547Y-79892455D01*
X170377544Y-79892452D01*
X170262335Y-79806206D01*
X170262328Y-79806202D01*
X170127482Y-79755908D01*
X170127483Y-79755908D01*
X170067883Y-79749501D01*
X170067881Y-79749500D01*
X170067873Y-79749500D01*
X170067865Y-79749500D01*
X170001862Y-79749500D01*
X169934823Y-79729815D01*
X169889068Y-79677011D01*
X169879124Y-79607853D01*
X169908149Y-79544297D01*
X169930734Y-79523928D01*
X170076877Y-79421598D01*
X170231598Y-79266877D01*
X170357102Y-79087639D01*
X170449575Y-78889330D01*
X170506207Y-78677977D01*
X170525277Y-78460000D01*
X170506207Y-78242023D01*
X170449575Y-78030670D01*
X170357102Y-77832362D01*
X170357100Y-77832359D01*
X170357099Y-77832357D01*
X170231599Y-77653124D01*
X170197797Y-77619322D01*
X170076877Y-77498402D01*
X169897639Y-77372898D01*
X169746414Y-77302381D01*
X169693977Y-77256210D01*
X169674825Y-77189016D01*
X169695041Y-77122135D01*
X169746414Y-77077618D01*
X169897639Y-77007102D01*
X170076877Y-76881598D01*
X170231598Y-76726877D01*
X170357102Y-76547639D01*
X170449575Y-76349330D01*
X170506207Y-76137977D01*
X170525277Y-75920000D01*
X170506207Y-75702023D01*
X170449575Y-75490670D01*
X170357102Y-75292362D01*
X170357100Y-75292359D01*
X170357099Y-75292357D01*
X170231599Y-75113124D01*
X170197797Y-75079322D01*
X170076877Y-74958402D01*
X169897639Y-74832898D01*
X169746414Y-74762381D01*
X169693977Y-74716210D01*
X169674825Y-74649016D01*
X169695041Y-74582135D01*
X169746414Y-74537618D01*
X169897639Y-74467102D01*
X170076877Y-74341598D01*
X170231598Y-74186877D01*
X170357102Y-74007639D01*
X170449575Y-73809330D01*
X170506207Y-73597977D01*
X170525277Y-73380000D01*
X170506207Y-73162023D01*
X170449575Y-72950670D01*
X170357102Y-72752362D01*
X170357100Y-72752359D01*
X170357099Y-72752357D01*
X170231599Y-72573124D01*
X170184167Y-72525692D01*
X170076877Y-72418402D01*
X169897639Y-72292898D01*
X169897640Y-72292898D01*
X169897638Y-72292897D01*
X169798484Y-72246661D01*
X169699330Y-72200425D01*
X169699326Y-72200424D01*
X169699322Y-72200422D01*
X169487977Y-72143793D01*
X169270002Y-72124723D01*
X169269998Y-72124723D01*
X169124682Y-72137436D01*
X169052023Y-72143793D01*
X169052020Y-72143793D01*
X168840677Y-72200422D01*
X168840668Y-72200426D01*
X168642361Y-72292898D01*
X168642357Y-72292900D01*
X168463121Y-72418402D01*
X168308402Y-72573121D01*
X168182900Y-72752357D01*
X168182898Y-72752361D01*
X168090426Y-72950668D01*
X168090422Y-72950677D01*
X168033793Y-73162020D01*
X168033793Y-73162024D01*
X168014723Y-73379997D01*
X168014723Y-73380002D01*
X168033793Y-73597975D01*
X168033793Y-73597979D01*
X168090422Y-73809322D01*
X168090424Y-73809326D01*
X168090425Y-73809330D01*
X168109218Y-73849631D01*
X168182897Y-74007638D01*
X168193206Y-74022361D01*
X168308402Y-74186877D01*
X168463123Y-74341598D01*
X168592265Y-74432024D01*
X168642361Y-74467102D01*
X168793583Y-74537618D01*
X168846022Y-74583790D01*
X168865174Y-74650984D01*
X168844958Y-74717865D01*
X168793583Y-74762382D01*
X168642361Y-74832898D01*
X168642357Y-74832900D01*
X168463121Y-74958402D01*
X168308402Y-75113121D01*
X168182900Y-75292357D01*
X168182898Y-75292361D01*
X168090426Y-75490668D01*
X168090422Y-75490677D01*
X168033793Y-75702020D01*
X168033793Y-75702024D01*
X168014723Y-75919997D01*
X168014723Y-75920002D01*
X168033793Y-76137975D01*
X168033793Y-76137979D01*
X168090422Y-76349322D01*
X168090424Y-76349326D01*
X168090425Y-76349330D01*
X168136661Y-76448484D01*
X168182897Y-76547638D01*
X168193206Y-76562361D01*
X168308402Y-76726877D01*
X168463123Y-76881598D01*
X168592265Y-76972024D01*
X168642361Y-77007102D01*
X168793583Y-77077618D01*
X168846022Y-77123790D01*
X168865174Y-77190984D01*
X168844958Y-77257865D01*
X168793583Y-77302382D01*
X168642361Y-77372898D01*
X168642357Y-77372900D01*
X168463121Y-77498402D01*
X168308402Y-77653121D01*
X168182900Y-77832357D01*
X168182898Y-77832361D01*
X168090426Y-78030668D01*
X168090422Y-78030677D01*
X168033793Y-78242020D01*
X168033793Y-78242024D01*
X168014723Y-78459997D01*
X168014723Y-78460002D01*
X168033793Y-78677975D01*
X168033793Y-78677979D01*
X168090422Y-78889322D01*
X168090424Y-78889326D01*
X168090425Y-78889330D01*
X168136661Y-78988484D01*
X168182897Y-79087638D01*
X168193206Y-79102361D01*
X168308402Y-79266877D01*
X168463123Y-79421598D01*
X168609263Y-79523926D01*
X168652887Y-79578502D01*
X168660081Y-79648000D01*
X168628558Y-79710355D01*
X168568328Y-79745769D01*
X168538141Y-79749500D01*
X168472130Y-79749500D01*
X168472123Y-79749501D01*
X168412516Y-79755908D01*
X168277671Y-79806202D01*
X168277668Y-79806204D01*
X168179660Y-79879573D01*
X168114195Y-79903990D01*
X168045922Y-79889138D01*
X167996517Y-79839733D01*
X167981665Y-79771460D01*
X167981815Y-79769566D01*
X167985277Y-79730000D01*
X167966207Y-79512023D01*
X167909575Y-79300670D01*
X167817102Y-79102362D01*
X167817100Y-79102359D01*
X167817099Y-79102357D01*
X167691599Y-78923124D01*
X167657797Y-78889322D01*
X167536877Y-78768402D01*
X167357639Y-78642898D01*
X167206414Y-78572381D01*
X167153977Y-78526210D01*
X167134825Y-78459016D01*
X167155041Y-78392135D01*
X167206414Y-78347618D01*
X167357639Y-78277102D01*
X167536877Y-78151598D01*
X167691598Y-77996877D01*
X167817102Y-77817639D01*
X167909575Y-77619330D01*
X167966207Y-77407977D01*
X167985277Y-77190000D01*
X167966207Y-76972023D01*
X167909575Y-76760670D01*
X167817102Y-76562362D01*
X167817100Y-76562359D01*
X167817099Y-76562357D01*
X167691599Y-76383124D01*
X167657797Y-76349322D01*
X167536877Y-76228402D01*
X167357639Y-76102898D01*
X167206414Y-76032381D01*
X167153977Y-75986210D01*
X167134825Y-75919016D01*
X167155041Y-75852135D01*
X167206414Y-75807618D01*
X167357639Y-75737102D01*
X167536877Y-75611598D01*
X167691598Y-75456877D01*
X167817102Y-75277639D01*
X167909575Y-75079330D01*
X167966207Y-74867977D01*
X167985277Y-74650000D01*
X167983964Y-74634996D01*
X167981569Y-74607618D01*
X167966207Y-74432023D01*
X167909575Y-74220670D01*
X167817102Y-74022362D01*
X167817100Y-74022359D01*
X167817099Y-74022357D01*
X167691599Y-73843124D01*
X167657797Y-73809322D01*
X167536877Y-73688402D01*
X167357639Y-73562898D01*
X167206414Y-73492381D01*
X167153977Y-73446210D01*
X167134825Y-73379016D01*
X167155041Y-73312135D01*
X167206414Y-73267618D01*
X167357639Y-73197102D01*
X167536877Y-73071598D01*
X167691598Y-72916877D01*
X167817102Y-72737639D01*
X167909575Y-72539330D01*
X167966207Y-72327977D01*
X167985277Y-72110000D01*
X167966207Y-71892023D01*
X167909575Y-71680670D01*
X167817102Y-71482362D01*
X167817100Y-71482359D01*
X167817099Y-71482357D01*
X167691599Y-71303124D01*
X167691596Y-71303121D01*
X167536877Y-71148402D01*
X167357639Y-71022898D01*
X167357640Y-71022898D01*
X167357638Y-71022897D01*
X167258484Y-70976661D01*
X167229046Y-70962934D01*
X173744500Y-70962934D01*
X173768919Y-71148402D01*
X173776591Y-71206677D01*
X173802434Y-71303124D01*
X173840222Y-71444152D01*
X173840225Y-71444162D01*
X173934303Y-71671285D01*
X173934306Y-71671292D01*
X174057233Y-71884208D01*
X174057235Y-71884211D01*
X174057236Y-71884212D01*
X174206897Y-72079254D01*
X174206903Y-72079261D01*
X174380738Y-72253096D01*
X174380744Y-72253101D01*
X174575792Y-72402767D01*
X174788708Y-72525694D01*
X175015847Y-72619778D01*
X175253323Y-72683409D01*
X175497073Y-72715500D01*
X175497080Y-72715500D01*
X175742920Y-72715500D01*
X175742927Y-72715500D01*
X175986677Y-72683409D01*
X176224153Y-72619778D01*
X176451292Y-72525694D01*
X176664208Y-72402767D01*
X176859256Y-72253101D01*
X177033101Y-72079256D01*
X177182767Y-71884208D01*
X177305694Y-71671292D01*
X177399778Y-71444153D01*
X177463409Y-71206677D01*
X177495500Y-70962927D01*
X177495500Y-70717073D01*
X177485642Y-70642195D01*
X177496407Y-70573160D01*
X177542787Y-70520904D01*
X177610056Y-70502019D01*
X177668008Y-70517178D01*
X177836833Y-70609364D01*
X177836832Y-70609364D01*
X177836836Y-70609365D01*
X177836839Y-70609367D01*
X178104954Y-70709369D01*
X178104960Y-70709370D01*
X178104962Y-70709371D01*
X178384566Y-70770195D01*
X178384568Y-70770195D01*
X178384572Y-70770196D01*
X178638220Y-70788337D01*
X178669999Y-70790610D01*
X178670000Y-70790610D01*
X178670001Y-70790610D01*
X178698595Y-70788564D01*
X178955428Y-70770196D01*
X179235046Y-70709369D01*
X179503161Y-70609367D01*
X179754315Y-70472226D01*
X179983395Y-70300739D01*
X180185739Y-70098395D01*
X180357226Y-69869315D01*
X180494367Y-69618161D01*
X180594369Y-69350046D01*
X180610208Y-69277236D01*
X180655195Y-69070433D01*
X180655195Y-69070432D01*
X180655196Y-69070428D01*
X180675610Y-68785000D01*
X180655196Y-68499572D01*
X180594369Y-68219954D01*
X180494367Y-67951839D01*
X180357226Y-67700685D01*
X180357224Y-67700682D01*
X180185745Y-67471612D01*
X180185729Y-67471594D01*
X179983405Y-67269270D01*
X179983387Y-67269254D01*
X179754317Y-67097775D01*
X179754309Y-67097770D01*
X179503166Y-66960635D01*
X179503167Y-66960635D01*
X179328707Y-66895565D01*
X179235046Y-66860631D01*
X179235043Y-66860630D01*
X179235037Y-66860628D01*
X178955433Y-66799804D01*
X178670001Y-66779390D01*
X178669999Y-66779390D01*
X178384566Y-66799804D01*
X178104962Y-66860628D01*
X177836833Y-66960635D01*
X177585690Y-67097770D01*
X177585682Y-67097775D01*
X177356612Y-67269254D01*
X177356594Y-67269270D01*
X177154270Y-67471594D01*
X177154254Y-67471612D01*
X176982775Y-67700682D01*
X176982770Y-67700690D01*
X176845635Y-67951833D01*
X176745628Y-68219962D01*
X176684804Y-68499566D01*
X176664390Y-68784998D01*
X176664390Y-68785001D01*
X176684450Y-69065482D01*
X176669598Y-69133755D01*
X176620193Y-69183160D01*
X176551920Y-69198012D01*
X176498766Y-69181715D01*
X176451295Y-69154307D01*
X176451285Y-69154303D01*
X176224162Y-69060225D01*
X176224155Y-69060223D01*
X176224153Y-69060222D01*
X175986677Y-68996591D01*
X175945939Y-68991227D01*
X175742934Y-68964500D01*
X175742927Y-68964500D01*
X175497073Y-68964500D01*
X175497065Y-68964500D01*
X175265059Y-68995045D01*
X175253323Y-68996591D01*
X175015847Y-69060222D01*
X175015837Y-69060225D01*
X174788714Y-69154303D01*
X174788705Y-69154307D01*
X174575787Y-69277236D01*
X174380745Y-69426897D01*
X174380738Y-69426903D01*
X174206903Y-69600738D01*
X174206897Y-69600745D01*
X174057236Y-69795787D01*
X173934307Y-70008705D01*
X173934303Y-70008714D01*
X173840225Y-70235837D01*
X173840222Y-70235847D01*
X173776886Y-70472224D01*
X173776592Y-70473320D01*
X173776590Y-70473331D01*
X173744500Y-70717065D01*
X173744500Y-70962934D01*
X167229046Y-70962934D01*
X167159330Y-70930425D01*
X167159326Y-70930424D01*
X167159322Y-70930422D01*
X166947977Y-70873793D01*
X166730002Y-70854723D01*
X166729998Y-70854723D01*
X166584682Y-70867436D01*
X166512023Y-70873793D01*
X166512020Y-70873793D01*
X166300677Y-70930422D01*
X166300668Y-70930426D01*
X166102361Y-71022898D01*
X166102357Y-71022900D01*
X165923121Y-71148402D01*
X165768402Y-71303121D01*
X165642900Y-71482357D01*
X165642898Y-71482361D01*
X165550426Y-71680668D01*
X165550422Y-71680677D01*
X165493793Y-71892020D01*
X165493793Y-71892024D01*
X165477413Y-72079256D01*
X165474723Y-72110000D01*
X165487242Y-72253102D01*
X165493793Y-72327975D01*
X165493793Y-72327979D01*
X165550422Y-72539322D01*
X165550424Y-72539326D01*
X165550425Y-72539330D01*
X165587937Y-72619774D01*
X165642897Y-72737638D01*
X165653206Y-72752361D01*
X165768402Y-72916877D01*
X165923123Y-73071598D01*
X166052265Y-73162024D01*
X166102361Y-73197102D01*
X166253583Y-73267618D01*
X166306022Y-73313790D01*
X166325174Y-73380984D01*
X166304958Y-73447865D01*
X166253583Y-73492382D01*
X166102361Y-73562898D01*
X166102357Y-73562900D01*
X165923121Y-73688402D01*
X165768402Y-73843121D01*
X165642900Y-74022357D01*
X165642898Y-74022361D01*
X165550426Y-74220668D01*
X165550422Y-74220677D01*
X165493793Y-74432020D01*
X165493793Y-74432024D01*
X165474723Y-74649997D01*
X165474723Y-74650002D01*
X165493793Y-74867975D01*
X165493793Y-74867979D01*
X165550422Y-75079322D01*
X165550424Y-75079326D01*
X165550425Y-75079330D01*
X165580234Y-75143255D01*
X165642897Y-75277638D01*
X165653206Y-75292361D01*
X165768402Y-75456877D01*
X165923123Y-75611598D01*
X166052265Y-75702024D01*
X166102361Y-75737102D01*
X166253583Y-75807618D01*
X166306022Y-75853790D01*
X166325174Y-75920984D01*
X166304958Y-75987865D01*
X166253583Y-76032382D01*
X166102361Y-76102898D01*
X166102357Y-76102900D01*
X165923121Y-76228402D01*
X165768402Y-76383121D01*
X165642900Y-76562357D01*
X165642898Y-76562361D01*
X165550426Y-76760668D01*
X165550422Y-76760677D01*
X165493793Y-76972020D01*
X165493793Y-76972024D01*
X165474723Y-77189997D01*
X165474723Y-77190002D01*
X165493793Y-77407975D01*
X165493793Y-77407979D01*
X165550422Y-77619322D01*
X165550424Y-77619326D01*
X165550425Y-77619330D01*
X165596661Y-77718484D01*
X165642897Y-77817638D01*
X165653206Y-77832361D01*
X165768402Y-77996877D01*
X165923123Y-78151598D01*
X166052265Y-78242024D01*
X166102361Y-78277102D01*
X166253583Y-78347618D01*
X166306022Y-78393790D01*
X166325174Y-78460984D01*
X166304958Y-78527865D01*
X166253583Y-78572382D01*
X166102361Y-78642898D01*
X166102357Y-78642900D01*
X165923121Y-78768402D01*
X165768402Y-78923121D01*
X165642900Y-79102357D01*
X165642898Y-79102361D01*
X165550426Y-79300668D01*
X165550422Y-79300677D01*
X165493793Y-79512020D01*
X165493793Y-79512023D01*
X165490724Y-79547102D01*
X165474723Y-79729997D01*
X165474723Y-79730002D01*
X160985500Y-79730002D01*
X160985500Y-75217412D01*
X161005185Y-75150373D01*
X161012555Y-75140097D01*
X161014810Y-75137267D01*
X161014816Y-75137262D01*
X161110789Y-74984522D01*
X161170368Y-74814255D01*
X161178687Y-74740425D01*
X161190565Y-74635003D01*
X161190565Y-74634996D01*
X161170369Y-74455750D01*
X161170368Y-74455745D01*
X161110788Y-74285476D01*
X161014815Y-74132737D01*
X160887262Y-74005184D01*
X160734523Y-73909211D01*
X160564254Y-73849631D01*
X160564249Y-73849630D01*
X160385004Y-73829435D01*
X160384996Y-73829435D01*
X160205750Y-73849630D01*
X160205745Y-73849631D01*
X160035476Y-73909211D01*
X159882737Y-74005184D01*
X159755184Y-74132737D01*
X159659211Y-74285476D01*
X159599631Y-74455745D01*
X159599630Y-74455750D01*
X159579435Y-74634996D01*
X159579435Y-74635003D01*
X125000500Y-74635003D01*
X125000500Y-64060003D01*
X155814435Y-64060003D01*
X155834630Y-64239249D01*
X155834631Y-64239254D01*
X155894211Y-64409523D01*
X155921631Y-64453161D01*
X155990184Y-64562262D01*
X156117738Y-64689816D01*
X156270478Y-64785789D01*
X156440745Y-64845368D01*
X156527669Y-64855161D01*
X156592080Y-64882226D01*
X156601465Y-64890700D01*
X157168199Y-65457434D01*
X157201684Y-65518757D01*
X157196700Y-65588449D01*
X157185512Y-65611087D01*
X157104211Y-65740476D01*
X157044631Y-65910745D01*
X157044630Y-65910750D01*
X157024435Y-66089996D01*
X157024435Y-66090003D01*
X157044630Y-66269249D01*
X157044631Y-66269254D01*
X157104211Y-66439523D01*
X157200184Y-66592262D01*
X157327738Y-66719816D01*
X157480478Y-66815789D01*
X157608621Y-66860628D01*
X157650745Y-66875368D01*
X157650750Y-66875369D01*
X157829996Y-66895565D01*
X157830000Y-66895565D01*
X157830004Y-66895565D01*
X158009249Y-66875369D01*
X158009252Y-66875368D01*
X158009255Y-66875368D01*
X158179522Y-66815789D01*
X158332262Y-66719816D01*
X158459816Y-66592262D01*
X158555789Y-66439522D01*
X158615368Y-66269255D01*
X158635565Y-66090000D01*
X158615368Y-65910745D01*
X158555789Y-65740478D01*
X158459816Y-65587738D01*
X158459814Y-65587736D01*
X158459813Y-65587734D01*
X158457550Y-65584896D01*
X158456659Y-65582715D01*
X158456111Y-65581842D01*
X158456264Y-65581745D01*
X158431144Y-65520209D01*
X158430500Y-65507587D01*
X158430500Y-65190945D01*
X158430500Y-65190943D01*
X158389577Y-65038216D01*
X158329065Y-64933405D01*
X158310524Y-64901290D01*
X158310521Y-64901286D01*
X158310520Y-64901284D01*
X158198716Y-64789480D01*
X158198715Y-64789479D01*
X158194385Y-64785149D01*
X158194374Y-64785139D01*
X157450700Y-64041465D01*
X157417215Y-63980142D01*
X157415163Y-63967686D01*
X157405368Y-63880745D01*
X157345789Y-63710478D01*
X157249816Y-63557738D01*
X157122262Y-63430184D01*
X156969523Y-63334211D01*
X156799254Y-63274631D01*
X156799249Y-63274630D01*
X156620004Y-63254435D01*
X156619996Y-63254435D01*
X156440750Y-63274630D01*
X156440745Y-63274631D01*
X156270476Y-63334211D01*
X156117737Y-63430184D01*
X155990184Y-63557737D01*
X155894211Y-63710476D01*
X155834631Y-63880745D01*
X155834630Y-63880750D01*
X155814435Y-64059996D01*
X155814435Y-64060003D01*
X125000500Y-64060003D01*
X125000500Y-61687934D01*
X173639500Y-61687934D01*
X173653680Y-61795633D01*
X173671591Y-61931677D01*
X173717837Y-62104270D01*
X173735222Y-62169152D01*
X173735225Y-62169162D01*
X173792152Y-62306594D01*
X173829306Y-62396292D01*
X173952233Y-62609208D01*
X173952235Y-62609211D01*
X173952236Y-62609212D01*
X174101897Y-62804254D01*
X174101903Y-62804261D01*
X174275738Y-62978096D01*
X174275745Y-62978102D01*
X174375911Y-63054962D01*
X174470792Y-63127767D01*
X174683708Y-63250694D01*
X174859384Y-63323461D01*
X174886207Y-63334572D01*
X174910847Y-63344778D01*
X175148323Y-63408409D01*
X175392073Y-63440500D01*
X175392080Y-63440500D01*
X175637920Y-63440500D01*
X175637927Y-63440500D01*
X175881677Y-63408409D01*
X176119153Y-63344778D01*
X176346292Y-63250694D01*
X176393766Y-63223284D01*
X176461665Y-63206811D01*
X176527692Y-63229663D01*
X176570883Y-63284583D01*
X176579450Y-63339517D01*
X176559390Y-63619998D01*
X176559390Y-63620001D01*
X176579804Y-63905433D01*
X176640628Y-64185037D01*
X176640630Y-64185043D01*
X176640631Y-64185046D01*
X176724357Y-64409523D01*
X176740635Y-64453166D01*
X176877770Y-64704309D01*
X176877775Y-64704317D01*
X177049254Y-64933387D01*
X177049270Y-64933405D01*
X177251594Y-65135729D01*
X177251612Y-65135745D01*
X177480682Y-65307224D01*
X177480690Y-65307229D01*
X177731833Y-65444364D01*
X177731832Y-65444364D01*
X177731836Y-65444365D01*
X177731839Y-65444367D01*
X177999954Y-65544369D01*
X177999960Y-65544370D01*
X177999962Y-65544371D01*
X178279566Y-65605195D01*
X178279568Y-65605195D01*
X178279572Y-65605196D01*
X178533220Y-65623337D01*
X178564999Y-65625610D01*
X178565000Y-65625610D01*
X178565001Y-65625610D01*
X178593595Y-65623564D01*
X178850428Y-65605196D01*
X178930682Y-65587738D01*
X179130037Y-65544371D01*
X179130037Y-65544370D01*
X179130046Y-65544369D01*
X179398161Y-65444367D01*
X179649315Y-65307226D01*
X179878395Y-65135739D01*
X180080739Y-64933395D01*
X180252226Y-64704315D01*
X180389367Y-64453161D01*
X180489369Y-64185046D01*
X180550196Y-63905428D01*
X180570610Y-63620000D01*
X180550196Y-63334572D01*
X180550117Y-63334211D01*
X180489371Y-63054962D01*
X180489370Y-63054960D01*
X180489369Y-63054954D01*
X180389367Y-62786839D01*
X180252226Y-62535685D01*
X180252224Y-62535682D01*
X180080745Y-62306612D01*
X180080729Y-62306594D01*
X179878405Y-62104270D01*
X179878387Y-62104254D01*
X179649317Y-61932775D01*
X179649309Y-61932770D01*
X179398166Y-61795635D01*
X179398167Y-61795635D01*
X179290915Y-61755632D01*
X179130046Y-61695631D01*
X179130043Y-61695630D01*
X179130037Y-61695628D01*
X178850433Y-61634804D01*
X178565001Y-61614390D01*
X178564999Y-61614390D01*
X178279566Y-61634804D01*
X177999962Y-61695628D01*
X177731832Y-61795635D01*
X177563008Y-61887821D01*
X177494735Y-61902673D01*
X177429270Y-61878256D01*
X177387399Y-61822322D01*
X177380642Y-61762803D01*
X177390499Y-61687934D01*
X177390500Y-61687927D01*
X177390500Y-61442073D01*
X177358409Y-61198323D01*
X177294778Y-60960847D01*
X177200694Y-60733708D01*
X177077767Y-60520792D01*
X176928101Y-60325744D01*
X176928096Y-60325738D01*
X176754261Y-60151903D01*
X176754254Y-60151897D01*
X176559212Y-60002236D01*
X176559211Y-60002235D01*
X176559208Y-60002233D01*
X176346292Y-59879306D01*
X176346285Y-59879303D01*
X176119162Y-59785225D01*
X176119155Y-59785223D01*
X176119153Y-59785222D01*
X175881677Y-59721591D01*
X175840939Y-59716227D01*
X175637934Y-59689500D01*
X175637927Y-59689500D01*
X175392073Y-59689500D01*
X175392065Y-59689500D01*
X175160059Y-59720045D01*
X175148323Y-59721591D01*
X175129357Y-59726673D01*
X174910847Y-59785222D01*
X174910837Y-59785225D01*
X174683714Y-59879303D01*
X174683705Y-59879307D01*
X174470787Y-60002236D01*
X174275745Y-60151897D01*
X174275738Y-60151903D01*
X174101903Y-60325738D01*
X174101897Y-60325745D01*
X173952236Y-60520787D01*
X173829307Y-60733705D01*
X173829303Y-60733714D01*
X173735225Y-60960837D01*
X173735222Y-60960847D01*
X173699849Y-61092864D01*
X173671592Y-61198320D01*
X173671590Y-61198331D01*
X173639500Y-61442065D01*
X173639500Y-61687934D01*
X125000500Y-61687934D01*
X125000500Y-59025002D01*
X165369723Y-59025002D01*
X165371990Y-59050909D01*
X165383935Y-59187454D01*
X165388793Y-59242975D01*
X165388793Y-59242979D01*
X165445422Y-59454322D01*
X165445424Y-59454326D01*
X165445425Y-59454330D01*
X165465380Y-59497123D01*
X165537897Y-59652638D01*
X165561074Y-59685738D01*
X165663402Y-59831877D01*
X165818123Y-59986598D01*
X165997361Y-60112102D01*
X166195670Y-60204575D01*
X166407023Y-60261207D01*
X166589926Y-60277208D01*
X166624998Y-60280277D01*
X166625000Y-60280277D01*
X166625002Y-60280277D01*
X166653254Y-60277805D01*
X166842977Y-60261207D01*
X167054330Y-60204575D01*
X167252639Y-60112102D01*
X167431877Y-59986598D01*
X167586598Y-59831877D01*
X167688926Y-59685736D01*
X167743502Y-59642113D01*
X167813001Y-59634921D01*
X167875355Y-59666443D01*
X167910769Y-59726673D01*
X167914500Y-59756862D01*
X167914500Y-61092870D01*
X167914501Y-61092876D01*
X167920908Y-61152483D01*
X167971202Y-61287328D01*
X167971206Y-61287335D01*
X168057452Y-61402544D01*
X168057455Y-61402547D01*
X168172664Y-61488793D01*
X168172671Y-61488797D01*
X168307517Y-61539091D01*
X168307516Y-61539091D01*
X168314444Y-61539835D01*
X168367127Y-61545500D01*
X169962872Y-61545499D01*
X170022483Y-61539091D01*
X170157331Y-61488796D01*
X170272546Y-61402546D01*
X170358796Y-61287331D01*
X170409091Y-61152483D01*
X170415500Y-61092873D01*
X170415499Y-59497128D01*
X170409091Y-59437517D01*
X170358796Y-59302669D01*
X170358795Y-59302668D01*
X170358793Y-59302664D01*
X170272547Y-59187455D01*
X170272544Y-59187452D01*
X170157335Y-59101206D01*
X170157328Y-59101202D01*
X170022482Y-59050908D01*
X170022483Y-59050908D01*
X169962883Y-59044501D01*
X169962881Y-59044500D01*
X169962873Y-59044500D01*
X169962865Y-59044500D01*
X169896862Y-59044500D01*
X169829823Y-59024815D01*
X169784068Y-58972011D01*
X169774124Y-58902853D01*
X169803149Y-58839297D01*
X169825734Y-58818928D01*
X169971877Y-58716598D01*
X170126598Y-58561877D01*
X170252102Y-58382639D01*
X170344575Y-58184330D01*
X170401207Y-57972977D01*
X170420277Y-57755000D01*
X170401207Y-57537023D01*
X170344575Y-57325670D01*
X170252102Y-57127362D01*
X170252100Y-57127359D01*
X170252099Y-57127357D01*
X170126599Y-56948124D01*
X170092797Y-56914322D01*
X169971877Y-56793402D01*
X169792639Y-56667898D01*
X169641414Y-56597381D01*
X169588977Y-56551210D01*
X169569825Y-56484016D01*
X169590041Y-56417135D01*
X169641414Y-56372618D01*
X169792639Y-56302102D01*
X169971877Y-56176598D01*
X170126598Y-56021877D01*
X170252102Y-55842639D01*
X170344575Y-55644330D01*
X170401207Y-55432977D01*
X170420277Y-55215000D01*
X170401207Y-54997023D01*
X170344575Y-54785670D01*
X170252102Y-54587362D01*
X170252100Y-54587359D01*
X170252099Y-54587357D01*
X170126599Y-54408124D01*
X170092797Y-54374322D01*
X169971877Y-54253402D01*
X169792639Y-54127898D01*
X169641414Y-54057381D01*
X169588977Y-54011210D01*
X169569825Y-53944016D01*
X169590041Y-53877135D01*
X169641414Y-53832618D01*
X169792639Y-53762102D01*
X169971877Y-53636598D01*
X170126598Y-53481877D01*
X170252102Y-53302639D01*
X170344575Y-53104330D01*
X170401207Y-52892977D01*
X170420277Y-52675000D01*
X170401207Y-52457023D01*
X170344575Y-52245670D01*
X170252102Y-52047362D01*
X170252100Y-52047359D01*
X170252099Y-52047357D01*
X170126599Y-51868124D01*
X170079167Y-51820692D01*
X169971877Y-51713402D01*
X169792639Y-51587898D01*
X169792640Y-51587898D01*
X169792638Y-51587897D01*
X169693484Y-51541661D01*
X169594330Y-51495425D01*
X169594326Y-51495424D01*
X169594322Y-51495422D01*
X169382977Y-51438793D01*
X169165002Y-51419723D01*
X169164998Y-51419723D01*
X169019682Y-51432436D01*
X168947023Y-51438793D01*
X168947020Y-51438793D01*
X168735677Y-51495422D01*
X168735668Y-51495426D01*
X168537361Y-51587898D01*
X168537357Y-51587900D01*
X168358121Y-51713402D01*
X168203402Y-51868121D01*
X168077900Y-52047357D01*
X168077898Y-52047361D01*
X167985426Y-52245668D01*
X167985422Y-52245677D01*
X167928793Y-52457020D01*
X167928793Y-52457024D01*
X167909723Y-52674997D01*
X167909723Y-52675002D01*
X167928793Y-52892975D01*
X167928793Y-52892979D01*
X167985422Y-53104322D01*
X167985424Y-53104326D01*
X167985425Y-53104330D01*
X168031661Y-53203484D01*
X168077897Y-53302638D01*
X168088206Y-53317361D01*
X168203402Y-53481877D01*
X168358123Y-53636598D01*
X168487265Y-53727024D01*
X168537361Y-53762102D01*
X168688583Y-53832618D01*
X168741022Y-53878790D01*
X168760174Y-53945984D01*
X168739958Y-54012865D01*
X168688583Y-54057382D01*
X168537361Y-54127898D01*
X168537357Y-54127900D01*
X168358121Y-54253402D01*
X168203402Y-54408121D01*
X168077900Y-54587357D01*
X168077898Y-54587361D01*
X167985426Y-54785668D01*
X167985422Y-54785677D01*
X167928793Y-54997020D01*
X167928793Y-54997024D01*
X167909723Y-55214997D01*
X167909723Y-55215002D01*
X167928793Y-55432975D01*
X167928793Y-55432979D01*
X167985422Y-55644322D01*
X167985424Y-55644326D01*
X167985425Y-55644330D01*
X168031661Y-55743484D01*
X168077897Y-55842638D01*
X168088206Y-55857361D01*
X168203402Y-56021877D01*
X168358123Y-56176598D01*
X168487265Y-56267024D01*
X168537361Y-56302102D01*
X168688583Y-56372618D01*
X168741022Y-56418790D01*
X168760174Y-56485984D01*
X168739958Y-56552865D01*
X168688583Y-56597382D01*
X168537361Y-56667898D01*
X168537357Y-56667900D01*
X168358121Y-56793402D01*
X168203402Y-56948121D01*
X168077900Y-57127357D01*
X168077898Y-57127361D01*
X167985426Y-57325668D01*
X167985422Y-57325677D01*
X167928793Y-57537020D01*
X167928793Y-57537024D01*
X167909723Y-57754997D01*
X167909723Y-57755002D01*
X167928793Y-57972975D01*
X167928793Y-57972979D01*
X167985422Y-58184322D01*
X167985424Y-58184326D01*
X167985425Y-58184330D01*
X168031661Y-58283484D01*
X168077897Y-58382638D01*
X168088206Y-58397361D01*
X168203402Y-58561877D01*
X168358123Y-58716598D01*
X168504263Y-58818926D01*
X168547887Y-58873502D01*
X168555081Y-58943000D01*
X168523558Y-59005355D01*
X168463328Y-59040769D01*
X168433141Y-59044500D01*
X168367130Y-59044500D01*
X168367123Y-59044501D01*
X168307516Y-59050908D01*
X168172671Y-59101202D01*
X168172668Y-59101204D01*
X168074660Y-59174573D01*
X168009195Y-59198990D01*
X167940922Y-59184138D01*
X167891517Y-59134733D01*
X167876665Y-59066460D01*
X167876815Y-59064566D01*
X167880277Y-59025000D01*
X167861207Y-58807023D01*
X167804575Y-58595670D01*
X167712102Y-58397362D01*
X167712100Y-58397359D01*
X167712099Y-58397357D01*
X167586599Y-58218124D01*
X167552797Y-58184322D01*
X167431877Y-58063402D01*
X167252639Y-57937898D01*
X167101414Y-57867381D01*
X167048977Y-57821210D01*
X167029825Y-57754016D01*
X167050041Y-57687135D01*
X167101414Y-57642618D01*
X167252639Y-57572102D01*
X167431877Y-57446598D01*
X167586598Y-57291877D01*
X167712102Y-57112639D01*
X167804575Y-56914330D01*
X167861207Y-56702977D01*
X167880277Y-56485000D01*
X167861207Y-56267023D01*
X167804575Y-56055670D01*
X167712102Y-55857362D01*
X167712100Y-55857359D01*
X167712099Y-55857357D01*
X167586599Y-55678124D01*
X167552797Y-55644322D01*
X167431877Y-55523402D01*
X167252639Y-55397898D01*
X167101414Y-55327381D01*
X167048977Y-55281210D01*
X167029825Y-55214016D01*
X167050041Y-55147135D01*
X167101414Y-55102618D01*
X167252639Y-55032102D01*
X167431877Y-54906598D01*
X167586598Y-54751877D01*
X167712102Y-54572639D01*
X167804575Y-54374330D01*
X167861207Y-54162977D01*
X167880277Y-53945000D01*
X167861207Y-53727023D01*
X167804575Y-53515670D01*
X167712102Y-53317362D01*
X167712100Y-53317359D01*
X167712099Y-53317357D01*
X167586599Y-53138124D01*
X167552797Y-53104322D01*
X167431877Y-52983402D01*
X167252639Y-52857898D01*
X167101414Y-52787381D01*
X167048977Y-52741210D01*
X167029825Y-52674016D01*
X167050041Y-52607135D01*
X167101414Y-52562618D01*
X167252639Y-52492102D01*
X167431877Y-52366598D01*
X167586598Y-52211877D01*
X167712102Y-52032639D01*
X167804575Y-51834330D01*
X167861207Y-51622977D01*
X167880277Y-51405000D01*
X167861207Y-51187023D01*
X167804575Y-50975670D01*
X167712102Y-50777362D01*
X167712100Y-50777359D01*
X167712099Y-50777357D01*
X167586599Y-50598124D01*
X167586596Y-50598121D01*
X167431877Y-50443402D01*
X167252639Y-50317898D01*
X167252640Y-50317898D01*
X167252638Y-50317897D01*
X167153484Y-50271661D01*
X167124046Y-50257934D01*
X173639500Y-50257934D01*
X173663919Y-50443402D01*
X173671591Y-50501677D01*
X173697434Y-50598124D01*
X173735222Y-50739152D01*
X173735225Y-50739162D01*
X173829303Y-50966285D01*
X173829306Y-50966292D01*
X173952233Y-51179208D01*
X173952235Y-51179211D01*
X173952236Y-51179212D01*
X174101897Y-51374254D01*
X174101903Y-51374261D01*
X174275738Y-51548096D01*
X174275744Y-51548101D01*
X174470792Y-51697767D01*
X174683708Y-51820694D01*
X174910847Y-51914778D01*
X175148323Y-51978409D01*
X175392073Y-52010500D01*
X175392080Y-52010500D01*
X175637920Y-52010500D01*
X175637927Y-52010500D01*
X175881677Y-51978409D01*
X176119153Y-51914778D01*
X176346292Y-51820694D01*
X176559208Y-51697767D01*
X176754256Y-51548101D01*
X176928101Y-51374256D01*
X177077767Y-51179208D01*
X177200694Y-50966292D01*
X177294778Y-50739153D01*
X177358409Y-50501677D01*
X177390500Y-50257927D01*
X177390500Y-50012073D01*
X177380642Y-49937195D01*
X177391407Y-49868160D01*
X177437787Y-49815904D01*
X177505056Y-49797019D01*
X177563008Y-49812178D01*
X177731833Y-49904364D01*
X177731832Y-49904364D01*
X177731836Y-49904365D01*
X177731839Y-49904367D01*
X177999954Y-50004369D01*
X177999960Y-50004370D01*
X177999962Y-50004371D01*
X178279566Y-50065195D01*
X178279568Y-50065195D01*
X178279572Y-50065196D01*
X178533220Y-50083337D01*
X178564999Y-50085610D01*
X178565000Y-50085610D01*
X178565001Y-50085610D01*
X178593595Y-50083564D01*
X178850428Y-50065196D01*
X179130046Y-50004369D01*
X179398161Y-49904367D01*
X179649315Y-49767226D01*
X179878395Y-49595739D01*
X180080739Y-49393395D01*
X180252226Y-49164315D01*
X180389367Y-48913161D01*
X180489369Y-48645046D01*
X180505208Y-48572236D01*
X180550195Y-48365433D01*
X180550195Y-48365432D01*
X180550196Y-48365428D01*
X180570610Y-48080000D01*
X180550196Y-47794572D01*
X180489369Y-47514954D01*
X180389367Y-47246839D01*
X180252226Y-46995685D01*
X180252224Y-46995682D01*
X180080745Y-46766612D01*
X180080729Y-46766594D01*
X179878405Y-46564270D01*
X179878387Y-46564254D01*
X179649317Y-46392775D01*
X179649309Y-46392770D01*
X179398166Y-46255635D01*
X179398167Y-46255635D01*
X179290915Y-46215632D01*
X179130046Y-46155631D01*
X179130043Y-46155630D01*
X179130037Y-46155628D01*
X178850433Y-46094804D01*
X178565001Y-46074390D01*
X178564999Y-46074390D01*
X178279566Y-46094804D01*
X177999962Y-46155628D01*
X177731833Y-46255635D01*
X177480690Y-46392770D01*
X177480682Y-46392775D01*
X177251612Y-46564254D01*
X177251594Y-46564270D01*
X177049270Y-46766594D01*
X177049254Y-46766612D01*
X176877775Y-46995682D01*
X176877770Y-46995690D01*
X176740635Y-47246833D01*
X176640628Y-47514962D01*
X176579804Y-47794566D01*
X176559390Y-48079998D01*
X176559390Y-48080001D01*
X176579450Y-48360482D01*
X176564598Y-48428755D01*
X176515193Y-48478160D01*
X176446920Y-48493012D01*
X176393766Y-48476715D01*
X176346295Y-48449307D01*
X176346285Y-48449303D01*
X176119162Y-48355225D01*
X176119155Y-48355223D01*
X176119153Y-48355222D01*
X175881677Y-48291591D01*
X175840939Y-48286227D01*
X175637934Y-48259500D01*
X175637927Y-48259500D01*
X175392073Y-48259500D01*
X175392065Y-48259500D01*
X175160059Y-48290045D01*
X175148323Y-48291591D01*
X174910847Y-48355222D01*
X174910837Y-48355225D01*
X174683714Y-48449303D01*
X174683705Y-48449307D01*
X174470787Y-48572236D01*
X174275745Y-48721897D01*
X174275738Y-48721903D01*
X174101903Y-48895738D01*
X174101897Y-48895745D01*
X173952236Y-49090787D01*
X173829307Y-49303705D01*
X173829303Y-49303714D01*
X173735225Y-49530837D01*
X173735222Y-49530847D01*
X173671886Y-49767224D01*
X173671592Y-49768320D01*
X173671590Y-49768331D01*
X173639500Y-50012065D01*
X173639500Y-50257934D01*
X167124046Y-50257934D01*
X167054330Y-50225425D01*
X167054326Y-50225424D01*
X167054322Y-50225422D01*
X166842977Y-50168793D01*
X166625002Y-50149723D01*
X166624998Y-50149723D01*
X166479682Y-50162436D01*
X166407023Y-50168793D01*
X166407020Y-50168793D01*
X166195677Y-50225422D01*
X166195668Y-50225426D01*
X165997361Y-50317898D01*
X165997357Y-50317900D01*
X165818121Y-50443402D01*
X165663402Y-50598121D01*
X165537900Y-50777357D01*
X165537898Y-50777361D01*
X165445426Y-50975668D01*
X165445422Y-50975677D01*
X165388793Y-51187020D01*
X165388793Y-51187024D01*
X165372413Y-51374256D01*
X165369723Y-51405000D01*
X165382242Y-51548102D01*
X165388793Y-51622975D01*
X165388793Y-51622979D01*
X165445422Y-51834322D01*
X165445424Y-51834326D01*
X165445425Y-51834330D01*
X165482937Y-51914774D01*
X165537897Y-52032638D01*
X165548206Y-52047361D01*
X165663402Y-52211877D01*
X165818123Y-52366598D01*
X165947265Y-52457024D01*
X165997361Y-52492102D01*
X166148583Y-52562618D01*
X166201022Y-52608790D01*
X166220174Y-52675984D01*
X166199958Y-52742865D01*
X166148583Y-52787382D01*
X165997361Y-52857898D01*
X165997357Y-52857900D01*
X165818121Y-52983402D01*
X165663402Y-53138121D01*
X165537900Y-53317357D01*
X165537898Y-53317361D01*
X165445426Y-53515668D01*
X165445422Y-53515677D01*
X165388793Y-53727020D01*
X165388793Y-53727024D01*
X165369723Y-53944997D01*
X165369723Y-53945002D01*
X165388793Y-54162975D01*
X165388793Y-54162979D01*
X165445422Y-54374322D01*
X165445424Y-54374326D01*
X165445425Y-54374330D01*
X165491661Y-54473484D01*
X165537897Y-54572638D01*
X165548206Y-54587361D01*
X165663402Y-54751877D01*
X165818123Y-54906598D01*
X165947265Y-54997024D01*
X165997361Y-55032102D01*
X166148583Y-55102618D01*
X166201022Y-55148790D01*
X166220174Y-55215984D01*
X166199958Y-55282865D01*
X166148583Y-55327382D01*
X165997361Y-55397898D01*
X165997357Y-55397900D01*
X165818121Y-55523402D01*
X165663402Y-55678121D01*
X165537900Y-55857357D01*
X165537898Y-55857361D01*
X165445426Y-56055668D01*
X165445422Y-56055677D01*
X165388793Y-56267020D01*
X165388793Y-56267024D01*
X165369723Y-56484997D01*
X165369723Y-56485002D01*
X165388793Y-56702975D01*
X165388793Y-56702979D01*
X165445422Y-56914322D01*
X165445424Y-56914326D01*
X165445425Y-56914330D01*
X165491661Y-57013484D01*
X165537897Y-57112638D01*
X165548206Y-57127361D01*
X165663402Y-57291877D01*
X165818123Y-57446598D01*
X165947265Y-57537024D01*
X165997361Y-57572102D01*
X166148583Y-57642618D01*
X166201022Y-57688790D01*
X166220174Y-57755984D01*
X166199958Y-57822865D01*
X166148583Y-57867382D01*
X165997361Y-57937898D01*
X165997357Y-57937900D01*
X165818121Y-58063402D01*
X165663402Y-58218121D01*
X165537900Y-58397357D01*
X165537898Y-58397361D01*
X165445426Y-58595668D01*
X165445422Y-58595677D01*
X165388793Y-58807020D01*
X165388793Y-58807023D01*
X165385724Y-58842102D01*
X165369723Y-59024997D01*
X165369723Y-59025002D01*
X125000500Y-59025002D01*
X125000500Y-43035000D01*
X168849823Y-43035000D01*
X168896555Y-43099321D01*
X169035678Y-43238444D01*
X169194856Y-43354095D01*
X169370164Y-43443418D01*
X169557294Y-43504221D01*
X169751618Y-43535000D01*
X169850000Y-43535000D01*
X169850000Y-43035000D01*
X171350000Y-43035000D01*
X171350000Y-43535000D01*
X171448382Y-43535000D01*
X171642705Y-43504221D01*
X171829835Y-43443418D01*
X172005143Y-43354095D01*
X172164321Y-43238444D01*
X172303444Y-43099321D01*
X172350177Y-43035000D01*
X177049823Y-43035000D01*
X177096555Y-43099321D01*
X177235678Y-43238444D01*
X177394856Y-43354095D01*
X177570164Y-43443418D01*
X177757294Y-43504221D01*
X177951618Y-43535000D01*
X178050000Y-43535000D01*
X178050000Y-43035000D01*
X179550000Y-43035000D01*
X179550000Y-43535000D01*
X179648382Y-43535000D01*
X179842705Y-43504221D01*
X180029835Y-43443418D01*
X180205143Y-43354095D01*
X180364321Y-43238444D01*
X180503444Y-43099321D01*
X180550177Y-43035000D01*
X179550000Y-43035000D01*
X178050000Y-43035000D01*
X177049823Y-43035000D01*
X172350177Y-43035000D01*
X171350000Y-43035000D01*
X169850000Y-43035000D01*
X168849823Y-43035000D01*
X125000500Y-43035000D01*
X125000500Y-42360700D01*
X170025000Y-42360700D01*
X170064185Y-42506942D01*
X170139885Y-42638058D01*
X170246942Y-42745115D01*
X170378058Y-42820815D01*
X170524300Y-42860000D01*
X170675700Y-42860000D01*
X170821942Y-42820815D01*
X170953058Y-42745115D01*
X171060115Y-42638058D01*
X171135815Y-42506942D01*
X171175000Y-42360700D01*
X178225000Y-42360700D01*
X178264185Y-42506942D01*
X178339885Y-42638058D01*
X178446942Y-42745115D01*
X178578058Y-42820815D01*
X178724300Y-42860000D01*
X178875700Y-42860000D01*
X179021942Y-42820815D01*
X179153058Y-42745115D01*
X179260115Y-42638058D01*
X179335815Y-42506942D01*
X179375000Y-42360700D01*
X179375000Y-42209300D01*
X179335815Y-42063058D01*
X179260115Y-41931942D01*
X179153058Y-41824885D01*
X179021942Y-41749185D01*
X178875700Y-41710000D01*
X178724300Y-41710000D01*
X178578058Y-41749185D01*
X178446942Y-41824885D01*
X178339885Y-41931942D01*
X178264185Y-42063058D01*
X178225000Y-42209300D01*
X178225000Y-42360700D01*
X171175000Y-42360700D01*
X171175000Y-42209300D01*
X171135815Y-42063058D01*
X171060115Y-41931942D01*
X170953058Y-41824885D01*
X170821942Y-41749185D01*
X170675700Y-41710000D01*
X170524300Y-41710000D01*
X170378058Y-41749185D01*
X170246942Y-41824885D01*
X170139885Y-41931942D01*
X170064185Y-42063058D01*
X170025000Y-42209300D01*
X170025000Y-42360700D01*
X125000500Y-42360700D01*
X125000500Y-41535000D01*
X168849823Y-41535000D01*
X169850000Y-41535000D01*
X169850000Y-41035000D01*
X171350000Y-41035000D01*
X171350000Y-41535000D01*
X172350177Y-41535000D01*
X177049823Y-41535000D01*
X178050000Y-41535000D01*
X178050000Y-41035000D01*
X179550000Y-41035000D01*
X179550000Y-41535000D01*
X180550177Y-41535000D01*
X180503444Y-41470678D01*
X180364321Y-41331555D01*
X180205143Y-41215904D01*
X180029835Y-41126581D01*
X179842705Y-41065778D01*
X179648382Y-41035000D01*
X179550000Y-41035000D01*
X178050000Y-41035000D01*
X177951618Y-41035000D01*
X177757294Y-41065778D01*
X177570164Y-41126581D01*
X177394856Y-41215904D01*
X177235678Y-41331555D01*
X177096555Y-41470678D01*
X177049823Y-41535000D01*
X172350177Y-41535000D01*
X172303444Y-41470678D01*
X172164321Y-41331555D01*
X172005143Y-41215904D01*
X171829835Y-41126581D01*
X171642705Y-41065778D01*
X171448382Y-41035000D01*
X171350000Y-41035000D01*
X169850000Y-41035000D01*
X169751618Y-41035000D01*
X169557294Y-41065778D01*
X169370164Y-41126581D01*
X169194856Y-41215904D01*
X169035678Y-41331555D01*
X168896555Y-41470678D01*
X168849823Y-41535000D01*
X125000500Y-41535000D01*
X125000500Y-38082870D01*
X168599500Y-38082870D01*
X168599501Y-38082876D01*
X168605908Y-38142483D01*
X168656202Y-38277328D01*
X168656206Y-38277335D01*
X168742452Y-38392544D01*
X168742455Y-38392547D01*
X168857664Y-38478793D01*
X168857671Y-38478797D01*
X168992517Y-38529091D01*
X168992516Y-38529091D01*
X168999444Y-38529835D01*
X169052127Y-38535500D01*
X172147872Y-38535499D01*
X172207483Y-38529091D01*
X172342331Y-38478796D01*
X172457546Y-38392546D01*
X172543796Y-38277331D01*
X172594091Y-38142483D01*
X172600500Y-38082873D01*
X172600500Y-38082870D01*
X176799500Y-38082870D01*
X176799501Y-38082876D01*
X176805908Y-38142483D01*
X176856202Y-38277328D01*
X176856206Y-38277335D01*
X176942452Y-38392544D01*
X176942455Y-38392547D01*
X177057664Y-38478793D01*
X177057671Y-38478797D01*
X177192517Y-38529091D01*
X177192516Y-38529091D01*
X177199444Y-38529835D01*
X177252127Y-38535500D01*
X180347872Y-38535499D01*
X180407483Y-38529091D01*
X180542331Y-38478796D01*
X180657546Y-38392546D01*
X180743796Y-38277331D01*
X180794091Y-38142483D01*
X180800500Y-38082873D01*
X180800499Y-36487128D01*
X180794091Y-36427517D01*
X180743796Y-36292669D01*
X180743795Y-36292668D01*
X180743793Y-36292664D01*
X180657547Y-36177455D01*
X180657544Y-36177452D01*
X180542335Y-36091206D01*
X180542328Y-36091202D01*
X180407482Y-36040908D01*
X180407483Y-36040908D01*
X180347883Y-36034501D01*
X180347881Y-36034500D01*
X180347873Y-36034500D01*
X180347864Y-36034500D01*
X177252129Y-36034500D01*
X177252123Y-36034501D01*
X177192516Y-36040908D01*
X177057671Y-36091202D01*
X177057664Y-36091206D01*
X176942455Y-36177452D01*
X176942452Y-36177455D01*
X176856206Y-36292664D01*
X176856202Y-36292671D01*
X176805908Y-36427517D01*
X176799501Y-36487116D01*
X176799501Y-36487123D01*
X176799500Y-36487135D01*
X176799500Y-38082870D01*
X172600500Y-38082870D01*
X172600499Y-36487128D01*
X172594091Y-36427517D01*
X172543796Y-36292669D01*
X172543795Y-36292668D01*
X172543793Y-36292664D01*
X172457547Y-36177455D01*
X172457544Y-36177452D01*
X172342335Y-36091206D01*
X172342328Y-36091202D01*
X172207482Y-36040908D01*
X172207483Y-36040908D01*
X172147883Y-36034501D01*
X172147881Y-36034500D01*
X172147873Y-36034500D01*
X172147864Y-36034500D01*
X169052129Y-36034500D01*
X169052123Y-36034501D01*
X168992516Y-36040908D01*
X168857671Y-36091202D01*
X168857664Y-36091206D01*
X168742455Y-36177452D01*
X168742452Y-36177455D01*
X168656206Y-36292664D01*
X168656202Y-36292671D01*
X168605908Y-36427517D01*
X168599501Y-36487116D01*
X168599501Y-36487123D01*
X168599500Y-36487135D01*
X168599500Y-38082870D01*
X125000500Y-38082870D01*
X125000500Y-28511288D01*
X127649500Y-28511288D01*
X127681161Y-28751785D01*
X127743947Y-28986104D01*
X127836773Y-29210205D01*
X127836776Y-29210212D01*
X127958064Y-29420289D01*
X127958066Y-29420292D01*
X127958067Y-29420293D01*
X128105733Y-29612736D01*
X128105739Y-29612743D01*
X128277256Y-29784260D01*
X128277262Y-29784265D01*
X128469711Y-29931936D01*
X128679788Y-30053224D01*
X128903900Y-30146054D01*
X129138211Y-30208838D01*
X129318586Y-30232584D01*
X129378711Y-30240500D01*
X129378712Y-30240500D01*
X129621289Y-30240500D01*
X129669388Y-30234167D01*
X129861789Y-30208838D01*
X130096100Y-30146054D01*
X130320212Y-30053224D01*
X130530289Y-29931936D01*
X130722738Y-29784265D01*
X130894265Y-29612738D01*
X131041936Y-29420289D01*
X131163224Y-29210212D01*
X131256054Y-28986100D01*
X131318838Y-28751789D01*
X131350500Y-28511288D01*
X179349500Y-28511288D01*
X179381161Y-28751785D01*
X179443947Y-28986104D01*
X179536773Y-29210205D01*
X179536776Y-29210212D01*
X179658064Y-29420289D01*
X179658066Y-29420292D01*
X179658067Y-29420293D01*
X179805733Y-29612736D01*
X179805739Y-29612743D01*
X179977256Y-29784260D01*
X179977262Y-29784265D01*
X180169711Y-29931936D01*
X180379788Y-30053224D01*
X180603900Y-30146054D01*
X180838211Y-30208838D01*
X181018586Y-30232584D01*
X181078711Y-30240500D01*
X181078712Y-30240500D01*
X181321289Y-30240500D01*
X181369388Y-30234167D01*
X181561789Y-30208838D01*
X181796100Y-30146054D01*
X182020212Y-30053224D01*
X182230289Y-29931936D01*
X182422738Y-29784265D01*
X182594265Y-29612738D01*
X182741936Y-29420289D01*
X182863224Y-29210212D01*
X182956054Y-28986100D01*
X183018838Y-28751789D01*
X183050500Y-28511288D01*
X183050500Y-28268712D01*
X183018838Y-28028211D01*
X182956054Y-27793900D01*
X182863224Y-27569788D01*
X182741936Y-27359711D01*
X182594265Y-27167262D01*
X182594260Y-27167256D01*
X182422743Y-26995739D01*
X182422736Y-26995733D01*
X182230293Y-26848067D01*
X182230292Y-26848066D01*
X182230289Y-26848064D01*
X182020212Y-26726776D01*
X182020205Y-26726773D01*
X181796104Y-26633947D01*
X181561785Y-26571161D01*
X181321289Y-26539500D01*
X181321288Y-26539500D01*
X181078712Y-26539500D01*
X181078711Y-26539500D01*
X180838214Y-26571161D01*
X180603895Y-26633947D01*
X180379794Y-26726773D01*
X180379785Y-26726777D01*
X180169706Y-26848067D01*
X179977263Y-26995733D01*
X179977256Y-26995739D01*
X179805739Y-27167256D01*
X179805733Y-27167263D01*
X179658067Y-27359706D01*
X179536777Y-27569785D01*
X179536773Y-27569794D01*
X179443947Y-27793895D01*
X179381161Y-28028214D01*
X179349500Y-28268711D01*
X179349500Y-28511288D01*
X131350500Y-28511288D01*
X131350500Y-28268712D01*
X131318838Y-28028211D01*
X131256054Y-27793900D01*
X131163224Y-27569788D01*
X131041936Y-27359711D01*
X130894265Y-27167262D01*
X130894260Y-27167256D01*
X130722743Y-26995739D01*
X130722736Y-26995733D01*
X130530293Y-26848067D01*
X130530292Y-26848066D01*
X130530289Y-26848064D01*
X130320212Y-26726776D01*
X130320205Y-26726773D01*
X130096104Y-26633947D01*
X129861785Y-26571161D01*
X129621289Y-26539500D01*
X129621288Y-26539500D01*
X129378712Y-26539500D01*
X129378711Y-26539500D01*
X129138214Y-26571161D01*
X128903895Y-26633947D01*
X128679794Y-26726773D01*
X128679785Y-26726777D01*
X128469706Y-26848067D01*
X128277263Y-26995733D01*
X128277256Y-26995739D01*
X128105739Y-27167256D01*
X128105733Y-27167263D01*
X127958067Y-27359706D01*
X127836777Y-27569785D01*
X127836773Y-27569794D01*
X127743947Y-27793895D01*
X127681161Y-28028214D01*
X127649500Y-28268711D01*
X127649500Y-28511288D01*
X125000500Y-28511288D01*
X125000500Y-24014500D01*
X125020185Y-23947461D01*
X125072989Y-23901706D01*
X125124500Y-23890500D01*
X185575500Y-23890500D01*
X185642539Y-23910185D01*
G37*
G04 #@! TD.AperFunction*
M02*
