G04 #@! TF.GenerationSoftware,KiCad,Pcbnew,8.0.0*
G04 #@! TF.CreationDate,2024-08-30T13:19:30-05:00*
G04 #@! TF.ProjectId,Rain and Switches Control Board,5261696e-2061-46e6-9420-537769746368,rev?*
G04 #@! TF.SameCoordinates,Original*
G04 #@! TF.FileFunction,Soldermask,Top*
G04 #@! TF.FilePolarity,Negative*
%FSLAX46Y46*%
G04 Gerber Fmt 4.6, Leading zero omitted, Abs format (unit mm)*
G04 Created by KiCad (PCBNEW 8.0.0) date 2024-08-30 13:19:30*
%MOMM*%
%LPD*%
G01*
G04 APERTURE LIST*
G04 Aperture macros list*
%AMRoundRect*
0 Rectangle with rounded corners*
0 $1 Rounding radius*
0 $2 $3 $4 $5 $6 $7 $8 $9 X,Y pos of 4 corners*
0 Add a 4 corners polygon primitive as box body*
4,1,4,$2,$3,$4,$5,$6,$7,$8,$9,$2,$3,0*
0 Add four circle primitives for the rounded corners*
1,1,$1+$1,$2,$3*
1,1,$1+$1,$4,$5*
1,1,$1+$1,$6,$7*
1,1,$1+$1,$8,$9*
0 Add four rect primitives between the rounded corners*
20,1,$1+$1,$2,$3,$4,$5,0*
20,1,$1+$1,$4,$5,$6,$7,0*
20,1,$1+$1,$6,$7,$8,$9,0*
20,1,$1+$1,$8,$9,$2,$3,0*%
G04 Aperture macros list end*
%ADD10RoundRect,0.250000X-0.625000X0.312500X-0.625000X-0.312500X0.625000X-0.312500X0.625000X0.312500X0*%
%ADD11C,3.200000*%
%ADD12R,1.800000X1.800000*%
%ADD13C,1.800000*%
%ADD14RoundRect,0.250000X0.312500X0.625000X-0.312500X0.625000X-0.312500X-0.625000X0.312500X-0.625000X0*%
%ADD15R,1.980000X3.960000*%
%ADD16O,1.980000X3.960000*%
%ADD17C,3.250000*%
%ADD18R,1.500000X1.500000*%
%ADD19C,1.500000*%
%ADD20C,3.000000*%
%ADD21R,3.000000X1.500000*%
%ADD22O,3.000000X1.500000*%
%ADD23R,1.104900X0.508000*%
%ADD24R,0.609600X1.549400*%
%ADD25C,1.265000*%
G04 APERTURE END LIST*
D10*
X168800000Y-90035000D03*
X168800000Y-92960000D03*
D11*
X129500000Y-125890000D03*
X129500000Y-28390000D03*
X181200000Y-125890000D03*
X181200000Y-28390000D03*
D12*
X140180000Y-93350000D03*
D13*
X140180000Y-95890000D03*
X140180000Y-98430000D03*
D10*
X177870000Y-96750000D03*
X177870000Y-99675000D03*
D14*
X132252500Y-114310000D03*
X129327500Y-114310000D03*
D15*
X158140000Y-139250000D03*
D16*
X153140000Y-139250000D03*
D17*
X175620000Y-82270000D03*
X175620000Y-70840000D03*
D18*
X169270000Y-81000000D03*
D19*
X166730000Y-79730000D03*
X169270000Y-78460000D03*
X166730000Y-77190000D03*
X169270000Y-75920000D03*
X166730000Y-74650000D03*
X169270000Y-73380000D03*
X166730000Y-72110000D03*
D20*
X178670000Y-84325000D03*
X178670000Y-68785000D03*
D12*
X132210000Y-109890000D03*
D13*
X129670000Y-109890000D03*
D10*
X177790000Y-91185000D03*
X177790000Y-94110000D03*
D21*
X178800000Y-37285000D03*
X170600000Y-37285000D03*
D22*
X178800000Y-42285000D03*
X170600000Y-42285000D03*
D10*
X168400000Y-95420000D03*
X168400000Y-98345000D03*
D15*
X182620000Y-139250000D03*
D16*
X177620000Y-139250000D03*
D23*
X175820000Y-99080000D03*
X175820000Y-97810000D03*
X175820000Y-96540000D03*
X175820000Y-95270000D03*
X175820000Y-94000000D03*
X175820000Y-92730000D03*
X175820000Y-91460000D03*
X175820000Y-90190000D03*
X170740000Y-90190000D03*
X170740000Y-91460000D03*
X170740000Y-92730000D03*
X170740000Y-94000000D03*
X170740000Y-95270000D03*
X170740000Y-96540000D03*
X170740000Y-97810000D03*
X170740000Y-99080000D03*
D24*
X156540000Y-73005000D03*
X157810000Y-73005000D03*
X159080000Y-73005000D03*
X160350000Y-73005000D03*
X160350000Y-67605000D03*
X159080000Y-67605000D03*
X157810000Y-67605000D03*
X156540000Y-67605000D03*
D17*
X175515000Y-61565000D03*
X175515000Y-50135000D03*
D18*
X169165000Y-60295000D03*
D19*
X166625000Y-59025000D03*
X169165000Y-57755000D03*
X166625000Y-56485000D03*
X169165000Y-55215000D03*
X166625000Y-53945000D03*
X169165000Y-52675000D03*
X166625000Y-51405000D03*
D20*
X178565000Y-63620000D03*
X178565000Y-48080000D03*
D10*
X158230000Y-60357500D03*
X158230000Y-63282500D03*
D25*
X183915000Y-104265000D03*
X181375000Y-104265000D03*
X178835000Y-104265000D03*
X176295000Y-104265000D03*
X173755000Y-104265000D03*
X171215000Y-104265000D03*
X168675000Y-104265000D03*
X166135000Y-104265000D03*
X163595000Y-104265000D03*
X161055000Y-104265000D03*
X158515000Y-104265000D03*
X155975000Y-104265000D03*
X153435000Y-104265000D03*
X150895000Y-104265000D03*
X150895000Y-106805000D03*
X150895000Y-109345000D03*
X150895000Y-111885000D03*
X150895000Y-114425000D03*
X150895000Y-116965000D03*
X150895000Y-119505000D03*
X153435000Y-119505000D03*
X155975000Y-119505000D03*
X158515000Y-119505000D03*
X161055000Y-119505000D03*
X163595000Y-119505000D03*
X166135000Y-119505000D03*
X168675000Y-119505000D03*
X171215000Y-119505000D03*
X173755000Y-119505000D03*
X176295000Y-119505000D03*
X178835000Y-119505000D03*
X181375000Y-119505000D03*
X183915000Y-119505000D03*
D15*
X133660000Y-139250000D03*
D16*
X128660000Y-139250000D03*
D15*
X145900000Y-139250000D03*
D16*
X140900000Y-139250000D03*
D15*
X170380000Y-139250000D03*
D16*
X165380000Y-139250000D03*
M02*
