%TF.GenerationSoftware,KiCad,Pcbnew,8.0.0*%
%TF.CreationDate,2024-08-30T13:19:38-05:00*%
%TF.ProjectId,Rain and Switches Control Board,5261696e-2061-46e6-9420-537769746368,rev?*%
%TF.SameCoordinates,Original*%
%TF.FileFunction,Drillmap*%
%TF.FilePolarity,Positive*%
%FSLAX45Y45*%
G04 Gerber Fmt 4.5, Leading zero omitted, Abs format (unit mm)*
G04 Created by KiCad (PCBNEW 8.0.0) date 2024-08-30 13:19:38*
%MOMM*%
%LPD*%
G01*
G04 APERTURE LIST*
%ADD10C,0.050000*%
%ADD11C,0.200000*%
%ADD12C,0.100000*%
%ADD13C,0.115000*%
%ADD14C,0.132000*%
%ADD15C,0.160000*%
G04 APERTURE END LIST*
D10*
X12450000Y-2339000D02*
X18620000Y-2339000D01*
X18620000Y-14908000D01*
X12450000Y-14908000D01*
X12450000Y-2339000D01*
D11*
D12*
X15647000Y-6391000D02*
X15677000Y-6421000D01*
X15677000Y-6391000D02*
X15647000Y-6421000D01*
X15768000Y-6594000D02*
X15798000Y-6624000D01*
X15798000Y-6594000D02*
X15768000Y-6624000D01*
X16023500Y-7448500D02*
X16053500Y-7478500D01*
X16053500Y-7448500D02*
X16023500Y-7478500D01*
X16134500Y-7020500D02*
X16164500Y-7050500D01*
X16164500Y-7020500D02*
X16134500Y-7050500D01*
X16942000Y-9404500D02*
X16972000Y-9434500D01*
X16972000Y-9404500D02*
X16942000Y-9434500D01*
X17555500Y-8934574D02*
X17585500Y-8964574D01*
X17585500Y-8934574D02*
X17555500Y-8964574D01*
X13012000Y-10989000D02*
G75*
G02*
X12922000Y-10989000I-45000J0D01*
G01*
X12922000Y-10989000D02*
G75*
G02*
X13012000Y-10989000I45000J0D01*
G01*
X13266000Y-10989000D02*
G75*
G02*
X13176000Y-10989000I-45000J0D01*
G01*
X13176000Y-10989000D02*
G75*
G02*
X13266000Y-10989000I45000J0D01*
G01*
X16707500Y-5140500D02*
G75*
G02*
X16617500Y-5140500I-45000J0D01*
G01*
X16617500Y-5140500D02*
G75*
G02*
X16707500Y-5140500I45000J0D01*
G01*
X16707500Y-5394500D02*
G75*
G02*
X16617500Y-5394500I-45000J0D01*
G01*
X16617500Y-5394500D02*
G75*
G02*
X16707500Y-5394500I45000J0D01*
G01*
X16707500Y-5648500D02*
G75*
G02*
X16617500Y-5648500I-45000J0D01*
G01*
X16617500Y-5648500D02*
G75*
G02*
X16707500Y-5648500I45000J0D01*
G01*
X16707500Y-5902500D02*
G75*
G02*
X16617500Y-5902500I-45000J0D01*
G01*
X16617500Y-5902500D02*
G75*
G02*
X16707500Y-5902500I45000J0D01*
G01*
X16718000Y-7211000D02*
G75*
G02*
X16628000Y-7211000I-45000J0D01*
G01*
X16628000Y-7211000D02*
G75*
G02*
X16718000Y-7211000I45000J0D01*
G01*
X16718000Y-7465000D02*
G75*
G02*
X16628000Y-7465000I-45000J0D01*
G01*
X16628000Y-7465000D02*
G75*
G02*
X16718000Y-7465000I45000J0D01*
G01*
X16718000Y-7719000D02*
G75*
G02*
X16628000Y-7719000I-45000J0D01*
G01*
X16628000Y-7719000D02*
G75*
G02*
X16718000Y-7719000I45000J0D01*
G01*
X16718000Y-7973000D02*
G75*
G02*
X16628000Y-7973000I-45000J0D01*
G01*
X16628000Y-7973000D02*
G75*
G02*
X16718000Y-7973000I45000J0D01*
G01*
X16961500Y-5267500D02*
G75*
G02*
X16871500Y-5267500I-45000J0D01*
G01*
X16871500Y-5267500D02*
G75*
G02*
X16961500Y-5267500I45000J0D01*
G01*
X16961500Y-5521500D02*
G75*
G02*
X16871500Y-5521500I-45000J0D01*
G01*
X16871500Y-5521500D02*
G75*
G02*
X16961500Y-5521500I45000J0D01*
G01*
X16961500Y-5775500D02*
G75*
G02*
X16871500Y-5775500I-45000J0D01*
G01*
X16871500Y-5775500D02*
G75*
G02*
X16961500Y-5775500I45000J0D01*
G01*
X16961500Y-6029500D02*
G75*
G02*
X16871500Y-6029500I-45000J0D01*
G01*
X16871500Y-6029500D02*
G75*
G02*
X16961500Y-6029500I45000J0D01*
G01*
X16972000Y-7338000D02*
G75*
G02*
X16882000Y-7338000I-45000J0D01*
G01*
X16882000Y-7338000D02*
G75*
G02*
X16972000Y-7338000I45000J0D01*
G01*
X16972000Y-7592000D02*
G75*
G02*
X16882000Y-7592000I-45000J0D01*
G01*
X16882000Y-7592000D02*
G75*
G02*
X16972000Y-7592000I45000J0D01*
G01*
X16972000Y-7846000D02*
G75*
G02*
X16882000Y-7846000I-45000J0D01*
G01*
X16882000Y-7846000D02*
G75*
G02*
X16972000Y-7846000I45000J0D01*
G01*
X16972000Y-8100000D02*
G75*
G02*
X16882000Y-8100000I-45000J0D01*
G01*
X16882000Y-8100000D02*
G75*
G02*
X16972000Y-8100000I45000J0D01*
G01*
X15089500Y-10378250D02*
X15089500Y-10474750D01*
X15041250Y-10426500D02*
X15137750Y-10426500D01*
X15089500Y-10632250D02*
X15089500Y-10728750D01*
X15041250Y-10680500D02*
X15137750Y-10680500D01*
X15089500Y-10886250D02*
X15089500Y-10982750D01*
X15041250Y-10934500D02*
X15137750Y-10934500D01*
X15089500Y-11140250D02*
X15089500Y-11236750D01*
X15041250Y-11188500D02*
X15137750Y-11188500D01*
X15089500Y-11394250D02*
X15089500Y-11490750D01*
X15041250Y-11442500D02*
X15137750Y-11442500D01*
X15089500Y-11648250D02*
X15089500Y-11744750D01*
X15041250Y-11696500D02*
X15137750Y-11696500D01*
X15089500Y-11902250D02*
X15089500Y-11998750D01*
X15041250Y-11950500D02*
X15137750Y-11950500D01*
X15343500Y-10378250D02*
X15343500Y-10474750D01*
X15295250Y-10426500D02*
X15391750Y-10426500D01*
X15343500Y-11902250D02*
X15343500Y-11998750D01*
X15295250Y-11950500D02*
X15391750Y-11950500D01*
X15597500Y-10378250D02*
X15597500Y-10474750D01*
X15549250Y-10426500D02*
X15645750Y-10426500D01*
X15597500Y-11902250D02*
X15597500Y-11998750D01*
X15549250Y-11950500D02*
X15645750Y-11950500D01*
X15851500Y-10378250D02*
X15851500Y-10474750D01*
X15803250Y-10426500D02*
X15899750Y-10426500D01*
X15851500Y-11902250D02*
X15851500Y-11998750D01*
X15803250Y-11950500D02*
X15899750Y-11950500D01*
X16105500Y-10378250D02*
X16105500Y-10474750D01*
X16057250Y-10426500D02*
X16153750Y-10426500D01*
X16105500Y-11902250D02*
X16105500Y-11998750D01*
X16057250Y-11950500D02*
X16153750Y-11950500D01*
X16359500Y-10378250D02*
X16359500Y-10474750D01*
X16311250Y-10426500D02*
X16407750Y-10426500D01*
X16359500Y-11902250D02*
X16359500Y-11998750D01*
X16311250Y-11950500D02*
X16407750Y-11950500D01*
X16613500Y-10378250D02*
X16613500Y-10474750D01*
X16565250Y-10426500D02*
X16661750Y-10426500D01*
X16613500Y-11902250D02*
X16613500Y-11998750D01*
X16565250Y-11950500D02*
X16661750Y-11950500D01*
X16867500Y-10378250D02*
X16867500Y-10474750D01*
X16819250Y-10426500D02*
X16915750Y-10426500D01*
X16867500Y-11902250D02*
X16867500Y-11998750D01*
X16819250Y-11950500D02*
X16915750Y-11950500D01*
X17121500Y-10378250D02*
X17121500Y-10474750D01*
X17073250Y-10426500D02*
X17169750Y-10426500D01*
X17121500Y-11902250D02*
X17121500Y-11998750D01*
X17073250Y-11950500D02*
X17169750Y-11950500D01*
X17375500Y-10378250D02*
X17375500Y-10474750D01*
X17327250Y-10426500D02*
X17423750Y-10426500D01*
X17375500Y-11902250D02*
X17375500Y-11998750D01*
X17327250Y-11950500D02*
X17423750Y-11950500D01*
X17629500Y-10378250D02*
X17629500Y-10474750D01*
X17581250Y-10426500D02*
X17677750Y-10426500D01*
X17629500Y-11902250D02*
X17629500Y-11998750D01*
X17581250Y-11950500D02*
X17677750Y-11950500D01*
X17883500Y-10378250D02*
X17883500Y-10474750D01*
X17835250Y-10426500D02*
X17931750Y-10426500D01*
X17883500Y-11902250D02*
X17883500Y-11998750D01*
X17835250Y-11950500D02*
X17931750Y-11950500D01*
X18137500Y-10378250D02*
X18137500Y-10474750D01*
X18089250Y-10426500D02*
X18185750Y-10426500D01*
X18137500Y-11902250D02*
X18137500Y-11998750D01*
X18089250Y-11950500D02*
X18185750Y-11950500D01*
X18391500Y-10378250D02*
X18391500Y-10474750D01*
X18343250Y-10426500D02*
X18439750Y-10426500D01*
X18391500Y-11902250D02*
X18391500Y-11998750D01*
X18343250Y-11950500D02*
X18439750Y-11950500D01*
X14053356Y-9370356D02*
X14053356Y-9299644D01*
X13982644Y-9299644D01*
X13982644Y-9370356D01*
X14053356Y-9370356D01*
X14053356Y-9624356D02*
X14053356Y-9553644D01*
X13982644Y-9553644D01*
X13982644Y-9624356D01*
X14053356Y-9624356D01*
X14053356Y-9878356D02*
X14053356Y-9807644D01*
X13982644Y-9807644D01*
X13982644Y-9878356D01*
X14053356Y-9878356D01*
D13*
X17060000Y-3786000D02*
X17117500Y-3728500D01*
X17060000Y-3671000D01*
X17002500Y-3728500D01*
X17060000Y-3786000D01*
X17060000Y-4286000D02*
X17117500Y-4228500D01*
X17060000Y-4171000D01*
X17002500Y-4228500D01*
X17060000Y-4286000D01*
X17880000Y-3786000D02*
X17937500Y-3728500D01*
X17880000Y-3671000D01*
X17822500Y-3728500D01*
X17880000Y-3786000D01*
X17880000Y-4286000D02*
X17937500Y-4228500D01*
X17880000Y-4171000D01*
X17822500Y-4228500D01*
X17880000Y-4286000D01*
D14*
X12800000Y-13859000D02*
X12932000Y-13991000D01*
X12932000Y-13859000D02*
X12800000Y-13991000D01*
X12932000Y-13925000D02*
G75*
G02*
X12800000Y-13925000I-66000J0D01*
G01*
X12800000Y-13925000D02*
G75*
G02*
X12932000Y-13925000I66000J0D01*
G01*
X13300000Y-13859000D02*
X13432000Y-13991000D01*
X13432000Y-13859000D02*
X13300000Y-13991000D01*
X13432000Y-13925000D02*
G75*
G02*
X13300000Y-13925000I-66000J0D01*
G01*
X13300000Y-13925000D02*
G75*
G02*
X13432000Y-13925000I66000J0D01*
G01*
X14024000Y-13859000D02*
X14156000Y-13991000D01*
X14156000Y-13859000D02*
X14024000Y-13991000D01*
X14156000Y-13925000D02*
G75*
G02*
X14024000Y-13925000I-66000J0D01*
G01*
X14024000Y-13925000D02*
G75*
G02*
X14156000Y-13925000I66000J0D01*
G01*
X14524000Y-13859000D02*
X14656000Y-13991000D01*
X14656000Y-13859000D02*
X14524000Y-13991000D01*
X14656000Y-13925000D02*
G75*
G02*
X14524000Y-13925000I-66000J0D01*
G01*
X14524000Y-13925000D02*
G75*
G02*
X14656000Y-13925000I66000J0D01*
G01*
X15248000Y-13859000D02*
X15380000Y-13991000D01*
X15380000Y-13859000D02*
X15248000Y-13991000D01*
X15380000Y-13925000D02*
G75*
G02*
X15248000Y-13925000I-66000J0D01*
G01*
X15248000Y-13925000D02*
G75*
G02*
X15380000Y-13925000I66000J0D01*
G01*
X15748000Y-13859000D02*
X15880000Y-13991000D01*
X15880000Y-13859000D02*
X15748000Y-13991000D01*
X15880000Y-13925000D02*
G75*
G02*
X15748000Y-13925000I-66000J0D01*
G01*
X15748000Y-13925000D02*
G75*
G02*
X15880000Y-13925000I66000J0D01*
G01*
X16472000Y-13859000D02*
X16604000Y-13991000D01*
X16604000Y-13859000D02*
X16472000Y-13991000D01*
X16604000Y-13925000D02*
G75*
G02*
X16472000Y-13925000I-66000J0D01*
G01*
X16472000Y-13925000D02*
G75*
G02*
X16604000Y-13925000I66000J0D01*
G01*
X16972000Y-13859000D02*
X17104000Y-13991000D01*
X17104000Y-13859000D02*
X16972000Y-13991000D01*
X17104000Y-13925000D02*
G75*
G02*
X16972000Y-13925000I-66000J0D01*
G01*
X16972000Y-13925000D02*
G75*
G02*
X17104000Y-13925000I66000J0D01*
G01*
X17696000Y-13859000D02*
X17828000Y-13991000D01*
X17828000Y-13859000D02*
X17696000Y-13991000D01*
X17828000Y-13925000D02*
G75*
G02*
X17696000Y-13925000I-66000J0D01*
G01*
X17696000Y-13925000D02*
G75*
G02*
X17828000Y-13925000I66000J0D01*
G01*
X18196000Y-13859000D02*
X18328000Y-13991000D01*
X18328000Y-13859000D02*
X18196000Y-13991000D01*
X18328000Y-13925000D02*
G75*
G02*
X18196000Y-13925000I-66000J0D01*
G01*
X18196000Y-13925000D02*
G75*
G02*
X18328000Y-13925000I66000J0D01*
G01*
D15*
X17776500Y-4728000D02*
X17936500Y-4888000D01*
X17936500Y-4728000D02*
X17776500Y-4888000D01*
X17856500Y-4728000D02*
X17856500Y-4888000D01*
X17776500Y-4808000D02*
X17936500Y-4808000D01*
X17776500Y-6282000D02*
X17936500Y-6442000D01*
X17936500Y-6282000D02*
X17776500Y-6442000D01*
X17856500Y-6282000D02*
X17856500Y-6442000D01*
X17776500Y-6362000D02*
X17936500Y-6362000D01*
X17787000Y-6798500D02*
X17947000Y-6958500D01*
X17947000Y-6798500D02*
X17787000Y-6958500D01*
X17867000Y-6798500D02*
X17867000Y-6958500D01*
X17787000Y-6878500D02*
X17947000Y-6878500D01*
X17787000Y-8352500D02*
X17947000Y-8512500D01*
X17947000Y-8352500D02*
X17787000Y-8512500D01*
X17867000Y-8352500D02*
X17867000Y-8512500D01*
X17787000Y-8432500D02*
X17947000Y-8432500D01*
D11*
X12708277Y-15221984D02*
X12708277Y-15021984D01*
X12708277Y-15021984D02*
X12755896Y-15021984D01*
X12755896Y-15021984D02*
X12784467Y-15031508D01*
X12784467Y-15031508D02*
X12803515Y-15050555D01*
X12803515Y-15050555D02*
X12813039Y-15069603D01*
X12813039Y-15069603D02*
X12822562Y-15107698D01*
X12822562Y-15107698D02*
X12822562Y-15136269D01*
X12822562Y-15136269D02*
X12813039Y-15174365D01*
X12813039Y-15174365D02*
X12803515Y-15193412D01*
X12803515Y-15193412D02*
X12784467Y-15212460D01*
X12784467Y-15212460D02*
X12755896Y-15221984D01*
X12755896Y-15221984D02*
X12708277Y-15221984D01*
X12908277Y-15221984D02*
X12908277Y-15088650D01*
X12908277Y-15126746D02*
X12917801Y-15107698D01*
X12917801Y-15107698D02*
X12927324Y-15098174D01*
X12927324Y-15098174D02*
X12946372Y-15088650D01*
X12946372Y-15088650D02*
X12965420Y-15088650D01*
X13032086Y-15221984D02*
X13032086Y-15088650D01*
X13032086Y-15021984D02*
X13022562Y-15031508D01*
X13022562Y-15031508D02*
X13032086Y-15041031D01*
X13032086Y-15041031D02*
X13041610Y-15031508D01*
X13041610Y-15031508D02*
X13032086Y-15021984D01*
X13032086Y-15021984D02*
X13032086Y-15041031D01*
X13155896Y-15221984D02*
X13136848Y-15212460D01*
X13136848Y-15212460D02*
X13127324Y-15193412D01*
X13127324Y-15193412D02*
X13127324Y-15021984D01*
X13260658Y-15221984D02*
X13241610Y-15212460D01*
X13241610Y-15212460D02*
X13232086Y-15193412D01*
X13232086Y-15193412D02*
X13232086Y-15021984D01*
X13489229Y-15221984D02*
X13489229Y-15021984D01*
X13489229Y-15021984D02*
X13555896Y-15164841D01*
X13555896Y-15164841D02*
X13622562Y-15021984D01*
X13622562Y-15021984D02*
X13622562Y-15221984D01*
X13803515Y-15221984D02*
X13803515Y-15117222D01*
X13803515Y-15117222D02*
X13793991Y-15098174D01*
X13793991Y-15098174D02*
X13774943Y-15088650D01*
X13774943Y-15088650D02*
X13736848Y-15088650D01*
X13736848Y-15088650D02*
X13717801Y-15098174D01*
X13803515Y-15212460D02*
X13784467Y-15221984D01*
X13784467Y-15221984D02*
X13736848Y-15221984D01*
X13736848Y-15221984D02*
X13717801Y-15212460D01*
X13717801Y-15212460D02*
X13708277Y-15193412D01*
X13708277Y-15193412D02*
X13708277Y-15174365D01*
X13708277Y-15174365D02*
X13717801Y-15155317D01*
X13717801Y-15155317D02*
X13736848Y-15145793D01*
X13736848Y-15145793D02*
X13784467Y-15145793D01*
X13784467Y-15145793D02*
X13803515Y-15136269D01*
X13898753Y-15088650D02*
X13898753Y-15288650D01*
X13898753Y-15098174D02*
X13917801Y-15088650D01*
X13917801Y-15088650D02*
X13955896Y-15088650D01*
X13955896Y-15088650D02*
X13974943Y-15098174D01*
X13974943Y-15098174D02*
X13984467Y-15107698D01*
X13984467Y-15107698D02*
X13993991Y-15126746D01*
X13993991Y-15126746D02*
X13993991Y-15183888D01*
X13993991Y-15183888D02*
X13984467Y-15202936D01*
X13984467Y-15202936D02*
X13974943Y-15212460D01*
X13974943Y-15212460D02*
X13955896Y-15221984D01*
X13955896Y-15221984D02*
X13917801Y-15221984D01*
X13917801Y-15221984D02*
X13898753Y-15212460D01*
X14079705Y-15202936D02*
X14089229Y-15212460D01*
X14089229Y-15212460D02*
X14079705Y-15221984D01*
X14079705Y-15221984D02*
X14070182Y-15212460D01*
X14070182Y-15212460D02*
X14079705Y-15202936D01*
X14079705Y-15202936D02*
X14079705Y-15221984D01*
X14079705Y-15098174D02*
X14089229Y-15107698D01*
X14089229Y-15107698D02*
X14079705Y-15117222D01*
X14079705Y-15117222D02*
X14070182Y-15107698D01*
X14070182Y-15107698D02*
X14079705Y-15098174D01*
X14079705Y-15098174D02*
X14079705Y-15117222D01*
D12*
X12417500Y-15535500D02*
X12447500Y-15565500D01*
X12447500Y-15535500D02*
X12417500Y-15565500D01*
D11*
X12746372Y-15441984D02*
X12765420Y-15441984D01*
X12765420Y-15441984D02*
X12784467Y-15451508D01*
X12784467Y-15451508D02*
X12793991Y-15461031D01*
X12793991Y-15461031D02*
X12803515Y-15480079D01*
X12803515Y-15480079D02*
X12813039Y-15518174D01*
X12813039Y-15518174D02*
X12813039Y-15565793D01*
X12813039Y-15565793D02*
X12803515Y-15603888D01*
X12803515Y-15603888D02*
X12793991Y-15622936D01*
X12793991Y-15622936D02*
X12784467Y-15632460D01*
X12784467Y-15632460D02*
X12765420Y-15641984D01*
X12765420Y-15641984D02*
X12746372Y-15641984D01*
X12746372Y-15641984D02*
X12727324Y-15632460D01*
X12727324Y-15632460D02*
X12717801Y-15622936D01*
X12717801Y-15622936D02*
X12708277Y-15603888D01*
X12708277Y-15603888D02*
X12698753Y-15565793D01*
X12698753Y-15565793D02*
X12698753Y-15518174D01*
X12698753Y-15518174D02*
X12708277Y-15480079D01*
X12708277Y-15480079D02*
X12717801Y-15461031D01*
X12717801Y-15461031D02*
X12727324Y-15451508D01*
X12727324Y-15451508D02*
X12746372Y-15441984D01*
X12898753Y-15622936D02*
X12908277Y-15632460D01*
X12908277Y-15632460D02*
X12898753Y-15641984D01*
X12898753Y-15641984D02*
X12889229Y-15632460D01*
X12889229Y-15632460D02*
X12898753Y-15622936D01*
X12898753Y-15622936D02*
X12898753Y-15641984D01*
X12974943Y-15441984D02*
X13098753Y-15441984D01*
X13098753Y-15441984D02*
X13032086Y-15518174D01*
X13032086Y-15518174D02*
X13060658Y-15518174D01*
X13060658Y-15518174D02*
X13079705Y-15527698D01*
X13079705Y-15527698D02*
X13089229Y-15537222D01*
X13089229Y-15537222D02*
X13098753Y-15556269D01*
X13098753Y-15556269D02*
X13098753Y-15603888D01*
X13098753Y-15603888D02*
X13089229Y-15622936D01*
X13089229Y-15622936D02*
X13079705Y-15632460D01*
X13079705Y-15632460D02*
X13060658Y-15641984D01*
X13060658Y-15641984D02*
X13003515Y-15641984D01*
X13003515Y-15641984D02*
X12984467Y-15632460D01*
X12984467Y-15632460D02*
X12974943Y-15622936D01*
X13222562Y-15441984D02*
X13241610Y-15441984D01*
X13241610Y-15441984D02*
X13260658Y-15451508D01*
X13260658Y-15451508D02*
X13270182Y-15461031D01*
X13270182Y-15461031D02*
X13279705Y-15480079D01*
X13279705Y-15480079D02*
X13289229Y-15518174D01*
X13289229Y-15518174D02*
X13289229Y-15565793D01*
X13289229Y-15565793D02*
X13279705Y-15603888D01*
X13279705Y-15603888D02*
X13270182Y-15622936D01*
X13270182Y-15622936D02*
X13260658Y-15632460D01*
X13260658Y-15632460D02*
X13241610Y-15641984D01*
X13241610Y-15641984D02*
X13222562Y-15641984D01*
X13222562Y-15641984D02*
X13203515Y-15632460D01*
X13203515Y-15632460D02*
X13193991Y-15622936D01*
X13193991Y-15622936D02*
X13184467Y-15603888D01*
X13184467Y-15603888D02*
X13174943Y-15565793D01*
X13174943Y-15565793D02*
X13174943Y-15518174D01*
X13174943Y-15518174D02*
X13184467Y-15480079D01*
X13184467Y-15480079D02*
X13193991Y-15461031D01*
X13193991Y-15461031D02*
X13203515Y-15451508D01*
X13203515Y-15451508D02*
X13222562Y-15441984D01*
X13413039Y-15441984D02*
X13432086Y-15441984D01*
X13432086Y-15441984D02*
X13451134Y-15451508D01*
X13451134Y-15451508D02*
X13460658Y-15461031D01*
X13460658Y-15461031D02*
X13470182Y-15480079D01*
X13470182Y-15480079D02*
X13479705Y-15518174D01*
X13479705Y-15518174D02*
X13479705Y-15565793D01*
X13479705Y-15565793D02*
X13470182Y-15603888D01*
X13470182Y-15603888D02*
X13460658Y-15622936D01*
X13460658Y-15622936D02*
X13451134Y-15632460D01*
X13451134Y-15632460D02*
X13432086Y-15641984D01*
X13432086Y-15641984D02*
X13413039Y-15641984D01*
X13413039Y-15641984D02*
X13393991Y-15632460D01*
X13393991Y-15632460D02*
X13384467Y-15622936D01*
X13384467Y-15622936D02*
X13374943Y-15603888D01*
X13374943Y-15603888D02*
X13365420Y-15565793D01*
X13365420Y-15565793D02*
X13365420Y-15518174D01*
X13365420Y-15518174D02*
X13374943Y-15480079D01*
X13374943Y-15480079D02*
X13384467Y-15461031D01*
X13384467Y-15461031D02*
X13393991Y-15451508D01*
X13393991Y-15451508D02*
X13413039Y-15441984D01*
X13565420Y-15641984D02*
X13565420Y-15508650D01*
X13565420Y-15527698D02*
X13574943Y-15518174D01*
X13574943Y-15518174D02*
X13593991Y-15508650D01*
X13593991Y-15508650D02*
X13622563Y-15508650D01*
X13622563Y-15508650D02*
X13641610Y-15518174D01*
X13641610Y-15518174D02*
X13651134Y-15537222D01*
X13651134Y-15537222D02*
X13651134Y-15641984D01*
X13651134Y-15537222D02*
X13660658Y-15518174D01*
X13660658Y-15518174D02*
X13679705Y-15508650D01*
X13679705Y-15508650D02*
X13708277Y-15508650D01*
X13708277Y-15508650D02*
X13727324Y-15518174D01*
X13727324Y-15518174D02*
X13736848Y-15537222D01*
X13736848Y-15537222D02*
X13736848Y-15641984D01*
X13832086Y-15641984D02*
X13832086Y-15508650D01*
X13832086Y-15527698D02*
X13841610Y-15518174D01*
X13841610Y-15518174D02*
X13860658Y-15508650D01*
X13860658Y-15508650D02*
X13889229Y-15508650D01*
X13889229Y-15508650D02*
X13908277Y-15518174D01*
X13908277Y-15518174D02*
X13917801Y-15537222D01*
X13917801Y-15537222D02*
X13917801Y-15641984D01*
X13917801Y-15537222D02*
X13927324Y-15518174D01*
X13927324Y-15518174D02*
X13946372Y-15508650D01*
X13946372Y-15508650D02*
X13974943Y-15508650D01*
X13974943Y-15508650D02*
X13993991Y-15518174D01*
X13993991Y-15518174D02*
X14003515Y-15537222D01*
X14003515Y-15537222D02*
X14003515Y-15641984D01*
X14393991Y-15432460D02*
X14222563Y-15689603D01*
X14651134Y-15441984D02*
X14670182Y-15441984D01*
X14670182Y-15441984D02*
X14689229Y-15451508D01*
X14689229Y-15451508D02*
X14698753Y-15461031D01*
X14698753Y-15461031D02*
X14708277Y-15480079D01*
X14708277Y-15480079D02*
X14717801Y-15518174D01*
X14717801Y-15518174D02*
X14717801Y-15565793D01*
X14717801Y-15565793D02*
X14708277Y-15603888D01*
X14708277Y-15603888D02*
X14698753Y-15622936D01*
X14698753Y-15622936D02*
X14689229Y-15632460D01*
X14689229Y-15632460D02*
X14670182Y-15641984D01*
X14670182Y-15641984D02*
X14651134Y-15641984D01*
X14651134Y-15641984D02*
X14632086Y-15632460D01*
X14632086Y-15632460D02*
X14622563Y-15622936D01*
X14622563Y-15622936D02*
X14613039Y-15603888D01*
X14613039Y-15603888D02*
X14603515Y-15565793D01*
X14603515Y-15565793D02*
X14603515Y-15518174D01*
X14603515Y-15518174D02*
X14613039Y-15480079D01*
X14613039Y-15480079D02*
X14622563Y-15461031D01*
X14622563Y-15461031D02*
X14632086Y-15451508D01*
X14632086Y-15451508D02*
X14651134Y-15441984D01*
X14803515Y-15622936D02*
X14813039Y-15632460D01*
X14813039Y-15632460D02*
X14803515Y-15641984D01*
X14803515Y-15641984D02*
X14793991Y-15632460D01*
X14793991Y-15632460D02*
X14803515Y-15622936D01*
X14803515Y-15622936D02*
X14803515Y-15641984D01*
X14936848Y-15441984D02*
X14955896Y-15441984D01*
X14955896Y-15441984D02*
X14974944Y-15451508D01*
X14974944Y-15451508D02*
X14984467Y-15461031D01*
X14984467Y-15461031D02*
X14993991Y-15480079D01*
X14993991Y-15480079D02*
X15003515Y-15518174D01*
X15003515Y-15518174D02*
X15003515Y-15565793D01*
X15003515Y-15565793D02*
X14993991Y-15603888D01*
X14993991Y-15603888D02*
X14984467Y-15622936D01*
X14984467Y-15622936D02*
X14974944Y-15632460D01*
X14974944Y-15632460D02*
X14955896Y-15641984D01*
X14955896Y-15641984D02*
X14936848Y-15641984D01*
X14936848Y-15641984D02*
X14917801Y-15632460D01*
X14917801Y-15632460D02*
X14908277Y-15622936D01*
X14908277Y-15622936D02*
X14898753Y-15603888D01*
X14898753Y-15603888D02*
X14889229Y-15565793D01*
X14889229Y-15565793D02*
X14889229Y-15518174D01*
X14889229Y-15518174D02*
X14898753Y-15480079D01*
X14898753Y-15480079D02*
X14908277Y-15461031D01*
X14908277Y-15461031D02*
X14917801Y-15451508D01*
X14917801Y-15451508D02*
X14936848Y-15441984D01*
X15193991Y-15641984D02*
X15079706Y-15641984D01*
X15136848Y-15641984D02*
X15136848Y-15441984D01*
X15136848Y-15441984D02*
X15117801Y-15470555D01*
X15117801Y-15470555D02*
X15098753Y-15489603D01*
X15098753Y-15489603D02*
X15079706Y-15499127D01*
X15384467Y-15641984D02*
X15270182Y-15641984D01*
X15327325Y-15641984D02*
X15327325Y-15441984D01*
X15327325Y-15441984D02*
X15308277Y-15470555D01*
X15308277Y-15470555D02*
X15289229Y-15489603D01*
X15289229Y-15489603D02*
X15270182Y-15499127D01*
X15498753Y-15527698D02*
X15479706Y-15518174D01*
X15479706Y-15518174D02*
X15470182Y-15508650D01*
X15470182Y-15508650D02*
X15460658Y-15489603D01*
X15460658Y-15489603D02*
X15460658Y-15480079D01*
X15460658Y-15480079D02*
X15470182Y-15461031D01*
X15470182Y-15461031D02*
X15479706Y-15451508D01*
X15479706Y-15451508D02*
X15498753Y-15441984D01*
X15498753Y-15441984D02*
X15536848Y-15441984D01*
X15536848Y-15441984D02*
X15555896Y-15451508D01*
X15555896Y-15451508D02*
X15565420Y-15461031D01*
X15565420Y-15461031D02*
X15574944Y-15480079D01*
X15574944Y-15480079D02*
X15574944Y-15489603D01*
X15574944Y-15489603D02*
X15565420Y-15508650D01*
X15565420Y-15508650D02*
X15555896Y-15518174D01*
X15555896Y-15518174D02*
X15536848Y-15527698D01*
X15536848Y-15527698D02*
X15498753Y-15527698D01*
X15498753Y-15527698D02*
X15479706Y-15537222D01*
X15479706Y-15537222D02*
X15470182Y-15546746D01*
X15470182Y-15546746D02*
X15460658Y-15565793D01*
X15460658Y-15565793D02*
X15460658Y-15603888D01*
X15460658Y-15603888D02*
X15470182Y-15622936D01*
X15470182Y-15622936D02*
X15479706Y-15632460D01*
X15479706Y-15632460D02*
X15498753Y-15641984D01*
X15498753Y-15641984D02*
X15536848Y-15641984D01*
X15536848Y-15641984D02*
X15555896Y-15632460D01*
X15555896Y-15632460D02*
X15565420Y-15622936D01*
X15565420Y-15622936D02*
X15574944Y-15603888D01*
X15574944Y-15603888D02*
X15574944Y-15565793D01*
X15574944Y-15565793D02*
X15565420Y-15546746D01*
X15565420Y-15546746D02*
X15555896Y-15537222D01*
X15555896Y-15537222D02*
X15536848Y-15527698D01*
X15651134Y-15441984D02*
X15651134Y-15480079D01*
X15727325Y-15441984D02*
X15727325Y-15480079D01*
X16022563Y-15718174D02*
X16013039Y-15708650D01*
X16013039Y-15708650D02*
X15993991Y-15680079D01*
X15993991Y-15680079D02*
X15984468Y-15661031D01*
X15984468Y-15661031D02*
X15974944Y-15632460D01*
X15974944Y-15632460D02*
X15965420Y-15584841D01*
X15965420Y-15584841D02*
X15965420Y-15546746D01*
X15965420Y-15546746D02*
X15974944Y-15499127D01*
X15974944Y-15499127D02*
X15984468Y-15470555D01*
X15984468Y-15470555D02*
X15993991Y-15451508D01*
X15993991Y-15451508D02*
X16013039Y-15422936D01*
X16013039Y-15422936D02*
X16022563Y-15413412D01*
X16184468Y-15441984D02*
X16146372Y-15441984D01*
X16146372Y-15441984D02*
X16127325Y-15451508D01*
X16127325Y-15451508D02*
X16117801Y-15461031D01*
X16117801Y-15461031D02*
X16098753Y-15489603D01*
X16098753Y-15489603D02*
X16089229Y-15527698D01*
X16089229Y-15527698D02*
X16089229Y-15603888D01*
X16089229Y-15603888D02*
X16098753Y-15622936D01*
X16098753Y-15622936D02*
X16108277Y-15632460D01*
X16108277Y-15632460D02*
X16127325Y-15641984D01*
X16127325Y-15641984D02*
X16165420Y-15641984D01*
X16165420Y-15641984D02*
X16184468Y-15632460D01*
X16184468Y-15632460D02*
X16193991Y-15622936D01*
X16193991Y-15622936D02*
X16203515Y-15603888D01*
X16203515Y-15603888D02*
X16203515Y-15556269D01*
X16203515Y-15556269D02*
X16193991Y-15537222D01*
X16193991Y-15537222D02*
X16184468Y-15527698D01*
X16184468Y-15527698D02*
X16165420Y-15518174D01*
X16165420Y-15518174D02*
X16127325Y-15518174D01*
X16127325Y-15518174D02*
X16108277Y-15527698D01*
X16108277Y-15527698D02*
X16098753Y-15537222D01*
X16098753Y-15537222D02*
X16089229Y-15556269D01*
X16441610Y-15641984D02*
X16441610Y-15441984D01*
X16527325Y-15641984D02*
X16527325Y-15537222D01*
X16527325Y-15537222D02*
X16517801Y-15518174D01*
X16517801Y-15518174D02*
X16498753Y-15508650D01*
X16498753Y-15508650D02*
X16470182Y-15508650D01*
X16470182Y-15508650D02*
X16451134Y-15518174D01*
X16451134Y-15518174D02*
X16441610Y-15527698D01*
X16651134Y-15641984D02*
X16632087Y-15632460D01*
X16632087Y-15632460D02*
X16622563Y-15622936D01*
X16622563Y-15622936D02*
X16613039Y-15603888D01*
X16613039Y-15603888D02*
X16613039Y-15546746D01*
X16613039Y-15546746D02*
X16622563Y-15527698D01*
X16622563Y-15527698D02*
X16632087Y-15518174D01*
X16632087Y-15518174D02*
X16651134Y-15508650D01*
X16651134Y-15508650D02*
X16679706Y-15508650D01*
X16679706Y-15508650D02*
X16698753Y-15518174D01*
X16698753Y-15518174D02*
X16708277Y-15527698D01*
X16708277Y-15527698D02*
X16717801Y-15546746D01*
X16717801Y-15546746D02*
X16717801Y-15603888D01*
X16717801Y-15603888D02*
X16708277Y-15622936D01*
X16708277Y-15622936D02*
X16698753Y-15632460D01*
X16698753Y-15632460D02*
X16679706Y-15641984D01*
X16679706Y-15641984D02*
X16651134Y-15641984D01*
X16832087Y-15641984D02*
X16813039Y-15632460D01*
X16813039Y-15632460D02*
X16803515Y-15613412D01*
X16803515Y-15613412D02*
X16803515Y-15441984D01*
X16984468Y-15632460D02*
X16965420Y-15641984D01*
X16965420Y-15641984D02*
X16927325Y-15641984D01*
X16927325Y-15641984D02*
X16908277Y-15632460D01*
X16908277Y-15632460D02*
X16898753Y-15613412D01*
X16898753Y-15613412D02*
X16898753Y-15537222D01*
X16898753Y-15537222D02*
X16908277Y-15518174D01*
X16908277Y-15518174D02*
X16927325Y-15508650D01*
X16927325Y-15508650D02*
X16965420Y-15508650D01*
X16965420Y-15508650D02*
X16984468Y-15518174D01*
X16984468Y-15518174D02*
X16993992Y-15537222D01*
X16993992Y-15537222D02*
X16993992Y-15556269D01*
X16993992Y-15556269D02*
X16898753Y-15575317D01*
X17070182Y-15632460D02*
X17089230Y-15641984D01*
X17089230Y-15641984D02*
X17127325Y-15641984D01*
X17127325Y-15641984D02*
X17146373Y-15632460D01*
X17146373Y-15632460D02*
X17155896Y-15613412D01*
X17155896Y-15613412D02*
X17155896Y-15603888D01*
X17155896Y-15603888D02*
X17146373Y-15584841D01*
X17146373Y-15584841D02*
X17127325Y-15575317D01*
X17127325Y-15575317D02*
X17098753Y-15575317D01*
X17098753Y-15575317D02*
X17079706Y-15565793D01*
X17079706Y-15565793D02*
X17070182Y-15546746D01*
X17070182Y-15546746D02*
X17070182Y-15537222D01*
X17070182Y-15537222D02*
X17079706Y-15518174D01*
X17079706Y-15518174D02*
X17098753Y-15508650D01*
X17098753Y-15508650D02*
X17127325Y-15508650D01*
X17127325Y-15508650D02*
X17146373Y-15518174D01*
X17222563Y-15718174D02*
X17232087Y-15708650D01*
X17232087Y-15708650D02*
X17251134Y-15680079D01*
X17251134Y-15680079D02*
X17260658Y-15661031D01*
X17260658Y-15661031D02*
X17270182Y-15632460D01*
X17270182Y-15632460D02*
X17279706Y-15584841D01*
X17279706Y-15584841D02*
X17279706Y-15546746D01*
X17279706Y-15546746D02*
X17270182Y-15499127D01*
X17270182Y-15499127D02*
X17260658Y-15470555D01*
X17260658Y-15470555D02*
X17251134Y-15451508D01*
X17251134Y-15451508D02*
X17232087Y-15422936D01*
X17232087Y-15422936D02*
X17222563Y-15413412D01*
D12*
X12447500Y-15814500D02*
G75*
G02*
X12357500Y-15814500I-45000J0D01*
G01*
X12357500Y-15814500D02*
G75*
G02*
X12447500Y-15814500I45000J0D01*
G01*
D11*
X12746372Y-15705984D02*
X12765420Y-15705984D01*
X12765420Y-15705984D02*
X12784467Y-15715508D01*
X12784467Y-15715508D02*
X12793991Y-15725031D01*
X12793991Y-15725031D02*
X12803515Y-15744079D01*
X12803515Y-15744079D02*
X12813039Y-15782174D01*
X12813039Y-15782174D02*
X12813039Y-15829793D01*
X12813039Y-15829793D02*
X12803515Y-15867888D01*
X12803515Y-15867888D02*
X12793991Y-15886936D01*
X12793991Y-15886936D02*
X12784467Y-15896460D01*
X12784467Y-15896460D02*
X12765420Y-15905984D01*
X12765420Y-15905984D02*
X12746372Y-15905984D01*
X12746372Y-15905984D02*
X12727324Y-15896460D01*
X12727324Y-15896460D02*
X12717801Y-15886936D01*
X12717801Y-15886936D02*
X12708277Y-15867888D01*
X12708277Y-15867888D02*
X12698753Y-15829793D01*
X12698753Y-15829793D02*
X12698753Y-15782174D01*
X12698753Y-15782174D02*
X12708277Y-15744079D01*
X12708277Y-15744079D02*
X12717801Y-15725031D01*
X12717801Y-15725031D02*
X12727324Y-15715508D01*
X12727324Y-15715508D02*
X12746372Y-15705984D01*
X12898753Y-15886936D02*
X12908277Y-15896460D01*
X12908277Y-15896460D02*
X12898753Y-15905984D01*
X12898753Y-15905984D02*
X12889229Y-15896460D01*
X12889229Y-15896460D02*
X12898753Y-15886936D01*
X12898753Y-15886936D02*
X12898753Y-15905984D01*
X13003515Y-15905984D02*
X13041610Y-15905984D01*
X13041610Y-15905984D02*
X13060658Y-15896460D01*
X13060658Y-15896460D02*
X13070182Y-15886936D01*
X13070182Y-15886936D02*
X13089229Y-15858365D01*
X13089229Y-15858365D02*
X13098753Y-15820269D01*
X13098753Y-15820269D02*
X13098753Y-15744079D01*
X13098753Y-15744079D02*
X13089229Y-15725031D01*
X13089229Y-15725031D02*
X13079705Y-15715508D01*
X13079705Y-15715508D02*
X13060658Y-15705984D01*
X13060658Y-15705984D02*
X13022562Y-15705984D01*
X13022562Y-15705984D02*
X13003515Y-15715508D01*
X13003515Y-15715508D02*
X12993991Y-15725031D01*
X12993991Y-15725031D02*
X12984467Y-15744079D01*
X12984467Y-15744079D02*
X12984467Y-15791698D01*
X12984467Y-15791698D02*
X12993991Y-15810746D01*
X12993991Y-15810746D02*
X13003515Y-15820269D01*
X13003515Y-15820269D02*
X13022562Y-15829793D01*
X13022562Y-15829793D02*
X13060658Y-15829793D01*
X13060658Y-15829793D02*
X13079705Y-15820269D01*
X13079705Y-15820269D02*
X13089229Y-15810746D01*
X13089229Y-15810746D02*
X13098753Y-15791698D01*
X13222562Y-15705984D02*
X13241610Y-15705984D01*
X13241610Y-15705984D02*
X13260658Y-15715508D01*
X13260658Y-15715508D02*
X13270182Y-15725031D01*
X13270182Y-15725031D02*
X13279705Y-15744079D01*
X13279705Y-15744079D02*
X13289229Y-15782174D01*
X13289229Y-15782174D02*
X13289229Y-15829793D01*
X13289229Y-15829793D02*
X13279705Y-15867888D01*
X13279705Y-15867888D02*
X13270182Y-15886936D01*
X13270182Y-15886936D02*
X13260658Y-15896460D01*
X13260658Y-15896460D02*
X13241610Y-15905984D01*
X13241610Y-15905984D02*
X13222562Y-15905984D01*
X13222562Y-15905984D02*
X13203515Y-15896460D01*
X13203515Y-15896460D02*
X13193991Y-15886936D01*
X13193991Y-15886936D02*
X13184467Y-15867888D01*
X13184467Y-15867888D02*
X13174943Y-15829793D01*
X13174943Y-15829793D02*
X13174943Y-15782174D01*
X13174943Y-15782174D02*
X13184467Y-15744079D01*
X13184467Y-15744079D02*
X13193991Y-15725031D01*
X13193991Y-15725031D02*
X13203515Y-15715508D01*
X13203515Y-15715508D02*
X13222562Y-15705984D01*
X13413039Y-15705984D02*
X13432086Y-15705984D01*
X13432086Y-15705984D02*
X13451134Y-15715508D01*
X13451134Y-15715508D02*
X13460658Y-15725031D01*
X13460658Y-15725031D02*
X13470182Y-15744079D01*
X13470182Y-15744079D02*
X13479705Y-15782174D01*
X13479705Y-15782174D02*
X13479705Y-15829793D01*
X13479705Y-15829793D02*
X13470182Y-15867888D01*
X13470182Y-15867888D02*
X13460658Y-15886936D01*
X13460658Y-15886936D02*
X13451134Y-15896460D01*
X13451134Y-15896460D02*
X13432086Y-15905984D01*
X13432086Y-15905984D02*
X13413039Y-15905984D01*
X13413039Y-15905984D02*
X13393991Y-15896460D01*
X13393991Y-15896460D02*
X13384467Y-15886936D01*
X13384467Y-15886936D02*
X13374943Y-15867888D01*
X13374943Y-15867888D02*
X13365420Y-15829793D01*
X13365420Y-15829793D02*
X13365420Y-15782174D01*
X13365420Y-15782174D02*
X13374943Y-15744079D01*
X13374943Y-15744079D02*
X13384467Y-15725031D01*
X13384467Y-15725031D02*
X13393991Y-15715508D01*
X13393991Y-15715508D02*
X13413039Y-15705984D01*
X13565420Y-15905984D02*
X13565420Y-15772650D01*
X13565420Y-15791698D02*
X13574943Y-15782174D01*
X13574943Y-15782174D02*
X13593991Y-15772650D01*
X13593991Y-15772650D02*
X13622563Y-15772650D01*
X13622563Y-15772650D02*
X13641610Y-15782174D01*
X13641610Y-15782174D02*
X13651134Y-15801222D01*
X13651134Y-15801222D02*
X13651134Y-15905984D01*
X13651134Y-15801222D02*
X13660658Y-15782174D01*
X13660658Y-15782174D02*
X13679705Y-15772650D01*
X13679705Y-15772650D02*
X13708277Y-15772650D01*
X13708277Y-15772650D02*
X13727324Y-15782174D01*
X13727324Y-15782174D02*
X13736848Y-15801222D01*
X13736848Y-15801222D02*
X13736848Y-15905984D01*
X13832086Y-15905984D02*
X13832086Y-15772650D01*
X13832086Y-15791698D02*
X13841610Y-15782174D01*
X13841610Y-15782174D02*
X13860658Y-15772650D01*
X13860658Y-15772650D02*
X13889229Y-15772650D01*
X13889229Y-15772650D02*
X13908277Y-15782174D01*
X13908277Y-15782174D02*
X13917801Y-15801222D01*
X13917801Y-15801222D02*
X13917801Y-15905984D01*
X13917801Y-15801222D02*
X13927324Y-15782174D01*
X13927324Y-15782174D02*
X13946372Y-15772650D01*
X13946372Y-15772650D02*
X13974943Y-15772650D01*
X13974943Y-15772650D02*
X13993991Y-15782174D01*
X13993991Y-15782174D02*
X14003515Y-15801222D01*
X14003515Y-15801222D02*
X14003515Y-15905984D01*
X14393991Y-15696460D02*
X14222563Y-15953603D01*
X14651134Y-15705984D02*
X14670182Y-15705984D01*
X14670182Y-15705984D02*
X14689229Y-15715508D01*
X14689229Y-15715508D02*
X14698753Y-15725031D01*
X14698753Y-15725031D02*
X14708277Y-15744079D01*
X14708277Y-15744079D02*
X14717801Y-15782174D01*
X14717801Y-15782174D02*
X14717801Y-15829793D01*
X14717801Y-15829793D02*
X14708277Y-15867888D01*
X14708277Y-15867888D02*
X14698753Y-15886936D01*
X14698753Y-15886936D02*
X14689229Y-15896460D01*
X14689229Y-15896460D02*
X14670182Y-15905984D01*
X14670182Y-15905984D02*
X14651134Y-15905984D01*
X14651134Y-15905984D02*
X14632086Y-15896460D01*
X14632086Y-15896460D02*
X14622563Y-15886936D01*
X14622563Y-15886936D02*
X14613039Y-15867888D01*
X14613039Y-15867888D02*
X14603515Y-15829793D01*
X14603515Y-15829793D02*
X14603515Y-15782174D01*
X14603515Y-15782174D02*
X14613039Y-15744079D01*
X14613039Y-15744079D02*
X14622563Y-15725031D01*
X14622563Y-15725031D02*
X14632086Y-15715508D01*
X14632086Y-15715508D02*
X14651134Y-15705984D01*
X14803515Y-15886936D02*
X14813039Y-15896460D01*
X14813039Y-15896460D02*
X14803515Y-15905984D01*
X14803515Y-15905984D02*
X14793991Y-15896460D01*
X14793991Y-15896460D02*
X14803515Y-15886936D01*
X14803515Y-15886936D02*
X14803515Y-15905984D01*
X14936848Y-15705984D02*
X14955896Y-15705984D01*
X14955896Y-15705984D02*
X14974944Y-15715508D01*
X14974944Y-15715508D02*
X14984467Y-15725031D01*
X14984467Y-15725031D02*
X14993991Y-15744079D01*
X14993991Y-15744079D02*
X15003515Y-15782174D01*
X15003515Y-15782174D02*
X15003515Y-15829793D01*
X15003515Y-15829793D02*
X14993991Y-15867888D01*
X14993991Y-15867888D02*
X14984467Y-15886936D01*
X14984467Y-15886936D02*
X14974944Y-15896460D01*
X14974944Y-15896460D02*
X14955896Y-15905984D01*
X14955896Y-15905984D02*
X14936848Y-15905984D01*
X14936848Y-15905984D02*
X14917801Y-15896460D01*
X14917801Y-15896460D02*
X14908277Y-15886936D01*
X14908277Y-15886936D02*
X14898753Y-15867888D01*
X14898753Y-15867888D02*
X14889229Y-15829793D01*
X14889229Y-15829793D02*
X14889229Y-15782174D01*
X14889229Y-15782174D02*
X14898753Y-15744079D01*
X14898753Y-15744079D02*
X14908277Y-15725031D01*
X14908277Y-15725031D02*
X14917801Y-15715508D01*
X14917801Y-15715508D02*
X14936848Y-15705984D01*
X15070182Y-15705984D02*
X15193991Y-15705984D01*
X15193991Y-15705984D02*
X15127325Y-15782174D01*
X15127325Y-15782174D02*
X15155896Y-15782174D01*
X15155896Y-15782174D02*
X15174944Y-15791698D01*
X15174944Y-15791698D02*
X15184467Y-15801222D01*
X15184467Y-15801222D02*
X15193991Y-15820269D01*
X15193991Y-15820269D02*
X15193991Y-15867888D01*
X15193991Y-15867888D02*
X15184467Y-15886936D01*
X15184467Y-15886936D02*
X15174944Y-15896460D01*
X15174944Y-15896460D02*
X15155896Y-15905984D01*
X15155896Y-15905984D02*
X15098753Y-15905984D01*
X15098753Y-15905984D02*
X15079706Y-15896460D01*
X15079706Y-15896460D02*
X15070182Y-15886936D01*
X15374944Y-15705984D02*
X15279706Y-15705984D01*
X15279706Y-15705984D02*
X15270182Y-15801222D01*
X15270182Y-15801222D02*
X15279706Y-15791698D01*
X15279706Y-15791698D02*
X15298753Y-15782174D01*
X15298753Y-15782174D02*
X15346372Y-15782174D01*
X15346372Y-15782174D02*
X15365420Y-15791698D01*
X15365420Y-15791698D02*
X15374944Y-15801222D01*
X15374944Y-15801222D02*
X15384467Y-15820269D01*
X15384467Y-15820269D02*
X15384467Y-15867888D01*
X15384467Y-15867888D02*
X15374944Y-15886936D01*
X15374944Y-15886936D02*
X15365420Y-15896460D01*
X15365420Y-15896460D02*
X15346372Y-15905984D01*
X15346372Y-15905984D02*
X15298753Y-15905984D01*
X15298753Y-15905984D02*
X15279706Y-15896460D01*
X15279706Y-15896460D02*
X15270182Y-15886936D01*
X15555896Y-15772650D02*
X15555896Y-15905984D01*
X15508277Y-15696460D02*
X15460658Y-15839317D01*
X15460658Y-15839317D02*
X15584467Y-15839317D01*
X15651134Y-15705984D02*
X15651134Y-15744079D01*
X15727325Y-15705984D02*
X15727325Y-15744079D01*
X16022563Y-15982174D02*
X16013039Y-15972650D01*
X16013039Y-15972650D02*
X15993991Y-15944079D01*
X15993991Y-15944079D02*
X15984468Y-15925031D01*
X15984468Y-15925031D02*
X15974944Y-15896460D01*
X15974944Y-15896460D02*
X15965420Y-15848841D01*
X15965420Y-15848841D02*
X15965420Y-15810746D01*
X15965420Y-15810746D02*
X15974944Y-15763127D01*
X15974944Y-15763127D02*
X15984468Y-15734555D01*
X15984468Y-15734555D02*
X15993991Y-15715508D01*
X15993991Y-15715508D02*
X16013039Y-15686936D01*
X16013039Y-15686936D02*
X16022563Y-15677412D01*
X16203515Y-15905984D02*
X16089229Y-15905984D01*
X16146372Y-15905984D02*
X16146372Y-15705984D01*
X16146372Y-15705984D02*
X16127325Y-15734555D01*
X16127325Y-15734555D02*
X16108277Y-15753603D01*
X16108277Y-15753603D02*
X16089229Y-15763127D01*
X16317801Y-15791698D02*
X16298753Y-15782174D01*
X16298753Y-15782174D02*
X16289229Y-15772650D01*
X16289229Y-15772650D02*
X16279706Y-15753603D01*
X16279706Y-15753603D02*
X16279706Y-15744079D01*
X16279706Y-15744079D02*
X16289229Y-15725031D01*
X16289229Y-15725031D02*
X16298753Y-15715508D01*
X16298753Y-15715508D02*
X16317801Y-15705984D01*
X16317801Y-15705984D02*
X16355896Y-15705984D01*
X16355896Y-15705984D02*
X16374944Y-15715508D01*
X16374944Y-15715508D02*
X16384468Y-15725031D01*
X16384468Y-15725031D02*
X16393991Y-15744079D01*
X16393991Y-15744079D02*
X16393991Y-15753603D01*
X16393991Y-15753603D02*
X16384468Y-15772650D01*
X16384468Y-15772650D02*
X16374944Y-15782174D01*
X16374944Y-15782174D02*
X16355896Y-15791698D01*
X16355896Y-15791698D02*
X16317801Y-15791698D01*
X16317801Y-15791698D02*
X16298753Y-15801222D01*
X16298753Y-15801222D02*
X16289229Y-15810746D01*
X16289229Y-15810746D02*
X16279706Y-15829793D01*
X16279706Y-15829793D02*
X16279706Y-15867888D01*
X16279706Y-15867888D02*
X16289229Y-15886936D01*
X16289229Y-15886936D02*
X16298753Y-15896460D01*
X16298753Y-15896460D02*
X16317801Y-15905984D01*
X16317801Y-15905984D02*
X16355896Y-15905984D01*
X16355896Y-15905984D02*
X16374944Y-15896460D01*
X16374944Y-15896460D02*
X16384468Y-15886936D01*
X16384468Y-15886936D02*
X16393991Y-15867888D01*
X16393991Y-15867888D02*
X16393991Y-15829793D01*
X16393991Y-15829793D02*
X16384468Y-15810746D01*
X16384468Y-15810746D02*
X16374944Y-15801222D01*
X16374944Y-15801222D02*
X16355896Y-15791698D01*
X16632087Y-15905984D02*
X16632087Y-15705984D01*
X16717801Y-15905984D02*
X16717801Y-15801222D01*
X16717801Y-15801222D02*
X16708277Y-15782174D01*
X16708277Y-15782174D02*
X16689230Y-15772650D01*
X16689230Y-15772650D02*
X16660658Y-15772650D01*
X16660658Y-15772650D02*
X16641610Y-15782174D01*
X16641610Y-15782174D02*
X16632087Y-15791698D01*
X16841611Y-15905984D02*
X16822563Y-15896460D01*
X16822563Y-15896460D02*
X16813039Y-15886936D01*
X16813039Y-15886936D02*
X16803515Y-15867888D01*
X16803515Y-15867888D02*
X16803515Y-15810746D01*
X16803515Y-15810746D02*
X16813039Y-15791698D01*
X16813039Y-15791698D02*
X16822563Y-15782174D01*
X16822563Y-15782174D02*
X16841611Y-15772650D01*
X16841611Y-15772650D02*
X16870182Y-15772650D01*
X16870182Y-15772650D02*
X16889230Y-15782174D01*
X16889230Y-15782174D02*
X16898753Y-15791698D01*
X16898753Y-15791698D02*
X16908277Y-15810746D01*
X16908277Y-15810746D02*
X16908277Y-15867888D01*
X16908277Y-15867888D02*
X16898753Y-15886936D01*
X16898753Y-15886936D02*
X16889230Y-15896460D01*
X16889230Y-15896460D02*
X16870182Y-15905984D01*
X16870182Y-15905984D02*
X16841611Y-15905984D01*
X17022563Y-15905984D02*
X17003515Y-15896460D01*
X17003515Y-15896460D02*
X16993992Y-15877412D01*
X16993992Y-15877412D02*
X16993992Y-15705984D01*
X17174944Y-15896460D02*
X17155896Y-15905984D01*
X17155896Y-15905984D02*
X17117801Y-15905984D01*
X17117801Y-15905984D02*
X17098753Y-15896460D01*
X17098753Y-15896460D02*
X17089230Y-15877412D01*
X17089230Y-15877412D02*
X17089230Y-15801222D01*
X17089230Y-15801222D02*
X17098753Y-15782174D01*
X17098753Y-15782174D02*
X17117801Y-15772650D01*
X17117801Y-15772650D02*
X17155896Y-15772650D01*
X17155896Y-15772650D02*
X17174944Y-15782174D01*
X17174944Y-15782174D02*
X17184468Y-15801222D01*
X17184468Y-15801222D02*
X17184468Y-15820269D01*
X17184468Y-15820269D02*
X17089230Y-15839317D01*
X17260658Y-15896460D02*
X17279706Y-15905984D01*
X17279706Y-15905984D02*
X17317801Y-15905984D01*
X17317801Y-15905984D02*
X17336849Y-15896460D01*
X17336849Y-15896460D02*
X17346373Y-15877412D01*
X17346373Y-15877412D02*
X17346373Y-15867888D01*
X17346373Y-15867888D02*
X17336849Y-15848841D01*
X17336849Y-15848841D02*
X17317801Y-15839317D01*
X17317801Y-15839317D02*
X17289230Y-15839317D01*
X17289230Y-15839317D02*
X17270182Y-15829793D01*
X17270182Y-15829793D02*
X17260658Y-15810746D01*
X17260658Y-15810746D02*
X17260658Y-15801222D01*
X17260658Y-15801222D02*
X17270182Y-15782174D01*
X17270182Y-15782174D02*
X17289230Y-15772650D01*
X17289230Y-15772650D02*
X17317801Y-15772650D01*
X17317801Y-15772650D02*
X17336849Y-15782174D01*
X17413039Y-15982174D02*
X17422563Y-15972650D01*
X17422563Y-15972650D02*
X17441611Y-15944079D01*
X17441611Y-15944079D02*
X17451134Y-15925031D01*
X17451134Y-15925031D02*
X17460658Y-15896460D01*
X17460658Y-15896460D02*
X17470182Y-15848841D01*
X17470182Y-15848841D02*
X17470182Y-15810746D01*
X17470182Y-15810746D02*
X17460658Y-15763127D01*
X17460658Y-15763127D02*
X17451134Y-15734555D01*
X17451134Y-15734555D02*
X17441611Y-15715508D01*
X17441611Y-15715508D02*
X17422563Y-15686936D01*
X17422563Y-15686936D02*
X17413039Y-15677412D01*
D12*
X12399250Y-16030250D02*
X12399250Y-16126750D01*
X12351000Y-16078500D02*
X12447500Y-16078500D01*
D11*
X12746372Y-15969984D02*
X12765420Y-15969984D01*
X12765420Y-15969984D02*
X12784467Y-15979508D01*
X12784467Y-15979508D02*
X12793991Y-15989031D01*
X12793991Y-15989031D02*
X12803515Y-16008079D01*
X12803515Y-16008079D02*
X12813039Y-16046174D01*
X12813039Y-16046174D02*
X12813039Y-16093793D01*
X12813039Y-16093793D02*
X12803515Y-16131888D01*
X12803515Y-16131888D02*
X12793991Y-16150936D01*
X12793991Y-16150936D02*
X12784467Y-16160460D01*
X12784467Y-16160460D02*
X12765420Y-16169984D01*
X12765420Y-16169984D02*
X12746372Y-16169984D01*
X12746372Y-16169984D02*
X12727324Y-16160460D01*
X12727324Y-16160460D02*
X12717801Y-16150936D01*
X12717801Y-16150936D02*
X12708277Y-16131888D01*
X12708277Y-16131888D02*
X12698753Y-16093793D01*
X12698753Y-16093793D02*
X12698753Y-16046174D01*
X12698753Y-16046174D02*
X12708277Y-16008079D01*
X12708277Y-16008079D02*
X12717801Y-15989031D01*
X12717801Y-15989031D02*
X12727324Y-15979508D01*
X12727324Y-15979508D02*
X12746372Y-15969984D01*
X12898753Y-16150936D02*
X12908277Y-16160460D01*
X12908277Y-16160460D02*
X12898753Y-16169984D01*
X12898753Y-16169984D02*
X12889229Y-16160460D01*
X12889229Y-16160460D02*
X12898753Y-16150936D01*
X12898753Y-16150936D02*
X12898753Y-16169984D01*
X13003515Y-16169984D02*
X13041610Y-16169984D01*
X13041610Y-16169984D02*
X13060658Y-16160460D01*
X13060658Y-16160460D02*
X13070182Y-16150936D01*
X13070182Y-16150936D02*
X13089229Y-16122365D01*
X13089229Y-16122365D02*
X13098753Y-16084269D01*
X13098753Y-16084269D02*
X13098753Y-16008079D01*
X13098753Y-16008079D02*
X13089229Y-15989031D01*
X13089229Y-15989031D02*
X13079705Y-15979508D01*
X13079705Y-15979508D02*
X13060658Y-15969984D01*
X13060658Y-15969984D02*
X13022562Y-15969984D01*
X13022562Y-15969984D02*
X13003515Y-15979508D01*
X13003515Y-15979508D02*
X12993991Y-15989031D01*
X12993991Y-15989031D02*
X12984467Y-16008079D01*
X12984467Y-16008079D02*
X12984467Y-16055698D01*
X12984467Y-16055698D02*
X12993991Y-16074746D01*
X12993991Y-16074746D02*
X13003515Y-16084269D01*
X13003515Y-16084269D02*
X13022562Y-16093793D01*
X13022562Y-16093793D02*
X13060658Y-16093793D01*
X13060658Y-16093793D02*
X13079705Y-16084269D01*
X13079705Y-16084269D02*
X13089229Y-16074746D01*
X13089229Y-16074746D02*
X13098753Y-16055698D01*
X13270182Y-15969984D02*
X13232086Y-15969984D01*
X13232086Y-15969984D02*
X13213039Y-15979508D01*
X13213039Y-15979508D02*
X13203515Y-15989031D01*
X13203515Y-15989031D02*
X13184467Y-16017603D01*
X13184467Y-16017603D02*
X13174943Y-16055698D01*
X13174943Y-16055698D02*
X13174943Y-16131888D01*
X13174943Y-16131888D02*
X13184467Y-16150936D01*
X13184467Y-16150936D02*
X13193991Y-16160460D01*
X13193991Y-16160460D02*
X13213039Y-16169984D01*
X13213039Y-16169984D02*
X13251134Y-16169984D01*
X13251134Y-16169984D02*
X13270182Y-16160460D01*
X13270182Y-16160460D02*
X13279705Y-16150936D01*
X13279705Y-16150936D02*
X13289229Y-16131888D01*
X13289229Y-16131888D02*
X13289229Y-16084269D01*
X13289229Y-16084269D02*
X13279705Y-16065222D01*
X13279705Y-16065222D02*
X13270182Y-16055698D01*
X13270182Y-16055698D02*
X13251134Y-16046174D01*
X13251134Y-16046174D02*
X13213039Y-16046174D01*
X13213039Y-16046174D02*
X13193991Y-16055698D01*
X13193991Y-16055698D02*
X13184467Y-16065222D01*
X13184467Y-16065222D02*
X13174943Y-16084269D01*
X13470182Y-15969984D02*
X13374943Y-15969984D01*
X13374943Y-15969984D02*
X13365420Y-16065222D01*
X13365420Y-16065222D02*
X13374943Y-16055698D01*
X13374943Y-16055698D02*
X13393991Y-16046174D01*
X13393991Y-16046174D02*
X13441610Y-16046174D01*
X13441610Y-16046174D02*
X13460658Y-16055698D01*
X13460658Y-16055698D02*
X13470182Y-16065222D01*
X13470182Y-16065222D02*
X13479705Y-16084269D01*
X13479705Y-16084269D02*
X13479705Y-16131888D01*
X13479705Y-16131888D02*
X13470182Y-16150936D01*
X13470182Y-16150936D02*
X13460658Y-16160460D01*
X13460658Y-16160460D02*
X13441610Y-16169984D01*
X13441610Y-16169984D02*
X13393991Y-16169984D01*
X13393991Y-16169984D02*
X13374943Y-16160460D01*
X13374943Y-16160460D02*
X13365420Y-16150936D01*
X13565420Y-16169984D02*
X13565420Y-16036650D01*
X13565420Y-16055698D02*
X13574943Y-16046174D01*
X13574943Y-16046174D02*
X13593991Y-16036650D01*
X13593991Y-16036650D02*
X13622563Y-16036650D01*
X13622563Y-16036650D02*
X13641610Y-16046174D01*
X13641610Y-16046174D02*
X13651134Y-16065222D01*
X13651134Y-16065222D02*
X13651134Y-16169984D01*
X13651134Y-16065222D02*
X13660658Y-16046174D01*
X13660658Y-16046174D02*
X13679705Y-16036650D01*
X13679705Y-16036650D02*
X13708277Y-16036650D01*
X13708277Y-16036650D02*
X13727324Y-16046174D01*
X13727324Y-16046174D02*
X13736848Y-16065222D01*
X13736848Y-16065222D02*
X13736848Y-16169984D01*
X13832086Y-16169984D02*
X13832086Y-16036650D01*
X13832086Y-16055698D02*
X13841610Y-16046174D01*
X13841610Y-16046174D02*
X13860658Y-16036650D01*
X13860658Y-16036650D02*
X13889229Y-16036650D01*
X13889229Y-16036650D02*
X13908277Y-16046174D01*
X13908277Y-16046174D02*
X13917801Y-16065222D01*
X13917801Y-16065222D02*
X13917801Y-16169984D01*
X13917801Y-16065222D02*
X13927324Y-16046174D01*
X13927324Y-16046174D02*
X13946372Y-16036650D01*
X13946372Y-16036650D02*
X13974943Y-16036650D01*
X13974943Y-16036650D02*
X13993991Y-16046174D01*
X13993991Y-16046174D02*
X14003515Y-16065222D01*
X14003515Y-16065222D02*
X14003515Y-16169984D01*
X14393991Y-15960460D02*
X14222563Y-16217603D01*
X14651134Y-15969984D02*
X14670182Y-15969984D01*
X14670182Y-15969984D02*
X14689229Y-15979508D01*
X14689229Y-15979508D02*
X14698753Y-15989031D01*
X14698753Y-15989031D02*
X14708277Y-16008079D01*
X14708277Y-16008079D02*
X14717801Y-16046174D01*
X14717801Y-16046174D02*
X14717801Y-16093793D01*
X14717801Y-16093793D02*
X14708277Y-16131888D01*
X14708277Y-16131888D02*
X14698753Y-16150936D01*
X14698753Y-16150936D02*
X14689229Y-16160460D01*
X14689229Y-16160460D02*
X14670182Y-16169984D01*
X14670182Y-16169984D02*
X14651134Y-16169984D01*
X14651134Y-16169984D02*
X14632086Y-16160460D01*
X14632086Y-16160460D02*
X14622563Y-16150936D01*
X14622563Y-16150936D02*
X14613039Y-16131888D01*
X14613039Y-16131888D02*
X14603515Y-16093793D01*
X14603515Y-16093793D02*
X14603515Y-16046174D01*
X14603515Y-16046174D02*
X14613039Y-16008079D01*
X14613039Y-16008079D02*
X14622563Y-15989031D01*
X14622563Y-15989031D02*
X14632086Y-15979508D01*
X14632086Y-15979508D02*
X14651134Y-15969984D01*
X14803515Y-16150936D02*
X14813039Y-16160460D01*
X14813039Y-16160460D02*
X14803515Y-16169984D01*
X14803515Y-16169984D02*
X14793991Y-16160460D01*
X14793991Y-16160460D02*
X14803515Y-16150936D01*
X14803515Y-16150936D02*
X14803515Y-16169984D01*
X14936848Y-15969984D02*
X14955896Y-15969984D01*
X14955896Y-15969984D02*
X14974944Y-15979508D01*
X14974944Y-15979508D02*
X14984467Y-15989031D01*
X14984467Y-15989031D02*
X14993991Y-16008079D01*
X14993991Y-16008079D02*
X15003515Y-16046174D01*
X15003515Y-16046174D02*
X15003515Y-16093793D01*
X15003515Y-16093793D02*
X14993991Y-16131888D01*
X14993991Y-16131888D02*
X14984467Y-16150936D01*
X14984467Y-16150936D02*
X14974944Y-16160460D01*
X14974944Y-16160460D02*
X14955896Y-16169984D01*
X14955896Y-16169984D02*
X14936848Y-16169984D01*
X14936848Y-16169984D02*
X14917801Y-16160460D01*
X14917801Y-16160460D02*
X14908277Y-16150936D01*
X14908277Y-16150936D02*
X14898753Y-16131888D01*
X14898753Y-16131888D02*
X14889229Y-16093793D01*
X14889229Y-16093793D02*
X14889229Y-16046174D01*
X14889229Y-16046174D02*
X14898753Y-16008079D01*
X14898753Y-16008079D02*
X14908277Y-15989031D01*
X14908277Y-15989031D02*
X14917801Y-15979508D01*
X14917801Y-15979508D02*
X14936848Y-15969984D01*
X15070182Y-15969984D02*
X15193991Y-15969984D01*
X15193991Y-15969984D02*
X15127325Y-16046174D01*
X15127325Y-16046174D02*
X15155896Y-16046174D01*
X15155896Y-16046174D02*
X15174944Y-16055698D01*
X15174944Y-16055698D02*
X15184467Y-16065222D01*
X15184467Y-16065222D02*
X15193991Y-16084269D01*
X15193991Y-16084269D02*
X15193991Y-16131888D01*
X15193991Y-16131888D02*
X15184467Y-16150936D01*
X15184467Y-16150936D02*
X15174944Y-16160460D01*
X15174944Y-16160460D02*
X15155896Y-16169984D01*
X15155896Y-16169984D02*
X15098753Y-16169984D01*
X15098753Y-16169984D02*
X15079706Y-16160460D01*
X15079706Y-16160460D02*
X15070182Y-16150936D01*
X15308277Y-16055698D02*
X15289229Y-16046174D01*
X15289229Y-16046174D02*
X15279706Y-16036650D01*
X15279706Y-16036650D02*
X15270182Y-16017603D01*
X15270182Y-16017603D02*
X15270182Y-16008079D01*
X15270182Y-16008079D02*
X15279706Y-15989031D01*
X15279706Y-15989031D02*
X15289229Y-15979508D01*
X15289229Y-15979508D02*
X15308277Y-15969984D01*
X15308277Y-15969984D02*
X15346372Y-15969984D01*
X15346372Y-15969984D02*
X15365420Y-15979508D01*
X15365420Y-15979508D02*
X15374944Y-15989031D01*
X15374944Y-15989031D02*
X15384467Y-16008079D01*
X15384467Y-16008079D02*
X15384467Y-16017603D01*
X15384467Y-16017603D02*
X15374944Y-16036650D01*
X15374944Y-16036650D02*
X15365420Y-16046174D01*
X15365420Y-16046174D02*
X15346372Y-16055698D01*
X15346372Y-16055698D02*
X15308277Y-16055698D01*
X15308277Y-16055698D02*
X15289229Y-16065222D01*
X15289229Y-16065222D02*
X15279706Y-16074746D01*
X15279706Y-16074746D02*
X15270182Y-16093793D01*
X15270182Y-16093793D02*
X15270182Y-16131888D01*
X15270182Y-16131888D02*
X15279706Y-16150936D01*
X15279706Y-16150936D02*
X15289229Y-16160460D01*
X15289229Y-16160460D02*
X15308277Y-16169984D01*
X15308277Y-16169984D02*
X15346372Y-16169984D01*
X15346372Y-16169984D02*
X15365420Y-16160460D01*
X15365420Y-16160460D02*
X15374944Y-16150936D01*
X15374944Y-16150936D02*
X15384467Y-16131888D01*
X15384467Y-16131888D02*
X15384467Y-16093793D01*
X15384467Y-16093793D02*
X15374944Y-16074746D01*
X15374944Y-16074746D02*
X15365420Y-16065222D01*
X15365420Y-16065222D02*
X15346372Y-16055698D01*
X15508277Y-15969984D02*
X15527325Y-15969984D01*
X15527325Y-15969984D02*
X15546372Y-15979508D01*
X15546372Y-15979508D02*
X15555896Y-15989031D01*
X15555896Y-15989031D02*
X15565420Y-16008079D01*
X15565420Y-16008079D02*
X15574944Y-16046174D01*
X15574944Y-16046174D02*
X15574944Y-16093793D01*
X15574944Y-16093793D02*
X15565420Y-16131888D01*
X15565420Y-16131888D02*
X15555896Y-16150936D01*
X15555896Y-16150936D02*
X15546372Y-16160460D01*
X15546372Y-16160460D02*
X15527325Y-16169984D01*
X15527325Y-16169984D02*
X15508277Y-16169984D01*
X15508277Y-16169984D02*
X15489229Y-16160460D01*
X15489229Y-16160460D02*
X15479706Y-16150936D01*
X15479706Y-16150936D02*
X15470182Y-16131888D01*
X15470182Y-16131888D02*
X15460658Y-16093793D01*
X15460658Y-16093793D02*
X15460658Y-16046174D01*
X15460658Y-16046174D02*
X15470182Y-16008079D01*
X15470182Y-16008079D02*
X15479706Y-15989031D01*
X15479706Y-15989031D02*
X15489229Y-15979508D01*
X15489229Y-15979508D02*
X15508277Y-15969984D01*
X15651134Y-15969984D02*
X15651134Y-16008079D01*
X15727325Y-15969984D02*
X15727325Y-16008079D01*
X16022563Y-16246174D02*
X16013039Y-16236650D01*
X16013039Y-16236650D02*
X15993991Y-16208079D01*
X15993991Y-16208079D02*
X15984468Y-16189031D01*
X15984468Y-16189031D02*
X15974944Y-16160460D01*
X15974944Y-16160460D02*
X15965420Y-16112841D01*
X15965420Y-16112841D02*
X15965420Y-16074746D01*
X15965420Y-16074746D02*
X15974944Y-16027127D01*
X15974944Y-16027127D02*
X15984468Y-15998555D01*
X15984468Y-15998555D02*
X15993991Y-15979508D01*
X15993991Y-15979508D02*
X16013039Y-15950936D01*
X16013039Y-15950936D02*
X16022563Y-15941412D01*
X16079706Y-15969984D02*
X16203515Y-15969984D01*
X16203515Y-15969984D02*
X16136848Y-16046174D01*
X16136848Y-16046174D02*
X16165420Y-16046174D01*
X16165420Y-16046174D02*
X16184468Y-16055698D01*
X16184468Y-16055698D02*
X16193991Y-16065222D01*
X16193991Y-16065222D02*
X16203515Y-16084269D01*
X16203515Y-16084269D02*
X16203515Y-16131888D01*
X16203515Y-16131888D02*
X16193991Y-16150936D01*
X16193991Y-16150936D02*
X16184468Y-16160460D01*
X16184468Y-16160460D02*
X16165420Y-16169984D01*
X16165420Y-16169984D02*
X16108277Y-16169984D01*
X16108277Y-16169984D02*
X16089229Y-16160460D01*
X16089229Y-16160460D02*
X16079706Y-16150936D01*
X16270182Y-15969984D02*
X16393991Y-15969984D01*
X16393991Y-15969984D02*
X16327325Y-16046174D01*
X16327325Y-16046174D02*
X16355896Y-16046174D01*
X16355896Y-16046174D02*
X16374944Y-16055698D01*
X16374944Y-16055698D02*
X16384468Y-16065222D01*
X16384468Y-16065222D02*
X16393991Y-16084269D01*
X16393991Y-16084269D02*
X16393991Y-16131888D01*
X16393991Y-16131888D02*
X16384468Y-16150936D01*
X16384468Y-16150936D02*
X16374944Y-16160460D01*
X16374944Y-16160460D02*
X16355896Y-16169984D01*
X16355896Y-16169984D02*
X16298753Y-16169984D01*
X16298753Y-16169984D02*
X16279706Y-16160460D01*
X16279706Y-16160460D02*
X16270182Y-16150936D01*
X16632087Y-16169984D02*
X16632087Y-15969984D01*
X16717801Y-16169984D02*
X16717801Y-16065222D01*
X16717801Y-16065222D02*
X16708277Y-16046174D01*
X16708277Y-16046174D02*
X16689230Y-16036650D01*
X16689230Y-16036650D02*
X16660658Y-16036650D01*
X16660658Y-16036650D02*
X16641610Y-16046174D01*
X16641610Y-16046174D02*
X16632087Y-16055698D01*
X16841611Y-16169984D02*
X16822563Y-16160460D01*
X16822563Y-16160460D02*
X16813039Y-16150936D01*
X16813039Y-16150936D02*
X16803515Y-16131888D01*
X16803515Y-16131888D02*
X16803515Y-16074746D01*
X16803515Y-16074746D02*
X16813039Y-16055698D01*
X16813039Y-16055698D02*
X16822563Y-16046174D01*
X16822563Y-16046174D02*
X16841611Y-16036650D01*
X16841611Y-16036650D02*
X16870182Y-16036650D01*
X16870182Y-16036650D02*
X16889230Y-16046174D01*
X16889230Y-16046174D02*
X16898753Y-16055698D01*
X16898753Y-16055698D02*
X16908277Y-16074746D01*
X16908277Y-16074746D02*
X16908277Y-16131888D01*
X16908277Y-16131888D02*
X16898753Y-16150936D01*
X16898753Y-16150936D02*
X16889230Y-16160460D01*
X16889230Y-16160460D02*
X16870182Y-16169984D01*
X16870182Y-16169984D02*
X16841611Y-16169984D01*
X17022563Y-16169984D02*
X17003515Y-16160460D01*
X17003515Y-16160460D02*
X16993992Y-16141412D01*
X16993992Y-16141412D02*
X16993992Y-15969984D01*
X17174944Y-16160460D02*
X17155896Y-16169984D01*
X17155896Y-16169984D02*
X17117801Y-16169984D01*
X17117801Y-16169984D02*
X17098753Y-16160460D01*
X17098753Y-16160460D02*
X17089230Y-16141412D01*
X17089230Y-16141412D02*
X17089230Y-16065222D01*
X17089230Y-16065222D02*
X17098753Y-16046174D01*
X17098753Y-16046174D02*
X17117801Y-16036650D01*
X17117801Y-16036650D02*
X17155896Y-16036650D01*
X17155896Y-16036650D02*
X17174944Y-16046174D01*
X17174944Y-16046174D02*
X17184468Y-16065222D01*
X17184468Y-16065222D02*
X17184468Y-16084269D01*
X17184468Y-16084269D02*
X17089230Y-16103317D01*
X17260658Y-16160460D02*
X17279706Y-16169984D01*
X17279706Y-16169984D02*
X17317801Y-16169984D01*
X17317801Y-16169984D02*
X17336849Y-16160460D01*
X17336849Y-16160460D02*
X17346373Y-16141412D01*
X17346373Y-16141412D02*
X17346373Y-16131888D01*
X17346373Y-16131888D02*
X17336849Y-16112841D01*
X17336849Y-16112841D02*
X17317801Y-16103317D01*
X17317801Y-16103317D02*
X17289230Y-16103317D01*
X17289230Y-16103317D02*
X17270182Y-16093793D01*
X17270182Y-16093793D02*
X17260658Y-16074746D01*
X17260658Y-16074746D02*
X17260658Y-16065222D01*
X17260658Y-16065222D02*
X17270182Y-16046174D01*
X17270182Y-16046174D02*
X17289230Y-16036650D01*
X17289230Y-16036650D02*
X17317801Y-16036650D01*
X17317801Y-16036650D02*
X17336849Y-16046174D01*
X17413039Y-16246174D02*
X17422563Y-16236650D01*
X17422563Y-16236650D02*
X17441611Y-16208079D01*
X17441611Y-16208079D02*
X17451134Y-16189031D01*
X17451134Y-16189031D02*
X17460658Y-16160460D01*
X17460658Y-16160460D02*
X17470182Y-16112841D01*
X17470182Y-16112841D02*
X17470182Y-16074746D01*
X17470182Y-16074746D02*
X17460658Y-16027127D01*
X17460658Y-16027127D02*
X17451134Y-15998555D01*
X17451134Y-15998555D02*
X17441611Y-15979508D01*
X17441611Y-15979508D02*
X17422563Y-15950936D01*
X17422563Y-15950936D02*
X17413039Y-15941412D01*
D12*
X12432856Y-16377856D02*
X12432856Y-16307144D01*
X12362144Y-16307144D01*
X12362144Y-16377856D01*
X12432856Y-16377856D01*
D11*
X12813039Y-16433984D02*
X12698753Y-16433984D01*
X12755896Y-16433984D02*
X12755896Y-16233984D01*
X12755896Y-16233984D02*
X12736848Y-16262555D01*
X12736848Y-16262555D02*
X12717801Y-16281603D01*
X12717801Y-16281603D02*
X12698753Y-16291127D01*
X12898753Y-16414936D02*
X12908277Y-16424460D01*
X12908277Y-16424460D02*
X12898753Y-16433984D01*
X12898753Y-16433984D02*
X12889229Y-16424460D01*
X12889229Y-16424460D02*
X12898753Y-16414936D01*
X12898753Y-16414936D02*
X12898753Y-16433984D01*
X13032086Y-16233984D02*
X13051134Y-16233984D01*
X13051134Y-16233984D02*
X13070182Y-16243508D01*
X13070182Y-16243508D02*
X13079705Y-16253031D01*
X13079705Y-16253031D02*
X13089229Y-16272079D01*
X13089229Y-16272079D02*
X13098753Y-16310174D01*
X13098753Y-16310174D02*
X13098753Y-16357793D01*
X13098753Y-16357793D02*
X13089229Y-16395888D01*
X13089229Y-16395888D02*
X13079705Y-16414936D01*
X13079705Y-16414936D02*
X13070182Y-16424460D01*
X13070182Y-16424460D02*
X13051134Y-16433984D01*
X13051134Y-16433984D02*
X13032086Y-16433984D01*
X13032086Y-16433984D02*
X13013039Y-16424460D01*
X13013039Y-16424460D02*
X13003515Y-16414936D01*
X13003515Y-16414936D02*
X12993991Y-16395888D01*
X12993991Y-16395888D02*
X12984467Y-16357793D01*
X12984467Y-16357793D02*
X12984467Y-16310174D01*
X12984467Y-16310174D02*
X12993991Y-16272079D01*
X12993991Y-16272079D02*
X13003515Y-16253031D01*
X13003515Y-16253031D02*
X13013039Y-16243508D01*
X13013039Y-16243508D02*
X13032086Y-16233984D01*
X13222562Y-16233984D02*
X13241610Y-16233984D01*
X13241610Y-16233984D02*
X13260658Y-16243508D01*
X13260658Y-16243508D02*
X13270182Y-16253031D01*
X13270182Y-16253031D02*
X13279705Y-16272079D01*
X13279705Y-16272079D02*
X13289229Y-16310174D01*
X13289229Y-16310174D02*
X13289229Y-16357793D01*
X13289229Y-16357793D02*
X13279705Y-16395888D01*
X13279705Y-16395888D02*
X13270182Y-16414936D01*
X13270182Y-16414936D02*
X13260658Y-16424460D01*
X13260658Y-16424460D02*
X13241610Y-16433984D01*
X13241610Y-16433984D02*
X13222562Y-16433984D01*
X13222562Y-16433984D02*
X13203515Y-16424460D01*
X13203515Y-16424460D02*
X13193991Y-16414936D01*
X13193991Y-16414936D02*
X13184467Y-16395888D01*
X13184467Y-16395888D02*
X13174943Y-16357793D01*
X13174943Y-16357793D02*
X13174943Y-16310174D01*
X13174943Y-16310174D02*
X13184467Y-16272079D01*
X13184467Y-16272079D02*
X13193991Y-16253031D01*
X13193991Y-16253031D02*
X13203515Y-16243508D01*
X13203515Y-16243508D02*
X13222562Y-16233984D01*
X13413039Y-16233984D02*
X13432086Y-16233984D01*
X13432086Y-16233984D02*
X13451134Y-16243508D01*
X13451134Y-16243508D02*
X13460658Y-16253031D01*
X13460658Y-16253031D02*
X13470182Y-16272079D01*
X13470182Y-16272079D02*
X13479705Y-16310174D01*
X13479705Y-16310174D02*
X13479705Y-16357793D01*
X13479705Y-16357793D02*
X13470182Y-16395888D01*
X13470182Y-16395888D02*
X13460658Y-16414936D01*
X13460658Y-16414936D02*
X13451134Y-16424460D01*
X13451134Y-16424460D02*
X13432086Y-16433984D01*
X13432086Y-16433984D02*
X13413039Y-16433984D01*
X13413039Y-16433984D02*
X13393991Y-16424460D01*
X13393991Y-16424460D02*
X13384467Y-16414936D01*
X13384467Y-16414936D02*
X13374943Y-16395888D01*
X13374943Y-16395888D02*
X13365420Y-16357793D01*
X13365420Y-16357793D02*
X13365420Y-16310174D01*
X13365420Y-16310174D02*
X13374943Y-16272079D01*
X13374943Y-16272079D02*
X13384467Y-16253031D01*
X13384467Y-16253031D02*
X13393991Y-16243508D01*
X13393991Y-16243508D02*
X13413039Y-16233984D01*
X13565420Y-16433984D02*
X13565420Y-16300650D01*
X13565420Y-16319698D02*
X13574943Y-16310174D01*
X13574943Y-16310174D02*
X13593991Y-16300650D01*
X13593991Y-16300650D02*
X13622563Y-16300650D01*
X13622563Y-16300650D02*
X13641610Y-16310174D01*
X13641610Y-16310174D02*
X13651134Y-16329222D01*
X13651134Y-16329222D02*
X13651134Y-16433984D01*
X13651134Y-16329222D02*
X13660658Y-16310174D01*
X13660658Y-16310174D02*
X13679705Y-16300650D01*
X13679705Y-16300650D02*
X13708277Y-16300650D01*
X13708277Y-16300650D02*
X13727324Y-16310174D01*
X13727324Y-16310174D02*
X13736848Y-16329222D01*
X13736848Y-16329222D02*
X13736848Y-16433984D01*
X13832086Y-16433984D02*
X13832086Y-16300650D01*
X13832086Y-16319698D02*
X13841610Y-16310174D01*
X13841610Y-16310174D02*
X13860658Y-16300650D01*
X13860658Y-16300650D02*
X13889229Y-16300650D01*
X13889229Y-16300650D02*
X13908277Y-16310174D01*
X13908277Y-16310174D02*
X13917801Y-16329222D01*
X13917801Y-16329222D02*
X13917801Y-16433984D01*
X13917801Y-16329222D02*
X13927324Y-16310174D01*
X13927324Y-16310174D02*
X13946372Y-16300650D01*
X13946372Y-16300650D02*
X13974943Y-16300650D01*
X13974943Y-16300650D02*
X13993991Y-16310174D01*
X13993991Y-16310174D02*
X14003515Y-16329222D01*
X14003515Y-16329222D02*
X14003515Y-16433984D01*
X14393991Y-16224460D02*
X14222563Y-16481603D01*
X14651134Y-16233984D02*
X14670182Y-16233984D01*
X14670182Y-16233984D02*
X14689229Y-16243508D01*
X14689229Y-16243508D02*
X14698753Y-16253031D01*
X14698753Y-16253031D02*
X14708277Y-16272079D01*
X14708277Y-16272079D02*
X14717801Y-16310174D01*
X14717801Y-16310174D02*
X14717801Y-16357793D01*
X14717801Y-16357793D02*
X14708277Y-16395888D01*
X14708277Y-16395888D02*
X14698753Y-16414936D01*
X14698753Y-16414936D02*
X14689229Y-16424460D01*
X14689229Y-16424460D02*
X14670182Y-16433984D01*
X14670182Y-16433984D02*
X14651134Y-16433984D01*
X14651134Y-16433984D02*
X14632086Y-16424460D01*
X14632086Y-16424460D02*
X14622563Y-16414936D01*
X14622563Y-16414936D02*
X14613039Y-16395888D01*
X14613039Y-16395888D02*
X14603515Y-16357793D01*
X14603515Y-16357793D02*
X14603515Y-16310174D01*
X14603515Y-16310174D02*
X14613039Y-16272079D01*
X14613039Y-16272079D02*
X14622563Y-16253031D01*
X14622563Y-16253031D02*
X14632086Y-16243508D01*
X14632086Y-16243508D02*
X14651134Y-16233984D01*
X14803515Y-16414936D02*
X14813039Y-16424460D01*
X14813039Y-16424460D02*
X14803515Y-16433984D01*
X14803515Y-16433984D02*
X14793991Y-16424460D01*
X14793991Y-16424460D02*
X14803515Y-16414936D01*
X14803515Y-16414936D02*
X14803515Y-16433984D01*
X14936848Y-16233984D02*
X14955896Y-16233984D01*
X14955896Y-16233984D02*
X14974944Y-16243508D01*
X14974944Y-16243508D02*
X14984467Y-16253031D01*
X14984467Y-16253031D02*
X14993991Y-16272079D01*
X14993991Y-16272079D02*
X15003515Y-16310174D01*
X15003515Y-16310174D02*
X15003515Y-16357793D01*
X15003515Y-16357793D02*
X14993991Y-16395888D01*
X14993991Y-16395888D02*
X14984467Y-16414936D01*
X14984467Y-16414936D02*
X14974944Y-16424460D01*
X14974944Y-16424460D02*
X14955896Y-16433984D01*
X14955896Y-16433984D02*
X14936848Y-16433984D01*
X14936848Y-16433984D02*
X14917801Y-16424460D01*
X14917801Y-16424460D02*
X14908277Y-16414936D01*
X14908277Y-16414936D02*
X14898753Y-16395888D01*
X14898753Y-16395888D02*
X14889229Y-16357793D01*
X14889229Y-16357793D02*
X14889229Y-16310174D01*
X14889229Y-16310174D02*
X14898753Y-16272079D01*
X14898753Y-16272079D02*
X14908277Y-16253031D01*
X14908277Y-16253031D02*
X14917801Y-16243508D01*
X14917801Y-16243508D02*
X14936848Y-16233984D01*
X15070182Y-16233984D02*
X15193991Y-16233984D01*
X15193991Y-16233984D02*
X15127325Y-16310174D01*
X15127325Y-16310174D02*
X15155896Y-16310174D01*
X15155896Y-16310174D02*
X15174944Y-16319698D01*
X15174944Y-16319698D02*
X15184467Y-16329222D01*
X15184467Y-16329222D02*
X15193991Y-16348269D01*
X15193991Y-16348269D02*
X15193991Y-16395888D01*
X15193991Y-16395888D02*
X15184467Y-16414936D01*
X15184467Y-16414936D02*
X15174944Y-16424460D01*
X15174944Y-16424460D02*
X15155896Y-16433984D01*
X15155896Y-16433984D02*
X15098753Y-16433984D01*
X15098753Y-16433984D02*
X15079706Y-16424460D01*
X15079706Y-16424460D02*
X15070182Y-16414936D01*
X15289229Y-16433984D02*
X15327325Y-16433984D01*
X15327325Y-16433984D02*
X15346372Y-16424460D01*
X15346372Y-16424460D02*
X15355896Y-16414936D01*
X15355896Y-16414936D02*
X15374944Y-16386365D01*
X15374944Y-16386365D02*
X15384467Y-16348269D01*
X15384467Y-16348269D02*
X15384467Y-16272079D01*
X15384467Y-16272079D02*
X15374944Y-16253031D01*
X15374944Y-16253031D02*
X15365420Y-16243508D01*
X15365420Y-16243508D02*
X15346372Y-16233984D01*
X15346372Y-16233984D02*
X15308277Y-16233984D01*
X15308277Y-16233984D02*
X15289229Y-16243508D01*
X15289229Y-16243508D02*
X15279706Y-16253031D01*
X15279706Y-16253031D02*
X15270182Y-16272079D01*
X15270182Y-16272079D02*
X15270182Y-16319698D01*
X15270182Y-16319698D02*
X15279706Y-16338746D01*
X15279706Y-16338746D02*
X15289229Y-16348269D01*
X15289229Y-16348269D02*
X15308277Y-16357793D01*
X15308277Y-16357793D02*
X15346372Y-16357793D01*
X15346372Y-16357793D02*
X15365420Y-16348269D01*
X15365420Y-16348269D02*
X15374944Y-16338746D01*
X15374944Y-16338746D02*
X15384467Y-16319698D01*
X15555896Y-16300650D02*
X15555896Y-16433984D01*
X15508277Y-16224460D02*
X15460658Y-16367317D01*
X15460658Y-16367317D02*
X15584467Y-16367317D01*
X15651134Y-16233984D02*
X15651134Y-16272079D01*
X15727325Y-16233984D02*
X15727325Y-16272079D01*
X16022563Y-16510174D02*
X16013039Y-16500650D01*
X16013039Y-16500650D02*
X15993991Y-16472079D01*
X15993991Y-16472079D02*
X15984468Y-16453031D01*
X15984468Y-16453031D02*
X15974944Y-16424460D01*
X15974944Y-16424460D02*
X15965420Y-16376841D01*
X15965420Y-16376841D02*
X15965420Y-16338746D01*
X15965420Y-16338746D02*
X15974944Y-16291127D01*
X15974944Y-16291127D02*
X15984468Y-16262555D01*
X15984468Y-16262555D02*
X15993991Y-16243508D01*
X15993991Y-16243508D02*
X16013039Y-16214936D01*
X16013039Y-16214936D02*
X16022563Y-16205412D01*
X16079706Y-16233984D02*
X16203515Y-16233984D01*
X16203515Y-16233984D02*
X16136848Y-16310174D01*
X16136848Y-16310174D02*
X16165420Y-16310174D01*
X16165420Y-16310174D02*
X16184468Y-16319698D01*
X16184468Y-16319698D02*
X16193991Y-16329222D01*
X16193991Y-16329222D02*
X16203515Y-16348269D01*
X16203515Y-16348269D02*
X16203515Y-16395888D01*
X16203515Y-16395888D02*
X16193991Y-16414936D01*
X16193991Y-16414936D02*
X16184468Y-16424460D01*
X16184468Y-16424460D02*
X16165420Y-16433984D01*
X16165420Y-16433984D02*
X16108277Y-16433984D01*
X16108277Y-16433984D02*
X16089229Y-16424460D01*
X16089229Y-16424460D02*
X16079706Y-16414936D01*
X16441610Y-16433984D02*
X16441610Y-16233984D01*
X16527325Y-16433984D02*
X16527325Y-16329222D01*
X16527325Y-16329222D02*
X16517801Y-16310174D01*
X16517801Y-16310174D02*
X16498753Y-16300650D01*
X16498753Y-16300650D02*
X16470182Y-16300650D01*
X16470182Y-16300650D02*
X16451134Y-16310174D01*
X16451134Y-16310174D02*
X16441610Y-16319698D01*
X16651134Y-16433984D02*
X16632087Y-16424460D01*
X16632087Y-16424460D02*
X16622563Y-16414936D01*
X16622563Y-16414936D02*
X16613039Y-16395888D01*
X16613039Y-16395888D02*
X16613039Y-16338746D01*
X16613039Y-16338746D02*
X16622563Y-16319698D01*
X16622563Y-16319698D02*
X16632087Y-16310174D01*
X16632087Y-16310174D02*
X16651134Y-16300650D01*
X16651134Y-16300650D02*
X16679706Y-16300650D01*
X16679706Y-16300650D02*
X16698753Y-16310174D01*
X16698753Y-16310174D02*
X16708277Y-16319698D01*
X16708277Y-16319698D02*
X16717801Y-16338746D01*
X16717801Y-16338746D02*
X16717801Y-16395888D01*
X16717801Y-16395888D02*
X16708277Y-16414936D01*
X16708277Y-16414936D02*
X16698753Y-16424460D01*
X16698753Y-16424460D02*
X16679706Y-16433984D01*
X16679706Y-16433984D02*
X16651134Y-16433984D01*
X16832087Y-16433984D02*
X16813039Y-16424460D01*
X16813039Y-16424460D02*
X16803515Y-16405412D01*
X16803515Y-16405412D02*
X16803515Y-16233984D01*
X16984468Y-16424460D02*
X16965420Y-16433984D01*
X16965420Y-16433984D02*
X16927325Y-16433984D01*
X16927325Y-16433984D02*
X16908277Y-16424460D01*
X16908277Y-16424460D02*
X16898753Y-16405412D01*
X16898753Y-16405412D02*
X16898753Y-16329222D01*
X16898753Y-16329222D02*
X16908277Y-16310174D01*
X16908277Y-16310174D02*
X16927325Y-16300650D01*
X16927325Y-16300650D02*
X16965420Y-16300650D01*
X16965420Y-16300650D02*
X16984468Y-16310174D01*
X16984468Y-16310174D02*
X16993992Y-16329222D01*
X16993992Y-16329222D02*
X16993992Y-16348269D01*
X16993992Y-16348269D02*
X16898753Y-16367317D01*
X17070182Y-16424460D02*
X17089230Y-16433984D01*
X17089230Y-16433984D02*
X17127325Y-16433984D01*
X17127325Y-16433984D02*
X17146373Y-16424460D01*
X17146373Y-16424460D02*
X17155896Y-16405412D01*
X17155896Y-16405412D02*
X17155896Y-16395888D01*
X17155896Y-16395888D02*
X17146373Y-16376841D01*
X17146373Y-16376841D02*
X17127325Y-16367317D01*
X17127325Y-16367317D02*
X17098753Y-16367317D01*
X17098753Y-16367317D02*
X17079706Y-16357793D01*
X17079706Y-16357793D02*
X17070182Y-16338746D01*
X17070182Y-16338746D02*
X17070182Y-16329222D01*
X17070182Y-16329222D02*
X17079706Y-16310174D01*
X17079706Y-16310174D02*
X17098753Y-16300650D01*
X17098753Y-16300650D02*
X17127325Y-16300650D01*
X17127325Y-16300650D02*
X17146373Y-16310174D01*
X17222563Y-16510174D02*
X17232087Y-16500650D01*
X17232087Y-16500650D02*
X17251134Y-16472079D01*
X17251134Y-16472079D02*
X17260658Y-16453031D01*
X17260658Y-16453031D02*
X17270182Y-16424460D01*
X17270182Y-16424460D02*
X17279706Y-16376841D01*
X17279706Y-16376841D02*
X17279706Y-16338746D01*
X17279706Y-16338746D02*
X17270182Y-16291127D01*
X17270182Y-16291127D02*
X17260658Y-16262555D01*
X17260658Y-16262555D02*
X17251134Y-16243508D01*
X17251134Y-16243508D02*
X17232087Y-16214936D01*
X17232087Y-16214936D02*
X17222563Y-16205412D01*
D13*
X12390000Y-16664000D02*
X12447500Y-16606500D01*
X12390000Y-16549000D01*
X12332500Y-16606500D01*
X12390000Y-16664000D01*
D11*
X12813039Y-16697984D02*
X12698753Y-16697984D01*
X12755896Y-16697984D02*
X12755896Y-16497984D01*
X12755896Y-16497984D02*
X12736848Y-16526555D01*
X12736848Y-16526555D02*
X12717801Y-16545603D01*
X12717801Y-16545603D02*
X12698753Y-16555127D01*
X12898753Y-16678936D02*
X12908277Y-16688460D01*
X12908277Y-16688460D02*
X12898753Y-16697984D01*
X12898753Y-16697984D02*
X12889229Y-16688460D01*
X12889229Y-16688460D02*
X12898753Y-16678936D01*
X12898753Y-16678936D02*
X12898753Y-16697984D01*
X13098753Y-16697984D02*
X12984467Y-16697984D01*
X13041610Y-16697984D02*
X13041610Y-16497984D01*
X13041610Y-16497984D02*
X13022562Y-16526555D01*
X13022562Y-16526555D02*
X13003515Y-16545603D01*
X13003515Y-16545603D02*
X12984467Y-16555127D01*
X13279705Y-16497984D02*
X13184467Y-16497984D01*
X13184467Y-16497984D02*
X13174943Y-16593222D01*
X13174943Y-16593222D02*
X13184467Y-16583698D01*
X13184467Y-16583698D02*
X13203515Y-16574174D01*
X13203515Y-16574174D02*
X13251134Y-16574174D01*
X13251134Y-16574174D02*
X13270182Y-16583698D01*
X13270182Y-16583698D02*
X13279705Y-16593222D01*
X13279705Y-16593222D02*
X13289229Y-16612269D01*
X13289229Y-16612269D02*
X13289229Y-16659888D01*
X13289229Y-16659888D02*
X13279705Y-16678936D01*
X13279705Y-16678936D02*
X13270182Y-16688460D01*
X13270182Y-16688460D02*
X13251134Y-16697984D01*
X13251134Y-16697984D02*
X13203515Y-16697984D01*
X13203515Y-16697984D02*
X13184467Y-16688460D01*
X13184467Y-16688460D02*
X13174943Y-16678936D01*
X13413039Y-16497984D02*
X13432086Y-16497984D01*
X13432086Y-16497984D02*
X13451134Y-16507508D01*
X13451134Y-16507508D02*
X13460658Y-16517031D01*
X13460658Y-16517031D02*
X13470182Y-16536079D01*
X13470182Y-16536079D02*
X13479705Y-16574174D01*
X13479705Y-16574174D02*
X13479705Y-16621793D01*
X13479705Y-16621793D02*
X13470182Y-16659888D01*
X13470182Y-16659888D02*
X13460658Y-16678936D01*
X13460658Y-16678936D02*
X13451134Y-16688460D01*
X13451134Y-16688460D02*
X13432086Y-16697984D01*
X13432086Y-16697984D02*
X13413039Y-16697984D01*
X13413039Y-16697984D02*
X13393991Y-16688460D01*
X13393991Y-16688460D02*
X13384467Y-16678936D01*
X13384467Y-16678936D02*
X13374943Y-16659888D01*
X13374943Y-16659888D02*
X13365420Y-16621793D01*
X13365420Y-16621793D02*
X13365420Y-16574174D01*
X13365420Y-16574174D02*
X13374943Y-16536079D01*
X13374943Y-16536079D02*
X13384467Y-16517031D01*
X13384467Y-16517031D02*
X13393991Y-16507508D01*
X13393991Y-16507508D02*
X13413039Y-16497984D01*
X13565420Y-16697984D02*
X13565420Y-16564650D01*
X13565420Y-16583698D02*
X13574943Y-16574174D01*
X13574943Y-16574174D02*
X13593991Y-16564650D01*
X13593991Y-16564650D02*
X13622563Y-16564650D01*
X13622563Y-16564650D02*
X13641610Y-16574174D01*
X13641610Y-16574174D02*
X13651134Y-16593222D01*
X13651134Y-16593222D02*
X13651134Y-16697984D01*
X13651134Y-16593222D02*
X13660658Y-16574174D01*
X13660658Y-16574174D02*
X13679705Y-16564650D01*
X13679705Y-16564650D02*
X13708277Y-16564650D01*
X13708277Y-16564650D02*
X13727324Y-16574174D01*
X13727324Y-16574174D02*
X13736848Y-16593222D01*
X13736848Y-16593222D02*
X13736848Y-16697984D01*
X13832086Y-16697984D02*
X13832086Y-16564650D01*
X13832086Y-16583698D02*
X13841610Y-16574174D01*
X13841610Y-16574174D02*
X13860658Y-16564650D01*
X13860658Y-16564650D02*
X13889229Y-16564650D01*
X13889229Y-16564650D02*
X13908277Y-16574174D01*
X13908277Y-16574174D02*
X13917801Y-16593222D01*
X13917801Y-16593222D02*
X13917801Y-16697984D01*
X13917801Y-16593222D02*
X13927324Y-16574174D01*
X13927324Y-16574174D02*
X13946372Y-16564650D01*
X13946372Y-16564650D02*
X13974943Y-16564650D01*
X13974943Y-16564650D02*
X13993991Y-16574174D01*
X13993991Y-16574174D02*
X14003515Y-16593222D01*
X14003515Y-16593222D02*
X14003515Y-16697984D01*
X14393991Y-16488460D02*
X14222563Y-16745603D01*
X14651134Y-16497984D02*
X14670182Y-16497984D01*
X14670182Y-16497984D02*
X14689229Y-16507508D01*
X14689229Y-16507508D02*
X14698753Y-16517031D01*
X14698753Y-16517031D02*
X14708277Y-16536079D01*
X14708277Y-16536079D02*
X14717801Y-16574174D01*
X14717801Y-16574174D02*
X14717801Y-16621793D01*
X14717801Y-16621793D02*
X14708277Y-16659888D01*
X14708277Y-16659888D02*
X14698753Y-16678936D01*
X14698753Y-16678936D02*
X14689229Y-16688460D01*
X14689229Y-16688460D02*
X14670182Y-16697984D01*
X14670182Y-16697984D02*
X14651134Y-16697984D01*
X14651134Y-16697984D02*
X14632086Y-16688460D01*
X14632086Y-16688460D02*
X14622563Y-16678936D01*
X14622563Y-16678936D02*
X14613039Y-16659888D01*
X14613039Y-16659888D02*
X14603515Y-16621793D01*
X14603515Y-16621793D02*
X14603515Y-16574174D01*
X14603515Y-16574174D02*
X14613039Y-16536079D01*
X14613039Y-16536079D02*
X14622563Y-16517031D01*
X14622563Y-16517031D02*
X14632086Y-16507508D01*
X14632086Y-16507508D02*
X14651134Y-16497984D01*
X14803515Y-16678936D02*
X14813039Y-16688460D01*
X14813039Y-16688460D02*
X14803515Y-16697984D01*
X14803515Y-16697984D02*
X14793991Y-16688460D01*
X14793991Y-16688460D02*
X14803515Y-16678936D01*
X14803515Y-16678936D02*
X14803515Y-16697984D01*
X14936848Y-16497984D02*
X14955896Y-16497984D01*
X14955896Y-16497984D02*
X14974944Y-16507508D01*
X14974944Y-16507508D02*
X14984467Y-16517031D01*
X14984467Y-16517031D02*
X14993991Y-16536079D01*
X14993991Y-16536079D02*
X15003515Y-16574174D01*
X15003515Y-16574174D02*
X15003515Y-16621793D01*
X15003515Y-16621793D02*
X14993991Y-16659888D01*
X14993991Y-16659888D02*
X14984467Y-16678936D01*
X14984467Y-16678936D02*
X14974944Y-16688460D01*
X14974944Y-16688460D02*
X14955896Y-16697984D01*
X14955896Y-16697984D02*
X14936848Y-16697984D01*
X14936848Y-16697984D02*
X14917801Y-16688460D01*
X14917801Y-16688460D02*
X14908277Y-16678936D01*
X14908277Y-16678936D02*
X14898753Y-16659888D01*
X14898753Y-16659888D02*
X14889229Y-16621793D01*
X14889229Y-16621793D02*
X14889229Y-16574174D01*
X14889229Y-16574174D02*
X14898753Y-16536079D01*
X14898753Y-16536079D02*
X14908277Y-16517031D01*
X14908277Y-16517031D02*
X14917801Y-16507508D01*
X14917801Y-16507508D02*
X14936848Y-16497984D01*
X15174944Y-16564650D02*
X15174944Y-16697984D01*
X15127325Y-16488460D02*
X15079706Y-16631317D01*
X15079706Y-16631317D02*
X15203515Y-16631317D01*
X15374944Y-16497984D02*
X15279706Y-16497984D01*
X15279706Y-16497984D02*
X15270182Y-16593222D01*
X15270182Y-16593222D02*
X15279706Y-16583698D01*
X15279706Y-16583698D02*
X15298753Y-16574174D01*
X15298753Y-16574174D02*
X15346372Y-16574174D01*
X15346372Y-16574174D02*
X15365420Y-16583698D01*
X15365420Y-16583698D02*
X15374944Y-16593222D01*
X15374944Y-16593222D02*
X15384467Y-16612269D01*
X15384467Y-16612269D02*
X15384467Y-16659888D01*
X15384467Y-16659888D02*
X15374944Y-16678936D01*
X15374944Y-16678936D02*
X15365420Y-16688460D01*
X15365420Y-16688460D02*
X15346372Y-16697984D01*
X15346372Y-16697984D02*
X15298753Y-16697984D01*
X15298753Y-16697984D02*
X15279706Y-16688460D01*
X15279706Y-16688460D02*
X15270182Y-16678936D01*
X15451134Y-16497984D02*
X15574944Y-16497984D01*
X15574944Y-16497984D02*
X15508277Y-16574174D01*
X15508277Y-16574174D02*
X15536848Y-16574174D01*
X15536848Y-16574174D02*
X15555896Y-16583698D01*
X15555896Y-16583698D02*
X15565420Y-16593222D01*
X15565420Y-16593222D02*
X15574944Y-16612269D01*
X15574944Y-16612269D02*
X15574944Y-16659888D01*
X15574944Y-16659888D02*
X15565420Y-16678936D01*
X15565420Y-16678936D02*
X15555896Y-16688460D01*
X15555896Y-16688460D02*
X15536848Y-16697984D01*
X15536848Y-16697984D02*
X15479706Y-16697984D01*
X15479706Y-16697984D02*
X15460658Y-16688460D01*
X15460658Y-16688460D02*
X15451134Y-16678936D01*
X15651134Y-16497984D02*
X15651134Y-16536079D01*
X15727325Y-16497984D02*
X15727325Y-16536079D01*
X16022563Y-16774174D02*
X16013039Y-16764650D01*
X16013039Y-16764650D02*
X15993991Y-16736079D01*
X15993991Y-16736079D02*
X15984468Y-16717031D01*
X15984468Y-16717031D02*
X15974944Y-16688460D01*
X15974944Y-16688460D02*
X15965420Y-16640841D01*
X15965420Y-16640841D02*
X15965420Y-16602746D01*
X15965420Y-16602746D02*
X15974944Y-16555127D01*
X15974944Y-16555127D02*
X15984468Y-16526555D01*
X15984468Y-16526555D02*
X15993991Y-16507508D01*
X15993991Y-16507508D02*
X16013039Y-16478936D01*
X16013039Y-16478936D02*
X16022563Y-16469412D01*
X16184468Y-16564650D02*
X16184468Y-16697984D01*
X16136848Y-16488460D02*
X16089229Y-16631317D01*
X16089229Y-16631317D02*
X16213039Y-16631317D01*
X16441610Y-16697984D02*
X16441610Y-16497984D01*
X16527325Y-16697984D02*
X16527325Y-16593222D01*
X16527325Y-16593222D02*
X16517801Y-16574174D01*
X16517801Y-16574174D02*
X16498753Y-16564650D01*
X16498753Y-16564650D02*
X16470182Y-16564650D01*
X16470182Y-16564650D02*
X16451134Y-16574174D01*
X16451134Y-16574174D02*
X16441610Y-16583698D01*
X16651134Y-16697984D02*
X16632087Y-16688460D01*
X16632087Y-16688460D02*
X16622563Y-16678936D01*
X16622563Y-16678936D02*
X16613039Y-16659888D01*
X16613039Y-16659888D02*
X16613039Y-16602746D01*
X16613039Y-16602746D02*
X16622563Y-16583698D01*
X16622563Y-16583698D02*
X16632087Y-16574174D01*
X16632087Y-16574174D02*
X16651134Y-16564650D01*
X16651134Y-16564650D02*
X16679706Y-16564650D01*
X16679706Y-16564650D02*
X16698753Y-16574174D01*
X16698753Y-16574174D02*
X16708277Y-16583698D01*
X16708277Y-16583698D02*
X16717801Y-16602746D01*
X16717801Y-16602746D02*
X16717801Y-16659888D01*
X16717801Y-16659888D02*
X16708277Y-16678936D01*
X16708277Y-16678936D02*
X16698753Y-16688460D01*
X16698753Y-16688460D02*
X16679706Y-16697984D01*
X16679706Y-16697984D02*
X16651134Y-16697984D01*
X16832087Y-16697984D02*
X16813039Y-16688460D01*
X16813039Y-16688460D02*
X16803515Y-16669412D01*
X16803515Y-16669412D02*
X16803515Y-16497984D01*
X16984468Y-16688460D02*
X16965420Y-16697984D01*
X16965420Y-16697984D02*
X16927325Y-16697984D01*
X16927325Y-16697984D02*
X16908277Y-16688460D01*
X16908277Y-16688460D02*
X16898753Y-16669412D01*
X16898753Y-16669412D02*
X16898753Y-16593222D01*
X16898753Y-16593222D02*
X16908277Y-16574174D01*
X16908277Y-16574174D02*
X16927325Y-16564650D01*
X16927325Y-16564650D02*
X16965420Y-16564650D01*
X16965420Y-16564650D02*
X16984468Y-16574174D01*
X16984468Y-16574174D02*
X16993992Y-16593222D01*
X16993992Y-16593222D02*
X16993992Y-16612269D01*
X16993992Y-16612269D02*
X16898753Y-16631317D01*
X17070182Y-16688460D02*
X17089230Y-16697984D01*
X17089230Y-16697984D02*
X17127325Y-16697984D01*
X17127325Y-16697984D02*
X17146373Y-16688460D01*
X17146373Y-16688460D02*
X17155896Y-16669412D01*
X17155896Y-16669412D02*
X17155896Y-16659888D01*
X17155896Y-16659888D02*
X17146373Y-16640841D01*
X17146373Y-16640841D02*
X17127325Y-16631317D01*
X17127325Y-16631317D02*
X17098753Y-16631317D01*
X17098753Y-16631317D02*
X17079706Y-16621793D01*
X17079706Y-16621793D02*
X17070182Y-16602746D01*
X17070182Y-16602746D02*
X17070182Y-16593222D01*
X17070182Y-16593222D02*
X17079706Y-16574174D01*
X17079706Y-16574174D02*
X17098753Y-16564650D01*
X17098753Y-16564650D02*
X17127325Y-16564650D01*
X17127325Y-16564650D02*
X17146373Y-16574174D01*
X17222563Y-16774174D02*
X17232087Y-16764650D01*
X17232087Y-16764650D02*
X17251134Y-16736079D01*
X17251134Y-16736079D02*
X17260658Y-16717031D01*
X17260658Y-16717031D02*
X17270182Y-16688460D01*
X17270182Y-16688460D02*
X17279706Y-16640841D01*
X17279706Y-16640841D02*
X17279706Y-16602746D01*
X17279706Y-16602746D02*
X17270182Y-16555127D01*
X17270182Y-16555127D02*
X17260658Y-16526555D01*
X17260658Y-16526555D02*
X17251134Y-16507508D01*
X17251134Y-16507508D02*
X17232087Y-16478936D01*
X17232087Y-16478936D02*
X17222563Y-16469412D01*
D14*
X12315500Y-16804500D02*
X12447500Y-16936500D01*
X12447500Y-16804500D02*
X12315500Y-16936500D01*
X12447500Y-16870500D02*
G75*
G02*
X12315500Y-16870500I-66000J0D01*
G01*
X12315500Y-16870500D02*
G75*
G02*
X12447500Y-16870500I66000J0D01*
G01*
D11*
X12813039Y-16961984D02*
X12698753Y-16961984D01*
X12755896Y-16961984D02*
X12755896Y-16761984D01*
X12755896Y-16761984D02*
X12736848Y-16790555D01*
X12736848Y-16790555D02*
X12717801Y-16809603D01*
X12717801Y-16809603D02*
X12698753Y-16819127D01*
X12898753Y-16942936D02*
X12908277Y-16952460D01*
X12908277Y-16952460D02*
X12898753Y-16961984D01*
X12898753Y-16961984D02*
X12889229Y-16952460D01*
X12889229Y-16952460D02*
X12898753Y-16942936D01*
X12898753Y-16942936D02*
X12898753Y-16961984D01*
X12974943Y-16761984D02*
X13098753Y-16761984D01*
X13098753Y-16761984D02*
X13032086Y-16838174D01*
X13032086Y-16838174D02*
X13060658Y-16838174D01*
X13060658Y-16838174D02*
X13079705Y-16847698D01*
X13079705Y-16847698D02*
X13089229Y-16857222D01*
X13089229Y-16857222D02*
X13098753Y-16876270D01*
X13098753Y-16876270D02*
X13098753Y-16923889D01*
X13098753Y-16923889D02*
X13089229Y-16942936D01*
X13089229Y-16942936D02*
X13079705Y-16952460D01*
X13079705Y-16952460D02*
X13060658Y-16961984D01*
X13060658Y-16961984D02*
X13003515Y-16961984D01*
X13003515Y-16961984D02*
X12984467Y-16952460D01*
X12984467Y-16952460D02*
X12974943Y-16942936D01*
X13174943Y-16781031D02*
X13184467Y-16771508D01*
X13184467Y-16771508D02*
X13203515Y-16761984D01*
X13203515Y-16761984D02*
X13251134Y-16761984D01*
X13251134Y-16761984D02*
X13270182Y-16771508D01*
X13270182Y-16771508D02*
X13279705Y-16781031D01*
X13279705Y-16781031D02*
X13289229Y-16800079D01*
X13289229Y-16800079D02*
X13289229Y-16819127D01*
X13289229Y-16819127D02*
X13279705Y-16847698D01*
X13279705Y-16847698D02*
X13165420Y-16961984D01*
X13165420Y-16961984D02*
X13289229Y-16961984D01*
X13413039Y-16761984D02*
X13432086Y-16761984D01*
X13432086Y-16761984D02*
X13451134Y-16771508D01*
X13451134Y-16771508D02*
X13460658Y-16781031D01*
X13460658Y-16781031D02*
X13470182Y-16800079D01*
X13470182Y-16800079D02*
X13479705Y-16838174D01*
X13479705Y-16838174D02*
X13479705Y-16885793D01*
X13479705Y-16885793D02*
X13470182Y-16923889D01*
X13470182Y-16923889D02*
X13460658Y-16942936D01*
X13460658Y-16942936D02*
X13451134Y-16952460D01*
X13451134Y-16952460D02*
X13432086Y-16961984D01*
X13432086Y-16961984D02*
X13413039Y-16961984D01*
X13413039Y-16961984D02*
X13393991Y-16952460D01*
X13393991Y-16952460D02*
X13384467Y-16942936D01*
X13384467Y-16942936D02*
X13374943Y-16923889D01*
X13374943Y-16923889D02*
X13365420Y-16885793D01*
X13365420Y-16885793D02*
X13365420Y-16838174D01*
X13365420Y-16838174D02*
X13374943Y-16800079D01*
X13374943Y-16800079D02*
X13384467Y-16781031D01*
X13384467Y-16781031D02*
X13393991Y-16771508D01*
X13393991Y-16771508D02*
X13413039Y-16761984D01*
X13565420Y-16961984D02*
X13565420Y-16828650D01*
X13565420Y-16847698D02*
X13574943Y-16838174D01*
X13574943Y-16838174D02*
X13593991Y-16828650D01*
X13593991Y-16828650D02*
X13622563Y-16828650D01*
X13622563Y-16828650D02*
X13641610Y-16838174D01*
X13641610Y-16838174D02*
X13651134Y-16857222D01*
X13651134Y-16857222D02*
X13651134Y-16961984D01*
X13651134Y-16857222D02*
X13660658Y-16838174D01*
X13660658Y-16838174D02*
X13679705Y-16828650D01*
X13679705Y-16828650D02*
X13708277Y-16828650D01*
X13708277Y-16828650D02*
X13727324Y-16838174D01*
X13727324Y-16838174D02*
X13736848Y-16857222D01*
X13736848Y-16857222D02*
X13736848Y-16961984D01*
X13832086Y-16961984D02*
X13832086Y-16828650D01*
X13832086Y-16847698D02*
X13841610Y-16838174D01*
X13841610Y-16838174D02*
X13860658Y-16828650D01*
X13860658Y-16828650D02*
X13889229Y-16828650D01*
X13889229Y-16828650D02*
X13908277Y-16838174D01*
X13908277Y-16838174D02*
X13917801Y-16857222D01*
X13917801Y-16857222D02*
X13917801Y-16961984D01*
X13917801Y-16857222D02*
X13927324Y-16838174D01*
X13927324Y-16838174D02*
X13946372Y-16828650D01*
X13946372Y-16828650D02*
X13974943Y-16828650D01*
X13974943Y-16828650D02*
X13993991Y-16838174D01*
X13993991Y-16838174D02*
X14003515Y-16857222D01*
X14003515Y-16857222D02*
X14003515Y-16961984D01*
X14393991Y-16752460D02*
X14222563Y-17009603D01*
X14651134Y-16761984D02*
X14670182Y-16761984D01*
X14670182Y-16761984D02*
X14689229Y-16771508D01*
X14689229Y-16771508D02*
X14698753Y-16781031D01*
X14698753Y-16781031D02*
X14708277Y-16800079D01*
X14708277Y-16800079D02*
X14717801Y-16838174D01*
X14717801Y-16838174D02*
X14717801Y-16885793D01*
X14717801Y-16885793D02*
X14708277Y-16923889D01*
X14708277Y-16923889D02*
X14698753Y-16942936D01*
X14698753Y-16942936D02*
X14689229Y-16952460D01*
X14689229Y-16952460D02*
X14670182Y-16961984D01*
X14670182Y-16961984D02*
X14651134Y-16961984D01*
X14651134Y-16961984D02*
X14632086Y-16952460D01*
X14632086Y-16952460D02*
X14622563Y-16942936D01*
X14622563Y-16942936D02*
X14613039Y-16923889D01*
X14613039Y-16923889D02*
X14603515Y-16885793D01*
X14603515Y-16885793D02*
X14603515Y-16838174D01*
X14603515Y-16838174D02*
X14613039Y-16800079D01*
X14613039Y-16800079D02*
X14622563Y-16781031D01*
X14622563Y-16781031D02*
X14632086Y-16771508D01*
X14632086Y-16771508D02*
X14651134Y-16761984D01*
X14803515Y-16942936D02*
X14813039Y-16952460D01*
X14813039Y-16952460D02*
X14803515Y-16961984D01*
X14803515Y-16961984D02*
X14793991Y-16952460D01*
X14793991Y-16952460D02*
X14803515Y-16942936D01*
X14803515Y-16942936D02*
X14803515Y-16961984D01*
X14936848Y-16761984D02*
X14955896Y-16761984D01*
X14955896Y-16761984D02*
X14974944Y-16771508D01*
X14974944Y-16771508D02*
X14984467Y-16781031D01*
X14984467Y-16781031D02*
X14993991Y-16800079D01*
X14993991Y-16800079D02*
X15003515Y-16838174D01*
X15003515Y-16838174D02*
X15003515Y-16885793D01*
X15003515Y-16885793D02*
X14993991Y-16923889D01*
X14993991Y-16923889D02*
X14984467Y-16942936D01*
X14984467Y-16942936D02*
X14974944Y-16952460D01*
X14974944Y-16952460D02*
X14955896Y-16961984D01*
X14955896Y-16961984D02*
X14936848Y-16961984D01*
X14936848Y-16961984D02*
X14917801Y-16952460D01*
X14917801Y-16952460D02*
X14908277Y-16942936D01*
X14908277Y-16942936D02*
X14898753Y-16923889D01*
X14898753Y-16923889D02*
X14889229Y-16885793D01*
X14889229Y-16885793D02*
X14889229Y-16838174D01*
X14889229Y-16838174D02*
X14898753Y-16800079D01*
X14898753Y-16800079D02*
X14908277Y-16781031D01*
X14908277Y-16781031D02*
X14917801Y-16771508D01*
X14917801Y-16771508D02*
X14936848Y-16761984D01*
X15184467Y-16761984D02*
X15089229Y-16761984D01*
X15089229Y-16761984D02*
X15079706Y-16857222D01*
X15079706Y-16857222D02*
X15089229Y-16847698D01*
X15089229Y-16847698D02*
X15108277Y-16838174D01*
X15108277Y-16838174D02*
X15155896Y-16838174D01*
X15155896Y-16838174D02*
X15174944Y-16847698D01*
X15174944Y-16847698D02*
X15184467Y-16857222D01*
X15184467Y-16857222D02*
X15193991Y-16876270D01*
X15193991Y-16876270D02*
X15193991Y-16923889D01*
X15193991Y-16923889D02*
X15184467Y-16942936D01*
X15184467Y-16942936D02*
X15174944Y-16952460D01*
X15174944Y-16952460D02*
X15155896Y-16961984D01*
X15155896Y-16961984D02*
X15108277Y-16961984D01*
X15108277Y-16961984D02*
X15089229Y-16952460D01*
X15089229Y-16952460D02*
X15079706Y-16942936D01*
X15270182Y-16781031D02*
X15279706Y-16771508D01*
X15279706Y-16771508D02*
X15298753Y-16761984D01*
X15298753Y-16761984D02*
X15346372Y-16761984D01*
X15346372Y-16761984D02*
X15365420Y-16771508D01*
X15365420Y-16771508D02*
X15374944Y-16781031D01*
X15374944Y-16781031D02*
X15384467Y-16800079D01*
X15384467Y-16800079D02*
X15384467Y-16819127D01*
X15384467Y-16819127D02*
X15374944Y-16847698D01*
X15374944Y-16847698D02*
X15260658Y-16961984D01*
X15260658Y-16961984D02*
X15384467Y-16961984D01*
X15508277Y-16761984D02*
X15527325Y-16761984D01*
X15527325Y-16761984D02*
X15546372Y-16771508D01*
X15546372Y-16771508D02*
X15555896Y-16781031D01*
X15555896Y-16781031D02*
X15565420Y-16800079D01*
X15565420Y-16800079D02*
X15574944Y-16838174D01*
X15574944Y-16838174D02*
X15574944Y-16885793D01*
X15574944Y-16885793D02*
X15565420Y-16923889D01*
X15565420Y-16923889D02*
X15555896Y-16942936D01*
X15555896Y-16942936D02*
X15546372Y-16952460D01*
X15546372Y-16952460D02*
X15527325Y-16961984D01*
X15527325Y-16961984D02*
X15508277Y-16961984D01*
X15508277Y-16961984D02*
X15489229Y-16952460D01*
X15489229Y-16952460D02*
X15479706Y-16942936D01*
X15479706Y-16942936D02*
X15470182Y-16923889D01*
X15470182Y-16923889D02*
X15460658Y-16885793D01*
X15460658Y-16885793D02*
X15460658Y-16838174D01*
X15460658Y-16838174D02*
X15470182Y-16800079D01*
X15470182Y-16800079D02*
X15479706Y-16781031D01*
X15479706Y-16781031D02*
X15489229Y-16771508D01*
X15489229Y-16771508D02*
X15508277Y-16761984D01*
X15651134Y-16761984D02*
X15651134Y-16800079D01*
X15727325Y-16761984D02*
X15727325Y-16800079D01*
X16022563Y-17038174D02*
X16013039Y-17028650D01*
X16013039Y-17028650D02*
X15993991Y-17000079D01*
X15993991Y-17000079D02*
X15984468Y-16981031D01*
X15984468Y-16981031D02*
X15974944Y-16952460D01*
X15974944Y-16952460D02*
X15965420Y-16904841D01*
X15965420Y-16904841D02*
X15965420Y-16866746D01*
X15965420Y-16866746D02*
X15974944Y-16819127D01*
X15974944Y-16819127D02*
X15984468Y-16790555D01*
X15984468Y-16790555D02*
X15993991Y-16771508D01*
X15993991Y-16771508D02*
X16013039Y-16742936D01*
X16013039Y-16742936D02*
X16022563Y-16733412D01*
X16203515Y-16961984D02*
X16089229Y-16961984D01*
X16146372Y-16961984D02*
X16146372Y-16761984D01*
X16146372Y-16761984D02*
X16127325Y-16790555D01*
X16127325Y-16790555D02*
X16108277Y-16809603D01*
X16108277Y-16809603D02*
X16089229Y-16819127D01*
X16327325Y-16761984D02*
X16346372Y-16761984D01*
X16346372Y-16761984D02*
X16365420Y-16771508D01*
X16365420Y-16771508D02*
X16374944Y-16781031D01*
X16374944Y-16781031D02*
X16384468Y-16800079D01*
X16384468Y-16800079D02*
X16393991Y-16838174D01*
X16393991Y-16838174D02*
X16393991Y-16885793D01*
X16393991Y-16885793D02*
X16384468Y-16923889D01*
X16384468Y-16923889D02*
X16374944Y-16942936D01*
X16374944Y-16942936D02*
X16365420Y-16952460D01*
X16365420Y-16952460D02*
X16346372Y-16961984D01*
X16346372Y-16961984D02*
X16327325Y-16961984D01*
X16327325Y-16961984D02*
X16308277Y-16952460D01*
X16308277Y-16952460D02*
X16298753Y-16942936D01*
X16298753Y-16942936D02*
X16289229Y-16923889D01*
X16289229Y-16923889D02*
X16279706Y-16885793D01*
X16279706Y-16885793D02*
X16279706Y-16838174D01*
X16279706Y-16838174D02*
X16289229Y-16800079D01*
X16289229Y-16800079D02*
X16298753Y-16781031D01*
X16298753Y-16781031D02*
X16308277Y-16771508D01*
X16308277Y-16771508D02*
X16327325Y-16761984D01*
X16632087Y-16961984D02*
X16632087Y-16761984D01*
X16717801Y-16961984D02*
X16717801Y-16857222D01*
X16717801Y-16857222D02*
X16708277Y-16838174D01*
X16708277Y-16838174D02*
X16689230Y-16828650D01*
X16689230Y-16828650D02*
X16660658Y-16828650D01*
X16660658Y-16828650D02*
X16641610Y-16838174D01*
X16641610Y-16838174D02*
X16632087Y-16847698D01*
X16841611Y-16961984D02*
X16822563Y-16952460D01*
X16822563Y-16952460D02*
X16813039Y-16942936D01*
X16813039Y-16942936D02*
X16803515Y-16923889D01*
X16803515Y-16923889D02*
X16803515Y-16866746D01*
X16803515Y-16866746D02*
X16813039Y-16847698D01*
X16813039Y-16847698D02*
X16822563Y-16838174D01*
X16822563Y-16838174D02*
X16841611Y-16828650D01*
X16841611Y-16828650D02*
X16870182Y-16828650D01*
X16870182Y-16828650D02*
X16889230Y-16838174D01*
X16889230Y-16838174D02*
X16898753Y-16847698D01*
X16898753Y-16847698D02*
X16908277Y-16866746D01*
X16908277Y-16866746D02*
X16908277Y-16923889D01*
X16908277Y-16923889D02*
X16898753Y-16942936D01*
X16898753Y-16942936D02*
X16889230Y-16952460D01*
X16889230Y-16952460D02*
X16870182Y-16961984D01*
X16870182Y-16961984D02*
X16841611Y-16961984D01*
X17022563Y-16961984D02*
X17003515Y-16952460D01*
X17003515Y-16952460D02*
X16993992Y-16933412D01*
X16993992Y-16933412D02*
X16993992Y-16761984D01*
X17174944Y-16952460D02*
X17155896Y-16961984D01*
X17155896Y-16961984D02*
X17117801Y-16961984D01*
X17117801Y-16961984D02*
X17098753Y-16952460D01*
X17098753Y-16952460D02*
X17089230Y-16933412D01*
X17089230Y-16933412D02*
X17089230Y-16857222D01*
X17089230Y-16857222D02*
X17098753Y-16838174D01*
X17098753Y-16838174D02*
X17117801Y-16828650D01*
X17117801Y-16828650D02*
X17155896Y-16828650D01*
X17155896Y-16828650D02*
X17174944Y-16838174D01*
X17174944Y-16838174D02*
X17184468Y-16857222D01*
X17184468Y-16857222D02*
X17184468Y-16876270D01*
X17184468Y-16876270D02*
X17089230Y-16895317D01*
X17260658Y-16952460D02*
X17279706Y-16961984D01*
X17279706Y-16961984D02*
X17317801Y-16961984D01*
X17317801Y-16961984D02*
X17336849Y-16952460D01*
X17336849Y-16952460D02*
X17346373Y-16933412D01*
X17346373Y-16933412D02*
X17346373Y-16923889D01*
X17346373Y-16923889D02*
X17336849Y-16904841D01*
X17336849Y-16904841D02*
X17317801Y-16895317D01*
X17317801Y-16895317D02*
X17289230Y-16895317D01*
X17289230Y-16895317D02*
X17270182Y-16885793D01*
X17270182Y-16885793D02*
X17260658Y-16866746D01*
X17260658Y-16866746D02*
X17260658Y-16857222D01*
X17260658Y-16857222D02*
X17270182Y-16838174D01*
X17270182Y-16838174D02*
X17289230Y-16828650D01*
X17289230Y-16828650D02*
X17317801Y-16828650D01*
X17317801Y-16828650D02*
X17336849Y-16838174D01*
X17413039Y-17038174D02*
X17422563Y-17028650D01*
X17422563Y-17028650D02*
X17441611Y-17000079D01*
X17441611Y-17000079D02*
X17451134Y-16981031D01*
X17451134Y-16981031D02*
X17460658Y-16952460D01*
X17460658Y-16952460D02*
X17470182Y-16904841D01*
X17470182Y-16904841D02*
X17470182Y-16866746D01*
X17470182Y-16866746D02*
X17460658Y-16819127D01*
X17460658Y-16819127D02*
X17451134Y-16790555D01*
X17451134Y-16790555D02*
X17441611Y-16771508D01*
X17441611Y-16771508D02*
X17422563Y-16742936D01*
X17422563Y-16742936D02*
X17413039Y-16733412D01*
D15*
X12287500Y-17054500D02*
X12447500Y-17214500D01*
X12447500Y-17054500D02*
X12287500Y-17214500D01*
X12367500Y-17054500D02*
X12367500Y-17214500D01*
X12287500Y-17134500D02*
X12447500Y-17134500D01*
D11*
X12813039Y-17225984D02*
X12698753Y-17225984D01*
X12755896Y-17225984D02*
X12755896Y-17025984D01*
X12755896Y-17025984D02*
X12736848Y-17054555D01*
X12736848Y-17054555D02*
X12717801Y-17073603D01*
X12717801Y-17073603D02*
X12698753Y-17083127D01*
X12898753Y-17206936D02*
X12908277Y-17216460D01*
X12908277Y-17216460D02*
X12898753Y-17225984D01*
X12898753Y-17225984D02*
X12889229Y-17216460D01*
X12889229Y-17216460D02*
X12898753Y-17206936D01*
X12898753Y-17206936D02*
X12898753Y-17225984D01*
X13079705Y-17025984D02*
X13041610Y-17025984D01*
X13041610Y-17025984D02*
X13022562Y-17035508D01*
X13022562Y-17035508D02*
X13013039Y-17045031D01*
X13013039Y-17045031D02*
X12993991Y-17073603D01*
X12993991Y-17073603D02*
X12984467Y-17111698D01*
X12984467Y-17111698D02*
X12984467Y-17187889D01*
X12984467Y-17187889D02*
X12993991Y-17206936D01*
X12993991Y-17206936D02*
X13003515Y-17216460D01*
X13003515Y-17216460D02*
X13022562Y-17225984D01*
X13022562Y-17225984D02*
X13060658Y-17225984D01*
X13060658Y-17225984D02*
X13079705Y-17216460D01*
X13079705Y-17216460D02*
X13089229Y-17206936D01*
X13089229Y-17206936D02*
X13098753Y-17187889D01*
X13098753Y-17187889D02*
X13098753Y-17140270D01*
X13098753Y-17140270D02*
X13089229Y-17121222D01*
X13089229Y-17121222D02*
X13079705Y-17111698D01*
X13079705Y-17111698D02*
X13060658Y-17102174D01*
X13060658Y-17102174D02*
X13022562Y-17102174D01*
X13022562Y-17102174D02*
X13003515Y-17111698D01*
X13003515Y-17111698D02*
X12993991Y-17121222D01*
X12993991Y-17121222D02*
X12984467Y-17140270D01*
X13222562Y-17025984D02*
X13241610Y-17025984D01*
X13241610Y-17025984D02*
X13260658Y-17035508D01*
X13260658Y-17035508D02*
X13270182Y-17045031D01*
X13270182Y-17045031D02*
X13279705Y-17064079D01*
X13279705Y-17064079D02*
X13289229Y-17102174D01*
X13289229Y-17102174D02*
X13289229Y-17149793D01*
X13289229Y-17149793D02*
X13279705Y-17187889D01*
X13279705Y-17187889D02*
X13270182Y-17206936D01*
X13270182Y-17206936D02*
X13260658Y-17216460D01*
X13260658Y-17216460D02*
X13241610Y-17225984D01*
X13241610Y-17225984D02*
X13222562Y-17225984D01*
X13222562Y-17225984D02*
X13203515Y-17216460D01*
X13203515Y-17216460D02*
X13193991Y-17206936D01*
X13193991Y-17206936D02*
X13184467Y-17187889D01*
X13184467Y-17187889D02*
X13174943Y-17149793D01*
X13174943Y-17149793D02*
X13174943Y-17102174D01*
X13174943Y-17102174D02*
X13184467Y-17064079D01*
X13184467Y-17064079D02*
X13193991Y-17045031D01*
X13193991Y-17045031D02*
X13203515Y-17035508D01*
X13203515Y-17035508D02*
X13222562Y-17025984D01*
X13413039Y-17025984D02*
X13432086Y-17025984D01*
X13432086Y-17025984D02*
X13451134Y-17035508D01*
X13451134Y-17035508D02*
X13460658Y-17045031D01*
X13460658Y-17045031D02*
X13470182Y-17064079D01*
X13470182Y-17064079D02*
X13479705Y-17102174D01*
X13479705Y-17102174D02*
X13479705Y-17149793D01*
X13479705Y-17149793D02*
X13470182Y-17187889D01*
X13470182Y-17187889D02*
X13460658Y-17206936D01*
X13460658Y-17206936D02*
X13451134Y-17216460D01*
X13451134Y-17216460D02*
X13432086Y-17225984D01*
X13432086Y-17225984D02*
X13413039Y-17225984D01*
X13413039Y-17225984D02*
X13393991Y-17216460D01*
X13393991Y-17216460D02*
X13384467Y-17206936D01*
X13384467Y-17206936D02*
X13374943Y-17187889D01*
X13374943Y-17187889D02*
X13365420Y-17149793D01*
X13365420Y-17149793D02*
X13365420Y-17102174D01*
X13365420Y-17102174D02*
X13374943Y-17064079D01*
X13374943Y-17064079D02*
X13384467Y-17045031D01*
X13384467Y-17045031D02*
X13393991Y-17035508D01*
X13393991Y-17035508D02*
X13413039Y-17025984D01*
X13565420Y-17225984D02*
X13565420Y-17092650D01*
X13565420Y-17111698D02*
X13574943Y-17102174D01*
X13574943Y-17102174D02*
X13593991Y-17092650D01*
X13593991Y-17092650D02*
X13622563Y-17092650D01*
X13622563Y-17092650D02*
X13641610Y-17102174D01*
X13641610Y-17102174D02*
X13651134Y-17121222D01*
X13651134Y-17121222D02*
X13651134Y-17225984D01*
X13651134Y-17121222D02*
X13660658Y-17102174D01*
X13660658Y-17102174D02*
X13679705Y-17092650D01*
X13679705Y-17092650D02*
X13708277Y-17092650D01*
X13708277Y-17092650D02*
X13727324Y-17102174D01*
X13727324Y-17102174D02*
X13736848Y-17121222D01*
X13736848Y-17121222D02*
X13736848Y-17225984D01*
X13832086Y-17225984D02*
X13832086Y-17092650D01*
X13832086Y-17111698D02*
X13841610Y-17102174D01*
X13841610Y-17102174D02*
X13860658Y-17092650D01*
X13860658Y-17092650D02*
X13889229Y-17092650D01*
X13889229Y-17092650D02*
X13908277Y-17102174D01*
X13908277Y-17102174D02*
X13917801Y-17121222D01*
X13917801Y-17121222D02*
X13917801Y-17225984D01*
X13917801Y-17121222D02*
X13927324Y-17102174D01*
X13927324Y-17102174D02*
X13946372Y-17092650D01*
X13946372Y-17092650D02*
X13974943Y-17092650D01*
X13974943Y-17092650D02*
X13993991Y-17102174D01*
X13993991Y-17102174D02*
X14003515Y-17121222D01*
X14003515Y-17121222D02*
X14003515Y-17225984D01*
X14393991Y-17016460D02*
X14222563Y-17273603D01*
X14651134Y-17025984D02*
X14670182Y-17025984D01*
X14670182Y-17025984D02*
X14689229Y-17035508D01*
X14689229Y-17035508D02*
X14698753Y-17045031D01*
X14698753Y-17045031D02*
X14708277Y-17064079D01*
X14708277Y-17064079D02*
X14717801Y-17102174D01*
X14717801Y-17102174D02*
X14717801Y-17149793D01*
X14717801Y-17149793D02*
X14708277Y-17187889D01*
X14708277Y-17187889D02*
X14698753Y-17206936D01*
X14698753Y-17206936D02*
X14689229Y-17216460D01*
X14689229Y-17216460D02*
X14670182Y-17225984D01*
X14670182Y-17225984D02*
X14651134Y-17225984D01*
X14651134Y-17225984D02*
X14632086Y-17216460D01*
X14632086Y-17216460D02*
X14622563Y-17206936D01*
X14622563Y-17206936D02*
X14613039Y-17187889D01*
X14613039Y-17187889D02*
X14603515Y-17149793D01*
X14603515Y-17149793D02*
X14603515Y-17102174D01*
X14603515Y-17102174D02*
X14613039Y-17064079D01*
X14613039Y-17064079D02*
X14622563Y-17045031D01*
X14622563Y-17045031D02*
X14632086Y-17035508D01*
X14632086Y-17035508D02*
X14651134Y-17025984D01*
X14803515Y-17206936D02*
X14813039Y-17216460D01*
X14813039Y-17216460D02*
X14803515Y-17225984D01*
X14803515Y-17225984D02*
X14793991Y-17216460D01*
X14793991Y-17216460D02*
X14803515Y-17206936D01*
X14803515Y-17206936D02*
X14803515Y-17225984D01*
X14936848Y-17025984D02*
X14955896Y-17025984D01*
X14955896Y-17025984D02*
X14974944Y-17035508D01*
X14974944Y-17035508D02*
X14984467Y-17045031D01*
X14984467Y-17045031D02*
X14993991Y-17064079D01*
X14993991Y-17064079D02*
X15003515Y-17102174D01*
X15003515Y-17102174D02*
X15003515Y-17149793D01*
X15003515Y-17149793D02*
X14993991Y-17187889D01*
X14993991Y-17187889D02*
X14984467Y-17206936D01*
X14984467Y-17206936D02*
X14974944Y-17216460D01*
X14974944Y-17216460D02*
X14955896Y-17225984D01*
X14955896Y-17225984D02*
X14936848Y-17225984D01*
X14936848Y-17225984D02*
X14917801Y-17216460D01*
X14917801Y-17216460D02*
X14908277Y-17206936D01*
X14908277Y-17206936D02*
X14898753Y-17187889D01*
X14898753Y-17187889D02*
X14889229Y-17149793D01*
X14889229Y-17149793D02*
X14889229Y-17102174D01*
X14889229Y-17102174D02*
X14898753Y-17064079D01*
X14898753Y-17064079D02*
X14908277Y-17045031D01*
X14908277Y-17045031D02*
X14917801Y-17035508D01*
X14917801Y-17035508D02*
X14936848Y-17025984D01*
X15174944Y-17025984D02*
X15136848Y-17025984D01*
X15136848Y-17025984D02*
X15117801Y-17035508D01*
X15117801Y-17035508D02*
X15108277Y-17045031D01*
X15108277Y-17045031D02*
X15089229Y-17073603D01*
X15089229Y-17073603D02*
X15079706Y-17111698D01*
X15079706Y-17111698D02*
X15079706Y-17187889D01*
X15079706Y-17187889D02*
X15089229Y-17206936D01*
X15089229Y-17206936D02*
X15098753Y-17216460D01*
X15098753Y-17216460D02*
X15117801Y-17225984D01*
X15117801Y-17225984D02*
X15155896Y-17225984D01*
X15155896Y-17225984D02*
X15174944Y-17216460D01*
X15174944Y-17216460D02*
X15184467Y-17206936D01*
X15184467Y-17206936D02*
X15193991Y-17187889D01*
X15193991Y-17187889D02*
X15193991Y-17140270D01*
X15193991Y-17140270D02*
X15184467Y-17121222D01*
X15184467Y-17121222D02*
X15174944Y-17111698D01*
X15174944Y-17111698D02*
X15155896Y-17102174D01*
X15155896Y-17102174D02*
X15117801Y-17102174D01*
X15117801Y-17102174D02*
X15098753Y-17111698D01*
X15098753Y-17111698D02*
X15089229Y-17121222D01*
X15089229Y-17121222D02*
X15079706Y-17140270D01*
X15260658Y-17025984D02*
X15384467Y-17025984D01*
X15384467Y-17025984D02*
X15317801Y-17102174D01*
X15317801Y-17102174D02*
X15346372Y-17102174D01*
X15346372Y-17102174D02*
X15365420Y-17111698D01*
X15365420Y-17111698D02*
X15374944Y-17121222D01*
X15374944Y-17121222D02*
X15384467Y-17140270D01*
X15384467Y-17140270D02*
X15384467Y-17187889D01*
X15384467Y-17187889D02*
X15374944Y-17206936D01*
X15374944Y-17206936D02*
X15365420Y-17216460D01*
X15365420Y-17216460D02*
X15346372Y-17225984D01*
X15346372Y-17225984D02*
X15289229Y-17225984D01*
X15289229Y-17225984D02*
X15270182Y-17216460D01*
X15270182Y-17216460D02*
X15260658Y-17206936D01*
X15508277Y-17025984D02*
X15527325Y-17025984D01*
X15527325Y-17025984D02*
X15546372Y-17035508D01*
X15546372Y-17035508D02*
X15555896Y-17045031D01*
X15555896Y-17045031D02*
X15565420Y-17064079D01*
X15565420Y-17064079D02*
X15574944Y-17102174D01*
X15574944Y-17102174D02*
X15574944Y-17149793D01*
X15574944Y-17149793D02*
X15565420Y-17187889D01*
X15565420Y-17187889D02*
X15555896Y-17206936D01*
X15555896Y-17206936D02*
X15546372Y-17216460D01*
X15546372Y-17216460D02*
X15527325Y-17225984D01*
X15527325Y-17225984D02*
X15508277Y-17225984D01*
X15508277Y-17225984D02*
X15489229Y-17216460D01*
X15489229Y-17216460D02*
X15479706Y-17206936D01*
X15479706Y-17206936D02*
X15470182Y-17187889D01*
X15470182Y-17187889D02*
X15460658Y-17149793D01*
X15460658Y-17149793D02*
X15460658Y-17102174D01*
X15460658Y-17102174D02*
X15470182Y-17064079D01*
X15470182Y-17064079D02*
X15479706Y-17045031D01*
X15479706Y-17045031D02*
X15489229Y-17035508D01*
X15489229Y-17035508D02*
X15508277Y-17025984D01*
X15651134Y-17025984D02*
X15651134Y-17064079D01*
X15727325Y-17025984D02*
X15727325Y-17064079D01*
X16022563Y-17302174D02*
X16013039Y-17292650D01*
X16013039Y-17292650D02*
X15993991Y-17264079D01*
X15993991Y-17264079D02*
X15984468Y-17245031D01*
X15984468Y-17245031D02*
X15974944Y-17216460D01*
X15974944Y-17216460D02*
X15965420Y-17168841D01*
X15965420Y-17168841D02*
X15965420Y-17130746D01*
X15965420Y-17130746D02*
X15974944Y-17083127D01*
X15974944Y-17083127D02*
X15984468Y-17054555D01*
X15984468Y-17054555D02*
X15993991Y-17035508D01*
X15993991Y-17035508D02*
X16013039Y-17006936D01*
X16013039Y-17006936D02*
X16022563Y-16997412D01*
X16184468Y-17092650D02*
X16184468Y-17225984D01*
X16136848Y-17016460D02*
X16089229Y-17159317D01*
X16089229Y-17159317D02*
X16213039Y-17159317D01*
X16441610Y-17225984D02*
X16441610Y-17025984D01*
X16527325Y-17225984D02*
X16527325Y-17121222D01*
X16527325Y-17121222D02*
X16517801Y-17102174D01*
X16517801Y-17102174D02*
X16498753Y-17092650D01*
X16498753Y-17092650D02*
X16470182Y-17092650D01*
X16470182Y-17092650D02*
X16451134Y-17102174D01*
X16451134Y-17102174D02*
X16441610Y-17111698D01*
X16651134Y-17225984D02*
X16632087Y-17216460D01*
X16632087Y-17216460D02*
X16622563Y-17206936D01*
X16622563Y-17206936D02*
X16613039Y-17187889D01*
X16613039Y-17187889D02*
X16613039Y-17130746D01*
X16613039Y-17130746D02*
X16622563Y-17111698D01*
X16622563Y-17111698D02*
X16632087Y-17102174D01*
X16632087Y-17102174D02*
X16651134Y-17092650D01*
X16651134Y-17092650D02*
X16679706Y-17092650D01*
X16679706Y-17092650D02*
X16698753Y-17102174D01*
X16698753Y-17102174D02*
X16708277Y-17111698D01*
X16708277Y-17111698D02*
X16717801Y-17130746D01*
X16717801Y-17130746D02*
X16717801Y-17187889D01*
X16717801Y-17187889D02*
X16708277Y-17206936D01*
X16708277Y-17206936D02*
X16698753Y-17216460D01*
X16698753Y-17216460D02*
X16679706Y-17225984D01*
X16679706Y-17225984D02*
X16651134Y-17225984D01*
X16832087Y-17225984D02*
X16813039Y-17216460D01*
X16813039Y-17216460D02*
X16803515Y-17197412D01*
X16803515Y-17197412D02*
X16803515Y-17025984D01*
X16984468Y-17216460D02*
X16965420Y-17225984D01*
X16965420Y-17225984D02*
X16927325Y-17225984D01*
X16927325Y-17225984D02*
X16908277Y-17216460D01*
X16908277Y-17216460D02*
X16898753Y-17197412D01*
X16898753Y-17197412D02*
X16898753Y-17121222D01*
X16898753Y-17121222D02*
X16908277Y-17102174D01*
X16908277Y-17102174D02*
X16927325Y-17092650D01*
X16927325Y-17092650D02*
X16965420Y-17092650D01*
X16965420Y-17092650D02*
X16984468Y-17102174D01*
X16984468Y-17102174D02*
X16993992Y-17121222D01*
X16993992Y-17121222D02*
X16993992Y-17140270D01*
X16993992Y-17140270D02*
X16898753Y-17159317D01*
X17070182Y-17216460D02*
X17089230Y-17225984D01*
X17089230Y-17225984D02*
X17127325Y-17225984D01*
X17127325Y-17225984D02*
X17146373Y-17216460D01*
X17146373Y-17216460D02*
X17155896Y-17197412D01*
X17155896Y-17197412D02*
X17155896Y-17187889D01*
X17155896Y-17187889D02*
X17146373Y-17168841D01*
X17146373Y-17168841D02*
X17127325Y-17159317D01*
X17127325Y-17159317D02*
X17098753Y-17159317D01*
X17098753Y-17159317D02*
X17079706Y-17149793D01*
X17079706Y-17149793D02*
X17070182Y-17130746D01*
X17070182Y-17130746D02*
X17070182Y-17121222D01*
X17070182Y-17121222D02*
X17079706Y-17102174D01*
X17079706Y-17102174D02*
X17098753Y-17092650D01*
X17098753Y-17092650D02*
X17127325Y-17092650D01*
X17127325Y-17092650D02*
X17146373Y-17102174D01*
X17222563Y-17302174D02*
X17232087Y-17292650D01*
X17232087Y-17292650D02*
X17251134Y-17264079D01*
X17251134Y-17264079D02*
X17260658Y-17245031D01*
X17260658Y-17245031D02*
X17270182Y-17216460D01*
X17270182Y-17216460D02*
X17279706Y-17168841D01*
X17279706Y-17168841D02*
X17279706Y-17130746D01*
X17279706Y-17130746D02*
X17270182Y-17083127D01*
X17270182Y-17083127D02*
X17260658Y-17054555D01*
X17260658Y-17054555D02*
X17251134Y-17035508D01*
X17251134Y-17035508D02*
X17232087Y-17006936D01*
X17232087Y-17006936D02*
X17222563Y-16997412D01*
M02*
