M48
; DRILL file {KiCad 8.0.0} date 2024-08-30T13:19:37-0500
; FORMAT={-:-/ absolute / metric / decimal}
; #@! TF.CreationDate,2024-08-30T13:19:37-05:00
; #@! TF.GenerationSoftware,Kicad,Pcbnew,8.0.0
; #@! TF.FileFunction,Plated,1,2,PTH
FMAT,2
METRIC
; #@! TA.AperFunction,Plated,PTH,ViaDrill
T1C0.300
; #@! TA.AperFunction,Plated,PTH,ComponentDrill
T2C0.900
; #@! TA.AperFunction,Plated,PTH,ComponentDrill
T3C0.965
; #@! TA.AperFunction,Plated,PTH,ComponentDrill
T4C1.000
; #@! TA.AperFunction,Plated,PTH,ComponentDrill
T5C1.150
; #@! TA.AperFunction,Plated,PTH,ComponentDrill
T6C1.320
; #@! TA.AperFunction,Plated,PTH,ComponentDrill
T7C1.600
%
G90
G05
T1
X156.62Y-64.06
X157.83Y-66.09
X160.385Y-74.635
X161.495Y-70.355
X169.57Y-94.195
X175.705Y-89.496
T2
X129.67Y-109.89
X132.21Y-109.89
X166.625Y-51.405
X166.625Y-53.945
X166.625Y-56.485
X166.625Y-59.025
X166.73Y-72.11
X166.73Y-74.65
X166.73Y-77.19
X166.73Y-79.73
X169.165Y-52.675
X169.165Y-55.215
X169.165Y-57.755
X169.165Y-60.295
X169.27Y-73.38
X169.27Y-75.92
X169.27Y-78.46
X169.27Y-81.0
T3
X150.895Y-104.265
X150.895Y-106.805
X150.895Y-109.345
X150.895Y-111.885
X150.895Y-114.425
X150.895Y-116.965
X150.895Y-119.505
X153.435Y-104.265
X153.435Y-119.505
X155.975Y-104.265
X155.975Y-119.505
X158.515Y-104.265
X158.515Y-119.505
X161.055Y-104.265
X161.055Y-119.505
X163.595Y-104.265
X163.595Y-119.505
X166.135Y-104.265
X166.135Y-119.505
X168.675Y-104.265
X168.675Y-119.505
X171.215Y-104.265
X171.215Y-119.505
X173.755Y-104.265
X173.755Y-119.505
X176.295Y-104.265
X176.295Y-119.505
X178.835Y-104.265
X178.835Y-119.505
X181.375Y-104.265
X181.375Y-119.505
X183.915Y-104.265
X183.915Y-119.505
T4
X140.18Y-93.35
X140.18Y-95.89
X140.18Y-98.43
T5
X170.6Y-37.285
X170.6Y-42.285
X178.8Y-37.285
X178.8Y-42.285
T6
X128.66Y-139.25
X133.66Y-139.25
X140.9Y-139.25
X145.9Y-139.25
X153.14Y-139.25
X158.14Y-139.25
X165.38Y-139.25
X170.38Y-139.25
X177.62Y-139.25
X182.62Y-139.25
T7
X178.565Y-48.08
X178.565Y-63.62
X178.67Y-68.785
X178.67Y-84.325
M30
