%TF.GenerationSoftware,KiCad,Pcbnew,8.0.0*%
%TF.CreationDate,2024-08-30T13:19:38-05:00*%
%TF.ProjectId,Rain and Switches Control Board,5261696e-2061-46e6-9420-537769746368,rev?*%
%TF.SameCoordinates,Original*%
%TF.FileFunction,Drillmap*%
%TF.FilePolarity,Positive*%
%FSLAX45Y45*%
G04 Gerber Fmt 4.5, Leading zero omitted, Abs format (unit mm)*
G04 Created by KiCad (PCBNEW 8.0.0) date 2024-08-30 13:19:38*
%MOMM*%
%LPD*%
G01*
G04 APERTURE LIST*
%ADD10C,0.050000*%
%ADD11C,0.200000*%
%ADD12C,0.320000*%
%ADD13C,0.325000*%
G04 APERTURE END LIST*
D10*
X12450000Y-2339000D02*
X18620000Y-2339000D01*
X18620000Y-14908000D01*
X12450000Y-14908000D01*
X12450000Y-2339000D01*
D11*
D12*
X12790000Y-2679000D02*
X13110000Y-2999000D01*
X13110000Y-2679000D02*
X12790000Y-2999000D01*
X12790000Y-12429000D02*
X13110000Y-12749000D01*
X13110000Y-12429000D02*
X12790000Y-12749000D01*
X17960000Y-2679000D02*
X18280000Y-2999000D01*
X18280000Y-2679000D02*
X17960000Y-2999000D01*
X17960000Y-12429000D02*
X18280000Y-12749000D01*
X18280000Y-12429000D02*
X17960000Y-12749000D01*
D13*
X17714000Y-5013500D02*
G75*
G02*
X17389000Y-5013500I-162500J0D01*
G01*
X17389000Y-5013500D02*
G75*
G02*
X17714000Y-5013500I162500J0D01*
G01*
X17714000Y-6156500D02*
G75*
G02*
X17389000Y-6156500I-162500J0D01*
G01*
X17389000Y-6156500D02*
G75*
G02*
X17714000Y-6156500I162500J0D01*
G01*
X17724500Y-7084000D02*
G75*
G02*
X17399500Y-7084000I-162500J0D01*
G01*
X17399500Y-7084000D02*
G75*
G02*
X17724500Y-7084000I162500J0D01*
G01*
X17724500Y-8227000D02*
G75*
G02*
X17399500Y-8227000I-162500J0D01*
G01*
X17399500Y-8227000D02*
G75*
G02*
X17724500Y-8227000I162500J0D01*
G01*
D11*
X12708277Y-15221984D02*
X12708277Y-15021984D01*
X12708277Y-15021984D02*
X12755896Y-15021984D01*
X12755896Y-15021984D02*
X12784467Y-15031508D01*
X12784467Y-15031508D02*
X12803515Y-15050555D01*
X12803515Y-15050555D02*
X12813039Y-15069603D01*
X12813039Y-15069603D02*
X12822562Y-15107698D01*
X12822562Y-15107698D02*
X12822562Y-15136269D01*
X12822562Y-15136269D02*
X12813039Y-15174365D01*
X12813039Y-15174365D02*
X12803515Y-15193412D01*
X12803515Y-15193412D02*
X12784467Y-15212460D01*
X12784467Y-15212460D02*
X12755896Y-15221984D01*
X12755896Y-15221984D02*
X12708277Y-15221984D01*
X12908277Y-15221984D02*
X12908277Y-15088650D01*
X12908277Y-15126746D02*
X12917801Y-15107698D01*
X12917801Y-15107698D02*
X12927324Y-15098174D01*
X12927324Y-15098174D02*
X12946372Y-15088650D01*
X12946372Y-15088650D02*
X12965420Y-15088650D01*
X13032086Y-15221984D02*
X13032086Y-15088650D01*
X13032086Y-15021984D02*
X13022562Y-15031508D01*
X13022562Y-15031508D02*
X13032086Y-15041031D01*
X13032086Y-15041031D02*
X13041610Y-15031508D01*
X13041610Y-15031508D02*
X13032086Y-15021984D01*
X13032086Y-15021984D02*
X13032086Y-15041031D01*
X13155896Y-15221984D02*
X13136848Y-15212460D01*
X13136848Y-15212460D02*
X13127324Y-15193412D01*
X13127324Y-15193412D02*
X13127324Y-15021984D01*
X13260658Y-15221984D02*
X13241610Y-15212460D01*
X13241610Y-15212460D02*
X13232086Y-15193412D01*
X13232086Y-15193412D02*
X13232086Y-15021984D01*
X13489229Y-15221984D02*
X13489229Y-15021984D01*
X13489229Y-15021984D02*
X13555896Y-15164841D01*
X13555896Y-15164841D02*
X13622562Y-15021984D01*
X13622562Y-15021984D02*
X13622562Y-15221984D01*
X13803515Y-15221984D02*
X13803515Y-15117222D01*
X13803515Y-15117222D02*
X13793991Y-15098174D01*
X13793991Y-15098174D02*
X13774943Y-15088650D01*
X13774943Y-15088650D02*
X13736848Y-15088650D01*
X13736848Y-15088650D02*
X13717801Y-15098174D01*
X13803515Y-15212460D02*
X13784467Y-15221984D01*
X13784467Y-15221984D02*
X13736848Y-15221984D01*
X13736848Y-15221984D02*
X13717801Y-15212460D01*
X13717801Y-15212460D02*
X13708277Y-15193412D01*
X13708277Y-15193412D02*
X13708277Y-15174365D01*
X13708277Y-15174365D02*
X13717801Y-15155317D01*
X13717801Y-15155317D02*
X13736848Y-15145793D01*
X13736848Y-15145793D02*
X13784467Y-15145793D01*
X13784467Y-15145793D02*
X13803515Y-15136269D01*
X13898753Y-15088650D02*
X13898753Y-15288650D01*
X13898753Y-15098174D02*
X13917801Y-15088650D01*
X13917801Y-15088650D02*
X13955896Y-15088650D01*
X13955896Y-15088650D02*
X13974943Y-15098174D01*
X13974943Y-15098174D02*
X13984467Y-15107698D01*
X13984467Y-15107698D02*
X13993991Y-15126746D01*
X13993991Y-15126746D02*
X13993991Y-15183888D01*
X13993991Y-15183888D02*
X13984467Y-15202936D01*
X13984467Y-15202936D02*
X13974943Y-15212460D01*
X13974943Y-15212460D02*
X13955896Y-15221984D01*
X13955896Y-15221984D02*
X13917801Y-15221984D01*
X13917801Y-15221984D02*
X13898753Y-15212460D01*
X14079705Y-15202936D02*
X14089229Y-15212460D01*
X14089229Y-15212460D02*
X14079705Y-15221984D01*
X14079705Y-15221984D02*
X14070182Y-15212460D01*
X14070182Y-15212460D02*
X14079705Y-15202936D01*
X14079705Y-15202936D02*
X14079705Y-15221984D01*
X14079705Y-15098174D02*
X14089229Y-15107698D01*
X14089229Y-15107698D02*
X14079705Y-15117222D01*
X14079705Y-15117222D02*
X14070182Y-15107698D01*
X14070182Y-15107698D02*
X14079705Y-15098174D01*
X14079705Y-15098174D02*
X14079705Y-15117222D01*
X12247500Y-15450500D02*
X12447500Y-15650500D01*
X12447500Y-15450500D02*
X12247500Y-15650500D01*
X12689229Y-15441984D02*
X12813039Y-15441984D01*
X12813039Y-15441984D02*
X12746372Y-15518174D01*
X12746372Y-15518174D02*
X12774943Y-15518174D01*
X12774943Y-15518174D02*
X12793991Y-15527698D01*
X12793991Y-15527698D02*
X12803515Y-15537222D01*
X12803515Y-15537222D02*
X12813039Y-15556269D01*
X12813039Y-15556269D02*
X12813039Y-15603888D01*
X12813039Y-15603888D02*
X12803515Y-15622936D01*
X12803515Y-15622936D02*
X12793991Y-15632460D01*
X12793991Y-15632460D02*
X12774943Y-15641984D01*
X12774943Y-15641984D02*
X12717801Y-15641984D01*
X12717801Y-15641984D02*
X12698753Y-15632460D01*
X12698753Y-15632460D02*
X12689229Y-15622936D01*
X12898753Y-15622936D02*
X12908277Y-15632460D01*
X12908277Y-15632460D02*
X12898753Y-15641984D01*
X12898753Y-15641984D02*
X12889229Y-15632460D01*
X12889229Y-15632460D02*
X12898753Y-15622936D01*
X12898753Y-15622936D02*
X12898753Y-15641984D01*
X12984467Y-15461031D02*
X12993991Y-15451508D01*
X12993991Y-15451508D02*
X13013039Y-15441984D01*
X13013039Y-15441984D02*
X13060658Y-15441984D01*
X13060658Y-15441984D02*
X13079705Y-15451508D01*
X13079705Y-15451508D02*
X13089229Y-15461031D01*
X13089229Y-15461031D02*
X13098753Y-15480079D01*
X13098753Y-15480079D02*
X13098753Y-15499127D01*
X13098753Y-15499127D02*
X13089229Y-15527698D01*
X13089229Y-15527698D02*
X12974943Y-15641984D01*
X12974943Y-15641984D02*
X13098753Y-15641984D01*
X13222562Y-15441984D02*
X13241610Y-15441984D01*
X13241610Y-15441984D02*
X13260658Y-15451508D01*
X13260658Y-15451508D02*
X13270182Y-15461031D01*
X13270182Y-15461031D02*
X13279705Y-15480079D01*
X13279705Y-15480079D02*
X13289229Y-15518174D01*
X13289229Y-15518174D02*
X13289229Y-15565793D01*
X13289229Y-15565793D02*
X13279705Y-15603888D01*
X13279705Y-15603888D02*
X13270182Y-15622936D01*
X13270182Y-15622936D02*
X13260658Y-15632460D01*
X13260658Y-15632460D02*
X13241610Y-15641984D01*
X13241610Y-15641984D02*
X13222562Y-15641984D01*
X13222562Y-15641984D02*
X13203515Y-15632460D01*
X13203515Y-15632460D02*
X13193991Y-15622936D01*
X13193991Y-15622936D02*
X13184467Y-15603888D01*
X13184467Y-15603888D02*
X13174943Y-15565793D01*
X13174943Y-15565793D02*
X13174943Y-15518174D01*
X13174943Y-15518174D02*
X13184467Y-15480079D01*
X13184467Y-15480079D02*
X13193991Y-15461031D01*
X13193991Y-15461031D02*
X13203515Y-15451508D01*
X13203515Y-15451508D02*
X13222562Y-15441984D01*
X13413039Y-15441984D02*
X13432086Y-15441984D01*
X13432086Y-15441984D02*
X13451134Y-15451508D01*
X13451134Y-15451508D02*
X13460658Y-15461031D01*
X13460658Y-15461031D02*
X13470182Y-15480079D01*
X13470182Y-15480079D02*
X13479705Y-15518174D01*
X13479705Y-15518174D02*
X13479705Y-15565793D01*
X13479705Y-15565793D02*
X13470182Y-15603888D01*
X13470182Y-15603888D02*
X13460658Y-15622936D01*
X13460658Y-15622936D02*
X13451134Y-15632460D01*
X13451134Y-15632460D02*
X13432086Y-15641984D01*
X13432086Y-15641984D02*
X13413039Y-15641984D01*
X13413039Y-15641984D02*
X13393991Y-15632460D01*
X13393991Y-15632460D02*
X13384467Y-15622936D01*
X13384467Y-15622936D02*
X13374943Y-15603888D01*
X13374943Y-15603888D02*
X13365420Y-15565793D01*
X13365420Y-15565793D02*
X13365420Y-15518174D01*
X13365420Y-15518174D02*
X13374943Y-15480079D01*
X13374943Y-15480079D02*
X13384467Y-15461031D01*
X13384467Y-15461031D02*
X13393991Y-15451508D01*
X13393991Y-15451508D02*
X13413039Y-15441984D01*
X13565420Y-15641984D02*
X13565420Y-15508650D01*
X13565420Y-15527698D02*
X13574943Y-15518174D01*
X13574943Y-15518174D02*
X13593991Y-15508650D01*
X13593991Y-15508650D02*
X13622563Y-15508650D01*
X13622563Y-15508650D02*
X13641610Y-15518174D01*
X13641610Y-15518174D02*
X13651134Y-15537222D01*
X13651134Y-15537222D02*
X13651134Y-15641984D01*
X13651134Y-15537222D02*
X13660658Y-15518174D01*
X13660658Y-15518174D02*
X13679705Y-15508650D01*
X13679705Y-15508650D02*
X13708277Y-15508650D01*
X13708277Y-15508650D02*
X13727324Y-15518174D01*
X13727324Y-15518174D02*
X13736848Y-15537222D01*
X13736848Y-15537222D02*
X13736848Y-15641984D01*
X13832086Y-15641984D02*
X13832086Y-15508650D01*
X13832086Y-15527698D02*
X13841610Y-15518174D01*
X13841610Y-15518174D02*
X13860658Y-15508650D01*
X13860658Y-15508650D02*
X13889229Y-15508650D01*
X13889229Y-15508650D02*
X13908277Y-15518174D01*
X13908277Y-15518174D02*
X13917801Y-15537222D01*
X13917801Y-15537222D02*
X13917801Y-15641984D01*
X13917801Y-15537222D02*
X13927324Y-15518174D01*
X13927324Y-15518174D02*
X13946372Y-15508650D01*
X13946372Y-15508650D02*
X13974943Y-15508650D01*
X13974943Y-15508650D02*
X13993991Y-15518174D01*
X13993991Y-15518174D02*
X14003515Y-15537222D01*
X14003515Y-15537222D02*
X14003515Y-15641984D01*
X14393991Y-15432460D02*
X14222563Y-15689603D01*
X14651134Y-15441984D02*
X14670182Y-15441984D01*
X14670182Y-15441984D02*
X14689229Y-15451508D01*
X14689229Y-15451508D02*
X14698753Y-15461031D01*
X14698753Y-15461031D02*
X14708277Y-15480079D01*
X14708277Y-15480079D02*
X14717801Y-15518174D01*
X14717801Y-15518174D02*
X14717801Y-15565793D01*
X14717801Y-15565793D02*
X14708277Y-15603888D01*
X14708277Y-15603888D02*
X14698753Y-15622936D01*
X14698753Y-15622936D02*
X14689229Y-15632460D01*
X14689229Y-15632460D02*
X14670182Y-15641984D01*
X14670182Y-15641984D02*
X14651134Y-15641984D01*
X14651134Y-15641984D02*
X14632086Y-15632460D01*
X14632086Y-15632460D02*
X14622563Y-15622936D01*
X14622563Y-15622936D02*
X14613039Y-15603888D01*
X14613039Y-15603888D02*
X14603515Y-15565793D01*
X14603515Y-15565793D02*
X14603515Y-15518174D01*
X14603515Y-15518174D02*
X14613039Y-15480079D01*
X14613039Y-15480079D02*
X14622563Y-15461031D01*
X14622563Y-15461031D02*
X14632086Y-15451508D01*
X14632086Y-15451508D02*
X14651134Y-15441984D01*
X14803515Y-15622936D02*
X14813039Y-15632460D01*
X14813039Y-15632460D02*
X14803515Y-15641984D01*
X14803515Y-15641984D02*
X14793991Y-15632460D01*
X14793991Y-15632460D02*
X14803515Y-15622936D01*
X14803515Y-15622936D02*
X14803515Y-15641984D01*
X15003515Y-15641984D02*
X14889229Y-15641984D01*
X14946372Y-15641984D02*
X14946372Y-15441984D01*
X14946372Y-15441984D02*
X14927325Y-15470555D01*
X14927325Y-15470555D02*
X14908277Y-15489603D01*
X14908277Y-15489603D02*
X14889229Y-15499127D01*
X15079706Y-15461031D02*
X15089229Y-15451508D01*
X15089229Y-15451508D02*
X15108277Y-15441984D01*
X15108277Y-15441984D02*
X15155896Y-15441984D01*
X15155896Y-15441984D02*
X15174944Y-15451508D01*
X15174944Y-15451508D02*
X15184467Y-15461031D01*
X15184467Y-15461031D02*
X15193991Y-15480079D01*
X15193991Y-15480079D02*
X15193991Y-15499127D01*
X15193991Y-15499127D02*
X15184467Y-15527698D01*
X15184467Y-15527698D02*
X15070182Y-15641984D01*
X15070182Y-15641984D02*
X15193991Y-15641984D01*
X15365420Y-15441984D02*
X15327325Y-15441984D01*
X15327325Y-15441984D02*
X15308277Y-15451508D01*
X15308277Y-15451508D02*
X15298753Y-15461031D01*
X15298753Y-15461031D02*
X15279706Y-15489603D01*
X15279706Y-15489603D02*
X15270182Y-15527698D01*
X15270182Y-15527698D02*
X15270182Y-15603888D01*
X15270182Y-15603888D02*
X15279706Y-15622936D01*
X15279706Y-15622936D02*
X15289229Y-15632460D01*
X15289229Y-15632460D02*
X15308277Y-15641984D01*
X15308277Y-15641984D02*
X15346372Y-15641984D01*
X15346372Y-15641984D02*
X15365420Y-15632460D01*
X15365420Y-15632460D02*
X15374944Y-15622936D01*
X15374944Y-15622936D02*
X15384467Y-15603888D01*
X15384467Y-15603888D02*
X15384467Y-15556269D01*
X15384467Y-15556269D02*
X15374944Y-15537222D01*
X15374944Y-15537222D02*
X15365420Y-15527698D01*
X15365420Y-15527698D02*
X15346372Y-15518174D01*
X15346372Y-15518174D02*
X15308277Y-15518174D01*
X15308277Y-15518174D02*
X15289229Y-15527698D01*
X15289229Y-15527698D02*
X15279706Y-15537222D01*
X15279706Y-15537222D02*
X15270182Y-15556269D01*
X15508277Y-15441984D02*
X15527325Y-15441984D01*
X15527325Y-15441984D02*
X15546372Y-15451508D01*
X15546372Y-15451508D02*
X15555896Y-15461031D01*
X15555896Y-15461031D02*
X15565420Y-15480079D01*
X15565420Y-15480079D02*
X15574944Y-15518174D01*
X15574944Y-15518174D02*
X15574944Y-15565793D01*
X15574944Y-15565793D02*
X15565420Y-15603888D01*
X15565420Y-15603888D02*
X15555896Y-15622936D01*
X15555896Y-15622936D02*
X15546372Y-15632460D01*
X15546372Y-15632460D02*
X15527325Y-15641984D01*
X15527325Y-15641984D02*
X15508277Y-15641984D01*
X15508277Y-15641984D02*
X15489229Y-15632460D01*
X15489229Y-15632460D02*
X15479706Y-15622936D01*
X15479706Y-15622936D02*
X15470182Y-15603888D01*
X15470182Y-15603888D02*
X15460658Y-15565793D01*
X15460658Y-15565793D02*
X15460658Y-15518174D01*
X15460658Y-15518174D02*
X15470182Y-15480079D01*
X15470182Y-15480079D02*
X15479706Y-15461031D01*
X15479706Y-15461031D02*
X15489229Y-15451508D01*
X15489229Y-15451508D02*
X15508277Y-15441984D01*
X15651134Y-15441984D02*
X15651134Y-15480079D01*
X15727325Y-15441984D02*
X15727325Y-15480079D01*
X16022563Y-15718174D02*
X16013039Y-15708650D01*
X16013039Y-15708650D02*
X15993991Y-15680079D01*
X15993991Y-15680079D02*
X15984468Y-15661031D01*
X15984468Y-15661031D02*
X15974944Y-15632460D01*
X15974944Y-15632460D02*
X15965420Y-15584841D01*
X15965420Y-15584841D02*
X15965420Y-15546746D01*
X15965420Y-15546746D02*
X15974944Y-15499127D01*
X15974944Y-15499127D02*
X15984468Y-15470555D01*
X15984468Y-15470555D02*
X15993991Y-15451508D01*
X15993991Y-15451508D02*
X16013039Y-15422936D01*
X16013039Y-15422936D02*
X16022563Y-15413412D01*
X16184468Y-15508650D02*
X16184468Y-15641984D01*
X16136848Y-15432460D02*
X16089229Y-15575317D01*
X16089229Y-15575317D02*
X16213039Y-15575317D01*
X16441610Y-15641984D02*
X16441610Y-15441984D01*
X16527325Y-15641984D02*
X16527325Y-15537222D01*
X16527325Y-15537222D02*
X16517801Y-15518174D01*
X16517801Y-15518174D02*
X16498753Y-15508650D01*
X16498753Y-15508650D02*
X16470182Y-15508650D01*
X16470182Y-15508650D02*
X16451134Y-15518174D01*
X16451134Y-15518174D02*
X16441610Y-15527698D01*
X16651134Y-15641984D02*
X16632087Y-15632460D01*
X16632087Y-15632460D02*
X16622563Y-15622936D01*
X16622563Y-15622936D02*
X16613039Y-15603888D01*
X16613039Y-15603888D02*
X16613039Y-15546746D01*
X16613039Y-15546746D02*
X16622563Y-15527698D01*
X16622563Y-15527698D02*
X16632087Y-15518174D01*
X16632087Y-15518174D02*
X16651134Y-15508650D01*
X16651134Y-15508650D02*
X16679706Y-15508650D01*
X16679706Y-15508650D02*
X16698753Y-15518174D01*
X16698753Y-15518174D02*
X16708277Y-15527698D01*
X16708277Y-15527698D02*
X16717801Y-15546746D01*
X16717801Y-15546746D02*
X16717801Y-15603888D01*
X16717801Y-15603888D02*
X16708277Y-15622936D01*
X16708277Y-15622936D02*
X16698753Y-15632460D01*
X16698753Y-15632460D02*
X16679706Y-15641984D01*
X16679706Y-15641984D02*
X16651134Y-15641984D01*
X16832087Y-15641984D02*
X16813039Y-15632460D01*
X16813039Y-15632460D02*
X16803515Y-15613412D01*
X16803515Y-15613412D02*
X16803515Y-15441984D01*
X16984468Y-15632460D02*
X16965420Y-15641984D01*
X16965420Y-15641984D02*
X16927325Y-15641984D01*
X16927325Y-15641984D02*
X16908277Y-15632460D01*
X16908277Y-15632460D02*
X16898753Y-15613412D01*
X16898753Y-15613412D02*
X16898753Y-15537222D01*
X16898753Y-15537222D02*
X16908277Y-15518174D01*
X16908277Y-15518174D02*
X16927325Y-15508650D01*
X16927325Y-15508650D02*
X16965420Y-15508650D01*
X16965420Y-15508650D02*
X16984468Y-15518174D01*
X16984468Y-15518174D02*
X16993992Y-15537222D01*
X16993992Y-15537222D02*
X16993992Y-15556269D01*
X16993992Y-15556269D02*
X16898753Y-15575317D01*
X17070182Y-15632460D02*
X17089230Y-15641984D01*
X17089230Y-15641984D02*
X17127325Y-15641984D01*
X17127325Y-15641984D02*
X17146373Y-15632460D01*
X17146373Y-15632460D02*
X17155896Y-15613412D01*
X17155896Y-15613412D02*
X17155896Y-15603888D01*
X17155896Y-15603888D02*
X17146373Y-15584841D01*
X17146373Y-15584841D02*
X17127325Y-15575317D01*
X17127325Y-15575317D02*
X17098753Y-15575317D01*
X17098753Y-15575317D02*
X17079706Y-15565793D01*
X17079706Y-15565793D02*
X17070182Y-15546746D01*
X17070182Y-15546746D02*
X17070182Y-15537222D01*
X17070182Y-15537222D02*
X17079706Y-15518174D01*
X17079706Y-15518174D02*
X17098753Y-15508650D01*
X17098753Y-15508650D02*
X17127325Y-15508650D01*
X17127325Y-15508650D02*
X17146373Y-15518174D01*
X17222563Y-15718174D02*
X17232087Y-15708650D01*
X17232087Y-15708650D02*
X17251134Y-15680079D01*
X17251134Y-15680079D02*
X17260658Y-15661031D01*
X17260658Y-15661031D02*
X17270182Y-15632460D01*
X17270182Y-15632460D02*
X17279706Y-15584841D01*
X17279706Y-15584841D02*
X17279706Y-15546746D01*
X17279706Y-15546746D02*
X17270182Y-15499127D01*
X17270182Y-15499127D02*
X17260658Y-15470555D01*
X17260658Y-15470555D02*
X17251134Y-15451508D01*
X17251134Y-15451508D02*
X17232087Y-15422936D01*
X17232087Y-15422936D02*
X17222563Y-15413412D01*
X17584468Y-15718174D02*
X17574944Y-15708650D01*
X17574944Y-15708650D02*
X17555896Y-15680079D01*
X17555896Y-15680079D02*
X17546373Y-15661031D01*
X17546373Y-15661031D02*
X17536849Y-15632460D01*
X17536849Y-15632460D02*
X17527325Y-15584841D01*
X17527325Y-15584841D02*
X17527325Y-15546746D01*
X17527325Y-15546746D02*
X17536849Y-15499127D01*
X17536849Y-15499127D02*
X17546373Y-15470555D01*
X17546373Y-15470555D02*
X17555896Y-15451508D01*
X17555896Y-15451508D02*
X17574944Y-15422936D01*
X17574944Y-15422936D02*
X17584468Y-15413412D01*
X17660658Y-15508650D02*
X17660658Y-15641984D01*
X17660658Y-15527698D02*
X17670182Y-15518174D01*
X17670182Y-15518174D02*
X17689230Y-15508650D01*
X17689230Y-15508650D02*
X17717801Y-15508650D01*
X17717801Y-15508650D02*
X17736849Y-15518174D01*
X17736849Y-15518174D02*
X17746373Y-15537222D01*
X17746373Y-15537222D02*
X17746373Y-15641984D01*
X17870182Y-15641984D02*
X17851134Y-15632460D01*
X17851134Y-15632460D02*
X17841611Y-15622936D01*
X17841611Y-15622936D02*
X17832087Y-15603888D01*
X17832087Y-15603888D02*
X17832087Y-15546746D01*
X17832087Y-15546746D02*
X17841611Y-15527698D01*
X17841611Y-15527698D02*
X17851134Y-15518174D01*
X17851134Y-15518174D02*
X17870182Y-15508650D01*
X17870182Y-15508650D02*
X17898754Y-15508650D01*
X17898754Y-15508650D02*
X17917801Y-15518174D01*
X17917801Y-15518174D02*
X17927325Y-15527698D01*
X17927325Y-15527698D02*
X17936849Y-15546746D01*
X17936849Y-15546746D02*
X17936849Y-15603888D01*
X17936849Y-15603888D02*
X17927325Y-15622936D01*
X17927325Y-15622936D02*
X17917801Y-15632460D01*
X17917801Y-15632460D02*
X17898754Y-15641984D01*
X17898754Y-15641984D02*
X17870182Y-15641984D01*
X17993992Y-15508650D02*
X18070182Y-15508650D01*
X18022563Y-15441984D02*
X18022563Y-15613412D01*
X18022563Y-15613412D02*
X18032087Y-15632460D01*
X18032087Y-15632460D02*
X18051134Y-15641984D01*
X18051134Y-15641984D02*
X18070182Y-15641984D01*
X18289230Y-15508650D02*
X18289230Y-15708650D01*
X18289230Y-15518174D02*
X18308277Y-15508650D01*
X18308277Y-15508650D02*
X18346373Y-15508650D01*
X18346373Y-15508650D02*
X18365420Y-15518174D01*
X18365420Y-15518174D02*
X18374944Y-15527698D01*
X18374944Y-15527698D02*
X18384468Y-15546746D01*
X18384468Y-15546746D02*
X18384468Y-15603888D01*
X18384468Y-15603888D02*
X18374944Y-15622936D01*
X18374944Y-15622936D02*
X18365420Y-15632460D01*
X18365420Y-15632460D02*
X18346373Y-15641984D01*
X18346373Y-15641984D02*
X18308277Y-15641984D01*
X18308277Y-15641984D02*
X18289230Y-15632460D01*
X18498754Y-15641984D02*
X18479706Y-15632460D01*
X18479706Y-15632460D02*
X18470182Y-15613412D01*
X18470182Y-15613412D02*
X18470182Y-15441984D01*
X18660658Y-15641984D02*
X18660658Y-15537222D01*
X18660658Y-15537222D02*
X18651135Y-15518174D01*
X18651135Y-15518174D02*
X18632087Y-15508650D01*
X18632087Y-15508650D02*
X18593992Y-15508650D01*
X18593992Y-15508650D02*
X18574944Y-15518174D01*
X18660658Y-15632460D02*
X18641611Y-15641984D01*
X18641611Y-15641984D02*
X18593992Y-15641984D01*
X18593992Y-15641984D02*
X18574944Y-15632460D01*
X18574944Y-15632460D02*
X18565420Y-15613412D01*
X18565420Y-15613412D02*
X18565420Y-15594365D01*
X18565420Y-15594365D02*
X18574944Y-15575317D01*
X18574944Y-15575317D02*
X18593992Y-15565793D01*
X18593992Y-15565793D02*
X18641611Y-15565793D01*
X18641611Y-15565793D02*
X18660658Y-15556269D01*
X18727325Y-15508650D02*
X18803515Y-15508650D01*
X18755896Y-15441984D02*
X18755896Y-15613412D01*
X18755896Y-15613412D02*
X18765420Y-15632460D01*
X18765420Y-15632460D02*
X18784468Y-15641984D01*
X18784468Y-15641984D02*
X18803515Y-15641984D01*
X18946373Y-15632460D02*
X18927325Y-15641984D01*
X18927325Y-15641984D02*
X18889230Y-15641984D01*
X18889230Y-15641984D02*
X18870182Y-15632460D01*
X18870182Y-15632460D02*
X18860658Y-15613412D01*
X18860658Y-15613412D02*
X18860658Y-15537222D01*
X18860658Y-15537222D02*
X18870182Y-15518174D01*
X18870182Y-15518174D02*
X18889230Y-15508650D01*
X18889230Y-15508650D02*
X18927325Y-15508650D01*
X18927325Y-15508650D02*
X18946373Y-15518174D01*
X18946373Y-15518174D02*
X18955896Y-15537222D01*
X18955896Y-15537222D02*
X18955896Y-15556269D01*
X18955896Y-15556269D02*
X18860658Y-15575317D01*
X19127325Y-15641984D02*
X19127325Y-15441984D01*
X19127325Y-15632460D02*
X19108277Y-15641984D01*
X19108277Y-15641984D02*
X19070182Y-15641984D01*
X19070182Y-15641984D02*
X19051135Y-15632460D01*
X19051135Y-15632460D02*
X19041611Y-15622936D01*
X19041611Y-15622936D02*
X19032087Y-15603888D01*
X19032087Y-15603888D02*
X19032087Y-15546746D01*
X19032087Y-15546746D02*
X19041611Y-15527698D01*
X19041611Y-15527698D02*
X19051135Y-15518174D01*
X19051135Y-15518174D02*
X19070182Y-15508650D01*
X19070182Y-15508650D02*
X19108277Y-15508650D01*
X19108277Y-15508650D02*
X19127325Y-15518174D01*
X19203516Y-15718174D02*
X19213039Y-15708650D01*
X19213039Y-15708650D02*
X19232087Y-15680079D01*
X19232087Y-15680079D02*
X19241611Y-15661031D01*
X19241611Y-15661031D02*
X19251135Y-15632460D01*
X19251135Y-15632460D02*
X19260658Y-15584841D01*
X19260658Y-15584841D02*
X19260658Y-15546746D01*
X19260658Y-15546746D02*
X19251135Y-15499127D01*
X19251135Y-15499127D02*
X19241611Y-15470555D01*
X19241611Y-15470555D02*
X19232087Y-15451508D01*
X19232087Y-15451508D02*
X19213039Y-15422936D01*
X19213039Y-15422936D02*
X19203516Y-15413412D01*
X12447500Y-15870500D02*
G75*
G02*
X12247500Y-15870500I-100000J0D01*
G01*
X12247500Y-15870500D02*
G75*
G02*
X12447500Y-15870500I100000J0D01*
G01*
X12689229Y-15761984D02*
X12813039Y-15761984D01*
X12813039Y-15761984D02*
X12746372Y-15838174D01*
X12746372Y-15838174D02*
X12774943Y-15838174D01*
X12774943Y-15838174D02*
X12793991Y-15847698D01*
X12793991Y-15847698D02*
X12803515Y-15857222D01*
X12803515Y-15857222D02*
X12813039Y-15876269D01*
X12813039Y-15876269D02*
X12813039Y-15923888D01*
X12813039Y-15923888D02*
X12803515Y-15942936D01*
X12803515Y-15942936D02*
X12793991Y-15952460D01*
X12793991Y-15952460D02*
X12774943Y-15961984D01*
X12774943Y-15961984D02*
X12717801Y-15961984D01*
X12717801Y-15961984D02*
X12698753Y-15952460D01*
X12698753Y-15952460D02*
X12689229Y-15942936D01*
X12898753Y-15942936D02*
X12908277Y-15952460D01*
X12908277Y-15952460D02*
X12898753Y-15961984D01*
X12898753Y-15961984D02*
X12889229Y-15952460D01*
X12889229Y-15952460D02*
X12898753Y-15942936D01*
X12898753Y-15942936D02*
X12898753Y-15961984D01*
X12984467Y-15781031D02*
X12993991Y-15771508D01*
X12993991Y-15771508D02*
X13013039Y-15761984D01*
X13013039Y-15761984D02*
X13060658Y-15761984D01*
X13060658Y-15761984D02*
X13079705Y-15771508D01*
X13079705Y-15771508D02*
X13089229Y-15781031D01*
X13089229Y-15781031D02*
X13098753Y-15800079D01*
X13098753Y-15800079D02*
X13098753Y-15819127D01*
X13098753Y-15819127D02*
X13089229Y-15847698D01*
X13089229Y-15847698D02*
X12974943Y-15961984D01*
X12974943Y-15961984D02*
X13098753Y-15961984D01*
X13279705Y-15761984D02*
X13184467Y-15761984D01*
X13184467Y-15761984D02*
X13174943Y-15857222D01*
X13174943Y-15857222D02*
X13184467Y-15847698D01*
X13184467Y-15847698D02*
X13203515Y-15838174D01*
X13203515Y-15838174D02*
X13251134Y-15838174D01*
X13251134Y-15838174D02*
X13270182Y-15847698D01*
X13270182Y-15847698D02*
X13279705Y-15857222D01*
X13279705Y-15857222D02*
X13289229Y-15876269D01*
X13289229Y-15876269D02*
X13289229Y-15923888D01*
X13289229Y-15923888D02*
X13279705Y-15942936D01*
X13279705Y-15942936D02*
X13270182Y-15952460D01*
X13270182Y-15952460D02*
X13251134Y-15961984D01*
X13251134Y-15961984D02*
X13203515Y-15961984D01*
X13203515Y-15961984D02*
X13184467Y-15952460D01*
X13184467Y-15952460D02*
X13174943Y-15942936D01*
X13413039Y-15761984D02*
X13432086Y-15761984D01*
X13432086Y-15761984D02*
X13451134Y-15771508D01*
X13451134Y-15771508D02*
X13460658Y-15781031D01*
X13460658Y-15781031D02*
X13470182Y-15800079D01*
X13470182Y-15800079D02*
X13479705Y-15838174D01*
X13479705Y-15838174D02*
X13479705Y-15885793D01*
X13479705Y-15885793D02*
X13470182Y-15923888D01*
X13470182Y-15923888D02*
X13460658Y-15942936D01*
X13460658Y-15942936D02*
X13451134Y-15952460D01*
X13451134Y-15952460D02*
X13432086Y-15961984D01*
X13432086Y-15961984D02*
X13413039Y-15961984D01*
X13413039Y-15961984D02*
X13393991Y-15952460D01*
X13393991Y-15952460D02*
X13384467Y-15942936D01*
X13384467Y-15942936D02*
X13374943Y-15923888D01*
X13374943Y-15923888D02*
X13365420Y-15885793D01*
X13365420Y-15885793D02*
X13365420Y-15838174D01*
X13365420Y-15838174D02*
X13374943Y-15800079D01*
X13374943Y-15800079D02*
X13384467Y-15781031D01*
X13384467Y-15781031D02*
X13393991Y-15771508D01*
X13393991Y-15771508D02*
X13413039Y-15761984D01*
X13565420Y-15961984D02*
X13565420Y-15828650D01*
X13565420Y-15847698D02*
X13574943Y-15838174D01*
X13574943Y-15838174D02*
X13593991Y-15828650D01*
X13593991Y-15828650D02*
X13622563Y-15828650D01*
X13622563Y-15828650D02*
X13641610Y-15838174D01*
X13641610Y-15838174D02*
X13651134Y-15857222D01*
X13651134Y-15857222D02*
X13651134Y-15961984D01*
X13651134Y-15857222D02*
X13660658Y-15838174D01*
X13660658Y-15838174D02*
X13679705Y-15828650D01*
X13679705Y-15828650D02*
X13708277Y-15828650D01*
X13708277Y-15828650D02*
X13727324Y-15838174D01*
X13727324Y-15838174D02*
X13736848Y-15857222D01*
X13736848Y-15857222D02*
X13736848Y-15961984D01*
X13832086Y-15961984D02*
X13832086Y-15828650D01*
X13832086Y-15847698D02*
X13841610Y-15838174D01*
X13841610Y-15838174D02*
X13860658Y-15828650D01*
X13860658Y-15828650D02*
X13889229Y-15828650D01*
X13889229Y-15828650D02*
X13908277Y-15838174D01*
X13908277Y-15838174D02*
X13917801Y-15857222D01*
X13917801Y-15857222D02*
X13917801Y-15961984D01*
X13917801Y-15857222D02*
X13927324Y-15838174D01*
X13927324Y-15838174D02*
X13946372Y-15828650D01*
X13946372Y-15828650D02*
X13974943Y-15828650D01*
X13974943Y-15828650D02*
X13993991Y-15838174D01*
X13993991Y-15838174D02*
X14003515Y-15857222D01*
X14003515Y-15857222D02*
X14003515Y-15961984D01*
X14393991Y-15752460D02*
X14222563Y-16009603D01*
X14651134Y-15761984D02*
X14670182Y-15761984D01*
X14670182Y-15761984D02*
X14689229Y-15771508D01*
X14689229Y-15771508D02*
X14698753Y-15781031D01*
X14698753Y-15781031D02*
X14708277Y-15800079D01*
X14708277Y-15800079D02*
X14717801Y-15838174D01*
X14717801Y-15838174D02*
X14717801Y-15885793D01*
X14717801Y-15885793D02*
X14708277Y-15923888D01*
X14708277Y-15923888D02*
X14698753Y-15942936D01*
X14698753Y-15942936D02*
X14689229Y-15952460D01*
X14689229Y-15952460D02*
X14670182Y-15961984D01*
X14670182Y-15961984D02*
X14651134Y-15961984D01*
X14651134Y-15961984D02*
X14632086Y-15952460D01*
X14632086Y-15952460D02*
X14622563Y-15942936D01*
X14622563Y-15942936D02*
X14613039Y-15923888D01*
X14613039Y-15923888D02*
X14603515Y-15885793D01*
X14603515Y-15885793D02*
X14603515Y-15838174D01*
X14603515Y-15838174D02*
X14613039Y-15800079D01*
X14613039Y-15800079D02*
X14622563Y-15781031D01*
X14622563Y-15781031D02*
X14632086Y-15771508D01*
X14632086Y-15771508D02*
X14651134Y-15761984D01*
X14803515Y-15942936D02*
X14813039Y-15952460D01*
X14813039Y-15952460D02*
X14803515Y-15961984D01*
X14803515Y-15961984D02*
X14793991Y-15952460D01*
X14793991Y-15952460D02*
X14803515Y-15942936D01*
X14803515Y-15942936D02*
X14803515Y-15961984D01*
X15003515Y-15961984D02*
X14889229Y-15961984D01*
X14946372Y-15961984D02*
X14946372Y-15761984D01*
X14946372Y-15761984D02*
X14927325Y-15790555D01*
X14927325Y-15790555D02*
X14908277Y-15809603D01*
X14908277Y-15809603D02*
X14889229Y-15819127D01*
X15079706Y-15781031D02*
X15089229Y-15771508D01*
X15089229Y-15771508D02*
X15108277Y-15761984D01*
X15108277Y-15761984D02*
X15155896Y-15761984D01*
X15155896Y-15761984D02*
X15174944Y-15771508D01*
X15174944Y-15771508D02*
X15184467Y-15781031D01*
X15184467Y-15781031D02*
X15193991Y-15800079D01*
X15193991Y-15800079D02*
X15193991Y-15819127D01*
X15193991Y-15819127D02*
X15184467Y-15847698D01*
X15184467Y-15847698D02*
X15070182Y-15961984D01*
X15070182Y-15961984D02*
X15193991Y-15961984D01*
X15308277Y-15847698D02*
X15289229Y-15838174D01*
X15289229Y-15838174D02*
X15279706Y-15828650D01*
X15279706Y-15828650D02*
X15270182Y-15809603D01*
X15270182Y-15809603D02*
X15270182Y-15800079D01*
X15270182Y-15800079D02*
X15279706Y-15781031D01*
X15279706Y-15781031D02*
X15289229Y-15771508D01*
X15289229Y-15771508D02*
X15308277Y-15761984D01*
X15308277Y-15761984D02*
X15346372Y-15761984D01*
X15346372Y-15761984D02*
X15365420Y-15771508D01*
X15365420Y-15771508D02*
X15374944Y-15781031D01*
X15374944Y-15781031D02*
X15384467Y-15800079D01*
X15384467Y-15800079D02*
X15384467Y-15809603D01*
X15384467Y-15809603D02*
X15374944Y-15828650D01*
X15374944Y-15828650D02*
X15365420Y-15838174D01*
X15365420Y-15838174D02*
X15346372Y-15847698D01*
X15346372Y-15847698D02*
X15308277Y-15847698D01*
X15308277Y-15847698D02*
X15289229Y-15857222D01*
X15289229Y-15857222D02*
X15279706Y-15866746D01*
X15279706Y-15866746D02*
X15270182Y-15885793D01*
X15270182Y-15885793D02*
X15270182Y-15923888D01*
X15270182Y-15923888D02*
X15279706Y-15942936D01*
X15279706Y-15942936D02*
X15289229Y-15952460D01*
X15289229Y-15952460D02*
X15308277Y-15961984D01*
X15308277Y-15961984D02*
X15346372Y-15961984D01*
X15346372Y-15961984D02*
X15365420Y-15952460D01*
X15365420Y-15952460D02*
X15374944Y-15942936D01*
X15374944Y-15942936D02*
X15384467Y-15923888D01*
X15384467Y-15923888D02*
X15384467Y-15885793D01*
X15384467Y-15885793D02*
X15374944Y-15866746D01*
X15374944Y-15866746D02*
X15365420Y-15857222D01*
X15365420Y-15857222D02*
X15346372Y-15847698D01*
X15508277Y-15761984D02*
X15527325Y-15761984D01*
X15527325Y-15761984D02*
X15546372Y-15771508D01*
X15546372Y-15771508D02*
X15555896Y-15781031D01*
X15555896Y-15781031D02*
X15565420Y-15800079D01*
X15565420Y-15800079D02*
X15574944Y-15838174D01*
X15574944Y-15838174D02*
X15574944Y-15885793D01*
X15574944Y-15885793D02*
X15565420Y-15923888D01*
X15565420Y-15923888D02*
X15555896Y-15942936D01*
X15555896Y-15942936D02*
X15546372Y-15952460D01*
X15546372Y-15952460D02*
X15527325Y-15961984D01*
X15527325Y-15961984D02*
X15508277Y-15961984D01*
X15508277Y-15961984D02*
X15489229Y-15952460D01*
X15489229Y-15952460D02*
X15479706Y-15942936D01*
X15479706Y-15942936D02*
X15470182Y-15923888D01*
X15470182Y-15923888D02*
X15460658Y-15885793D01*
X15460658Y-15885793D02*
X15460658Y-15838174D01*
X15460658Y-15838174D02*
X15470182Y-15800079D01*
X15470182Y-15800079D02*
X15479706Y-15781031D01*
X15479706Y-15781031D02*
X15489229Y-15771508D01*
X15489229Y-15771508D02*
X15508277Y-15761984D01*
X15651134Y-15761984D02*
X15651134Y-15800079D01*
X15727325Y-15761984D02*
X15727325Y-15800079D01*
X16022563Y-16038174D02*
X16013039Y-16028650D01*
X16013039Y-16028650D02*
X15993991Y-16000079D01*
X15993991Y-16000079D02*
X15984468Y-15981031D01*
X15984468Y-15981031D02*
X15974944Y-15952460D01*
X15974944Y-15952460D02*
X15965420Y-15904841D01*
X15965420Y-15904841D02*
X15965420Y-15866746D01*
X15965420Y-15866746D02*
X15974944Y-15819127D01*
X15974944Y-15819127D02*
X15984468Y-15790555D01*
X15984468Y-15790555D02*
X15993991Y-15771508D01*
X15993991Y-15771508D02*
X16013039Y-15742936D01*
X16013039Y-15742936D02*
X16022563Y-15733412D01*
X16184468Y-15828650D02*
X16184468Y-15961984D01*
X16136848Y-15752460D02*
X16089229Y-15895317D01*
X16089229Y-15895317D02*
X16213039Y-15895317D01*
X16441610Y-15961984D02*
X16441610Y-15761984D01*
X16527325Y-15961984D02*
X16527325Y-15857222D01*
X16527325Y-15857222D02*
X16517801Y-15838174D01*
X16517801Y-15838174D02*
X16498753Y-15828650D01*
X16498753Y-15828650D02*
X16470182Y-15828650D01*
X16470182Y-15828650D02*
X16451134Y-15838174D01*
X16451134Y-15838174D02*
X16441610Y-15847698D01*
X16651134Y-15961984D02*
X16632087Y-15952460D01*
X16632087Y-15952460D02*
X16622563Y-15942936D01*
X16622563Y-15942936D02*
X16613039Y-15923888D01*
X16613039Y-15923888D02*
X16613039Y-15866746D01*
X16613039Y-15866746D02*
X16622563Y-15847698D01*
X16622563Y-15847698D02*
X16632087Y-15838174D01*
X16632087Y-15838174D02*
X16651134Y-15828650D01*
X16651134Y-15828650D02*
X16679706Y-15828650D01*
X16679706Y-15828650D02*
X16698753Y-15838174D01*
X16698753Y-15838174D02*
X16708277Y-15847698D01*
X16708277Y-15847698D02*
X16717801Y-15866746D01*
X16717801Y-15866746D02*
X16717801Y-15923888D01*
X16717801Y-15923888D02*
X16708277Y-15942936D01*
X16708277Y-15942936D02*
X16698753Y-15952460D01*
X16698753Y-15952460D02*
X16679706Y-15961984D01*
X16679706Y-15961984D02*
X16651134Y-15961984D01*
X16832087Y-15961984D02*
X16813039Y-15952460D01*
X16813039Y-15952460D02*
X16803515Y-15933412D01*
X16803515Y-15933412D02*
X16803515Y-15761984D01*
X16984468Y-15952460D02*
X16965420Y-15961984D01*
X16965420Y-15961984D02*
X16927325Y-15961984D01*
X16927325Y-15961984D02*
X16908277Y-15952460D01*
X16908277Y-15952460D02*
X16898753Y-15933412D01*
X16898753Y-15933412D02*
X16898753Y-15857222D01*
X16898753Y-15857222D02*
X16908277Y-15838174D01*
X16908277Y-15838174D02*
X16927325Y-15828650D01*
X16927325Y-15828650D02*
X16965420Y-15828650D01*
X16965420Y-15828650D02*
X16984468Y-15838174D01*
X16984468Y-15838174D02*
X16993992Y-15857222D01*
X16993992Y-15857222D02*
X16993992Y-15876269D01*
X16993992Y-15876269D02*
X16898753Y-15895317D01*
X17070182Y-15952460D02*
X17089230Y-15961984D01*
X17089230Y-15961984D02*
X17127325Y-15961984D01*
X17127325Y-15961984D02*
X17146373Y-15952460D01*
X17146373Y-15952460D02*
X17155896Y-15933412D01*
X17155896Y-15933412D02*
X17155896Y-15923888D01*
X17155896Y-15923888D02*
X17146373Y-15904841D01*
X17146373Y-15904841D02*
X17127325Y-15895317D01*
X17127325Y-15895317D02*
X17098753Y-15895317D01*
X17098753Y-15895317D02*
X17079706Y-15885793D01*
X17079706Y-15885793D02*
X17070182Y-15866746D01*
X17070182Y-15866746D02*
X17070182Y-15857222D01*
X17070182Y-15857222D02*
X17079706Y-15838174D01*
X17079706Y-15838174D02*
X17098753Y-15828650D01*
X17098753Y-15828650D02*
X17127325Y-15828650D01*
X17127325Y-15828650D02*
X17146373Y-15838174D01*
X17222563Y-16038174D02*
X17232087Y-16028650D01*
X17232087Y-16028650D02*
X17251134Y-16000079D01*
X17251134Y-16000079D02*
X17260658Y-15981031D01*
X17260658Y-15981031D02*
X17270182Y-15952460D01*
X17270182Y-15952460D02*
X17279706Y-15904841D01*
X17279706Y-15904841D02*
X17279706Y-15866746D01*
X17279706Y-15866746D02*
X17270182Y-15819127D01*
X17270182Y-15819127D02*
X17260658Y-15790555D01*
X17260658Y-15790555D02*
X17251134Y-15771508D01*
X17251134Y-15771508D02*
X17232087Y-15742936D01*
X17232087Y-15742936D02*
X17222563Y-15733412D01*
X17584468Y-16038174D02*
X17574944Y-16028650D01*
X17574944Y-16028650D02*
X17555896Y-16000079D01*
X17555896Y-16000079D02*
X17546373Y-15981031D01*
X17546373Y-15981031D02*
X17536849Y-15952460D01*
X17536849Y-15952460D02*
X17527325Y-15904841D01*
X17527325Y-15904841D02*
X17527325Y-15866746D01*
X17527325Y-15866746D02*
X17536849Y-15819127D01*
X17536849Y-15819127D02*
X17546373Y-15790555D01*
X17546373Y-15790555D02*
X17555896Y-15771508D01*
X17555896Y-15771508D02*
X17574944Y-15742936D01*
X17574944Y-15742936D02*
X17584468Y-15733412D01*
X17660658Y-15828650D02*
X17660658Y-15961984D01*
X17660658Y-15847698D02*
X17670182Y-15838174D01*
X17670182Y-15838174D02*
X17689230Y-15828650D01*
X17689230Y-15828650D02*
X17717801Y-15828650D01*
X17717801Y-15828650D02*
X17736849Y-15838174D01*
X17736849Y-15838174D02*
X17746373Y-15857222D01*
X17746373Y-15857222D02*
X17746373Y-15961984D01*
X17870182Y-15961984D02*
X17851134Y-15952460D01*
X17851134Y-15952460D02*
X17841611Y-15942936D01*
X17841611Y-15942936D02*
X17832087Y-15923888D01*
X17832087Y-15923888D02*
X17832087Y-15866746D01*
X17832087Y-15866746D02*
X17841611Y-15847698D01*
X17841611Y-15847698D02*
X17851134Y-15838174D01*
X17851134Y-15838174D02*
X17870182Y-15828650D01*
X17870182Y-15828650D02*
X17898754Y-15828650D01*
X17898754Y-15828650D02*
X17917801Y-15838174D01*
X17917801Y-15838174D02*
X17927325Y-15847698D01*
X17927325Y-15847698D02*
X17936849Y-15866746D01*
X17936849Y-15866746D02*
X17936849Y-15923888D01*
X17936849Y-15923888D02*
X17927325Y-15942936D01*
X17927325Y-15942936D02*
X17917801Y-15952460D01*
X17917801Y-15952460D02*
X17898754Y-15961984D01*
X17898754Y-15961984D02*
X17870182Y-15961984D01*
X17993992Y-15828650D02*
X18070182Y-15828650D01*
X18022563Y-15761984D02*
X18022563Y-15933412D01*
X18022563Y-15933412D02*
X18032087Y-15952460D01*
X18032087Y-15952460D02*
X18051134Y-15961984D01*
X18051134Y-15961984D02*
X18070182Y-15961984D01*
X18289230Y-15828650D02*
X18289230Y-16028650D01*
X18289230Y-15838174D02*
X18308277Y-15828650D01*
X18308277Y-15828650D02*
X18346373Y-15828650D01*
X18346373Y-15828650D02*
X18365420Y-15838174D01*
X18365420Y-15838174D02*
X18374944Y-15847698D01*
X18374944Y-15847698D02*
X18384468Y-15866746D01*
X18384468Y-15866746D02*
X18384468Y-15923888D01*
X18384468Y-15923888D02*
X18374944Y-15942936D01*
X18374944Y-15942936D02*
X18365420Y-15952460D01*
X18365420Y-15952460D02*
X18346373Y-15961984D01*
X18346373Y-15961984D02*
X18308277Y-15961984D01*
X18308277Y-15961984D02*
X18289230Y-15952460D01*
X18498754Y-15961984D02*
X18479706Y-15952460D01*
X18479706Y-15952460D02*
X18470182Y-15933412D01*
X18470182Y-15933412D02*
X18470182Y-15761984D01*
X18660658Y-15961984D02*
X18660658Y-15857222D01*
X18660658Y-15857222D02*
X18651135Y-15838174D01*
X18651135Y-15838174D02*
X18632087Y-15828650D01*
X18632087Y-15828650D02*
X18593992Y-15828650D01*
X18593992Y-15828650D02*
X18574944Y-15838174D01*
X18660658Y-15952460D02*
X18641611Y-15961984D01*
X18641611Y-15961984D02*
X18593992Y-15961984D01*
X18593992Y-15961984D02*
X18574944Y-15952460D01*
X18574944Y-15952460D02*
X18565420Y-15933412D01*
X18565420Y-15933412D02*
X18565420Y-15914365D01*
X18565420Y-15914365D02*
X18574944Y-15895317D01*
X18574944Y-15895317D02*
X18593992Y-15885793D01*
X18593992Y-15885793D02*
X18641611Y-15885793D01*
X18641611Y-15885793D02*
X18660658Y-15876269D01*
X18727325Y-15828650D02*
X18803515Y-15828650D01*
X18755896Y-15761984D02*
X18755896Y-15933412D01*
X18755896Y-15933412D02*
X18765420Y-15952460D01*
X18765420Y-15952460D02*
X18784468Y-15961984D01*
X18784468Y-15961984D02*
X18803515Y-15961984D01*
X18946373Y-15952460D02*
X18927325Y-15961984D01*
X18927325Y-15961984D02*
X18889230Y-15961984D01*
X18889230Y-15961984D02*
X18870182Y-15952460D01*
X18870182Y-15952460D02*
X18860658Y-15933412D01*
X18860658Y-15933412D02*
X18860658Y-15857222D01*
X18860658Y-15857222D02*
X18870182Y-15838174D01*
X18870182Y-15838174D02*
X18889230Y-15828650D01*
X18889230Y-15828650D02*
X18927325Y-15828650D01*
X18927325Y-15828650D02*
X18946373Y-15838174D01*
X18946373Y-15838174D02*
X18955896Y-15857222D01*
X18955896Y-15857222D02*
X18955896Y-15876269D01*
X18955896Y-15876269D02*
X18860658Y-15895317D01*
X19127325Y-15961984D02*
X19127325Y-15761984D01*
X19127325Y-15952460D02*
X19108277Y-15961984D01*
X19108277Y-15961984D02*
X19070182Y-15961984D01*
X19070182Y-15961984D02*
X19051135Y-15952460D01*
X19051135Y-15952460D02*
X19041611Y-15942936D01*
X19041611Y-15942936D02*
X19032087Y-15923888D01*
X19032087Y-15923888D02*
X19032087Y-15866746D01*
X19032087Y-15866746D02*
X19041611Y-15847698D01*
X19041611Y-15847698D02*
X19051135Y-15838174D01*
X19051135Y-15838174D02*
X19070182Y-15828650D01*
X19070182Y-15828650D02*
X19108277Y-15828650D01*
X19108277Y-15828650D02*
X19127325Y-15838174D01*
X19203516Y-16038174D02*
X19213039Y-16028650D01*
X19213039Y-16028650D02*
X19232087Y-16000079D01*
X19232087Y-16000079D02*
X19241611Y-15981031D01*
X19241611Y-15981031D02*
X19251135Y-15952460D01*
X19251135Y-15952460D02*
X19260658Y-15904841D01*
X19260658Y-15904841D02*
X19260658Y-15866746D01*
X19260658Y-15866746D02*
X19251135Y-15819127D01*
X19251135Y-15819127D02*
X19241611Y-15790555D01*
X19241611Y-15790555D02*
X19232087Y-15771508D01*
X19232087Y-15771508D02*
X19213039Y-15742936D01*
X19213039Y-15742936D02*
X19203516Y-15733412D01*
M02*
