%TF.GenerationSoftware,KiCad,Pcbnew,8.0.0*%
%TF.CreationDate,2024-12-13T11:09:15-06:00*%
%TF.ProjectId,Rain connectors,5261696e-2063-46f6-9e6e-6563746f7273,rev?*%
%TF.SameCoordinates,Original*%
%TF.FileFunction,Copper,L1,Top*%
%TF.FilePolarity,Positive*%
%FSLAX46Y46*%
G04 Gerber Fmt 4.6, Leading zero omitted, Abs format (unit mm)*
G04 Created by KiCad (PCBNEW 8.0.0) date 2024-12-13 11:09:15*
%MOMM*%
%LPD*%
G01*
G04 APERTURE LIST*
G04 Aperture macros list*
%AMRoundRect*
0 Rectangle with rounded corners*
0 $1 Rounding radius*
0 $2 $3 $4 $5 $6 $7 $8 $9 X,Y pos of 4 corners*
0 Add a 4 corners polygon primitive as box body*
4,1,4,$2,$3,$4,$5,$6,$7,$8,$9,$2,$3,0*
0 Add four circle primitives for the rounded corners*
1,1,$1+$1,$2,$3*
1,1,$1+$1,$4,$5*
1,1,$1+$1,$6,$7*
1,1,$1+$1,$8,$9*
0 Add four rect primitives between the rounded corners*
20,1,$1+$1,$2,$3,$4,$5,0*
20,1,$1+$1,$4,$5,$6,$7,0*
20,1,$1+$1,$6,$7,$8,$9,0*
20,1,$1+$1,$8,$9,$2,$3,0*%
%AMFreePoly0*
4,1,19,0.500000,-0.750000,0.000000,-0.750000,0.000000,-0.744911,-0.071157,-0.744911,-0.207708,-0.704816,-0.327430,-0.627875,-0.420627,-0.520320,-0.479746,-0.390866,-0.500000,-0.250000,-0.500000,0.250000,-0.479746,0.390866,-0.420627,0.520320,-0.327430,0.627875,-0.207708,0.704816,-0.071157,0.744911,0.000000,0.744911,0.000000,0.750000,0.500000,0.750000,0.500000,-0.750000,0.500000,-0.750000,
$1*%
%AMFreePoly1*
4,1,19,0.000000,0.744911,0.071157,0.744911,0.207708,0.704816,0.327430,0.627875,0.420627,0.520320,0.479746,0.390866,0.500000,0.250000,0.500000,-0.250000,0.479746,-0.390866,0.420627,-0.520320,0.327430,-0.627875,0.207708,-0.704816,0.071157,-0.744911,0.000000,-0.744911,0.000000,-0.750000,-0.500000,-0.750000,-0.500000,0.750000,0.000000,0.750000,0.000000,0.744911,0.000000,0.744911,
$1*%
G04 Aperture macros list end*
%TA.AperFunction,SMDPad,CuDef*%
%ADD10FreePoly0,90.000000*%
%TD*%
%TA.AperFunction,SMDPad,CuDef*%
%ADD11FreePoly1,90.000000*%
%TD*%
%TA.AperFunction,ComponentPad*%
%ADD12RoundRect,0.250000X0.725000X-0.600000X0.725000X0.600000X-0.725000X0.600000X-0.725000X-0.600000X0*%
%TD*%
%TA.AperFunction,ComponentPad*%
%ADD13O,1.950000X1.700000*%
%TD*%
%TA.AperFunction,ComponentPad*%
%ADD14RoundRect,0.250000X-0.725000X0.600000X-0.725000X-0.600000X0.725000X-0.600000X0.725000X0.600000X0*%
%TD*%
%TA.AperFunction,ComponentPad*%
%ADD15O,1.350000X1.350000*%
%TD*%
%TA.AperFunction,ComponentPad*%
%ADD16R,1.350000X1.350000*%
%TD*%
%TA.AperFunction,Conductor*%
%ADD17C,0.762000*%
%TD*%
%TA.AperFunction,Conductor*%
%ADD18C,0.200000*%
%TD*%
G04 APERTURE END LIST*
D10*
%TO.P,4,1,A*%
%TO.N,Net-(J3-Pin_2)*%
X146450000Y-93875000D03*
D11*
%TO.P,4,2,B*%
%TO.N,Net-(J1-Pin_5)*%
X146450000Y-92575000D03*
%TD*%
D10*
%TO.P,3,1,A*%
%TO.N,Net-(J3-Pin_2)*%
X141700000Y-93875000D03*
D11*
%TO.P,3,2,B*%
%TO.N,Net-(J1-Pin_4)*%
X141700000Y-92575000D03*
%TD*%
D10*
%TO.P,2,1,A*%
%TO.N,Net-(J3-Pin_2)*%
X127100000Y-93875000D03*
D11*
%TO.P,2,2,B*%
%TO.N,Net-(J1-Pin_3)*%
X127100000Y-92575000D03*
%TD*%
D10*
%TO.P,1,1,A*%
%TO.N,Net-(J3-Pin_2)*%
X122250000Y-93875000D03*
D11*
%TO.P,1,2,B*%
%TO.N,Net-(J1-Pin_2)*%
X122250000Y-92575000D03*
%TD*%
D12*
%TO.P,J2,1,Pin_1*%
%TO.N,+5V*%
X138600000Y-86675000D03*
D13*
%TO.P,J2,2,Pin_2*%
%TO.N,Net-(J1-Pin_2)*%
X138600000Y-84175000D03*
%TO.P,J2,3,Pin_3*%
%TO.N,Net-(J1-Pin_3)*%
X138600000Y-81675000D03*
%TO.P,J2,4,Pin_4*%
%TO.N,Net-(J1-Pin_4)*%
X138600000Y-79175000D03*
%TO.P,J2,5,Pin_5*%
%TO.N,Net-(J1-Pin_5)*%
X138600000Y-76675000D03*
%TO.P,J2,6,Pin_6*%
%TO.N,GND*%
X138600000Y-74175000D03*
%TD*%
D14*
%TO.P,J1,1,Pin_1*%
%TO.N,+5V*%
X130100000Y-74175000D03*
D13*
%TO.P,J1,2,Pin_2*%
%TO.N,Net-(J1-Pin_2)*%
X130100000Y-76675000D03*
%TO.P,J1,3,Pin_3*%
%TO.N,Net-(J1-Pin_3)*%
X130100000Y-79175000D03*
%TO.P,J1,4,Pin_4*%
%TO.N,Net-(J1-Pin_4)*%
X130100000Y-81675000D03*
%TO.P,J1,5,Pin_5*%
%TO.N,Net-(J1-Pin_5)*%
X130100000Y-84175000D03*
%TO.P,J1,6,Pin_6*%
%TO.N,GND*%
X130100000Y-86675000D03*
%TD*%
D15*
%TO.P,J3,3,Pin_3*%
%TO.N,GND*%
X132550000Y-93575000D03*
%TO.P,J3,2,Pin_2*%
%TO.N,Net-(J3-Pin_2)*%
X134550000Y-93575000D03*
D16*
%TO.P,J3,1,Pin_1*%
%TO.N,+5V*%
X136550000Y-93575000D03*
%TD*%
D17*
%TO.N,+5V*%
X138600000Y-91525000D02*
X136550000Y-93575000D01*
X138600000Y-86675000D02*
X138600000Y-91525000D01*
%TO.N,GND*%
X130100000Y-86675000D02*
X130100000Y-91125000D01*
X130100000Y-91125000D02*
X132550000Y-93575000D01*
D18*
%TO.N,Net-(J1-Pin_4)*%
X141700000Y-82275000D02*
X141700000Y-92575000D01*
X138600000Y-79175000D02*
X141700000Y-82275000D01*
%TO.N,Net-(J1-Pin_5)*%
X146450000Y-84525000D02*
X146450000Y-92575000D01*
X138600000Y-76675000D02*
X146450000Y-84525000D01*
%TO.N,Net-(J1-Pin_3)*%
X127100000Y-82175000D02*
X127100000Y-92575000D01*
X130100000Y-79175000D02*
X127100000Y-82175000D01*
%TO.N,Net-(J1-Pin_2)*%
X121790504Y-84984496D02*
X130100000Y-76675000D01*
X121790504Y-92115504D02*
X121790504Y-84984496D01*
X122250000Y-92575000D02*
X121790504Y-92115504D01*
%TO.N,Net-(J3-Pin_2)*%
X141025000Y-94550000D02*
X135525000Y-94550000D01*
X141700000Y-93875000D02*
X141025000Y-94550000D01*
X135525000Y-94550000D02*
X134550000Y-93575000D01*
X141700000Y-93875000D02*
X146450000Y-93875000D01*
X127775000Y-94550000D02*
X133575000Y-94550000D01*
X127100000Y-93875000D02*
X127775000Y-94550000D01*
X133575000Y-94550000D02*
X134550000Y-93575000D01*
X122250000Y-93875000D02*
X127100000Y-93875000D01*
D17*
%TO.N,+5V*%
X135800000Y-86675000D02*
X138600000Y-86675000D01*
X130100000Y-74175000D02*
X133125000Y-74175000D01*
X133125000Y-74175000D02*
X134500000Y-75550000D01*
X134500000Y-75550000D02*
X134500000Y-85375000D01*
X134500000Y-85375000D02*
X135800000Y-86675000D01*
%TD*%
M02*
