%TF.GenerationSoftware,KiCad,Pcbnew,8.0.0*%
%TF.CreationDate,2024-11-14T09:50:41-06:00*%
%TF.ProjectId,Rain connectors,5261696e-2063-46f6-9e6e-6563746f7273,rev?*%
%TF.SameCoordinates,Original*%
%TF.FileFunction,Drillmap*%
%TF.FilePolarity,Positive*%
%FSLAX45Y45*%
G04 Gerber Fmt 4.5, Leading zero omitted, Abs format (unit mm)*
G04 Created by KiCad (PCBNEW 8.0.0) date 2024-11-14 09:50:41*
%MOMM*%
%LPD*%
G01*
G04 APERTURE LIST*
%ADD10C,0.050000*%
%ADD11C,0.200000*%
%ADD12C,0.100000*%
G04 APERTURE END LIST*
D10*
X12300000Y-7147500D02*
X14567500Y-7147500D01*
X14567500Y-9647500D01*
X12300000Y-9647500D01*
X12300000Y-7147500D01*
D11*
D12*
X12882500Y-8947500D02*
X12912500Y-8977500D01*
X12912500Y-8947500D02*
X12882500Y-8977500D01*
X13412500Y-7895000D02*
X13442500Y-7925000D01*
X13442500Y-7895000D02*
X13412500Y-7925000D01*
X13412500Y-8090000D02*
X13442500Y-8120000D01*
X13442500Y-8090000D02*
X13412500Y-8120000D01*
X13412500Y-8292500D02*
X13442500Y-8322500D01*
X13442500Y-8292500D02*
X13412500Y-8322500D01*
X13415000Y-8577500D02*
X13445000Y-8607500D01*
X13445000Y-8577500D02*
X13415000Y-8607500D01*
X13772500Y-8947500D02*
X13802500Y-8977500D01*
X13802500Y-8947500D02*
X13772500Y-8977500D01*
X14037500Y-8947500D02*
X14067500Y-8977500D01*
X14067500Y-8947500D02*
X14037500Y-8977500D01*
X13352500Y-9205000D02*
G75*
G02*
X13302500Y-9205000I-25000J0D01*
G01*
X13302500Y-9205000D02*
G75*
G02*
X13352500Y-9205000I25000J0D01*
G01*
X13452500Y-9205000D02*
G75*
G02*
X13402500Y-9205000I-25000J0D01*
G01*
X13402500Y-9205000D02*
G75*
G02*
X13452500Y-9205000I25000J0D01*
G01*
X13552500Y-9205000D02*
G75*
G02*
X13502500Y-9205000I-25000J0D01*
G01*
X13502500Y-9205000D02*
G75*
G02*
X13552500Y-9205000I25000J0D01*
G01*
D11*
X12558277Y-9961484D02*
X12558277Y-9761484D01*
X12558277Y-9761484D02*
X12605896Y-9761484D01*
X12605896Y-9761484D02*
X12634467Y-9771008D01*
X12634467Y-9771008D02*
X12653515Y-9790055D01*
X12653515Y-9790055D02*
X12663039Y-9809103D01*
X12663039Y-9809103D02*
X12672562Y-9847198D01*
X12672562Y-9847198D02*
X12672562Y-9875770D01*
X12672562Y-9875770D02*
X12663039Y-9913865D01*
X12663039Y-9913865D02*
X12653515Y-9932912D01*
X12653515Y-9932912D02*
X12634467Y-9951960D01*
X12634467Y-9951960D02*
X12605896Y-9961484D01*
X12605896Y-9961484D02*
X12558277Y-9961484D01*
X12758277Y-9961484D02*
X12758277Y-9828150D01*
X12758277Y-9866246D02*
X12767801Y-9847198D01*
X12767801Y-9847198D02*
X12777324Y-9837674D01*
X12777324Y-9837674D02*
X12796372Y-9828150D01*
X12796372Y-9828150D02*
X12815420Y-9828150D01*
X12882086Y-9961484D02*
X12882086Y-9828150D01*
X12882086Y-9761484D02*
X12872562Y-9771008D01*
X12872562Y-9771008D02*
X12882086Y-9780531D01*
X12882086Y-9780531D02*
X12891610Y-9771008D01*
X12891610Y-9771008D02*
X12882086Y-9761484D01*
X12882086Y-9761484D02*
X12882086Y-9780531D01*
X13005896Y-9961484D02*
X12986848Y-9951960D01*
X12986848Y-9951960D02*
X12977324Y-9932912D01*
X12977324Y-9932912D02*
X12977324Y-9761484D01*
X13110658Y-9961484D02*
X13091610Y-9951960D01*
X13091610Y-9951960D02*
X13082086Y-9932912D01*
X13082086Y-9932912D02*
X13082086Y-9761484D01*
X13339229Y-9961484D02*
X13339229Y-9761484D01*
X13339229Y-9761484D02*
X13405896Y-9904341D01*
X13405896Y-9904341D02*
X13472562Y-9761484D01*
X13472562Y-9761484D02*
X13472562Y-9961484D01*
X13653515Y-9961484D02*
X13653515Y-9856722D01*
X13653515Y-9856722D02*
X13643991Y-9837674D01*
X13643991Y-9837674D02*
X13624943Y-9828150D01*
X13624943Y-9828150D02*
X13586848Y-9828150D01*
X13586848Y-9828150D02*
X13567801Y-9837674D01*
X13653515Y-9951960D02*
X13634467Y-9961484D01*
X13634467Y-9961484D02*
X13586848Y-9961484D01*
X13586848Y-9961484D02*
X13567801Y-9951960D01*
X13567801Y-9951960D02*
X13558277Y-9932912D01*
X13558277Y-9932912D02*
X13558277Y-9913865D01*
X13558277Y-9913865D02*
X13567801Y-9894817D01*
X13567801Y-9894817D02*
X13586848Y-9885293D01*
X13586848Y-9885293D02*
X13634467Y-9885293D01*
X13634467Y-9885293D02*
X13653515Y-9875770D01*
X13748753Y-9828150D02*
X13748753Y-10028150D01*
X13748753Y-9837674D02*
X13767801Y-9828150D01*
X13767801Y-9828150D02*
X13805896Y-9828150D01*
X13805896Y-9828150D02*
X13824943Y-9837674D01*
X13824943Y-9837674D02*
X13834467Y-9847198D01*
X13834467Y-9847198D02*
X13843991Y-9866246D01*
X13843991Y-9866246D02*
X13843991Y-9923389D01*
X13843991Y-9923389D02*
X13834467Y-9942436D01*
X13834467Y-9942436D02*
X13824943Y-9951960D01*
X13824943Y-9951960D02*
X13805896Y-9961484D01*
X13805896Y-9961484D02*
X13767801Y-9961484D01*
X13767801Y-9961484D02*
X13748753Y-9951960D01*
X13929705Y-9942436D02*
X13939229Y-9951960D01*
X13939229Y-9951960D02*
X13929705Y-9961484D01*
X13929705Y-9961484D02*
X13920182Y-9951960D01*
X13920182Y-9951960D02*
X13929705Y-9942436D01*
X13929705Y-9942436D02*
X13929705Y-9961484D01*
X13929705Y-9837674D02*
X13939229Y-9847198D01*
X13939229Y-9847198D02*
X13929705Y-9856722D01*
X13929705Y-9856722D02*
X13920182Y-9847198D01*
X13920182Y-9847198D02*
X13929705Y-9837674D01*
X13929705Y-9837674D02*
X13929705Y-9856722D01*
D12*
X12267500Y-10275000D02*
X12297500Y-10305000D01*
X12297500Y-10275000D02*
X12267500Y-10305000D01*
D11*
X12596372Y-10181484D02*
X12615420Y-10181484D01*
X12615420Y-10181484D02*
X12634467Y-10191008D01*
X12634467Y-10191008D02*
X12643991Y-10200531D01*
X12643991Y-10200531D02*
X12653515Y-10219579D01*
X12653515Y-10219579D02*
X12663039Y-10257674D01*
X12663039Y-10257674D02*
X12663039Y-10305293D01*
X12663039Y-10305293D02*
X12653515Y-10343389D01*
X12653515Y-10343389D02*
X12643991Y-10362436D01*
X12643991Y-10362436D02*
X12634467Y-10371960D01*
X12634467Y-10371960D02*
X12615420Y-10381484D01*
X12615420Y-10381484D02*
X12596372Y-10381484D01*
X12596372Y-10381484D02*
X12577324Y-10371960D01*
X12577324Y-10371960D02*
X12567801Y-10362436D01*
X12567801Y-10362436D02*
X12558277Y-10343389D01*
X12558277Y-10343389D02*
X12548753Y-10305293D01*
X12548753Y-10305293D02*
X12548753Y-10257674D01*
X12548753Y-10257674D02*
X12558277Y-10219579D01*
X12558277Y-10219579D02*
X12567801Y-10200531D01*
X12567801Y-10200531D02*
X12577324Y-10191008D01*
X12577324Y-10191008D02*
X12596372Y-10181484D01*
X12748753Y-10362436D02*
X12758277Y-10371960D01*
X12758277Y-10371960D02*
X12748753Y-10381484D01*
X12748753Y-10381484D02*
X12739229Y-10371960D01*
X12739229Y-10371960D02*
X12748753Y-10362436D01*
X12748753Y-10362436D02*
X12748753Y-10381484D01*
X12824943Y-10181484D02*
X12948753Y-10181484D01*
X12948753Y-10181484D02*
X12882086Y-10257674D01*
X12882086Y-10257674D02*
X12910658Y-10257674D01*
X12910658Y-10257674D02*
X12929705Y-10267198D01*
X12929705Y-10267198D02*
X12939229Y-10276722D01*
X12939229Y-10276722D02*
X12948753Y-10295770D01*
X12948753Y-10295770D02*
X12948753Y-10343389D01*
X12948753Y-10343389D02*
X12939229Y-10362436D01*
X12939229Y-10362436D02*
X12929705Y-10371960D01*
X12929705Y-10371960D02*
X12910658Y-10381484D01*
X12910658Y-10381484D02*
X12853515Y-10381484D01*
X12853515Y-10381484D02*
X12834467Y-10371960D01*
X12834467Y-10371960D02*
X12824943Y-10362436D01*
X13072562Y-10181484D02*
X13091610Y-10181484D01*
X13091610Y-10181484D02*
X13110658Y-10191008D01*
X13110658Y-10191008D02*
X13120182Y-10200531D01*
X13120182Y-10200531D02*
X13129705Y-10219579D01*
X13129705Y-10219579D02*
X13139229Y-10257674D01*
X13139229Y-10257674D02*
X13139229Y-10305293D01*
X13139229Y-10305293D02*
X13129705Y-10343389D01*
X13129705Y-10343389D02*
X13120182Y-10362436D01*
X13120182Y-10362436D02*
X13110658Y-10371960D01*
X13110658Y-10371960D02*
X13091610Y-10381484D01*
X13091610Y-10381484D02*
X13072562Y-10381484D01*
X13072562Y-10381484D02*
X13053515Y-10371960D01*
X13053515Y-10371960D02*
X13043991Y-10362436D01*
X13043991Y-10362436D02*
X13034467Y-10343389D01*
X13034467Y-10343389D02*
X13024943Y-10305293D01*
X13024943Y-10305293D02*
X13024943Y-10257674D01*
X13024943Y-10257674D02*
X13034467Y-10219579D01*
X13034467Y-10219579D02*
X13043991Y-10200531D01*
X13043991Y-10200531D02*
X13053515Y-10191008D01*
X13053515Y-10191008D02*
X13072562Y-10181484D01*
X13263039Y-10181484D02*
X13282086Y-10181484D01*
X13282086Y-10181484D02*
X13301134Y-10191008D01*
X13301134Y-10191008D02*
X13310658Y-10200531D01*
X13310658Y-10200531D02*
X13320182Y-10219579D01*
X13320182Y-10219579D02*
X13329705Y-10257674D01*
X13329705Y-10257674D02*
X13329705Y-10305293D01*
X13329705Y-10305293D02*
X13320182Y-10343389D01*
X13320182Y-10343389D02*
X13310658Y-10362436D01*
X13310658Y-10362436D02*
X13301134Y-10371960D01*
X13301134Y-10371960D02*
X13282086Y-10381484D01*
X13282086Y-10381484D02*
X13263039Y-10381484D01*
X13263039Y-10381484D02*
X13243991Y-10371960D01*
X13243991Y-10371960D02*
X13234467Y-10362436D01*
X13234467Y-10362436D02*
X13224943Y-10343389D01*
X13224943Y-10343389D02*
X13215420Y-10305293D01*
X13215420Y-10305293D02*
X13215420Y-10257674D01*
X13215420Y-10257674D02*
X13224943Y-10219579D01*
X13224943Y-10219579D02*
X13234467Y-10200531D01*
X13234467Y-10200531D02*
X13243991Y-10191008D01*
X13243991Y-10191008D02*
X13263039Y-10181484D01*
X13415420Y-10381484D02*
X13415420Y-10248150D01*
X13415420Y-10267198D02*
X13424943Y-10257674D01*
X13424943Y-10257674D02*
X13443991Y-10248150D01*
X13443991Y-10248150D02*
X13472563Y-10248150D01*
X13472563Y-10248150D02*
X13491610Y-10257674D01*
X13491610Y-10257674D02*
X13501134Y-10276722D01*
X13501134Y-10276722D02*
X13501134Y-10381484D01*
X13501134Y-10276722D02*
X13510658Y-10257674D01*
X13510658Y-10257674D02*
X13529705Y-10248150D01*
X13529705Y-10248150D02*
X13558277Y-10248150D01*
X13558277Y-10248150D02*
X13577324Y-10257674D01*
X13577324Y-10257674D02*
X13586848Y-10276722D01*
X13586848Y-10276722D02*
X13586848Y-10381484D01*
X13682086Y-10381484D02*
X13682086Y-10248150D01*
X13682086Y-10267198D02*
X13691610Y-10257674D01*
X13691610Y-10257674D02*
X13710658Y-10248150D01*
X13710658Y-10248150D02*
X13739229Y-10248150D01*
X13739229Y-10248150D02*
X13758277Y-10257674D01*
X13758277Y-10257674D02*
X13767801Y-10276722D01*
X13767801Y-10276722D02*
X13767801Y-10381484D01*
X13767801Y-10276722D02*
X13777324Y-10257674D01*
X13777324Y-10257674D02*
X13796372Y-10248150D01*
X13796372Y-10248150D02*
X13824943Y-10248150D01*
X13824943Y-10248150D02*
X13843991Y-10257674D01*
X13843991Y-10257674D02*
X13853515Y-10276722D01*
X13853515Y-10276722D02*
X13853515Y-10381484D01*
X14243991Y-10171960D02*
X14072563Y-10429103D01*
X14501134Y-10181484D02*
X14520182Y-10181484D01*
X14520182Y-10181484D02*
X14539229Y-10191008D01*
X14539229Y-10191008D02*
X14548753Y-10200531D01*
X14548753Y-10200531D02*
X14558277Y-10219579D01*
X14558277Y-10219579D02*
X14567801Y-10257674D01*
X14567801Y-10257674D02*
X14567801Y-10305293D01*
X14567801Y-10305293D02*
X14558277Y-10343389D01*
X14558277Y-10343389D02*
X14548753Y-10362436D01*
X14548753Y-10362436D02*
X14539229Y-10371960D01*
X14539229Y-10371960D02*
X14520182Y-10381484D01*
X14520182Y-10381484D02*
X14501134Y-10381484D01*
X14501134Y-10381484D02*
X14482086Y-10371960D01*
X14482086Y-10371960D02*
X14472563Y-10362436D01*
X14472563Y-10362436D02*
X14463039Y-10343389D01*
X14463039Y-10343389D02*
X14453515Y-10305293D01*
X14453515Y-10305293D02*
X14453515Y-10257674D01*
X14453515Y-10257674D02*
X14463039Y-10219579D01*
X14463039Y-10219579D02*
X14472563Y-10200531D01*
X14472563Y-10200531D02*
X14482086Y-10191008D01*
X14482086Y-10191008D02*
X14501134Y-10181484D01*
X14653515Y-10362436D02*
X14663039Y-10371960D01*
X14663039Y-10371960D02*
X14653515Y-10381484D01*
X14653515Y-10381484D02*
X14643991Y-10371960D01*
X14643991Y-10371960D02*
X14653515Y-10362436D01*
X14653515Y-10362436D02*
X14653515Y-10381484D01*
X14786848Y-10181484D02*
X14805896Y-10181484D01*
X14805896Y-10181484D02*
X14824944Y-10191008D01*
X14824944Y-10191008D02*
X14834467Y-10200531D01*
X14834467Y-10200531D02*
X14843991Y-10219579D01*
X14843991Y-10219579D02*
X14853515Y-10257674D01*
X14853515Y-10257674D02*
X14853515Y-10305293D01*
X14853515Y-10305293D02*
X14843991Y-10343389D01*
X14843991Y-10343389D02*
X14834467Y-10362436D01*
X14834467Y-10362436D02*
X14824944Y-10371960D01*
X14824944Y-10371960D02*
X14805896Y-10381484D01*
X14805896Y-10381484D02*
X14786848Y-10381484D01*
X14786848Y-10381484D02*
X14767801Y-10371960D01*
X14767801Y-10371960D02*
X14758277Y-10362436D01*
X14758277Y-10362436D02*
X14748753Y-10343389D01*
X14748753Y-10343389D02*
X14739229Y-10305293D01*
X14739229Y-10305293D02*
X14739229Y-10257674D01*
X14739229Y-10257674D02*
X14748753Y-10219579D01*
X14748753Y-10219579D02*
X14758277Y-10200531D01*
X14758277Y-10200531D02*
X14767801Y-10191008D01*
X14767801Y-10191008D02*
X14786848Y-10181484D01*
X15043991Y-10381484D02*
X14929706Y-10381484D01*
X14986848Y-10381484D02*
X14986848Y-10181484D01*
X14986848Y-10181484D02*
X14967801Y-10210055D01*
X14967801Y-10210055D02*
X14948753Y-10229103D01*
X14948753Y-10229103D02*
X14929706Y-10238627D01*
X15234467Y-10381484D02*
X15120182Y-10381484D01*
X15177325Y-10381484D02*
X15177325Y-10181484D01*
X15177325Y-10181484D02*
X15158277Y-10210055D01*
X15158277Y-10210055D02*
X15139229Y-10229103D01*
X15139229Y-10229103D02*
X15120182Y-10238627D01*
X15348753Y-10267198D02*
X15329706Y-10257674D01*
X15329706Y-10257674D02*
X15320182Y-10248150D01*
X15320182Y-10248150D02*
X15310658Y-10229103D01*
X15310658Y-10229103D02*
X15310658Y-10219579D01*
X15310658Y-10219579D02*
X15320182Y-10200531D01*
X15320182Y-10200531D02*
X15329706Y-10191008D01*
X15329706Y-10191008D02*
X15348753Y-10181484D01*
X15348753Y-10181484D02*
X15386848Y-10181484D01*
X15386848Y-10181484D02*
X15405896Y-10191008D01*
X15405896Y-10191008D02*
X15415420Y-10200531D01*
X15415420Y-10200531D02*
X15424944Y-10219579D01*
X15424944Y-10219579D02*
X15424944Y-10229103D01*
X15424944Y-10229103D02*
X15415420Y-10248150D01*
X15415420Y-10248150D02*
X15405896Y-10257674D01*
X15405896Y-10257674D02*
X15386848Y-10267198D01*
X15386848Y-10267198D02*
X15348753Y-10267198D01*
X15348753Y-10267198D02*
X15329706Y-10276722D01*
X15329706Y-10276722D02*
X15320182Y-10286246D01*
X15320182Y-10286246D02*
X15310658Y-10305293D01*
X15310658Y-10305293D02*
X15310658Y-10343389D01*
X15310658Y-10343389D02*
X15320182Y-10362436D01*
X15320182Y-10362436D02*
X15329706Y-10371960D01*
X15329706Y-10371960D02*
X15348753Y-10381484D01*
X15348753Y-10381484D02*
X15386848Y-10381484D01*
X15386848Y-10381484D02*
X15405896Y-10371960D01*
X15405896Y-10371960D02*
X15415420Y-10362436D01*
X15415420Y-10362436D02*
X15424944Y-10343389D01*
X15424944Y-10343389D02*
X15424944Y-10305293D01*
X15424944Y-10305293D02*
X15415420Y-10286246D01*
X15415420Y-10286246D02*
X15405896Y-10276722D01*
X15405896Y-10276722D02*
X15386848Y-10267198D01*
X15501134Y-10181484D02*
X15501134Y-10219579D01*
X15577325Y-10181484D02*
X15577325Y-10219579D01*
X15872563Y-10457674D02*
X15863039Y-10448150D01*
X15863039Y-10448150D02*
X15843991Y-10419579D01*
X15843991Y-10419579D02*
X15834468Y-10400531D01*
X15834468Y-10400531D02*
X15824944Y-10371960D01*
X15824944Y-10371960D02*
X15815420Y-10324341D01*
X15815420Y-10324341D02*
X15815420Y-10286246D01*
X15815420Y-10286246D02*
X15824944Y-10238627D01*
X15824944Y-10238627D02*
X15834468Y-10210055D01*
X15834468Y-10210055D02*
X15843991Y-10191008D01*
X15843991Y-10191008D02*
X15863039Y-10162436D01*
X15863039Y-10162436D02*
X15872563Y-10152912D01*
X15929706Y-10181484D02*
X16063039Y-10181484D01*
X16063039Y-10181484D02*
X15977325Y-10381484D01*
X16291610Y-10381484D02*
X16291610Y-10181484D01*
X16377325Y-10381484D02*
X16377325Y-10276722D01*
X16377325Y-10276722D02*
X16367801Y-10257674D01*
X16367801Y-10257674D02*
X16348753Y-10248150D01*
X16348753Y-10248150D02*
X16320182Y-10248150D01*
X16320182Y-10248150D02*
X16301134Y-10257674D01*
X16301134Y-10257674D02*
X16291610Y-10267198D01*
X16501134Y-10381484D02*
X16482087Y-10371960D01*
X16482087Y-10371960D02*
X16472563Y-10362436D01*
X16472563Y-10362436D02*
X16463039Y-10343389D01*
X16463039Y-10343389D02*
X16463039Y-10286246D01*
X16463039Y-10286246D02*
X16472563Y-10267198D01*
X16472563Y-10267198D02*
X16482087Y-10257674D01*
X16482087Y-10257674D02*
X16501134Y-10248150D01*
X16501134Y-10248150D02*
X16529706Y-10248150D01*
X16529706Y-10248150D02*
X16548753Y-10257674D01*
X16548753Y-10257674D02*
X16558277Y-10267198D01*
X16558277Y-10267198D02*
X16567801Y-10286246D01*
X16567801Y-10286246D02*
X16567801Y-10343389D01*
X16567801Y-10343389D02*
X16558277Y-10362436D01*
X16558277Y-10362436D02*
X16548753Y-10371960D01*
X16548753Y-10371960D02*
X16529706Y-10381484D01*
X16529706Y-10381484D02*
X16501134Y-10381484D01*
X16682087Y-10381484D02*
X16663039Y-10371960D01*
X16663039Y-10371960D02*
X16653515Y-10352912D01*
X16653515Y-10352912D02*
X16653515Y-10181484D01*
X16834468Y-10371960D02*
X16815420Y-10381484D01*
X16815420Y-10381484D02*
X16777325Y-10381484D01*
X16777325Y-10381484D02*
X16758277Y-10371960D01*
X16758277Y-10371960D02*
X16748753Y-10352912D01*
X16748753Y-10352912D02*
X16748753Y-10276722D01*
X16748753Y-10276722D02*
X16758277Y-10257674D01*
X16758277Y-10257674D02*
X16777325Y-10248150D01*
X16777325Y-10248150D02*
X16815420Y-10248150D01*
X16815420Y-10248150D02*
X16834468Y-10257674D01*
X16834468Y-10257674D02*
X16843992Y-10276722D01*
X16843992Y-10276722D02*
X16843992Y-10295770D01*
X16843992Y-10295770D02*
X16748753Y-10314817D01*
X16920182Y-10371960D02*
X16939230Y-10381484D01*
X16939230Y-10381484D02*
X16977325Y-10381484D01*
X16977325Y-10381484D02*
X16996373Y-10371960D01*
X16996373Y-10371960D02*
X17005896Y-10352912D01*
X17005896Y-10352912D02*
X17005896Y-10343389D01*
X17005896Y-10343389D02*
X16996373Y-10324341D01*
X16996373Y-10324341D02*
X16977325Y-10314817D01*
X16977325Y-10314817D02*
X16948753Y-10314817D01*
X16948753Y-10314817D02*
X16929706Y-10305293D01*
X16929706Y-10305293D02*
X16920182Y-10286246D01*
X16920182Y-10286246D02*
X16920182Y-10276722D01*
X16920182Y-10276722D02*
X16929706Y-10257674D01*
X16929706Y-10257674D02*
X16948753Y-10248150D01*
X16948753Y-10248150D02*
X16977325Y-10248150D01*
X16977325Y-10248150D02*
X16996373Y-10257674D01*
X17072563Y-10457674D02*
X17082087Y-10448150D01*
X17082087Y-10448150D02*
X17101134Y-10419579D01*
X17101134Y-10419579D02*
X17110658Y-10400531D01*
X17110658Y-10400531D02*
X17120182Y-10371960D01*
X17120182Y-10371960D02*
X17129706Y-10324341D01*
X17129706Y-10324341D02*
X17129706Y-10286246D01*
X17129706Y-10286246D02*
X17120182Y-10238627D01*
X17120182Y-10238627D02*
X17110658Y-10210055D01*
X17110658Y-10210055D02*
X17101134Y-10191008D01*
X17101134Y-10191008D02*
X17082087Y-10162436D01*
X17082087Y-10162436D02*
X17072563Y-10152912D01*
D12*
X12297500Y-10554000D02*
G75*
G02*
X12247500Y-10554000I-25000J0D01*
G01*
X12247500Y-10554000D02*
G75*
G02*
X12297500Y-10554000I25000J0D01*
G01*
D11*
X12596372Y-10445484D02*
X12615420Y-10445484D01*
X12615420Y-10445484D02*
X12634467Y-10455008D01*
X12634467Y-10455008D02*
X12643991Y-10464531D01*
X12643991Y-10464531D02*
X12653515Y-10483579D01*
X12653515Y-10483579D02*
X12663039Y-10521674D01*
X12663039Y-10521674D02*
X12663039Y-10569293D01*
X12663039Y-10569293D02*
X12653515Y-10607389D01*
X12653515Y-10607389D02*
X12643991Y-10626436D01*
X12643991Y-10626436D02*
X12634467Y-10635960D01*
X12634467Y-10635960D02*
X12615420Y-10645484D01*
X12615420Y-10645484D02*
X12596372Y-10645484D01*
X12596372Y-10645484D02*
X12577324Y-10635960D01*
X12577324Y-10635960D02*
X12567801Y-10626436D01*
X12567801Y-10626436D02*
X12558277Y-10607389D01*
X12558277Y-10607389D02*
X12548753Y-10569293D01*
X12548753Y-10569293D02*
X12548753Y-10521674D01*
X12548753Y-10521674D02*
X12558277Y-10483579D01*
X12558277Y-10483579D02*
X12567801Y-10464531D01*
X12567801Y-10464531D02*
X12577324Y-10455008D01*
X12577324Y-10455008D02*
X12596372Y-10445484D01*
X12748753Y-10626436D02*
X12758277Y-10635960D01*
X12758277Y-10635960D02*
X12748753Y-10645484D01*
X12748753Y-10645484D02*
X12739229Y-10635960D01*
X12739229Y-10635960D02*
X12748753Y-10626436D01*
X12748753Y-10626436D02*
X12748753Y-10645484D01*
X12939229Y-10445484D02*
X12843991Y-10445484D01*
X12843991Y-10445484D02*
X12834467Y-10540722D01*
X12834467Y-10540722D02*
X12843991Y-10531198D01*
X12843991Y-10531198D02*
X12863039Y-10521674D01*
X12863039Y-10521674D02*
X12910658Y-10521674D01*
X12910658Y-10521674D02*
X12929705Y-10531198D01*
X12929705Y-10531198D02*
X12939229Y-10540722D01*
X12939229Y-10540722D02*
X12948753Y-10559770D01*
X12948753Y-10559770D02*
X12948753Y-10607389D01*
X12948753Y-10607389D02*
X12939229Y-10626436D01*
X12939229Y-10626436D02*
X12929705Y-10635960D01*
X12929705Y-10635960D02*
X12910658Y-10645484D01*
X12910658Y-10645484D02*
X12863039Y-10645484D01*
X12863039Y-10645484D02*
X12843991Y-10635960D01*
X12843991Y-10635960D02*
X12834467Y-10626436D01*
X13072562Y-10445484D02*
X13091610Y-10445484D01*
X13091610Y-10445484D02*
X13110658Y-10455008D01*
X13110658Y-10455008D02*
X13120182Y-10464531D01*
X13120182Y-10464531D02*
X13129705Y-10483579D01*
X13129705Y-10483579D02*
X13139229Y-10521674D01*
X13139229Y-10521674D02*
X13139229Y-10569293D01*
X13139229Y-10569293D02*
X13129705Y-10607389D01*
X13129705Y-10607389D02*
X13120182Y-10626436D01*
X13120182Y-10626436D02*
X13110658Y-10635960D01*
X13110658Y-10635960D02*
X13091610Y-10645484D01*
X13091610Y-10645484D02*
X13072562Y-10645484D01*
X13072562Y-10645484D02*
X13053515Y-10635960D01*
X13053515Y-10635960D02*
X13043991Y-10626436D01*
X13043991Y-10626436D02*
X13034467Y-10607389D01*
X13034467Y-10607389D02*
X13024943Y-10569293D01*
X13024943Y-10569293D02*
X13024943Y-10521674D01*
X13024943Y-10521674D02*
X13034467Y-10483579D01*
X13034467Y-10483579D02*
X13043991Y-10464531D01*
X13043991Y-10464531D02*
X13053515Y-10455008D01*
X13053515Y-10455008D02*
X13072562Y-10445484D01*
X13263039Y-10445484D02*
X13282086Y-10445484D01*
X13282086Y-10445484D02*
X13301134Y-10455008D01*
X13301134Y-10455008D02*
X13310658Y-10464531D01*
X13310658Y-10464531D02*
X13320182Y-10483579D01*
X13320182Y-10483579D02*
X13329705Y-10521674D01*
X13329705Y-10521674D02*
X13329705Y-10569293D01*
X13329705Y-10569293D02*
X13320182Y-10607389D01*
X13320182Y-10607389D02*
X13310658Y-10626436D01*
X13310658Y-10626436D02*
X13301134Y-10635960D01*
X13301134Y-10635960D02*
X13282086Y-10645484D01*
X13282086Y-10645484D02*
X13263039Y-10645484D01*
X13263039Y-10645484D02*
X13243991Y-10635960D01*
X13243991Y-10635960D02*
X13234467Y-10626436D01*
X13234467Y-10626436D02*
X13224943Y-10607389D01*
X13224943Y-10607389D02*
X13215420Y-10569293D01*
X13215420Y-10569293D02*
X13215420Y-10521674D01*
X13215420Y-10521674D02*
X13224943Y-10483579D01*
X13224943Y-10483579D02*
X13234467Y-10464531D01*
X13234467Y-10464531D02*
X13243991Y-10455008D01*
X13243991Y-10455008D02*
X13263039Y-10445484D01*
X13415420Y-10645484D02*
X13415420Y-10512150D01*
X13415420Y-10531198D02*
X13424943Y-10521674D01*
X13424943Y-10521674D02*
X13443991Y-10512150D01*
X13443991Y-10512150D02*
X13472563Y-10512150D01*
X13472563Y-10512150D02*
X13491610Y-10521674D01*
X13491610Y-10521674D02*
X13501134Y-10540722D01*
X13501134Y-10540722D02*
X13501134Y-10645484D01*
X13501134Y-10540722D02*
X13510658Y-10521674D01*
X13510658Y-10521674D02*
X13529705Y-10512150D01*
X13529705Y-10512150D02*
X13558277Y-10512150D01*
X13558277Y-10512150D02*
X13577324Y-10521674D01*
X13577324Y-10521674D02*
X13586848Y-10540722D01*
X13586848Y-10540722D02*
X13586848Y-10645484D01*
X13682086Y-10645484D02*
X13682086Y-10512150D01*
X13682086Y-10531198D02*
X13691610Y-10521674D01*
X13691610Y-10521674D02*
X13710658Y-10512150D01*
X13710658Y-10512150D02*
X13739229Y-10512150D01*
X13739229Y-10512150D02*
X13758277Y-10521674D01*
X13758277Y-10521674D02*
X13767801Y-10540722D01*
X13767801Y-10540722D02*
X13767801Y-10645484D01*
X13767801Y-10540722D02*
X13777324Y-10521674D01*
X13777324Y-10521674D02*
X13796372Y-10512150D01*
X13796372Y-10512150D02*
X13824943Y-10512150D01*
X13824943Y-10512150D02*
X13843991Y-10521674D01*
X13843991Y-10521674D02*
X13853515Y-10540722D01*
X13853515Y-10540722D02*
X13853515Y-10645484D01*
X14243991Y-10435960D02*
X14072563Y-10693103D01*
X14501134Y-10445484D02*
X14520182Y-10445484D01*
X14520182Y-10445484D02*
X14539229Y-10455008D01*
X14539229Y-10455008D02*
X14548753Y-10464531D01*
X14548753Y-10464531D02*
X14558277Y-10483579D01*
X14558277Y-10483579D02*
X14567801Y-10521674D01*
X14567801Y-10521674D02*
X14567801Y-10569293D01*
X14567801Y-10569293D02*
X14558277Y-10607389D01*
X14558277Y-10607389D02*
X14548753Y-10626436D01*
X14548753Y-10626436D02*
X14539229Y-10635960D01*
X14539229Y-10635960D02*
X14520182Y-10645484D01*
X14520182Y-10645484D02*
X14501134Y-10645484D01*
X14501134Y-10645484D02*
X14482086Y-10635960D01*
X14482086Y-10635960D02*
X14472563Y-10626436D01*
X14472563Y-10626436D02*
X14463039Y-10607389D01*
X14463039Y-10607389D02*
X14453515Y-10569293D01*
X14453515Y-10569293D02*
X14453515Y-10521674D01*
X14453515Y-10521674D02*
X14463039Y-10483579D01*
X14463039Y-10483579D02*
X14472563Y-10464531D01*
X14472563Y-10464531D02*
X14482086Y-10455008D01*
X14482086Y-10455008D02*
X14501134Y-10445484D01*
X14653515Y-10626436D02*
X14663039Y-10635960D01*
X14663039Y-10635960D02*
X14653515Y-10645484D01*
X14653515Y-10645484D02*
X14643991Y-10635960D01*
X14643991Y-10635960D02*
X14653515Y-10626436D01*
X14653515Y-10626436D02*
X14653515Y-10645484D01*
X14786848Y-10445484D02*
X14805896Y-10445484D01*
X14805896Y-10445484D02*
X14824944Y-10455008D01*
X14824944Y-10455008D02*
X14834467Y-10464531D01*
X14834467Y-10464531D02*
X14843991Y-10483579D01*
X14843991Y-10483579D02*
X14853515Y-10521674D01*
X14853515Y-10521674D02*
X14853515Y-10569293D01*
X14853515Y-10569293D02*
X14843991Y-10607389D01*
X14843991Y-10607389D02*
X14834467Y-10626436D01*
X14834467Y-10626436D02*
X14824944Y-10635960D01*
X14824944Y-10635960D02*
X14805896Y-10645484D01*
X14805896Y-10645484D02*
X14786848Y-10645484D01*
X14786848Y-10645484D02*
X14767801Y-10635960D01*
X14767801Y-10635960D02*
X14758277Y-10626436D01*
X14758277Y-10626436D02*
X14748753Y-10607389D01*
X14748753Y-10607389D02*
X14739229Y-10569293D01*
X14739229Y-10569293D02*
X14739229Y-10521674D01*
X14739229Y-10521674D02*
X14748753Y-10483579D01*
X14748753Y-10483579D02*
X14758277Y-10464531D01*
X14758277Y-10464531D02*
X14767801Y-10455008D01*
X14767801Y-10455008D02*
X14786848Y-10445484D01*
X15043991Y-10645484D02*
X14929706Y-10645484D01*
X14986848Y-10645484D02*
X14986848Y-10445484D01*
X14986848Y-10445484D02*
X14967801Y-10474055D01*
X14967801Y-10474055D02*
X14948753Y-10493103D01*
X14948753Y-10493103D02*
X14929706Y-10502627D01*
X15139229Y-10645484D02*
X15177325Y-10645484D01*
X15177325Y-10645484D02*
X15196372Y-10635960D01*
X15196372Y-10635960D02*
X15205896Y-10626436D01*
X15205896Y-10626436D02*
X15224944Y-10597865D01*
X15224944Y-10597865D02*
X15234467Y-10559770D01*
X15234467Y-10559770D02*
X15234467Y-10483579D01*
X15234467Y-10483579D02*
X15224944Y-10464531D01*
X15224944Y-10464531D02*
X15215420Y-10455008D01*
X15215420Y-10455008D02*
X15196372Y-10445484D01*
X15196372Y-10445484D02*
X15158277Y-10445484D01*
X15158277Y-10445484D02*
X15139229Y-10455008D01*
X15139229Y-10455008D02*
X15129706Y-10464531D01*
X15129706Y-10464531D02*
X15120182Y-10483579D01*
X15120182Y-10483579D02*
X15120182Y-10531198D01*
X15120182Y-10531198D02*
X15129706Y-10550246D01*
X15129706Y-10550246D02*
X15139229Y-10559770D01*
X15139229Y-10559770D02*
X15158277Y-10569293D01*
X15158277Y-10569293D02*
X15196372Y-10569293D01*
X15196372Y-10569293D02*
X15215420Y-10559770D01*
X15215420Y-10559770D02*
X15224944Y-10550246D01*
X15224944Y-10550246D02*
X15234467Y-10531198D01*
X15301134Y-10445484D02*
X15434467Y-10445484D01*
X15434467Y-10445484D02*
X15348753Y-10645484D01*
X15501134Y-10445484D02*
X15501134Y-10483579D01*
X15577325Y-10445484D02*
X15577325Y-10483579D01*
X15872563Y-10721674D02*
X15863039Y-10712150D01*
X15863039Y-10712150D02*
X15843991Y-10683579D01*
X15843991Y-10683579D02*
X15834468Y-10664531D01*
X15834468Y-10664531D02*
X15824944Y-10635960D01*
X15824944Y-10635960D02*
X15815420Y-10588341D01*
X15815420Y-10588341D02*
X15815420Y-10550246D01*
X15815420Y-10550246D02*
X15824944Y-10502627D01*
X15824944Y-10502627D02*
X15834468Y-10474055D01*
X15834468Y-10474055D02*
X15843991Y-10455008D01*
X15843991Y-10455008D02*
X15863039Y-10426436D01*
X15863039Y-10426436D02*
X15872563Y-10416912D01*
X15929706Y-10445484D02*
X16053515Y-10445484D01*
X16053515Y-10445484D02*
X15986848Y-10521674D01*
X15986848Y-10521674D02*
X16015420Y-10521674D01*
X16015420Y-10521674D02*
X16034468Y-10531198D01*
X16034468Y-10531198D02*
X16043991Y-10540722D01*
X16043991Y-10540722D02*
X16053515Y-10559770D01*
X16053515Y-10559770D02*
X16053515Y-10607389D01*
X16053515Y-10607389D02*
X16043991Y-10626436D01*
X16043991Y-10626436D02*
X16034468Y-10635960D01*
X16034468Y-10635960D02*
X16015420Y-10645484D01*
X16015420Y-10645484D02*
X15958277Y-10645484D01*
X15958277Y-10645484D02*
X15939229Y-10635960D01*
X15939229Y-10635960D02*
X15929706Y-10626436D01*
X16291610Y-10645484D02*
X16291610Y-10445484D01*
X16377325Y-10645484D02*
X16377325Y-10540722D01*
X16377325Y-10540722D02*
X16367801Y-10521674D01*
X16367801Y-10521674D02*
X16348753Y-10512150D01*
X16348753Y-10512150D02*
X16320182Y-10512150D01*
X16320182Y-10512150D02*
X16301134Y-10521674D01*
X16301134Y-10521674D02*
X16291610Y-10531198D01*
X16501134Y-10645484D02*
X16482087Y-10635960D01*
X16482087Y-10635960D02*
X16472563Y-10626436D01*
X16472563Y-10626436D02*
X16463039Y-10607389D01*
X16463039Y-10607389D02*
X16463039Y-10550246D01*
X16463039Y-10550246D02*
X16472563Y-10531198D01*
X16472563Y-10531198D02*
X16482087Y-10521674D01*
X16482087Y-10521674D02*
X16501134Y-10512150D01*
X16501134Y-10512150D02*
X16529706Y-10512150D01*
X16529706Y-10512150D02*
X16548753Y-10521674D01*
X16548753Y-10521674D02*
X16558277Y-10531198D01*
X16558277Y-10531198D02*
X16567801Y-10550246D01*
X16567801Y-10550246D02*
X16567801Y-10607389D01*
X16567801Y-10607389D02*
X16558277Y-10626436D01*
X16558277Y-10626436D02*
X16548753Y-10635960D01*
X16548753Y-10635960D02*
X16529706Y-10645484D01*
X16529706Y-10645484D02*
X16501134Y-10645484D01*
X16682087Y-10645484D02*
X16663039Y-10635960D01*
X16663039Y-10635960D02*
X16653515Y-10616912D01*
X16653515Y-10616912D02*
X16653515Y-10445484D01*
X16834468Y-10635960D02*
X16815420Y-10645484D01*
X16815420Y-10645484D02*
X16777325Y-10645484D01*
X16777325Y-10645484D02*
X16758277Y-10635960D01*
X16758277Y-10635960D02*
X16748753Y-10616912D01*
X16748753Y-10616912D02*
X16748753Y-10540722D01*
X16748753Y-10540722D02*
X16758277Y-10521674D01*
X16758277Y-10521674D02*
X16777325Y-10512150D01*
X16777325Y-10512150D02*
X16815420Y-10512150D01*
X16815420Y-10512150D02*
X16834468Y-10521674D01*
X16834468Y-10521674D02*
X16843992Y-10540722D01*
X16843992Y-10540722D02*
X16843992Y-10559770D01*
X16843992Y-10559770D02*
X16748753Y-10578817D01*
X16920182Y-10635960D02*
X16939230Y-10645484D01*
X16939230Y-10645484D02*
X16977325Y-10645484D01*
X16977325Y-10645484D02*
X16996373Y-10635960D01*
X16996373Y-10635960D02*
X17005896Y-10616912D01*
X17005896Y-10616912D02*
X17005896Y-10607389D01*
X17005896Y-10607389D02*
X16996373Y-10588341D01*
X16996373Y-10588341D02*
X16977325Y-10578817D01*
X16977325Y-10578817D02*
X16948753Y-10578817D01*
X16948753Y-10578817D02*
X16929706Y-10569293D01*
X16929706Y-10569293D02*
X16920182Y-10550246D01*
X16920182Y-10550246D02*
X16920182Y-10540722D01*
X16920182Y-10540722D02*
X16929706Y-10521674D01*
X16929706Y-10521674D02*
X16948753Y-10512150D01*
X16948753Y-10512150D02*
X16977325Y-10512150D01*
X16977325Y-10512150D02*
X16996373Y-10521674D01*
X17072563Y-10721674D02*
X17082087Y-10712150D01*
X17082087Y-10712150D02*
X17101134Y-10683579D01*
X17101134Y-10683579D02*
X17110658Y-10664531D01*
X17110658Y-10664531D02*
X17120182Y-10635960D01*
X17120182Y-10635960D02*
X17129706Y-10588341D01*
X17129706Y-10588341D02*
X17129706Y-10550246D01*
X17129706Y-10550246D02*
X17120182Y-10502627D01*
X17120182Y-10502627D02*
X17110658Y-10474055D01*
X17110658Y-10474055D02*
X17101134Y-10455008D01*
X17101134Y-10455008D02*
X17082087Y-10426436D01*
X17082087Y-10426436D02*
X17072563Y-10416912D01*
M02*
