%TF.GenerationSoftware,KiCad,Pcbnew,8.0.0*%
%TF.CreationDate,2024-11-14T09:50:14-06:00*%
%TF.ProjectId,Rain connectors,5261696e-2063-46f6-9e6e-6563746f7273,rev?*%
%TF.SameCoordinates,Original*%
%TF.FileFunction,Copper,L2,Bot*%
%TF.FilePolarity,Positive*%
%FSLAX46Y46*%
G04 Gerber Fmt 4.6, Leading zero omitted, Abs format (unit mm)*
G04 Created by KiCad (PCBNEW 8.0.0) date 2024-11-14 09:50:14*
%MOMM*%
%LPD*%
G01*
G04 APERTURE LIST*
%TA.AperFunction,ComponentPad*%
%ADD10R,0.850000X0.850000*%
%TD*%
%TA.AperFunction,ComponentPad*%
%ADD11O,0.850000X0.850000*%
%TD*%
%TA.AperFunction,ViaPad*%
%ADD12C,0.600000*%
%TD*%
%TA.AperFunction,Conductor*%
%ADD13C,0.200000*%
%TD*%
G04 APERTURE END LIST*
D10*
%TO.P,J3,1,Pin_1*%
%TO.N,+5V*%
X135275000Y-92050000D03*
D11*
%TO.P,J3,2,Pin_2*%
%TO.N,Net-(J3-Pin_2)*%
X134275000Y-92050000D03*
%TO.P,J3,3,Pin_3*%
%TO.N,GND*%
X133275000Y-92050000D03*
%TD*%
D12*
%TO.N,Net-(J1-Pin_2)*%
X140525000Y-89625000D03*
%TO.N,Net-(J1-Pin_3)*%
X137875000Y-89625000D03*
%TO.N,GND*%
X134300000Y-85925000D03*
%TO.N,Net-(J1-Pin_2)*%
X134275000Y-79100000D03*
%TO.N,Net-(J1-Pin_3)*%
X134275000Y-81050000D03*
%TO.N,Net-(J1-Pin_4)*%
X134275000Y-83075000D03*
X128975000Y-89625000D03*
%TD*%
D13*
%TO.N,Net-(J1-Pin_2)*%
X140525000Y-85350000D02*
X134275000Y-79100000D01*
X140525000Y-89625000D02*
X140525000Y-85350000D01*
%TO.N,Net-(J1-Pin_3)*%
X137875000Y-84650000D02*
X134275000Y-81050000D01*
X137875000Y-89625000D02*
X137875000Y-84650000D01*
%TO.N,Net-(J1-Pin_4)*%
X134275000Y-84325000D02*
X134275000Y-83075000D01*
X128975000Y-89625000D02*
X134275000Y-84325000D01*
%TD*%
%TA.AperFunction,Conductor*%
%TO.N,GND*%
G36*
X145117539Y-71995185D02*
G01*
X145163294Y-72047989D01*
X145174500Y-72099500D01*
X145174500Y-95850500D01*
X145154815Y-95917539D01*
X145102011Y-95963294D01*
X145050500Y-95974500D01*
X123624500Y-95974500D01*
X123557461Y-95954815D01*
X123511706Y-95902011D01*
X123500500Y-95850500D01*
X123500500Y-92300000D01*
X132383628Y-92300000D01*
X132425316Y-92428306D01*
X132425317Y-92428307D01*
X132522536Y-92596694D01*
X132522535Y-92596694D01*
X132652639Y-92741190D01*
X132652642Y-92741192D01*
X132809950Y-92855484D01*
X132987587Y-92934573D01*
X133024999Y-92942524D01*
X133025000Y-92942524D01*
X133025000Y-92300000D01*
X132383628Y-92300000D01*
X123500500Y-92300000D01*
X123500500Y-92099728D01*
X133025000Y-92099728D01*
X133063060Y-92191614D01*
X133133386Y-92261940D01*
X133225272Y-92300000D01*
X133324728Y-92300000D01*
X133376177Y-92278689D01*
X133424856Y-92428510D01*
X133424857Y-92428511D01*
X133508387Y-92573189D01*
X133525000Y-92635189D01*
X133525000Y-92942524D01*
X133562414Y-92934573D01*
X133562415Y-92934573D01*
X133723949Y-92862653D01*
X133793199Y-92853368D01*
X133824809Y-92862648D01*
X133987429Y-92935051D01*
X133987432Y-92935051D01*
X133987433Y-92935052D01*
X134177726Y-92975500D01*
X134372274Y-92975500D01*
X134562571Y-92935051D01*
X134562573Y-92935049D01*
X134568755Y-92933042D01*
X134569756Y-92936124D01*
X134624741Y-92928197D01*
X134650463Y-92934757D01*
X134742517Y-92969091D01*
X134802127Y-92975500D01*
X135747872Y-92975499D01*
X135807483Y-92969091D01*
X135942331Y-92918796D01*
X136057546Y-92832546D01*
X136143796Y-92717331D01*
X136194091Y-92582483D01*
X136200500Y-92522873D01*
X136200499Y-91577128D01*
X136194091Y-91517517D01*
X136188790Y-91503305D01*
X136143797Y-91382671D01*
X136143793Y-91382664D01*
X136057547Y-91267455D01*
X136057544Y-91267452D01*
X135942335Y-91181206D01*
X135942328Y-91181202D01*
X135807482Y-91130908D01*
X135807483Y-91130908D01*
X135747883Y-91124501D01*
X135747881Y-91124500D01*
X135747873Y-91124500D01*
X135747864Y-91124500D01*
X134802129Y-91124500D01*
X134802123Y-91124501D01*
X134742516Y-91130908D01*
X134650472Y-91165239D01*
X134580780Y-91170223D01*
X134568934Y-91166390D01*
X134568750Y-91166957D01*
X134562573Y-91164950D01*
X134562571Y-91164949D01*
X134562568Y-91164948D01*
X134562567Y-91164948D01*
X134372274Y-91124500D01*
X134177726Y-91124500D01*
X133987430Y-91164948D01*
X133987427Y-91164949D01*
X133824817Y-91237346D01*
X133755567Y-91246630D01*
X133723948Y-91237346D01*
X133562414Y-91165426D01*
X133525000Y-91157473D01*
X133525000Y-91464811D01*
X133508387Y-91526811D01*
X133424857Y-91671488D01*
X133424856Y-91671489D01*
X133376176Y-91821310D01*
X133324728Y-91800000D01*
X133225272Y-91800000D01*
X133133386Y-91838060D01*
X133063060Y-91908386D01*
X133025000Y-92000272D01*
X133025000Y-92099728D01*
X123500500Y-92099728D01*
X123500500Y-91800000D01*
X132383628Y-91800000D01*
X133025000Y-91800000D01*
X133025000Y-91157473D01*
X132987585Y-91165426D01*
X132987580Y-91165428D01*
X132809953Y-91244513D01*
X132652643Y-91358806D01*
X132522535Y-91503305D01*
X132425317Y-91671692D01*
X132425316Y-91671693D01*
X132383628Y-91799999D01*
X132383628Y-91800000D01*
X123500500Y-91800000D01*
X123500500Y-89625003D01*
X128169435Y-89625003D01*
X128189630Y-89804249D01*
X128189631Y-89804254D01*
X128249211Y-89974523D01*
X128345184Y-90127262D01*
X128472738Y-90254816D01*
X128625478Y-90350789D01*
X128795745Y-90410368D01*
X128795750Y-90410369D01*
X128974996Y-90430565D01*
X128975000Y-90430565D01*
X128975004Y-90430565D01*
X129154249Y-90410369D01*
X129154252Y-90410368D01*
X129154255Y-90410368D01*
X129324522Y-90350789D01*
X129477262Y-90254816D01*
X129604816Y-90127262D01*
X129700789Y-89974522D01*
X129760368Y-89804255D01*
X129770161Y-89717329D01*
X129797226Y-89652918D01*
X129805690Y-89643543D01*
X134643713Y-84805521D01*
X134643716Y-84805520D01*
X134755520Y-84693716D01*
X134805639Y-84606904D01*
X134834577Y-84556785D01*
X134875501Y-84404057D01*
X134875501Y-84245943D01*
X134875501Y-84238348D01*
X134875500Y-84238330D01*
X134875500Y-83657412D01*
X134895185Y-83590373D01*
X134902555Y-83580097D01*
X134904810Y-83577267D01*
X134904816Y-83577262D01*
X135000789Y-83424522D01*
X135060368Y-83254255D01*
X135080565Y-83075000D01*
X135073234Y-83009934D01*
X135085288Y-82941113D01*
X135132637Y-82889734D01*
X135200247Y-82872109D01*
X135266653Y-82893835D01*
X135284135Y-82908370D01*
X137238181Y-84862416D01*
X137271666Y-84923739D01*
X137274500Y-84950097D01*
X137274500Y-89042587D01*
X137254815Y-89109626D01*
X137247450Y-89119896D01*
X137245186Y-89122734D01*
X137149211Y-89275476D01*
X137089631Y-89445745D01*
X137089630Y-89445750D01*
X137069435Y-89624996D01*
X137069435Y-89625003D01*
X137089630Y-89804249D01*
X137089631Y-89804254D01*
X137149211Y-89974523D01*
X137245184Y-90127262D01*
X137372738Y-90254816D01*
X137525478Y-90350789D01*
X137695745Y-90410368D01*
X137695750Y-90410369D01*
X137874996Y-90430565D01*
X137875000Y-90430565D01*
X137875004Y-90430565D01*
X138054249Y-90410369D01*
X138054252Y-90410368D01*
X138054255Y-90410368D01*
X138224522Y-90350789D01*
X138377262Y-90254816D01*
X138504816Y-90127262D01*
X138600789Y-89974522D01*
X138660368Y-89804255D01*
X138675020Y-89674215D01*
X138680565Y-89625003D01*
X138680565Y-89624996D01*
X138660369Y-89445750D01*
X138660368Y-89445745D01*
X138600788Y-89275476D01*
X138504813Y-89122734D01*
X138502550Y-89119896D01*
X138501659Y-89117715D01*
X138501111Y-89116842D01*
X138501264Y-89116745D01*
X138476144Y-89055209D01*
X138475500Y-89042587D01*
X138475500Y-84739059D01*
X138475501Y-84739046D01*
X138475501Y-84570945D01*
X138475501Y-84570943D01*
X138441102Y-84442566D01*
X138442765Y-84372718D01*
X138481927Y-84314855D01*
X138546156Y-84287351D01*
X138615058Y-84298937D01*
X138648558Y-84322793D01*
X139888181Y-85562416D01*
X139921666Y-85623739D01*
X139924500Y-85650097D01*
X139924500Y-89042587D01*
X139904815Y-89109626D01*
X139897450Y-89119896D01*
X139895186Y-89122734D01*
X139799211Y-89275476D01*
X139739631Y-89445745D01*
X139739630Y-89445750D01*
X139719435Y-89624996D01*
X139719435Y-89625003D01*
X139739630Y-89804249D01*
X139739631Y-89804254D01*
X139799211Y-89974523D01*
X139895184Y-90127262D01*
X140022738Y-90254816D01*
X140175478Y-90350789D01*
X140345745Y-90410368D01*
X140345750Y-90410369D01*
X140524996Y-90430565D01*
X140525000Y-90430565D01*
X140525004Y-90430565D01*
X140704249Y-90410369D01*
X140704252Y-90410368D01*
X140704255Y-90410368D01*
X140874522Y-90350789D01*
X141027262Y-90254816D01*
X141154816Y-90127262D01*
X141250789Y-89974522D01*
X141310368Y-89804255D01*
X141325020Y-89674215D01*
X141330565Y-89625003D01*
X141330565Y-89624996D01*
X141310369Y-89445750D01*
X141310368Y-89445745D01*
X141250788Y-89275476D01*
X141154813Y-89122734D01*
X141152550Y-89119896D01*
X141151659Y-89117715D01*
X141151111Y-89116842D01*
X141151264Y-89116745D01*
X141126144Y-89055209D01*
X141125500Y-89042587D01*
X141125500Y-85439060D01*
X141125501Y-85439047D01*
X141125501Y-85270944D01*
X141084576Y-85118214D01*
X141084573Y-85118209D01*
X141005524Y-84981290D01*
X141005518Y-84981282D01*
X135105700Y-79081465D01*
X135072215Y-79020142D01*
X135070163Y-79007686D01*
X135060368Y-78920745D01*
X135000789Y-78750478D01*
X134904816Y-78597738D01*
X134777262Y-78470184D01*
X134624523Y-78374211D01*
X134454254Y-78314631D01*
X134454249Y-78314630D01*
X134275004Y-78294435D01*
X134274996Y-78294435D01*
X134095750Y-78314630D01*
X134095745Y-78314631D01*
X133925476Y-78374211D01*
X133772737Y-78470184D01*
X133645184Y-78597737D01*
X133549211Y-78750476D01*
X133489631Y-78920745D01*
X133489630Y-78920750D01*
X133469435Y-79099996D01*
X133469435Y-79100003D01*
X133489630Y-79279249D01*
X133489631Y-79279254D01*
X133549211Y-79449523D01*
X133645184Y-79602262D01*
X133772738Y-79729816D01*
X133925478Y-79825789D01*
X134095745Y-79885368D01*
X134182669Y-79895161D01*
X134247080Y-79922226D01*
X134256465Y-79930700D01*
X134358519Y-80032754D01*
X134392004Y-80094077D01*
X134387020Y-80163769D01*
X134345148Y-80219702D01*
X134281879Y-80243300D01*
X134281919Y-80243655D01*
X134280499Y-80243814D01*
X134279684Y-80244119D01*
X134276926Y-80244217D01*
X134095750Y-80264630D01*
X134095745Y-80264631D01*
X133925476Y-80324211D01*
X133772737Y-80420184D01*
X133645184Y-80547737D01*
X133549211Y-80700476D01*
X133489631Y-80870745D01*
X133489630Y-80870750D01*
X133469435Y-81049996D01*
X133469435Y-81050003D01*
X133489630Y-81229249D01*
X133489631Y-81229254D01*
X133549211Y-81399523D01*
X133645184Y-81552262D01*
X133772738Y-81679816D01*
X133925478Y-81775789D01*
X134095745Y-81835368D01*
X134182669Y-81845161D01*
X134247080Y-81872226D01*
X134256465Y-81880700D01*
X134441629Y-82065864D01*
X134475114Y-82127187D01*
X134470130Y-82196879D01*
X134428258Y-82252812D01*
X134362794Y-82277229D01*
X134340066Y-82276765D01*
X134275005Y-82269435D01*
X134274996Y-82269435D01*
X134095750Y-82289630D01*
X134095745Y-82289631D01*
X133925476Y-82349211D01*
X133772737Y-82445184D01*
X133645184Y-82572737D01*
X133549211Y-82725476D01*
X133489631Y-82895745D01*
X133489630Y-82895750D01*
X133469435Y-83074996D01*
X133469435Y-83075003D01*
X133489630Y-83254249D01*
X133489631Y-83254254D01*
X133549211Y-83424523D01*
X133645185Y-83577263D01*
X133647445Y-83580097D01*
X133648334Y-83582275D01*
X133648889Y-83583158D01*
X133648734Y-83583255D01*
X133673855Y-83644783D01*
X133674500Y-83657412D01*
X133674500Y-84024902D01*
X133654815Y-84091941D01*
X133638181Y-84112583D01*
X128956465Y-88794298D01*
X128895142Y-88827783D01*
X128882668Y-88829837D01*
X128795750Y-88839630D01*
X128625478Y-88899210D01*
X128472737Y-88995184D01*
X128345184Y-89122737D01*
X128249211Y-89275476D01*
X128189631Y-89445745D01*
X128189630Y-89445750D01*
X128169435Y-89624996D01*
X128169435Y-89625003D01*
X123500500Y-89625003D01*
X123500500Y-72099500D01*
X123520185Y-72032461D01*
X123572989Y-71986706D01*
X123624500Y-71975500D01*
X145050500Y-71975500D01*
X145117539Y-71995185D01*
G37*
%TD.AperFunction*%
%TD*%
M02*
