%TF.GenerationSoftware,KiCad,Pcbnew,8.0.0*%
%TF.CreationDate,2024-11-14T09:50:14-06:00*%
%TF.ProjectId,Rain connectors,5261696e-2063-46f6-9e6e-6563746f7273,rev?*%
%TF.SameCoordinates,Original*%
%TF.FileFunction,Copper,L1,Top*%
%TF.FilePolarity,Positive*%
%FSLAX46Y46*%
G04 Gerber Fmt 4.6, Leading zero omitted, Abs format (unit mm)*
G04 Created by KiCad (PCBNEW 8.0.0) date 2024-11-14 09:50:14*
%MOMM*%
%LPD*%
G01*
G04 APERTURE LIST*
G04 Aperture macros list*
%AMRoundRect*
0 Rectangle with rounded corners*
0 $1 Rounding radius*
0 $2 $3 $4 $5 $6 $7 $8 $9 X,Y pos of 4 corners*
0 Add a 4 corners polygon primitive as box body*
4,1,4,$2,$3,$4,$5,$6,$7,$8,$9,$2,$3,0*
0 Add four circle primitives for the rounded corners*
1,1,$1+$1,$2,$3*
1,1,$1+$1,$4,$5*
1,1,$1+$1,$6,$7*
1,1,$1+$1,$8,$9*
0 Add four rect primitives between the rounded corners*
20,1,$1+$1,$2,$3,$4,$5,0*
20,1,$1+$1,$4,$5,$6,$7,0*
20,1,$1+$1,$6,$7,$8,$9,0*
20,1,$1+$1,$8,$9,$2,$3,0*%
%AMFreePoly0*
4,1,19,0.500000,-0.750000,0.000000,-0.750000,0.000000,-0.744911,-0.071157,-0.744911,-0.207708,-0.704816,-0.327430,-0.627875,-0.420627,-0.520320,-0.479746,-0.390866,-0.500000,-0.250000,-0.500000,0.250000,-0.479746,0.390866,-0.420627,0.520320,-0.327430,0.627875,-0.207708,0.704816,-0.071157,0.744911,0.000000,0.744911,0.000000,0.750000,0.500000,0.750000,0.500000,-0.750000,0.500000,-0.750000,
$1*%
%AMFreePoly1*
4,1,19,0.000000,0.744911,0.071157,0.744911,0.207708,0.704816,0.327430,0.627875,0.420627,0.520320,0.479746,0.390866,0.500000,0.250000,0.500000,-0.250000,0.479746,-0.390866,0.420627,-0.520320,0.327430,-0.627875,0.207708,-0.704816,0.071157,-0.744911,0.000000,-0.744911,0.000000,-0.750000,-0.500000,-0.750000,-0.500000,0.750000,0.000000,0.750000,0.000000,0.744911,0.000000,0.744911,
$1*%
G04 Aperture macros list end*
%TA.AperFunction,SMDPad,CuDef*%
%ADD10RoundRect,0.250000X1.500000X-0.250000X1.500000X0.250000X-1.500000X0.250000X-1.500000X-0.250000X0*%
%TD*%
%TA.AperFunction,SMDPad,CuDef*%
%ADD11RoundRect,0.250001X1.449999X-0.499999X1.449999X0.499999X-1.449999X0.499999X-1.449999X-0.499999X0*%
%TD*%
%TA.AperFunction,SMDPad,CuDef*%
%ADD12RoundRect,0.250000X-1.500000X0.250000X-1.500000X-0.250000X1.500000X-0.250000X1.500000X0.250000X0*%
%TD*%
%TA.AperFunction,SMDPad,CuDef*%
%ADD13RoundRect,0.250001X-1.449999X0.499999X-1.449999X-0.499999X1.449999X-0.499999X1.449999X0.499999X0*%
%TD*%
%TA.AperFunction,SMDPad,CuDef*%
%ADD14FreePoly0,90.000000*%
%TD*%
%TA.AperFunction,SMDPad,CuDef*%
%ADD15FreePoly1,90.000000*%
%TD*%
%TA.AperFunction,ComponentPad*%
%ADD16R,0.850000X0.850000*%
%TD*%
%TA.AperFunction,ComponentPad*%
%ADD17O,0.850000X0.850000*%
%TD*%
%TA.AperFunction,ViaPad*%
%ADD18C,0.600000*%
%TD*%
%TA.AperFunction,Conductor*%
%ADD19C,0.762000*%
%TD*%
%TA.AperFunction,Conductor*%
%ADD20C,0.254000*%
%TD*%
%TA.AperFunction,Conductor*%
%ADD21C,0.200000*%
%TD*%
G04 APERTURE END LIST*
D10*
%TO.P,J2,1,Pin_1*%
%TO.N,GND*%
X137675000Y-87075000D03*
%TO.P,J2,2,Pin_2*%
%TO.N,Net-(J1-Pin_5)*%
X137675000Y-85075000D03*
%TO.P,J2,3,Pin_3*%
%TO.N,Net-(J1-Pin_4)*%
X137675000Y-83075000D03*
%TO.P,J2,4,Pin_4*%
%TO.N,Net-(J1-Pin_3)*%
X137675000Y-81075000D03*
%TO.P,J2,5,Pin_5*%
%TO.N,Net-(J1-Pin_2)*%
X137675000Y-79075000D03*
%TO.P,J2,6,Pin_6*%
%TO.N,+5V*%
X137675000Y-77075000D03*
D11*
%TO.P,J2,MP*%
%TO.N,N/C*%
X143425000Y-89425000D03*
X143425000Y-74725000D03*
%TD*%
D12*
%TO.P,J1,1,Pin_1*%
%TO.N,+5V*%
X131000000Y-77075000D03*
%TO.P,J1,2,Pin_2*%
%TO.N,Net-(J1-Pin_2)*%
X131000000Y-79075000D03*
%TO.P,J1,3,Pin_3*%
%TO.N,Net-(J1-Pin_3)*%
X131000000Y-81075000D03*
%TO.P,J1,4,Pin_4*%
%TO.N,Net-(J1-Pin_4)*%
X131000000Y-83075000D03*
%TO.P,J1,5,Pin_5*%
%TO.N,Net-(J1-Pin_5)*%
X131000000Y-85075000D03*
%TO.P,J1,6,Pin_6*%
%TO.N,GND*%
X131000000Y-87075000D03*
D13*
%TO.P,J1,MP*%
%TO.N,N/C*%
X125250000Y-74725000D03*
X125250000Y-89425000D03*
%TD*%
D14*
%TO.P,4,1,A*%
%TO.N,Net-(J3-Pin_2)*%
X142650000Y-93050000D03*
D15*
%TO.P,4,2,B*%
%TO.N,Net-(J1-Pin_2)*%
X142650000Y-91750000D03*
%TD*%
%TO.P,3,2,B*%
%TO.N,Net-(J1-Pin_3)*%
X137875000Y-91750000D03*
D14*
%TO.P,3,1,A*%
%TO.N,Net-(J3-Pin_2)*%
X137875000Y-93050000D03*
%TD*%
%TO.P,2,1,A*%
%TO.N,Net-(J3-Pin_2)*%
X128975000Y-93050000D03*
D15*
%TO.P,2,2,B*%
%TO.N,Net-(J1-Pin_4)*%
X128975000Y-91750000D03*
%TD*%
D14*
%TO.P,1,1,A*%
%TO.N,Net-(J3-Pin_2)*%
X124300000Y-93050000D03*
D15*
%TO.P,1,2,B*%
%TO.N,Net-(J1-Pin_5)*%
X124300000Y-91750000D03*
%TD*%
D16*
%TO.P,J3,1,Pin_1*%
%TO.N,+5V*%
X135275000Y-92050000D03*
D17*
%TO.P,J3,2,Pin_2*%
%TO.N,Net-(J3-Pin_2)*%
X134275000Y-92050000D03*
%TO.P,J3,3,Pin_3*%
%TO.N,GND*%
X133275000Y-92050000D03*
%TD*%
D18*
%TO.N,Net-(J1-Pin_2)*%
X140525000Y-89625000D03*
%TO.N,Net-(J1-Pin_3)*%
X137875000Y-89625000D03*
%TO.N,GND*%
X134300000Y-85925000D03*
%TO.N,Net-(J1-Pin_2)*%
X134275000Y-79100000D03*
%TO.N,Net-(J1-Pin_3)*%
X134275000Y-81050000D03*
%TO.N,Net-(J1-Pin_4)*%
X134275000Y-83075000D03*
X128975000Y-89625000D03*
%TD*%
D19*
%TO.N,GND*%
X133150000Y-87075000D02*
X131000000Y-87075000D01*
X135450000Y-87075000D02*
X137675000Y-87075000D01*
X134300000Y-85925000D02*
X135450000Y-87075000D01*
X134300000Y-85925000D02*
X133150000Y-87075000D01*
D20*
%TO.N,+5V*%
X142125000Y-86075000D02*
X142125000Y-79775000D01*
X139725000Y-88475000D02*
X142125000Y-86075000D01*
X137075000Y-88475000D02*
X139725000Y-88475000D01*
X135275000Y-90275000D02*
X137075000Y-88475000D01*
X142125000Y-79775000D02*
X139425000Y-77075000D01*
X139425000Y-77075000D02*
X137675000Y-77075000D01*
X135275000Y-92050000D02*
X135275000Y-90275000D01*
D21*
%TO.N,Net-(J1-Pin_2)*%
X140525000Y-89625000D02*
X142650000Y-91750000D01*
%TO.N,Net-(J1-Pin_3)*%
X137875000Y-91750000D02*
X137875000Y-89625000D01*
%TO.N,Net-(J1-Pin_4)*%
X128975000Y-91750000D02*
X128975000Y-89625000D01*
%TO.N,Net-(J1-Pin_5)*%
X126425000Y-91750000D02*
X124300000Y-91750000D01*
X128725000Y-85075000D02*
X127925000Y-85875000D01*
X127925000Y-90250000D02*
X126425000Y-91750000D01*
X131000000Y-85075000D02*
X128725000Y-85075000D01*
X127925000Y-85875000D02*
X127925000Y-90250000D01*
%TO.N,Net-(J1-Pin_2)*%
X134300000Y-79075000D02*
X137675000Y-79075000D01*
X134275000Y-79100000D02*
X134300000Y-79075000D01*
X134250000Y-79075000D02*
X134275000Y-79100000D01*
%TO.N,Net-(J1-Pin_3)*%
X134300000Y-81075000D02*
X137675000Y-81075000D01*
X134275000Y-81050000D02*
X134300000Y-81075000D01*
X134250000Y-81075000D02*
X134275000Y-81050000D01*
%TO.N,Net-(J1-Pin_4)*%
X134275000Y-83075000D02*
X137675000Y-83075000D01*
D20*
%TO.N,Net-(J3-Pin_2)*%
X134275000Y-92554000D02*
X134275000Y-92050000D01*
X134771000Y-93050000D02*
X134275000Y-92554000D01*
X137875000Y-93050000D02*
X134771000Y-93050000D01*
X142650000Y-93050000D02*
X137875000Y-93050000D01*
X134275000Y-92651040D02*
X134275000Y-92050000D01*
X133876040Y-93050000D02*
X134275000Y-92651040D01*
X128975000Y-93050000D02*
X133876040Y-93050000D01*
X124300000Y-93050000D02*
X128975000Y-93050000D01*
X128950000Y-93050000D02*
X128975000Y-93075000D01*
D21*
%TO.N,Net-(J1-Pin_5)*%
X131000000Y-85075000D02*
X137675000Y-85075000D01*
%TO.N,Net-(J1-Pin_4)*%
X131000000Y-83075000D02*
X134275000Y-83075000D01*
%TO.N,Net-(J1-Pin_3)*%
X131000000Y-81075000D02*
X134250000Y-81075000D01*
%TO.N,Net-(J1-Pin_2)*%
X131000000Y-79075000D02*
X134250000Y-79075000D01*
D19*
%TO.N,+5V*%
X131000000Y-77075000D02*
X137675000Y-77075000D01*
%TD*%
M02*
