%TF.GenerationSoftware,KiCad,Pcbnew,8.0.0*%
%TF.CreationDate,2024-12-13T11:09:16-06:00*%
%TF.ProjectId,Rain connectors,5261696e-2063-46f6-9e6e-6563746f7273,rev?*%
%TF.SameCoordinates,Original*%
%TF.FileFunction,Legend,Top*%
%TF.FilePolarity,Positive*%
%FSLAX46Y46*%
G04 Gerber Fmt 4.6, Leading zero omitted, Abs format (unit mm)*
G04 Created by KiCad (PCBNEW 8.0.0) date 2024-12-13 11:09:16*
%MOMM*%
%LPD*%
G01*
G04 APERTURE LIST*
G04 Aperture macros list*
%AMRoundRect*
0 Rectangle with rounded corners*
0 $1 Rounding radius*
0 $2 $3 $4 $5 $6 $7 $8 $9 X,Y pos of 4 corners*
0 Add a 4 corners polygon primitive as box body*
4,1,4,$2,$3,$4,$5,$6,$7,$8,$9,$2,$3,0*
0 Add four circle primitives for the rounded corners*
1,1,$1+$1,$2,$3*
1,1,$1+$1,$4,$5*
1,1,$1+$1,$6,$7*
1,1,$1+$1,$8,$9*
0 Add four rect primitives between the rounded corners*
20,1,$1+$1,$2,$3,$4,$5,0*
20,1,$1+$1,$4,$5,$6,$7,0*
20,1,$1+$1,$6,$7,$8,$9,0*
20,1,$1+$1,$8,$9,$2,$3,0*%
%AMFreePoly0*
4,1,19,0.500000,-0.750000,0.000000,-0.750000,0.000000,-0.744911,-0.071157,-0.744911,-0.207708,-0.704816,-0.327430,-0.627875,-0.420627,-0.520320,-0.479746,-0.390866,-0.500000,-0.250000,-0.500000,0.250000,-0.479746,0.390866,-0.420627,0.520320,-0.327430,0.627875,-0.207708,0.704816,-0.071157,0.744911,0.000000,0.744911,0.000000,0.750000,0.500000,0.750000,0.500000,-0.750000,0.500000,-0.750000,
$1*%
%AMFreePoly1*
4,1,19,0.000000,0.744911,0.071157,0.744911,0.207708,0.704816,0.327430,0.627875,0.420627,0.520320,0.479746,0.390866,0.500000,0.250000,0.500000,-0.250000,0.479746,-0.390866,0.420627,-0.520320,0.327430,-0.627875,0.207708,-0.704816,0.071157,-0.744911,0.000000,-0.744911,0.000000,-0.750000,-0.500000,-0.750000,-0.500000,0.750000,0.000000,0.750000,0.000000,0.744911,0.000000,0.744911,
$1*%
G04 Aperture macros list end*
%ADD10C,0.200000*%
%ADD11C,0.100000*%
%ADD12C,0.150000*%
%ADD13C,0.120000*%
%ADD14FreePoly0,90.000000*%
%ADD15FreePoly1,90.000000*%
%ADD16O,2.000000X2.800000*%
%ADD17RoundRect,0.250000X0.725000X-0.600000X0.725000X0.600000X-0.725000X0.600000X-0.725000X-0.600000X0*%
%ADD18O,1.950000X1.700000*%
%ADD19RoundRect,0.250000X-0.725000X0.600000X-0.725000X-0.600000X0.725000X-0.600000X0.725000X0.600000X0*%
%ADD20O,1.350000X1.350000*%
%ADD21R,1.350000X1.350000*%
G04 APERTURE END LIST*
D10*
X132288720Y-86709600D02*
X133431578Y-86709600D01*
X135563720Y-74234600D02*
X136706578Y-74234600D01*
X135859600Y-87211279D02*
X135859600Y-86068422D01*
X136431028Y-86639850D02*
X135288171Y-86639850D01*
X132563720Y-74134600D02*
X133706578Y-74134600D01*
X133135149Y-74706028D02*
X133135149Y-73563171D01*
D11*
X131225000Y-90900000D02*
X132325000Y-90900000D01*
X132725000Y-90900000D02*
X132725000Y-90900000D01*
X133125000Y-90900000D02*
X134225000Y-90900000D01*
X134625000Y-90900000D02*
X134625000Y-90900000D01*
X135025000Y-90900000D02*
X136125000Y-90900000D01*
X136525000Y-90900000D02*
X136525000Y-90900000D01*
X136925000Y-90900000D02*
X137825000Y-90900000D01*
X137825000Y-90900000D02*
X137825000Y-92000000D01*
X137825000Y-92400000D02*
X137825000Y-92400000D01*
X137825000Y-92800000D02*
X137825000Y-93900000D01*
X137825000Y-94300000D02*
X137825000Y-94300000D01*
X137825000Y-94700000D02*
X137825000Y-95150000D01*
X137825000Y-95150000D02*
X136725000Y-95150000D01*
X136325000Y-95150000D02*
X136325000Y-95150000D01*
X135925000Y-95150000D02*
X134825000Y-95150000D01*
X134425000Y-95150000D02*
X134425000Y-95150000D01*
X134025000Y-95150000D02*
X132925000Y-95150000D01*
X132525000Y-95150000D02*
X132525000Y-95150000D01*
X132125000Y-95150000D02*
X131225000Y-95150000D01*
X131225000Y-95150000D02*
X131225000Y-94050000D01*
X131225000Y-93650000D02*
X131225000Y-93650000D01*
X131225000Y-93250000D02*
X131225000Y-92150000D01*
X131225000Y-91750000D02*
X131225000Y-91750000D01*
X131225000Y-91350000D02*
X131225000Y-90900000D01*
X133688408Y-90646895D02*
X133421741Y-90265942D01*
X133231265Y-90646895D02*
X133231265Y-89846895D01*
X133231265Y-89846895D02*
X133536027Y-89846895D01*
X133536027Y-89846895D02*
X133612217Y-89884990D01*
X133612217Y-89884990D02*
X133650312Y-89923085D01*
X133650312Y-89923085D02*
X133688408Y-89999276D01*
X133688408Y-89999276D02*
X133688408Y-90113561D01*
X133688408Y-90113561D02*
X133650312Y-90189752D01*
X133650312Y-90189752D02*
X133612217Y-90227847D01*
X133612217Y-90227847D02*
X133536027Y-90265942D01*
X133536027Y-90265942D02*
X133231265Y-90265942D01*
X134374122Y-90646895D02*
X134374122Y-90227847D01*
X134374122Y-90227847D02*
X134336027Y-90151657D01*
X134336027Y-90151657D02*
X134259836Y-90113561D01*
X134259836Y-90113561D02*
X134107455Y-90113561D01*
X134107455Y-90113561D02*
X134031265Y-90151657D01*
X134374122Y-90608800D02*
X134297931Y-90646895D01*
X134297931Y-90646895D02*
X134107455Y-90646895D01*
X134107455Y-90646895D02*
X134031265Y-90608800D01*
X134031265Y-90608800D02*
X133993169Y-90532609D01*
X133993169Y-90532609D02*
X133993169Y-90456419D01*
X133993169Y-90456419D02*
X134031265Y-90380228D01*
X134031265Y-90380228D02*
X134107455Y-90342133D01*
X134107455Y-90342133D02*
X134297931Y-90342133D01*
X134297931Y-90342133D02*
X134374122Y-90304038D01*
X134755075Y-90646895D02*
X134755075Y-90113561D01*
X134755075Y-89846895D02*
X134716979Y-89884990D01*
X134716979Y-89884990D02*
X134755075Y-89923085D01*
X134755075Y-89923085D02*
X134793170Y-89884990D01*
X134793170Y-89884990D02*
X134755075Y-89846895D01*
X134755075Y-89846895D02*
X134755075Y-89923085D01*
X135136027Y-90113561D02*
X135136027Y-90646895D01*
X135136027Y-90189752D02*
X135174122Y-90151657D01*
X135174122Y-90151657D02*
X135250312Y-90113561D01*
X135250312Y-90113561D02*
X135364598Y-90113561D01*
X135364598Y-90113561D02*
X135440789Y-90151657D01*
X135440789Y-90151657D02*
X135478884Y-90227847D01*
X135478884Y-90227847D02*
X135478884Y-90646895D01*
D10*
X136244673Y-91686266D02*
X137006578Y-91686266D01*
X136625625Y-92067219D02*
X136625625Y-91305314D01*
X132194673Y-91811266D02*
X132956578Y-91811266D01*
X146640476Y-90710552D02*
X146640476Y-91377219D01*
X146402381Y-90329600D02*
X146164286Y-91043885D01*
X146164286Y-91043885D02*
X146783333Y-91043885D01*
X141366667Y-90377219D02*
X141985714Y-90377219D01*
X141985714Y-90377219D02*
X141652381Y-90758171D01*
X141652381Y-90758171D02*
X141795238Y-90758171D01*
X141795238Y-90758171D02*
X141890476Y-90805790D01*
X141890476Y-90805790D02*
X141938095Y-90853409D01*
X141938095Y-90853409D02*
X141985714Y-90948647D01*
X141985714Y-90948647D02*
X141985714Y-91186742D01*
X141985714Y-91186742D02*
X141938095Y-91281980D01*
X141938095Y-91281980D02*
X141890476Y-91329600D01*
X141890476Y-91329600D02*
X141795238Y-91377219D01*
X141795238Y-91377219D02*
X141509524Y-91377219D01*
X141509524Y-91377219D02*
X141414286Y-91329600D01*
X141414286Y-91329600D02*
X141366667Y-91281980D01*
X126814286Y-90472457D02*
X126861905Y-90424838D01*
X126861905Y-90424838D02*
X126957143Y-90377219D01*
X126957143Y-90377219D02*
X127195238Y-90377219D01*
X127195238Y-90377219D02*
X127290476Y-90424838D01*
X127290476Y-90424838D02*
X127338095Y-90472457D01*
X127338095Y-90472457D02*
X127385714Y-90567695D01*
X127385714Y-90567695D02*
X127385714Y-90662933D01*
X127385714Y-90662933D02*
X127338095Y-90805790D01*
X127338095Y-90805790D02*
X126766667Y-91377219D01*
X126766667Y-91377219D02*
X127385714Y-91377219D01*
X122535714Y-91377219D02*
X121964286Y-91377219D01*
X122250000Y-91377219D02*
X122250000Y-90377219D01*
X122250000Y-90377219D02*
X122154762Y-90520076D01*
X122154762Y-90520076D02*
X122059524Y-90615314D01*
X122059524Y-90615314D02*
X121964286Y-90662933D01*
D12*
X138416666Y-89529819D02*
X138416666Y-90244104D01*
X138416666Y-90244104D02*
X138369047Y-90386961D01*
X138369047Y-90386961D02*
X138273809Y-90482200D01*
X138273809Y-90482200D02*
X138130952Y-90529819D01*
X138130952Y-90529819D02*
X138035714Y-90529819D01*
X138845238Y-89625057D02*
X138892857Y-89577438D01*
X138892857Y-89577438D02*
X138988095Y-89529819D01*
X138988095Y-89529819D02*
X139226190Y-89529819D01*
X139226190Y-89529819D02*
X139321428Y-89577438D01*
X139321428Y-89577438D02*
X139369047Y-89625057D01*
X139369047Y-89625057D02*
X139416666Y-89720295D01*
X139416666Y-89720295D02*
X139416666Y-89815533D01*
X139416666Y-89815533D02*
X139369047Y-89958390D01*
X139369047Y-89958390D02*
X138797619Y-90529819D01*
X138797619Y-90529819D02*
X139416666Y-90529819D01*
X129566666Y-89529819D02*
X129566666Y-90244104D01*
X129566666Y-90244104D02*
X129519047Y-90386961D01*
X129519047Y-90386961D02*
X129423809Y-90482200D01*
X129423809Y-90482200D02*
X129280952Y-90529819D01*
X129280952Y-90529819D02*
X129185714Y-90529819D01*
X130566666Y-90529819D02*
X129995238Y-90529819D01*
X130280952Y-90529819D02*
X130280952Y-89529819D01*
X130280952Y-89529819D02*
X130185714Y-89672676D01*
X130185714Y-89672676D02*
X130090476Y-89767914D01*
X130090476Y-89767914D02*
X129995238Y-89815533D01*
X138254819Y-94608333D02*
X138969104Y-94608333D01*
X138969104Y-94608333D02*
X139111961Y-94655952D01*
X139111961Y-94655952D02*
X139207200Y-94751190D01*
X139207200Y-94751190D02*
X139254819Y-94894047D01*
X139254819Y-94894047D02*
X139254819Y-94989285D01*
X138254819Y-94227380D02*
X138254819Y-93608333D01*
X138254819Y-93608333D02*
X138635771Y-93941666D01*
X138635771Y-93941666D02*
X138635771Y-93798809D01*
X138635771Y-93798809D02*
X138683390Y-93703571D01*
X138683390Y-93703571D02*
X138731009Y-93655952D01*
X138731009Y-93655952D02*
X138826247Y-93608333D01*
X138826247Y-93608333D02*
X139064342Y-93608333D01*
X139064342Y-93608333D02*
X139159580Y-93655952D01*
X139159580Y-93655952D02*
X139207200Y-93703571D01*
X139207200Y-93703571D02*
X139254819Y-93798809D01*
X139254819Y-93798809D02*
X139254819Y-94084523D01*
X139254819Y-94084523D02*
X139207200Y-94179761D01*
X139207200Y-94179761D02*
X139159580Y-94227380D01*
D13*
%TO.C,4*%
X146750000Y-94625000D02*
X146150000Y-94625000D01*
X145450000Y-93925000D02*
X145450000Y-92525000D01*
X147450000Y-92525000D02*
X147450000Y-93925000D01*
X146150000Y-91825000D02*
X146750000Y-91825000D01*
X146150000Y-94625000D02*
G75*
G02*
X145450000Y-93925000I-1J699999D01*
G01*
X147450000Y-93925000D02*
G75*
G02*
X146750000Y-94625000I-699999J-1D01*
G01*
X145450000Y-92525000D02*
G75*
G02*
X146150000Y-91825000I700000J0D01*
G01*
X146750000Y-91825000D02*
G75*
G02*
X147450000Y-92525000I0J-700000D01*
G01*
%TO.C,3*%
X142000000Y-94625000D02*
X141400000Y-94625000D01*
X140700000Y-93925000D02*
X140700000Y-92525000D01*
X142700000Y-92525000D02*
X142700000Y-93925000D01*
X141400000Y-91825000D02*
X142000000Y-91825000D01*
X141400000Y-94625000D02*
G75*
G02*
X140700000Y-93925000I-1J699999D01*
G01*
X142700000Y-93925000D02*
G75*
G02*
X142000000Y-94625000I-699999J-1D01*
G01*
X140700000Y-92525000D02*
G75*
G02*
X141400000Y-91825000I700000J0D01*
G01*
X142000000Y-91825000D02*
G75*
G02*
X142700000Y-92525000I0J-700000D01*
G01*
%TO.C,2*%
X127400000Y-94625000D02*
X126800000Y-94625000D01*
X126100000Y-93925000D02*
X126100000Y-92525000D01*
X128100000Y-92525000D02*
X128100000Y-93925000D01*
X126800000Y-91825000D02*
X127400000Y-91825000D01*
X126800000Y-94625000D02*
G75*
G02*
X126100000Y-93925000I-1J699999D01*
G01*
X128100000Y-93925000D02*
G75*
G02*
X127400000Y-94625000I-699999J-1D01*
G01*
X126100000Y-92525000D02*
G75*
G02*
X126800000Y-91825000I700000J0D01*
G01*
X127400000Y-91825000D02*
G75*
G02*
X128100000Y-92525000I0J-700000D01*
G01*
%TO.C,1*%
X122550000Y-94625000D02*
X121950000Y-94625000D01*
X121250000Y-93925000D02*
X121250000Y-92525000D01*
X123250000Y-92525000D02*
X123250000Y-93925000D01*
X121950000Y-91825000D02*
X122550000Y-91825000D01*
X121950000Y-94625000D02*
G75*
G02*
X121250000Y-93925000I-1J699999D01*
G01*
X123250000Y-93925000D02*
G75*
G02*
X122550000Y-94625000I-699999J-1D01*
G01*
X121250000Y-92525000D02*
G75*
G02*
X121950000Y-91825000I700000J0D01*
G01*
X122550000Y-91825000D02*
G75*
G02*
X123250000Y-92525000I0J-700000D01*
G01*
%TO.C,J2*%
X135090000Y-89285000D02*
X147910000Y-89285000D01*
X147910000Y-89285000D02*
X147910000Y-71565000D01*
X145610000Y-88175000D02*
X145610000Y-82025000D01*
X147910000Y-88175000D02*
X145610000Y-88175000D01*
X135090000Y-88065000D02*
X135090000Y-89285000D01*
X137990000Y-88065000D02*
X135090000Y-88065000D01*
X137990000Y-87785000D02*
X137990000Y-88065000D01*
X137000000Y-87075000D02*
X137000000Y-86275000D01*
X140600000Y-86875000D02*
X140600000Y-89285000D01*
X145610000Y-86875000D02*
X140600000Y-86875000D01*
X137400000Y-86675000D02*
X137000000Y-87075000D01*
X137000000Y-86275000D02*
X137400000Y-86675000D01*
X140600000Y-85225000D02*
X145610000Y-85225000D01*
X140600000Y-84725000D02*
X140600000Y-85225000D01*
X144010000Y-84725000D02*
X140600000Y-84725000D01*
X140600000Y-83625000D02*
X144010000Y-83625000D01*
X144010000Y-83625000D02*
X144010000Y-84725000D01*
X140600000Y-83125000D02*
X140600000Y-83625000D01*
X145610000Y-83125000D02*
X140600000Y-83125000D01*
X142000000Y-81225000D02*
X142000000Y-79625000D01*
X143800000Y-81225000D02*
X142000000Y-81225000D01*
X142000000Y-79625000D02*
X143800000Y-79625000D01*
X143800000Y-79625000D02*
X143800000Y-81225000D01*
X145610000Y-78825000D02*
X145610000Y-72675000D01*
X140600000Y-77725000D02*
X140600000Y-77225000D01*
X145610000Y-77725000D02*
X140600000Y-77725000D01*
X140600000Y-77225000D02*
X144010000Y-77225000D01*
X144010000Y-77225000D02*
X144010000Y-76125000D01*
X140600000Y-76125000D02*
X140600000Y-75625000D01*
X144010000Y-76125000D02*
X140600000Y-76125000D01*
X140600000Y-75625000D02*
X145610000Y-75625000D01*
X140600000Y-73975000D02*
X140600000Y-71565000D01*
X145610000Y-73975000D02*
X140600000Y-73975000D01*
X135090000Y-72785000D02*
X137990000Y-72785000D01*
X137990000Y-72785000D02*
X137990000Y-73065000D01*
X145610000Y-72675000D02*
X147910000Y-72675000D01*
X135090000Y-71565000D02*
X135090000Y-72785000D01*
X147910000Y-71565000D02*
X135090000Y-71565000D01*
%TO.C,J1*%
X133610000Y-71565000D02*
X120790000Y-71565000D01*
X120790000Y-71565000D02*
X120790000Y-89285000D01*
X123090000Y-72675000D02*
X123090000Y-78825000D01*
X120790000Y-72675000D02*
X123090000Y-72675000D01*
X133610000Y-72785000D02*
X133610000Y-71565000D01*
X130710000Y-72785000D02*
X133610000Y-72785000D01*
X130710000Y-73065000D02*
X130710000Y-72785000D01*
X131700000Y-73775000D02*
X131700000Y-74575000D01*
X128100000Y-73975000D02*
X128100000Y-71565000D01*
X123090000Y-73975000D02*
X128100000Y-73975000D01*
X131300000Y-74175000D02*
X131700000Y-73775000D01*
X131700000Y-74575000D02*
X131300000Y-74175000D01*
X128100000Y-75625000D02*
X123090000Y-75625000D01*
X128100000Y-76125000D02*
X128100000Y-75625000D01*
X124690000Y-76125000D02*
X128100000Y-76125000D01*
X128100000Y-77225000D02*
X124690000Y-77225000D01*
X124690000Y-77225000D02*
X124690000Y-76125000D01*
X128100000Y-77725000D02*
X128100000Y-77225000D01*
X123090000Y-77725000D02*
X128100000Y-77725000D01*
X126700000Y-79625000D02*
X126700000Y-81225000D01*
X124900000Y-79625000D02*
X126700000Y-79625000D01*
X126700000Y-81225000D02*
X124900000Y-81225000D01*
X124900000Y-81225000D02*
X124900000Y-79625000D01*
X123090000Y-82025000D02*
X123090000Y-88175000D01*
X128100000Y-83125000D02*
X128100000Y-83625000D01*
X123090000Y-83125000D02*
X128100000Y-83125000D01*
X128100000Y-83625000D02*
X124690000Y-83625000D01*
X124690000Y-83625000D02*
X124690000Y-84725000D01*
X128100000Y-84725000D02*
X128100000Y-85225000D01*
X124690000Y-84725000D02*
X128100000Y-84725000D01*
X128100000Y-85225000D02*
X123090000Y-85225000D01*
X128100000Y-86875000D02*
X128100000Y-89285000D01*
X123090000Y-86875000D02*
X128100000Y-86875000D01*
X133610000Y-88065000D02*
X130710000Y-88065000D01*
X130710000Y-88065000D02*
X130710000Y-87785000D01*
X123090000Y-88175000D02*
X120790000Y-88175000D01*
X133610000Y-89285000D02*
X133610000Y-88065000D01*
X120790000Y-89285000D02*
X133610000Y-89285000D01*
%TO.C,J3*%
X135550000Y-94635000D02*
X131490000Y-94635000D01*
X131490000Y-92515000D02*
X131490000Y-94635000D01*
X135550000Y-92515000D02*
X135550000Y-94635000D01*
X135550000Y-92515000D02*
X131490000Y-92515000D01*
X136550000Y-92515000D02*
X137610000Y-92515000D01*
X137610000Y-92515000D02*
X137610000Y-93575000D01*
%TD*%
%LPC*%
D14*
%TO.C,4*%
X146450000Y-93875000D03*
D15*
X146450000Y-92575000D03*
%TD*%
D14*
%TO.C,3*%
X141700000Y-93875000D03*
D15*
X141700000Y-92575000D03*
%TD*%
D14*
%TO.C,2*%
X127100000Y-93875000D03*
D15*
X127100000Y-92575000D03*
%TD*%
D14*
%TO.C,1*%
X122250000Y-93875000D03*
D15*
X122250000Y-92575000D03*
%TD*%
D16*
%TO.C,J2*%
X145100000Y-80425000D03*
D17*
X138600000Y-86675000D03*
D18*
X138600000Y-84175000D03*
X138600000Y-81675000D03*
X138600000Y-79175000D03*
X138600000Y-76675000D03*
X138600000Y-74175000D03*
%TD*%
D16*
%TO.C,J1*%
X123600000Y-80425000D03*
D19*
X130100000Y-74175000D03*
D18*
X130100000Y-76675000D03*
X130100000Y-79175000D03*
X130100000Y-81675000D03*
X130100000Y-84175000D03*
X130100000Y-86675000D03*
%TD*%
D20*
%TO.C,J3*%
X132550000Y-93575000D03*
X134550000Y-93575000D03*
D21*
X136550000Y-93575000D03*
%TD*%
%LPD*%
M02*
