G04 #@! TF.GenerationSoftware,KiCad,Pcbnew,8.0.0*
G04 #@! TF.CreationDate,2025-01-14T11:15:22-06:00*
G04 #@! TF.ProjectId,LightControlBoard,4c696768-7443-46f6-9e74-726f6c426f61,rev?*
G04 #@! TF.SameCoordinates,Original*
G04 #@! TF.FileFunction,Paste,Top*
G04 #@! TF.FilePolarity,Positive*
%FSLAX46Y46*%
G04 Gerber Fmt 4.6, Leading zero omitted, Abs format (unit mm)*
G04 Created by KiCad (PCBNEW 8.0.0) date 2025-01-14 11:15:22*
%MOMM*%
%LPD*%
G01*
G04 APERTURE LIST*
G04 Aperture macros list*
%AMRoundRect*
0 Rectangle with rounded corners*
0 $1 Rounding radius*
0 $2 $3 $4 $5 $6 $7 $8 $9 X,Y pos of 4 corners*
0 Add a 4 corners polygon primitive as box body*
4,1,4,$2,$3,$4,$5,$6,$7,$8,$9,$2,$3,0*
0 Add four circle primitives for the rounded corners*
1,1,$1+$1,$2,$3*
1,1,$1+$1,$4,$5*
1,1,$1+$1,$6,$7*
1,1,$1+$1,$8,$9*
0 Add four rect primitives between the rounded corners*
20,1,$1+$1,$2,$3,$4,$5,0*
20,1,$1+$1,$4,$5,$6,$7,0*
20,1,$1+$1,$6,$7,$8,$9,0*
20,1,$1+$1,$8,$9,$2,$3,0*%
G04 Aperture macros list end*
%ADD10RoundRect,0.250000X-0.625000X0.312500X-0.625000X-0.312500X0.625000X-0.312500X0.625000X0.312500X0*%
%ADD11RoundRect,0.250000X0.625000X-0.312500X0.625000X0.312500X-0.625000X0.312500X-0.625000X-0.312500X0*%
%ADD12R,0.609600X1.549400*%
%ADD13R,1.104900X0.508000*%
G04 APERTURE END LIST*
D10*
X144780000Y-61710000D03*
X144780000Y-64635000D03*
X116090000Y-56855000D03*
X116090000Y-59780000D03*
X116060000Y-61810000D03*
X116060000Y-64735000D03*
X126570000Y-63070000D03*
X126570000Y-65995000D03*
D11*
X138655000Y-112460000D03*
X138655000Y-109535000D03*
D12*
X138060000Y-94105000D03*
X136790000Y-94105000D03*
X135520000Y-94105000D03*
X134250000Y-94105000D03*
X134250000Y-99505000D03*
X135520000Y-99505000D03*
X136790000Y-99505000D03*
X138060000Y-99505000D03*
D13*
X153110000Y-65574262D03*
X153110000Y-64304262D03*
X153110000Y-63034262D03*
X153110000Y-61764262D03*
X153110000Y-60494262D03*
X153110000Y-59224262D03*
X153110000Y-57954262D03*
X153110000Y-56684262D03*
X148030000Y-56684262D03*
X148030000Y-57954262D03*
X148030000Y-59224262D03*
X148030000Y-60494262D03*
X148030000Y-61764262D03*
X148030000Y-63034262D03*
X148030000Y-64304262D03*
X148030000Y-65574262D03*
D10*
X156170000Y-57605000D03*
X156170000Y-60530000D03*
X126570000Y-57565000D03*
X126570000Y-60490000D03*
X145010000Y-56185000D03*
X145010000Y-59110000D03*
X156190000Y-62940000D03*
X156190000Y-65865000D03*
D13*
X123920000Y-65574262D03*
X123920000Y-64304262D03*
X123920000Y-63034262D03*
X123920000Y-61764262D03*
X123920000Y-60494262D03*
X123920000Y-59224262D03*
X123920000Y-57954262D03*
X123920000Y-56684262D03*
X118840000Y-56684262D03*
X118840000Y-57954262D03*
X118840000Y-59224262D03*
X118840000Y-60494262D03*
X118840000Y-61764262D03*
X118840000Y-63034262D03*
X118840000Y-64304262D03*
X118840000Y-65574262D03*
M02*
