%TF.GenerationSoftware,KiCad,Pcbnew,8.0.0*%
%TF.CreationDate,2024-12-09T13:49:47-06:00*%
%TF.ProjectId,LightControlBoard,4c696768-7443-46f6-9e74-726f6c426f61,rev?*%
%TF.SameCoordinates,Original*%
%TF.FileFunction,Drillmap*%
%TF.FilePolarity,Positive*%
%FSLAX45Y45*%
G04 Gerber Fmt 4.5, Leading zero omitted, Abs format (unit mm)*
G04 Created by KiCad (PCBNEW 8.0.0) date 2024-12-09 13:49:47*
%MOMM*%
%LPD*%
G01*
G04 APERTURE LIST*
%ADD10C,0.050000*%
%ADD11C,0.200000*%
%ADD12C,0.100000*%
%ADD13C,0.115000*%
%ADD14C,0.160000*%
G04 APERTURE END LIST*
D10*
X11093000Y-3288500D02*
X16160000Y-3288500D01*
X16160000Y-13399000D01*
X11093000Y-13399000D01*
X11093000Y-3288500D01*
D11*
D12*
X11378000Y-5819000D02*
X11408000Y-5849000D01*
X11408000Y-5819000D02*
X11378000Y-5849000D01*
X11748000Y-5653426D02*
X11778000Y-5683426D01*
X11778000Y-5653426D02*
X11748000Y-5683426D01*
X11749000Y-6415000D02*
X11779000Y-6445000D01*
X11779000Y-6415000D02*
X11749000Y-6445000D01*
X12488000Y-6543000D02*
X12518000Y-6573000D01*
X12518000Y-6543000D02*
X12488000Y-6573000D01*
X12491000Y-5575000D02*
X12521000Y-5605000D01*
X12521000Y-5575000D02*
X12491000Y-5605000D01*
X12493000Y-5781000D02*
X12523000Y-5811000D01*
X12523000Y-5781000D02*
X12493000Y-5811000D01*
X12799000Y-5958000D02*
X12829000Y-5988000D01*
X12829000Y-5958000D02*
X12799000Y-5988000D01*
X13608000Y-9669000D02*
X13638000Y-9699000D01*
X13638000Y-9669000D02*
X13608000Y-9699000D01*
X13790500Y-9204000D02*
X13820500Y-9234000D01*
X13820500Y-9204000D02*
X13790500Y-9234000D01*
X14309000Y-5909000D02*
X14339000Y-5939000D01*
X14339000Y-5909000D02*
X14309000Y-5939000D01*
X14665000Y-5656000D02*
X14695000Y-5686000D01*
X14695000Y-5656000D02*
X14665000Y-5686000D01*
X14667000Y-6416000D02*
X14697000Y-6446000D01*
X14697000Y-6416000D02*
X14667000Y-6446000D01*
X14815500Y-9256500D02*
X14845500Y-9286500D01*
X14845500Y-9256500D02*
X14815500Y-9286500D01*
X15418000Y-5778000D02*
X15448000Y-5808000D01*
X15448000Y-5778000D02*
X15418000Y-5808000D01*
X15420000Y-6543000D02*
X15450000Y-6573000D01*
X15450000Y-6543000D02*
X15420000Y-6573000D01*
X15448000Y-5654000D02*
X15478000Y-5684000D01*
X15478000Y-5654000D02*
X15448000Y-5684000D01*
X15751000Y-6037000D02*
X15781000Y-6067000D01*
X15781000Y-6037000D02*
X15751000Y-6067000D01*
X13515500Y-10425500D02*
G75*
G02*
X13435500Y-10425500I-40000J0D01*
G01*
X13435500Y-10425500D02*
G75*
G02*
X13515500Y-10425500I40000J0D01*
G01*
X13815500Y-10425500D02*
G75*
G02*
X13735500Y-10425500I-40000J0D01*
G01*
X13735500Y-10425500D02*
G75*
G02*
X13815500Y-10425500I40000J0D01*
G01*
X11692500Y-5004000D02*
X11692500Y-5094000D01*
X11647500Y-5049000D02*
X11737500Y-5049000D01*
X11819500Y-4750000D02*
X11819500Y-4840000D01*
X11774500Y-4795000D02*
X11864500Y-4795000D01*
X11946500Y-5004000D02*
X11946500Y-5094000D01*
X11901500Y-5049000D02*
X11991500Y-5049000D01*
X12073500Y-4750000D02*
X12073500Y-4840000D01*
X12028500Y-4795000D02*
X12118500Y-4795000D01*
X12200500Y-5004000D02*
X12200500Y-5094000D01*
X12155500Y-5049000D02*
X12245500Y-5049000D01*
X12327500Y-4750000D02*
X12327500Y-4840000D01*
X12282500Y-4795000D02*
X12372500Y-4795000D01*
X12454500Y-5004000D02*
X12454500Y-5094000D01*
X12409500Y-5049000D02*
X12499500Y-5049000D01*
X12581500Y-4750000D02*
X12581500Y-4840000D01*
X12536500Y-4795000D02*
X12626500Y-4795000D01*
X12598000Y-9898000D02*
X12598000Y-9988000D01*
X12553000Y-9943000D02*
X12643000Y-9943000D01*
X12598000Y-10152000D02*
X12598000Y-10242000D01*
X12553000Y-10197000D02*
X12643000Y-10197000D01*
X12598000Y-10406000D02*
X12598000Y-10496000D01*
X12553000Y-10451000D02*
X12643000Y-10451000D01*
X12598000Y-10660000D02*
X12598000Y-10750000D01*
X12553000Y-10705000D02*
X12643000Y-10705000D01*
X12852000Y-10025000D02*
X12852000Y-10115000D01*
X12807000Y-10070000D02*
X12897000Y-10070000D01*
X12852000Y-10279000D02*
X12852000Y-10369000D01*
X12807000Y-10324000D02*
X12897000Y-10324000D01*
X12852000Y-10533000D02*
X12852000Y-10623000D01*
X12807000Y-10578000D02*
X12897000Y-10578000D01*
X12852000Y-10787000D02*
X12852000Y-10877000D01*
X12807000Y-10832000D02*
X12897000Y-10832000D01*
X13493000Y-10909000D02*
X13493000Y-10999000D01*
X13448000Y-10954000D02*
X13538000Y-10954000D01*
X13493000Y-11163000D02*
X13493000Y-11253000D01*
X13448000Y-11208000D02*
X13538000Y-11208000D01*
X14388000Y-9893000D02*
X14388000Y-9983000D01*
X14343000Y-9938000D02*
X14433000Y-9938000D01*
X14388000Y-10147000D02*
X14388000Y-10237000D01*
X14343000Y-10192000D02*
X14433000Y-10192000D01*
X14388000Y-10401000D02*
X14388000Y-10491000D01*
X14343000Y-10446000D02*
X14433000Y-10446000D01*
X14388000Y-10655000D02*
X14388000Y-10745000D01*
X14343000Y-10700000D02*
X14433000Y-10700000D01*
X14642000Y-10020000D02*
X14642000Y-10110000D01*
X14597000Y-10065000D02*
X14687000Y-10065000D01*
X14642000Y-10274000D02*
X14642000Y-10364000D01*
X14597000Y-10319000D02*
X14687000Y-10319000D01*
X14642000Y-10528000D02*
X14642000Y-10618000D01*
X14597000Y-10573000D02*
X14687000Y-10573000D01*
X14642000Y-10782000D02*
X14642000Y-10872000D01*
X14597000Y-10827000D02*
X14687000Y-10827000D01*
X14661500Y-5008500D02*
X14661500Y-5098500D01*
X14616500Y-5053500D02*
X14706500Y-5053500D01*
X14788500Y-4754500D02*
X14788500Y-4844500D01*
X14743500Y-4799500D02*
X14833500Y-4799500D01*
X14915500Y-5008500D02*
X14915500Y-5098500D01*
X14870500Y-5053500D02*
X14960500Y-5053500D01*
X15042500Y-4754500D02*
X15042500Y-4844500D01*
X14997500Y-4799500D02*
X15087500Y-4799500D01*
X15169500Y-5008500D02*
X15169500Y-5098500D01*
X15124500Y-5053500D02*
X15214500Y-5053500D01*
X15296500Y-4754500D02*
X15296500Y-4844500D01*
X15251500Y-4799500D02*
X15341500Y-4799500D01*
X15423500Y-5008500D02*
X15423500Y-5098500D01*
X15378500Y-5053500D02*
X15468500Y-5053500D01*
X15550500Y-4754500D02*
X15550500Y-4844500D01*
X15505500Y-4799500D02*
X15595500Y-4799500D01*
X12073118Y-7338118D02*
X12073118Y-7269882D01*
X12004882Y-7269882D01*
X12004882Y-7338118D01*
X12073118Y-7338118D01*
X12073118Y-7592118D02*
X12073118Y-7523882D01*
X12004882Y-7523882D01*
X12004882Y-7592118D01*
X12073118Y-7592118D01*
X12073118Y-7846118D02*
X12073118Y-7777882D01*
X12004882Y-7777882D01*
X12004882Y-7846118D01*
X12073118Y-7846118D01*
X12073118Y-8100118D02*
X12073118Y-8031882D01*
X12004882Y-8031882D01*
X12004882Y-8100118D01*
X12073118Y-8100118D01*
X12073118Y-8354118D02*
X12073118Y-8285882D01*
X12004882Y-8285882D01*
X12004882Y-8354118D01*
X12073118Y-8354118D01*
X12073118Y-8608118D02*
X12073118Y-8539882D01*
X12004882Y-8539882D01*
X12004882Y-8608118D01*
X12073118Y-8608118D01*
X12073118Y-8862118D02*
X12073118Y-8793882D01*
X12004882Y-8793882D01*
X12004882Y-8862118D01*
X12073118Y-8862118D01*
X12327118Y-7338118D02*
X12327118Y-7269882D01*
X12258882Y-7269882D01*
X12258882Y-7338118D01*
X12327118Y-7338118D01*
X12327118Y-8862118D02*
X12327118Y-8793882D01*
X12258882Y-8793882D01*
X12258882Y-8862118D01*
X12327118Y-8862118D01*
X12581118Y-7338118D02*
X12581118Y-7269882D01*
X12512882Y-7269882D01*
X12512882Y-7338118D01*
X12581118Y-7338118D01*
X12581118Y-8862118D02*
X12581118Y-8793882D01*
X12512882Y-8793882D01*
X12512882Y-8862118D01*
X12581118Y-8862118D01*
X12835118Y-7338118D02*
X12835118Y-7269882D01*
X12766882Y-7269882D01*
X12766882Y-7338118D01*
X12835118Y-7338118D01*
X12835118Y-8862118D02*
X12835118Y-8793882D01*
X12766882Y-8793882D01*
X12766882Y-8862118D01*
X12835118Y-8862118D01*
X13089118Y-7338118D02*
X13089118Y-7269882D01*
X13020882Y-7269882D01*
X13020882Y-7338118D01*
X13089118Y-7338118D01*
X13089118Y-8862118D02*
X13089118Y-8793882D01*
X13020882Y-8793882D01*
X13020882Y-8862118D01*
X13089118Y-8862118D01*
X13343118Y-7338118D02*
X13343118Y-7269882D01*
X13274882Y-7269882D01*
X13274882Y-7338118D01*
X13343118Y-7338118D01*
X13343118Y-8862118D02*
X13343118Y-8793882D01*
X13274882Y-8793882D01*
X13274882Y-8862118D01*
X13343118Y-8862118D01*
X13597118Y-7338118D02*
X13597118Y-7269882D01*
X13528882Y-7269882D01*
X13528882Y-7338118D01*
X13597118Y-7338118D01*
X13597118Y-8862118D02*
X13597118Y-8793882D01*
X13528882Y-8793882D01*
X13528882Y-8862118D01*
X13597118Y-8862118D01*
X13851118Y-7338118D02*
X13851118Y-7269882D01*
X13782882Y-7269882D01*
X13782882Y-7338118D01*
X13851118Y-7338118D01*
X13851118Y-8862118D02*
X13851118Y-8793882D01*
X13782882Y-8793882D01*
X13782882Y-8862118D01*
X13851118Y-8862118D01*
X14105118Y-7338118D02*
X14105118Y-7269882D01*
X14036882Y-7269882D01*
X14036882Y-7338118D01*
X14105118Y-7338118D01*
X14105118Y-8862118D02*
X14105118Y-8793882D01*
X14036882Y-8793882D01*
X14036882Y-8862118D01*
X14105118Y-8862118D01*
X14359118Y-7338118D02*
X14359118Y-7269882D01*
X14290882Y-7269882D01*
X14290882Y-7338118D01*
X14359118Y-7338118D01*
X14359118Y-8862118D02*
X14359118Y-8793882D01*
X14290882Y-8793882D01*
X14290882Y-8862118D01*
X14359118Y-8862118D01*
X14613118Y-7338118D02*
X14613118Y-7269882D01*
X14544882Y-7269882D01*
X14544882Y-7338118D01*
X14613118Y-7338118D01*
X14613118Y-8862118D02*
X14613118Y-8793882D01*
X14544882Y-8793882D01*
X14544882Y-8862118D01*
X14613118Y-8862118D01*
X14867118Y-7338118D02*
X14867118Y-7269882D01*
X14798882Y-7269882D01*
X14798882Y-7338118D01*
X14867118Y-7338118D01*
X14867118Y-8862118D02*
X14867118Y-8793882D01*
X14798882Y-8793882D01*
X14798882Y-8862118D01*
X14867118Y-8862118D01*
X15121118Y-7338118D02*
X15121118Y-7269882D01*
X15052882Y-7269882D01*
X15052882Y-7338118D01*
X15121118Y-7338118D01*
X15121118Y-8862118D02*
X15121118Y-8793882D01*
X15052882Y-8793882D01*
X15052882Y-8862118D01*
X15121118Y-8862118D01*
X15375118Y-7338118D02*
X15375118Y-7269882D01*
X15306882Y-7269882D01*
X15306882Y-7338118D01*
X15375118Y-7338118D01*
X15375118Y-8862118D02*
X15375118Y-8793882D01*
X15306882Y-8793882D01*
X15306882Y-8862118D01*
X15375118Y-8862118D01*
X15143000Y-11772500D02*
X15193000Y-11722500D01*
X15143000Y-11672500D01*
X15093000Y-11722500D01*
X15143000Y-11772500D01*
X15143000Y-12026500D02*
X15193000Y-11976500D01*
X15143000Y-11926500D01*
X15093000Y-11976500D01*
X15143000Y-12026500D01*
X15143000Y-12280500D02*
X15193000Y-12230500D01*
X15143000Y-12180500D01*
X15093000Y-12230500D01*
X15143000Y-12280500D01*
D13*
X11570500Y-11670500D02*
X11685500Y-11785500D01*
X11685500Y-11670500D02*
X11570500Y-11785500D01*
X11685500Y-11728000D02*
G75*
G02*
X11570500Y-11728000I-57500J0D01*
G01*
X11570500Y-11728000D02*
G75*
G02*
X11685500Y-11728000I57500J0D01*
G01*
X11570500Y-12170500D02*
X11685500Y-12285500D01*
X11685500Y-12170500D02*
X11570500Y-12285500D01*
X11685500Y-12228000D02*
G75*
G02*
X11570500Y-12228000I-57500J0D01*
G01*
X11570500Y-12228000D02*
G75*
G02*
X11685500Y-12228000I57500J0D01*
G01*
X12390500Y-11670500D02*
X12505500Y-11785500D01*
X12505500Y-11670500D02*
X12390500Y-11785500D01*
X12505500Y-11728000D02*
G75*
G02*
X12390500Y-11728000I-57500J0D01*
G01*
X12390500Y-11728000D02*
G75*
G02*
X12505500Y-11728000I57500J0D01*
G01*
X12390500Y-12170500D02*
X12505500Y-12285500D01*
X12505500Y-12170500D02*
X12390500Y-12285500D01*
X12505500Y-12228000D02*
G75*
G02*
X12390500Y-12228000I-57500J0D01*
G01*
X12390500Y-12228000D02*
G75*
G02*
X12505500Y-12228000I57500J0D01*
G01*
D14*
X11280000Y-3775000D02*
X11440000Y-3935000D01*
X11440000Y-3775000D02*
X11280000Y-3935000D01*
X11360000Y-3775000D02*
X11360000Y-3935000D01*
X11280000Y-3855000D02*
X11440000Y-3855000D01*
X11578000Y-9530500D02*
X11738000Y-9690500D01*
X11738000Y-9530500D02*
X11578000Y-9690500D01*
X11658000Y-9530500D02*
X11658000Y-9690500D01*
X11578000Y-9610500D02*
X11738000Y-9610500D01*
X11578000Y-11084500D02*
X11738000Y-11244500D01*
X11738000Y-11084500D02*
X11578000Y-11244500D01*
X11658000Y-11084500D02*
X11658000Y-11244500D01*
X11578000Y-11164500D02*
X11738000Y-11164500D01*
X12834000Y-3775000D02*
X12994000Y-3935000D01*
X12994000Y-3775000D02*
X12834000Y-3935000D01*
X12914000Y-3775000D02*
X12914000Y-3935000D01*
X12834000Y-3855000D02*
X12994000Y-3855000D01*
X14249000Y-3779500D02*
X14409000Y-3939500D01*
X14409000Y-3779500D02*
X14249000Y-3939500D01*
X14329000Y-3779500D02*
X14329000Y-3939500D01*
X14249000Y-3859500D02*
X14409000Y-3859500D01*
X15502000Y-9525500D02*
X15662000Y-9685500D01*
X15662000Y-9525500D02*
X15502000Y-9685500D01*
X15582000Y-9525500D02*
X15582000Y-9685500D01*
X15502000Y-9605500D02*
X15662000Y-9605500D01*
X15502000Y-11079500D02*
X15662000Y-11239500D01*
X15662000Y-11079500D02*
X15502000Y-11239500D01*
X15582000Y-11079500D02*
X15582000Y-11239500D01*
X15502000Y-11159500D02*
X15662000Y-11159500D01*
X15803000Y-3779500D02*
X15963000Y-3939500D01*
X15963000Y-3779500D02*
X15803000Y-3939500D01*
X15883000Y-3779500D02*
X15883000Y-3939500D01*
X15803000Y-3859500D02*
X15963000Y-3859500D01*
D11*
X11351277Y-13712984D02*
X11351277Y-13512984D01*
X11351277Y-13512984D02*
X11398896Y-13512984D01*
X11398896Y-13512984D02*
X11427467Y-13522508D01*
X11427467Y-13522508D02*
X11446515Y-13541555D01*
X11446515Y-13541555D02*
X11456039Y-13560603D01*
X11456039Y-13560603D02*
X11465562Y-13598698D01*
X11465562Y-13598698D02*
X11465562Y-13627269D01*
X11465562Y-13627269D02*
X11456039Y-13665365D01*
X11456039Y-13665365D02*
X11446515Y-13684412D01*
X11446515Y-13684412D02*
X11427467Y-13703460D01*
X11427467Y-13703460D02*
X11398896Y-13712984D01*
X11398896Y-13712984D02*
X11351277Y-13712984D01*
X11551277Y-13712984D02*
X11551277Y-13579650D01*
X11551277Y-13617746D02*
X11560801Y-13598698D01*
X11560801Y-13598698D02*
X11570324Y-13589174D01*
X11570324Y-13589174D02*
X11589372Y-13579650D01*
X11589372Y-13579650D02*
X11608420Y-13579650D01*
X11675086Y-13712984D02*
X11675086Y-13579650D01*
X11675086Y-13512984D02*
X11665562Y-13522508D01*
X11665562Y-13522508D02*
X11675086Y-13532031D01*
X11675086Y-13532031D02*
X11684610Y-13522508D01*
X11684610Y-13522508D02*
X11675086Y-13512984D01*
X11675086Y-13512984D02*
X11675086Y-13532031D01*
X11798896Y-13712984D02*
X11779848Y-13703460D01*
X11779848Y-13703460D02*
X11770324Y-13684412D01*
X11770324Y-13684412D02*
X11770324Y-13512984D01*
X11903658Y-13712984D02*
X11884610Y-13703460D01*
X11884610Y-13703460D02*
X11875086Y-13684412D01*
X11875086Y-13684412D02*
X11875086Y-13512984D01*
X12132229Y-13712984D02*
X12132229Y-13512984D01*
X12132229Y-13512984D02*
X12198896Y-13655841D01*
X12198896Y-13655841D02*
X12265562Y-13512984D01*
X12265562Y-13512984D02*
X12265562Y-13712984D01*
X12446515Y-13712984D02*
X12446515Y-13608222D01*
X12446515Y-13608222D02*
X12436991Y-13589174D01*
X12436991Y-13589174D02*
X12417943Y-13579650D01*
X12417943Y-13579650D02*
X12379848Y-13579650D01*
X12379848Y-13579650D02*
X12360801Y-13589174D01*
X12446515Y-13703460D02*
X12427467Y-13712984D01*
X12427467Y-13712984D02*
X12379848Y-13712984D01*
X12379848Y-13712984D02*
X12360801Y-13703460D01*
X12360801Y-13703460D02*
X12351277Y-13684412D01*
X12351277Y-13684412D02*
X12351277Y-13665365D01*
X12351277Y-13665365D02*
X12360801Y-13646317D01*
X12360801Y-13646317D02*
X12379848Y-13636793D01*
X12379848Y-13636793D02*
X12427467Y-13636793D01*
X12427467Y-13636793D02*
X12446515Y-13627269D01*
X12541753Y-13579650D02*
X12541753Y-13779650D01*
X12541753Y-13589174D02*
X12560801Y-13579650D01*
X12560801Y-13579650D02*
X12598896Y-13579650D01*
X12598896Y-13579650D02*
X12617943Y-13589174D01*
X12617943Y-13589174D02*
X12627467Y-13598698D01*
X12627467Y-13598698D02*
X12636991Y-13617746D01*
X12636991Y-13617746D02*
X12636991Y-13674888D01*
X12636991Y-13674888D02*
X12627467Y-13693936D01*
X12627467Y-13693936D02*
X12617943Y-13703460D01*
X12617943Y-13703460D02*
X12598896Y-13712984D01*
X12598896Y-13712984D02*
X12560801Y-13712984D01*
X12560801Y-13712984D02*
X12541753Y-13703460D01*
X12722705Y-13693936D02*
X12732229Y-13703460D01*
X12732229Y-13703460D02*
X12722705Y-13712984D01*
X12722705Y-13712984D02*
X12713182Y-13703460D01*
X12713182Y-13703460D02*
X12722705Y-13693936D01*
X12722705Y-13693936D02*
X12722705Y-13712984D01*
X12722705Y-13589174D02*
X12732229Y-13598698D01*
X12732229Y-13598698D02*
X12722705Y-13608222D01*
X12722705Y-13608222D02*
X12713182Y-13598698D01*
X12713182Y-13598698D02*
X12722705Y-13589174D01*
X12722705Y-13589174D02*
X12722705Y-13608222D01*
D12*
X11060500Y-14026500D02*
X11090500Y-14056500D01*
X11090500Y-14026500D02*
X11060500Y-14056500D01*
D11*
X11389372Y-13932984D02*
X11408420Y-13932984D01*
X11408420Y-13932984D02*
X11427467Y-13942508D01*
X11427467Y-13942508D02*
X11436991Y-13952031D01*
X11436991Y-13952031D02*
X11446515Y-13971079D01*
X11446515Y-13971079D02*
X11456039Y-14009174D01*
X11456039Y-14009174D02*
X11456039Y-14056793D01*
X11456039Y-14056793D02*
X11446515Y-14094888D01*
X11446515Y-14094888D02*
X11436991Y-14113936D01*
X11436991Y-14113936D02*
X11427467Y-14123460D01*
X11427467Y-14123460D02*
X11408420Y-14132984D01*
X11408420Y-14132984D02*
X11389372Y-14132984D01*
X11389372Y-14132984D02*
X11370324Y-14123460D01*
X11370324Y-14123460D02*
X11360801Y-14113936D01*
X11360801Y-14113936D02*
X11351277Y-14094888D01*
X11351277Y-14094888D02*
X11341753Y-14056793D01*
X11341753Y-14056793D02*
X11341753Y-14009174D01*
X11341753Y-14009174D02*
X11351277Y-13971079D01*
X11351277Y-13971079D02*
X11360801Y-13952031D01*
X11360801Y-13952031D02*
X11370324Y-13942508D01*
X11370324Y-13942508D02*
X11389372Y-13932984D01*
X11541753Y-14113936D02*
X11551277Y-14123460D01*
X11551277Y-14123460D02*
X11541753Y-14132984D01*
X11541753Y-14132984D02*
X11532229Y-14123460D01*
X11532229Y-14123460D02*
X11541753Y-14113936D01*
X11541753Y-14113936D02*
X11541753Y-14132984D01*
X11617943Y-13932984D02*
X11741753Y-13932984D01*
X11741753Y-13932984D02*
X11675086Y-14009174D01*
X11675086Y-14009174D02*
X11703658Y-14009174D01*
X11703658Y-14009174D02*
X11722705Y-14018698D01*
X11722705Y-14018698D02*
X11732229Y-14028222D01*
X11732229Y-14028222D02*
X11741753Y-14047269D01*
X11741753Y-14047269D02*
X11741753Y-14094888D01*
X11741753Y-14094888D02*
X11732229Y-14113936D01*
X11732229Y-14113936D02*
X11722705Y-14123460D01*
X11722705Y-14123460D02*
X11703658Y-14132984D01*
X11703658Y-14132984D02*
X11646515Y-14132984D01*
X11646515Y-14132984D02*
X11627467Y-14123460D01*
X11627467Y-14123460D02*
X11617943Y-14113936D01*
X11865562Y-13932984D02*
X11884610Y-13932984D01*
X11884610Y-13932984D02*
X11903658Y-13942508D01*
X11903658Y-13942508D02*
X11913182Y-13952031D01*
X11913182Y-13952031D02*
X11922705Y-13971079D01*
X11922705Y-13971079D02*
X11932229Y-14009174D01*
X11932229Y-14009174D02*
X11932229Y-14056793D01*
X11932229Y-14056793D02*
X11922705Y-14094888D01*
X11922705Y-14094888D02*
X11913182Y-14113936D01*
X11913182Y-14113936D02*
X11903658Y-14123460D01*
X11903658Y-14123460D02*
X11884610Y-14132984D01*
X11884610Y-14132984D02*
X11865562Y-14132984D01*
X11865562Y-14132984D02*
X11846515Y-14123460D01*
X11846515Y-14123460D02*
X11836991Y-14113936D01*
X11836991Y-14113936D02*
X11827467Y-14094888D01*
X11827467Y-14094888D02*
X11817943Y-14056793D01*
X11817943Y-14056793D02*
X11817943Y-14009174D01*
X11817943Y-14009174D02*
X11827467Y-13971079D01*
X11827467Y-13971079D02*
X11836991Y-13952031D01*
X11836991Y-13952031D02*
X11846515Y-13942508D01*
X11846515Y-13942508D02*
X11865562Y-13932984D01*
X12056039Y-13932984D02*
X12075086Y-13932984D01*
X12075086Y-13932984D02*
X12094134Y-13942508D01*
X12094134Y-13942508D02*
X12103658Y-13952031D01*
X12103658Y-13952031D02*
X12113182Y-13971079D01*
X12113182Y-13971079D02*
X12122705Y-14009174D01*
X12122705Y-14009174D02*
X12122705Y-14056793D01*
X12122705Y-14056793D02*
X12113182Y-14094888D01*
X12113182Y-14094888D02*
X12103658Y-14113936D01*
X12103658Y-14113936D02*
X12094134Y-14123460D01*
X12094134Y-14123460D02*
X12075086Y-14132984D01*
X12075086Y-14132984D02*
X12056039Y-14132984D01*
X12056039Y-14132984D02*
X12036991Y-14123460D01*
X12036991Y-14123460D02*
X12027467Y-14113936D01*
X12027467Y-14113936D02*
X12017943Y-14094888D01*
X12017943Y-14094888D02*
X12008420Y-14056793D01*
X12008420Y-14056793D02*
X12008420Y-14009174D01*
X12008420Y-14009174D02*
X12017943Y-13971079D01*
X12017943Y-13971079D02*
X12027467Y-13952031D01*
X12027467Y-13952031D02*
X12036991Y-13942508D01*
X12036991Y-13942508D02*
X12056039Y-13932984D01*
X12208420Y-14132984D02*
X12208420Y-13999650D01*
X12208420Y-14018698D02*
X12217943Y-14009174D01*
X12217943Y-14009174D02*
X12236991Y-13999650D01*
X12236991Y-13999650D02*
X12265563Y-13999650D01*
X12265563Y-13999650D02*
X12284610Y-14009174D01*
X12284610Y-14009174D02*
X12294134Y-14028222D01*
X12294134Y-14028222D02*
X12294134Y-14132984D01*
X12294134Y-14028222D02*
X12303658Y-14009174D01*
X12303658Y-14009174D02*
X12322705Y-13999650D01*
X12322705Y-13999650D02*
X12351277Y-13999650D01*
X12351277Y-13999650D02*
X12370324Y-14009174D01*
X12370324Y-14009174D02*
X12379848Y-14028222D01*
X12379848Y-14028222D02*
X12379848Y-14132984D01*
X12475086Y-14132984D02*
X12475086Y-13999650D01*
X12475086Y-14018698D02*
X12484610Y-14009174D01*
X12484610Y-14009174D02*
X12503658Y-13999650D01*
X12503658Y-13999650D02*
X12532229Y-13999650D01*
X12532229Y-13999650D02*
X12551277Y-14009174D01*
X12551277Y-14009174D02*
X12560801Y-14028222D01*
X12560801Y-14028222D02*
X12560801Y-14132984D01*
X12560801Y-14028222D02*
X12570324Y-14009174D01*
X12570324Y-14009174D02*
X12589372Y-13999650D01*
X12589372Y-13999650D02*
X12617943Y-13999650D01*
X12617943Y-13999650D02*
X12636991Y-14009174D01*
X12636991Y-14009174D02*
X12646515Y-14028222D01*
X12646515Y-14028222D02*
X12646515Y-14132984D01*
X13036991Y-13923460D02*
X12865563Y-14180603D01*
X13294134Y-13932984D02*
X13313182Y-13932984D01*
X13313182Y-13932984D02*
X13332229Y-13942508D01*
X13332229Y-13942508D02*
X13341753Y-13952031D01*
X13341753Y-13952031D02*
X13351277Y-13971079D01*
X13351277Y-13971079D02*
X13360801Y-14009174D01*
X13360801Y-14009174D02*
X13360801Y-14056793D01*
X13360801Y-14056793D02*
X13351277Y-14094888D01*
X13351277Y-14094888D02*
X13341753Y-14113936D01*
X13341753Y-14113936D02*
X13332229Y-14123460D01*
X13332229Y-14123460D02*
X13313182Y-14132984D01*
X13313182Y-14132984D02*
X13294134Y-14132984D01*
X13294134Y-14132984D02*
X13275086Y-14123460D01*
X13275086Y-14123460D02*
X13265563Y-14113936D01*
X13265563Y-14113936D02*
X13256039Y-14094888D01*
X13256039Y-14094888D02*
X13246515Y-14056793D01*
X13246515Y-14056793D02*
X13246515Y-14009174D01*
X13246515Y-14009174D02*
X13256039Y-13971079D01*
X13256039Y-13971079D02*
X13265563Y-13952031D01*
X13265563Y-13952031D02*
X13275086Y-13942508D01*
X13275086Y-13942508D02*
X13294134Y-13932984D01*
X13446515Y-14113936D02*
X13456039Y-14123460D01*
X13456039Y-14123460D02*
X13446515Y-14132984D01*
X13446515Y-14132984D02*
X13436991Y-14123460D01*
X13436991Y-14123460D02*
X13446515Y-14113936D01*
X13446515Y-14113936D02*
X13446515Y-14132984D01*
X13579848Y-13932984D02*
X13598896Y-13932984D01*
X13598896Y-13932984D02*
X13617944Y-13942508D01*
X13617944Y-13942508D02*
X13627467Y-13952031D01*
X13627467Y-13952031D02*
X13636991Y-13971079D01*
X13636991Y-13971079D02*
X13646515Y-14009174D01*
X13646515Y-14009174D02*
X13646515Y-14056793D01*
X13646515Y-14056793D02*
X13636991Y-14094888D01*
X13636991Y-14094888D02*
X13627467Y-14113936D01*
X13627467Y-14113936D02*
X13617944Y-14123460D01*
X13617944Y-14123460D02*
X13598896Y-14132984D01*
X13598896Y-14132984D02*
X13579848Y-14132984D01*
X13579848Y-14132984D02*
X13560801Y-14123460D01*
X13560801Y-14123460D02*
X13551277Y-14113936D01*
X13551277Y-14113936D02*
X13541753Y-14094888D01*
X13541753Y-14094888D02*
X13532229Y-14056793D01*
X13532229Y-14056793D02*
X13532229Y-14009174D01*
X13532229Y-14009174D02*
X13541753Y-13971079D01*
X13541753Y-13971079D02*
X13551277Y-13952031D01*
X13551277Y-13952031D02*
X13560801Y-13942508D01*
X13560801Y-13942508D02*
X13579848Y-13932984D01*
X13836991Y-14132984D02*
X13722706Y-14132984D01*
X13779848Y-14132984D02*
X13779848Y-13932984D01*
X13779848Y-13932984D02*
X13760801Y-13961555D01*
X13760801Y-13961555D02*
X13741753Y-13980603D01*
X13741753Y-13980603D02*
X13722706Y-13990127D01*
X14027467Y-14132984D02*
X13913182Y-14132984D01*
X13970325Y-14132984D02*
X13970325Y-13932984D01*
X13970325Y-13932984D02*
X13951277Y-13961555D01*
X13951277Y-13961555D02*
X13932229Y-13980603D01*
X13932229Y-13980603D02*
X13913182Y-13990127D01*
X14141753Y-14018698D02*
X14122706Y-14009174D01*
X14122706Y-14009174D02*
X14113182Y-13999650D01*
X14113182Y-13999650D02*
X14103658Y-13980603D01*
X14103658Y-13980603D02*
X14103658Y-13971079D01*
X14103658Y-13971079D02*
X14113182Y-13952031D01*
X14113182Y-13952031D02*
X14122706Y-13942508D01*
X14122706Y-13942508D02*
X14141753Y-13932984D01*
X14141753Y-13932984D02*
X14179848Y-13932984D01*
X14179848Y-13932984D02*
X14198896Y-13942508D01*
X14198896Y-13942508D02*
X14208420Y-13952031D01*
X14208420Y-13952031D02*
X14217944Y-13971079D01*
X14217944Y-13971079D02*
X14217944Y-13980603D01*
X14217944Y-13980603D02*
X14208420Y-13999650D01*
X14208420Y-13999650D02*
X14198896Y-14009174D01*
X14198896Y-14009174D02*
X14179848Y-14018698D01*
X14179848Y-14018698D02*
X14141753Y-14018698D01*
X14141753Y-14018698D02*
X14122706Y-14028222D01*
X14122706Y-14028222D02*
X14113182Y-14037746D01*
X14113182Y-14037746D02*
X14103658Y-14056793D01*
X14103658Y-14056793D02*
X14103658Y-14094888D01*
X14103658Y-14094888D02*
X14113182Y-14113936D01*
X14113182Y-14113936D02*
X14122706Y-14123460D01*
X14122706Y-14123460D02*
X14141753Y-14132984D01*
X14141753Y-14132984D02*
X14179848Y-14132984D01*
X14179848Y-14132984D02*
X14198896Y-14123460D01*
X14198896Y-14123460D02*
X14208420Y-14113936D01*
X14208420Y-14113936D02*
X14217944Y-14094888D01*
X14217944Y-14094888D02*
X14217944Y-14056793D01*
X14217944Y-14056793D02*
X14208420Y-14037746D01*
X14208420Y-14037746D02*
X14198896Y-14028222D01*
X14198896Y-14028222D02*
X14179848Y-14018698D01*
X14294134Y-13932984D02*
X14294134Y-13971079D01*
X14370325Y-13932984D02*
X14370325Y-13971079D01*
X14665563Y-14209174D02*
X14656039Y-14199650D01*
X14656039Y-14199650D02*
X14636991Y-14171079D01*
X14636991Y-14171079D02*
X14627468Y-14152031D01*
X14627468Y-14152031D02*
X14617944Y-14123460D01*
X14617944Y-14123460D02*
X14608420Y-14075841D01*
X14608420Y-14075841D02*
X14608420Y-14037746D01*
X14608420Y-14037746D02*
X14617944Y-13990127D01*
X14617944Y-13990127D02*
X14627468Y-13961555D01*
X14627468Y-13961555D02*
X14636991Y-13942508D01*
X14636991Y-13942508D02*
X14656039Y-13913936D01*
X14656039Y-13913936D02*
X14665563Y-13904412D01*
X14846515Y-14132984D02*
X14732229Y-14132984D01*
X14789372Y-14132984D02*
X14789372Y-13932984D01*
X14789372Y-13932984D02*
X14770325Y-13961555D01*
X14770325Y-13961555D02*
X14751277Y-13980603D01*
X14751277Y-13980603D02*
X14732229Y-13990127D01*
X14913182Y-13932984D02*
X15046515Y-13932984D01*
X15046515Y-13932984D02*
X14960801Y-14132984D01*
X15275087Y-14132984D02*
X15275087Y-13932984D01*
X15360801Y-14132984D02*
X15360801Y-14028222D01*
X15360801Y-14028222D02*
X15351277Y-14009174D01*
X15351277Y-14009174D02*
X15332230Y-13999650D01*
X15332230Y-13999650D02*
X15303658Y-13999650D01*
X15303658Y-13999650D02*
X15284610Y-14009174D01*
X15284610Y-14009174D02*
X15275087Y-14018698D01*
X15484610Y-14132984D02*
X15465563Y-14123460D01*
X15465563Y-14123460D02*
X15456039Y-14113936D01*
X15456039Y-14113936D02*
X15446515Y-14094888D01*
X15446515Y-14094888D02*
X15446515Y-14037746D01*
X15446515Y-14037746D02*
X15456039Y-14018698D01*
X15456039Y-14018698D02*
X15465563Y-14009174D01*
X15465563Y-14009174D02*
X15484610Y-13999650D01*
X15484610Y-13999650D02*
X15513182Y-13999650D01*
X15513182Y-13999650D02*
X15532230Y-14009174D01*
X15532230Y-14009174D02*
X15541753Y-14018698D01*
X15541753Y-14018698D02*
X15551277Y-14037746D01*
X15551277Y-14037746D02*
X15551277Y-14094888D01*
X15551277Y-14094888D02*
X15541753Y-14113936D01*
X15541753Y-14113936D02*
X15532230Y-14123460D01*
X15532230Y-14123460D02*
X15513182Y-14132984D01*
X15513182Y-14132984D02*
X15484610Y-14132984D01*
X15665563Y-14132984D02*
X15646515Y-14123460D01*
X15646515Y-14123460D02*
X15636991Y-14104412D01*
X15636991Y-14104412D02*
X15636991Y-13932984D01*
X15817944Y-14123460D02*
X15798896Y-14132984D01*
X15798896Y-14132984D02*
X15760801Y-14132984D01*
X15760801Y-14132984D02*
X15741753Y-14123460D01*
X15741753Y-14123460D02*
X15732230Y-14104412D01*
X15732230Y-14104412D02*
X15732230Y-14028222D01*
X15732230Y-14028222D02*
X15741753Y-14009174D01*
X15741753Y-14009174D02*
X15760801Y-13999650D01*
X15760801Y-13999650D02*
X15798896Y-13999650D01*
X15798896Y-13999650D02*
X15817944Y-14009174D01*
X15817944Y-14009174D02*
X15827468Y-14028222D01*
X15827468Y-14028222D02*
X15827468Y-14047269D01*
X15827468Y-14047269D02*
X15732230Y-14066317D01*
X15903658Y-14123460D02*
X15922706Y-14132984D01*
X15922706Y-14132984D02*
X15960801Y-14132984D01*
X15960801Y-14132984D02*
X15979849Y-14123460D01*
X15979849Y-14123460D02*
X15989372Y-14104412D01*
X15989372Y-14104412D02*
X15989372Y-14094888D01*
X15989372Y-14094888D02*
X15979849Y-14075841D01*
X15979849Y-14075841D02*
X15960801Y-14066317D01*
X15960801Y-14066317D02*
X15932230Y-14066317D01*
X15932230Y-14066317D02*
X15913182Y-14056793D01*
X15913182Y-14056793D02*
X15903658Y-14037746D01*
X15903658Y-14037746D02*
X15903658Y-14028222D01*
X15903658Y-14028222D02*
X15913182Y-14009174D01*
X15913182Y-14009174D02*
X15932230Y-13999650D01*
X15932230Y-13999650D02*
X15960801Y-13999650D01*
X15960801Y-13999650D02*
X15979849Y-14009174D01*
X16056039Y-14209174D02*
X16065563Y-14199650D01*
X16065563Y-14199650D02*
X16084611Y-14171079D01*
X16084611Y-14171079D02*
X16094134Y-14152031D01*
X16094134Y-14152031D02*
X16103658Y-14123460D01*
X16103658Y-14123460D02*
X16113182Y-14075841D01*
X16113182Y-14075841D02*
X16113182Y-14037746D01*
X16113182Y-14037746D02*
X16103658Y-13990127D01*
X16103658Y-13990127D02*
X16094134Y-13961555D01*
X16094134Y-13961555D02*
X16084611Y-13942508D01*
X16084611Y-13942508D02*
X16065563Y-13913936D01*
X16065563Y-13913936D02*
X16056039Y-13904412D01*
D12*
X11090500Y-14305500D02*
G75*
G02*
X11010500Y-14305500I-40000J0D01*
G01*
X11010500Y-14305500D02*
G75*
G02*
X11090500Y-14305500I40000J0D01*
G01*
D11*
X11389372Y-14196984D02*
X11408420Y-14196984D01*
X11408420Y-14196984D02*
X11427467Y-14206508D01*
X11427467Y-14206508D02*
X11436991Y-14216031D01*
X11436991Y-14216031D02*
X11446515Y-14235079D01*
X11446515Y-14235079D02*
X11456039Y-14273174D01*
X11456039Y-14273174D02*
X11456039Y-14320793D01*
X11456039Y-14320793D02*
X11446515Y-14358888D01*
X11446515Y-14358888D02*
X11436991Y-14377936D01*
X11436991Y-14377936D02*
X11427467Y-14387460D01*
X11427467Y-14387460D02*
X11408420Y-14396984D01*
X11408420Y-14396984D02*
X11389372Y-14396984D01*
X11389372Y-14396984D02*
X11370324Y-14387460D01*
X11370324Y-14387460D02*
X11360801Y-14377936D01*
X11360801Y-14377936D02*
X11351277Y-14358888D01*
X11351277Y-14358888D02*
X11341753Y-14320793D01*
X11341753Y-14320793D02*
X11341753Y-14273174D01*
X11341753Y-14273174D02*
X11351277Y-14235079D01*
X11351277Y-14235079D02*
X11360801Y-14216031D01*
X11360801Y-14216031D02*
X11370324Y-14206508D01*
X11370324Y-14206508D02*
X11389372Y-14196984D01*
X11541753Y-14377936D02*
X11551277Y-14387460D01*
X11551277Y-14387460D02*
X11541753Y-14396984D01*
X11541753Y-14396984D02*
X11532229Y-14387460D01*
X11532229Y-14387460D02*
X11541753Y-14377936D01*
X11541753Y-14377936D02*
X11541753Y-14396984D01*
X11665562Y-14282698D02*
X11646515Y-14273174D01*
X11646515Y-14273174D02*
X11636991Y-14263650D01*
X11636991Y-14263650D02*
X11627467Y-14244603D01*
X11627467Y-14244603D02*
X11627467Y-14235079D01*
X11627467Y-14235079D02*
X11636991Y-14216031D01*
X11636991Y-14216031D02*
X11646515Y-14206508D01*
X11646515Y-14206508D02*
X11665562Y-14196984D01*
X11665562Y-14196984D02*
X11703658Y-14196984D01*
X11703658Y-14196984D02*
X11722705Y-14206508D01*
X11722705Y-14206508D02*
X11732229Y-14216031D01*
X11732229Y-14216031D02*
X11741753Y-14235079D01*
X11741753Y-14235079D02*
X11741753Y-14244603D01*
X11741753Y-14244603D02*
X11732229Y-14263650D01*
X11732229Y-14263650D02*
X11722705Y-14273174D01*
X11722705Y-14273174D02*
X11703658Y-14282698D01*
X11703658Y-14282698D02*
X11665562Y-14282698D01*
X11665562Y-14282698D02*
X11646515Y-14292222D01*
X11646515Y-14292222D02*
X11636991Y-14301746D01*
X11636991Y-14301746D02*
X11627467Y-14320793D01*
X11627467Y-14320793D02*
X11627467Y-14358888D01*
X11627467Y-14358888D02*
X11636991Y-14377936D01*
X11636991Y-14377936D02*
X11646515Y-14387460D01*
X11646515Y-14387460D02*
X11665562Y-14396984D01*
X11665562Y-14396984D02*
X11703658Y-14396984D01*
X11703658Y-14396984D02*
X11722705Y-14387460D01*
X11722705Y-14387460D02*
X11732229Y-14377936D01*
X11732229Y-14377936D02*
X11741753Y-14358888D01*
X11741753Y-14358888D02*
X11741753Y-14320793D01*
X11741753Y-14320793D02*
X11732229Y-14301746D01*
X11732229Y-14301746D02*
X11722705Y-14292222D01*
X11722705Y-14292222D02*
X11703658Y-14282698D01*
X11865562Y-14196984D02*
X11884610Y-14196984D01*
X11884610Y-14196984D02*
X11903658Y-14206508D01*
X11903658Y-14206508D02*
X11913182Y-14216031D01*
X11913182Y-14216031D02*
X11922705Y-14235079D01*
X11922705Y-14235079D02*
X11932229Y-14273174D01*
X11932229Y-14273174D02*
X11932229Y-14320793D01*
X11932229Y-14320793D02*
X11922705Y-14358888D01*
X11922705Y-14358888D02*
X11913182Y-14377936D01*
X11913182Y-14377936D02*
X11903658Y-14387460D01*
X11903658Y-14387460D02*
X11884610Y-14396984D01*
X11884610Y-14396984D02*
X11865562Y-14396984D01*
X11865562Y-14396984D02*
X11846515Y-14387460D01*
X11846515Y-14387460D02*
X11836991Y-14377936D01*
X11836991Y-14377936D02*
X11827467Y-14358888D01*
X11827467Y-14358888D02*
X11817943Y-14320793D01*
X11817943Y-14320793D02*
X11817943Y-14273174D01*
X11817943Y-14273174D02*
X11827467Y-14235079D01*
X11827467Y-14235079D02*
X11836991Y-14216031D01*
X11836991Y-14216031D02*
X11846515Y-14206508D01*
X11846515Y-14206508D02*
X11865562Y-14196984D01*
X12056039Y-14196984D02*
X12075086Y-14196984D01*
X12075086Y-14196984D02*
X12094134Y-14206508D01*
X12094134Y-14206508D02*
X12103658Y-14216031D01*
X12103658Y-14216031D02*
X12113182Y-14235079D01*
X12113182Y-14235079D02*
X12122705Y-14273174D01*
X12122705Y-14273174D02*
X12122705Y-14320793D01*
X12122705Y-14320793D02*
X12113182Y-14358888D01*
X12113182Y-14358888D02*
X12103658Y-14377936D01*
X12103658Y-14377936D02*
X12094134Y-14387460D01*
X12094134Y-14387460D02*
X12075086Y-14396984D01*
X12075086Y-14396984D02*
X12056039Y-14396984D01*
X12056039Y-14396984D02*
X12036991Y-14387460D01*
X12036991Y-14387460D02*
X12027467Y-14377936D01*
X12027467Y-14377936D02*
X12017943Y-14358888D01*
X12017943Y-14358888D02*
X12008420Y-14320793D01*
X12008420Y-14320793D02*
X12008420Y-14273174D01*
X12008420Y-14273174D02*
X12017943Y-14235079D01*
X12017943Y-14235079D02*
X12027467Y-14216031D01*
X12027467Y-14216031D02*
X12036991Y-14206508D01*
X12036991Y-14206508D02*
X12056039Y-14196984D01*
X12208420Y-14396984D02*
X12208420Y-14263650D01*
X12208420Y-14282698D02*
X12217943Y-14273174D01*
X12217943Y-14273174D02*
X12236991Y-14263650D01*
X12236991Y-14263650D02*
X12265563Y-14263650D01*
X12265563Y-14263650D02*
X12284610Y-14273174D01*
X12284610Y-14273174D02*
X12294134Y-14292222D01*
X12294134Y-14292222D02*
X12294134Y-14396984D01*
X12294134Y-14292222D02*
X12303658Y-14273174D01*
X12303658Y-14273174D02*
X12322705Y-14263650D01*
X12322705Y-14263650D02*
X12351277Y-14263650D01*
X12351277Y-14263650D02*
X12370324Y-14273174D01*
X12370324Y-14273174D02*
X12379848Y-14292222D01*
X12379848Y-14292222D02*
X12379848Y-14396984D01*
X12475086Y-14396984D02*
X12475086Y-14263650D01*
X12475086Y-14282698D02*
X12484610Y-14273174D01*
X12484610Y-14273174D02*
X12503658Y-14263650D01*
X12503658Y-14263650D02*
X12532229Y-14263650D01*
X12532229Y-14263650D02*
X12551277Y-14273174D01*
X12551277Y-14273174D02*
X12560801Y-14292222D01*
X12560801Y-14292222D02*
X12560801Y-14396984D01*
X12560801Y-14292222D02*
X12570324Y-14273174D01*
X12570324Y-14273174D02*
X12589372Y-14263650D01*
X12589372Y-14263650D02*
X12617943Y-14263650D01*
X12617943Y-14263650D02*
X12636991Y-14273174D01*
X12636991Y-14273174D02*
X12646515Y-14292222D01*
X12646515Y-14292222D02*
X12646515Y-14396984D01*
X13036991Y-14187460D02*
X12865563Y-14444603D01*
X13294134Y-14196984D02*
X13313182Y-14196984D01*
X13313182Y-14196984D02*
X13332229Y-14206508D01*
X13332229Y-14206508D02*
X13341753Y-14216031D01*
X13341753Y-14216031D02*
X13351277Y-14235079D01*
X13351277Y-14235079D02*
X13360801Y-14273174D01*
X13360801Y-14273174D02*
X13360801Y-14320793D01*
X13360801Y-14320793D02*
X13351277Y-14358888D01*
X13351277Y-14358888D02*
X13341753Y-14377936D01*
X13341753Y-14377936D02*
X13332229Y-14387460D01*
X13332229Y-14387460D02*
X13313182Y-14396984D01*
X13313182Y-14396984D02*
X13294134Y-14396984D01*
X13294134Y-14396984D02*
X13275086Y-14387460D01*
X13275086Y-14387460D02*
X13265563Y-14377936D01*
X13265563Y-14377936D02*
X13256039Y-14358888D01*
X13256039Y-14358888D02*
X13246515Y-14320793D01*
X13246515Y-14320793D02*
X13246515Y-14273174D01*
X13246515Y-14273174D02*
X13256039Y-14235079D01*
X13256039Y-14235079D02*
X13265563Y-14216031D01*
X13265563Y-14216031D02*
X13275086Y-14206508D01*
X13275086Y-14206508D02*
X13294134Y-14196984D01*
X13446515Y-14377936D02*
X13456039Y-14387460D01*
X13456039Y-14387460D02*
X13446515Y-14396984D01*
X13446515Y-14396984D02*
X13436991Y-14387460D01*
X13436991Y-14387460D02*
X13446515Y-14377936D01*
X13446515Y-14377936D02*
X13446515Y-14396984D01*
X13579848Y-14196984D02*
X13598896Y-14196984D01*
X13598896Y-14196984D02*
X13617944Y-14206508D01*
X13617944Y-14206508D02*
X13627467Y-14216031D01*
X13627467Y-14216031D02*
X13636991Y-14235079D01*
X13636991Y-14235079D02*
X13646515Y-14273174D01*
X13646515Y-14273174D02*
X13646515Y-14320793D01*
X13646515Y-14320793D02*
X13636991Y-14358888D01*
X13636991Y-14358888D02*
X13627467Y-14377936D01*
X13627467Y-14377936D02*
X13617944Y-14387460D01*
X13617944Y-14387460D02*
X13598896Y-14396984D01*
X13598896Y-14396984D02*
X13579848Y-14396984D01*
X13579848Y-14396984D02*
X13560801Y-14387460D01*
X13560801Y-14387460D02*
X13551277Y-14377936D01*
X13551277Y-14377936D02*
X13541753Y-14358888D01*
X13541753Y-14358888D02*
X13532229Y-14320793D01*
X13532229Y-14320793D02*
X13532229Y-14273174D01*
X13532229Y-14273174D02*
X13541753Y-14235079D01*
X13541753Y-14235079D02*
X13551277Y-14216031D01*
X13551277Y-14216031D02*
X13560801Y-14206508D01*
X13560801Y-14206508D02*
X13579848Y-14196984D01*
X13713182Y-14196984D02*
X13836991Y-14196984D01*
X13836991Y-14196984D02*
X13770325Y-14273174D01*
X13770325Y-14273174D02*
X13798896Y-14273174D01*
X13798896Y-14273174D02*
X13817944Y-14282698D01*
X13817944Y-14282698D02*
X13827467Y-14292222D01*
X13827467Y-14292222D02*
X13836991Y-14311269D01*
X13836991Y-14311269D02*
X13836991Y-14358888D01*
X13836991Y-14358888D02*
X13827467Y-14377936D01*
X13827467Y-14377936D02*
X13817944Y-14387460D01*
X13817944Y-14387460D02*
X13798896Y-14396984D01*
X13798896Y-14396984D02*
X13741753Y-14396984D01*
X13741753Y-14396984D02*
X13722706Y-14387460D01*
X13722706Y-14387460D02*
X13713182Y-14377936D01*
X14027467Y-14396984D02*
X13913182Y-14396984D01*
X13970325Y-14396984D02*
X13970325Y-14196984D01*
X13970325Y-14196984D02*
X13951277Y-14225555D01*
X13951277Y-14225555D02*
X13932229Y-14244603D01*
X13932229Y-14244603D02*
X13913182Y-14254127D01*
X14208420Y-14196984D02*
X14113182Y-14196984D01*
X14113182Y-14196984D02*
X14103658Y-14292222D01*
X14103658Y-14292222D02*
X14113182Y-14282698D01*
X14113182Y-14282698D02*
X14132229Y-14273174D01*
X14132229Y-14273174D02*
X14179848Y-14273174D01*
X14179848Y-14273174D02*
X14198896Y-14282698D01*
X14198896Y-14282698D02*
X14208420Y-14292222D01*
X14208420Y-14292222D02*
X14217944Y-14311269D01*
X14217944Y-14311269D02*
X14217944Y-14358888D01*
X14217944Y-14358888D02*
X14208420Y-14377936D01*
X14208420Y-14377936D02*
X14198896Y-14387460D01*
X14198896Y-14387460D02*
X14179848Y-14396984D01*
X14179848Y-14396984D02*
X14132229Y-14396984D01*
X14132229Y-14396984D02*
X14113182Y-14387460D01*
X14113182Y-14387460D02*
X14103658Y-14377936D01*
X14294134Y-14196984D02*
X14294134Y-14235079D01*
X14370325Y-14196984D02*
X14370325Y-14235079D01*
X14665563Y-14473174D02*
X14656039Y-14463650D01*
X14656039Y-14463650D02*
X14636991Y-14435079D01*
X14636991Y-14435079D02*
X14627468Y-14416031D01*
X14627468Y-14416031D02*
X14617944Y-14387460D01*
X14617944Y-14387460D02*
X14608420Y-14339841D01*
X14608420Y-14339841D02*
X14608420Y-14301746D01*
X14608420Y-14301746D02*
X14617944Y-14254127D01*
X14617944Y-14254127D02*
X14627468Y-14225555D01*
X14627468Y-14225555D02*
X14636991Y-14206508D01*
X14636991Y-14206508D02*
X14656039Y-14177936D01*
X14656039Y-14177936D02*
X14665563Y-14168412D01*
X14732229Y-14216031D02*
X14741753Y-14206508D01*
X14741753Y-14206508D02*
X14760801Y-14196984D01*
X14760801Y-14196984D02*
X14808420Y-14196984D01*
X14808420Y-14196984D02*
X14827468Y-14206508D01*
X14827468Y-14206508D02*
X14836991Y-14216031D01*
X14836991Y-14216031D02*
X14846515Y-14235079D01*
X14846515Y-14235079D02*
X14846515Y-14254127D01*
X14846515Y-14254127D02*
X14836991Y-14282698D01*
X14836991Y-14282698D02*
X14722706Y-14396984D01*
X14722706Y-14396984D02*
X14846515Y-14396984D01*
X15084610Y-14396984D02*
X15084610Y-14196984D01*
X15170325Y-14396984D02*
X15170325Y-14292222D01*
X15170325Y-14292222D02*
X15160801Y-14273174D01*
X15160801Y-14273174D02*
X15141753Y-14263650D01*
X15141753Y-14263650D02*
X15113182Y-14263650D01*
X15113182Y-14263650D02*
X15094134Y-14273174D01*
X15094134Y-14273174D02*
X15084610Y-14282698D01*
X15294134Y-14396984D02*
X15275087Y-14387460D01*
X15275087Y-14387460D02*
X15265563Y-14377936D01*
X15265563Y-14377936D02*
X15256039Y-14358888D01*
X15256039Y-14358888D02*
X15256039Y-14301746D01*
X15256039Y-14301746D02*
X15265563Y-14282698D01*
X15265563Y-14282698D02*
X15275087Y-14273174D01*
X15275087Y-14273174D02*
X15294134Y-14263650D01*
X15294134Y-14263650D02*
X15322706Y-14263650D01*
X15322706Y-14263650D02*
X15341753Y-14273174D01*
X15341753Y-14273174D02*
X15351277Y-14282698D01*
X15351277Y-14282698D02*
X15360801Y-14301746D01*
X15360801Y-14301746D02*
X15360801Y-14358888D01*
X15360801Y-14358888D02*
X15351277Y-14377936D01*
X15351277Y-14377936D02*
X15341753Y-14387460D01*
X15341753Y-14387460D02*
X15322706Y-14396984D01*
X15322706Y-14396984D02*
X15294134Y-14396984D01*
X15475087Y-14396984D02*
X15456039Y-14387460D01*
X15456039Y-14387460D02*
X15446515Y-14368412D01*
X15446515Y-14368412D02*
X15446515Y-14196984D01*
X15627468Y-14387460D02*
X15608420Y-14396984D01*
X15608420Y-14396984D02*
X15570325Y-14396984D01*
X15570325Y-14396984D02*
X15551277Y-14387460D01*
X15551277Y-14387460D02*
X15541753Y-14368412D01*
X15541753Y-14368412D02*
X15541753Y-14292222D01*
X15541753Y-14292222D02*
X15551277Y-14273174D01*
X15551277Y-14273174D02*
X15570325Y-14263650D01*
X15570325Y-14263650D02*
X15608420Y-14263650D01*
X15608420Y-14263650D02*
X15627468Y-14273174D01*
X15627468Y-14273174D02*
X15636991Y-14292222D01*
X15636991Y-14292222D02*
X15636991Y-14311269D01*
X15636991Y-14311269D02*
X15541753Y-14330317D01*
X15713182Y-14387460D02*
X15732230Y-14396984D01*
X15732230Y-14396984D02*
X15770325Y-14396984D01*
X15770325Y-14396984D02*
X15789372Y-14387460D01*
X15789372Y-14387460D02*
X15798896Y-14368412D01*
X15798896Y-14368412D02*
X15798896Y-14358888D01*
X15798896Y-14358888D02*
X15789372Y-14339841D01*
X15789372Y-14339841D02*
X15770325Y-14330317D01*
X15770325Y-14330317D02*
X15741753Y-14330317D01*
X15741753Y-14330317D02*
X15722706Y-14320793D01*
X15722706Y-14320793D02*
X15713182Y-14301746D01*
X15713182Y-14301746D02*
X15713182Y-14292222D01*
X15713182Y-14292222D02*
X15722706Y-14273174D01*
X15722706Y-14273174D02*
X15741753Y-14263650D01*
X15741753Y-14263650D02*
X15770325Y-14263650D01*
X15770325Y-14263650D02*
X15789372Y-14273174D01*
X15865563Y-14473174D02*
X15875087Y-14463650D01*
X15875087Y-14463650D02*
X15894134Y-14435079D01*
X15894134Y-14435079D02*
X15903658Y-14416031D01*
X15903658Y-14416031D02*
X15913182Y-14387460D01*
X15913182Y-14387460D02*
X15922706Y-14339841D01*
X15922706Y-14339841D02*
X15922706Y-14301746D01*
X15922706Y-14301746D02*
X15913182Y-14254127D01*
X15913182Y-14254127D02*
X15903658Y-14225555D01*
X15903658Y-14225555D02*
X15894134Y-14206508D01*
X15894134Y-14206508D02*
X15875087Y-14177936D01*
X15875087Y-14177936D02*
X15865563Y-14168412D01*
D12*
X11045500Y-14524500D02*
X11045500Y-14614500D01*
X11000500Y-14569500D02*
X11090500Y-14569500D01*
D11*
X11389372Y-14460984D02*
X11408420Y-14460984D01*
X11408420Y-14460984D02*
X11427467Y-14470508D01*
X11427467Y-14470508D02*
X11436991Y-14480031D01*
X11436991Y-14480031D02*
X11446515Y-14499079D01*
X11446515Y-14499079D02*
X11456039Y-14537174D01*
X11456039Y-14537174D02*
X11456039Y-14584793D01*
X11456039Y-14584793D02*
X11446515Y-14622888D01*
X11446515Y-14622888D02*
X11436991Y-14641936D01*
X11436991Y-14641936D02*
X11427467Y-14651460D01*
X11427467Y-14651460D02*
X11408420Y-14660984D01*
X11408420Y-14660984D02*
X11389372Y-14660984D01*
X11389372Y-14660984D02*
X11370324Y-14651460D01*
X11370324Y-14651460D02*
X11360801Y-14641936D01*
X11360801Y-14641936D02*
X11351277Y-14622888D01*
X11351277Y-14622888D02*
X11341753Y-14584793D01*
X11341753Y-14584793D02*
X11341753Y-14537174D01*
X11341753Y-14537174D02*
X11351277Y-14499079D01*
X11351277Y-14499079D02*
X11360801Y-14480031D01*
X11360801Y-14480031D02*
X11370324Y-14470508D01*
X11370324Y-14470508D02*
X11389372Y-14460984D01*
X11541753Y-14641936D02*
X11551277Y-14651460D01*
X11551277Y-14651460D02*
X11541753Y-14660984D01*
X11541753Y-14660984D02*
X11532229Y-14651460D01*
X11532229Y-14651460D02*
X11541753Y-14641936D01*
X11541753Y-14641936D02*
X11541753Y-14660984D01*
X11646515Y-14660984D02*
X11684610Y-14660984D01*
X11684610Y-14660984D02*
X11703658Y-14651460D01*
X11703658Y-14651460D02*
X11713182Y-14641936D01*
X11713182Y-14641936D02*
X11732229Y-14613365D01*
X11732229Y-14613365D02*
X11741753Y-14575269D01*
X11741753Y-14575269D02*
X11741753Y-14499079D01*
X11741753Y-14499079D02*
X11732229Y-14480031D01*
X11732229Y-14480031D02*
X11722705Y-14470508D01*
X11722705Y-14470508D02*
X11703658Y-14460984D01*
X11703658Y-14460984D02*
X11665562Y-14460984D01*
X11665562Y-14460984D02*
X11646515Y-14470508D01*
X11646515Y-14470508D02*
X11636991Y-14480031D01*
X11636991Y-14480031D02*
X11627467Y-14499079D01*
X11627467Y-14499079D02*
X11627467Y-14546698D01*
X11627467Y-14546698D02*
X11636991Y-14565746D01*
X11636991Y-14565746D02*
X11646515Y-14575269D01*
X11646515Y-14575269D02*
X11665562Y-14584793D01*
X11665562Y-14584793D02*
X11703658Y-14584793D01*
X11703658Y-14584793D02*
X11722705Y-14575269D01*
X11722705Y-14575269D02*
X11732229Y-14565746D01*
X11732229Y-14565746D02*
X11741753Y-14546698D01*
X11865562Y-14460984D02*
X11884610Y-14460984D01*
X11884610Y-14460984D02*
X11903658Y-14470508D01*
X11903658Y-14470508D02*
X11913182Y-14480031D01*
X11913182Y-14480031D02*
X11922705Y-14499079D01*
X11922705Y-14499079D02*
X11932229Y-14537174D01*
X11932229Y-14537174D02*
X11932229Y-14584793D01*
X11932229Y-14584793D02*
X11922705Y-14622888D01*
X11922705Y-14622888D02*
X11913182Y-14641936D01*
X11913182Y-14641936D02*
X11903658Y-14651460D01*
X11903658Y-14651460D02*
X11884610Y-14660984D01*
X11884610Y-14660984D02*
X11865562Y-14660984D01*
X11865562Y-14660984D02*
X11846515Y-14651460D01*
X11846515Y-14651460D02*
X11836991Y-14641936D01*
X11836991Y-14641936D02*
X11827467Y-14622888D01*
X11827467Y-14622888D02*
X11817943Y-14584793D01*
X11817943Y-14584793D02*
X11817943Y-14537174D01*
X11817943Y-14537174D02*
X11827467Y-14499079D01*
X11827467Y-14499079D02*
X11836991Y-14480031D01*
X11836991Y-14480031D02*
X11846515Y-14470508D01*
X11846515Y-14470508D02*
X11865562Y-14460984D01*
X12056039Y-14460984D02*
X12075086Y-14460984D01*
X12075086Y-14460984D02*
X12094134Y-14470508D01*
X12094134Y-14470508D02*
X12103658Y-14480031D01*
X12103658Y-14480031D02*
X12113182Y-14499079D01*
X12113182Y-14499079D02*
X12122705Y-14537174D01*
X12122705Y-14537174D02*
X12122705Y-14584793D01*
X12122705Y-14584793D02*
X12113182Y-14622888D01*
X12113182Y-14622888D02*
X12103658Y-14641936D01*
X12103658Y-14641936D02*
X12094134Y-14651460D01*
X12094134Y-14651460D02*
X12075086Y-14660984D01*
X12075086Y-14660984D02*
X12056039Y-14660984D01*
X12056039Y-14660984D02*
X12036991Y-14651460D01*
X12036991Y-14651460D02*
X12027467Y-14641936D01*
X12027467Y-14641936D02*
X12017943Y-14622888D01*
X12017943Y-14622888D02*
X12008420Y-14584793D01*
X12008420Y-14584793D02*
X12008420Y-14537174D01*
X12008420Y-14537174D02*
X12017943Y-14499079D01*
X12017943Y-14499079D02*
X12027467Y-14480031D01*
X12027467Y-14480031D02*
X12036991Y-14470508D01*
X12036991Y-14470508D02*
X12056039Y-14460984D01*
X12208420Y-14660984D02*
X12208420Y-14527650D01*
X12208420Y-14546698D02*
X12217943Y-14537174D01*
X12217943Y-14537174D02*
X12236991Y-14527650D01*
X12236991Y-14527650D02*
X12265563Y-14527650D01*
X12265563Y-14527650D02*
X12284610Y-14537174D01*
X12284610Y-14537174D02*
X12294134Y-14556222D01*
X12294134Y-14556222D02*
X12294134Y-14660984D01*
X12294134Y-14556222D02*
X12303658Y-14537174D01*
X12303658Y-14537174D02*
X12322705Y-14527650D01*
X12322705Y-14527650D02*
X12351277Y-14527650D01*
X12351277Y-14527650D02*
X12370324Y-14537174D01*
X12370324Y-14537174D02*
X12379848Y-14556222D01*
X12379848Y-14556222D02*
X12379848Y-14660984D01*
X12475086Y-14660984D02*
X12475086Y-14527650D01*
X12475086Y-14546698D02*
X12484610Y-14537174D01*
X12484610Y-14537174D02*
X12503658Y-14527650D01*
X12503658Y-14527650D02*
X12532229Y-14527650D01*
X12532229Y-14527650D02*
X12551277Y-14537174D01*
X12551277Y-14537174D02*
X12560801Y-14556222D01*
X12560801Y-14556222D02*
X12560801Y-14660984D01*
X12560801Y-14556222D02*
X12570324Y-14537174D01*
X12570324Y-14537174D02*
X12589372Y-14527650D01*
X12589372Y-14527650D02*
X12617943Y-14527650D01*
X12617943Y-14527650D02*
X12636991Y-14537174D01*
X12636991Y-14537174D02*
X12646515Y-14556222D01*
X12646515Y-14556222D02*
X12646515Y-14660984D01*
X13036991Y-14451460D02*
X12865563Y-14708603D01*
X13294134Y-14460984D02*
X13313182Y-14460984D01*
X13313182Y-14460984D02*
X13332229Y-14470508D01*
X13332229Y-14470508D02*
X13341753Y-14480031D01*
X13341753Y-14480031D02*
X13351277Y-14499079D01*
X13351277Y-14499079D02*
X13360801Y-14537174D01*
X13360801Y-14537174D02*
X13360801Y-14584793D01*
X13360801Y-14584793D02*
X13351277Y-14622888D01*
X13351277Y-14622888D02*
X13341753Y-14641936D01*
X13341753Y-14641936D02*
X13332229Y-14651460D01*
X13332229Y-14651460D02*
X13313182Y-14660984D01*
X13313182Y-14660984D02*
X13294134Y-14660984D01*
X13294134Y-14660984D02*
X13275086Y-14651460D01*
X13275086Y-14651460D02*
X13265563Y-14641936D01*
X13265563Y-14641936D02*
X13256039Y-14622888D01*
X13256039Y-14622888D02*
X13246515Y-14584793D01*
X13246515Y-14584793D02*
X13246515Y-14537174D01*
X13246515Y-14537174D02*
X13256039Y-14499079D01*
X13256039Y-14499079D02*
X13265563Y-14480031D01*
X13265563Y-14480031D02*
X13275086Y-14470508D01*
X13275086Y-14470508D02*
X13294134Y-14460984D01*
X13446515Y-14641936D02*
X13456039Y-14651460D01*
X13456039Y-14651460D02*
X13446515Y-14660984D01*
X13446515Y-14660984D02*
X13436991Y-14651460D01*
X13436991Y-14651460D02*
X13446515Y-14641936D01*
X13446515Y-14641936D02*
X13446515Y-14660984D01*
X13579848Y-14460984D02*
X13598896Y-14460984D01*
X13598896Y-14460984D02*
X13617944Y-14470508D01*
X13617944Y-14470508D02*
X13627467Y-14480031D01*
X13627467Y-14480031D02*
X13636991Y-14499079D01*
X13636991Y-14499079D02*
X13646515Y-14537174D01*
X13646515Y-14537174D02*
X13646515Y-14584793D01*
X13646515Y-14584793D02*
X13636991Y-14622888D01*
X13636991Y-14622888D02*
X13627467Y-14641936D01*
X13627467Y-14641936D02*
X13617944Y-14651460D01*
X13617944Y-14651460D02*
X13598896Y-14660984D01*
X13598896Y-14660984D02*
X13579848Y-14660984D01*
X13579848Y-14660984D02*
X13560801Y-14651460D01*
X13560801Y-14651460D02*
X13551277Y-14641936D01*
X13551277Y-14641936D02*
X13541753Y-14622888D01*
X13541753Y-14622888D02*
X13532229Y-14584793D01*
X13532229Y-14584793D02*
X13532229Y-14537174D01*
X13532229Y-14537174D02*
X13541753Y-14499079D01*
X13541753Y-14499079D02*
X13551277Y-14480031D01*
X13551277Y-14480031D02*
X13560801Y-14470508D01*
X13560801Y-14470508D02*
X13579848Y-14460984D01*
X13713182Y-14460984D02*
X13836991Y-14460984D01*
X13836991Y-14460984D02*
X13770325Y-14537174D01*
X13770325Y-14537174D02*
X13798896Y-14537174D01*
X13798896Y-14537174D02*
X13817944Y-14546698D01*
X13817944Y-14546698D02*
X13827467Y-14556222D01*
X13827467Y-14556222D02*
X13836991Y-14575269D01*
X13836991Y-14575269D02*
X13836991Y-14622888D01*
X13836991Y-14622888D02*
X13827467Y-14641936D01*
X13827467Y-14641936D02*
X13817944Y-14651460D01*
X13817944Y-14651460D02*
X13798896Y-14660984D01*
X13798896Y-14660984D02*
X13741753Y-14660984D01*
X13741753Y-14660984D02*
X13722706Y-14651460D01*
X13722706Y-14651460D02*
X13713182Y-14641936D01*
X14017944Y-14460984D02*
X13922706Y-14460984D01*
X13922706Y-14460984D02*
X13913182Y-14556222D01*
X13913182Y-14556222D02*
X13922706Y-14546698D01*
X13922706Y-14546698D02*
X13941753Y-14537174D01*
X13941753Y-14537174D02*
X13989372Y-14537174D01*
X13989372Y-14537174D02*
X14008420Y-14546698D01*
X14008420Y-14546698D02*
X14017944Y-14556222D01*
X14017944Y-14556222D02*
X14027467Y-14575269D01*
X14027467Y-14575269D02*
X14027467Y-14622888D01*
X14027467Y-14622888D02*
X14017944Y-14641936D01*
X14017944Y-14641936D02*
X14008420Y-14651460D01*
X14008420Y-14651460D02*
X13989372Y-14660984D01*
X13989372Y-14660984D02*
X13941753Y-14660984D01*
X13941753Y-14660984D02*
X13922706Y-14651460D01*
X13922706Y-14651460D02*
X13913182Y-14641936D01*
X14198896Y-14527650D02*
X14198896Y-14660984D01*
X14151277Y-14451460D02*
X14103658Y-14594317D01*
X14103658Y-14594317D02*
X14227467Y-14594317D01*
X14294134Y-14460984D02*
X14294134Y-14499079D01*
X14370325Y-14460984D02*
X14370325Y-14499079D01*
X14665563Y-14737174D02*
X14656039Y-14727650D01*
X14656039Y-14727650D02*
X14636991Y-14699079D01*
X14636991Y-14699079D02*
X14627468Y-14680031D01*
X14627468Y-14680031D02*
X14617944Y-14651460D01*
X14617944Y-14651460D02*
X14608420Y-14603841D01*
X14608420Y-14603841D02*
X14608420Y-14565746D01*
X14608420Y-14565746D02*
X14617944Y-14518127D01*
X14617944Y-14518127D02*
X14627468Y-14489555D01*
X14627468Y-14489555D02*
X14636991Y-14470508D01*
X14636991Y-14470508D02*
X14656039Y-14441936D01*
X14656039Y-14441936D02*
X14665563Y-14432412D01*
X14722706Y-14460984D02*
X14846515Y-14460984D01*
X14846515Y-14460984D02*
X14779848Y-14537174D01*
X14779848Y-14537174D02*
X14808420Y-14537174D01*
X14808420Y-14537174D02*
X14827468Y-14546698D01*
X14827468Y-14546698D02*
X14836991Y-14556222D01*
X14836991Y-14556222D02*
X14846515Y-14575269D01*
X14846515Y-14575269D02*
X14846515Y-14622888D01*
X14846515Y-14622888D02*
X14836991Y-14641936D01*
X14836991Y-14641936D02*
X14827468Y-14651460D01*
X14827468Y-14651460D02*
X14808420Y-14660984D01*
X14808420Y-14660984D02*
X14751277Y-14660984D01*
X14751277Y-14660984D02*
X14732229Y-14651460D01*
X14732229Y-14651460D02*
X14722706Y-14641936D01*
X15017944Y-14527650D02*
X15017944Y-14660984D01*
X14970325Y-14451460D02*
X14922706Y-14594317D01*
X14922706Y-14594317D02*
X15046515Y-14594317D01*
X15275087Y-14660984D02*
X15275087Y-14460984D01*
X15360801Y-14660984D02*
X15360801Y-14556222D01*
X15360801Y-14556222D02*
X15351277Y-14537174D01*
X15351277Y-14537174D02*
X15332230Y-14527650D01*
X15332230Y-14527650D02*
X15303658Y-14527650D01*
X15303658Y-14527650D02*
X15284610Y-14537174D01*
X15284610Y-14537174D02*
X15275087Y-14546698D01*
X15484610Y-14660984D02*
X15465563Y-14651460D01*
X15465563Y-14651460D02*
X15456039Y-14641936D01*
X15456039Y-14641936D02*
X15446515Y-14622888D01*
X15446515Y-14622888D02*
X15446515Y-14565746D01*
X15446515Y-14565746D02*
X15456039Y-14546698D01*
X15456039Y-14546698D02*
X15465563Y-14537174D01*
X15465563Y-14537174D02*
X15484610Y-14527650D01*
X15484610Y-14527650D02*
X15513182Y-14527650D01*
X15513182Y-14527650D02*
X15532230Y-14537174D01*
X15532230Y-14537174D02*
X15541753Y-14546698D01*
X15541753Y-14546698D02*
X15551277Y-14565746D01*
X15551277Y-14565746D02*
X15551277Y-14622888D01*
X15551277Y-14622888D02*
X15541753Y-14641936D01*
X15541753Y-14641936D02*
X15532230Y-14651460D01*
X15532230Y-14651460D02*
X15513182Y-14660984D01*
X15513182Y-14660984D02*
X15484610Y-14660984D01*
X15665563Y-14660984D02*
X15646515Y-14651460D01*
X15646515Y-14651460D02*
X15636991Y-14632412D01*
X15636991Y-14632412D02*
X15636991Y-14460984D01*
X15817944Y-14651460D02*
X15798896Y-14660984D01*
X15798896Y-14660984D02*
X15760801Y-14660984D01*
X15760801Y-14660984D02*
X15741753Y-14651460D01*
X15741753Y-14651460D02*
X15732230Y-14632412D01*
X15732230Y-14632412D02*
X15732230Y-14556222D01*
X15732230Y-14556222D02*
X15741753Y-14537174D01*
X15741753Y-14537174D02*
X15760801Y-14527650D01*
X15760801Y-14527650D02*
X15798896Y-14527650D01*
X15798896Y-14527650D02*
X15817944Y-14537174D01*
X15817944Y-14537174D02*
X15827468Y-14556222D01*
X15827468Y-14556222D02*
X15827468Y-14575269D01*
X15827468Y-14575269D02*
X15732230Y-14594317D01*
X15903658Y-14651460D02*
X15922706Y-14660984D01*
X15922706Y-14660984D02*
X15960801Y-14660984D01*
X15960801Y-14660984D02*
X15979849Y-14651460D01*
X15979849Y-14651460D02*
X15989372Y-14632412D01*
X15989372Y-14632412D02*
X15989372Y-14622888D01*
X15989372Y-14622888D02*
X15979849Y-14603841D01*
X15979849Y-14603841D02*
X15960801Y-14594317D01*
X15960801Y-14594317D02*
X15932230Y-14594317D01*
X15932230Y-14594317D02*
X15913182Y-14584793D01*
X15913182Y-14584793D02*
X15903658Y-14565746D01*
X15903658Y-14565746D02*
X15903658Y-14556222D01*
X15903658Y-14556222D02*
X15913182Y-14537174D01*
X15913182Y-14537174D02*
X15932230Y-14527650D01*
X15932230Y-14527650D02*
X15960801Y-14527650D01*
X15960801Y-14527650D02*
X15979849Y-14537174D01*
X16056039Y-14737174D02*
X16065563Y-14727650D01*
X16065563Y-14727650D02*
X16084611Y-14699079D01*
X16084611Y-14699079D02*
X16094134Y-14680031D01*
X16094134Y-14680031D02*
X16103658Y-14651460D01*
X16103658Y-14651460D02*
X16113182Y-14603841D01*
X16113182Y-14603841D02*
X16113182Y-14565746D01*
X16113182Y-14565746D02*
X16103658Y-14518127D01*
X16103658Y-14518127D02*
X16094134Y-14489555D01*
X16094134Y-14489555D02*
X16084611Y-14470508D01*
X16084611Y-14470508D02*
X16065563Y-14441936D01*
X16065563Y-14441936D02*
X16056039Y-14432412D01*
D12*
X11076368Y-14867618D02*
X11076368Y-14799382D01*
X11008132Y-14799382D01*
X11008132Y-14867618D01*
X11076368Y-14867618D01*
D11*
X11389372Y-14724984D02*
X11408420Y-14724984D01*
X11408420Y-14724984D02*
X11427467Y-14734508D01*
X11427467Y-14734508D02*
X11436991Y-14744031D01*
X11436991Y-14744031D02*
X11446515Y-14763079D01*
X11446515Y-14763079D02*
X11456039Y-14801174D01*
X11456039Y-14801174D02*
X11456039Y-14848793D01*
X11456039Y-14848793D02*
X11446515Y-14886888D01*
X11446515Y-14886888D02*
X11436991Y-14905936D01*
X11436991Y-14905936D02*
X11427467Y-14915460D01*
X11427467Y-14915460D02*
X11408420Y-14924984D01*
X11408420Y-14924984D02*
X11389372Y-14924984D01*
X11389372Y-14924984D02*
X11370324Y-14915460D01*
X11370324Y-14915460D02*
X11360801Y-14905936D01*
X11360801Y-14905936D02*
X11351277Y-14886888D01*
X11351277Y-14886888D02*
X11341753Y-14848793D01*
X11341753Y-14848793D02*
X11341753Y-14801174D01*
X11341753Y-14801174D02*
X11351277Y-14763079D01*
X11351277Y-14763079D02*
X11360801Y-14744031D01*
X11360801Y-14744031D02*
X11370324Y-14734508D01*
X11370324Y-14734508D02*
X11389372Y-14724984D01*
X11541753Y-14905936D02*
X11551277Y-14915460D01*
X11551277Y-14915460D02*
X11541753Y-14924984D01*
X11541753Y-14924984D02*
X11532229Y-14915460D01*
X11532229Y-14915460D02*
X11541753Y-14905936D01*
X11541753Y-14905936D02*
X11541753Y-14924984D01*
X11646515Y-14924984D02*
X11684610Y-14924984D01*
X11684610Y-14924984D02*
X11703658Y-14915460D01*
X11703658Y-14915460D02*
X11713182Y-14905936D01*
X11713182Y-14905936D02*
X11732229Y-14877365D01*
X11732229Y-14877365D02*
X11741753Y-14839269D01*
X11741753Y-14839269D02*
X11741753Y-14763079D01*
X11741753Y-14763079D02*
X11732229Y-14744031D01*
X11732229Y-14744031D02*
X11722705Y-14734508D01*
X11722705Y-14734508D02*
X11703658Y-14724984D01*
X11703658Y-14724984D02*
X11665562Y-14724984D01*
X11665562Y-14724984D02*
X11646515Y-14734508D01*
X11646515Y-14734508D02*
X11636991Y-14744031D01*
X11636991Y-14744031D02*
X11627467Y-14763079D01*
X11627467Y-14763079D02*
X11627467Y-14810698D01*
X11627467Y-14810698D02*
X11636991Y-14829746D01*
X11636991Y-14829746D02*
X11646515Y-14839269D01*
X11646515Y-14839269D02*
X11665562Y-14848793D01*
X11665562Y-14848793D02*
X11703658Y-14848793D01*
X11703658Y-14848793D02*
X11722705Y-14839269D01*
X11722705Y-14839269D02*
X11732229Y-14829746D01*
X11732229Y-14829746D02*
X11741753Y-14810698D01*
X11913182Y-14724984D02*
X11875086Y-14724984D01*
X11875086Y-14724984D02*
X11856039Y-14734508D01*
X11856039Y-14734508D02*
X11846515Y-14744031D01*
X11846515Y-14744031D02*
X11827467Y-14772603D01*
X11827467Y-14772603D02*
X11817943Y-14810698D01*
X11817943Y-14810698D02*
X11817943Y-14886888D01*
X11817943Y-14886888D02*
X11827467Y-14905936D01*
X11827467Y-14905936D02*
X11836991Y-14915460D01*
X11836991Y-14915460D02*
X11856039Y-14924984D01*
X11856039Y-14924984D02*
X11894134Y-14924984D01*
X11894134Y-14924984D02*
X11913182Y-14915460D01*
X11913182Y-14915460D02*
X11922705Y-14905936D01*
X11922705Y-14905936D02*
X11932229Y-14886888D01*
X11932229Y-14886888D02*
X11932229Y-14839269D01*
X11932229Y-14839269D02*
X11922705Y-14820222D01*
X11922705Y-14820222D02*
X11913182Y-14810698D01*
X11913182Y-14810698D02*
X11894134Y-14801174D01*
X11894134Y-14801174D02*
X11856039Y-14801174D01*
X11856039Y-14801174D02*
X11836991Y-14810698D01*
X11836991Y-14810698D02*
X11827467Y-14820222D01*
X11827467Y-14820222D02*
X11817943Y-14839269D01*
X12113182Y-14724984D02*
X12017943Y-14724984D01*
X12017943Y-14724984D02*
X12008420Y-14820222D01*
X12008420Y-14820222D02*
X12017943Y-14810698D01*
X12017943Y-14810698D02*
X12036991Y-14801174D01*
X12036991Y-14801174D02*
X12084610Y-14801174D01*
X12084610Y-14801174D02*
X12103658Y-14810698D01*
X12103658Y-14810698D02*
X12113182Y-14820222D01*
X12113182Y-14820222D02*
X12122705Y-14839269D01*
X12122705Y-14839269D02*
X12122705Y-14886888D01*
X12122705Y-14886888D02*
X12113182Y-14905936D01*
X12113182Y-14905936D02*
X12103658Y-14915460D01*
X12103658Y-14915460D02*
X12084610Y-14924984D01*
X12084610Y-14924984D02*
X12036991Y-14924984D01*
X12036991Y-14924984D02*
X12017943Y-14915460D01*
X12017943Y-14915460D02*
X12008420Y-14905936D01*
X12208420Y-14924984D02*
X12208420Y-14791650D01*
X12208420Y-14810698D02*
X12217943Y-14801174D01*
X12217943Y-14801174D02*
X12236991Y-14791650D01*
X12236991Y-14791650D02*
X12265563Y-14791650D01*
X12265563Y-14791650D02*
X12284610Y-14801174D01*
X12284610Y-14801174D02*
X12294134Y-14820222D01*
X12294134Y-14820222D02*
X12294134Y-14924984D01*
X12294134Y-14820222D02*
X12303658Y-14801174D01*
X12303658Y-14801174D02*
X12322705Y-14791650D01*
X12322705Y-14791650D02*
X12351277Y-14791650D01*
X12351277Y-14791650D02*
X12370324Y-14801174D01*
X12370324Y-14801174D02*
X12379848Y-14820222D01*
X12379848Y-14820222D02*
X12379848Y-14924984D01*
X12475086Y-14924984D02*
X12475086Y-14791650D01*
X12475086Y-14810698D02*
X12484610Y-14801174D01*
X12484610Y-14801174D02*
X12503658Y-14791650D01*
X12503658Y-14791650D02*
X12532229Y-14791650D01*
X12532229Y-14791650D02*
X12551277Y-14801174D01*
X12551277Y-14801174D02*
X12560801Y-14820222D01*
X12560801Y-14820222D02*
X12560801Y-14924984D01*
X12560801Y-14820222D02*
X12570324Y-14801174D01*
X12570324Y-14801174D02*
X12589372Y-14791650D01*
X12589372Y-14791650D02*
X12617943Y-14791650D01*
X12617943Y-14791650D02*
X12636991Y-14801174D01*
X12636991Y-14801174D02*
X12646515Y-14820222D01*
X12646515Y-14820222D02*
X12646515Y-14924984D01*
X13036991Y-14715460D02*
X12865563Y-14972603D01*
X13294134Y-14724984D02*
X13313182Y-14724984D01*
X13313182Y-14724984D02*
X13332229Y-14734508D01*
X13332229Y-14734508D02*
X13341753Y-14744031D01*
X13341753Y-14744031D02*
X13351277Y-14763079D01*
X13351277Y-14763079D02*
X13360801Y-14801174D01*
X13360801Y-14801174D02*
X13360801Y-14848793D01*
X13360801Y-14848793D02*
X13351277Y-14886888D01*
X13351277Y-14886888D02*
X13341753Y-14905936D01*
X13341753Y-14905936D02*
X13332229Y-14915460D01*
X13332229Y-14915460D02*
X13313182Y-14924984D01*
X13313182Y-14924984D02*
X13294134Y-14924984D01*
X13294134Y-14924984D02*
X13275086Y-14915460D01*
X13275086Y-14915460D02*
X13265563Y-14905936D01*
X13265563Y-14905936D02*
X13256039Y-14886888D01*
X13256039Y-14886888D02*
X13246515Y-14848793D01*
X13246515Y-14848793D02*
X13246515Y-14801174D01*
X13246515Y-14801174D02*
X13256039Y-14763079D01*
X13256039Y-14763079D02*
X13265563Y-14744031D01*
X13265563Y-14744031D02*
X13275086Y-14734508D01*
X13275086Y-14734508D02*
X13294134Y-14724984D01*
X13446515Y-14905936D02*
X13456039Y-14915460D01*
X13456039Y-14915460D02*
X13446515Y-14924984D01*
X13446515Y-14924984D02*
X13436991Y-14915460D01*
X13436991Y-14915460D02*
X13446515Y-14905936D01*
X13446515Y-14905936D02*
X13446515Y-14924984D01*
X13579848Y-14724984D02*
X13598896Y-14724984D01*
X13598896Y-14724984D02*
X13617944Y-14734508D01*
X13617944Y-14734508D02*
X13627467Y-14744031D01*
X13627467Y-14744031D02*
X13636991Y-14763079D01*
X13636991Y-14763079D02*
X13646515Y-14801174D01*
X13646515Y-14801174D02*
X13646515Y-14848793D01*
X13646515Y-14848793D02*
X13636991Y-14886888D01*
X13636991Y-14886888D02*
X13627467Y-14905936D01*
X13627467Y-14905936D02*
X13617944Y-14915460D01*
X13617944Y-14915460D02*
X13598896Y-14924984D01*
X13598896Y-14924984D02*
X13579848Y-14924984D01*
X13579848Y-14924984D02*
X13560801Y-14915460D01*
X13560801Y-14915460D02*
X13551277Y-14905936D01*
X13551277Y-14905936D02*
X13541753Y-14886888D01*
X13541753Y-14886888D02*
X13532229Y-14848793D01*
X13532229Y-14848793D02*
X13532229Y-14801174D01*
X13532229Y-14801174D02*
X13541753Y-14763079D01*
X13541753Y-14763079D02*
X13551277Y-14744031D01*
X13551277Y-14744031D02*
X13560801Y-14734508D01*
X13560801Y-14734508D02*
X13579848Y-14724984D01*
X13713182Y-14724984D02*
X13836991Y-14724984D01*
X13836991Y-14724984D02*
X13770325Y-14801174D01*
X13770325Y-14801174D02*
X13798896Y-14801174D01*
X13798896Y-14801174D02*
X13817944Y-14810698D01*
X13817944Y-14810698D02*
X13827467Y-14820222D01*
X13827467Y-14820222D02*
X13836991Y-14839269D01*
X13836991Y-14839269D02*
X13836991Y-14886888D01*
X13836991Y-14886888D02*
X13827467Y-14905936D01*
X13827467Y-14905936D02*
X13817944Y-14915460D01*
X13817944Y-14915460D02*
X13798896Y-14924984D01*
X13798896Y-14924984D02*
X13741753Y-14924984D01*
X13741753Y-14924984D02*
X13722706Y-14915460D01*
X13722706Y-14915460D02*
X13713182Y-14905936D01*
X13951277Y-14810698D02*
X13932229Y-14801174D01*
X13932229Y-14801174D02*
X13922706Y-14791650D01*
X13922706Y-14791650D02*
X13913182Y-14772603D01*
X13913182Y-14772603D02*
X13913182Y-14763079D01*
X13913182Y-14763079D02*
X13922706Y-14744031D01*
X13922706Y-14744031D02*
X13932229Y-14734508D01*
X13932229Y-14734508D02*
X13951277Y-14724984D01*
X13951277Y-14724984D02*
X13989372Y-14724984D01*
X13989372Y-14724984D02*
X14008420Y-14734508D01*
X14008420Y-14734508D02*
X14017944Y-14744031D01*
X14017944Y-14744031D02*
X14027467Y-14763079D01*
X14027467Y-14763079D02*
X14027467Y-14772603D01*
X14027467Y-14772603D02*
X14017944Y-14791650D01*
X14017944Y-14791650D02*
X14008420Y-14801174D01*
X14008420Y-14801174D02*
X13989372Y-14810698D01*
X13989372Y-14810698D02*
X13951277Y-14810698D01*
X13951277Y-14810698D02*
X13932229Y-14820222D01*
X13932229Y-14820222D02*
X13922706Y-14829746D01*
X13922706Y-14829746D02*
X13913182Y-14848793D01*
X13913182Y-14848793D02*
X13913182Y-14886888D01*
X13913182Y-14886888D02*
X13922706Y-14905936D01*
X13922706Y-14905936D02*
X13932229Y-14915460D01*
X13932229Y-14915460D02*
X13951277Y-14924984D01*
X13951277Y-14924984D02*
X13989372Y-14924984D01*
X13989372Y-14924984D02*
X14008420Y-14915460D01*
X14008420Y-14915460D02*
X14017944Y-14905936D01*
X14017944Y-14905936D02*
X14027467Y-14886888D01*
X14027467Y-14886888D02*
X14027467Y-14848793D01*
X14027467Y-14848793D02*
X14017944Y-14829746D01*
X14017944Y-14829746D02*
X14008420Y-14820222D01*
X14008420Y-14820222D02*
X13989372Y-14810698D01*
X14151277Y-14724984D02*
X14170325Y-14724984D01*
X14170325Y-14724984D02*
X14189372Y-14734508D01*
X14189372Y-14734508D02*
X14198896Y-14744031D01*
X14198896Y-14744031D02*
X14208420Y-14763079D01*
X14208420Y-14763079D02*
X14217944Y-14801174D01*
X14217944Y-14801174D02*
X14217944Y-14848793D01*
X14217944Y-14848793D02*
X14208420Y-14886888D01*
X14208420Y-14886888D02*
X14198896Y-14905936D01*
X14198896Y-14905936D02*
X14189372Y-14915460D01*
X14189372Y-14915460D02*
X14170325Y-14924984D01*
X14170325Y-14924984D02*
X14151277Y-14924984D01*
X14151277Y-14924984D02*
X14132229Y-14915460D01*
X14132229Y-14915460D02*
X14122706Y-14905936D01*
X14122706Y-14905936D02*
X14113182Y-14886888D01*
X14113182Y-14886888D02*
X14103658Y-14848793D01*
X14103658Y-14848793D02*
X14103658Y-14801174D01*
X14103658Y-14801174D02*
X14113182Y-14763079D01*
X14113182Y-14763079D02*
X14122706Y-14744031D01*
X14122706Y-14744031D02*
X14132229Y-14734508D01*
X14132229Y-14734508D02*
X14151277Y-14724984D01*
X14294134Y-14724984D02*
X14294134Y-14763079D01*
X14370325Y-14724984D02*
X14370325Y-14763079D01*
X14665563Y-15001174D02*
X14656039Y-14991650D01*
X14656039Y-14991650D02*
X14636991Y-14963079D01*
X14636991Y-14963079D02*
X14627468Y-14944031D01*
X14627468Y-14944031D02*
X14617944Y-14915460D01*
X14617944Y-14915460D02*
X14608420Y-14867841D01*
X14608420Y-14867841D02*
X14608420Y-14829746D01*
X14608420Y-14829746D02*
X14617944Y-14782127D01*
X14617944Y-14782127D02*
X14627468Y-14753555D01*
X14627468Y-14753555D02*
X14636991Y-14734508D01*
X14636991Y-14734508D02*
X14656039Y-14705936D01*
X14656039Y-14705936D02*
X14665563Y-14696412D01*
X14722706Y-14724984D02*
X14846515Y-14724984D01*
X14846515Y-14724984D02*
X14779848Y-14801174D01*
X14779848Y-14801174D02*
X14808420Y-14801174D01*
X14808420Y-14801174D02*
X14827468Y-14810698D01*
X14827468Y-14810698D02*
X14836991Y-14820222D01*
X14836991Y-14820222D02*
X14846515Y-14839269D01*
X14846515Y-14839269D02*
X14846515Y-14886888D01*
X14846515Y-14886888D02*
X14836991Y-14905936D01*
X14836991Y-14905936D02*
X14827468Y-14915460D01*
X14827468Y-14915460D02*
X14808420Y-14924984D01*
X14808420Y-14924984D02*
X14751277Y-14924984D01*
X14751277Y-14924984D02*
X14732229Y-14915460D01*
X14732229Y-14915460D02*
X14722706Y-14905936D01*
X14913182Y-14724984D02*
X15036991Y-14724984D01*
X15036991Y-14724984D02*
X14970325Y-14801174D01*
X14970325Y-14801174D02*
X14998896Y-14801174D01*
X14998896Y-14801174D02*
X15017944Y-14810698D01*
X15017944Y-14810698D02*
X15027468Y-14820222D01*
X15027468Y-14820222D02*
X15036991Y-14839269D01*
X15036991Y-14839269D02*
X15036991Y-14886888D01*
X15036991Y-14886888D02*
X15027468Y-14905936D01*
X15027468Y-14905936D02*
X15017944Y-14915460D01*
X15017944Y-14915460D02*
X14998896Y-14924984D01*
X14998896Y-14924984D02*
X14941753Y-14924984D01*
X14941753Y-14924984D02*
X14922706Y-14915460D01*
X14922706Y-14915460D02*
X14913182Y-14905936D01*
X15275087Y-14924984D02*
X15275087Y-14724984D01*
X15360801Y-14924984D02*
X15360801Y-14820222D01*
X15360801Y-14820222D02*
X15351277Y-14801174D01*
X15351277Y-14801174D02*
X15332230Y-14791650D01*
X15332230Y-14791650D02*
X15303658Y-14791650D01*
X15303658Y-14791650D02*
X15284610Y-14801174D01*
X15284610Y-14801174D02*
X15275087Y-14810698D01*
X15484610Y-14924984D02*
X15465563Y-14915460D01*
X15465563Y-14915460D02*
X15456039Y-14905936D01*
X15456039Y-14905936D02*
X15446515Y-14886888D01*
X15446515Y-14886888D02*
X15446515Y-14829746D01*
X15446515Y-14829746D02*
X15456039Y-14810698D01*
X15456039Y-14810698D02*
X15465563Y-14801174D01*
X15465563Y-14801174D02*
X15484610Y-14791650D01*
X15484610Y-14791650D02*
X15513182Y-14791650D01*
X15513182Y-14791650D02*
X15532230Y-14801174D01*
X15532230Y-14801174D02*
X15541753Y-14810698D01*
X15541753Y-14810698D02*
X15551277Y-14829746D01*
X15551277Y-14829746D02*
X15551277Y-14886888D01*
X15551277Y-14886888D02*
X15541753Y-14905936D01*
X15541753Y-14905936D02*
X15532230Y-14915460D01*
X15532230Y-14915460D02*
X15513182Y-14924984D01*
X15513182Y-14924984D02*
X15484610Y-14924984D01*
X15665563Y-14924984D02*
X15646515Y-14915460D01*
X15646515Y-14915460D02*
X15636991Y-14896412D01*
X15636991Y-14896412D02*
X15636991Y-14724984D01*
X15817944Y-14915460D02*
X15798896Y-14924984D01*
X15798896Y-14924984D02*
X15760801Y-14924984D01*
X15760801Y-14924984D02*
X15741753Y-14915460D01*
X15741753Y-14915460D02*
X15732230Y-14896412D01*
X15732230Y-14896412D02*
X15732230Y-14820222D01*
X15732230Y-14820222D02*
X15741753Y-14801174D01*
X15741753Y-14801174D02*
X15760801Y-14791650D01*
X15760801Y-14791650D02*
X15798896Y-14791650D01*
X15798896Y-14791650D02*
X15817944Y-14801174D01*
X15817944Y-14801174D02*
X15827468Y-14820222D01*
X15827468Y-14820222D02*
X15827468Y-14839269D01*
X15827468Y-14839269D02*
X15732230Y-14858317D01*
X15903658Y-14915460D02*
X15922706Y-14924984D01*
X15922706Y-14924984D02*
X15960801Y-14924984D01*
X15960801Y-14924984D02*
X15979849Y-14915460D01*
X15979849Y-14915460D02*
X15989372Y-14896412D01*
X15989372Y-14896412D02*
X15989372Y-14886888D01*
X15989372Y-14886888D02*
X15979849Y-14867841D01*
X15979849Y-14867841D02*
X15960801Y-14858317D01*
X15960801Y-14858317D02*
X15932230Y-14858317D01*
X15932230Y-14858317D02*
X15913182Y-14848793D01*
X15913182Y-14848793D02*
X15903658Y-14829746D01*
X15903658Y-14829746D02*
X15903658Y-14820222D01*
X15903658Y-14820222D02*
X15913182Y-14801174D01*
X15913182Y-14801174D02*
X15932230Y-14791650D01*
X15932230Y-14791650D02*
X15960801Y-14791650D01*
X15960801Y-14791650D02*
X15979849Y-14801174D01*
X16056039Y-15001174D02*
X16065563Y-14991650D01*
X16065563Y-14991650D02*
X16084611Y-14963079D01*
X16084611Y-14963079D02*
X16094134Y-14944031D01*
X16094134Y-14944031D02*
X16103658Y-14915460D01*
X16103658Y-14915460D02*
X16113182Y-14867841D01*
X16113182Y-14867841D02*
X16113182Y-14829746D01*
X16113182Y-14829746D02*
X16103658Y-14782127D01*
X16103658Y-14782127D02*
X16094134Y-14753555D01*
X16094134Y-14753555D02*
X16084611Y-14734508D01*
X16084611Y-14734508D02*
X16065563Y-14705936D01*
X16065563Y-14705936D02*
X16056039Y-14696412D01*
D12*
X11040500Y-15147500D02*
X11090500Y-15097500D01*
X11040500Y-15047500D01*
X10990500Y-15097500D01*
X11040500Y-15147500D01*
D11*
X11456039Y-15188984D02*
X11341753Y-15188984D01*
X11398896Y-15188984D02*
X11398896Y-14988984D01*
X11398896Y-14988984D02*
X11379848Y-15017555D01*
X11379848Y-15017555D02*
X11360801Y-15036603D01*
X11360801Y-15036603D02*
X11341753Y-15046127D01*
X11541753Y-15169936D02*
X11551277Y-15179460D01*
X11551277Y-15179460D02*
X11541753Y-15188984D01*
X11541753Y-15188984D02*
X11532229Y-15179460D01*
X11532229Y-15179460D02*
X11541753Y-15169936D01*
X11541753Y-15169936D02*
X11541753Y-15188984D01*
X11675086Y-14988984D02*
X11694134Y-14988984D01*
X11694134Y-14988984D02*
X11713182Y-14998508D01*
X11713182Y-14998508D02*
X11722705Y-15008031D01*
X11722705Y-15008031D02*
X11732229Y-15027079D01*
X11732229Y-15027079D02*
X11741753Y-15065174D01*
X11741753Y-15065174D02*
X11741753Y-15112793D01*
X11741753Y-15112793D02*
X11732229Y-15150888D01*
X11732229Y-15150888D02*
X11722705Y-15169936D01*
X11722705Y-15169936D02*
X11713182Y-15179460D01*
X11713182Y-15179460D02*
X11694134Y-15188984D01*
X11694134Y-15188984D02*
X11675086Y-15188984D01*
X11675086Y-15188984D02*
X11656039Y-15179460D01*
X11656039Y-15179460D02*
X11646515Y-15169936D01*
X11646515Y-15169936D02*
X11636991Y-15150888D01*
X11636991Y-15150888D02*
X11627467Y-15112793D01*
X11627467Y-15112793D02*
X11627467Y-15065174D01*
X11627467Y-15065174D02*
X11636991Y-15027079D01*
X11636991Y-15027079D02*
X11646515Y-15008031D01*
X11646515Y-15008031D02*
X11656039Y-14998508D01*
X11656039Y-14998508D02*
X11675086Y-14988984D01*
X11865562Y-14988984D02*
X11884610Y-14988984D01*
X11884610Y-14988984D02*
X11903658Y-14998508D01*
X11903658Y-14998508D02*
X11913182Y-15008031D01*
X11913182Y-15008031D02*
X11922705Y-15027079D01*
X11922705Y-15027079D02*
X11932229Y-15065174D01*
X11932229Y-15065174D02*
X11932229Y-15112793D01*
X11932229Y-15112793D02*
X11922705Y-15150888D01*
X11922705Y-15150888D02*
X11913182Y-15169936D01*
X11913182Y-15169936D02*
X11903658Y-15179460D01*
X11903658Y-15179460D02*
X11884610Y-15188984D01*
X11884610Y-15188984D02*
X11865562Y-15188984D01*
X11865562Y-15188984D02*
X11846515Y-15179460D01*
X11846515Y-15179460D02*
X11836991Y-15169936D01*
X11836991Y-15169936D02*
X11827467Y-15150888D01*
X11827467Y-15150888D02*
X11817943Y-15112793D01*
X11817943Y-15112793D02*
X11817943Y-15065174D01*
X11817943Y-15065174D02*
X11827467Y-15027079D01*
X11827467Y-15027079D02*
X11836991Y-15008031D01*
X11836991Y-15008031D02*
X11846515Y-14998508D01*
X11846515Y-14998508D02*
X11865562Y-14988984D01*
X12056039Y-14988984D02*
X12075086Y-14988984D01*
X12075086Y-14988984D02*
X12094134Y-14998508D01*
X12094134Y-14998508D02*
X12103658Y-15008031D01*
X12103658Y-15008031D02*
X12113182Y-15027079D01*
X12113182Y-15027079D02*
X12122705Y-15065174D01*
X12122705Y-15065174D02*
X12122705Y-15112793D01*
X12122705Y-15112793D02*
X12113182Y-15150888D01*
X12113182Y-15150888D02*
X12103658Y-15169936D01*
X12103658Y-15169936D02*
X12094134Y-15179460D01*
X12094134Y-15179460D02*
X12075086Y-15188984D01*
X12075086Y-15188984D02*
X12056039Y-15188984D01*
X12056039Y-15188984D02*
X12036991Y-15179460D01*
X12036991Y-15179460D02*
X12027467Y-15169936D01*
X12027467Y-15169936D02*
X12017943Y-15150888D01*
X12017943Y-15150888D02*
X12008420Y-15112793D01*
X12008420Y-15112793D02*
X12008420Y-15065174D01*
X12008420Y-15065174D02*
X12017943Y-15027079D01*
X12017943Y-15027079D02*
X12027467Y-15008031D01*
X12027467Y-15008031D02*
X12036991Y-14998508D01*
X12036991Y-14998508D02*
X12056039Y-14988984D01*
X12208420Y-15188984D02*
X12208420Y-15055650D01*
X12208420Y-15074698D02*
X12217943Y-15065174D01*
X12217943Y-15065174D02*
X12236991Y-15055650D01*
X12236991Y-15055650D02*
X12265563Y-15055650D01*
X12265563Y-15055650D02*
X12284610Y-15065174D01*
X12284610Y-15065174D02*
X12294134Y-15084222D01*
X12294134Y-15084222D02*
X12294134Y-15188984D01*
X12294134Y-15084222D02*
X12303658Y-15065174D01*
X12303658Y-15065174D02*
X12322705Y-15055650D01*
X12322705Y-15055650D02*
X12351277Y-15055650D01*
X12351277Y-15055650D02*
X12370324Y-15065174D01*
X12370324Y-15065174D02*
X12379848Y-15084222D01*
X12379848Y-15084222D02*
X12379848Y-15188984D01*
X12475086Y-15188984D02*
X12475086Y-15055650D01*
X12475086Y-15074698D02*
X12484610Y-15065174D01*
X12484610Y-15065174D02*
X12503658Y-15055650D01*
X12503658Y-15055650D02*
X12532229Y-15055650D01*
X12532229Y-15055650D02*
X12551277Y-15065174D01*
X12551277Y-15065174D02*
X12560801Y-15084222D01*
X12560801Y-15084222D02*
X12560801Y-15188984D01*
X12560801Y-15084222D02*
X12570324Y-15065174D01*
X12570324Y-15065174D02*
X12589372Y-15055650D01*
X12589372Y-15055650D02*
X12617943Y-15055650D01*
X12617943Y-15055650D02*
X12636991Y-15065174D01*
X12636991Y-15065174D02*
X12646515Y-15084222D01*
X12646515Y-15084222D02*
X12646515Y-15188984D01*
X13036991Y-14979460D02*
X12865563Y-15236603D01*
X13294134Y-14988984D02*
X13313182Y-14988984D01*
X13313182Y-14988984D02*
X13332229Y-14998508D01*
X13332229Y-14998508D02*
X13341753Y-15008031D01*
X13341753Y-15008031D02*
X13351277Y-15027079D01*
X13351277Y-15027079D02*
X13360801Y-15065174D01*
X13360801Y-15065174D02*
X13360801Y-15112793D01*
X13360801Y-15112793D02*
X13351277Y-15150888D01*
X13351277Y-15150888D02*
X13341753Y-15169936D01*
X13341753Y-15169936D02*
X13332229Y-15179460D01*
X13332229Y-15179460D02*
X13313182Y-15188984D01*
X13313182Y-15188984D02*
X13294134Y-15188984D01*
X13294134Y-15188984D02*
X13275086Y-15179460D01*
X13275086Y-15179460D02*
X13265563Y-15169936D01*
X13265563Y-15169936D02*
X13256039Y-15150888D01*
X13256039Y-15150888D02*
X13246515Y-15112793D01*
X13246515Y-15112793D02*
X13246515Y-15065174D01*
X13246515Y-15065174D02*
X13256039Y-15027079D01*
X13256039Y-15027079D02*
X13265563Y-15008031D01*
X13265563Y-15008031D02*
X13275086Y-14998508D01*
X13275086Y-14998508D02*
X13294134Y-14988984D01*
X13446515Y-15169936D02*
X13456039Y-15179460D01*
X13456039Y-15179460D02*
X13446515Y-15188984D01*
X13446515Y-15188984D02*
X13436991Y-15179460D01*
X13436991Y-15179460D02*
X13446515Y-15169936D01*
X13446515Y-15169936D02*
X13446515Y-15188984D01*
X13579848Y-14988984D02*
X13598896Y-14988984D01*
X13598896Y-14988984D02*
X13617944Y-14998508D01*
X13617944Y-14998508D02*
X13627467Y-15008031D01*
X13627467Y-15008031D02*
X13636991Y-15027079D01*
X13636991Y-15027079D02*
X13646515Y-15065174D01*
X13646515Y-15065174D02*
X13646515Y-15112793D01*
X13646515Y-15112793D02*
X13636991Y-15150888D01*
X13636991Y-15150888D02*
X13627467Y-15169936D01*
X13627467Y-15169936D02*
X13617944Y-15179460D01*
X13617944Y-15179460D02*
X13598896Y-15188984D01*
X13598896Y-15188984D02*
X13579848Y-15188984D01*
X13579848Y-15188984D02*
X13560801Y-15179460D01*
X13560801Y-15179460D02*
X13551277Y-15169936D01*
X13551277Y-15169936D02*
X13541753Y-15150888D01*
X13541753Y-15150888D02*
X13532229Y-15112793D01*
X13532229Y-15112793D02*
X13532229Y-15065174D01*
X13532229Y-15065174D02*
X13541753Y-15027079D01*
X13541753Y-15027079D02*
X13551277Y-15008031D01*
X13551277Y-15008031D02*
X13560801Y-14998508D01*
X13560801Y-14998508D02*
X13579848Y-14988984D01*
X13713182Y-14988984D02*
X13836991Y-14988984D01*
X13836991Y-14988984D02*
X13770325Y-15065174D01*
X13770325Y-15065174D02*
X13798896Y-15065174D01*
X13798896Y-15065174D02*
X13817944Y-15074698D01*
X13817944Y-15074698D02*
X13827467Y-15084222D01*
X13827467Y-15084222D02*
X13836991Y-15103269D01*
X13836991Y-15103269D02*
X13836991Y-15150888D01*
X13836991Y-15150888D02*
X13827467Y-15169936D01*
X13827467Y-15169936D02*
X13817944Y-15179460D01*
X13817944Y-15179460D02*
X13798896Y-15188984D01*
X13798896Y-15188984D02*
X13741753Y-15188984D01*
X13741753Y-15188984D02*
X13722706Y-15179460D01*
X13722706Y-15179460D02*
X13713182Y-15169936D01*
X13932229Y-15188984D02*
X13970325Y-15188984D01*
X13970325Y-15188984D02*
X13989372Y-15179460D01*
X13989372Y-15179460D02*
X13998896Y-15169936D01*
X13998896Y-15169936D02*
X14017944Y-15141365D01*
X14017944Y-15141365D02*
X14027467Y-15103269D01*
X14027467Y-15103269D02*
X14027467Y-15027079D01*
X14027467Y-15027079D02*
X14017944Y-15008031D01*
X14017944Y-15008031D02*
X14008420Y-14998508D01*
X14008420Y-14998508D02*
X13989372Y-14988984D01*
X13989372Y-14988984D02*
X13951277Y-14988984D01*
X13951277Y-14988984D02*
X13932229Y-14998508D01*
X13932229Y-14998508D02*
X13922706Y-15008031D01*
X13922706Y-15008031D02*
X13913182Y-15027079D01*
X13913182Y-15027079D02*
X13913182Y-15074698D01*
X13913182Y-15074698D02*
X13922706Y-15093746D01*
X13922706Y-15093746D02*
X13932229Y-15103269D01*
X13932229Y-15103269D02*
X13951277Y-15112793D01*
X13951277Y-15112793D02*
X13989372Y-15112793D01*
X13989372Y-15112793D02*
X14008420Y-15103269D01*
X14008420Y-15103269D02*
X14017944Y-15093746D01*
X14017944Y-15093746D02*
X14027467Y-15074698D01*
X14198896Y-15055650D02*
X14198896Y-15188984D01*
X14151277Y-14979460D02*
X14103658Y-15122317D01*
X14103658Y-15122317D02*
X14227467Y-15122317D01*
X14294134Y-14988984D02*
X14294134Y-15027079D01*
X14370325Y-14988984D02*
X14370325Y-15027079D01*
X14665563Y-15265174D02*
X14656039Y-15255650D01*
X14656039Y-15255650D02*
X14636991Y-15227079D01*
X14636991Y-15227079D02*
X14627468Y-15208031D01*
X14627468Y-15208031D02*
X14617944Y-15179460D01*
X14617944Y-15179460D02*
X14608420Y-15131841D01*
X14608420Y-15131841D02*
X14608420Y-15093746D01*
X14608420Y-15093746D02*
X14617944Y-15046127D01*
X14617944Y-15046127D02*
X14627468Y-15017555D01*
X14627468Y-15017555D02*
X14636991Y-14998508D01*
X14636991Y-14998508D02*
X14656039Y-14969936D01*
X14656039Y-14969936D02*
X14665563Y-14960412D01*
X14722706Y-14988984D02*
X14846515Y-14988984D01*
X14846515Y-14988984D02*
X14779848Y-15065174D01*
X14779848Y-15065174D02*
X14808420Y-15065174D01*
X14808420Y-15065174D02*
X14827468Y-15074698D01*
X14827468Y-15074698D02*
X14836991Y-15084222D01*
X14836991Y-15084222D02*
X14846515Y-15103269D01*
X14846515Y-15103269D02*
X14846515Y-15150888D01*
X14846515Y-15150888D02*
X14836991Y-15169936D01*
X14836991Y-15169936D02*
X14827468Y-15179460D01*
X14827468Y-15179460D02*
X14808420Y-15188984D01*
X14808420Y-15188984D02*
X14751277Y-15188984D01*
X14751277Y-15188984D02*
X14732229Y-15179460D01*
X14732229Y-15179460D02*
X14722706Y-15169936D01*
X15084610Y-15188984D02*
X15084610Y-14988984D01*
X15170325Y-15188984D02*
X15170325Y-15084222D01*
X15170325Y-15084222D02*
X15160801Y-15065174D01*
X15160801Y-15065174D02*
X15141753Y-15055650D01*
X15141753Y-15055650D02*
X15113182Y-15055650D01*
X15113182Y-15055650D02*
X15094134Y-15065174D01*
X15094134Y-15065174D02*
X15084610Y-15074698D01*
X15294134Y-15188984D02*
X15275087Y-15179460D01*
X15275087Y-15179460D02*
X15265563Y-15169936D01*
X15265563Y-15169936D02*
X15256039Y-15150888D01*
X15256039Y-15150888D02*
X15256039Y-15093746D01*
X15256039Y-15093746D02*
X15265563Y-15074698D01*
X15265563Y-15074698D02*
X15275087Y-15065174D01*
X15275087Y-15065174D02*
X15294134Y-15055650D01*
X15294134Y-15055650D02*
X15322706Y-15055650D01*
X15322706Y-15055650D02*
X15341753Y-15065174D01*
X15341753Y-15065174D02*
X15351277Y-15074698D01*
X15351277Y-15074698D02*
X15360801Y-15093746D01*
X15360801Y-15093746D02*
X15360801Y-15150888D01*
X15360801Y-15150888D02*
X15351277Y-15169936D01*
X15351277Y-15169936D02*
X15341753Y-15179460D01*
X15341753Y-15179460D02*
X15322706Y-15188984D01*
X15322706Y-15188984D02*
X15294134Y-15188984D01*
X15475087Y-15188984D02*
X15456039Y-15179460D01*
X15456039Y-15179460D02*
X15446515Y-15160412D01*
X15446515Y-15160412D02*
X15446515Y-14988984D01*
X15627468Y-15179460D02*
X15608420Y-15188984D01*
X15608420Y-15188984D02*
X15570325Y-15188984D01*
X15570325Y-15188984D02*
X15551277Y-15179460D01*
X15551277Y-15179460D02*
X15541753Y-15160412D01*
X15541753Y-15160412D02*
X15541753Y-15084222D01*
X15541753Y-15084222D02*
X15551277Y-15065174D01*
X15551277Y-15065174D02*
X15570325Y-15055650D01*
X15570325Y-15055650D02*
X15608420Y-15055650D01*
X15608420Y-15055650D02*
X15627468Y-15065174D01*
X15627468Y-15065174D02*
X15636991Y-15084222D01*
X15636991Y-15084222D02*
X15636991Y-15103269D01*
X15636991Y-15103269D02*
X15541753Y-15122317D01*
X15713182Y-15179460D02*
X15732230Y-15188984D01*
X15732230Y-15188984D02*
X15770325Y-15188984D01*
X15770325Y-15188984D02*
X15789372Y-15179460D01*
X15789372Y-15179460D02*
X15798896Y-15160412D01*
X15798896Y-15160412D02*
X15798896Y-15150888D01*
X15798896Y-15150888D02*
X15789372Y-15131841D01*
X15789372Y-15131841D02*
X15770325Y-15122317D01*
X15770325Y-15122317D02*
X15741753Y-15122317D01*
X15741753Y-15122317D02*
X15722706Y-15112793D01*
X15722706Y-15112793D02*
X15713182Y-15093746D01*
X15713182Y-15093746D02*
X15713182Y-15084222D01*
X15713182Y-15084222D02*
X15722706Y-15065174D01*
X15722706Y-15065174D02*
X15741753Y-15055650D01*
X15741753Y-15055650D02*
X15770325Y-15055650D01*
X15770325Y-15055650D02*
X15789372Y-15065174D01*
X15865563Y-15265174D02*
X15875087Y-15255650D01*
X15875087Y-15255650D02*
X15894134Y-15227079D01*
X15894134Y-15227079D02*
X15903658Y-15208031D01*
X15903658Y-15208031D02*
X15913182Y-15179460D01*
X15913182Y-15179460D02*
X15922706Y-15131841D01*
X15922706Y-15131841D02*
X15922706Y-15093746D01*
X15922706Y-15093746D02*
X15913182Y-15046127D01*
X15913182Y-15046127D02*
X15903658Y-15017555D01*
X15903658Y-15017555D02*
X15894134Y-14998508D01*
X15894134Y-14998508D02*
X15875087Y-14969936D01*
X15875087Y-14969936D02*
X15865563Y-14960412D01*
D13*
X10975500Y-15304000D02*
X11090500Y-15419000D01*
X11090500Y-15304000D02*
X10975500Y-15419000D01*
X11090500Y-15361500D02*
G75*
G02*
X10975500Y-15361500I-57500J0D01*
G01*
X10975500Y-15361500D02*
G75*
G02*
X11090500Y-15361500I57500J0D01*
G01*
D11*
X11456039Y-15452984D02*
X11341753Y-15452984D01*
X11398896Y-15452984D02*
X11398896Y-15252984D01*
X11398896Y-15252984D02*
X11379848Y-15281555D01*
X11379848Y-15281555D02*
X11360801Y-15300603D01*
X11360801Y-15300603D02*
X11341753Y-15310127D01*
X11541753Y-15433936D02*
X11551277Y-15443460D01*
X11551277Y-15443460D02*
X11541753Y-15452984D01*
X11541753Y-15452984D02*
X11532229Y-15443460D01*
X11532229Y-15443460D02*
X11541753Y-15433936D01*
X11541753Y-15433936D02*
X11541753Y-15452984D01*
X11741753Y-15452984D02*
X11627467Y-15452984D01*
X11684610Y-15452984D02*
X11684610Y-15252984D01*
X11684610Y-15252984D02*
X11665562Y-15281555D01*
X11665562Y-15281555D02*
X11646515Y-15300603D01*
X11646515Y-15300603D02*
X11627467Y-15310127D01*
X11922705Y-15252984D02*
X11827467Y-15252984D01*
X11827467Y-15252984D02*
X11817943Y-15348222D01*
X11817943Y-15348222D02*
X11827467Y-15338698D01*
X11827467Y-15338698D02*
X11846515Y-15329174D01*
X11846515Y-15329174D02*
X11894134Y-15329174D01*
X11894134Y-15329174D02*
X11913182Y-15338698D01*
X11913182Y-15338698D02*
X11922705Y-15348222D01*
X11922705Y-15348222D02*
X11932229Y-15367269D01*
X11932229Y-15367269D02*
X11932229Y-15414888D01*
X11932229Y-15414888D02*
X11922705Y-15433936D01*
X11922705Y-15433936D02*
X11913182Y-15443460D01*
X11913182Y-15443460D02*
X11894134Y-15452984D01*
X11894134Y-15452984D02*
X11846515Y-15452984D01*
X11846515Y-15452984D02*
X11827467Y-15443460D01*
X11827467Y-15443460D02*
X11817943Y-15433936D01*
X12056039Y-15252984D02*
X12075086Y-15252984D01*
X12075086Y-15252984D02*
X12094134Y-15262508D01*
X12094134Y-15262508D02*
X12103658Y-15272031D01*
X12103658Y-15272031D02*
X12113182Y-15291079D01*
X12113182Y-15291079D02*
X12122705Y-15329174D01*
X12122705Y-15329174D02*
X12122705Y-15376793D01*
X12122705Y-15376793D02*
X12113182Y-15414888D01*
X12113182Y-15414888D02*
X12103658Y-15433936D01*
X12103658Y-15433936D02*
X12094134Y-15443460D01*
X12094134Y-15443460D02*
X12075086Y-15452984D01*
X12075086Y-15452984D02*
X12056039Y-15452984D01*
X12056039Y-15452984D02*
X12036991Y-15443460D01*
X12036991Y-15443460D02*
X12027467Y-15433936D01*
X12027467Y-15433936D02*
X12017943Y-15414888D01*
X12017943Y-15414888D02*
X12008420Y-15376793D01*
X12008420Y-15376793D02*
X12008420Y-15329174D01*
X12008420Y-15329174D02*
X12017943Y-15291079D01*
X12017943Y-15291079D02*
X12027467Y-15272031D01*
X12027467Y-15272031D02*
X12036991Y-15262508D01*
X12036991Y-15262508D02*
X12056039Y-15252984D01*
X12208420Y-15452984D02*
X12208420Y-15319650D01*
X12208420Y-15338698D02*
X12217943Y-15329174D01*
X12217943Y-15329174D02*
X12236991Y-15319650D01*
X12236991Y-15319650D02*
X12265563Y-15319650D01*
X12265563Y-15319650D02*
X12284610Y-15329174D01*
X12284610Y-15329174D02*
X12294134Y-15348222D01*
X12294134Y-15348222D02*
X12294134Y-15452984D01*
X12294134Y-15348222D02*
X12303658Y-15329174D01*
X12303658Y-15329174D02*
X12322705Y-15319650D01*
X12322705Y-15319650D02*
X12351277Y-15319650D01*
X12351277Y-15319650D02*
X12370324Y-15329174D01*
X12370324Y-15329174D02*
X12379848Y-15348222D01*
X12379848Y-15348222D02*
X12379848Y-15452984D01*
X12475086Y-15452984D02*
X12475086Y-15319650D01*
X12475086Y-15338698D02*
X12484610Y-15329174D01*
X12484610Y-15329174D02*
X12503658Y-15319650D01*
X12503658Y-15319650D02*
X12532229Y-15319650D01*
X12532229Y-15319650D02*
X12551277Y-15329174D01*
X12551277Y-15329174D02*
X12560801Y-15348222D01*
X12560801Y-15348222D02*
X12560801Y-15452984D01*
X12560801Y-15348222D02*
X12570324Y-15329174D01*
X12570324Y-15329174D02*
X12589372Y-15319650D01*
X12589372Y-15319650D02*
X12617943Y-15319650D01*
X12617943Y-15319650D02*
X12636991Y-15329174D01*
X12636991Y-15329174D02*
X12646515Y-15348222D01*
X12646515Y-15348222D02*
X12646515Y-15452984D01*
X13036991Y-15243460D02*
X12865563Y-15500603D01*
X13294134Y-15252984D02*
X13313182Y-15252984D01*
X13313182Y-15252984D02*
X13332229Y-15262508D01*
X13332229Y-15262508D02*
X13341753Y-15272031D01*
X13341753Y-15272031D02*
X13351277Y-15291079D01*
X13351277Y-15291079D02*
X13360801Y-15329174D01*
X13360801Y-15329174D02*
X13360801Y-15376793D01*
X13360801Y-15376793D02*
X13351277Y-15414888D01*
X13351277Y-15414888D02*
X13341753Y-15433936D01*
X13341753Y-15433936D02*
X13332229Y-15443460D01*
X13332229Y-15443460D02*
X13313182Y-15452984D01*
X13313182Y-15452984D02*
X13294134Y-15452984D01*
X13294134Y-15452984D02*
X13275086Y-15443460D01*
X13275086Y-15443460D02*
X13265563Y-15433936D01*
X13265563Y-15433936D02*
X13256039Y-15414888D01*
X13256039Y-15414888D02*
X13246515Y-15376793D01*
X13246515Y-15376793D02*
X13246515Y-15329174D01*
X13246515Y-15329174D02*
X13256039Y-15291079D01*
X13256039Y-15291079D02*
X13265563Y-15272031D01*
X13265563Y-15272031D02*
X13275086Y-15262508D01*
X13275086Y-15262508D02*
X13294134Y-15252984D01*
X13446515Y-15433936D02*
X13456039Y-15443460D01*
X13456039Y-15443460D02*
X13446515Y-15452984D01*
X13446515Y-15452984D02*
X13436991Y-15443460D01*
X13436991Y-15443460D02*
X13446515Y-15433936D01*
X13446515Y-15433936D02*
X13446515Y-15452984D01*
X13579848Y-15252984D02*
X13598896Y-15252984D01*
X13598896Y-15252984D02*
X13617944Y-15262508D01*
X13617944Y-15262508D02*
X13627467Y-15272031D01*
X13627467Y-15272031D02*
X13636991Y-15291079D01*
X13636991Y-15291079D02*
X13646515Y-15329174D01*
X13646515Y-15329174D02*
X13646515Y-15376793D01*
X13646515Y-15376793D02*
X13636991Y-15414888D01*
X13636991Y-15414888D02*
X13627467Y-15433936D01*
X13627467Y-15433936D02*
X13617944Y-15443460D01*
X13617944Y-15443460D02*
X13598896Y-15452984D01*
X13598896Y-15452984D02*
X13579848Y-15452984D01*
X13579848Y-15452984D02*
X13560801Y-15443460D01*
X13560801Y-15443460D02*
X13551277Y-15433936D01*
X13551277Y-15433936D02*
X13541753Y-15414888D01*
X13541753Y-15414888D02*
X13532229Y-15376793D01*
X13532229Y-15376793D02*
X13532229Y-15329174D01*
X13532229Y-15329174D02*
X13541753Y-15291079D01*
X13541753Y-15291079D02*
X13551277Y-15272031D01*
X13551277Y-15272031D02*
X13560801Y-15262508D01*
X13560801Y-15262508D02*
X13579848Y-15252984D01*
X13817944Y-15319650D02*
X13817944Y-15452984D01*
X13770325Y-15243460D02*
X13722706Y-15386317D01*
X13722706Y-15386317D02*
X13846515Y-15386317D01*
X14017944Y-15252984D02*
X13922706Y-15252984D01*
X13922706Y-15252984D02*
X13913182Y-15348222D01*
X13913182Y-15348222D02*
X13922706Y-15338698D01*
X13922706Y-15338698D02*
X13941753Y-15329174D01*
X13941753Y-15329174D02*
X13989372Y-15329174D01*
X13989372Y-15329174D02*
X14008420Y-15338698D01*
X14008420Y-15338698D02*
X14017944Y-15348222D01*
X14017944Y-15348222D02*
X14027467Y-15367269D01*
X14027467Y-15367269D02*
X14027467Y-15414888D01*
X14027467Y-15414888D02*
X14017944Y-15433936D01*
X14017944Y-15433936D02*
X14008420Y-15443460D01*
X14008420Y-15443460D02*
X13989372Y-15452984D01*
X13989372Y-15452984D02*
X13941753Y-15452984D01*
X13941753Y-15452984D02*
X13922706Y-15443460D01*
X13922706Y-15443460D02*
X13913182Y-15433936D01*
X14094134Y-15252984D02*
X14217944Y-15252984D01*
X14217944Y-15252984D02*
X14151277Y-15329174D01*
X14151277Y-15329174D02*
X14179848Y-15329174D01*
X14179848Y-15329174D02*
X14198896Y-15338698D01*
X14198896Y-15338698D02*
X14208420Y-15348222D01*
X14208420Y-15348222D02*
X14217944Y-15367269D01*
X14217944Y-15367269D02*
X14217944Y-15414888D01*
X14217944Y-15414888D02*
X14208420Y-15433936D01*
X14208420Y-15433936D02*
X14198896Y-15443460D01*
X14198896Y-15443460D02*
X14179848Y-15452984D01*
X14179848Y-15452984D02*
X14122706Y-15452984D01*
X14122706Y-15452984D02*
X14103658Y-15443460D01*
X14103658Y-15443460D02*
X14094134Y-15433936D01*
X14294134Y-15252984D02*
X14294134Y-15291079D01*
X14370325Y-15252984D02*
X14370325Y-15291079D01*
X14665563Y-15529174D02*
X14656039Y-15519650D01*
X14656039Y-15519650D02*
X14636991Y-15491079D01*
X14636991Y-15491079D02*
X14627468Y-15472031D01*
X14627468Y-15472031D02*
X14617944Y-15443460D01*
X14617944Y-15443460D02*
X14608420Y-15395841D01*
X14608420Y-15395841D02*
X14608420Y-15357746D01*
X14608420Y-15357746D02*
X14617944Y-15310127D01*
X14617944Y-15310127D02*
X14627468Y-15281555D01*
X14627468Y-15281555D02*
X14636991Y-15262508D01*
X14636991Y-15262508D02*
X14656039Y-15233936D01*
X14656039Y-15233936D02*
X14665563Y-15224412D01*
X14827468Y-15319650D02*
X14827468Y-15452984D01*
X14779848Y-15243460D02*
X14732229Y-15386317D01*
X14732229Y-15386317D02*
X14856039Y-15386317D01*
X15084610Y-15452984D02*
X15084610Y-15252984D01*
X15170325Y-15452984D02*
X15170325Y-15348222D01*
X15170325Y-15348222D02*
X15160801Y-15329174D01*
X15160801Y-15329174D02*
X15141753Y-15319650D01*
X15141753Y-15319650D02*
X15113182Y-15319650D01*
X15113182Y-15319650D02*
X15094134Y-15329174D01*
X15094134Y-15329174D02*
X15084610Y-15338698D01*
X15294134Y-15452984D02*
X15275087Y-15443460D01*
X15275087Y-15443460D02*
X15265563Y-15433936D01*
X15265563Y-15433936D02*
X15256039Y-15414888D01*
X15256039Y-15414888D02*
X15256039Y-15357746D01*
X15256039Y-15357746D02*
X15265563Y-15338698D01*
X15265563Y-15338698D02*
X15275087Y-15329174D01*
X15275087Y-15329174D02*
X15294134Y-15319650D01*
X15294134Y-15319650D02*
X15322706Y-15319650D01*
X15322706Y-15319650D02*
X15341753Y-15329174D01*
X15341753Y-15329174D02*
X15351277Y-15338698D01*
X15351277Y-15338698D02*
X15360801Y-15357746D01*
X15360801Y-15357746D02*
X15360801Y-15414888D01*
X15360801Y-15414888D02*
X15351277Y-15433936D01*
X15351277Y-15433936D02*
X15341753Y-15443460D01*
X15341753Y-15443460D02*
X15322706Y-15452984D01*
X15322706Y-15452984D02*
X15294134Y-15452984D01*
X15475087Y-15452984D02*
X15456039Y-15443460D01*
X15456039Y-15443460D02*
X15446515Y-15424412D01*
X15446515Y-15424412D02*
X15446515Y-15252984D01*
X15627468Y-15443460D02*
X15608420Y-15452984D01*
X15608420Y-15452984D02*
X15570325Y-15452984D01*
X15570325Y-15452984D02*
X15551277Y-15443460D01*
X15551277Y-15443460D02*
X15541753Y-15424412D01*
X15541753Y-15424412D02*
X15541753Y-15348222D01*
X15541753Y-15348222D02*
X15551277Y-15329174D01*
X15551277Y-15329174D02*
X15570325Y-15319650D01*
X15570325Y-15319650D02*
X15608420Y-15319650D01*
X15608420Y-15319650D02*
X15627468Y-15329174D01*
X15627468Y-15329174D02*
X15636991Y-15348222D01*
X15636991Y-15348222D02*
X15636991Y-15367269D01*
X15636991Y-15367269D02*
X15541753Y-15386317D01*
X15713182Y-15443460D02*
X15732230Y-15452984D01*
X15732230Y-15452984D02*
X15770325Y-15452984D01*
X15770325Y-15452984D02*
X15789372Y-15443460D01*
X15789372Y-15443460D02*
X15798896Y-15424412D01*
X15798896Y-15424412D02*
X15798896Y-15414888D01*
X15798896Y-15414888D02*
X15789372Y-15395841D01*
X15789372Y-15395841D02*
X15770325Y-15386317D01*
X15770325Y-15386317D02*
X15741753Y-15386317D01*
X15741753Y-15386317D02*
X15722706Y-15376793D01*
X15722706Y-15376793D02*
X15713182Y-15357746D01*
X15713182Y-15357746D02*
X15713182Y-15348222D01*
X15713182Y-15348222D02*
X15722706Y-15329174D01*
X15722706Y-15329174D02*
X15741753Y-15319650D01*
X15741753Y-15319650D02*
X15770325Y-15319650D01*
X15770325Y-15319650D02*
X15789372Y-15329174D01*
X15865563Y-15529174D02*
X15875087Y-15519650D01*
X15875087Y-15519650D02*
X15894134Y-15491079D01*
X15894134Y-15491079D02*
X15903658Y-15472031D01*
X15903658Y-15472031D02*
X15913182Y-15443460D01*
X15913182Y-15443460D02*
X15922706Y-15395841D01*
X15922706Y-15395841D02*
X15922706Y-15357746D01*
X15922706Y-15357746D02*
X15913182Y-15310127D01*
X15913182Y-15310127D02*
X15903658Y-15281555D01*
X15903658Y-15281555D02*
X15894134Y-15262508D01*
X15894134Y-15262508D02*
X15875087Y-15233936D01*
X15875087Y-15233936D02*
X15865563Y-15224412D01*
D14*
X10930500Y-15545500D02*
X11090500Y-15705500D01*
X11090500Y-15545500D02*
X10930500Y-15705500D01*
X11010500Y-15545500D02*
X11010500Y-15705500D01*
X10930500Y-15625500D02*
X11090500Y-15625500D01*
D11*
X11456039Y-15716984D02*
X11341753Y-15716984D01*
X11398896Y-15716984D02*
X11398896Y-15516984D01*
X11398896Y-15516984D02*
X11379848Y-15545555D01*
X11379848Y-15545555D02*
X11360801Y-15564603D01*
X11360801Y-15564603D02*
X11341753Y-15574127D01*
X11541753Y-15697936D02*
X11551277Y-15707460D01*
X11551277Y-15707460D02*
X11541753Y-15716984D01*
X11541753Y-15716984D02*
X11532229Y-15707460D01*
X11532229Y-15707460D02*
X11541753Y-15697936D01*
X11541753Y-15697936D02*
X11541753Y-15716984D01*
X11722705Y-15516984D02*
X11684610Y-15516984D01*
X11684610Y-15516984D02*
X11665562Y-15526508D01*
X11665562Y-15526508D02*
X11656039Y-15536031D01*
X11656039Y-15536031D02*
X11636991Y-15564603D01*
X11636991Y-15564603D02*
X11627467Y-15602698D01*
X11627467Y-15602698D02*
X11627467Y-15678888D01*
X11627467Y-15678888D02*
X11636991Y-15697936D01*
X11636991Y-15697936D02*
X11646515Y-15707460D01*
X11646515Y-15707460D02*
X11665562Y-15716984D01*
X11665562Y-15716984D02*
X11703658Y-15716984D01*
X11703658Y-15716984D02*
X11722705Y-15707460D01*
X11722705Y-15707460D02*
X11732229Y-15697936D01*
X11732229Y-15697936D02*
X11741753Y-15678888D01*
X11741753Y-15678888D02*
X11741753Y-15631269D01*
X11741753Y-15631269D02*
X11732229Y-15612222D01*
X11732229Y-15612222D02*
X11722705Y-15602698D01*
X11722705Y-15602698D02*
X11703658Y-15593174D01*
X11703658Y-15593174D02*
X11665562Y-15593174D01*
X11665562Y-15593174D02*
X11646515Y-15602698D01*
X11646515Y-15602698D02*
X11636991Y-15612222D01*
X11636991Y-15612222D02*
X11627467Y-15631269D01*
X11865562Y-15516984D02*
X11884610Y-15516984D01*
X11884610Y-15516984D02*
X11903658Y-15526508D01*
X11903658Y-15526508D02*
X11913182Y-15536031D01*
X11913182Y-15536031D02*
X11922705Y-15555079D01*
X11922705Y-15555079D02*
X11932229Y-15593174D01*
X11932229Y-15593174D02*
X11932229Y-15640793D01*
X11932229Y-15640793D02*
X11922705Y-15678888D01*
X11922705Y-15678888D02*
X11913182Y-15697936D01*
X11913182Y-15697936D02*
X11903658Y-15707460D01*
X11903658Y-15707460D02*
X11884610Y-15716984D01*
X11884610Y-15716984D02*
X11865562Y-15716984D01*
X11865562Y-15716984D02*
X11846515Y-15707460D01*
X11846515Y-15707460D02*
X11836991Y-15697936D01*
X11836991Y-15697936D02*
X11827467Y-15678888D01*
X11827467Y-15678888D02*
X11817943Y-15640793D01*
X11817943Y-15640793D02*
X11817943Y-15593174D01*
X11817943Y-15593174D02*
X11827467Y-15555079D01*
X11827467Y-15555079D02*
X11836991Y-15536031D01*
X11836991Y-15536031D02*
X11846515Y-15526508D01*
X11846515Y-15526508D02*
X11865562Y-15516984D01*
X12056039Y-15516984D02*
X12075086Y-15516984D01*
X12075086Y-15516984D02*
X12094134Y-15526508D01*
X12094134Y-15526508D02*
X12103658Y-15536031D01*
X12103658Y-15536031D02*
X12113182Y-15555079D01*
X12113182Y-15555079D02*
X12122705Y-15593174D01*
X12122705Y-15593174D02*
X12122705Y-15640793D01*
X12122705Y-15640793D02*
X12113182Y-15678888D01*
X12113182Y-15678888D02*
X12103658Y-15697936D01*
X12103658Y-15697936D02*
X12094134Y-15707460D01*
X12094134Y-15707460D02*
X12075086Y-15716984D01*
X12075086Y-15716984D02*
X12056039Y-15716984D01*
X12056039Y-15716984D02*
X12036991Y-15707460D01*
X12036991Y-15707460D02*
X12027467Y-15697936D01*
X12027467Y-15697936D02*
X12017943Y-15678888D01*
X12017943Y-15678888D02*
X12008420Y-15640793D01*
X12008420Y-15640793D02*
X12008420Y-15593174D01*
X12008420Y-15593174D02*
X12017943Y-15555079D01*
X12017943Y-15555079D02*
X12027467Y-15536031D01*
X12027467Y-15536031D02*
X12036991Y-15526508D01*
X12036991Y-15526508D02*
X12056039Y-15516984D01*
X12208420Y-15716984D02*
X12208420Y-15583650D01*
X12208420Y-15602698D02*
X12217943Y-15593174D01*
X12217943Y-15593174D02*
X12236991Y-15583650D01*
X12236991Y-15583650D02*
X12265563Y-15583650D01*
X12265563Y-15583650D02*
X12284610Y-15593174D01*
X12284610Y-15593174D02*
X12294134Y-15612222D01*
X12294134Y-15612222D02*
X12294134Y-15716984D01*
X12294134Y-15612222D02*
X12303658Y-15593174D01*
X12303658Y-15593174D02*
X12322705Y-15583650D01*
X12322705Y-15583650D02*
X12351277Y-15583650D01*
X12351277Y-15583650D02*
X12370324Y-15593174D01*
X12370324Y-15593174D02*
X12379848Y-15612222D01*
X12379848Y-15612222D02*
X12379848Y-15716984D01*
X12475086Y-15716984D02*
X12475086Y-15583650D01*
X12475086Y-15602698D02*
X12484610Y-15593174D01*
X12484610Y-15593174D02*
X12503658Y-15583650D01*
X12503658Y-15583650D02*
X12532229Y-15583650D01*
X12532229Y-15583650D02*
X12551277Y-15593174D01*
X12551277Y-15593174D02*
X12560801Y-15612222D01*
X12560801Y-15612222D02*
X12560801Y-15716984D01*
X12560801Y-15612222D02*
X12570324Y-15593174D01*
X12570324Y-15593174D02*
X12589372Y-15583650D01*
X12589372Y-15583650D02*
X12617943Y-15583650D01*
X12617943Y-15583650D02*
X12636991Y-15593174D01*
X12636991Y-15593174D02*
X12646515Y-15612222D01*
X12646515Y-15612222D02*
X12646515Y-15716984D01*
X13036991Y-15507460D02*
X12865563Y-15764603D01*
X13294134Y-15516984D02*
X13313182Y-15516984D01*
X13313182Y-15516984D02*
X13332229Y-15526508D01*
X13332229Y-15526508D02*
X13341753Y-15536031D01*
X13341753Y-15536031D02*
X13351277Y-15555079D01*
X13351277Y-15555079D02*
X13360801Y-15593174D01*
X13360801Y-15593174D02*
X13360801Y-15640793D01*
X13360801Y-15640793D02*
X13351277Y-15678888D01*
X13351277Y-15678888D02*
X13341753Y-15697936D01*
X13341753Y-15697936D02*
X13332229Y-15707460D01*
X13332229Y-15707460D02*
X13313182Y-15716984D01*
X13313182Y-15716984D02*
X13294134Y-15716984D01*
X13294134Y-15716984D02*
X13275086Y-15707460D01*
X13275086Y-15707460D02*
X13265563Y-15697936D01*
X13265563Y-15697936D02*
X13256039Y-15678888D01*
X13256039Y-15678888D02*
X13246515Y-15640793D01*
X13246515Y-15640793D02*
X13246515Y-15593174D01*
X13246515Y-15593174D02*
X13256039Y-15555079D01*
X13256039Y-15555079D02*
X13265563Y-15536031D01*
X13265563Y-15536031D02*
X13275086Y-15526508D01*
X13275086Y-15526508D02*
X13294134Y-15516984D01*
X13446515Y-15697936D02*
X13456039Y-15707460D01*
X13456039Y-15707460D02*
X13446515Y-15716984D01*
X13446515Y-15716984D02*
X13436991Y-15707460D01*
X13436991Y-15707460D02*
X13446515Y-15697936D01*
X13446515Y-15697936D02*
X13446515Y-15716984D01*
X13579848Y-15516984D02*
X13598896Y-15516984D01*
X13598896Y-15516984D02*
X13617944Y-15526508D01*
X13617944Y-15526508D02*
X13627467Y-15536031D01*
X13627467Y-15536031D02*
X13636991Y-15555079D01*
X13636991Y-15555079D02*
X13646515Y-15593174D01*
X13646515Y-15593174D02*
X13646515Y-15640793D01*
X13646515Y-15640793D02*
X13636991Y-15678888D01*
X13636991Y-15678888D02*
X13627467Y-15697936D01*
X13627467Y-15697936D02*
X13617944Y-15707460D01*
X13617944Y-15707460D02*
X13598896Y-15716984D01*
X13598896Y-15716984D02*
X13579848Y-15716984D01*
X13579848Y-15716984D02*
X13560801Y-15707460D01*
X13560801Y-15707460D02*
X13551277Y-15697936D01*
X13551277Y-15697936D02*
X13541753Y-15678888D01*
X13541753Y-15678888D02*
X13532229Y-15640793D01*
X13532229Y-15640793D02*
X13532229Y-15593174D01*
X13532229Y-15593174D02*
X13541753Y-15555079D01*
X13541753Y-15555079D02*
X13551277Y-15536031D01*
X13551277Y-15536031D02*
X13560801Y-15526508D01*
X13560801Y-15526508D02*
X13579848Y-15516984D01*
X13817944Y-15516984D02*
X13779848Y-15516984D01*
X13779848Y-15516984D02*
X13760801Y-15526508D01*
X13760801Y-15526508D02*
X13751277Y-15536031D01*
X13751277Y-15536031D02*
X13732229Y-15564603D01*
X13732229Y-15564603D02*
X13722706Y-15602698D01*
X13722706Y-15602698D02*
X13722706Y-15678888D01*
X13722706Y-15678888D02*
X13732229Y-15697936D01*
X13732229Y-15697936D02*
X13741753Y-15707460D01*
X13741753Y-15707460D02*
X13760801Y-15716984D01*
X13760801Y-15716984D02*
X13798896Y-15716984D01*
X13798896Y-15716984D02*
X13817944Y-15707460D01*
X13817944Y-15707460D02*
X13827467Y-15697936D01*
X13827467Y-15697936D02*
X13836991Y-15678888D01*
X13836991Y-15678888D02*
X13836991Y-15631269D01*
X13836991Y-15631269D02*
X13827467Y-15612222D01*
X13827467Y-15612222D02*
X13817944Y-15602698D01*
X13817944Y-15602698D02*
X13798896Y-15593174D01*
X13798896Y-15593174D02*
X13760801Y-15593174D01*
X13760801Y-15593174D02*
X13741753Y-15602698D01*
X13741753Y-15602698D02*
X13732229Y-15612222D01*
X13732229Y-15612222D02*
X13722706Y-15631269D01*
X13903658Y-15516984D02*
X14027467Y-15516984D01*
X14027467Y-15516984D02*
X13960801Y-15593174D01*
X13960801Y-15593174D02*
X13989372Y-15593174D01*
X13989372Y-15593174D02*
X14008420Y-15602698D01*
X14008420Y-15602698D02*
X14017944Y-15612222D01*
X14017944Y-15612222D02*
X14027467Y-15631269D01*
X14027467Y-15631269D02*
X14027467Y-15678888D01*
X14027467Y-15678888D02*
X14017944Y-15697936D01*
X14017944Y-15697936D02*
X14008420Y-15707460D01*
X14008420Y-15707460D02*
X13989372Y-15716984D01*
X13989372Y-15716984D02*
X13932229Y-15716984D01*
X13932229Y-15716984D02*
X13913182Y-15707460D01*
X13913182Y-15707460D02*
X13903658Y-15697936D01*
X14151277Y-15516984D02*
X14170325Y-15516984D01*
X14170325Y-15516984D02*
X14189372Y-15526508D01*
X14189372Y-15526508D02*
X14198896Y-15536031D01*
X14198896Y-15536031D02*
X14208420Y-15555079D01*
X14208420Y-15555079D02*
X14217944Y-15593174D01*
X14217944Y-15593174D02*
X14217944Y-15640793D01*
X14217944Y-15640793D02*
X14208420Y-15678888D01*
X14208420Y-15678888D02*
X14198896Y-15697936D01*
X14198896Y-15697936D02*
X14189372Y-15707460D01*
X14189372Y-15707460D02*
X14170325Y-15716984D01*
X14170325Y-15716984D02*
X14151277Y-15716984D01*
X14151277Y-15716984D02*
X14132229Y-15707460D01*
X14132229Y-15707460D02*
X14122706Y-15697936D01*
X14122706Y-15697936D02*
X14113182Y-15678888D01*
X14113182Y-15678888D02*
X14103658Y-15640793D01*
X14103658Y-15640793D02*
X14103658Y-15593174D01*
X14103658Y-15593174D02*
X14113182Y-15555079D01*
X14113182Y-15555079D02*
X14122706Y-15536031D01*
X14122706Y-15536031D02*
X14132229Y-15526508D01*
X14132229Y-15526508D02*
X14151277Y-15516984D01*
X14294134Y-15516984D02*
X14294134Y-15555079D01*
X14370325Y-15516984D02*
X14370325Y-15555079D01*
X14665563Y-15793174D02*
X14656039Y-15783650D01*
X14656039Y-15783650D02*
X14636991Y-15755079D01*
X14636991Y-15755079D02*
X14627468Y-15736031D01*
X14627468Y-15736031D02*
X14617944Y-15707460D01*
X14617944Y-15707460D02*
X14608420Y-15659841D01*
X14608420Y-15659841D02*
X14608420Y-15621746D01*
X14608420Y-15621746D02*
X14617944Y-15574127D01*
X14617944Y-15574127D02*
X14627468Y-15545555D01*
X14627468Y-15545555D02*
X14636991Y-15526508D01*
X14636991Y-15526508D02*
X14656039Y-15497936D01*
X14656039Y-15497936D02*
X14665563Y-15488412D01*
X14770325Y-15602698D02*
X14751277Y-15593174D01*
X14751277Y-15593174D02*
X14741753Y-15583650D01*
X14741753Y-15583650D02*
X14732229Y-15564603D01*
X14732229Y-15564603D02*
X14732229Y-15555079D01*
X14732229Y-15555079D02*
X14741753Y-15536031D01*
X14741753Y-15536031D02*
X14751277Y-15526508D01*
X14751277Y-15526508D02*
X14770325Y-15516984D01*
X14770325Y-15516984D02*
X14808420Y-15516984D01*
X14808420Y-15516984D02*
X14827468Y-15526508D01*
X14827468Y-15526508D02*
X14836991Y-15536031D01*
X14836991Y-15536031D02*
X14846515Y-15555079D01*
X14846515Y-15555079D02*
X14846515Y-15564603D01*
X14846515Y-15564603D02*
X14836991Y-15583650D01*
X14836991Y-15583650D02*
X14827468Y-15593174D01*
X14827468Y-15593174D02*
X14808420Y-15602698D01*
X14808420Y-15602698D02*
X14770325Y-15602698D01*
X14770325Y-15602698D02*
X14751277Y-15612222D01*
X14751277Y-15612222D02*
X14741753Y-15621746D01*
X14741753Y-15621746D02*
X14732229Y-15640793D01*
X14732229Y-15640793D02*
X14732229Y-15678888D01*
X14732229Y-15678888D02*
X14741753Y-15697936D01*
X14741753Y-15697936D02*
X14751277Y-15707460D01*
X14751277Y-15707460D02*
X14770325Y-15716984D01*
X14770325Y-15716984D02*
X14808420Y-15716984D01*
X14808420Y-15716984D02*
X14827468Y-15707460D01*
X14827468Y-15707460D02*
X14836991Y-15697936D01*
X14836991Y-15697936D02*
X14846515Y-15678888D01*
X14846515Y-15678888D02*
X14846515Y-15640793D01*
X14846515Y-15640793D02*
X14836991Y-15621746D01*
X14836991Y-15621746D02*
X14827468Y-15612222D01*
X14827468Y-15612222D02*
X14808420Y-15602698D01*
X15084610Y-15716984D02*
X15084610Y-15516984D01*
X15170325Y-15716984D02*
X15170325Y-15612222D01*
X15170325Y-15612222D02*
X15160801Y-15593174D01*
X15160801Y-15593174D02*
X15141753Y-15583650D01*
X15141753Y-15583650D02*
X15113182Y-15583650D01*
X15113182Y-15583650D02*
X15094134Y-15593174D01*
X15094134Y-15593174D02*
X15084610Y-15602698D01*
X15294134Y-15716984D02*
X15275087Y-15707460D01*
X15275087Y-15707460D02*
X15265563Y-15697936D01*
X15265563Y-15697936D02*
X15256039Y-15678888D01*
X15256039Y-15678888D02*
X15256039Y-15621746D01*
X15256039Y-15621746D02*
X15265563Y-15602698D01*
X15265563Y-15602698D02*
X15275087Y-15593174D01*
X15275087Y-15593174D02*
X15294134Y-15583650D01*
X15294134Y-15583650D02*
X15322706Y-15583650D01*
X15322706Y-15583650D02*
X15341753Y-15593174D01*
X15341753Y-15593174D02*
X15351277Y-15602698D01*
X15351277Y-15602698D02*
X15360801Y-15621746D01*
X15360801Y-15621746D02*
X15360801Y-15678888D01*
X15360801Y-15678888D02*
X15351277Y-15697936D01*
X15351277Y-15697936D02*
X15341753Y-15707460D01*
X15341753Y-15707460D02*
X15322706Y-15716984D01*
X15322706Y-15716984D02*
X15294134Y-15716984D01*
X15475087Y-15716984D02*
X15456039Y-15707460D01*
X15456039Y-15707460D02*
X15446515Y-15688412D01*
X15446515Y-15688412D02*
X15446515Y-15516984D01*
X15627468Y-15707460D02*
X15608420Y-15716984D01*
X15608420Y-15716984D02*
X15570325Y-15716984D01*
X15570325Y-15716984D02*
X15551277Y-15707460D01*
X15551277Y-15707460D02*
X15541753Y-15688412D01*
X15541753Y-15688412D02*
X15541753Y-15612222D01*
X15541753Y-15612222D02*
X15551277Y-15593174D01*
X15551277Y-15593174D02*
X15570325Y-15583650D01*
X15570325Y-15583650D02*
X15608420Y-15583650D01*
X15608420Y-15583650D02*
X15627468Y-15593174D01*
X15627468Y-15593174D02*
X15636991Y-15612222D01*
X15636991Y-15612222D02*
X15636991Y-15631269D01*
X15636991Y-15631269D02*
X15541753Y-15650317D01*
X15713182Y-15707460D02*
X15732230Y-15716984D01*
X15732230Y-15716984D02*
X15770325Y-15716984D01*
X15770325Y-15716984D02*
X15789372Y-15707460D01*
X15789372Y-15707460D02*
X15798896Y-15688412D01*
X15798896Y-15688412D02*
X15798896Y-15678888D01*
X15798896Y-15678888D02*
X15789372Y-15659841D01*
X15789372Y-15659841D02*
X15770325Y-15650317D01*
X15770325Y-15650317D02*
X15741753Y-15650317D01*
X15741753Y-15650317D02*
X15722706Y-15640793D01*
X15722706Y-15640793D02*
X15713182Y-15621746D01*
X15713182Y-15621746D02*
X15713182Y-15612222D01*
X15713182Y-15612222D02*
X15722706Y-15593174D01*
X15722706Y-15593174D02*
X15741753Y-15583650D01*
X15741753Y-15583650D02*
X15770325Y-15583650D01*
X15770325Y-15583650D02*
X15789372Y-15593174D01*
X15865563Y-15793174D02*
X15875087Y-15783650D01*
X15875087Y-15783650D02*
X15894134Y-15755079D01*
X15894134Y-15755079D02*
X15903658Y-15736031D01*
X15903658Y-15736031D02*
X15913182Y-15707460D01*
X15913182Y-15707460D02*
X15922706Y-15659841D01*
X15922706Y-15659841D02*
X15922706Y-15621746D01*
X15922706Y-15621746D02*
X15913182Y-15574127D01*
X15913182Y-15574127D02*
X15903658Y-15545555D01*
X15903658Y-15545555D02*
X15894134Y-15526508D01*
X15894134Y-15526508D02*
X15875087Y-15497936D01*
X15875087Y-15497936D02*
X15865563Y-15488412D01*
M02*
