G04 #@! TF.GenerationSoftware,KiCad,Pcbnew,8.0.0*
G04 #@! TF.CreationDate,2024-12-09T13:49:38-06:00*
G04 #@! TF.ProjectId,LightControlBoard,4c696768-7443-46f6-9e74-726f6c426f61,rev?*
G04 #@! TF.SameCoordinates,Original*
G04 #@! TF.FileFunction,Soldermask,Top*
G04 #@! TF.FilePolarity,Negative*
%FSLAX46Y46*%
G04 Gerber Fmt 4.6, Leading zero omitted, Abs format (unit mm)*
G04 Created by KiCad (PCBNEW 8.0.0) date 2024-12-09 13:49:38*
%MOMM*%
%LPD*%
G01*
G04 APERTURE LIST*
G04 Aperture macros list*
%AMRoundRect*
0 Rectangle with rounded corners*
0 $1 Rounding radius*
0 $2 $3 $4 $5 $6 $7 $8 $9 X,Y pos of 4 corners*
0 Add a 4 corners polygon primitive as box body*
4,1,4,$2,$3,$4,$5,$6,$7,$8,$9,$2,$3,0*
0 Add four circle primitives for the rounded corners*
1,1,$1+$1,$2,$3*
1,1,$1+$1,$4,$5*
1,1,$1+$1,$6,$7*
1,1,$1+$1,$8,$9*
0 Add four rect primitives between the rounded corners*
20,1,$1+$1,$2,$3,$4,$5,0*
20,1,$1+$1,$4,$5,$6,$7,0*
20,1,$1+$1,$6,$7,$8,$9,0*
20,1,$1+$1,$8,$9,$2,$3,0*%
G04 Aperture macros list end*
%ADD10C,3.200000*%
%ADD11R,1.800000X1.800000*%
%ADD12C,1.800000*%
%ADD13C,3.000000*%
%ADD14C,1.500000*%
%ADD15R,1.500000X1.500000*%
%ADD16C,3.250000*%
%ADD17C,1.600000*%
%ADD18RoundRect,0.250000X-0.625000X0.312500X-0.625000X-0.312500X0.625000X-0.312500X0.625000X0.312500X0*%
%ADD19RoundRect,0.250000X0.625000X-0.312500X0.625000X0.312500X-0.625000X0.312500X-0.625000X-0.312500X0*%
%ADD20C,1.265000*%
%ADD21R,0.609600X1.549400*%
%ADD22R,1.104900X0.508000*%
%ADD23R,3.000000X1.500000*%
%ADD24O,3.000000X1.500000*%
G04 APERTURE END LIST*
D10*
X115930000Y-129940000D03*
D11*
X134930000Y-112080000D03*
D12*
X134930000Y-109540000D03*
D10*
X156600000Y-129940000D03*
X136430000Y-37940000D03*
D13*
X116580000Y-111645000D03*
X116580000Y-96105000D03*
D14*
X128520000Y-108320000D03*
X125980000Y-107050000D03*
X128520000Y-105780000D03*
X125980000Y-104510000D03*
X128520000Y-103240000D03*
X125980000Y-101970000D03*
X128520000Y-100700000D03*
D15*
X125980000Y-99430000D03*
D16*
X119630000Y-109590000D03*
X119630000Y-98160000D03*
D17*
X134755000Y-104255000D03*
X137755000Y-104255000D03*
D18*
X144780000Y-61710000D03*
X144780000Y-64635000D03*
X116090000Y-56855000D03*
X116090000Y-59780000D03*
X116060000Y-61810000D03*
X116060000Y-64735000D03*
X126570000Y-63070000D03*
X126570000Y-65995000D03*
D16*
X127085000Y-41600000D03*
X115655000Y-41600000D03*
D15*
X125815000Y-47950000D03*
D14*
X124545000Y-50490000D03*
X123275000Y-47950000D03*
X122005000Y-50490000D03*
X120735000Y-47950000D03*
X119465000Y-50490000D03*
X118195000Y-47950000D03*
X116925000Y-50490000D03*
D13*
X129140000Y-38550000D03*
X113600000Y-38550000D03*
D19*
X138655000Y-112460000D03*
X138655000Y-109535000D03*
D11*
X151430000Y-117225000D03*
D12*
X151430000Y-119765000D03*
X151430000Y-122305000D03*
D16*
X156775000Y-41645000D03*
X145345000Y-41645000D03*
D15*
X155505000Y-47995000D03*
D14*
X154235000Y-50535000D03*
X152965000Y-47995000D03*
X151695000Y-50535000D03*
X150425000Y-47995000D03*
X149155000Y-50535000D03*
X147885000Y-47995000D03*
X146615000Y-50535000D03*
D13*
X158830000Y-38595000D03*
X143290000Y-38595000D03*
D20*
X153410000Y-73040000D03*
X150870000Y-73040000D03*
X148330000Y-73040000D03*
X145790000Y-73040000D03*
X143250000Y-73040000D03*
X140710000Y-73040000D03*
X138170000Y-73040000D03*
X135630000Y-73040000D03*
X133090000Y-73040000D03*
X130550000Y-73040000D03*
X128010000Y-73040000D03*
X125470000Y-73040000D03*
X122930000Y-73040000D03*
X120390000Y-73040000D03*
X120390000Y-75580000D03*
X120390000Y-78120000D03*
X120390000Y-80660000D03*
X120390000Y-83200000D03*
X120390000Y-85740000D03*
X120390000Y-88280000D03*
X122930000Y-88280000D03*
X125470000Y-88280000D03*
X128010000Y-88280000D03*
X130550000Y-88280000D03*
X133090000Y-88280000D03*
X135630000Y-88280000D03*
X138170000Y-88280000D03*
X140710000Y-88280000D03*
X143250000Y-88280000D03*
X145790000Y-88280000D03*
X148330000Y-88280000D03*
X150870000Y-88280000D03*
X153410000Y-88280000D03*
D21*
X138060000Y-99505000D03*
X136790000Y-99505000D03*
X135520000Y-99505000D03*
X134250000Y-99505000D03*
X134250000Y-94105000D03*
X135520000Y-94105000D03*
X136790000Y-94105000D03*
X138060000Y-94105000D03*
D22*
X153110000Y-65574262D03*
X153110000Y-64304262D03*
X153110000Y-63034262D03*
X153110000Y-61764262D03*
X153110000Y-60494262D03*
X153110000Y-59224262D03*
X153110000Y-57954262D03*
X153110000Y-56684262D03*
X148030000Y-56684262D03*
X148030000Y-57954262D03*
X148030000Y-59224262D03*
X148030000Y-60494262D03*
X148030000Y-61764262D03*
X148030000Y-63034262D03*
X148030000Y-64304262D03*
X148030000Y-65574262D03*
D18*
X156170000Y-57605000D03*
X156170000Y-60530000D03*
X126570000Y-57565000D03*
X126570000Y-60490000D03*
D23*
X116280000Y-122280000D03*
X124480000Y-122280000D03*
D24*
X116280000Y-117280000D03*
X124480000Y-117280000D03*
D18*
X145010000Y-56185000D03*
X145010000Y-59110000D03*
X156190000Y-62940000D03*
X156190000Y-65865000D03*
D16*
X152770000Y-109540000D03*
X152770000Y-98110000D03*
D15*
X146420000Y-108270000D03*
D14*
X143880000Y-107000000D03*
X146420000Y-105730000D03*
X143880000Y-104460000D03*
X146420000Y-103190000D03*
X143880000Y-101920000D03*
X146420000Y-100650000D03*
X143880000Y-99380000D03*
D13*
X155820000Y-111595000D03*
X155820000Y-96055000D03*
D22*
X123920000Y-65574262D03*
X123920000Y-64304262D03*
X123920000Y-63034262D03*
X123920000Y-61764262D03*
X123920000Y-60494262D03*
X123920000Y-59224262D03*
X123920000Y-57954262D03*
X123920000Y-56684262D03*
X118840000Y-56684262D03*
X118840000Y-57954262D03*
X118840000Y-59224262D03*
X118840000Y-60494262D03*
X118840000Y-61764262D03*
X118840000Y-63034262D03*
X118840000Y-64304262D03*
X118840000Y-65574262D03*
M02*
