%TF.GenerationSoftware,KiCad,Pcbnew,8.0.0*%
%TF.CreationDate,2024-12-09T13:49:47-06:00*%
%TF.ProjectId,LightControlBoard,4c696768-7443-46f6-9e74-726f6c426f61,rev?*%
%TF.SameCoordinates,Original*%
%TF.FileFunction,Drillmap*%
%TF.FilePolarity,Positive*%
%FSLAX45Y45*%
G04 Gerber Fmt 4.5, Leading zero omitted, Abs format (unit mm)*
G04 Created by KiCad (PCBNEW 8.0.0) date 2024-12-09 13:49:47*
%MOMM*%
%LPD*%
G01*
G04 APERTURE LIST*
%ADD10C,0.050000*%
%ADD11C,0.200000*%
%ADD12C,0.320000*%
%ADD13C,0.325000*%
G04 APERTURE END LIST*
D10*
X11093000Y-3288500D02*
X16160000Y-3288500D01*
X16160000Y-13399000D01*
X11093000Y-13399000D01*
X11093000Y-3288500D01*
D11*
D12*
X11433000Y-12834000D02*
X11753000Y-13154000D01*
X11753000Y-12834000D02*
X11433000Y-13154000D01*
X13483000Y-3634000D02*
X13803000Y-3954000D01*
X13803000Y-3634000D02*
X13483000Y-3954000D01*
X15500000Y-12834000D02*
X15820000Y-13154000D01*
X15820000Y-12834000D02*
X15500000Y-13154000D01*
D13*
X11728000Y-4160000D02*
G75*
G02*
X11403000Y-4160000I-162500J0D01*
G01*
X11403000Y-4160000D02*
G75*
G02*
X11728000Y-4160000I162500J0D01*
G01*
X12125500Y-9816000D02*
G75*
G02*
X11800500Y-9816000I-162500J0D01*
G01*
X11800500Y-9816000D02*
G75*
G02*
X12125500Y-9816000I162500J0D01*
G01*
X12125500Y-10959000D02*
G75*
G02*
X11800500Y-10959000I-162500J0D01*
G01*
X11800500Y-10959000D02*
G75*
G02*
X12125500Y-10959000I162500J0D01*
G01*
X12871000Y-4160000D02*
G75*
G02*
X12546000Y-4160000I-162500J0D01*
G01*
X12546000Y-4160000D02*
G75*
G02*
X12871000Y-4160000I162500J0D01*
G01*
X14697000Y-4164500D02*
G75*
G02*
X14372000Y-4164500I-162500J0D01*
G01*
X14372000Y-4164500D02*
G75*
G02*
X14697000Y-4164500I162500J0D01*
G01*
X15439500Y-9811000D02*
G75*
G02*
X15114500Y-9811000I-162500J0D01*
G01*
X15114500Y-9811000D02*
G75*
G02*
X15439500Y-9811000I162500J0D01*
G01*
X15439500Y-10954000D02*
G75*
G02*
X15114500Y-10954000I-162500J0D01*
G01*
X15114500Y-10954000D02*
G75*
G02*
X15439500Y-10954000I162500J0D01*
G01*
X15840000Y-4164500D02*
G75*
G02*
X15515000Y-4164500I-162500J0D01*
G01*
X15515000Y-4164500D02*
G75*
G02*
X15840000Y-4164500I162500J0D01*
G01*
D11*
X11351277Y-13712984D02*
X11351277Y-13512984D01*
X11351277Y-13512984D02*
X11398896Y-13512984D01*
X11398896Y-13512984D02*
X11427467Y-13522508D01*
X11427467Y-13522508D02*
X11446515Y-13541555D01*
X11446515Y-13541555D02*
X11456039Y-13560603D01*
X11456039Y-13560603D02*
X11465562Y-13598698D01*
X11465562Y-13598698D02*
X11465562Y-13627269D01*
X11465562Y-13627269D02*
X11456039Y-13665365D01*
X11456039Y-13665365D02*
X11446515Y-13684412D01*
X11446515Y-13684412D02*
X11427467Y-13703460D01*
X11427467Y-13703460D02*
X11398896Y-13712984D01*
X11398896Y-13712984D02*
X11351277Y-13712984D01*
X11551277Y-13712984D02*
X11551277Y-13579650D01*
X11551277Y-13617746D02*
X11560801Y-13598698D01*
X11560801Y-13598698D02*
X11570324Y-13589174D01*
X11570324Y-13589174D02*
X11589372Y-13579650D01*
X11589372Y-13579650D02*
X11608420Y-13579650D01*
X11675086Y-13712984D02*
X11675086Y-13579650D01*
X11675086Y-13512984D02*
X11665562Y-13522508D01*
X11665562Y-13522508D02*
X11675086Y-13532031D01*
X11675086Y-13532031D02*
X11684610Y-13522508D01*
X11684610Y-13522508D02*
X11675086Y-13512984D01*
X11675086Y-13512984D02*
X11675086Y-13532031D01*
X11798896Y-13712984D02*
X11779848Y-13703460D01*
X11779848Y-13703460D02*
X11770324Y-13684412D01*
X11770324Y-13684412D02*
X11770324Y-13512984D01*
X11903658Y-13712984D02*
X11884610Y-13703460D01*
X11884610Y-13703460D02*
X11875086Y-13684412D01*
X11875086Y-13684412D02*
X11875086Y-13512984D01*
X12132229Y-13712984D02*
X12132229Y-13512984D01*
X12132229Y-13512984D02*
X12198896Y-13655841D01*
X12198896Y-13655841D02*
X12265562Y-13512984D01*
X12265562Y-13512984D02*
X12265562Y-13712984D01*
X12446515Y-13712984D02*
X12446515Y-13608222D01*
X12446515Y-13608222D02*
X12436991Y-13589174D01*
X12436991Y-13589174D02*
X12417943Y-13579650D01*
X12417943Y-13579650D02*
X12379848Y-13579650D01*
X12379848Y-13579650D02*
X12360801Y-13589174D01*
X12446515Y-13703460D02*
X12427467Y-13712984D01*
X12427467Y-13712984D02*
X12379848Y-13712984D01*
X12379848Y-13712984D02*
X12360801Y-13703460D01*
X12360801Y-13703460D02*
X12351277Y-13684412D01*
X12351277Y-13684412D02*
X12351277Y-13665365D01*
X12351277Y-13665365D02*
X12360801Y-13646317D01*
X12360801Y-13646317D02*
X12379848Y-13636793D01*
X12379848Y-13636793D02*
X12427467Y-13636793D01*
X12427467Y-13636793D02*
X12446515Y-13627269D01*
X12541753Y-13579650D02*
X12541753Y-13779650D01*
X12541753Y-13589174D02*
X12560801Y-13579650D01*
X12560801Y-13579650D02*
X12598896Y-13579650D01*
X12598896Y-13579650D02*
X12617943Y-13589174D01*
X12617943Y-13589174D02*
X12627467Y-13598698D01*
X12627467Y-13598698D02*
X12636991Y-13617746D01*
X12636991Y-13617746D02*
X12636991Y-13674888D01*
X12636991Y-13674888D02*
X12627467Y-13693936D01*
X12627467Y-13693936D02*
X12617943Y-13703460D01*
X12617943Y-13703460D02*
X12598896Y-13712984D01*
X12598896Y-13712984D02*
X12560801Y-13712984D01*
X12560801Y-13712984D02*
X12541753Y-13703460D01*
X12722705Y-13693936D02*
X12732229Y-13703460D01*
X12732229Y-13703460D02*
X12722705Y-13712984D01*
X12722705Y-13712984D02*
X12713182Y-13703460D01*
X12713182Y-13703460D02*
X12722705Y-13693936D01*
X12722705Y-13693936D02*
X12722705Y-13712984D01*
X12722705Y-13589174D02*
X12732229Y-13598698D01*
X12732229Y-13598698D02*
X12722705Y-13608222D01*
X12722705Y-13608222D02*
X12713182Y-13598698D01*
X12713182Y-13598698D02*
X12722705Y-13589174D01*
X12722705Y-13589174D02*
X12722705Y-13608222D01*
X10890500Y-13941500D02*
X11090500Y-14141500D01*
X11090500Y-13941500D02*
X10890500Y-14141500D01*
X11332229Y-13932984D02*
X11456039Y-13932984D01*
X11456039Y-13932984D02*
X11389372Y-14009174D01*
X11389372Y-14009174D02*
X11417943Y-14009174D01*
X11417943Y-14009174D02*
X11436991Y-14018698D01*
X11436991Y-14018698D02*
X11446515Y-14028222D01*
X11446515Y-14028222D02*
X11456039Y-14047269D01*
X11456039Y-14047269D02*
X11456039Y-14094888D01*
X11456039Y-14094888D02*
X11446515Y-14113936D01*
X11446515Y-14113936D02*
X11436991Y-14123460D01*
X11436991Y-14123460D02*
X11417943Y-14132984D01*
X11417943Y-14132984D02*
X11360801Y-14132984D01*
X11360801Y-14132984D02*
X11341753Y-14123460D01*
X11341753Y-14123460D02*
X11332229Y-14113936D01*
X11541753Y-14113936D02*
X11551277Y-14123460D01*
X11551277Y-14123460D02*
X11541753Y-14132984D01*
X11541753Y-14132984D02*
X11532229Y-14123460D01*
X11532229Y-14123460D02*
X11541753Y-14113936D01*
X11541753Y-14113936D02*
X11541753Y-14132984D01*
X11627467Y-13952031D02*
X11636991Y-13942508D01*
X11636991Y-13942508D02*
X11656039Y-13932984D01*
X11656039Y-13932984D02*
X11703658Y-13932984D01*
X11703658Y-13932984D02*
X11722705Y-13942508D01*
X11722705Y-13942508D02*
X11732229Y-13952031D01*
X11732229Y-13952031D02*
X11741753Y-13971079D01*
X11741753Y-13971079D02*
X11741753Y-13990127D01*
X11741753Y-13990127D02*
X11732229Y-14018698D01*
X11732229Y-14018698D02*
X11617943Y-14132984D01*
X11617943Y-14132984D02*
X11741753Y-14132984D01*
X11865562Y-13932984D02*
X11884610Y-13932984D01*
X11884610Y-13932984D02*
X11903658Y-13942508D01*
X11903658Y-13942508D02*
X11913182Y-13952031D01*
X11913182Y-13952031D02*
X11922705Y-13971079D01*
X11922705Y-13971079D02*
X11932229Y-14009174D01*
X11932229Y-14009174D02*
X11932229Y-14056793D01*
X11932229Y-14056793D02*
X11922705Y-14094888D01*
X11922705Y-14094888D02*
X11913182Y-14113936D01*
X11913182Y-14113936D02*
X11903658Y-14123460D01*
X11903658Y-14123460D02*
X11884610Y-14132984D01*
X11884610Y-14132984D02*
X11865562Y-14132984D01*
X11865562Y-14132984D02*
X11846515Y-14123460D01*
X11846515Y-14123460D02*
X11836991Y-14113936D01*
X11836991Y-14113936D02*
X11827467Y-14094888D01*
X11827467Y-14094888D02*
X11817943Y-14056793D01*
X11817943Y-14056793D02*
X11817943Y-14009174D01*
X11817943Y-14009174D02*
X11827467Y-13971079D01*
X11827467Y-13971079D02*
X11836991Y-13952031D01*
X11836991Y-13952031D02*
X11846515Y-13942508D01*
X11846515Y-13942508D02*
X11865562Y-13932984D01*
X12056039Y-13932984D02*
X12075086Y-13932984D01*
X12075086Y-13932984D02*
X12094134Y-13942508D01*
X12094134Y-13942508D02*
X12103658Y-13952031D01*
X12103658Y-13952031D02*
X12113182Y-13971079D01*
X12113182Y-13971079D02*
X12122705Y-14009174D01*
X12122705Y-14009174D02*
X12122705Y-14056793D01*
X12122705Y-14056793D02*
X12113182Y-14094888D01*
X12113182Y-14094888D02*
X12103658Y-14113936D01*
X12103658Y-14113936D02*
X12094134Y-14123460D01*
X12094134Y-14123460D02*
X12075086Y-14132984D01*
X12075086Y-14132984D02*
X12056039Y-14132984D01*
X12056039Y-14132984D02*
X12036991Y-14123460D01*
X12036991Y-14123460D02*
X12027467Y-14113936D01*
X12027467Y-14113936D02*
X12017943Y-14094888D01*
X12017943Y-14094888D02*
X12008420Y-14056793D01*
X12008420Y-14056793D02*
X12008420Y-14009174D01*
X12008420Y-14009174D02*
X12017943Y-13971079D01*
X12017943Y-13971079D02*
X12027467Y-13952031D01*
X12027467Y-13952031D02*
X12036991Y-13942508D01*
X12036991Y-13942508D02*
X12056039Y-13932984D01*
X12208420Y-14132984D02*
X12208420Y-13999650D01*
X12208420Y-14018698D02*
X12217943Y-14009174D01*
X12217943Y-14009174D02*
X12236991Y-13999650D01*
X12236991Y-13999650D02*
X12265563Y-13999650D01*
X12265563Y-13999650D02*
X12284610Y-14009174D01*
X12284610Y-14009174D02*
X12294134Y-14028222D01*
X12294134Y-14028222D02*
X12294134Y-14132984D01*
X12294134Y-14028222D02*
X12303658Y-14009174D01*
X12303658Y-14009174D02*
X12322705Y-13999650D01*
X12322705Y-13999650D02*
X12351277Y-13999650D01*
X12351277Y-13999650D02*
X12370324Y-14009174D01*
X12370324Y-14009174D02*
X12379848Y-14028222D01*
X12379848Y-14028222D02*
X12379848Y-14132984D01*
X12475086Y-14132984D02*
X12475086Y-13999650D01*
X12475086Y-14018698D02*
X12484610Y-14009174D01*
X12484610Y-14009174D02*
X12503658Y-13999650D01*
X12503658Y-13999650D02*
X12532229Y-13999650D01*
X12532229Y-13999650D02*
X12551277Y-14009174D01*
X12551277Y-14009174D02*
X12560801Y-14028222D01*
X12560801Y-14028222D02*
X12560801Y-14132984D01*
X12560801Y-14028222D02*
X12570324Y-14009174D01*
X12570324Y-14009174D02*
X12589372Y-13999650D01*
X12589372Y-13999650D02*
X12617943Y-13999650D01*
X12617943Y-13999650D02*
X12636991Y-14009174D01*
X12636991Y-14009174D02*
X12646515Y-14028222D01*
X12646515Y-14028222D02*
X12646515Y-14132984D01*
X13036991Y-13923460D02*
X12865563Y-14180603D01*
X13294134Y-13932984D02*
X13313182Y-13932984D01*
X13313182Y-13932984D02*
X13332229Y-13942508D01*
X13332229Y-13942508D02*
X13341753Y-13952031D01*
X13341753Y-13952031D02*
X13351277Y-13971079D01*
X13351277Y-13971079D02*
X13360801Y-14009174D01*
X13360801Y-14009174D02*
X13360801Y-14056793D01*
X13360801Y-14056793D02*
X13351277Y-14094888D01*
X13351277Y-14094888D02*
X13341753Y-14113936D01*
X13341753Y-14113936D02*
X13332229Y-14123460D01*
X13332229Y-14123460D02*
X13313182Y-14132984D01*
X13313182Y-14132984D02*
X13294134Y-14132984D01*
X13294134Y-14132984D02*
X13275086Y-14123460D01*
X13275086Y-14123460D02*
X13265563Y-14113936D01*
X13265563Y-14113936D02*
X13256039Y-14094888D01*
X13256039Y-14094888D02*
X13246515Y-14056793D01*
X13246515Y-14056793D02*
X13246515Y-14009174D01*
X13246515Y-14009174D02*
X13256039Y-13971079D01*
X13256039Y-13971079D02*
X13265563Y-13952031D01*
X13265563Y-13952031D02*
X13275086Y-13942508D01*
X13275086Y-13942508D02*
X13294134Y-13932984D01*
X13446515Y-14113936D02*
X13456039Y-14123460D01*
X13456039Y-14123460D02*
X13446515Y-14132984D01*
X13446515Y-14132984D02*
X13436991Y-14123460D01*
X13436991Y-14123460D02*
X13446515Y-14113936D01*
X13446515Y-14113936D02*
X13446515Y-14132984D01*
X13646515Y-14132984D02*
X13532229Y-14132984D01*
X13589372Y-14132984D02*
X13589372Y-13932984D01*
X13589372Y-13932984D02*
X13570325Y-13961555D01*
X13570325Y-13961555D02*
X13551277Y-13980603D01*
X13551277Y-13980603D02*
X13532229Y-13990127D01*
X13722706Y-13952031D02*
X13732229Y-13942508D01*
X13732229Y-13942508D02*
X13751277Y-13932984D01*
X13751277Y-13932984D02*
X13798896Y-13932984D01*
X13798896Y-13932984D02*
X13817944Y-13942508D01*
X13817944Y-13942508D02*
X13827467Y-13952031D01*
X13827467Y-13952031D02*
X13836991Y-13971079D01*
X13836991Y-13971079D02*
X13836991Y-13990127D01*
X13836991Y-13990127D02*
X13827467Y-14018698D01*
X13827467Y-14018698D02*
X13713182Y-14132984D01*
X13713182Y-14132984D02*
X13836991Y-14132984D01*
X14008420Y-13932984D02*
X13970325Y-13932984D01*
X13970325Y-13932984D02*
X13951277Y-13942508D01*
X13951277Y-13942508D02*
X13941753Y-13952031D01*
X13941753Y-13952031D02*
X13922706Y-13980603D01*
X13922706Y-13980603D02*
X13913182Y-14018698D01*
X13913182Y-14018698D02*
X13913182Y-14094888D01*
X13913182Y-14094888D02*
X13922706Y-14113936D01*
X13922706Y-14113936D02*
X13932229Y-14123460D01*
X13932229Y-14123460D02*
X13951277Y-14132984D01*
X13951277Y-14132984D02*
X13989372Y-14132984D01*
X13989372Y-14132984D02*
X14008420Y-14123460D01*
X14008420Y-14123460D02*
X14017944Y-14113936D01*
X14017944Y-14113936D02*
X14027467Y-14094888D01*
X14027467Y-14094888D02*
X14027467Y-14047269D01*
X14027467Y-14047269D02*
X14017944Y-14028222D01*
X14017944Y-14028222D02*
X14008420Y-14018698D01*
X14008420Y-14018698D02*
X13989372Y-14009174D01*
X13989372Y-14009174D02*
X13951277Y-14009174D01*
X13951277Y-14009174D02*
X13932229Y-14018698D01*
X13932229Y-14018698D02*
X13922706Y-14028222D01*
X13922706Y-14028222D02*
X13913182Y-14047269D01*
X14151277Y-13932984D02*
X14170325Y-13932984D01*
X14170325Y-13932984D02*
X14189372Y-13942508D01*
X14189372Y-13942508D02*
X14198896Y-13952031D01*
X14198896Y-13952031D02*
X14208420Y-13971079D01*
X14208420Y-13971079D02*
X14217944Y-14009174D01*
X14217944Y-14009174D02*
X14217944Y-14056793D01*
X14217944Y-14056793D02*
X14208420Y-14094888D01*
X14208420Y-14094888D02*
X14198896Y-14113936D01*
X14198896Y-14113936D02*
X14189372Y-14123460D01*
X14189372Y-14123460D02*
X14170325Y-14132984D01*
X14170325Y-14132984D02*
X14151277Y-14132984D01*
X14151277Y-14132984D02*
X14132229Y-14123460D01*
X14132229Y-14123460D02*
X14122706Y-14113936D01*
X14122706Y-14113936D02*
X14113182Y-14094888D01*
X14113182Y-14094888D02*
X14103658Y-14056793D01*
X14103658Y-14056793D02*
X14103658Y-14009174D01*
X14103658Y-14009174D02*
X14113182Y-13971079D01*
X14113182Y-13971079D02*
X14122706Y-13952031D01*
X14122706Y-13952031D02*
X14132229Y-13942508D01*
X14132229Y-13942508D02*
X14151277Y-13932984D01*
X14294134Y-13932984D02*
X14294134Y-13971079D01*
X14370325Y-13932984D02*
X14370325Y-13971079D01*
X14665563Y-14209174D02*
X14656039Y-14199650D01*
X14656039Y-14199650D02*
X14636991Y-14171079D01*
X14636991Y-14171079D02*
X14627468Y-14152031D01*
X14627468Y-14152031D02*
X14617944Y-14123460D01*
X14617944Y-14123460D02*
X14608420Y-14075841D01*
X14608420Y-14075841D02*
X14608420Y-14037746D01*
X14608420Y-14037746D02*
X14617944Y-13990127D01*
X14617944Y-13990127D02*
X14627468Y-13961555D01*
X14627468Y-13961555D02*
X14636991Y-13942508D01*
X14636991Y-13942508D02*
X14656039Y-13913936D01*
X14656039Y-13913936D02*
X14665563Y-13904412D01*
X14722706Y-13932984D02*
X14846515Y-13932984D01*
X14846515Y-13932984D02*
X14779848Y-14009174D01*
X14779848Y-14009174D02*
X14808420Y-14009174D01*
X14808420Y-14009174D02*
X14827468Y-14018698D01*
X14827468Y-14018698D02*
X14836991Y-14028222D01*
X14836991Y-14028222D02*
X14846515Y-14047269D01*
X14846515Y-14047269D02*
X14846515Y-14094888D01*
X14846515Y-14094888D02*
X14836991Y-14113936D01*
X14836991Y-14113936D02*
X14827468Y-14123460D01*
X14827468Y-14123460D02*
X14808420Y-14132984D01*
X14808420Y-14132984D02*
X14751277Y-14132984D01*
X14751277Y-14132984D02*
X14732229Y-14123460D01*
X14732229Y-14123460D02*
X14722706Y-14113936D01*
X15084610Y-14132984D02*
X15084610Y-13932984D01*
X15170325Y-14132984D02*
X15170325Y-14028222D01*
X15170325Y-14028222D02*
X15160801Y-14009174D01*
X15160801Y-14009174D02*
X15141753Y-13999650D01*
X15141753Y-13999650D02*
X15113182Y-13999650D01*
X15113182Y-13999650D02*
X15094134Y-14009174D01*
X15094134Y-14009174D02*
X15084610Y-14018698D01*
X15294134Y-14132984D02*
X15275087Y-14123460D01*
X15275087Y-14123460D02*
X15265563Y-14113936D01*
X15265563Y-14113936D02*
X15256039Y-14094888D01*
X15256039Y-14094888D02*
X15256039Y-14037746D01*
X15256039Y-14037746D02*
X15265563Y-14018698D01*
X15265563Y-14018698D02*
X15275087Y-14009174D01*
X15275087Y-14009174D02*
X15294134Y-13999650D01*
X15294134Y-13999650D02*
X15322706Y-13999650D01*
X15322706Y-13999650D02*
X15341753Y-14009174D01*
X15341753Y-14009174D02*
X15351277Y-14018698D01*
X15351277Y-14018698D02*
X15360801Y-14037746D01*
X15360801Y-14037746D02*
X15360801Y-14094888D01*
X15360801Y-14094888D02*
X15351277Y-14113936D01*
X15351277Y-14113936D02*
X15341753Y-14123460D01*
X15341753Y-14123460D02*
X15322706Y-14132984D01*
X15322706Y-14132984D02*
X15294134Y-14132984D01*
X15475087Y-14132984D02*
X15456039Y-14123460D01*
X15456039Y-14123460D02*
X15446515Y-14104412D01*
X15446515Y-14104412D02*
X15446515Y-13932984D01*
X15627468Y-14123460D02*
X15608420Y-14132984D01*
X15608420Y-14132984D02*
X15570325Y-14132984D01*
X15570325Y-14132984D02*
X15551277Y-14123460D01*
X15551277Y-14123460D02*
X15541753Y-14104412D01*
X15541753Y-14104412D02*
X15541753Y-14028222D01*
X15541753Y-14028222D02*
X15551277Y-14009174D01*
X15551277Y-14009174D02*
X15570325Y-13999650D01*
X15570325Y-13999650D02*
X15608420Y-13999650D01*
X15608420Y-13999650D02*
X15627468Y-14009174D01*
X15627468Y-14009174D02*
X15636991Y-14028222D01*
X15636991Y-14028222D02*
X15636991Y-14047269D01*
X15636991Y-14047269D02*
X15541753Y-14066317D01*
X15713182Y-14123460D02*
X15732230Y-14132984D01*
X15732230Y-14132984D02*
X15770325Y-14132984D01*
X15770325Y-14132984D02*
X15789372Y-14123460D01*
X15789372Y-14123460D02*
X15798896Y-14104412D01*
X15798896Y-14104412D02*
X15798896Y-14094888D01*
X15798896Y-14094888D02*
X15789372Y-14075841D01*
X15789372Y-14075841D02*
X15770325Y-14066317D01*
X15770325Y-14066317D02*
X15741753Y-14066317D01*
X15741753Y-14066317D02*
X15722706Y-14056793D01*
X15722706Y-14056793D02*
X15713182Y-14037746D01*
X15713182Y-14037746D02*
X15713182Y-14028222D01*
X15713182Y-14028222D02*
X15722706Y-14009174D01*
X15722706Y-14009174D02*
X15741753Y-13999650D01*
X15741753Y-13999650D02*
X15770325Y-13999650D01*
X15770325Y-13999650D02*
X15789372Y-14009174D01*
X15865563Y-14209174D02*
X15875087Y-14199650D01*
X15875087Y-14199650D02*
X15894134Y-14171079D01*
X15894134Y-14171079D02*
X15903658Y-14152031D01*
X15903658Y-14152031D02*
X15913182Y-14123460D01*
X15913182Y-14123460D02*
X15922706Y-14075841D01*
X15922706Y-14075841D02*
X15922706Y-14037746D01*
X15922706Y-14037746D02*
X15913182Y-13990127D01*
X15913182Y-13990127D02*
X15903658Y-13961555D01*
X15903658Y-13961555D02*
X15894134Y-13942508D01*
X15894134Y-13942508D02*
X15875087Y-13913936D01*
X15875087Y-13913936D02*
X15865563Y-13904412D01*
X16227468Y-14209174D02*
X16217944Y-14199650D01*
X16217944Y-14199650D02*
X16198896Y-14171079D01*
X16198896Y-14171079D02*
X16189372Y-14152031D01*
X16189372Y-14152031D02*
X16179849Y-14123460D01*
X16179849Y-14123460D02*
X16170325Y-14075841D01*
X16170325Y-14075841D02*
X16170325Y-14037746D01*
X16170325Y-14037746D02*
X16179849Y-13990127D01*
X16179849Y-13990127D02*
X16189372Y-13961555D01*
X16189372Y-13961555D02*
X16198896Y-13942508D01*
X16198896Y-13942508D02*
X16217944Y-13913936D01*
X16217944Y-13913936D02*
X16227468Y-13904412D01*
X16303658Y-13999650D02*
X16303658Y-14132984D01*
X16303658Y-14018698D02*
X16313182Y-14009174D01*
X16313182Y-14009174D02*
X16332230Y-13999650D01*
X16332230Y-13999650D02*
X16360801Y-13999650D01*
X16360801Y-13999650D02*
X16379849Y-14009174D01*
X16379849Y-14009174D02*
X16389372Y-14028222D01*
X16389372Y-14028222D02*
X16389372Y-14132984D01*
X16513182Y-14132984D02*
X16494134Y-14123460D01*
X16494134Y-14123460D02*
X16484611Y-14113936D01*
X16484611Y-14113936D02*
X16475087Y-14094888D01*
X16475087Y-14094888D02*
X16475087Y-14037746D01*
X16475087Y-14037746D02*
X16484611Y-14018698D01*
X16484611Y-14018698D02*
X16494134Y-14009174D01*
X16494134Y-14009174D02*
X16513182Y-13999650D01*
X16513182Y-13999650D02*
X16541753Y-13999650D01*
X16541753Y-13999650D02*
X16560801Y-14009174D01*
X16560801Y-14009174D02*
X16570325Y-14018698D01*
X16570325Y-14018698D02*
X16579849Y-14037746D01*
X16579849Y-14037746D02*
X16579849Y-14094888D01*
X16579849Y-14094888D02*
X16570325Y-14113936D01*
X16570325Y-14113936D02*
X16560801Y-14123460D01*
X16560801Y-14123460D02*
X16541753Y-14132984D01*
X16541753Y-14132984D02*
X16513182Y-14132984D01*
X16636992Y-13999650D02*
X16713182Y-13999650D01*
X16665563Y-13932984D02*
X16665563Y-14104412D01*
X16665563Y-14104412D02*
X16675087Y-14123460D01*
X16675087Y-14123460D02*
X16694134Y-14132984D01*
X16694134Y-14132984D02*
X16713182Y-14132984D01*
X16932230Y-13999650D02*
X16932230Y-14199650D01*
X16932230Y-14009174D02*
X16951277Y-13999650D01*
X16951277Y-13999650D02*
X16989373Y-13999650D01*
X16989373Y-13999650D02*
X17008420Y-14009174D01*
X17008420Y-14009174D02*
X17017944Y-14018698D01*
X17017944Y-14018698D02*
X17027468Y-14037746D01*
X17027468Y-14037746D02*
X17027468Y-14094888D01*
X17027468Y-14094888D02*
X17017944Y-14113936D01*
X17017944Y-14113936D02*
X17008420Y-14123460D01*
X17008420Y-14123460D02*
X16989373Y-14132984D01*
X16989373Y-14132984D02*
X16951277Y-14132984D01*
X16951277Y-14132984D02*
X16932230Y-14123460D01*
X17141754Y-14132984D02*
X17122706Y-14123460D01*
X17122706Y-14123460D02*
X17113182Y-14104412D01*
X17113182Y-14104412D02*
X17113182Y-13932984D01*
X17303658Y-14132984D02*
X17303658Y-14028222D01*
X17303658Y-14028222D02*
X17294135Y-14009174D01*
X17294135Y-14009174D02*
X17275087Y-13999650D01*
X17275087Y-13999650D02*
X17236992Y-13999650D01*
X17236992Y-13999650D02*
X17217944Y-14009174D01*
X17303658Y-14123460D02*
X17284611Y-14132984D01*
X17284611Y-14132984D02*
X17236992Y-14132984D01*
X17236992Y-14132984D02*
X17217944Y-14123460D01*
X17217944Y-14123460D02*
X17208420Y-14104412D01*
X17208420Y-14104412D02*
X17208420Y-14085365D01*
X17208420Y-14085365D02*
X17217944Y-14066317D01*
X17217944Y-14066317D02*
X17236992Y-14056793D01*
X17236992Y-14056793D02*
X17284611Y-14056793D01*
X17284611Y-14056793D02*
X17303658Y-14047269D01*
X17370325Y-13999650D02*
X17446515Y-13999650D01*
X17398896Y-13932984D02*
X17398896Y-14104412D01*
X17398896Y-14104412D02*
X17408420Y-14123460D01*
X17408420Y-14123460D02*
X17427468Y-14132984D01*
X17427468Y-14132984D02*
X17446515Y-14132984D01*
X17589373Y-14123460D02*
X17570325Y-14132984D01*
X17570325Y-14132984D02*
X17532230Y-14132984D01*
X17532230Y-14132984D02*
X17513182Y-14123460D01*
X17513182Y-14123460D02*
X17503658Y-14104412D01*
X17503658Y-14104412D02*
X17503658Y-14028222D01*
X17503658Y-14028222D02*
X17513182Y-14009174D01*
X17513182Y-14009174D02*
X17532230Y-13999650D01*
X17532230Y-13999650D02*
X17570325Y-13999650D01*
X17570325Y-13999650D02*
X17589373Y-14009174D01*
X17589373Y-14009174D02*
X17598896Y-14028222D01*
X17598896Y-14028222D02*
X17598896Y-14047269D01*
X17598896Y-14047269D02*
X17503658Y-14066317D01*
X17770325Y-14132984D02*
X17770325Y-13932984D01*
X17770325Y-14123460D02*
X17751277Y-14132984D01*
X17751277Y-14132984D02*
X17713182Y-14132984D01*
X17713182Y-14132984D02*
X17694135Y-14123460D01*
X17694135Y-14123460D02*
X17684611Y-14113936D01*
X17684611Y-14113936D02*
X17675087Y-14094888D01*
X17675087Y-14094888D02*
X17675087Y-14037746D01*
X17675087Y-14037746D02*
X17684611Y-14018698D01*
X17684611Y-14018698D02*
X17694135Y-14009174D01*
X17694135Y-14009174D02*
X17713182Y-13999650D01*
X17713182Y-13999650D02*
X17751277Y-13999650D01*
X17751277Y-13999650D02*
X17770325Y-14009174D01*
X17846516Y-14209174D02*
X17856039Y-14199650D01*
X17856039Y-14199650D02*
X17875087Y-14171079D01*
X17875087Y-14171079D02*
X17884611Y-14152031D01*
X17884611Y-14152031D02*
X17894135Y-14123460D01*
X17894135Y-14123460D02*
X17903658Y-14075841D01*
X17903658Y-14075841D02*
X17903658Y-14037746D01*
X17903658Y-14037746D02*
X17894135Y-13990127D01*
X17894135Y-13990127D02*
X17884611Y-13961555D01*
X17884611Y-13961555D02*
X17875087Y-13942508D01*
X17875087Y-13942508D02*
X17856039Y-13913936D01*
X17856039Y-13913936D02*
X17846516Y-13904412D01*
X11090500Y-14361500D02*
G75*
G02*
X10890500Y-14361500I-100000J0D01*
G01*
X10890500Y-14361500D02*
G75*
G02*
X11090500Y-14361500I100000J0D01*
G01*
X11332229Y-14252984D02*
X11456039Y-14252984D01*
X11456039Y-14252984D02*
X11389372Y-14329174D01*
X11389372Y-14329174D02*
X11417943Y-14329174D01*
X11417943Y-14329174D02*
X11436991Y-14338698D01*
X11436991Y-14338698D02*
X11446515Y-14348222D01*
X11446515Y-14348222D02*
X11456039Y-14367269D01*
X11456039Y-14367269D02*
X11456039Y-14414888D01*
X11456039Y-14414888D02*
X11446515Y-14433936D01*
X11446515Y-14433936D02*
X11436991Y-14443460D01*
X11436991Y-14443460D02*
X11417943Y-14452984D01*
X11417943Y-14452984D02*
X11360801Y-14452984D01*
X11360801Y-14452984D02*
X11341753Y-14443460D01*
X11341753Y-14443460D02*
X11332229Y-14433936D01*
X11541753Y-14433936D02*
X11551277Y-14443460D01*
X11551277Y-14443460D02*
X11541753Y-14452984D01*
X11541753Y-14452984D02*
X11532229Y-14443460D01*
X11532229Y-14443460D02*
X11541753Y-14433936D01*
X11541753Y-14433936D02*
X11541753Y-14452984D01*
X11627467Y-14272031D02*
X11636991Y-14262508D01*
X11636991Y-14262508D02*
X11656039Y-14252984D01*
X11656039Y-14252984D02*
X11703658Y-14252984D01*
X11703658Y-14252984D02*
X11722705Y-14262508D01*
X11722705Y-14262508D02*
X11732229Y-14272031D01*
X11732229Y-14272031D02*
X11741753Y-14291079D01*
X11741753Y-14291079D02*
X11741753Y-14310127D01*
X11741753Y-14310127D02*
X11732229Y-14338698D01*
X11732229Y-14338698D02*
X11617943Y-14452984D01*
X11617943Y-14452984D02*
X11741753Y-14452984D01*
X11922705Y-14252984D02*
X11827467Y-14252984D01*
X11827467Y-14252984D02*
X11817943Y-14348222D01*
X11817943Y-14348222D02*
X11827467Y-14338698D01*
X11827467Y-14338698D02*
X11846515Y-14329174D01*
X11846515Y-14329174D02*
X11894134Y-14329174D01*
X11894134Y-14329174D02*
X11913182Y-14338698D01*
X11913182Y-14338698D02*
X11922705Y-14348222D01*
X11922705Y-14348222D02*
X11932229Y-14367269D01*
X11932229Y-14367269D02*
X11932229Y-14414888D01*
X11932229Y-14414888D02*
X11922705Y-14433936D01*
X11922705Y-14433936D02*
X11913182Y-14443460D01*
X11913182Y-14443460D02*
X11894134Y-14452984D01*
X11894134Y-14452984D02*
X11846515Y-14452984D01*
X11846515Y-14452984D02*
X11827467Y-14443460D01*
X11827467Y-14443460D02*
X11817943Y-14433936D01*
X12056039Y-14252984D02*
X12075086Y-14252984D01*
X12075086Y-14252984D02*
X12094134Y-14262508D01*
X12094134Y-14262508D02*
X12103658Y-14272031D01*
X12103658Y-14272031D02*
X12113182Y-14291079D01*
X12113182Y-14291079D02*
X12122705Y-14329174D01*
X12122705Y-14329174D02*
X12122705Y-14376793D01*
X12122705Y-14376793D02*
X12113182Y-14414888D01*
X12113182Y-14414888D02*
X12103658Y-14433936D01*
X12103658Y-14433936D02*
X12094134Y-14443460D01*
X12094134Y-14443460D02*
X12075086Y-14452984D01*
X12075086Y-14452984D02*
X12056039Y-14452984D01*
X12056039Y-14452984D02*
X12036991Y-14443460D01*
X12036991Y-14443460D02*
X12027467Y-14433936D01*
X12027467Y-14433936D02*
X12017943Y-14414888D01*
X12017943Y-14414888D02*
X12008420Y-14376793D01*
X12008420Y-14376793D02*
X12008420Y-14329174D01*
X12008420Y-14329174D02*
X12017943Y-14291079D01*
X12017943Y-14291079D02*
X12027467Y-14272031D01*
X12027467Y-14272031D02*
X12036991Y-14262508D01*
X12036991Y-14262508D02*
X12056039Y-14252984D01*
X12208420Y-14452984D02*
X12208420Y-14319650D01*
X12208420Y-14338698D02*
X12217943Y-14329174D01*
X12217943Y-14329174D02*
X12236991Y-14319650D01*
X12236991Y-14319650D02*
X12265563Y-14319650D01*
X12265563Y-14319650D02*
X12284610Y-14329174D01*
X12284610Y-14329174D02*
X12294134Y-14348222D01*
X12294134Y-14348222D02*
X12294134Y-14452984D01*
X12294134Y-14348222D02*
X12303658Y-14329174D01*
X12303658Y-14329174D02*
X12322705Y-14319650D01*
X12322705Y-14319650D02*
X12351277Y-14319650D01*
X12351277Y-14319650D02*
X12370324Y-14329174D01*
X12370324Y-14329174D02*
X12379848Y-14348222D01*
X12379848Y-14348222D02*
X12379848Y-14452984D01*
X12475086Y-14452984D02*
X12475086Y-14319650D01*
X12475086Y-14338698D02*
X12484610Y-14329174D01*
X12484610Y-14329174D02*
X12503658Y-14319650D01*
X12503658Y-14319650D02*
X12532229Y-14319650D01*
X12532229Y-14319650D02*
X12551277Y-14329174D01*
X12551277Y-14329174D02*
X12560801Y-14348222D01*
X12560801Y-14348222D02*
X12560801Y-14452984D01*
X12560801Y-14348222D02*
X12570324Y-14329174D01*
X12570324Y-14329174D02*
X12589372Y-14319650D01*
X12589372Y-14319650D02*
X12617943Y-14319650D01*
X12617943Y-14319650D02*
X12636991Y-14329174D01*
X12636991Y-14329174D02*
X12646515Y-14348222D01*
X12646515Y-14348222D02*
X12646515Y-14452984D01*
X13036991Y-14243460D02*
X12865563Y-14500603D01*
X13294134Y-14252984D02*
X13313182Y-14252984D01*
X13313182Y-14252984D02*
X13332229Y-14262508D01*
X13332229Y-14262508D02*
X13341753Y-14272031D01*
X13341753Y-14272031D02*
X13351277Y-14291079D01*
X13351277Y-14291079D02*
X13360801Y-14329174D01*
X13360801Y-14329174D02*
X13360801Y-14376793D01*
X13360801Y-14376793D02*
X13351277Y-14414888D01*
X13351277Y-14414888D02*
X13341753Y-14433936D01*
X13341753Y-14433936D02*
X13332229Y-14443460D01*
X13332229Y-14443460D02*
X13313182Y-14452984D01*
X13313182Y-14452984D02*
X13294134Y-14452984D01*
X13294134Y-14452984D02*
X13275086Y-14443460D01*
X13275086Y-14443460D02*
X13265563Y-14433936D01*
X13265563Y-14433936D02*
X13256039Y-14414888D01*
X13256039Y-14414888D02*
X13246515Y-14376793D01*
X13246515Y-14376793D02*
X13246515Y-14329174D01*
X13246515Y-14329174D02*
X13256039Y-14291079D01*
X13256039Y-14291079D02*
X13265563Y-14272031D01*
X13265563Y-14272031D02*
X13275086Y-14262508D01*
X13275086Y-14262508D02*
X13294134Y-14252984D01*
X13446515Y-14433936D02*
X13456039Y-14443460D01*
X13456039Y-14443460D02*
X13446515Y-14452984D01*
X13446515Y-14452984D02*
X13436991Y-14443460D01*
X13436991Y-14443460D02*
X13446515Y-14433936D01*
X13446515Y-14433936D02*
X13446515Y-14452984D01*
X13646515Y-14452984D02*
X13532229Y-14452984D01*
X13589372Y-14452984D02*
X13589372Y-14252984D01*
X13589372Y-14252984D02*
X13570325Y-14281555D01*
X13570325Y-14281555D02*
X13551277Y-14300603D01*
X13551277Y-14300603D02*
X13532229Y-14310127D01*
X13722706Y-14272031D02*
X13732229Y-14262508D01*
X13732229Y-14262508D02*
X13751277Y-14252984D01*
X13751277Y-14252984D02*
X13798896Y-14252984D01*
X13798896Y-14252984D02*
X13817944Y-14262508D01*
X13817944Y-14262508D02*
X13827467Y-14272031D01*
X13827467Y-14272031D02*
X13836991Y-14291079D01*
X13836991Y-14291079D02*
X13836991Y-14310127D01*
X13836991Y-14310127D02*
X13827467Y-14338698D01*
X13827467Y-14338698D02*
X13713182Y-14452984D01*
X13713182Y-14452984D02*
X13836991Y-14452984D01*
X13951277Y-14338698D02*
X13932229Y-14329174D01*
X13932229Y-14329174D02*
X13922706Y-14319650D01*
X13922706Y-14319650D02*
X13913182Y-14300603D01*
X13913182Y-14300603D02*
X13913182Y-14291079D01*
X13913182Y-14291079D02*
X13922706Y-14272031D01*
X13922706Y-14272031D02*
X13932229Y-14262508D01*
X13932229Y-14262508D02*
X13951277Y-14252984D01*
X13951277Y-14252984D02*
X13989372Y-14252984D01*
X13989372Y-14252984D02*
X14008420Y-14262508D01*
X14008420Y-14262508D02*
X14017944Y-14272031D01*
X14017944Y-14272031D02*
X14027467Y-14291079D01*
X14027467Y-14291079D02*
X14027467Y-14300603D01*
X14027467Y-14300603D02*
X14017944Y-14319650D01*
X14017944Y-14319650D02*
X14008420Y-14329174D01*
X14008420Y-14329174D02*
X13989372Y-14338698D01*
X13989372Y-14338698D02*
X13951277Y-14338698D01*
X13951277Y-14338698D02*
X13932229Y-14348222D01*
X13932229Y-14348222D02*
X13922706Y-14357746D01*
X13922706Y-14357746D02*
X13913182Y-14376793D01*
X13913182Y-14376793D02*
X13913182Y-14414888D01*
X13913182Y-14414888D02*
X13922706Y-14433936D01*
X13922706Y-14433936D02*
X13932229Y-14443460D01*
X13932229Y-14443460D02*
X13951277Y-14452984D01*
X13951277Y-14452984D02*
X13989372Y-14452984D01*
X13989372Y-14452984D02*
X14008420Y-14443460D01*
X14008420Y-14443460D02*
X14017944Y-14433936D01*
X14017944Y-14433936D02*
X14027467Y-14414888D01*
X14027467Y-14414888D02*
X14027467Y-14376793D01*
X14027467Y-14376793D02*
X14017944Y-14357746D01*
X14017944Y-14357746D02*
X14008420Y-14348222D01*
X14008420Y-14348222D02*
X13989372Y-14338698D01*
X14151277Y-14252984D02*
X14170325Y-14252984D01*
X14170325Y-14252984D02*
X14189372Y-14262508D01*
X14189372Y-14262508D02*
X14198896Y-14272031D01*
X14198896Y-14272031D02*
X14208420Y-14291079D01*
X14208420Y-14291079D02*
X14217944Y-14329174D01*
X14217944Y-14329174D02*
X14217944Y-14376793D01*
X14217944Y-14376793D02*
X14208420Y-14414888D01*
X14208420Y-14414888D02*
X14198896Y-14433936D01*
X14198896Y-14433936D02*
X14189372Y-14443460D01*
X14189372Y-14443460D02*
X14170325Y-14452984D01*
X14170325Y-14452984D02*
X14151277Y-14452984D01*
X14151277Y-14452984D02*
X14132229Y-14443460D01*
X14132229Y-14443460D02*
X14122706Y-14433936D01*
X14122706Y-14433936D02*
X14113182Y-14414888D01*
X14113182Y-14414888D02*
X14103658Y-14376793D01*
X14103658Y-14376793D02*
X14103658Y-14329174D01*
X14103658Y-14329174D02*
X14113182Y-14291079D01*
X14113182Y-14291079D02*
X14122706Y-14272031D01*
X14122706Y-14272031D02*
X14132229Y-14262508D01*
X14132229Y-14262508D02*
X14151277Y-14252984D01*
X14294134Y-14252984D02*
X14294134Y-14291079D01*
X14370325Y-14252984D02*
X14370325Y-14291079D01*
X14665563Y-14529174D02*
X14656039Y-14519650D01*
X14656039Y-14519650D02*
X14636991Y-14491079D01*
X14636991Y-14491079D02*
X14627468Y-14472031D01*
X14627468Y-14472031D02*
X14617944Y-14443460D01*
X14617944Y-14443460D02*
X14608420Y-14395841D01*
X14608420Y-14395841D02*
X14608420Y-14357746D01*
X14608420Y-14357746D02*
X14617944Y-14310127D01*
X14617944Y-14310127D02*
X14627468Y-14281555D01*
X14627468Y-14281555D02*
X14636991Y-14262508D01*
X14636991Y-14262508D02*
X14656039Y-14233936D01*
X14656039Y-14233936D02*
X14665563Y-14224412D01*
X14770325Y-14338698D02*
X14751277Y-14329174D01*
X14751277Y-14329174D02*
X14741753Y-14319650D01*
X14741753Y-14319650D02*
X14732229Y-14300603D01*
X14732229Y-14300603D02*
X14732229Y-14291079D01*
X14732229Y-14291079D02*
X14741753Y-14272031D01*
X14741753Y-14272031D02*
X14751277Y-14262508D01*
X14751277Y-14262508D02*
X14770325Y-14252984D01*
X14770325Y-14252984D02*
X14808420Y-14252984D01*
X14808420Y-14252984D02*
X14827468Y-14262508D01*
X14827468Y-14262508D02*
X14836991Y-14272031D01*
X14836991Y-14272031D02*
X14846515Y-14291079D01*
X14846515Y-14291079D02*
X14846515Y-14300603D01*
X14846515Y-14300603D02*
X14836991Y-14319650D01*
X14836991Y-14319650D02*
X14827468Y-14329174D01*
X14827468Y-14329174D02*
X14808420Y-14338698D01*
X14808420Y-14338698D02*
X14770325Y-14338698D01*
X14770325Y-14338698D02*
X14751277Y-14348222D01*
X14751277Y-14348222D02*
X14741753Y-14357746D01*
X14741753Y-14357746D02*
X14732229Y-14376793D01*
X14732229Y-14376793D02*
X14732229Y-14414888D01*
X14732229Y-14414888D02*
X14741753Y-14433936D01*
X14741753Y-14433936D02*
X14751277Y-14443460D01*
X14751277Y-14443460D02*
X14770325Y-14452984D01*
X14770325Y-14452984D02*
X14808420Y-14452984D01*
X14808420Y-14452984D02*
X14827468Y-14443460D01*
X14827468Y-14443460D02*
X14836991Y-14433936D01*
X14836991Y-14433936D02*
X14846515Y-14414888D01*
X14846515Y-14414888D02*
X14846515Y-14376793D01*
X14846515Y-14376793D02*
X14836991Y-14357746D01*
X14836991Y-14357746D02*
X14827468Y-14348222D01*
X14827468Y-14348222D02*
X14808420Y-14338698D01*
X15084610Y-14452984D02*
X15084610Y-14252984D01*
X15170325Y-14452984D02*
X15170325Y-14348222D01*
X15170325Y-14348222D02*
X15160801Y-14329174D01*
X15160801Y-14329174D02*
X15141753Y-14319650D01*
X15141753Y-14319650D02*
X15113182Y-14319650D01*
X15113182Y-14319650D02*
X15094134Y-14329174D01*
X15094134Y-14329174D02*
X15084610Y-14338698D01*
X15294134Y-14452984D02*
X15275087Y-14443460D01*
X15275087Y-14443460D02*
X15265563Y-14433936D01*
X15265563Y-14433936D02*
X15256039Y-14414888D01*
X15256039Y-14414888D02*
X15256039Y-14357746D01*
X15256039Y-14357746D02*
X15265563Y-14338698D01*
X15265563Y-14338698D02*
X15275087Y-14329174D01*
X15275087Y-14329174D02*
X15294134Y-14319650D01*
X15294134Y-14319650D02*
X15322706Y-14319650D01*
X15322706Y-14319650D02*
X15341753Y-14329174D01*
X15341753Y-14329174D02*
X15351277Y-14338698D01*
X15351277Y-14338698D02*
X15360801Y-14357746D01*
X15360801Y-14357746D02*
X15360801Y-14414888D01*
X15360801Y-14414888D02*
X15351277Y-14433936D01*
X15351277Y-14433936D02*
X15341753Y-14443460D01*
X15341753Y-14443460D02*
X15322706Y-14452984D01*
X15322706Y-14452984D02*
X15294134Y-14452984D01*
X15475087Y-14452984D02*
X15456039Y-14443460D01*
X15456039Y-14443460D02*
X15446515Y-14424412D01*
X15446515Y-14424412D02*
X15446515Y-14252984D01*
X15627468Y-14443460D02*
X15608420Y-14452984D01*
X15608420Y-14452984D02*
X15570325Y-14452984D01*
X15570325Y-14452984D02*
X15551277Y-14443460D01*
X15551277Y-14443460D02*
X15541753Y-14424412D01*
X15541753Y-14424412D02*
X15541753Y-14348222D01*
X15541753Y-14348222D02*
X15551277Y-14329174D01*
X15551277Y-14329174D02*
X15570325Y-14319650D01*
X15570325Y-14319650D02*
X15608420Y-14319650D01*
X15608420Y-14319650D02*
X15627468Y-14329174D01*
X15627468Y-14329174D02*
X15636991Y-14348222D01*
X15636991Y-14348222D02*
X15636991Y-14367269D01*
X15636991Y-14367269D02*
X15541753Y-14386317D01*
X15713182Y-14443460D02*
X15732230Y-14452984D01*
X15732230Y-14452984D02*
X15770325Y-14452984D01*
X15770325Y-14452984D02*
X15789372Y-14443460D01*
X15789372Y-14443460D02*
X15798896Y-14424412D01*
X15798896Y-14424412D02*
X15798896Y-14414888D01*
X15798896Y-14414888D02*
X15789372Y-14395841D01*
X15789372Y-14395841D02*
X15770325Y-14386317D01*
X15770325Y-14386317D02*
X15741753Y-14386317D01*
X15741753Y-14386317D02*
X15722706Y-14376793D01*
X15722706Y-14376793D02*
X15713182Y-14357746D01*
X15713182Y-14357746D02*
X15713182Y-14348222D01*
X15713182Y-14348222D02*
X15722706Y-14329174D01*
X15722706Y-14329174D02*
X15741753Y-14319650D01*
X15741753Y-14319650D02*
X15770325Y-14319650D01*
X15770325Y-14319650D02*
X15789372Y-14329174D01*
X15865563Y-14529174D02*
X15875087Y-14519650D01*
X15875087Y-14519650D02*
X15894134Y-14491079D01*
X15894134Y-14491079D02*
X15903658Y-14472031D01*
X15903658Y-14472031D02*
X15913182Y-14443460D01*
X15913182Y-14443460D02*
X15922706Y-14395841D01*
X15922706Y-14395841D02*
X15922706Y-14357746D01*
X15922706Y-14357746D02*
X15913182Y-14310127D01*
X15913182Y-14310127D02*
X15903658Y-14281555D01*
X15903658Y-14281555D02*
X15894134Y-14262508D01*
X15894134Y-14262508D02*
X15875087Y-14233936D01*
X15875087Y-14233936D02*
X15865563Y-14224412D01*
X16227468Y-14529174D02*
X16217944Y-14519650D01*
X16217944Y-14519650D02*
X16198896Y-14491079D01*
X16198896Y-14491079D02*
X16189372Y-14472031D01*
X16189372Y-14472031D02*
X16179849Y-14443460D01*
X16179849Y-14443460D02*
X16170325Y-14395841D01*
X16170325Y-14395841D02*
X16170325Y-14357746D01*
X16170325Y-14357746D02*
X16179849Y-14310127D01*
X16179849Y-14310127D02*
X16189372Y-14281555D01*
X16189372Y-14281555D02*
X16198896Y-14262508D01*
X16198896Y-14262508D02*
X16217944Y-14233936D01*
X16217944Y-14233936D02*
X16227468Y-14224412D01*
X16303658Y-14319650D02*
X16303658Y-14452984D01*
X16303658Y-14338698D02*
X16313182Y-14329174D01*
X16313182Y-14329174D02*
X16332230Y-14319650D01*
X16332230Y-14319650D02*
X16360801Y-14319650D01*
X16360801Y-14319650D02*
X16379849Y-14329174D01*
X16379849Y-14329174D02*
X16389372Y-14348222D01*
X16389372Y-14348222D02*
X16389372Y-14452984D01*
X16513182Y-14452984D02*
X16494134Y-14443460D01*
X16494134Y-14443460D02*
X16484611Y-14433936D01*
X16484611Y-14433936D02*
X16475087Y-14414888D01*
X16475087Y-14414888D02*
X16475087Y-14357746D01*
X16475087Y-14357746D02*
X16484611Y-14338698D01*
X16484611Y-14338698D02*
X16494134Y-14329174D01*
X16494134Y-14329174D02*
X16513182Y-14319650D01*
X16513182Y-14319650D02*
X16541753Y-14319650D01*
X16541753Y-14319650D02*
X16560801Y-14329174D01*
X16560801Y-14329174D02*
X16570325Y-14338698D01*
X16570325Y-14338698D02*
X16579849Y-14357746D01*
X16579849Y-14357746D02*
X16579849Y-14414888D01*
X16579849Y-14414888D02*
X16570325Y-14433936D01*
X16570325Y-14433936D02*
X16560801Y-14443460D01*
X16560801Y-14443460D02*
X16541753Y-14452984D01*
X16541753Y-14452984D02*
X16513182Y-14452984D01*
X16636992Y-14319650D02*
X16713182Y-14319650D01*
X16665563Y-14252984D02*
X16665563Y-14424412D01*
X16665563Y-14424412D02*
X16675087Y-14443460D01*
X16675087Y-14443460D02*
X16694134Y-14452984D01*
X16694134Y-14452984D02*
X16713182Y-14452984D01*
X16932230Y-14319650D02*
X16932230Y-14519650D01*
X16932230Y-14329174D02*
X16951277Y-14319650D01*
X16951277Y-14319650D02*
X16989373Y-14319650D01*
X16989373Y-14319650D02*
X17008420Y-14329174D01*
X17008420Y-14329174D02*
X17017944Y-14338698D01*
X17017944Y-14338698D02*
X17027468Y-14357746D01*
X17027468Y-14357746D02*
X17027468Y-14414888D01*
X17027468Y-14414888D02*
X17017944Y-14433936D01*
X17017944Y-14433936D02*
X17008420Y-14443460D01*
X17008420Y-14443460D02*
X16989373Y-14452984D01*
X16989373Y-14452984D02*
X16951277Y-14452984D01*
X16951277Y-14452984D02*
X16932230Y-14443460D01*
X17141754Y-14452984D02*
X17122706Y-14443460D01*
X17122706Y-14443460D02*
X17113182Y-14424412D01*
X17113182Y-14424412D02*
X17113182Y-14252984D01*
X17303658Y-14452984D02*
X17303658Y-14348222D01*
X17303658Y-14348222D02*
X17294135Y-14329174D01*
X17294135Y-14329174D02*
X17275087Y-14319650D01*
X17275087Y-14319650D02*
X17236992Y-14319650D01*
X17236992Y-14319650D02*
X17217944Y-14329174D01*
X17303658Y-14443460D02*
X17284611Y-14452984D01*
X17284611Y-14452984D02*
X17236992Y-14452984D01*
X17236992Y-14452984D02*
X17217944Y-14443460D01*
X17217944Y-14443460D02*
X17208420Y-14424412D01*
X17208420Y-14424412D02*
X17208420Y-14405365D01*
X17208420Y-14405365D02*
X17217944Y-14386317D01*
X17217944Y-14386317D02*
X17236992Y-14376793D01*
X17236992Y-14376793D02*
X17284611Y-14376793D01*
X17284611Y-14376793D02*
X17303658Y-14367269D01*
X17370325Y-14319650D02*
X17446515Y-14319650D01*
X17398896Y-14252984D02*
X17398896Y-14424412D01*
X17398896Y-14424412D02*
X17408420Y-14443460D01*
X17408420Y-14443460D02*
X17427468Y-14452984D01*
X17427468Y-14452984D02*
X17446515Y-14452984D01*
X17589373Y-14443460D02*
X17570325Y-14452984D01*
X17570325Y-14452984D02*
X17532230Y-14452984D01*
X17532230Y-14452984D02*
X17513182Y-14443460D01*
X17513182Y-14443460D02*
X17503658Y-14424412D01*
X17503658Y-14424412D02*
X17503658Y-14348222D01*
X17503658Y-14348222D02*
X17513182Y-14329174D01*
X17513182Y-14329174D02*
X17532230Y-14319650D01*
X17532230Y-14319650D02*
X17570325Y-14319650D01*
X17570325Y-14319650D02*
X17589373Y-14329174D01*
X17589373Y-14329174D02*
X17598896Y-14348222D01*
X17598896Y-14348222D02*
X17598896Y-14367269D01*
X17598896Y-14367269D02*
X17503658Y-14386317D01*
X17770325Y-14452984D02*
X17770325Y-14252984D01*
X17770325Y-14443460D02*
X17751277Y-14452984D01*
X17751277Y-14452984D02*
X17713182Y-14452984D01*
X17713182Y-14452984D02*
X17694135Y-14443460D01*
X17694135Y-14443460D02*
X17684611Y-14433936D01*
X17684611Y-14433936D02*
X17675087Y-14414888D01*
X17675087Y-14414888D02*
X17675087Y-14357746D01*
X17675087Y-14357746D02*
X17684611Y-14338698D01*
X17684611Y-14338698D02*
X17694135Y-14329174D01*
X17694135Y-14329174D02*
X17713182Y-14319650D01*
X17713182Y-14319650D02*
X17751277Y-14319650D01*
X17751277Y-14319650D02*
X17770325Y-14329174D01*
X17846516Y-14529174D02*
X17856039Y-14519650D01*
X17856039Y-14519650D02*
X17875087Y-14491079D01*
X17875087Y-14491079D02*
X17884611Y-14472031D01*
X17884611Y-14472031D02*
X17894135Y-14443460D01*
X17894135Y-14443460D02*
X17903658Y-14395841D01*
X17903658Y-14395841D02*
X17903658Y-14357746D01*
X17903658Y-14357746D02*
X17894135Y-14310127D01*
X17894135Y-14310127D02*
X17884611Y-14281555D01*
X17884611Y-14281555D02*
X17875087Y-14262508D01*
X17875087Y-14262508D02*
X17856039Y-14233936D01*
X17856039Y-14233936D02*
X17846516Y-14224412D01*
M02*
