M48
; DRILL file {KiCad 8.0.0} date 2025-01-14T11:15:24-0600
; FORMAT={-:-/ absolute / metric / decimal}
; #@! TF.CreationDate,2025-01-14T11:15:25-06:00
; #@! TF.GenerationSoftware,Kicad,Pcbnew,8.0.0
; #@! TF.FileFunction,Plated,1,2,PTH
FMAT,2
METRIC
; #@! TA.AperFunction,Plated,PTH,ViaDrill
T1C0.300
; #@! TA.AperFunction,Plated,PTH,ComponentDrill
T2C0.800
; #@! TA.AperFunction,Plated,PTH,ComponentDrill
T3C0.900
; #@! TA.AperFunction,Plated,PTH,ComponentDrill
T4C0.965
; #@! TA.AperFunction,Plated,PTH,ComponentDrill
T5C1.000
; #@! TA.AperFunction,Plated,PTH,ComponentDrill
T6C1.150
; #@! TA.AperFunction,Plated,PTH,ComponentDrill
T7C1.600
%
G90
G05
T1
X113.93Y-58.34
X117.63Y-56.684
X117.64Y-64.3
X125.03Y-65.58
X125.06Y-55.9
X125.08Y-57.96
X128.14Y-59.73
X136.23Y-96.84
X138.05Y-101.39
X138.055Y-92.19
X143.24Y-59.24
X146.8Y-56.71
X146.82Y-64.31
X148.305Y-92.715
X154.33Y-57.93
X154.35Y-65.58
X154.63Y-56.69
X157.66Y-60.52
T2
X134.755Y-104.255
X137.755Y-104.255
T3
X116.925Y-50.49
X118.195Y-47.95
X119.465Y-50.49
X120.735Y-47.95
X122.005Y-50.49
X123.275Y-47.95
X124.545Y-50.49
X125.815Y-47.95
X125.98Y-99.43
X125.98Y-101.97
X125.98Y-104.51
X125.98Y-107.05
X128.52Y-100.7
X128.52Y-103.24
X128.52Y-105.78
X128.52Y-108.32
X134.93Y-109.54
X134.93Y-112.08
X143.88Y-99.38
X143.88Y-101.92
X143.88Y-104.46
X143.88Y-107.0
X146.42Y-100.65
X146.42Y-103.19
X146.42Y-105.73
X146.42Y-108.27
X146.615Y-50.535
X147.885Y-47.995
X149.155Y-50.535
X150.425Y-47.995
X151.695Y-50.535
X152.965Y-47.995
X154.235Y-50.535
X155.505Y-47.995
T4
X120.39Y-73.04
X120.39Y-75.58
X120.39Y-78.12
X120.39Y-80.66
X120.39Y-83.2
X120.39Y-85.74
X120.39Y-88.28
X122.93Y-73.04
X122.93Y-88.28
X125.47Y-73.04
X125.47Y-88.28
X128.01Y-73.04
X128.01Y-88.28
X130.55Y-73.04
X130.55Y-88.28
X133.09Y-73.04
X133.09Y-88.28
X135.63Y-73.04
X135.63Y-88.28
X138.17Y-73.04
X138.17Y-88.28
X140.71Y-73.04
X140.71Y-88.28
X143.25Y-73.04
X143.25Y-88.28
X145.79Y-73.04
X145.79Y-88.28
X148.33Y-73.04
X148.33Y-88.28
X150.87Y-73.04
X150.87Y-88.28
X153.41Y-73.04
X153.41Y-88.28
T5
X151.43Y-117.225
X151.43Y-119.765
X151.43Y-122.305
T6
X116.28Y-117.28
X116.28Y-122.28
X124.48Y-117.28
X124.48Y-122.28
T7
X113.6Y-38.55
X116.58Y-96.105
X116.58Y-111.645
X129.14Y-38.55
X143.29Y-38.595
X155.82Y-96.055
X155.82Y-111.595
X158.83Y-38.595
M30
