%TF.GenerationSoftware,KiCad,Pcbnew,8.0.0*%
%TF.CreationDate,2024-10-15T09:50:22-05:00*%
%TF.ProjectId,Rain and Switches Control Board,5261696e-2061-46e6-9420-537769746368,rev?*%
%TF.SameCoordinates,Original*%
%TF.FileFunction,Drillmap*%
%TF.FilePolarity,Positive*%
%FSLAX45Y45*%
G04 Gerber Fmt 4.5, Leading zero omitted, Abs format (unit mm)*
G04 Created by KiCad (PCBNEW 8.0.0) date 2024-10-15 09:50:22*
%MOMM*%
%LPD*%
G01*
G04 APERTURE LIST*
%ADD10C,0.050000*%
%ADD11C,0.200000*%
%ADD12C,0.100000*%
%ADD13C,0.115000*%
%ADD14C,0.120000*%
%ADD15C,0.132000*%
%ADD16C,0.160000*%
G04 APERTURE END LIST*
D10*
X10710000Y-3929000D02*
X18837760Y-3929000D01*
X18837760Y-11498000D01*
X10710000Y-11498000D01*
X10710000Y-3929000D01*
D11*
D12*
X12129600Y-5662880D02*
X12159600Y-5692880D01*
X12159600Y-5662880D02*
X12129600Y-5692880D01*
X14990960Y-6396720D02*
X15020960Y-6426720D01*
X15020960Y-6396720D02*
X14990960Y-6426720D01*
X15224640Y-6000480D02*
X15254640Y-6030480D01*
X15254640Y-6000480D02*
X15224640Y-6030480D01*
X15737720Y-6909800D02*
X15767720Y-6939800D01*
X15767720Y-6909800D02*
X15737720Y-6939800D01*
X15859640Y-6284960D02*
X15889640Y-6314960D01*
X15889640Y-6284960D02*
X15859640Y-6314960D01*
X15864720Y-5492480D02*
X15894720Y-5522480D01*
X15894720Y-5492480D02*
X15864720Y-5522480D01*
X15986640Y-6000480D02*
X16016640Y-6030480D01*
X16016640Y-6000480D02*
X15986640Y-6030480D01*
X15986640Y-6284960D02*
X16016640Y-6314960D01*
X16016640Y-6284960D02*
X15986640Y-6314960D01*
X11563660Y-8550400D02*
G75*
G02*
X11488660Y-8550400I-37500J0D01*
G01*
X11488660Y-8550400D02*
G75*
G02*
X11563660Y-8550400I37500J0D01*
G01*
X11690660Y-8423400D02*
G75*
G02*
X11615660Y-8423400I-37500J0D01*
G01*
X11615660Y-8423400D02*
G75*
G02*
X11690660Y-8423400I37500J0D01*
G01*
X11817660Y-8550400D02*
G75*
G02*
X11742660Y-8550400I-37500J0D01*
G01*
X11742660Y-8550400D02*
G75*
G02*
X11817660Y-8550400I37500J0D01*
G01*
X12122460Y-8550400D02*
G75*
G02*
X12047460Y-8550400I-37500J0D01*
G01*
X12047460Y-8550400D02*
G75*
G02*
X12122460Y-8550400I37500J0D01*
G01*
X12249460Y-8423400D02*
G75*
G02*
X12174460Y-8423400I-37500J0D01*
G01*
X12174460Y-8423400D02*
G75*
G02*
X12249460Y-8423400I37500J0D01*
G01*
X12376460Y-8550400D02*
G75*
G02*
X12301460Y-8550400I-37500J0D01*
G01*
X12301460Y-8550400D02*
G75*
G02*
X12376460Y-8550400I37500J0D01*
G01*
X12681260Y-8550400D02*
G75*
G02*
X12606260Y-8550400I-37500J0D01*
G01*
X12606260Y-8550400D02*
G75*
G02*
X12681260Y-8550400I37500J0D01*
G01*
X12808260Y-8423400D02*
G75*
G02*
X12733260Y-8423400I-37500J0D01*
G01*
X12733260Y-8423400D02*
G75*
G02*
X12808260Y-8423400I37500J0D01*
G01*
X12935260Y-8550400D02*
G75*
G02*
X12860260Y-8550400I-37500J0D01*
G01*
X12860260Y-8550400D02*
G75*
G02*
X12935260Y-8550400I37500J0D01*
G01*
X13240060Y-8550400D02*
G75*
G02*
X13165060Y-8550400I-37500J0D01*
G01*
X13165060Y-8550400D02*
G75*
G02*
X13240060Y-8550400I37500J0D01*
G01*
X13367060Y-8423400D02*
G75*
G02*
X13292060Y-8423400I-37500J0D01*
G01*
X13292060Y-8423400D02*
G75*
G02*
X13367060Y-8423400I37500J0D01*
G01*
X13494060Y-8550400D02*
G75*
G02*
X13419060Y-8550400I-37500J0D01*
G01*
X13419060Y-8550400D02*
G75*
G02*
X13494060Y-8550400I37500J0D01*
G01*
X13798860Y-8550400D02*
G75*
G02*
X13723860Y-8550400I-37500J0D01*
G01*
X13723860Y-8550400D02*
G75*
G02*
X13798860Y-8550400I37500J0D01*
G01*
X13925860Y-8423400D02*
G75*
G02*
X13850860Y-8423400I-37500J0D01*
G01*
X13850860Y-8423400D02*
G75*
G02*
X13925860Y-8423400I37500J0D01*
G01*
X14052860Y-8550400D02*
G75*
G02*
X13977860Y-8550400I-37500J0D01*
G01*
X13977860Y-8550400D02*
G75*
G02*
X14052860Y-8550400I37500J0D01*
G01*
X13883280Y-4685240D02*
X13883280Y-4775240D01*
X13838280Y-4730240D02*
X13928280Y-4730240D01*
X14137280Y-4685240D02*
X14137280Y-4775240D01*
X14092280Y-4730240D02*
X14182280Y-4730240D01*
X17093380Y-5502580D02*
X17093380Y-5592580D01*
X17048380Y-5547580D02*
X17138380Y-5547580D01*
X17093380Y-5756580D02*
X17093380Y-5846580D01*
X17048380Y-5801580D02*
X17138380Y-5801580D01*
X17093380Y-6010580D02*
X17093380Y-6100580D01*
X17048380Y-6055580D02*
X17138380Y-6055580D01*
X17093380Y-6264580D02*
X17093380Y-6354580D01*
X17048380Y-6309580D02*
X17138380Y-6309580D01*
X17094880Y-7479580D02*
X17094880Y-7569580D01*
X17049880Y-7524580D02*
X17139880Y-7524580D01*
X17094880Y-7733580D02*
X17094880Y-7823580D01*
X17049880Y-7778580D02*
X17139880Y-7778580D01*
X17094880Y-7987580D02*
X17094880Y-8077580D01*
X17049880Y-8032580D02*
X17139880Y-8032580D01*
X17094880Y-8241580D02*
X17094880Y-8331580D01*
X17049880Y-8286580D02*
X17139880Y-8286580D01*
X17347380Y-5629580D02*
X17347380Y-5719580D01*
X17302380Y-5674580D02*
X17392380Y-5674580D01*
X17347380Y-5883580D02*
X17347380Y-5973580D01*
X17302380Y-5928580D02*
X17392380Y-5928580D01*
X17347380Y-6137580D02*
X17347380Y-6227580D01*
X17302380Y-6182580D02*
X17392380Y-6182580D01*
X17347380Y-6391580D02*
X17347380Y-6481580D01*
X17302380Y-6436580D02*
X17392380Y-6436580D01*
X17348880Y-7606580D02*
X17348880Y-7696580D01*
X17303880Y-7651580D02*
X17393880Y-7651580D01*
X17348880Y-7860580D02*
X17348880Y-7950580D01*
X17303880Y-7905580D02*
X17393880Y-7905580D01*
X17348880Y-8114580D02*
X17348880Y-8204580D01*
X17303880Y-8159580D02*
X17393880Y-8159580D01*
X17348880Y-8368580D02*
X17348880Y-8458580D01*
X17303880Y-8413580D02*
X17393880Y-8413580D01*
X10899878Y-5942918D02*
X10899878Y-5874682D01*
X10831642Y-5874682D01*
X10831642Y-5942918D01*
X10899878Y-5942918D01*
X10899878Y-7466918D02*
X10899878Y-7398682D01*
X10831642Y-7398682D01*
X10831642Y-7466918D01*
X10899878Y-7466918D01*
X11153878Y-5942918D02*
X11153878Y-5874682D01*
X11085642Y-5874682D01*
X11085642Y-5942918D01*
X11153878Y-5942918D01*
X11153878Y-7466918D02*
X11153878Y-7398682D01*
X11085642Y-7398682D01*
X11085642Y-7466918D01*
X11153878Y-7466918D01*
X11407878Y-5942918D02*
X11407878Y-5874682D01*
X11339642Y-5874682D01*
X11339642Y-5942918D01*
X11407878Y-5942918D01*
X11407878Y-7466918D02*
X11407878Y-7398682D01*
X11339642Y-7398682D01*
X11339642Y-7466918D01*
X11407878Y-7466918D01*
X11661878Y-5942918D02*
X11661878Y-5874682D01*
X11593642Y-5874682D01*
X11593642Y-5942918D01*
X11661878Y-5942918D01*
X11661878Y-7466918D02*
X11661878Y-7398682D01*
X11593642Y-7398682D01*
X11593642Y-7466918D01*
X11661878Y-7466918D01*
X11915878Y-5942918D02*
X11915878Y-5874682D01*
X11847642Y-5874682D01*
X11847642Y-5942918D01*
X11915878Y-5942918D01*
X11915878Y-7466918D02*
X11915878Y-7398682D01*
X11847642Y-7398682D01*
X11847642Y-7466918D01*
X11915878Y-7466918D01*
X12169878Y-5942918D02*
X12169878Y-5874682D01*
X12101642Y-5874682D01*
X12101642Y-5942918D01*
X12169878Y-5942918D01*
X12169878Y-7466918D02*
X12169878Y-7398682D01*
X12101642Y-7398682D01*
X12101642Y-7466918D01*
X12169878Y-7466918D01*
X12423878Y-5942918D02*
X12423878Y-5874682D01*
X12355642Y-5874682D01*
X12355642Y-5942918D01*
X12423878Y-5942918D01*
X12423878Y-7466918D02*
X12423878Y-7398682D01*
X12355642Y-7398682D01*
X12355642Y-7466918D01*
X12423878Y-7466918D01*
X12677878Y-5942918D02*
X12677878Y-5874682D01*
X12609642Y-5874682D01*
X12609642Y-5942918D01*
X12677878Y-5942918D01*
X12677878Y-7466918D02*
X12677878Y-7398682D01*
X12609642Y-7398682D01*
X12609642Y-7466918D01*
X12677878Y-7466918D01*
X12931878Y-5942918D02*
X12931878Y-5874682D01*
X12863642Y-5874682D01*
X12863642Y-5942918D01*
X12931878Y-5942918D01*
X12931878Y-7466918D02*
X12931878Y-7398682D01*
X12863642Y-7398682D01*
X12863642Y-7466918D01*
X12931878Y-7466918D01*
X13185878Y-5942918D02*
X13185878Y-5874682D01*
X13117642Y-5874682D01*
X13117642Y-5942918D01*
X13185878Y-5942918D01*
X13185878Y-7466918D02*
X13185878Y-7398682D01*
X13117642Y-7398682D01*
X13117642Y-7466918D01*
X13185878Y-7466918D01*
X13439878Y-5942918D02*
X13439878Y-5874682D01*
X13371642Y-5874682D01*
X13371642Y-5942918D01*
X13439878Y-5942918D01*
X13439878Y-7466918D02*
X13439878Y-7398682D01*
X13371642Y-7398682D01*
X13371642Y-7466918D01*
X13439878Y-7466918D01*
X13693878Y-5942918D02*
X13693878Y-5874682D01*
X13625642Y-5874682D01*
X13625642Y-5942918D01*
X13693878Y-5942918D01*
X13693878Y-7466918D02*
X13693878Y-7398682D01*
X13625642Y-7398682D01*
X13625642Y-7466918D01*
X13693878Y-7466918D01*
X13947878Y-5942918D02*
X13947878Y-5874682D01*
X13879642Y-5874682D01*
X13879642Y-5942918D01*
X13947878Y-5942918D01*
X13947878Y-7466918D02*
X13947878Y-7398682D01*
X13879642Y-7398682D01*
X13879642Y-7466918D01*
X13947878Y-7466918D01*
X14201878Y-5942918D02*
X14201878Y-5874682D01*
X14133642Y-5874682D01*
X14133642Y-5942918D01*
X14201878Y-5942918D01*
X14201878Y-6196918D02*
X14201878Y-6128682D01*
X14133642Y-6128682D01*
X14133642Y-6196918D01*
X14201878Y-6196918D01*
X14201878Y-6450918D02*
X14201878Y-6382682D01*
X14133642Y-6382682D01*
X14133642Y-6450918D01*
X14201878Y-6450918D01*
X14201878Y-6704918D02*
X14201878Y-6636682D01*
X14133642Y-6636682D01*
X14133642Y-6704918D01*
X14201878Y-6704918D01*
X14201878Y-6958918D02*
X14201878Y-6890682D01*
X14133642Y-6890682D01*
X14133642Y-6958918D01*
X14201878Y-6958918D01*
X14201878Y-7212918D02*
X14201878Y-7144682D01*
X14133642Y-7144682D01*
X14133642Y-7212918D01*
X14201878Y-7212918D01*
X14201878Y-7466918D02*
X14201878Y-7398682D01*
X14133642Y-7398682D01*
X14133642Y-7466918D01*
X14201878Y-7466918D01*
X12643860Y-4266660D02*
X12693860Y-4216660D01*
X12643860Y-4166660D01*
X12593860Y-4216660D01*
X12643860Y-4266660D01*
X12643860Y-4520660D02*
X12693860Y-4470660D01*
X12643860Y-4420660D01*
X12593860Y-4470660D01*
X12643860Y-4520660D01*
X12643860Y-4774660D02*
X12693860Y-4724660D01*
X12643860Y-4674660D01*
X12593860Y-4724660D01*
X12643860Y-4774660D01*
D13*
X17425380Y-4154580D02*
X17540380Y-4269580D01*
X17540380Y-4154580D02*
X17425380Y-4269580D01*
X17540380Y-4212080D02*
G75*
G02*
X17425380Y-4212080I-57500J0D01*
G01*
X17425380Y-4212080D02*
G75*
G02*
X17540380Y-4212080I57500J0D01*
G01*
X17425380Y-4654580D02*
X17540380Y-4769580D01*
X17540380Y-4654580D02*
X17425380Y-4769580D01*
X17540380Y-4712080D02*
G75*
G02*
X17425380Y-4712080I-57500J0D01*
G01*
X17425380Y-4712080D02*
G75*
G02*
X17540380Y-4712080I57500J0D01*
G01*
X18245380Y-4154580D02*
X18360380Y-4269580D01*
X18360380Y-4154580D02*
X18245380Y-4269580D01*
X18360380Y-4212080D02*
G75*
G02*
X18245380Y-4212080I-57500J0D01*
G01*
X18245380Y-4212080D02*
G75*
G02*
X18360380Y-4212080I57500J0D01*
G01*
X18245380Y-4654580D02*
X18360380Y-4769580D01*
X18360380Y-4654580D02*
X18245380Y-4769580D01*
X18360380Y-4712080D02*
G75*
G02*
X18245380Y-4712080I-57500J0D01*
G01*
X18245380Y-4712080D02*
G75*
G02*
X18360380Y-4712080I57500J0D01*
G01*
D14*
X10969600Y-10610380D02*
X11089600Y-10730380D01*
X11089600Y-10610380D02*
X10969600Y-10730380D01*
X11029600Y-10610380D02*
X11029600Y-10730380D01*
X10969600Y-10670380D02*
X11089600Y-10670380D01*
X11319600Y-10610380D02*
X11439600Y-10730380D01*
X11439600Y-10610380D02*
X11319600Y-10730380D01*
X11379600Y-10610380D02*
X11379600Y-10730380D01*
X11319600Y-10670380D02*
X11439600Y-10670380D01*
X11669600Y-10610380D02*
X11789600Y-10730380D01*
X11789600Y-10610380D02*
X11669600Y-10730380D01*
X11729600Y-10610380D02*
X11729600Y-10730380D01*
X11669600Y-10670380D02*
X11789600Y-10670380D01*
X12019600Y-10610380D02*
X12139600Y-10730380D01*
X12139600Y-10610380D02*
X12019600Y-10730380D01*
X12079600Y-10610380D02*
X12079600Y-10730380D01*
X12019600Y-10670380D02*
X12139600Y-10670380D01*
X12369600Y-10610380D02*
X12489600Y-10730380D01*
X12489600Y-10610380D02*
X12369600Y-10730380D01*
X12429600Y-10610380D02*
X12429600Y-10730380D01*
X12369600Y-10670380D02*
X12489600Y-10670380D01*
X12719600Y-10610380D02*
X12839600Y-10730380D01*
X12839600Y-10610380D02*
X12719600Y-10730380D01*
X12779600Y-10610380D02*
X12779600Y-10730380D01*
X12719600Y-10670380D02*
X12839600Y-10670380D01*
D15*
X13427820Y-10587520D02*
X13559820Y-10719520D01*
X13559820Y-10587520D02*
X13427820Y-10719520D01*
X13540489Y-10700190D02*
X13540489Y-10606851D01*
X13447150Y-10606851D01*
X13447150Y-10700190D01*
X13540489Y-10700190D01*
X13927820Y-10587520D02*
X14059820Y-10719520D01*
X14059820Y-10587520D02*
X13927820Y-10719520D01*
X14040489Y-10700190D02*
X14040489Y-10606851D01*
X13947150Y-10606851D01*
X13947150Y-10700190D01*
X14040489Y-10700190D01*
X14557820Y-10587520D02*
X14689820Y-10719520D01*
X14689820Y-10587520D02*
X14557820Y-10719520D01*
X14670489Y-10700190D02*
X14670489Y-10606851D01*
X14577150Y-10606851D01*
X14577150Y-10700190D01*
X14670489Y-10700190D01*
X15057820Y-10587520D02*
X15189820Y-10719520D01*
X15189820Y-10587520D02*
X15057820Y-10719520D01*
X15170489Y-10700190D02*
X15170489Y-10606851D01*
X15077150Y-10606851D01*
X15077150Y-10700190D01*
X15170489Y-10700190D01*
X15691820Y-10587520D02*
X15823820Y-10719520D01*
X15823820Y-10587520D02*
X15691820Y-10719520D01*
X15804489Y-10700190D02*
X15804489Y-10606851D01*
X15711150Y-10606851D01*
X15711150Y-10700190D01*
X15804489Y-10700190D01*
X16191820Y-10587520D02*
X16323820Y-10719520D01*
X16323820Y-10587520D02*
X16191820Y-10719520D01*
X16304489Y-10700190D02*
X16304489Y-10606851D01*
X16211150Y-10606851D01*
X16211150Y-10700190D01*
X16304489Y-10700190D01*
X16829820Y-10587520D02*
X16961820Y-10719520D01*
X16961820Y-10587520D02*
X16829820Y-10719520D01*
X16942490Y-10700190D02*
X16942490Y-10606851D01*
X16849151Y-10606851D01*
X16849151Y-10700190D01*
X16942490Y-10700190D01*
X17329820Y-10587520D02*
X17461820Y-10719520D01*
X17461820Y-10587520D02*
X17329820Y-10719520D01*
X17442490Y-10700190D02*
X17442490Y-10606851D01*
X17349151Y-10606851D01*
X17349151Y-10700190D01*
X17442490Y-10700190D01*
X17971820Y-10587520D02*
X18103820Y-10719520D01*
X18103820Y-10587520D02*
X17971820Y-10719520D01*
X18084490Y-10700190D02*
X18084490Y-10606851D01*
X17991151Y-10606851D01*
X17991151Y-10700190D01*
X18084490Y-10700190D01*
X18471820Y-10587520D02*
X18603820Y-10719520D01*
X18603820Y-10587520D02*
X18471820Y-10719520D01*
X18584490Y-10700190D02*
X18584490Y-10606851D01*
X18491151Y-10606851D01*
X18491151Y-10700190D01*
X18584490Y-10700190D01*
D16*
X18207380Y-5135080D02*
X18367380Y-5295080D01*
X18367380Y-5135080D02*
X18207380Y-5295080D01*
X18287380Y-5295080D02*
X18367380Y-5215080D01*
X18287380Y-5135080D01*
X18207380Y-5215080D01*
X18287380Y-5295080D01*
X18207380Y-6689080D02*
X18367380Y-6849080D01*
X18367380Y-6689080D02*
X18207380Y-6849080D01*
X18287380Y-6849080D02*
X18367380Y-6769080D01*
X18287380Y-6689080D01*
X18207380Y-6769080D01*
X18287380Y-6849080D01*
X18208880Y-7112080D02*
X18368880Y-7272080D01*
X18368880Y-7112080D02*
X18208880Y-7272080D01*
X18288880Y-7272080D02*
X18368880Y-7192080D01*
X18288880Y-7112080D01*
X18208880Y-7192080D01*
X18288880Y-7272080D01*
X18208880Y-8666080D02*
X18368880Y-8826080D01*
X18368880Y-8666080D02*
X18208880Y-8826080D01*
X18288880Y-8826080D02*
X18368880Y-8746080D01*
X18288880Y-8666080D01*
X18208880Y-8746080D01*
X18288880Y-8826080D01*
D11*
X10968277Y-11811984D02*
X10968277Y-11611984D01*
X10968277Y-11611984D02*
X11015896Y-11611984D01*
X11015896Y-11611984D02*
X11044467Y-11621508D01*
X11044467Y-11621508D02*
X11063515Y-11640555D01*
X11063515Y-11640555D02*
X11073039Y-11659603D01*
X11073039Y-11659603D02*
X11082563Y-11697698D01*
X11082563Y-11697698D02*
X11082563Y-11726269D01*
X11082563Y-11726269D02*
X11073039Y-11764365D01*
X11073039Y-11764365D02*
X11063515Y-11783412D01*
X11063515Y-11783412D02*
X11044467Y-11802460D01*
X11044467Y-11802460D02*
X11015896Y-11811984D01*
X11015896Y-11811984D02*
X10968277Y-11811984D01*
X11168277Y-11811984D02*
X11168277Y-11678650D01*
X11168277Y-11716746D02*
X11177801Y-11697698D01*
X11177801Y-11697698D02*
X11187324Y-11688174D01*
X11187324Y-11688174D02*
X11206372Y-11678650D01*
X11206372Y-11678650D02*
X11225420Y-11678650D01*
X11292086Y-11811984D02*
X11292086Y-11678650D01*
X11292086Y-11611984D02*
X11282562Y-11621508D01*
X11282562Y-11621508D02*
X11292086Y-11631031D01*
X11292086Y-11631031D02*
X11301610Y-11621508D01*
X11301610Y-11621508D02*
X11292086Y-11611984D01*
X11292086Y-11611984D02*
X11292086Y-11631031D01*
X11415896Y-11811984D02*
X11396848Y-11802460D01*
X11396848Y-11802460D02*
X11387324Y-11783412D01*
X11387324Y-11783412D02*
X11387324Y-11611984D01*
X11520658Y-11811984D02*
X11501610Y-11802460D01*
X11501610Y-11802460D02*
X11492086Y-11783412D01*
X11492086Y-11783412D02*
X11492086Y-11611984D01*
X11749229Y-11811984D02*
X11749229Y-11611984D01*
X11749229Y-11611984D02*
X11815896Y-11754841D01*
X11815896Y-11754841D02*
X11882562Y-11611984D01*
X11882562Y-11611984D02*
X11882562Y-11811984D01*
X12063515Y-11811984D02*
X12063515Y-11707222D01*
X12063515Y-11707222D02*
X12053991Y-11688174D01*
X12053991Y-11688174D02*
X12034943Y-11678650D01*
X12034943Y-11678650D02*
X11996848Y-11678650D01*
X11996848Y-11678650D02*
X11977801Y-11688174D01*
X12063515Y-11802460D02*
X12044467Y-11811984D01*
X12044467Y-11811984D02*
X11996848Y-11811984D01*
X11996848Y-11811984D02*
X11977801Y-11802460D01*
X11977801Y-11802460D02*
X11968277Y-11783412D01*
X11968277Y-11783412D02*
X11968277Y-11764365D01*
X11968277Y-11764365D02*
X11977801Y-11745317D01*
X11977801Y-11745317D02*
X11996848Y-11735793D01*
X11996848Y-11735793D02*
X12044467Y-11735793D01*
X12044467Y-11735793D02*
X12063515Y-11726269D01*
X12158753Y-11678650D02*
X12158753Y-11878650D01*
X12158753Y-11688174D02*
X12177801Y-11678650D01*
X12177801Y-11678650D02*
X12215896Y-11678650D01*
X12215896Y-11678650D02*
X12234943Y-11688174D01*
X12234943Y-11688174D02*
X12244467Y-11697698D01*
X12244467Y-11697698D02*
X12253991Y-11716746D01*
X12253991Y-11716746D02*
X12253991Y-11773888D01*
X12253991Y-11773888D02*
X12244467Y-11792936D01*
X12244467Y-11792936D02*
X12234943Y-11802460D01*
X12234943Y-11802460D02*
X12215896Y-11811984D01*
X12215896Y-11811984D02*
X12177801Y-11811984D01*
X12177801Y-11811984D02*
X12158753Y-11802460D01*
X12339705Y-11792936D02*
X12349229Y-11802460D01*
X12349229Y-11802460D02*
X12339705Y-11811984D01*
X12339705Y-11811984D02*
X12330182Y-11802460D01*
X12330182Y-11802460D02*
X12339705Y-11792936D01*
X12339705Y-11792936D02*
X12339705Y-11811984D01*
X12339705Y-11688174D02*
X12349229Y-11697698D01*
X12349229Y-11697698D02*
X12339705Y-11707222D01*
X12339705Y-11707222D02*
X12330182Y-11697698D01*
X12330182Y-11697698D02*
X12339705Y-11688174D01*
X12339705Y-11688174D02*
X12339705Y-11707222D01*
D12*
X10677500Y-12125500D02*
X10707500Y-12155500D01*
X10707500Y-12125500D02*
X10677500Y-12155500D01*
D11*
X11006372Y-12031984D02*
X11025420Y-12031984D01*
X11025420Y-12031984D02*
X11044467Y-12041508D01*
X11044467Y-12041508D02*
X11053991Y-12051031D01*
X11053991Y-12051031D02*
X11063515Y-12070079D01*
X11063515Y-12070079D02*
X11073039Y-12108174D01*
X11073039Y-12108174D02*
X11073039Y-12155793D01*
X11073039Y-12155793D02*
X11063515Y-12193888D01*
X11063515Y-12193888D02*
X11053991Y-12212936D01*
X11053991Y-12212936D02*
X11044467Y-12222460D01*
X11044467Y-12222460D02*
X11025420Y-12231984D01*
X11025420Y-12231984D02*
X11006372Y-12231984D01*
X11006372Y-12231984D02*
X10987324Y-12222460D01*
X10987324Y-12222460D02*
X10977801Y-12212936D01*
X10977801Y-12212936D02*
X10968277Y-12193888D01*
X10968277Y-12193888D02*
X10958753Y-12155793D01*
X10958753Y-12155793D02*
X10958753Y-12108174D01*
X10958753Y-12108174D02*
X10968277Y-12070079D01*
X10968277Y-12070079D02*
X10977801Y-12051031D01*
X10977801Y-12051031D02*
X10987324Y-12041508D01*
X10987324Y-12041508D02*
X11006372Y-12031984D01*
X11158753Y-12212936D02*
X11168277Y-12222460D01*
X11168277Y-12222460D02*
X11158753Y-12231984D01*
X11158753Y-12231984D02*
X11149229Y-12222460D01*
X11149229Y-12222460D02*
X11158753Y-12212936D01*
X11158753Y-12212936D02*
X11158753Y-12231984D01*
X11234943Y-12031984D02*
X11358753Y-12031984D01*
X11358753Y-12031984D02*
X11292086Y-12108174D01*
X11292086Y-12108174D02*
X11320658Y-12108174D01*
X11320658Y-12108174D02*
X11339705Y-12117698D01*
X11339705Y-12117698D02*
X11349229Y-12127222D01*
X11349229Y-12127222D02*
X11358753Y-12146269D01*
X11358753Y-12146269D02*
X11358753Y-12193888D01*
X11358753Y-12193888D02*
X11349229Y-12212936D01*
X11349229Y-12212936D02*
X11339705Y-12222460D01*
X11339705Y-12222460D02*
X11320658Y-12231984D01*
X11320658Y-12231984D02*
X11263515Y-12231984D01*
X11263515Y-12231984D02*
X11244467Y-12222460D01*
X11244467Y-12222460D02*
X11234943Y-12212936D01*
X11482562Y-12031984D02*
X11501610Y-12031984D01*
X11501610Y-12031984D02*
X11520658Y-12041508D01*
X11520658Y-12041508D02*
X11530182Y-12051031D01*
X11530182Y-12051031D02*
X11539705Y-12070079D01*
X11539705Y-12070079D02*
X11549229Y-12108174D01*
X11549229Y-12108174D02*
X11549229Y-12155793D01*
X11549229Y-12155793D02*
X11539705Y-12193888D01*
X11539705Y-12193888D02*
X11530182Y-12212936D01*
X11530182Y-12212936D02*
X11520658Y-12222460D01*
X11520658Y-12222460D02*
X11501610Y-12231984D01*
X11501610Y-12231984D02*
X11482562Y-12231984D01*
X11482562Y-12231984D02*
X11463515Y-12222460D01*
X11463515Y-12222460D02*
X11453991Y-12212936D01*
X11453991Y-12212936D02*
X11444467Y-12193888D01*
X11444467Y-12193888D02*
X11434943Y-12155793D01*
X11434943Y-12155793D02*
X11434943Y-12108174D01*
X11434943Y-12108174D02*
X11444467Y-12070079D01*
X11444467Y-12070079D02*
X11453991Y-12051031D01*
X11453991Y-12051031D02*
X11463515Y-12041508D01*
X11463515Y-12041508D02*
X11482562Y-12031984D01*
X11673039Y-12031984D02*
X11692086Y-12031984D01*
X11692086Y-12031984D02*
X11711134Y-12041508D01*
X11711134Y-12041508D02*
X11720658Y-12051031D01*
X11720658Y-12051031D02*
X11730182Y-12070079D01*
X11730182Y-12070079D02*
X11739705Y-12108174D01*
X11739705Y-12108174D02*
X11739705Y-12155793D01*
X11739705Y-12155793D02*
X11730182Y-12193888D01*
X11730182Y-12193888D02*
X11720658Y-12212936D01*
X11720658Y-12212936D02*
X11711134Y-12222460D01*
X11711134Y-12222460D02*
X11692086Y-12231984D01*
X11692086Y-12231984D02*
X11673039Y-12231984D01*
X11673039Y-12231984D02*
X11653991Y-12222460D01*
X11653991Y-12222460D02*
X11644467Y-12212936D01*
X11644467Y-12212936D02*
X11634943Y-12193888D01*
X11634943Y-12193888D02*
X11625420Y-12155793D01*
X11625420Y-12155793D02*
X11625420Y-12108174D01*
X11625420Y-12108174D02*
X11634943Y-12070079D01*
X11634943Y-12070079D02*
X11644467Y-12051031D01*
X11644467Y-12051031D02*
X11653991Y-12041508D01*
X11653991Y-12041508D02*
X11673039Y-12031984D01*
X11825420Y-12231984D02*
X11825420Y-12098650D01*
X11825420Y-12117698D02*
X11834943Y-12108174D01*
X11834943Y-12108174D02*
X11853991Y-12098650D01*
X11853991Y-12098650D02*
X11882563Y-12098650D01*
X11882563Y-12098650D02*
X11901610Y-12108174D01*
X11901610Y-12108174D02*
X11911134Y-12127222D01*
X11911134Y-12127222D02*
X11911134Y-12231984D01*
X11911134Y-12127222D02*
X11920658Y-12108174D01*
X11920658Y-12108174D02*
X11939705Y-12098650D01*
X11939705Y-12098650D02*
X11968277Y-12098650D01*
X11968277Y-12098650D02*
X11987324Y-12108174D01*
X11987324Y-12108174D02*
X11996848Y-12127222D01*
X11996848Y-12127222D02*
X11996848Y-12231984D01*
X12092086Y-12231984D02*
X12092086Y-12098650D01*
X12092086Y-12117698D02*
X12101610Y-12108174D01*
X12101610Y-12108174D02*
X12120658Y-12098650D01*
X12120658Y-12098650D02*
X12149229Y-12098650D01*
X12149229Y-12098650D02*
X12168277Y-12108174D01*
X12168277Y-12108174D02*
X12177801Y-12127222D01*
X12177801Y-12127222D02*
X12177801Y-12231984D01*
X12177801Y-12127222D02*
X12187324Y-12108174D01*
X12187324Y-12108174D02*
X12206372Y-12098650D01*
X12206372Y-12098650D02*
X12234943Y-12098650D01*
X12234943Y-12098650D02*
X12253991Y-12108174D01*
X12253991Y-12108174D02*
X12263515Y-12127222D01*
X12263515Y-12127222D02*
X12263515Y-12231984D01*
X12653991Y-12022460D02*
X12482563Y-12279603D01*
X12911134Y-12031984D02*
X12930182Y-12031984D01*
X12930182Y-12031984D02*
X12949229Y-12041508D01*
X12949229Y-12041508D02*
X12958753Y-12051031D01*
X12958753Y-12051031D02*
X12968277Y-12070079D01*
X12968277Y-12070079D02*
X12977801Y-12108174D01*
X12977801Y-12108174D02*
X12977801Y-12155793D01*
X12977801Y-12155793D02*
X12968277Y-12193888D01*
X12968277Y-12193888D02*
X12958753Y-12212936D01*
X12958753Y-12212936D02*
X12949229Y-12222460D01*
X12949229Y-12222460D02*
X12930182Y-12231984D01*
X12930182Y-12231984D02*
X12911134Y-12231984D01*
X12911134Y-12231984D02*
X12892086Y-12222460D01*
X12892086Y-12222460D02*
X12882563Y-12212936D01*
X12882563Y-12212936D02*
X12873039Y-12193888D01*
X12873039Y-12193888D02*
X12863515Y-12155793D01*
X12863515Y-12155793D02*
X12863515Y-12108174D01*
X12863515Y-12108174D02*
X12873039Y-12070079D01*
X12873039Y-12070079D02*
X12882563Y-12051031D01*
X12882563Y-12051031D02*
X12892086Y-12041508D01*
X12892086Y-12041508D02*
X12911134Y-12031984D01*
X13063515Y-12212936D02*
X13073039Y-12222460D01*
X13073039Y-12222460D02*
X13063515Y-12231984D01*
X13063515Y-12231984D02*
X13053991Y-12222460D01*
X13053991Y-12222460D02*
X13063515Y-12212936D01*
X13063515Y-12212936D02*
X13063515Y-12231984D01*
X13196848Y-12031984D02*
X13215896Y-12031984D01*
X13215896Y-12031984D02*
X13234944Y-12041508D01*
X13234944Y-12041508D02*
X13244467Y-12051031D01*
X13244467Y-12051031D02*
X13253991Y-12070079D01*
X13253991Y-12070079D02*
X13263515Y-12108174D01*
X13263515Y-12108174D02*
X13263515Y-12155793D01*
X13263515Y-12155793D02*
X13253991Y-12193888D01*
X13253991Y-12193888D02*
X13244467Y-12212936D01*
X13244467Y-12212936D02*
X13234944Y-12222460D01*
X13234944Y-12222460D02*
X13215896Y-12231984D01*
X13215896Y-12231984D02*
X13196848Y-12231984D01*
X13196848Y-12231984D02*
X13177801Y-12222460D01*
X13177801Y-12222460D02*
X13168277Y-12212936D01*
X13168277Y-12212936D02*
X13158753Y-12193888D01*
X13158753Y-12193888D02*
X13149229Y-12155793D01*
X13149229Y-12155793D02*
X13149229Y-12108174D01*
X13149229Y-12108174D02*
X13158753Y-12070079D01*
X13158753Y-12070079D02*
X13168277Y-12051031D01*
X13168277Y-12051031D02*
X13177801Y-12041508D01*
X13177801Y-12041508D02*
X13196848Y-12031984D01*
X13453991Y-12231984D02*
X13339706Y-12231984D01*
X13396848Y-12231984D02*
X13396848Y-12031984D01*
X13396848Y-12031984D02*
X13377801Y-12060555D01*
X13377801Y-12060555D02*
X13358753Y-12079603D01*
X13358753Y-12079603D02*
X13339706Y-12089127D01*
X13644467Y-12231984D02*
X13530182Y-12231984D01*
X13587325Y-12231984D02*
X13587325Y-12031984D01*
X13587325Y-12031984D02*
X13568277Y-12060555D01*
X13568277Y-12060555D02*
X13549229Y-12079603D01*
X13549229Y-12079603D02*
X13530182Y-12089127D01*
X13758753Y-12117698D02*
X13739706Y-12108174D01*
X13739706Y-12108174D02*
X13730182Y-12098650D01*
X13730182Y-12098650D02*
X13720658Y-12079603D01*
X13720658Y-12079603D02*
X13720658Y-12070079D01*
X13720658Y-12070079D02*
X13730182Y-12051031D01*
X13730182Y-12051031D02*
X13739706Y-12041508D01*
X13739706Y-12041508D02*
X13758753Y-12031984D01*
X13758753Y-12031984D02*
X13796848Y-12031984D01*
X13796848Y-12031984D02*
X13815896Y-12041508D01*
X13815896Y-12041508D02*
X13825420Y-12051031D01*
X13825420Y-12051031D02*
X13834944Y-12070079D01*
X13834944Y-12070079D02*
X13834944Y-12079603D01*
X13834944Y-12079603D02*
X13825420Y-12098650D01*
X13825420Y-12098650D02*
X13815896Y-12108174D01*
X13815896Y-12108174D02*
X13796848Y-12117698D01*
X13796848Y-12117698D02*
X13758753Y-12117698D01*
X13758753Y-12117698D02*
X13739706Y-12127222D01*
X13739706Y-12127222D02*
X13730182Y-12136746D01*
X13730182Y-12136746D02*
X13720658Y-12155793D01*
X13720658Y-12155793D02*
X13720658Y-12193888D01*
X13720658Y-12193888D02*
X13730182Y-12212936D01*
X13730182Y-12212936D02*
X13739706Y-12222460D01*
X13739706Y-12222460D02*
X13758753Y-12231984D01*
X13758753Y-12231984D02*
X13796848Y-12231984D01*
X13796848Y-12231984D02*
X13815896Y-12222460D01*
X13815896Y-12222460D02*
X13825420Y-12212936D01*
X13825420Y-12212936D02*
X13834944Y-12193888D01*
X13834944Y-12193888D02*
X13834944Y-12155793D01*
X13834944Y-12155793D02*
X13825420Y-12136746D01*
X13825420Y-12136746D02*
X13815896Y-12127222D01*
X13815896Y-12127222D02*
X13796848Y-12117698D01*
X13911134Y-12031984D02*
X13911134Y-12070079D01*
X13987325Y-12031984D02*
X13987325Y-12070079D01*
X14282563Y-12308174D02*
X14273039Y-12298650D01*
X14273039Y-12298650D02*
X14253991Y-12270079D01*
X14253991Y-12270079D02*
X14244468Y-12251031D01*
X14244468Y-12251031D02*
X14234944Y-12222460D01*
X14234944Y-12222460D02*
X14225420Y-12174841D01*
X14225420Y-12174841D02*
X14225420Y-12136746D01*
X14225420Y-12136746D02*
X14234944Y-12089127D01*
X14234944Y-12089127D02*
X14244468Y-12060555D01*
X14244468Y-12060555D02*
X14253991Y-12041508D01*
X14253991Y-12041508D02*
X14273039Y-12012936D01*
X14273039Y-12012936D02*
X14282563Y-12003412D01*
X14387325Y-12117698D02*
X14368277Y-12108174D01*
X14368277Y-12108174D02*
X14358753Y-12098650D01*
X14358753Y-12098650D02*
X14349229Y-12079603D01*
X14349229Y-12079603D02*
X14349229Y-12070079D01*
X14349229Y-12070079D02*
X14358753Y-12051031D01*
X14358753Y-12051031D02*
X14368277Y-12041508D01*
X14368277Y-12041508D02*
X14387325Y-12031984D01*
X14387325Y-12031984D02*
X14425420Y-12031984D01*
X14425420Y-12031984D02*
X14444468Y-12041508D01*
X14444468Y-12041508D02*
X14453991Y-12051031D01*
X14453991Y-12051031D02*
X14463515Y-12070079D01*
X14463515Y-12070079D02*
X14463515Y-12079603D01*
X14463515Y-12079603D02*
X14453991Y-12098650D01*
X14453991Y-12098650D02*
X14444468Y-12108174D01*
X14444468Y-12108174D02*
X14425420Y-12117698D01*
X14425420Y-12117698D02*
X14387325Y-12117698D01*
X14387325Y-12117698D02*
X14368277Y-12127222D01*
X14368277Y-12127222D02*
X14358753Y-12136746D01*
X14358753Y-12136746D02*
X14349229Y-12155793D01*
X14349229Y-12155793D02*
X14349229Y-12193888D01*
X14349229Y-12193888D02*
X14358753Y-12212936D01*
X14358753Y-12212936D02*
X14368277Y-12222460D01*
X14368277Y-12222460D02*
X14387325Y-12231984D01*
X14387325Y-12231984D02*
X14425420Y-12231984D01*
X14425420Y-12231984D02*
X14444468Y-12222460D01*
X14444468Y-12222460D02*
X14453991Y-12212936D01*
X14453991Y-12212936D02*
X14463515Y-12193888D01*
X14463515Y-12193888D02*
X14463515Y-12155793D01*
X14463515Y-12155793D02*
X14453991Y-12136746D01*
X14453991Y-12136746D02*
X14444468Y-12127222D01*
X14444468Y-12127222D02*
X14425420Y-12117698D01*
X14701610Y-12231984D02*
X14701610Y-12031984D01*
X14787325Y-12231984D02*
X14787325Y-12127222D01*
X14787325Y-12127222D02*
X14777801Y-12108174D01*
X14777801Y-12108174D02*
X14758753Y-12098650D01*
X14758753Y-12098650D02*
X14730182Y-12098650D01*
X14730182Y-12098650D02*
X14711134Y-12108174D01*
X14711134Y-12108174D02*
X14701610Y-12117698D01*
X14911134Y-12231984D02*
X14892087Y-12222460D01*
X14892087Y-12222460D02*
X14882563Y-12212936D01*
X14882563Y-12212936D02*
X14873039Y-12193888D01*
X14873039Y-12193888D02*
X14873039Y-12136746D01*
X14873039Y-12136746D02*
X14882563Y-12117698D01*
X14882563Y-12117698D02*
X14892087Y-12108174D01*
X14892087Y-12108174D02*
X14911134Y-12098650D01*
X14911134Y-12098650D02*
X14939706Y-12098650D01*
X14939706Y-12098650D02*
X14958753Y-12108174D01*
X14958753Y-12108174D02*
X14968277Y-12117698D01*
X14968277Y-12117698D02*
X14977801Y-12136746D01*
X14977801Y-12136746D02*
X14977801Y-12193888D01*
X14977801Y-12193888D02*
X14968277Y-12212936D01*
X14968277Y-12212936D02*
X14958753Y-12222460D01*
X14958753Y-12222460D02*
X14939706Y-12231984D01*
X14939706Y-12231984D02*
X14911134Y-12231984D01*
X15092087Y-12231984D02*
X15073039Y-12222460D01*
X15073039Y-12222460D02*
X15063515Y-12203412D01*
X15063515Y-12203412D02*
X15063515Y-12031984D01*
X15244468Y-12222460D02*
X15225420Y-12231984D01*
X15225420Y-12231984D02*
X15187325Y-12231984D01*
X15187325Y-12231984D02*
X15168277Y-12222460D01*
X15168277Y-12222460D02*
X15158753Y-12203412D01*
X15158753Y-12203412D02*
X15158753Y-12127222D01*
X15158753Y-12127222D02*
X15168277Y-12108174D01*
X15168277Y-12108174D02*
X15187325Y-12098650D01*
X15187325Y-12098650D02*
X15225420Y-12098650D01*
X15225420Y-12098650D02*
X15244468Y-12108174D01*
X15244468Y-12108174D02*
X15253991Y-12127222D01*
X15253991Y-12127222D02*
X15253991Y-12146269D01*
X15253991Y-12146269D02*
X15158753Y-12165317D01*
X15330182Y-12222460D02*
X15349230Y-12231984D01*
X15349230Y-12231984D02*
X15387325Y-12231984D01*
X15387325Y-12231984D02*
X15406372Y-12222460D01*
X15406372Y-12222460D02*
X15415896Y-12203412D01*
X15415896Y-12203412D02*
X15415896Y-12193888D01*
X15415896Y-12193888D02*
X15406372Y-12174841D01*
X15406372Y-12174841D02*
X15387325Y-12165317D01*
X15387325Y-12165317D02*
X15358753Y-12165317D01*
X15358753Y-12165317D02*
X15339706Y-12155793D01*
X15339706Y-12155793D02*
X15330182Y-12136746D01*
X15330182Y-12136746D02*
X15330182Y-12127222D01*
X15330182Y-12127222D02*
X15339706Y-12108174D01*
X15339706Y-12108174D02*
X15358753Y-12098650D01*
X15358753Y-12098650D02*
X15387325Y-12098650D01*
X15387325Y-12098650D02*
X15406372Y-12108174D01*
X15482563Y-12308174D02*
X15492087Y-12298650D01*
X15492087Y-12298650D02*
X15511134Y-12270079D01*
X15511134Y-12270079D02*
X15520658Y-12251031D01*
X15520658Y-12251031D02*
X15530182Y-12222460D01*
X15530182Y-12222460D02*
X15539706Y-12174841D01*
X15539706Y-12174841D02*
X15539706Y-12136746D01*
X15539706Y-12136746D02*
X15530182Y-12089127D01*
X15530182Y-12089127D02*
X15520658Y-12060555D01*
X15520658Y-12060555D02*
X15511134Y-12041508D01*
X15511134Y-12041508D02*
X15492087Y-12012936D01*
X15492087Y-12012936D02*
X15482563Y-12003412D01*
D12*
X10707500Y-12404500D02*
G75*
G02*
X10632500Y-12404500I-37500J0D01*
G01*
X10632500Y-12404500D02*
G75*
G02*
X10707500Y-12404500I37500J0D01*
G01*
D11*
X11006372Y-12295984D02*
X11025420Y-12295984D01*
X11025420Y-12295984D02*
X11044467Y-12305508D01*
X11044467Y-12305508D02*
X11053991Y-12315031D01*
X11053991Y-12315031D02*
X11063515Y-12334079D01*
X11063515Y-12334079D02*
X11073039Y-12372174D01*
X11073039Y-12372174D02*
X11073039Y-12419793D01*
X11073039Y-12419793D02*
X11063515Y-12457888D01*
X11063515Y-12457888D02*
X11053991Y-12476936D01*
X11053991Y-12476936D02*
X11044467Y-12486460D01*
X11044467Y-12486460D02*
X11025420Y-12495984D01*
X11025420Y-12495984D02*
X11006372Y-12495984D01*
X11006372Y-12495984D02*
X10987324Y-12486460D01*
X10987324Y-12486460D02*
X10977801Y-12476936D01*
X10977801Y-12476936D02*
X10968277Y-12457888D01*
X10968277Y-12457888D02*
X10958753Y-12419793D01*
X10958753Y-12419793D02*
X10958753Y-12372174D01*
X10958753Y-12372174D02*
X10968277Y-12334079D01*
X10968277Y-12334079D02*
X10977801Y-12315031D01*
X10977801Y-12315031D02*
X10987324Y-12305508D01*
X10987324Y-12305508D02*
X11006372Y-12295984D01*
X11158753Y-12476936D02*
X11168277Y-12486460D01*
X11168277Y-12486460D02*
X11158753Y-12495984D01*
X11158753Y-12495984D02*
X11149229Y-12486460D01*
X11149229Y-12486460D02*
X11158753Y-12476936D01*
X11158753Y-12476936D02*
X11158753Y-12495984D01*
X11234943Y-12295984D02*
X11368277Y-12295984D01*
X11368277Y-12295984D02*
X11282562Y-12495984D01*
X11539705Y-12295984D02*
X11444467Y-12295984D01*
X11444467Y-12295984D02*
X11434943Y-12391222D01*
X11434943Y-12391222D02*
X11444467Y-12381698D01*
X11444467Y-12381698D02*
X11463515Y-12372174D01*
X11463515Y-12372174D02*
X11511134Y-12372174D01*
X11511134Y-12372174D02*
X11530182Y-12381698D01*
X11530182Y-12381698D02*
X11539705Y-12391222D01*
X11539705Y-12391222D02*
X11549229Y-12410269D01*
X11549229Y-12410269D02*
X11549229Y-12457888D01*
X11549229Y-12457888D02*
X11539705Y-12476936D01*
X11539705Y-12476936D02*
X11530182Y-12486460D01*
X11530182Y-12486460D02*
X11511134Y-12495984D01*
X11511134Y-12495984D02*
X11463515Y-12495984D01*
X11463515Y-12495984D02*
X11444467Y-12486460D01*
X11444467Y-12486460D02*
X11434943Y-12476936D01*
X11673039Y-12295984D02*
X11692086Y-12295984D01*
X11692086Y-12295984D02*
X11711134Y-12305508D01*
X11711134Y-12305508D02*
X11720658Y-12315031D01*
X11720658Y-12315031D02*
X11730182Y-12334079D01*
X11730182Y-12334079D02*
X11739705Y-12372174D01*
X11739705Y-12372174D02*
X11739705Y-12419793D01*
X11739705Y-12419793D02*
X11730182Y-12457888D01*
X11730182Y-12457888D02*
X11720658Y-12476936D01*
X11720658Y-12476936D02*
X11711134Y-12486460D01*
X11711134Y-12486460D02*
X11692086Y-12495984D01*
X11692086Y-12495984D02*
X11673039Y-12495984D01*
X11673039Y-12495984D02*
X11653991Y-12486460D01*
X11653991Y-12486460D02*
X11644467Y-12476936D01*
X11644467Y-12476936D02*
X11634943Y-12457888D01*
X11634943Y-12457888D02*
X11625420Y-12419793D01*
X11625420Y-12419793D02*
X11625420Y-12372174D01*
X11625420Y-12372174D02*
X11634943Y-12334079D01*
X11634943Y-12334079D02*
X11644467Y-12315031D01*
X11644467Y-12315031D02*
X11653991Y-12305508D01*
X11653991Y-12305508D02*
X11673039Y-12295984D01*
X11825420Y-12495984D02*
X11825420Y-12362650D01*
X11825420Y-12381698D02*
X11834943Y-12372174D01*
X11834943Y-12372174D02*
X11853991Y-12362650D01*
X11853991Y-12362650D02*
X11882563Y-12362650D01*
X11882563Y-12362650D02*
X11901610Y-12372174D01*
X11901610Y-12372174D02*
X11911134Y-12391222D01*
X11911134Y-12391222D02*
X11911134Y-12495984D01*
X11911134Y-12391222D02*
X11920658Y-12372174D01*
X11920658Y-12372174D02*
X11939705Y-12362650D01*
X11939705Y-12362650D02*
X11968277Y-12362650D01*
X11968277Y-12362650D02*
X11987324Y-12372174D01*
X11987324Y-12372174D02*
X11996848Y-12391222D01*
X11996848Y-12391222D02*
X11996848Y-12495984D01*
X12092086Y-12495984D02*
X12092086Y-12362650D01*
X12092086Y-12381698D02*
X12101610Y-12372174D01*
X12101610Y-12372174D02*
X12120658Y-12362650D01*
X12120658Y-12362650D02*
X12149229Y-12362650D01*
X12149229Y-12362650D02*
X12168277Y-12372174D01*
X12168277Y-12372174D02*
X12177801Y-12391222D01*
X12177801Y-12391222D02*
X12177801Y-12495984D01*
X12177801Y-12391222D02*
X12187324Y-12372174D01*
X12187324Y-12372174D02*
X12206372Y-12362650D01*
X12206372Y-12362650D02*
X12234943Y-12362650D01*
X12234943Y-12362650D02*
X12253991Y-12372174D01*
X12253991Y-12372174D02*
X12263515Y-12391222D01*
X12263515Y-12391222D02*
X12263515Y-12495984D01*
X12653991Y-12286460D02*
X12482563Y-12543603D01*
X12911134Y-12295984D02*
X12930182Y-12295984D01*
X12930182Y-12295984D02*
X12949229Y-12305508D01*
X12949229Y-12305508D02*
X12958753Y-12315031D01*
X12958753Y-12315031D02*
X12968277Y-12334079D01*
X12968277Y-12334079D02*
X12977801Y-12372174D01*
X12977801Y-12372174D02*
X12977801Y-12419793D01*
X12977801Y-12419793D02*
X12968277Y-12457888D01*
X12968277Y-12457888D02*
X12958753Y-12476936D01*
X12958753Y-12476936D02*
X12949229Y-12486460D01*
X12949229Y-12486460D02*
X12930182Y-12495984D01*
X12930182Y-12495984D02*
X12911134Y-12495984D01*
X12911134Y-12495984D02*
X12892086Y-12486460D01*
X12892086Y-12486460D02*
X12882563Y-12476936D01*
X12882563Y-12476936D02*
X12873039Y-12457888D01*
X12873039Y-12457888D02*
X12863515Y-12419793D01*
X12863515Y-12419793D02*
X12863515Y-12372174D01*
X12863515Y-12372174D02*
X12873039Y-12334079D01*
X12873039Y-12334079D02*
X12882563Y-12315031D01*
X12882563Y-12315031D02*
X12892086Y-12305508D01*
X12892086Y-12305508D02*
X12911134Y-12295984D01*
X13063515Y-12476936D02*
X13073039Y-12486460D01*
X13073039Y-12486460D02*
X13063515Y-12495984D01*
X13063515Y-12495984D02*
X13053991Y-12486460D01*
X13053991Y-12486460D02*
X13063515Y-12476936D01*
X13063515Y-12476936D02*
X13063515Y-12495984D01*
X13196848Y-12295984D02*
X13215896Y-12295984D01*
X13215896Y-12295984D02*
X13234944Y-12305508D01*
X13234944Y-12305508D02*
X13244467Y-12315031D01*
X13244467Y-12315031D02*
X13253991Y-12334079D01*
X13253991Y-12334079D02*
X13263515Y-12372174D01*
X13263515Y-12372174D02*
X13263515Y-12419793D01*
X13263515Y-12419793D02*
X13253991Y-12457888D01*
X13253991Y-12457888D02*
X13244467Y-12476936D01*
X13244467Y-12476936D02*
X13234944Y-12486460D01*
X13234944Y-12486460D02*
X13215896Y-12495984D01*
X13215896Y-12495984D02*
X13196848Y-12495984D01*
X13196848Y-12495984D02*
X13177801Y-12486460D01*
X13177801Y-12486460D02*
X13168277Y-12476936D01*
X13168277Y-12476936D02*
X13158753Y-12457888D01*
X13158753Y-12457888D02*
X13149229Y-12419793D01*
X13149229Y-12419793D02*
X13149229Y-12372174D01*
X13149229Y-12372174D02*
X13158753Y-12334079D01*
X13158753Y-12334079D02*
X13168277Y-12315031D01*
X13168277Y-12315031D02*
X13177801Y-12305508D01*
X13177801Y-12305508D02*
X13196848Y-12295984D01*
X13339706Y-12315031D02*
X13349229Y-12305508D01*
X13349229Y-12305508D02*
X13368277Y-12295984D01*
X13368277Y-12295984D02*
X13415896Y-12295984D01*
X13415896Y-12295984D02*
X13434944Y-12305508D01*
X13434944Y-12305508D02*
X13444467Y-12315031D01*
X13444467Y-12315031D02*
X13453991Y-12334079D01*
X13453991Y-12334079D02*
X13453991Y-12353127D01*
X13453991Y-12353127D02*
X13444467Y-12381698D01*
X13444467Y-12381698D02*
X13330182Y-12495984D01*
X13330182Y-12495984D02*
X13453991Y-12495984D01*
X13549229Y-12495984D02*
X13587325Y-12495984D01*
X13587325Y-12495984D02*
X13606372Y-12486460D01*
X13606372Y-12486460D02*
X13615896Y-12476936D01*
X13615896Y-12476936D02*
X13634944Y-12448365D01*
X13634944Y-12448365D02*
X13644467Y-12410269D01*
X13644467Y-12410269D02*
X13644467Y-12334079D01*
X13644467Y-12334079D02*
X13634944Y-12315031D01*
X13634944Y-12315031D02*
X13625420Y-12305508D01*
X13625420Y-12305508D02*
X13606372Y-12295984D01*
X13606372Y-12295984D02*
X13568277Y-12295984D01*
X13568277Y-12295984D02*
X13549229Y-12305508D01*
X13549229Y-12305508D02*
X13539706Y-12315031D01*
X13539706Y-12315031D02*
X13530182Y-12334079D01*
X13530182Y-12334079D02*
X13530182Y-12381698D01*
X13530182Y-12381698D02*
X13539706Y-12400746D01*
X13539706Y-12400746D02*
X13549229Y-12410269D01*
X13549229Y-12410269D02*
X13568277Y-12419793D01*
X13568277Y-12419793D02*
X13606372Y-12419793D01*
X13606372Y-12419793D02*
X13625420Y-12410269D01*
X13625420Y-12410269D02*
X13634944Y-12400746D01*
X13634944Y-12400746D02*
X13644467Y-12381698D01*
X13825420Y-12295984D02*
X13730182Y-12295984D01*
X13730182Y-12295984D02*
X13720658Y-12391222D01*
X13720658Y-12391222D02*
X13730182Y-12381698D01*
X13730182Y-12381698D02*
X13749229Y-12372174D01*
X13749229Y-12372174D02*
X13796848Y-12372174D01*
X13796848Y-12372174D02*
X13815896Y-12381698D01*
X13815896Y-12381698D02*
X13825420Y-12391222D01*
X13825420Y-12391222D02*
X13834944Y-12410269D01*
X13834944Y-12410269D02*
X13834944Y-12457888D01*
X13834944Y-12457888D02*
X13825420Y-12476936D01*
X13825420Y-12476936D02*
X13815896Y-12486460D01*
X13815896Y-12486460D02*
X13796848Y-12495984D01*
X13796848Y-12495984D02*
X13749229Y-12495984D01*
X13749229Y-12495984D02*
X13730182Y-12486460D01*
X13730182Y-12486460D02*
X13720658Y-12476936D01*
X13911134Y-12295984D02*
X13911134Y-12334079D01*
X13987325Y-12295984D02*
X13987325Y-12334079D01*
X14282563Y-12572174D02*
X14273039Y-12562650D01*
X14273039Y-12562650D02*
X14253991Y-12534079D01*
X14253991Y-12534079D02*
X14244468Y-12515031D01*
X14244468Y-12515031D02*
X14234944Y-12486460D01*
X14234944Y-12486460D02*
X14225420Y-12438841D01*
X14225420Y-12438841D02*
X14225420Y-12400746D01*
X14225420Y-12400746D02*
X14234944Y-12353127D01*
X14234944Y-12353127D02*
X14244468Y-12324555D01*
X14244468Y-12324555D02*
X14253991Y-12305508D01*
X14253991Y-12305508D02*
X14273039Y-12276936D01*
X14273039Y-12276936D02*
X14282563Y-12267412D01*
X14463515Y-12495984D02*
X14349229Y-12495984D01*
X14406372Y-12495984D02*
X14406372Y-12295984D01*
X14406372Y-12295984D02*
X14387325Y-12324555D01*
X14387325Y-12324555D02*
X14368277Y-12343603D01*
X14368277Y-12343603D02*
X14349229Y-12353127D01*
X14644468Y-12295984D02*
X14549229Y-12295984D01*
X14549229Y-12295984D02*
X14539706Y-12391222D01*
X14539706Y-12391222D02*
X14549229Y-12381698D01*
X14549229Y-12381698D02*
X14568277Y-12372174D01*
X14568277Y-12372174D02*
X14615896Y-12372174D01*
X14615896Y-12372174D02*
X14634944Y-12381698D01*
X14634944Y-12381698D02*
X14644468Y-12391222D01*
X14644468Y-12391222D02*
X14653991Y-12410269D01*
X14653991Y-12410269D02*
X14653991Y-12457888D01*
X14653991Y-12457888D02*
X14644468Y-12476936D01*
X14644468Y-12476936D02*
X14634944Y-12486460D01*
X14634944Y-12486460D02*
X14615896Y-12495984D01*
X14615896Y-12495984D02*
X14568277Y-12495984D01*
X14568277Y-12495984D02*
X14549229Y-12486460D01*
X14549229Y-12486460D02*
X14539706Y-12476936D01*
X14892087Y-12495984D02*
X14892087Y-12295984D01*
X14977801Y-12495984D02*
X14977801Y-12391222D01*
X14977801Y-12391222D02*
X14968277Y-12372174D01*
X14968277Y-12372174D02*
X14949230Y-12362650D01*
X14949230Y-12362650D02*
X14920658Y-12362650D01*
X14920658Y-12362650D02*
X14901610Y-12372174D01*
X14901610Y-12372174D02*
X14892087Y-12381698D01*
X15101610Y-12495984D02*
X15082563Y-12486460D01*
X15082563Y-12486460D02*
X15073039Y-12476936D01*
X15073039Y-12476936D02*
X15063515Y-12457888D01*
X15063515Y-12457888D02*
X15063515Y-12400746D01*
X15063515Y-12400746D02*
X15073039Y-12381698D01*
X15073039Y-12381698D02*
X15082563Y-12372174D01*
X15082563Y-12372174D02*
X15101610Y-12362650D01*
X15101610Y-12362650D02*
X15130182Y-12362650D01*
X15130182Y-12362650D02*
X15149230Y-12372174D01*
X15149230Y-12372174D02*
X15158753Y-12381698D01*
X15158753Y-12381698D02*
X15168277Y-12400746D01*
X15168277Y-12400746D02*
X15168277Y-12457888D01*
X15168277Y-12457888D02*
X15158753Y-12476936D01*
X15158753Y-12476936D02*
X15149230Y-12486460D01*
X15149230Y-12486460D02*
X15130182Y-12495984D01*
X15130182Y-12495984D02*
X15101610Y-12495984D01*
X15282563Y-12495984D02*
X15263515Y-12486460D01*
X15263515Y-12486460D02*
X15253991Y-12467412D01*
X15253991Y-12467412D02*
X15253991Y-12295984D01*
X15434944Y-12486460D02*
X15415896Y-12495984D01*
X15415896Y-12495984D02*
X15377801Y-12495984D01*
X15377801Y-12495984D02*
X15358753Y-12486460D01*
X15358753Y-12486460D02*
X15349230Y-12467412D01*
X15349230Y-12467412D02*
X15349230Y-12391222D01*
X15349230Y-12391222D02*
X15358753Y-12372174D01*
X15358753Y-12372174D02*
X15377801Y-12362650D01*
X15377801Y-12362650D02*
X15415896Y-12362650D01*
X15415896Y-12362650D02*
X15434944Y-12372174D01*
X15434944Y-12372174D02*
X15444468Y-12391222D01*
X15444468Y-12391222D02*
X15444468Y-12410269D01*
X15444468Y-12410269D02*
X15349230Y-12429317D01*
X15520658Y-12486460D02*
X15539706Y-12495984D01*
X15539706Y-12495984D02*
X15577801Y-12495984D01*
X15577801Y-12495984D02*
X15596849Y-12486460D01*
X15596849Y-12486460D02*
X15606372Y-12467412D01*
X15606372Y-12467412D02*
X15606372Y-12457888D01*
X15606372Y-12457888D02*
X15596849Y-12438841D01*
X15596849Y-12438841D02*
X15577801Y-12429317D01*
X15577801Y-12429317D02*
X15549230Y-12429317D01*
X15549230Y-12429317D02*
X15530182Y-12419793D01*
X15530182Y-12419793D02*
X15520658Y-12400746D01*
X15520658Y-12400746D02*
X15520658Y-12391222D01*
X15520658Y-12391222D02*
X15530182Y-12372174D01*
X15530182Y-12372174D02*
X15549230Y-12362650D01*
X15549230Y-12362650D02*
X15577801Y-12362650D01*
X15577801Y-12362650D02*
X15596849Y-12372174D01*
X15673039Y-12572174D02*
X15682563Y-12562650D01*
X15682563Y-12562650D02*
X15701611Y-12534079D01*
X15701611Y-12534079D02*
X15711134Y-12515031D01*
X15711134Y-12515031D02*
X15720658Y-12486460D01*
X15720658Y-12486460D02*
X15730182Y-12438841D01*
X15730182Y-12438841D02*
X15730182Y-12400746D01*
X15730182Y-12400746D02*
X15720658Y-12353127D01*
X15720658Y-12353127D02*
X15711134Y-12324555D01*
X15711134Y-12324555D02*
X15701611Y-12305508D01*
X15701611Y-12305508D02*
X15682563Y-12276936D01*
X15682563Y-12276936D02*
X15673039Y-12267412D01*
D12*
X10662500Y-12623500D02*
X10662500Y-12713500D01*
X10617500Y-12668500D02*
X10707500Y-12668500D01*
D11*
X11006372Y-12559984D02*
X11025420Y-12559984D01*
X11025420Y-12559984D02*
X11044467Y-12569508D01*
X11044467Y-12569508D02*
X11053991Y-12579031D01*
X11053991Y-12579031D02*
X11063515Y-12598079D01*
X11063515Y-12598079D02*
X11073039Y-12636174D01*
X11073039Y-12636174D02*
X11073039Y-12683793D01*
X11073039Y-12683793D02*
X11063515Y-12721888D01*
X11063515Y-12721888D02*
X11053991Y-12740936D01*
X11053991Y-12740936D02*
X11044467Y-12750460D01*
X11044467Y-12750460D02*
X11025420Y-12759984D01*
X11025420Y-12759984D02*
X11006372Y-12759984D01*
X11006372Y-12759984D02*
X10987324Y-12750460D01*
X10987324Y-12750460D02*
X10977801Y-12740936D01*
X10977801Y-12740936D02*
X10968277Y-12721888D01*
X10968277Y-12721888D02*
X10958753Y-12683793D01*
X10958753Y-12683793D02*
X10958753Y-12636174D01*
X10958753Y-12636174D02*
X10968277Y-12598079D01*
X10968277Y-12598079D02*
X10977801Y-12579031D01*
X10977801Y-12579031D02*
X10987324Y-12569508D01*
X10987324Y-12569508D02*
X11006372Y-12559984D01*
X11158753Y-12740936D02*
X11168277Y-12750460D01*
X11168277Y-12750460D02*
X11158753Y-12759984D01*
X11158753Y-12759984D02*
X11149229Y-12750460D01*
X11149229Y-12750460D02*
X11158753Y-12740936D01*
X11158753Y-12740936D02*
X11158753Y-12759984D01*
X11263515Y-12759984D02*
X11301610Y-12759984D01*
X11301610Y-12759984D02*
X11320658Y-12750460D01*
X11320658Y-12750460D02*
X11330182Y-12740936D01*
X11330182Y-12740936D02*
X11349229Y-12712365D01*
X11349229Y-12712365D02*
X11358753Y-12674269D01*
X11358753Y-12674269D02*
X11358753Y-12598079D01*
X11358753Y-12598079D02*
X11349229Y-12579031D01*
X11349229Y-12579031D02*
X11339705Y-12569508D01*
X11339705Y-12569508D02*
X11320658Y-12559984D01*
X11320658Y-12559984D02*
X11282562Y-12559984D01*
X11282562Y-12559984D02*
X11263515Y-12569508D01*
X11263515Y-12569508D02*
X11253991Y-12579031D01*
X11253991Y-12579031D02*
X11244467Y-12598079D01*
X11244467Y-12598079D02*
X11244467Y-12645698D01*
X11244467Y-12645698D02*
X11253991Y-12664746D01*
X11253991Y-12664746D02*
X11263515Y-12674269D01*
X11263515Y-12674269D02*
X11282562Y-12683793D01*
X11282562Y-12683793D02*
X11320658Y-12683793D01*
X11320658Y-12683793D02*
X11339705Y-12674269D01*
X11339705Y-12674269D02*
X11349229Y-12664746D01*
X11349229Y-12664746D02*
X11358753Y-12645698D01*
X11482562Y-12559984D02*
X11501610Y-12559984D01*
X11501610Y-12559984D02*
X11520658Y-12569508D01*
X11520658Y-12569508D02*
X11530182Y-12579031D01*
X11530182Y-12579031D02*
X11539705Y-12598079D01*
X11539705Y-12598079D02*
X11549229Y-12636174D01*
X11549229Y-12636174D02*
X11549229Y-12683793D01*
X11549229Y-12683793D02*
X11539705Y-12721888D01*
X11539705Y-12721888D02*
X11530182Y-12740936D01*
X11530182Y-12740936D02*
X11520658Y-12750460D01*
X11520658Y-12750460D02*
X11501610Y-12759984D01*
X11501610Y-12759984D02*
X11482562Y-12759984D01*
X11482562Y-12759984D02*
X11463515Y-12750460D01*
X11463515Y-12750460D02*
X11453991Y-12740936D01*
X11453991Y-12740936D02*
X11444467Y-12721888D01*
X11444467Y-12721888D02*
X11434943Y-12683793D01*
X11434943Y-12683793D02*
X11434943Y-12636174D01*
X11434943Y-12636174D02*
X11444467Y-12598079D01*
X11444467Y-12598079D02*
X11453991Y-12579031D01*
X11453991Y-12579031D02*
X11463515Y-12569508D01*
X11463515Y-12569508D02*
X11482562Y-12559984D01*
X11673039Y-12559984D02*
X11692086Y-12559984D01*
X11692086Y-12559984D02*
X11711134Y-12569508D01*
X11711134Y-12569508D02*
X11720658Y-12579031D01*
X11720658Y-12579031D02*
X11730182Y-12598079D01*
X11730182Y-12598079D02*
X11739705Y-12636174D01*
X11739705Y-12636174D02*
X11739705Y-12683793D01*
X11739705Y-12683793D02*
X11730182Y-12721888D01*
X11730182Y-12721888D02*
X11720658Y-12740936D01*
X11720658Y-12740936D02*
X11711134Y-12750460D01*
X11711134Y-12750460D02*
X11692086Y-12759984D01*
X11692086Y-12759984D02*
X11673039Y-12759984D01*
X11673039Y-12759984D02*
X11653991Y-12750460D01*
X11653991Y-12750460D02*
X11644467Y-12740936D01*
X11644467Y-12740936D02*
X11634943Y-12721888D01*
X11634943Y-12721888D02*
X11625420Y-12683793D01*
X11625420Y-12683793D02*
X11625420Y-12636174D01*
X11625420Y-12636174D02*
X11634943Y-12598079D01*
X11634943Y-12598079D02*
X11644467Y-12579031D01*
X11644467Y-12579031D02*
X11653991Y-12569508D01*
X11653991Y-12569508D02*
X11673039Y-12559984D01*
X11825420Y-12759984D02*
X11825420Y-12626650D01*
X11825420Y-12645698D02*
X11834943Y-12636174D01*
X11834943Y-12636174D02*
X11853991Y-12626650D01*
X11853991Y-12626650D02*
X11882563Y-12626650D01*
X11882563Y-12626650D02*
X11901610Y-12636174D01*
X11901610Y-12636174D02*
X11911134Y-12655222D01*
X11911134Y-12655222D02*
X11911134Y-12759984D01*
X11911134Y-12655222D02*
X11920658Y-12636174D01*
X11920658Y-12636174D02*
X11939705Y-12626650D01*
X11939705Y-12626650D02*
X11968277Y-12626650D01*
X11968277Y-12626650D02*
X11987324Y-12636174D01*
X11987324Y-12636174D02*
X11996848Y-12655222D01*
X11996848Y-12655222D02*
X11996848Y-12759984D01*
X12092086Y-12759984D02*
X12092086Y-12626650D01*
X12092086Y-12645698D02*
X12101610Y-12636174D01*
X12101610Y-12636174D02*
X12120658Y-12626650D01*
X12120658Y-12626650D02*
X12149229Y-12626650D01*
X12149229Y-12626650D02*
X12168277Y-12636174D01*
X12168277Y-12636174D02*
X12177801Y-12655222D01*
X12177801Y-12655222D02*
X12177801Y-12759984D01*
X12177801Y-12655222D02*
X12187324Y-12636174D01*
X12187324Y-12636174D02*
X12206372Y-12626650D01*
X12206372Y-12626650D02*
X12234943Y-12626650D01*
X12234943Y-12626650D02*
X12253991Y-12636174D01*
X12253991Y-12636174D02*
X12263515Y-12655222D01*
X12263515Y-12655222D02*
X12263515Y-12759984D01*
X12653991Y-12550460D02*
X12482563Y-12807603D01*
X12911134Y-12559984D02*
X12930182Y-12559984D01*
X12930182Y-12559984D02*
X12949229Y-12569508D01*
X12949229Y-12569508D02*
X12958753Y-12579031D01*
X12958753Y-12579031D02*
X12968277Y-12598079D01*
X12968277Y-12598079D02*
X12977801Y-12636174D01*
X12977801Y-12636174D02*
X12977801Y-12683793D01*
X12977801Y-12683793D02*
X12968277Y-12721888D01*
X12968277Y-12721888D02*
X12958753Y-12740936D01*
X12958753Y-12740936D02*
X12949229Y-12750460D01*
X12949229Y-12750460D02*
X12930182Y-12759984D01*
X12930182Y-12759984D02*
X12911134Y-12759984D01*
X12911134Y-12759984D02*
X12892086Y-12750460D01*
X12892086Y-12750460D02*
X12882563Y-12740936D01*
X12882563Y-12740936D02*
X12873039Y-12721888D01*
X12873039Y-12721888D02*
X12863515Y-12683793D01*
X12863515Y-12683793D02*
X12863515Y-12636174D01*
X12863515Y-12636174D02*
X12873039Y-12598079D01*
X12873039Y-12598079D02*
X12882563Y-12579031D01*
X12882563Y-12579031D02*
X12892086Y-12569508D01*
X12892086Y-12569508D02*
X12911134Y-12559984D01*
X13063515Y-12740936D02*
X13073039Y-12750460D01*
X13073039Y-12750460D02*
X13063515Y-12759984D01*
X13063515Y-12759984D02*
X13053991Y-12750460D01*
X13053991Y-12750460D02*
X13063515Y-12740936D01*
X13063515Y-12740936D02*
X13063515Y-12759984D01*
X13196848Y-12559984D02*
X13215896Y-12559984D01*
X13215896Y-12559984D02*
X13234944Y-12569508D01*
X13234944Y-12569508D02*
X13244467Y-12579031D01*
X13244467Y-12579031D02*
X13253991Y-12598079D01*
X13253991Y-12598079D02*
X13263515Y-12636174D01*
X13263515Y-12636174D02*
X13263515Y-12683793D01*
X13263515Y-12683793D02*
X13253991Y-12721888D01*
X13253991Y-12721888D02*
X13244467Y-12740936D01*
X13244467Y-12740936D02*
X13234944Y-12750460D01*
X13234944Y-12750460D02*
X13215896Y-12759984D01*
X13215896Y-12759984D02*
X13196848Y-12759984D01*
X13196848Y-12759984D02*
X13177801Y-12750460D01*
X13177801Y-12750460D02*
X13168277Y-12740936D01*
X13168277Y-12740936D02*
X13158753Y-12721888D01*
X13158753Y-12721888D02*
X13149229Y-12683793D01*
X13149229Y-12683793D02*
X13149229Y-12636174D01*
X13149229Y-12636174D02*
X13158753Y-12598079D01*
X13158753Y-12598079D02*
X13168277Y-12579031D01*
X13168277Y-12579031D02*
X13177801Y-12569508D01*
X13177801Y-12569508D02*
X13196848Y-12559984D01*
X13330182Y-12559984D02*
X13453991Y-12559984D01*
X13453991Y-12559984D02*
X13387325Y-12636174D01*
X13387325Y-12636174D02*
X13415896Y-12636174D01*
X13415896Y-12636174D02*
X13434944Y-12645698D01*
X13434944Y-12645698D02*
X13444467Y-12655222D01*
X13444467Y-12655222D02*
X13453991Y-12674269D01*
X13453991Y-12674269D02*
X13453991Y-12721888D01*
X13453991Y-12721888D02*
X13444467Y-12740936D01*
X13444467Y-12740936D02*
X13434944Y-12750460D01*
X13434944Y-12750460D02*
X13415896Y-12759984D01*
X13415896Y-12759984D02*
X13358753Y-12759984D01*
X13358753Y-12759984D02*
X13339706Y-12750460D01*
X13339706Y-12750460D02*
X13330182Y-12740936D01*
X13634944Y-12559984D02*
X13539706Y-12559984D01*
X13539706Y-12559984D02*
X13530182Y-12655222D01*
X13530182Y-12655222D02*
X13539706Y-12645698D01*
X13539706Y-12645698D02*
X13558753Y-12636174D01*
X13558753Y-12636174D02*
X13606372Y-12636174D01*
X13606372Y-12636174D02*
X13625420Y-12645698D01*
X13625420Y-12645698D02*
X13634944Y-12655222D01*
X13634944Y-12655222D02*
X13644467Y-12674269D01*
X13644467Y-12674269D02*
X13644467Y-12721888D01*
X13644467Y-12721888D02*
X13634944Y-12740936D01*
X13634944Y-12740936D02*
X13625420Y-12750460D01*
X13625420Y-12750460D02*
X13606372Y-12759984D01*
X13606372Y-12759984D02*
X13558753Y-12759984D01*
X13558753Y-12759984D02*
X13539706Y-12750460D01*
X13539706Y-12750460D02*
X13530182Y-12740936D01*
X13815896Y-12626650D02*
X13815896Y-12759984D01*
X13768277Y-12550460D02*
X13720658Y-12693317D01*
X13720658Y-12693317D02*
X13844467Y-12693317D01*
X13911134Y-12559984D02*
X13911134Y-12598079D01*
X13987325Y-12559984D02*
X13987325Y-12598079D01*
X14282563Y-12836174D02*
X14273039Y-12826650D01*
X14273039Y-12826650D02*
X14253991Y-12798079D01*
X14253991Y-12798079D02*
X14244468Y-12779031D01*
X14244468Y-12779031D02*
X14234944Y-12750460D01*
X14234944Y-12750460D02*
X14225420Y-12702841D01*
X14225420Y-12702841D02*
X14225420Y-12664746D01*
X14225420Y-12664746D02*
X14234944Y-12617127D01*
X14234944Y-12617127D02*
X14244468Y-12588555D01*
X14244468Y-12588555D02*
X14253991Y-12569508D01*
X14253991Y-12569508D02*
X14273039Y-12540936D01*
X14273039Y-12540936D02*
X14282563Y-12531412D01*
X14463515Y-12759984D02*
X14349229Y-12759984D01*
X14406372Y-12759984D02*
X14406372Y-12559984D01*
X14406372Y-12559984D02*
X14387325Y-12588555D01*
X14387325Y-12588555D02*
X14368277Y-12607603D01*
X14368277Y-12607603D02*
X14349229Y-12617127D01*
X14577801Y-12645698D02*
X14558753Y-12636174D01*
X14558753Y-12636174D02*
X14549229Y-12626650D01*
X14549229Y-12626650D02*
X14539706Y-12607603D01*
X14539706Y-12607603D02*
X14539706Y-12598079D01*
X14539706Y-12598079D02*
X14549229Y-12579031D01*
X14549229Y-12579031D02*
X14558753Y-12569508D01*
X14558753Y-12569508D02*
X14577801Y-12559984D01*
X14577801Y-12559984D02*
X14615896Y-12559984D01*
X14615896Y-12559984D02*
X14634944Y-12569508D01*
X14634944Y-12569508D02*
X14644468Y-12579031D01*
X14644468Y-12579031D02*
X14653991Y-12598079D01*
X14653991Y-12598079D02*
X14653991Y-12607603D01*
X14653991Y-12607603D02*
X14644468Y-12626650D01*
X14644468Y-12626650D02*
X14634944Y-12636174D01*
X14634944Y-12636174D02*
X14615896Y-12645698D01*
X14615896Y-12645698D02*
X14577801Y-12645698D01*
X14577801Y-12645698D02*
X14558753Y-12655222D01*
X14558753Y-12655222D02*
X14549229Y-12664746D01*
X14549229Y-12664746D02*
X14539706Y-12683793D01*
X14539706Y-12683793D02*
X14539706Y-12721888D01*
X14539706Y-12721888D02*
X14549229Y-12740936D01*
X14549229Y-12740936D02*
X14558753Y-12750460D01*
X14558753Y-12750460D02*
X14577801Y-12759984D01*
X14577801Y-12759984D02*
X14615896Y-12759984D01*
X14615896Y-12759984D02*
X14634944Y-12750460D01*
X14634944Y-12750460D02*
X14644468Y-12740936D01*
X14644468Y-12740936D02*
X14653991Y-12721888D01*
X14653991Y-12721888D02*
X14653991Y-12683793D01*
X14653991Y-12683793D02*
X14644468Y-12664746D01*
X14644468Y-12664746D02*
X14634944Y-12655222D01*
X14634944Y-12655222D02*
X14615896Y-12645698D01*
X14892087Y-12759984D02*
X14892087Y-12559984D01*
X14977801Y-12759984D02*
X14977801Y-12655222D01*
X14977801Y-12655222D02*
X14968277Y-12636174D01*
X14968277Y-12636174D02*
X14949230Y-12626650D01*
X14949230Y-12626650D02*
X14920658Y-12626650D01*
X14920658Y-12626650D02*
X14901610Y-12636174D01*
X14901610Y-12636174D02*
X14892087Y-12645698D01*
X15101610Y-12759984D02*
X15082563Y-12750460D01*
X15082563Y-12750460D02*
X15073039Y-12740936D01*
X15073039Y-12740936D02*
X15063515Y-12721888D01*
X15063515Y-12721888D02*
X15063515Y-12664746D01*
X15063515Y-12664746D02*
X15073039Y-12645698D01*
X15073039Y-12645698D02*
X15082563Y-12636174D01*
X15082563Y-12636174D02*
X15101610Y-12626650D01*
X15101610Y-12626650D02*
X15130182Y-12626650D01*
X15130182Y-12626650D02*
X15149230Y-12636174D01*
X15149230Y-12636174D02*
X15158753Y-12645698D01*
X15158753Y-12645698D02*
X15168277Y-12664746D01*
X15168277Y-12664746D02*
X15168277Y-12721888D01*
X15168277Y-12721888D02*
X15158753Y-12740936D01*
X15158753Y-12740936D02*
X15149230Y-12750460D01*
X15149230Y-12750460D02*
X15130182Y-12759984D01*
X15130182Y-12759984D02*
X15101610Y-12759984D01*
X15282563Y-12759984D02*
X15263515Y-12750460D01*
X15263515Y-12750460D02*
X15253991Y-12731412D01*
X15253991Y-12731412D02*
X15253991Y-12559984D01*
X15434944Y-12750460D02*
X15415896Y-12759984D01*
X15415896Y-12759984D02*
X15377801Y-12759984D01*
X15377801Y-12759984D02*
X15358753Y-12750460D01*
X15358753Y-12750460D02*
X15349230Y-12731412D01*
X15349230Y-12731412D02*
X15349230Y-12655222D01*
X15349230Y-12655222D02*
X15358753Y-12636174D01*
X15358753Y-12636174D02*
X15377801Y-12626650D01*
X15377801Y-12626650D02*
X15415896Y-12626650D01*
X15415896Y-12626650D02*
X15434944Y-12636174D01*
X15434944Y-12636174D02*
X15444468Y-12655222D01*
X15444468Y-12655222D02*
X15444468Y-12674269D01*
X15444468Y-12674269D02*
X15349230Y-12693317D01*
X15520658Y-12750460D02*
X15539706Y-12759984D01*
X15539706Y-12759984D02*
X15577801Y-12759984D01*
X15577801Y-12759984D02*
X15596849Y-12750460D01*
X15596849Y-12750460D02*
X15606372Y-12731412D01*
X15606372Y-12731412D02*
X15606372Y-12721888D01*
X15606372Y-12721888D02*
X15596849Y-12702841D01*
X15596849Y-12702841D02*
X15577801Y-12693317D01*
X15577801Y-12693317D02*
X15549230Y-12693317D01*
X15549230Y-12693317D02*
X15530182Y-12683793D01*
X15530182Y-12683793D02*
X15520658Y-12664746D01*
X15520658Y-12664746D02*
X15520658Y-12655222D01*
X15520658Y-12655222D02*
X15530182Y-12636174D01*
X15530182Y-12636174D02*
X15549230Y-12626650D01*
X15549230Y-12626650D02*
X15577801Y-12626650D01*
X15577801Y-12626650D02*
X15596849Y-12636174D01*
X15673039Y-12836174D02*
X15682563Y-12826650D01*
X15682563Y-12826650D02*
X15701611Y-12798079D01*
X15701611Y-12798079D02*
X15711134Y-12779031D01*
X15711134Y-12779031D02*
X15720658Y-12750460D01*
X15720658Y-12750460D02*
X15730182Y-12702841D01*
X15730182Y-12702841D02*
X15730182Y-12664746D01*
X15730182Y-12664746D02*
X15720658Y-12617127D01*
X15720658Y-12617127D02*
X15711134Y-12588555D01*
X15711134Y-12588555D02*
X15701611Y-12569508D01*
X15701611Y-12569508D02*
X15682563Y-12540936D01*
X15682563Y-12540936D02*
X15673039Y-12531412D01*
D12*
X10693368Y-12966618D02*
X10693368Y-12898382D01*
X10625132Y-12898382D01*
X10625132Y-12966618D01*
X10693368Y-12966618D01*
D11*
X11006372Y-12823984D02*
X11025420Y-12823984D01*
X11025420Y-12823984D02*
X11044467Y-12833508D01*
X11044467Y-12833508D02*
X11053991Y-12843031D01*
X11053991Y-12843031D02*
X11063515Y-12862079D01*
X11063515Y-12862079D02*
X11073039Y-12900174D01*
X11073039Y-12900174D02*
X11073039Y-12947793D01*
X11073039Y-12947793D02*
X11063515Y-12985888D01*
X11063515Y-12985888D02*
X11053991Y-13004936D01*
X11053991Y-13004936D02*
X11044467Y-13014460D01*
X11044467Y-13014460D02*
X11025420Y-13023984D01*
X11025420Y-13023984D02*
X11006372Y-13023984D01*
X11006372Y-13023984D02*
X10987324Y-13014460D01*
X10987324Y-13014460D02*
X10977801Y-13004936D01*
X10977801Y-13004936D02*
X10968277Y-12985888D01*
X10968277Y-12985888D02*
X10958753Y-12947793D01*
X10958753Y-12947793D02*
X10958753Y-12900174D01*
X10958753Y-12900174D02*
X10968277Y-12862079D01*
X10968277Y-12862079D02*
X10977801Y-12843031D01*
X10977801Y-12843031D02*
X10987324Y-12833508D01*
X10987324Y-12833508D02*
X11006372Y-12823984D01*
X11158753Y-13004936D02*
X11168277Y-13014460D01*
X11168277Y-13014460D02*
X11158753Y-13023984D01*
X11158753Y-13023984D02*
X11149229Y-13014460D01*
X11149229Y-13014460D02*
X11158753Y-13004936D01*
X11158753Y-13004936D02*
X11158753Y-13023984D01*
X11263515Y-13023984D02*
X11301610Y-13023984D01*
X11301610Y-13023984D02*
X11320658Y-13014460D01*
X11320658Y-13014460D02*
X11330182Y-13004936D01*
X11330182Y-13004936D02*
X11349229Y-12976365D01*
X11349229Y-12976365D02*
X11358753Y-12938269D01*
X11358753Y-12938269D02*
X11358753Y-12862079D01*
X11358753Y-12862079D02*
X11349229Y-12843031D01*
X11349229Y-12843031D02*
X11339705Y-12833508D01*
X11339705Y-12833508D02*
X11320658Y-12823984D01*
X11320658Y-12823984D02*
X11282562Y-12823984D01*
X11282562Y-12823984D02*
X11263515Y-12833508D01*
X11263515Y-12833508D02*
X11253991Y-12843031D01*
X11253991Y-12843031D02*
X11244467Y-12862079D01*
X11244467Y-12862079D02*
X11244467Y-12909698D01*
X11244467Y-12909698D02*
X11253991Y-12928746D01*
X11253991Y-12928746D02*
X11263515Y-12938269D01*
X11263515Y-12938269D02*
X11282562Y-12947793D01*
X11282562Y-12947793D02*
X11320658Y-12947793D01*
X11320658Y-12947793D02*
X11339705Y-12938269D01*
X11339705Y-12938269D02*
X11349229Y-12928746D01*
X11349229Y-12928746D02*
X11358753Y-12909698D01*
X11530182Y-12823984D02*
X11492086Y-12823984D01*
X11492086Y-12823984D02*
X11473039Y-12833508D01*
X11473039Y-12833508D02*
X11463515Y-12843031D01*
X11463515Y-12843031D02*
X11444467Y-12871603D01*
X11444467Y-12871603D02*
X11434943Y-12909698D01*
X11434943Y-12909698D02*
X11434943Y-12985888D01*
X11434943Y-12985888D02*
X11444467Y-13004936D01*
X11444467Y-13004936D02*
X11453991Y-13014460D01*
X11453991Y-13014460D02*
X11473039Y-13023984D01*
X11473039Y-13023984D02*
X11511134Y-13023984D01*
X11511134Y-13023984D02*
X11530182Y-13014460D01*
X11530182Y-13014460D02*
X11539705Y-13004936D01*
X11539705Y-13004936D02*
X11549229Y-12985888D01*
X11549229Y-12985888D02*
X11549229Y-12938269D01*
X11549229Y-12938269D02*
X11539705Y-12919222D01*
X11539705Y-12919222D02*
X11530182Y-12909698D01*
X11530182Y-12909698D02*
X11511134Y-12900174D01*
X11511134Y-12900174D02*
X11473039Y-12900174D01*
X11473039Y-12900174D02*
X11453991Y-12909698D01*
X11453991Y-12909698D02*
X11444467Y-12919222D01*
X11444467Y-12919222D02*
X11434943Y-12938269D01*
X11730182Y-12823984D02*
X11634943Y-12823984D01*
X11634943Y-12823984D02*
X11625420Y-12919222D01*
X11625420Y-12919222D02*
X11634943Y-12909698D01*
X11634943Y-12909698D02*
X11653991Y-12900174D01*
X11653991Y-12900174D02*
X11701610Y-12900174D01*
X11701610Y-12900174D02*
X11720658Y-12909698D01*
X11720658Y-12909698D02*
X11730182Y-12919222D01*
X11730182Y-12919222D02*
X11739705Y-12938269D01*
X11739705Y-12938269D02*
X11739705Y-12985888D01*
X11739705Y-12985888D02*
X11730182Y-13004936D01*
X11730182Y-13004936D02*
X11720658Y-13014460D01*
X11720658Y-13014460D02*
X11701610Y-13023984D01*
X11701610Y-13023984D02*
X11653991Y-13023984D01*
X11653991Y-13023984D02*
X11634943Y-13014460D01*
X11634943Y-13014460D02*
X11625420Y-13004936D01*
X11825420Y-13023984D02*
X11825420Y-12890650D01*
X11825420Y-12909698D02*
X11834943Y-12900174D01*
X11834943Y-12900174D02*
X11853991Y-12890650D01*
X11853991Y-12890650D02*
X11882563Y-12890650D01*
X11882563Y-12890650D02*
X11901610Y-12900174D01*
X11901610Y-12900174D02*
X11911134Y-12919222D01*
X11911134Y-12919222D02*
X11911134Y-13023984D01*
X11911134Y-12919222D02*
X11920658Y-12900174D01*
X11920658Y-12900174D02*
X11939705Y-12890650D01*
X11939705Y-12890650D02*
X11968277Y-12890650D01*
X11968277Y-12890650D02*
X11987324Y-12900174D01*
X11987324Y-12900174D02*
X11996848Y-12919222D01*
X11996848Y-12919222D02*
X11996848Y-13023984D01*
X12092086Y-13023984D02*
X12092086Y-12890650D01*
X12092086Y-12909698D02*
X12101610Y-12900174D01*
X12101610Y-12900174D02*
X12120658Y-12890650D01*
X12120658Y-12890650D02*
X12149229Y-12890650D01*
X12149229Y-12890650D02*
X12168277Y-12900174D01*
X12168277Y-12900174D02*
X12177801Y-12919222D01*
X12177801Y-12919222D02*
X12177801Y-13023984D01*
X12177801Y-12919222D02*
X12187324Y-12900174D01*
X12187324Y-12900174D02*
X12206372Y-12890650D01*
X12206372Y-12890650D02*
X12234943Y-12890650D01*
X12234943Y-12890650D02*
X12253991Y-12900174D01*
X12253991Y-12900174D02*
X12263515Y-12919222D01*
X12263515Y-12919222D02*
X12263515Y-13023984D01*
X12653991Y-12814460D02*
X12482563Y-13071603D01*
X12911134Y-12823984D02*
X12930182Y-12823984D01*
X12930182Y-12823984D02*
X12949229Y-12833508D01*
X12949229Y-12833508D02*
X12958753Y-12843031D01*
X12958753Y-12843031D02*
X12968277Y-12862079D01*
X12968277Y-12862079D02*
X12977801Y-12900174D01*
X12977801Y-12900174D02*
X12977801Y-12947793D01*
X12977801Y-12947793D02*
X12968277Y-12985888D01*
X12968277Y-12985888D02*
X12958753Y-13004936D01*
X12958753Y-13004936D02*
X12949229Y-13014460D01*
X12949229Y-13014460D02*
X12930182Y-13023984D01*
X12930182Y-13023984D02*
X12911134Y-13023984D01*
X12911134Y-13023984D02*
X12892086Y-13014460D01*
X12892086Y-13014460D02*
X12882563Y-13004936D01*
X12882563Y-13004936D02*
X12873039Y-12985888D01*
X12873039Y-12985888D02*
X12863515Y-12947793D01*
X12863515Y-12947793D02*
X12863515Y-12900174D01*
X12863515Y-12900174D02*
X12873039Y-12862079D01*
X12873039Y-12862079D02*
X12882563Y-12843031D01*
X12882563Y-12843031D02*
X12892086Y-12833508D01*
X12892086Y-12833508D02*
X12911134Y-12823984D01*
X13063515Y-13004936D02*
X13073039Y-13014460D01*
X13073039Y-13014460D02*
X13063515Y-13023984D01*
X13063515Y-13023984D02*
X13053991Y-13014460D01*
X13053991Y-13014460D02*
X13063515Y-13004936D01*
X13063515Y-13004936D02*
X13063515Y-13023984D01*
X13196848Y-12823984D02*
X13215896Y-12823984D01*
X13215896Y-12823984D02*
X13234944Y-12833508D01*
X13234944Y-12833508D02*
X13244467Y-12843031D01*
X13244467Y-12843031D02*
X13253991Y-12862079D01*
X13253991Y-12862079D02*
X13263515Y-12900174D01*
X13263515Y-12900174D02*
X13263515Y-12947793D01*
X13263515Y-12947793D02*
X13253991Y-12985888D01*
X13253991Y-12985888D02*
X13244467Y-13004936D01*
X13244467Y-13004936D02*
X13234944Y-13014460D01*
X13234944Y-13014460D02*
X13215896Y-13023984D01*
X13215896Y-13023984D02*
X13196848Y-13023984D01*
X13196848Y-13023984D02*
X13177801Y-13014460D01*
X13177801Y-13014460D02*
X13168277Y-13004936D01*
X13168277Y-13004936D02*
X13158753Y-12985888D01*
X13158753Y-12985888D02*
X13149229Y-12947793D01*
X13149229Y-12947793D02*
X13149229Y-12900174D01*
X13149229Y-12900174D02*
X13158753Y-12862079D01*
X13158753Y-12862079D02*
X13168277Y-12843031D01*
X13168277Y-12843031D02*
X13177801Y-12833508D01*
X13177801Y-12833508D02*
X13196848Y-12823984D01*
X13330182Y-12823984D02*
X13453991Y-12823984D01*
X13453991Y-12823984D02*
X13387325Y-12900174D01*
X13387325Y-12900174D02*
X13415896Y-12900174D01*
X13415896Y-12900174D02*
X13434944Y-12909698D01*
X13434944Y-12909698D02*
X13444467Y-12919222D01*
X13444467Y-12919222D02*
X13453991Y-12938269D01*
X13453991Y-12938269D02*
X13453991Y-12985888D01*
X13453991Y-12985888D02*
X13444467Y-13004936D01*
X13444467Y-13004936D02*
X13434944Y-13014460D01*
X13434944Y-13014460D02*
X13415896Y-13023984D01*
X13415896Y-13023984D02*
X13358753Y-13023984D01*
X13358753Y-13023984D02*
X13339706Y-13014460D01*
X13339706Y-13014460D02*
X13330182Y-13004936D01*
X13568277Y-12909698D02*
X13549229Y-12900174D01*
X13549229Y-12900174D02*
X13539706Y-12890650D01*
X13539706Y-12890650D02*
X13530182Y-12871603D01*
X13530182Y-12871603D02*
X13530182Y-12862079D01*
X13530182Y-12862079D02*
X13539706Y-12843031D01*
X13539706Y-12843031D02*
X13549229Y-12833508D01*
X13549229Y-12833508D02*
X13568277Y-12823984D01*
X13568277Y-12823984D02*
X13606372Y-12823984D01*
X13606372Y-12823984D02*
X13625420Y-12833508D01*
X13625420Y-12833508D02*
X13634944Y-12843031D01*
X13634944Y-12843031D02*
X13644467Y-12862079D01*
X13644467Y-12862079D02*
X13644467Y-12871603D01*
X13644467Y-12871603D02*
X13634944Y-12890650D01*
X13634944Y-12890650D02*
X13625420Y-12900174D01*
X13625420Y-12900174D02*
X13606372Y-12909698D01*
X13606372Y-12909698D02*
X13568277Y-12909698D01*
X13568277Y-12909698D02*
X13549229Y-12919222D01*
X13549229Y-12919222D02*
X13539706Y-12928746D01*
X13539706Y-12928746D02*
X13530182Y-12947793D01*
X13530182Y-12947793D02*
X13530182Y-12985888D01*
X13530182Y-12985888D02*
X13539706Y-13004936D01*
X13539706Y-13004936D02*
X13549229Y-13014460D01*
X13549229Y-13014460D02*
X13568277Y-13023984D01*
X13568277Y-13023984D02*
X13606372Y-13023984D01*
X13606372Y-13023984D02*
X13625420Y-13014460D01*
X13625420Y-13014460D02*
X13634944Y-13004936D01*
X13634944Y-13004936D02*
X13644467Y-12985888D01*
X13644467Y-12985888D02*
X13644467Y-12947793D01*
X13644467Y-12947793D02*
X13634944Y-12928746D01*
X13634944Y-12928746D02*
X13625420Y-12919222D01*
X13625420Y-12919222D02*
X13606372Y-12909698D01*
X13768277Y-12823984D02*
X13787325Y-12823984D01*
X13787325Y-12823984D02*
X13806372Y-12833508D01*
X13806372Y-12833508D02*
X13815896Y-12843031D01*
X13815896Y-12843031D02*
X13825420Y-12862079D01*
X13825420Y-12862079D02*
X13834944Y-12900174D01*
X13834944Y-12900174D02*
X13834944Y-12947793D01*
X13834944Y-12947793D02*
X13825420Y-12985888D01*
X13825420Y-12985888D02*
X13815896Y-13004936D01*
X13815896Y-13004936D02*
X13806372Y-13014460D01*
X13806372Y-13014460D02*
X13787325Y-13023984D01*
X13787325Y-13023984D02*
X13768277Y-13023984D01*
X13768277Y-13023984D02*
X13749229Y-13014460D01*
X13749229Y-13014460D02*
X13739706Y-13004936D01*
X13739706Y-13004936D02*
X13730182Y-12985888D01*
X13730182Y-12985888D02*
X13720658Y-12947793D01*
X13720658Y-12947793D02*
X13720658Y-12900174D01*
X13720658Y-12900174D02*
X13730182Y-12862079D01*
X13730182Y-12862079D02*
X13739706Y-12843031D01*
X13739706Y-12843031D02*
X13749229Y-12833508D01*
X13749229Y-12833508D02*
X13768277Y-12823984D01*
X13911134Y-12823984D02*
X13911134Y-12862079D01*
X13987325Y-12823984D02*
X13987325Y-12862079D01*
X14282563Y-13100174D02*
X14273039Y-13090650D01*
X14273039Y-13090650D02*
X14253991Y-13062079D01*
X14253991Y-13062079D02*
X14244468Y-13043031D01*
X14244468Y-13043031D02*
X14234944Y-13014460D01*
X14234944Y-13014460D02*
X14225420Y-12966841D01*
X14225420Y-12966841D02*
X14225420Y-12928746D01*
X14225420Y-12928746D02*
X14234944Y-12881127D01*
X14234944Y-12881127D02*
X14244468Y-12852555D01*
X14244468Y-12852555D02*
X14253991Y-12833508D01*
X14253991Y-12833508D02*
X14273039Y-12804936D01*
X14273039Y-12804936D02*
X14282563Y-12795412D01*
X14339706Y-12823984D02*
X14463515Y-12823984D01*
X14463515Y-12823984D02*
X14396848Y-12900174D01*
X14396848Y-12900174D02*
X14425420Y-12900174D01*
X14425420Y-12900174D02*
X14444468Y-12909698D01*
X14444468Y-12909698D02*
X14453991Y-12919222D01*
X14453991Y-12919222D02*
X14463515Y-12938269D01*
X14463515Y-12938269D02*
X14463515Y-12985888D01*
X14463515Y-12985888D02*
X14453991Y-13004936D01*
X14453991Y-13004936D02*
X14444468Y-13014460D01*
X14444468Y-13014460D02*
X14425420Y-13023984D01*
X14425420Y-13023984D02*
X14368277Y-13023984D01*
X14368277Y-13023984D02*
X14349229Y-13014460D01*
X14349229Y-13014460D02*
X14339706Y-13004936D01*
X14530182Y-12823984D02*
X14653991Y-12823984D01*
X14653991Y-12823984D02*
X14587325Y-12900174D01*
X14587325Y-12900174D02*
X14615896Y-12900174D01*
X14615896Y-12900174D02*
X14634944Y-12909698D01*
X14634944Y-12909698D02*
X14644468Y-12919222D01*
X14644468Y-12919222D02*
X14653991Y-12938269D01*
X14653991Y-12938269D02*
X14653991Y-12985888D01*
X14653991Y-12985888D02*
X14644468Y-13004936D01*
X14644468Y-13004936D02*
X14634944Y-13014460D01*
X14634944Y-13014460D02*
X14615896Y-13023984D01*
X14615896Y-13023984D02*
X14558753Y-13023984D01*
X14558753Y-13023984D02*
X14539706Y-13014460D01*
X14539706Y-13014460D02*
X14530182Y-13004936D01*
X14892087Y-13023984D02*
X14892087Y-12823984D01*
X14977801Y-13023984D02*
X14977801Y-12919222D01*
X14977801Y-12919222D02*
X14968277Y-12900174D01*
X14968277Y-12900174D02*
X14949230Y-12890650D01*
X14949230Y-12890650D02*
X14920658Y-12890650D01*
X14920658Y-12890650D02*
X14901610Y-12900174D01*
X14901610Y-12900174D02*
X14892087Y-12909698D01*
X15101610Y-13023984D02*
X15082563Y-13014460D01*
X15082563Y-13014460D02*
X15073039Y-13004936D01*
X15073039Y-13004936D02*
X15063515Y-12985888D01*
X15063515Y-12985888D02*
X15063515Y-12928746D01*
X15063515Y-12928746D02*
X15073039Y-12909698D01*
X15073039Y-12909698D02*
X15082563Y-12900174D01*
X15082563Y-12900174D02*
X15101610Y-12890650D01*
X15101610Y-12890650D02*
X15130182Y-12890650D01*
X15130182Y-12890650D02*
X15149230Y-12900174D01*
X15149230Y-12900174D02*
X15158753Y-12909698D01*
X15158753Y-12909698D02*
X15168277Y-12928746D01*
X15168277Y-12928746D02*
X15168277Y-12985888D01*
X15168277Y-12985888D02*
X15158753Y-13004936D01*
X15158753Y-13004936D02*
X15149230Y-13014460D01*
X15149230Y-13014460D02*
X15130182Y-13023984D01*
X15130182Y-13023984D02*
X15101610Y-13023984D01*
X15282563Y-13023984D02*
X15263515Y-13014460D01*
X15263515Y-13014460D02*
X15253991Y-12995412D01*
X15253991Y-12995412D02*
X15253991Y-12823984D01*
X15434944Y-13014460D02*
X15415896Y-13023984D01*
X15415896Y-13023984D02*
X15377801Y-13023984D01*
X15377801Y-13023984D02*
X15358753Y-13014460D01*
X15358753Y-13014460D02*
X15349230Y-12995412D01*
X15349230Y-12995412D02*
X15349230Y-12919222D01*
X15349230Y-12919222D02*
X15358753Y-12900174D01*
X15358753Y-12900174D02*
X15377801Y-12890650D01*
X15377801Y-12890650D02*
X15415896Y-12890650D01*
X15415896Y-12890650D02*
X15434944Y-12900174D01*
X15434944Y-12900174D02*
X15444468Y-12919222D01*
X15444468Y-12919222D02*
X15444468Y-12938269D01*
X15444468Y-12938269D02*
X15349230Y-12957317D01*
X15520658Y-13014460D02*
X15539706Y-13023984D01*
X15539706Y-13023984D02*
X15577801Y-13023984D01*
X15577801Y-13023984D02*
X15596849Y-13014460D01*
X15596849Y-13014460D02*
X15606372Y-12995412D01*
X15606372Y-12995412D02*
X15606372Y-12985888D01*
X15606372Y-12985888D02*
X15596849Y-12966841D01*
X15596849Y-12966841D02*
X15577801Y-12957317D01*
X15577801Y-12957317D02*
X15549230Y-12957317D01*
X15549230Y-12957317D02*
X15530182Y-12947793D01*
X15530182Y-12947793D02*
X15520658Y-12928746D01*
X15520658Y-12928746D02*
X15520658Y-12919222D01*
X15520658Y-12919222D02*
X15530182Y-12900174D01*
X15530182Y-12900174D02*
X15549230Y-12890650D01*
X15549230Y-12890650D02*
X15577801Y-12890650D01*
X15577801Y-12890650D02*
X15596849Y-12900174D01*
X15673039Y-13100174D02*
X15682563Y-13090650D01*
X15682563Y-13090650D02*
X15701611Y-13062079D01*
X15701611Y-13062079D02*
X15711134Y-13043031D01*
X15711134Y-13043031D02*
X15720658Y-13014460D01*
X15720658Y-13014460D02*
X15730182Y-12966841D01*
X15730182Y-12966841D02*
X15730182Y-12928746D01*
X15730182Y-12928746D02*
X15720658Y-12881127D01*
X15720658Y-12881127D02*
X15711134Y-12852555D01*
X15711134Y-12852555D02*
X15701611Y-12833508D01*
X15701611Y-12833508D02*
X15682563Y-12804936D01*
X15682563Y-12804936D02*
X15673039Y-12795412D01*
D12*
X10657500Y-13246500D02*
X10707500Y-13196500D01*
X10657500Y-13146500D01*
X10607500Y-13196500D01*
X10657500Y-13246500D01*
D11*
X11073039Y-13287984D02*
X10958753Y-13287984D01*
X11015896Y-13287984D02*
X11015896Y-13087984D01*
X11015896Y-13087984D02*
X10996848Y-13116555D01*
X10996848Y-13116555D02*
X10977801Y-13135603D01*
X10977801Y-13135603D02*
X10958753Y-13145127D01*
X11158753Y-13268936D02*
X11168277Y-13278460D01*
X11168277Y-13278460D02*
X11158753Y-13287984D01*
X11158753Y-13287984D02*
X11149229Y-13278460D01*
X11149229Y-13278460D02*
X11158753Y-13268936D01*
X11158753Y-13268936D02*
X11158753Y-13287984D01*
X11292086Y-13087984D02*
X11311134Y-13087984D01*
X11311134Y-13087984D02*
X11330182Y-13097508D01*
X11330182Y-13097508D02*
X11339705Y-13107031D01*
X11339705Y-13107031D02*
X11349229Y-13126079D01*
X11349229Y-13126079D02*
X11358753Y-13164174D01*
X11358753Y-13164174D02*
X11358753Y-13211793D01*
X11358753Y-13211793D02*
X11349229Y-13249888D01*
X11349229Y-13249888D02*
X11339705Y-13268936D01*
X11339705Y-13268936D02*
X11330182Y-13278460D01*
X11330182Y-13278460D02*
X11311134Y-13287984D01*
X11311134Y-13287984D02*
X11292086Y-13287984D01*
X11292086Y-13287984D02*
X11273039Y-13278460D01*
X11273039Y-13278460D02*
X11263515Y-13268936D01*
X11263515Y-13268936D02*
X11253991Y-13249888D01*
X11253991Y-13249888D02*
X11244467Y-13211793D01*
X11244467Y-13211793D02*
X11244467Y-13164174D01*
X11244467Y-13164174D02*
X11253991Y-13126079D01*
X11253991Y-13126079D02*
X11263515Y-13107031D01*
X11263515Y-13107031D02*
X11273039Y-13097508D01*
X11273039Y-13097508D02*
X11292086Y-13087984D01*
X11482562Y-13087984D02*
X11501610Y-13087984D01*
X11501610Y-13087984D02*
X11520658Y-13097508D01*
X11520658Y-13097508D02*
X11530182Y-13107031D01*
X11530182Y-13107031D02*
X11539705Y-13126079D01*
X11539705Y-13126079D02*
X11549229Y-13164174D01*
X11549229Y-13164174D02*
X11549229Y-13211793D01*
X11549229Y-13211793D02*
X11539705Y-13249888D01*
X11539705Y-13249888D02*
X11530182Y-13268936D01*
X11530182Y-13268936D02*
X11520658Y-13278460D01*
X11520658Y-13278460D02*
X11501610Y-13287984D01*
X11501610Y-13287984D02*
X11482562Y-13287984D01*
X11482562Y-13287984D02*
X11463515Y-13278460D01*
X11463515Y-13278460D02*
X11453991Y-13268936D01*
X11453991Y-13268936D02*
X11444467Y-13249888D01*
X11444467Y-13249888D02*
X11434943Y-13211793D01*
X11434943Y-13211793D02*
X11434943Y-13164174D01*
X11434943Y-13164174D02*
X11444467Y-13126079D01*
X11444467Y-13126079D02*
X11453991Y-13107031D01*
X11453991Y-13107031D02*
X11463515Y-13097508D01*
X11463515Y-13097508D02*
X11482562Y-13087984D01*
X11673039Y-13087984D02*
X11692086Y-13087984D01*
X11692086Y-13087984D02*
X11711134Y-13097508D01*
X11711134Y-13097508D02*
X11720658Y-13107031D01*
X11720658Y-13107031D02*
X11730182Y-13126079D01*
X11730182Y-13126079D02*
X11739705Y-13164174D01*
X11739705Y-13164174D02*
X11739705Y-13211793D01*
X11739705Y-13211793D02*
X11730182Y-13249888D01*
X11730182Y-13249888D02*
X11720658Y-13268936D01*
X11720658Y-13268936D02*
X11711134Y-13278460D01*
X11711134Y-13278460D02*
X11692086Y-13287984D01*
X11692086Y-13287984D02*
X11673039Y-13287984D01*
X11673039Y-13287984D02*
X11653991Y-13278460D01*
X11653991Y-13278460D02*
X11644467Y-13268936D01*
X11644467Y-13268936D02*
X11634943Y-13249888D01*
X11634943Y-13249888D02*
X11625420Y-13211793D01*
X11625420Y-13211793D02*
X11625420Y-13164174D01*
X11625420Y-13164174D02*
X11634943Y-13126079D01*
X11634943Y-13126079D02*
X11644467Y-13107031D01*
X11644467Y-13107031D02*
X11653991Y-13097508D01*
X11653991Y-13097508D02*
X11673039Y-13087984D01*
X11825420Y-13287984D02*
X11825420Y-13154650D01*
X11825420Y-13173698D02*
X11834943Y-13164174D01*
X11834943Y-13164174D02*
X11853991Y-13154650D01*
X11853991Y-13154650D02*
X11882563Y-13154650D01*
X11882563Y-13154650D02*
X11901610Y-13164174D01*
X11901610Y-13164174D02*
X11911134Y-13183222D01*
X11911134Y-13183222D02*
X11911134Y-13287984D01*
X11911134Y-13183222D02*
X11920658Y-13164174D01*
X11920658Y-13164174D02*
X11939705Y-13154650D01*
X11939705Y-13154650D02*
X11968277Y-13154650D01*
X11968277Y-13154650D02*
X11987324Y-13164174D01*
X11987324Y-13164174D02*
X11996848Y-13183222D01*
X11996848Y-13183222D02*
X11996848Y-13287984D01*
X12092086Y-13287984D02*
X12092086Y-13154650D01*
X12092086Y-13173698D02*
X12101610Y-13164174D01*
X12101610Y-13164174D02*
X12120658Y-13154650D01*
X12120658Y-13154650D02*
X12149229Y-13154650D01*
X12149229Y-13154650D02*
X12168277Y-13164174D01*
X12168277Y-13164174D02*
X12177801Y-13183222D01*
X12177801Y-13183222D02*
X12177801Y-13287984D01*
X12177801Y-13183222D02*
X12187324Y-13164174D01*
X12187324Y-13164174D02*
X12206372Y-13154650D01*
X12206372Y-13154650D02*
X12234943Y-13154650D01*
X12234943Y-13154650D02*
X12253991Y-13164174D01*
X12253991Y-13164174D02*
X12263515Y-13183222D01*
X12263515Y-13183222D02*
X12263515Y-13287984D01*
X12653991Y-13078460D02*
X12482563Y-13335603D01*
X12911134Y-13087984D02*
X12930182Y-13087984D01*
X12930182Y-13087984D02*
X12949229Y-13097508D01*
X12949229Y-13097508D02*
X12958753Y-13107031D01*
X12958753Y-13107031D02*
X12968277Y-13126079D01*
X12968277Y-13126079D02*
X12977801Y-13164174D01*
X12977801Y-13164174D02*
X12977801Y-13211793D01*
X12977801Y-13211793D02*
X12968277Y-13249888D01*
X12968277Y-13249888D02*
X12958753Y-13268936D01*
X12958753Y-13268936D02*
X12949229Y-13278460D01*
X12949229Y-13278460D02*
X12930182Y-13287984D01*
X12930182Y-13287984D02*
X12911134Y-13287984D01*
X12911134Y-13287984D02*
X12892086Y-13278460D01*
X12892086Y-13278460D02*
X12882563Y-13268936D01*
X12882563Y-13268936D02*
X12873039Y-13249888D01*
X12873039Y-13249888D02*
X12863515Y-13211793D01*
X12863515Y-13211793D02*
X12863515Y-13164174D01*
X12863515Y-13164174D02*
X12873039Y-13126079D01*
X12873039Y-13126079D02*
X12882563Y-13107031D01*
X12882563Y-13107031D02*
X12892086Y-13097508D01*
X12892086Y-13097508D02*
X12911134Y-13087984D01*
X13063515Y-13268936D02*
X13073039Y-13278460D01*
X13073039Y-13278460D02*
X13063515Y-13287984D01*
X13063515Y-13287984D02*
X13053991Y-13278460D01*
X13053991Y-13278460D02*
X13063515Y-13268936D01*
X13063515Y-13268936D02*
X13063515Y-13287984D01*
X13196848Y-13087984D02*
X13215896Y-13087984D01*
X13215896Y-13087984D02*
X13234944Y-13097508D01*
X13234944Y-13097508D02*
X13244467Y-13107031D01*
X13244467Y-13107031D02*
X13253991Y-13126079D01*
X13253991Y-13126079D02*
X13263515Y-13164174D01*
X13263515Y-13164174D02*
X13263515Y-13211793D01*
X13263515Y-13211793D02*
X13253991Y-13249888D01*
X13253991Y-13249888D02*
X13244467Y-13268936D01*
X13244467Y-13268936D02*
X13234944Y-13278460D01*
X13234944Y-13278460D02*
X13215896Y-13287984D01*
X13215896Y-13287984D02*
X13196848Y-13287984D01*
X13196848Y-13287984D02*
X13177801Y-13278460D01*
X13177801Y-13278460D02*
X13168277Y-13268936D01*
X13168277Y-13268936D02*
X13158753Y-13249888D01*
X13158753Y-13249888D02*
X13149229Y-13211793D01*
X13149229Y-13211793D02*
X13149229Y-13164174D01*
X13149229Y-13164174D02*
X13158753Y-13126079D01*
X13158753Y-13126079D02*
X13168277Y-13107031D01*
X13168277Y-13107031D02*
X13177801Y-13097508D01*
X13177801Y-13097508D02*
X13196848Y-13087984D01*
X13330182Y-13087984D02*
X13453991Y-13087984D01*
X13453991Y-13087984D02*
X13387325Y-13164174D01*
X13387325Y-13164174D02*
X13415896Y-13164174D01*
X13415896Y-13164174D02*
X13434944Y-13173698D01*
X13434944Y-13173698D02*
X13444467Y-13183222D01*
X13444467Y-13183222D02*
X13453991Y-13202269D01*
X13453991Y-13202269D02*
X13453991Y-13249888D01*
X13453991Y-13249888D02*
X13444467Y-13268936D01*
X13444467Y-13268936D02*
X13434944Y-13278460D01*
X13434944Y-13278460D02*
X13415896Y-13287984D01*
X13415896Y-13287984D02*
X13358753Y-13287984D01*
X13358753Y-13287984D02*
X13339706Y-13278460D01*
X13339706Y-13278460D02*
X13330182Y-13268936D01*
X13549229Y-13287984D02*
X13587325Y-13287984D01*
X13587325Y-13287984D02*
X13606372Y-13278460D01*
X13606372Y-13278460D02*
X13615896Y-13268936D01*
X13615896Y-13268936D02*
X13634944Y-13240365D01*
X13634944Y-13240365D02*
X13644467Y-13202269D01*
X13644467Y-13202269D02*
X13644467Y-13126079D01*
X13644467Y-13126079D02*
X13634944Y-13107031D01*
X13634944Y-13107031D02*
X13625420Y-13097508D01*
X13625420Y-13097508D02*
X13606372Y-13087984D01*
X13606372Y-13087984D02*
X13568277Y-13087984D01*
X13568277Y-13087984D02*
X13549229Y-13097508D01*
X13549229Y-13097508D02*
X13539706Y-13107031D01*
X13539706Y-13107031D02*
X13530182Y-13126079D01*
X13530182Y-13126079D02*
X13530182Y-13173698D01*
X13530182Y-13173698D02*
X13539706Y-13192746D01*
X13539706Y-13192746D02*
X13549229Y-13202269D01*
X13549229Y-13202269D02*
X13568277Y-13211793D01*
X13568277Y-13211793D02*
X13606372Y-13211793D01*
X13606372Y-13211793D02*
X13625420Y-13202269D01*
X13625420Y-13202269D02*
X13634944Y-13192746D01*
X13634944Y-13192746D02*
X13644467Y-13173698D01*
X13815896Y-13154650D02*
X13815896Y-13287984D01*
X13768277Y-13078460D02*
X13720658Y-13221317D01*
X13720658Y-13221317D02*
X13844467Y-13221317D01*
X13911134Y-13087984D02*
X13911134Y-13126079D01*
X13987325Y-13087984D02*
X13987325Y-13126079D01*
X14282563Y-13364174D02*
X14273039Y-13354650D01*
X14273039Y-13354650D02*
X14253991Y-13326079D01*
X14253991Y-13326079D02*
X14244468Y-13307031D01*
X14244468Y-13307031D02*
X14234944Y-13278460D01*
X14234944Y-13278460D02*
X14225420Y-13230841D01*
X14225420Y-13230841D02*
X14225420Y-13192746D01*
X14225420Y-13192746D02*
X14234944Y-13145127D01*
X14234944Y-13145127D02*
X14244468Y-13116555D01*
X14244468Y-13116555D02*
X14253991Y-13097508D01*
X14253991Y-13097508D02*
X14273039Y-13068936D01*
X14273039Y-13068936D02*
X14282563Y-13059412D01*
X14339706Y-13087984D02*
X14463515Y-13087984D01*
X14463515Y-13087984D02*
X14396848Y-13164174D01*
X14396848Y-13164174D02*
X14425420Y-13164174D01*
X14425420Y-13164174D02*
X14444468Y-13173698D01*
X14444468Y-13173698D02*
X14453991Y-13183222D01*
X14453991Y-13183222D02*
X14463515Y-13202269D01*
X14463515Y-13202269D02*
X14463515Y-13249888D01*
X14463515Y-13249888D02*
X14453991Y-13268936D01*
X14453991Y-13268936D02*
X14444468Y-13278460D01*
X14444468Y-13278460D02*
X14425420Y-13287984D01*
X14425420Y-13287984D02*
X14368277Y-13287984D01*
X14368277Y-13287984D02*
X14349229Y-13278460D01*
X14349229Y-13278460D02*
X14339706Y-13268936D01*
X14701610Y-13287984D02*
X14701610Y-13087984D01*
X14787325Y-13287984D02*
X14787325Y-13183222D01*
X14787325Y-13183222D02*
X14777801Y-13164174D01*
X14777801Y-13164174D02*
X14758753Y-13154650D01*
X14758753Y-13154650D02*
X14730182Y-13154650D01*
X14730182Y-13154650D02*
X14711134Y-13164174D01*
X14711134Y-13164174D02*
X14701610Y-13173698D01*
X14911134Y-13287984D02*
X14892087Y-13278460D01*
X14892087Y-13278460D02*
X14882563Y-13268936D01*
X14882563Y-13268936D02*
X14873039Y-13249888D01*
X14873039Y-13249888D02*
X14873039Y-13192746D01*
X14873039Y-13192746D02*
X14882563Y-13173698D01*
X14882563Y-13173698D02*
X14892087Y-13164174D01*
X14892087Y-13164174D02*
X14911134Y-13154650D01*
X14911134Y-13154650D02*
X14939706Y-13154650D01*
X14939706Y-13154650D02*
X14958753Y-13164174D01*
X14958753Y-13164174D02*
X14968277Y-13173698D01*
X14968277Y-13173698D02*
X14977801Y-13192746D01*
X14977801Y-13192746D02*
X14977801Y-13249888D01*
X14977801Y-13249888D02*
X14968277Y-13268936D01*
X14968277Y-13268936D02*
X14958753Y-13278460D01*
X14958753Y-13278460D02*
X14939706Y-13287984D01*
X14939706Y-13287984D02*
X14911134Y-13287984D01*
X15092087Y-13287984D02*
X15073039Y-13278460D01*
X15073039Y-13278460D02*
X15063515Y-13259412D01*
X15063515Y-13259412D02*
X15063515Y-13087984D01*
X15244468Y-13278460D02*
X15225420Y-13287984D01*
X15225420Y-13287984D02*
X15187325Y-13287984D01*
X15187325Y-13287984D02*
X15168277Y-13278460D01*
X15168277Y-13278460D02*
X15158753Y-13259412D01*
X15158753Y-13259412D02*
X15158753Y-13183222D01*
X15158753Y-13183222D02*
X15168277Y-13164174D01*
X15168277Y-13164174D02*
X15187325Y-13154650D01*
X15187325Y-13154650D02*
X15225420Y-13154650D01*
X15225420Y-13154650D02*
X15244468Y-13164174D01*
X15244468Y-13164174D02*
X15253991Y-13183222D01*
X15253991Y-13183222D02*
X15253991Y-13202269D01*
X15253991Y-13202269D02*
X15158753Y-13221317D01*
X15330182Y-13278460D02*
X15349230Y-13287984D01*
X15349230Y-13287984D02*
X15387325Y-13287984D01*
X15387325Y-13287984D02*
X15406372Y-13278460D01*
X15406372Y-13278460D02*
X15415896Y-13259412D01*
X15415896Y-13259412D02*
X15415896Y-13249888D01*
X15415896Y-13249888D02*
X15406372Y-13230841D01*
X15406372Y-13230841D02*
X15387325Y-13221317D01*
X15387325Y-13221317D02*
X15358753Y-13221317D01*
X15358753Y-13221317D02*
X15339706Y-13211793D01*
X15339706Y-13211793D02*
X15330182Y-13192746D01*
X15330182Y-13192746D02*
X15330182Y-13183222D01*
X15330182Y-13183222D02*
X15339706Y-13164174D01*
X15339706Y-13164174D02*
X15358753Y-13154650D01*
X15358753Y-13154650D02*
X15387325Y-13154650D01*
X15387325Y-13154650D02*
X15406372Y-13164174D01*
X15482563Y-13364174D02*
X15492087Y-13354650D01*
X15492087Y-13354650D02*
X15511134Y-13326079D01*
X15511134Y-13326079D02*
X15520658Y-13307031D01*
X15520658Y-13307031D02*
X15530182Y-13278460D01*
X15530182Y-13278460D02*
X15539706Y-13230841D01*
X15539706Y-13230841D02*
X15539706Y-13192746D01*
X15539706Y-13192746D02*
X15530182Y-13145127D01*
X15530182Y-13145127D02*
X15520658Y-13116555D01*
X15520658Y-13116555D02*
X15511134Y-13097508D01*
X15511134Y-13097508D02*
X15492087Y-13068936D01*
X15492087Y-13068936D02*
X15482563Y-13059412D01*
D13*
X10592500Y-13403000D02*
X10707500Y-13518000D01*
X10707500Y-13403000D02*
X10592500Y-13518000D01*
X10707500Y-13460500D02*
G75*
G02*
X10592500Y-13460500I-57500J0D01*
G01*
X10592500Y-13460500D02*
G75*
G02*
X10707500Y-13460500I57500J0D01*
G01*
D11*
X11073039Y-13551984D02*
X10958753Y-13551984D01*
X11015896Y-13551984D02*
X11015896Y-13351984D01*
X11015896Y-13351984D02*
X10996848Y-13380555D01*
X10996848Y-13380555D02*
X10977801Y-13399603D01*
X10977801Y-13399603D02*
X10958753Y-13409127D01*
X11158753Y-13532936D02*
X11168277Y-13542460D01*
X11168277Y-13542460D02*
X11158753Y-13551984D01*
X11158753Y-13551984D02*
X11149229Y-13542460D01*
X11149229Y-13542460D02*
X11158753Y-13532936D01*
X11158753Y-13532936D02*
X11158753Y-13551984D01*
X11358753Y-13551984D02*
X11244467Y-13551984D01*
X11301610Y-13551984D02*
X11301610Y-13351984D01*
X11301610Y-13351984D02*
X11282562Y-13380555D01*
X11282562Y-13380555D02*
X11263515Y-13399603D01*
X11263515Y-13399603D02*
X11244467Y-13409127D01*
X11539705Y-13351984D02*
X11444467Y-13351984D01*
X11444467Y-13351984D02*
X11434943Y-13447222D01*
X11434943Y-13447222D02*
X11444467Y-13437698D01*
X11444467Y-13437698D02*
X11463515Y-13428174D01*
X11463515Y-13428174D02*
X11511134Y-13428174D01*
X11511134Y-13428174D02*
X11530182Y-13437698D01*
X11530182Y-13437698D02*
X11539705Y-13447222D01*
X11539705Y-13447222D02*
X11549229Y-13466269D01*
X11549229Y-13466269D02*
X11549229Y-13513888D01*
X11549229Y-13513888D02*
X11539705Y-13532936D01*
X11539705Y-13532936D02*
X11530182Y-13542460D01*
X11530182Y-13542460D02*
X11511134Y-13551984D01*
X11511134Y-13551984D02*
X11463515Y-13551984D01*
X11463515Y-13551984D02*
X11444467Y-13542460D01*
X11444467Y-13542460D02*
X11434943Y-13532936D01*
X11673039Y-13351984D02*
X11692086Y-13351984D01*
X11692086Y-13351984D02*
X11711134Y-13361508D01*
X11711134Y-13361508D02*
X11720658Y-13371031D01*
X11720658Y-13371031D02*
X11730182Y-13390079D01*
X11730182Y-13390079D02*
X11739705Y-13428174D01*
X11739705Y-13428174D02*
X11739705Y-13475793D01*
X11739705Y-13475793D02*
X11730182Y-13513888D01*
X11730182Y-13513888D02*
X11720658Y-13532936D01*
X11720658Y-13532936D02*
X11711134Y-13542460D01*
X11711134Y-13542460D02*
X11692086Y-13551984D01*
X11692086Y-13551984D02*
X11673039Y-13551984D01*
X11673039Y-13551984D02*
X11653991Y-13542460D01*
X11653991Y-13542460D02*
X11644467Y-13532936D01*
X11644467Y-13532936D02*
X11634943Y-13513888D01*
X11634943Y-13513888D02*
X11625420Y-13475793D01*
X11625420Y-13475793D02*
X11625420Y-13428174D01*
X11625420Y-13428174D02*
X11634943Y-13390079D01*
X11634943Y-13390079D02*
X11644467Y-13371031D01*
X11644467Y-13371031D02*
X11653991Y-13361508D01*
X11653991Y-13361508D02*
X11673039Y-13351984D01*
X11825420Y-13551984D02*
X11825420Y-13418650D01*
X11825420Y-13437698D02*
X11834943Y-13428174D01*
X11834943Y-13428174D02*
X11853991Y-13418650D01*
X11853991Y-13418650D02*
X11882563Y-13418650D01*
X11882563Y-13418650D02*
X11901610Y-13428174D01*
X11901610Y-13428174D02*
X11911134Y-13447222D01*
X11911134Y-13447222D02*
X11911134Y-13551984D01*
X11911134Y-13447222D02*
X11920658Y-13428174D01*
X11920658Y-13428174D02*
X11939705Y-13418650D01*
X11939705Y-13418650D02*
X11968277Y-13418650D01*
X11968277Y-13418650D02*
X11987324Y-13428174D01*
X11987324Y-13428174D02*
X11996848Y-13447222D01*
X11996848Y-13447222D02*
X11996848Y-13551984D01*
X12092086Y-13551984D02*
X12092086Y-13418650D01*
X12092086Y-13437698D02*
X12101610Y-13428174D01*
X12101610Y-13428174D02*
X12120658Y-13418650D01*
X12120658Y-13418650D02*
X12149229Y-13418650D01*
X12149229Y-13418650D02*
X12168277Y-13428174D01*
X12168277Y-13428174D02*
X12177801Y-13447222D01*
X12177801Y-13447222D02*
X12177801Y-13551984D01*
X12177801Y-13447222D02*
X12187324Y-13428174D01*
X12187324Y-13428174D02*
X12206372Y-13418650D01*
X12206372Y-13418650D02*
X12234943Y-13418650D01*
X12234943Y-13418650D02*
X12253991Y-13428174D01*
X12253991Y-13428174D02*
X12263515Y-13447222D01*
X12263515Y-13447222D02*
X12263515Y-13551984D01*
X12653991Y-13342460D02*
X12482563Y-13599603D01*
X12911134Y-13351984D02*
X12930182Y-13351984D01*
X12930182Y-13351984D02*
X12949229Y-13361508D01*
X12949229Y-13361508D02*
X12958753Y-13371031D01*
X12958753Y-13371031D02*
X12968277Y-13390079D01*
X12968277Y-13390079D02*
X12977801Y-13428174D01*
X12977801Y-13428174D02*
X12977801Y-13475793D01*
X12977801Y-13475793D02*
X12968277Y-13513888D01*
X12968277Y-13513888D02*
X12958753Y-13532936D01*
X12958753Y-13532936D02*
X12949229Y-13542460D01*
X12949229Y-13542460D02*
X12930182Y-13551984D01*
X12930182Y-13551984D02*
X12911134Y-13551984D01*
X12911134Y-13551984D02*
X12892086Y-13542460D01*
X12892086Y-13542460D02*
X12882563Y-13532936D01*
X12882563Y-13532936D02*
X12873039Y-13513888D01*
X12873039Y-13513888D02*
X12863515Y-13475793D01*
X12863515Y-13475793D02*
X12863515Y-13428174D01*
X12863515Y-13428174D02*
X12873039Y-13390079D01*
X12873039Y-13390079D02*
X12882563Y-13371031D01*
X12882563Y-13371031D02*
X12892086Y-13361508D01*
X12892086Y-13361508D02*
X12911134Y-13351984D01*
X13063515Y-13532936D02*
X13073039Y-13542460D01*
X13073039Y-13542460D02*
X13063515Y-13551984D01*
X13063515Y-13551984D02*
X13053991Y-13542460D01*
X13053991Y-13542460D02*
X13063515Y-13532936D01*
X13063515Y-13532936D02*
X13063515Y-13551984D01*
X13196848Y-13351984D02*
X13215896Y-13351984D01*
X13215896Y-13351984D02*
X13234944Y-13361508D01*
X13234944Y-13361508D02*
X13244467Y-13371031D01*
X13244467Y-13371031D02*
X13253991Y-13390079D01*
X13253991Y-13390079D02*
X13263515Y-13428174D01*
X13263515Y-13428174D02*
X13263515Y-13475793D01*
X13263515Y-13475793D02*
X13253991Y-13513888D01*
X13253991Y-13513888D02*
X13244467Y-13532936D01*
X13244467Y-13532936D02*
X13234944Y-13542460D01*
X13234944Y-13542460D02*
X13215896Y-13551984D01*
X13215896Y-13551984D02*
X13196848Y-13551984D01*
X13196848Y-13551984D02*
X13177801Y-13542460D01*
X13177801Y-13542460D02*
X13168277Y-13532936D01*
X13168277Y-13532936D02*
X13158753Y-13513888D01*
X13158753Y-13513888D02*
X13149229Y-13475793D01*
X13149229Y-13475793D02*
X13149229Y-13428174D01*
X13149229Y-13428174D02*
X13158753Y-13390079D01*
X13158753Y-13390079D02*
X13168277Y-13371031D01*
X13168277Y-13371031D02*
X13177801Y-13361508D01*
X13177801Y-13361508D02*
X13196848Y-13351984D01*
X13434944Y-13418650D02*
X13434944Y-13551984D01*
X13387325Y-13342460D02*
X13339706Y-13485317D01*
X13339706Y-13485317D02*
X13463515Y-13485317D01*
X13634944Y-13351984D02*
X13539706Y-13351984D01*
X13539706Y-13351984D02*
X13530182Y-13447222D01*
X13530182Y-13447222D02*
X13539706Y-13437698D01*
X13539706Y-13437698D02*
X13558753Y-13428174D01*
X13558753Y-13428174D02*
X13606372Y-13428174D01*
X13606372Y-13428174D02*
X13625420Y-13437698D01*
X13625420Y-13437698D02*
X13634944Y-13447222D01*
X13634944Y-13447222D02*
X13644467Y-13466269D01*
X13644467Y-13466269D02*
X13644467Y-13513888D01*
X13644467Y-13513888D02*
X13634944Y-13532936D01*
X13634944Y-13532936D02*
X13625420Y-13542460D01*
X13625420Y-13542460D02*
X13606372Y-13551984D01*
X13606372Y-13551984D02*
X13558753Y-13551984D01*
X13558753Y-13551984D02*
X13539706Y-13542460D01*
X13539706Y-13542460D02*
X13530182Y-13532936D01*
X13711134Y-13351984D02*
X13834944Y-13351984D01*
X13834944Y-13351984D02*
X13768277Y-13428174D01*
X13768277Y-13428174D02*
X13796848Y-13428174D01*
X13796848Y-13428174D02*
X13815896Y-13437698D01*
X13815896Y-13437698D02*
X13825420Y-13447222D01*
X13825420Y-13447222D02*
X13834944Y-13466269D01*
X13834944Y-13466269D02*
X13834944Y-13513888D01*
X13834944Y-13513888D02*
X13825420Y-13532936D01*
X13825420Y-13532936D02*
X13815896Y-13542460D01*
X13815896Y-13542460D02*
X13796848Y-13551984D01*
X13796848Y-13551984D02*
X13739706Y-13551984D01*
X13739706Y-13551984D02*
X13720658Y-13542460D01*
X13720658Y-13542460D02*
X13711134Y-13532936D01*
X13911134Y-13351984D02*
X13911134Y-13390079D01*
X13987325Y-13351984D02*
X13987325Y-13390079D01*
X14282563Y-13628174D02*
X14273039Y-13618650D01*
X14273039Y-13618650D02*
X14253991Y-13590079D01*
X14253991Y-13590079D02*
X14244468Y-13571031D01*
X14244468Y-13571031D02*
X14234944Y-13542460D01*
X14234944Y-13542460D02*
X14225420Y-13494841D01*
X14225420Y-13494841D02*
X14225420Y-13456746D01*
X14225420Y-13456746D02*
X14234944Y-13409127D01*
X14234944Y-13409127D02*
X14244468Y-13380555D01*
X14244468Y-13380555D02*
X14253991Y-13361508D01*
X14253991Y-13361508D02*
X14273039Y-13332936D01*
X14273039Y-13332936D02*
X14282563Y-13323412D01*
X14444468Y-13418650D02*
X14444468Y-13551984D01*
X14396848Y-13342460D02*
X14349229Y-13485317D01*
X14349229Y-13485317D02*
X14473039Y-13485317D01*
X14701610Y-13551984D02*
X14701610Y-13351984D01*
X14787325Y-13551984D02*
X14787325Y-13447222D01*
X14787325Y-13447222D02*
X14777801Y-13428174D01*
X14777801Y-13428174D02*
X14758753Y-13418650D01*
X14758753Y-13418650D02*
X14730182Y-13418650D01*
X14730182Y-13418650D02*
X14711134Y-13428174D01*
X14711134Y-13428174D02*
X14701610Y-13437698D01*
X14911134Y-13551984D02*
X14892087Y-13542460D01*
X14892087Y-13542460D02*
X14882563Y-13532936D01*
X14882563Y-13532936D02*
X14873039Y-13513888D01*
X14873039Y-13513888D02*
X14873039Y-13456746D01*
X14873039Y-13456746D02*
X14882563Y-13437698D01*
X14882563Y-13437698D02*
X14892087Y-13428174D01*
X14892087Y-13428174D02*
X14911134Y-13418650D01*
X14911134Y-13418650D02*
X14939706Y-13418650D01*
X14939706Y-13418650D02*
X14958753Y-13428174D01*
X14958753Y-13428174D02*
X14968277Y-13437698D01*
X14968277Y-13437698D02*
X14977801Y-13456746D01*
X14977801Y-13456746D02*
X14977801Y-13513888D01*
X14977801Y-13513888D02*
X14968277Y-13532936D01*
X14968277Y-13532936D02*
X14958753Y-13542460D01*
X14958753Y-13542460D02*
X14939706Y-13551984D01*
X14939706Y-13551984D02*
X14911134Y-13551984D01*
X15092087Y-13551984D02*
X15073039Y-13542460D01*
X15073039Y-13542460D02*
X15063515Y-13523412D01*
X15063515Y-13523412D02*
X15063515Y-13351984D01*
X15244468Y-13542460D02*
X15225420Y-13551984D01*
X15225420Y-13551984D02*
X15187325Y-13551984D01*
X15187325Y-13551984D02*
X15168277Y-13542460D01*
X15168277Y-13542460D02*
X15158753Y-13523412D01*
X15158753Y-13523412D02*
X15158753Y-13447222D01*
X15158753Y-13447222D02*
X15168277Y-13428174D01*
X15168277Y-13428174D02*
X15187325Y-13418650D01*
X15187325Y-13418650D02*
X15225420Y-13418650D01*
X15225420Y-13418650D02*
X15244468Y-13428174D01*
X15244468Y-13428174D02*
X15253991Y-13447222D01*
X15253991Y-13447222D02*
X15253991Y-13466269D01*
X15253991Y-13466269D02*
X15158753Y-13485317D01*
X15330182Y-13542460D02*
X15349230Y-13551984D01*
X15349230Y-13551984D02*
X15387325Y-13551984D01*
X15387325Y-13551984D02*
X15406372Y-13542460D01*
X15406372Y-13542460D02*
X15415896Y-13523412D01*
X15415896Y-13523412D02*
X15415896Y-13513888D01*
X15415896Y-13513888D02*
X15406372Y-13494841D01*
X15406372Y-13494841D02*
X15387325Y-13485317D01*
X15387325Y-13485317D02*
X15358753Y-13485317D01*
X15358753Y-13485317D02*
X15339706Y-13475793D01*
X15339706Y-13475793D02*
X15330182Y-13456746D01*
X15330182Y-13456746D02*
X15330182Y-13447222D01*
X15330182Y-13447222D02*
X15339706Y-13428174D01*
X15339706Y-13428174D02*
X15358753Y-13418650D01*
X15358753Y-13418650D02*
X15387325Y-13418650D01*
X15387325Y-13418650D02*
X15406372Y-13428174D01*
X15482563Y-13628174D02*
X15492087Y-13618650D01*
X15492087Y-13618650D02*
X15511134Y-13590079D01*
X15511134Y-13590079D02*
X15520658Y-13571031D01*
X15520658Y-13571031D02*
X15530182Y-13542460D01*
X15530182Y-13542460D02*
X15539706Y-13494841D01*
X15539706Y-13494841D02*
X15539706Y-13456746D01*
X15539706Y-13456746D02*
X15530182Y-13409127D01*
X15530182Y-13409127D02*
X15520658Y-13380555D01*
X15520658Y-13380555D02*
X15511134Y-13361508D01*
X15511134Y-13361508D02*
X15492087Y-13332936D01*
X15492087Y-13332936D02*
X15482563Y-13323412D01*
D14*
X10587500Y-13664500D02*
X10707500Y-13784500D01*
X10707500Y-13664500D02*
X10587500Y-13784500D01*
X10647500Y-13664500D02*
X10647500Y-13784500D01*
X10587500Y-13724500D02*
X10707500Y-13724500D01*
D11*
X11073039Y-13815984D02*
X10958753Y-13815984D01*
X11015896Y-13815984D02*
X11015896Y-13615984D01*
X11015896Y-13615984D02*
X10996848Y-13644555D01*
X10996848Y-13644555D02*
X10977801Y-13663603D01*
X10977801Y-13663603D02*
X10958753Y-13673127D01*
X11158753Y-13796936D02*
X11168277Y-13806460D01*
X11168277Y-13806460D02*
X11158753Y-13815984D01*
X11158753Y-13815984D02*
X11149229Y-13806460D01*
X11149229Y-13806460D02*
X11158753Y-13796936D01*
X11158753Y-13796936D02*
X11158753Y-13815984D01*
X11244467Y-13635031D02*
X11253991Y-13625508D01*
X11253991Y-13625508D02*
X11273039Y-13615984D01*
X11273039Y-13615984D02*
X11320658Y-13615984D01*
X11320658Y-13615984D02*
X11339705Y-13625508D01*
X11339705Y-13625508D02*
X11349229Y-13635031D01*
X11349229Y-13635031D02*
X11358753Y-13654079D01*
X11358753Y-13654079D02*
X11358753Y-13673127D01*
X11358753Y-13673127D02*
X11349229Y-13701698D01*
X11349229Y-13701698D02*
X11234943Y-13815984D01*
X11234943Y-13815984D02*
X11358753Y-13815984D01*
X11482562Y-13615984D02*
X11501610Y-13615984D01*
X11501610Y-13615984D02*
X11520658Y-13625508D01*
X11520658Y-13625508D02*
X11530182Y-13635031D01*
X11530182Y-13635031D02*
X11539705Y-13654079D01*
X11539705Y-13654079D02*
X11549229Y-13692174D01*
X11549229Y-13692174D02*
X11549229Y-13739793D01*
X11549229Y-13739793D02*
X11539705Y-13777888D01*
X11539705Y-13777888D02*
X11530182Y-13796936D01*
X11530182Y-13796936D02*
X11520658Y-13806460D01*
X11520658Y-13806460D02*
X11501610Y-13815984D01*
X11501610Y-13815984D02*
X11482562Y-13815984D01*
X11482562Y-13815984D02*
X11463515Y-13806460D01*
X11463515Y-13806460D02*
X11453991Y-13796936D01*
X11453991Y-13796936D02*
X11444467Y-13777888D01*
X11444467Y-13777888D02*
X11434943Y-13739793D01*
X11434943Y-13739793D02*
X11434943Y-13692174D01*
X11434943Y-13692174D02*
X11444467Y-13654079D01*
X11444467Y-13654079D02*
X11453991Y-13635031D01*
X11453991Y-13635031D02*
X11463515Y-13625508D01*
X11463515Y-13625508D02*
X11482562Y-13615984D01*
X11673039Y-13615984D02*
X11692086Y-13615984D01*
X11692086Y-13615984D02*
X11711134Y-13625508D01*
X11711134Y-13625508D02*
X11720658Y-13635031D01*
X11720658Y-13635031D02*
X11730182Y-13654079D01*
X11730182Y-13654079D02*
X11739705Y-13692174D01*
X11739705Y-13692174D02*
X11739705Y-13739793D01*
X11739705Y-13739793D02*
X11730182Y-13777888D01*
X11730182Y-13777888D02*
X11720658Y-13796936D01*
X11720658Y-13796936D02*
X11711134Y-13806460D01*
X11711134Y-13806460D02*
X11692086Y-13815984D01*
X11692086Y-13815984D02*
X11673039Y-13815984D01*
X11673039Y-13815984D02*
X11653991Y-13806460D01*
X11653991Y-13806460D02*
X11644467Y-13796936D01*
X11644467Y-13796936D02*
X11634943Y-13777888D01*
X11634943Y-13777888D02*
X11625420Y-13739793D01*
X11625420Y-13739793D02*
X11625420Y-13692174D01*
X11625420Y-13692174D02*
X11634943Y-13654079D01*
X11634943Y-13654079D02*
X11644467Y-13635031D01*
X11644467Y-13635031D02*
X11653991Y-13625508D01*
X11653991Y-13625508D02*
X11673039Y-13615984D01*
X11825420Y-13815984D02*
X11825420Y-13682650D01*
X11825420Y-13701698D02*
X11834943Y-13692174D01*
X11834943Y-13692174D02*
X11853991Y-13682650D01*
X11853991Y-13682650D02*
X11882563Y-13682650D01*
X11882563Y-13682650D02*
X11901610Y-13692174D01*
X11901610Y-13692174D02*
X11911134Y-13711222D01*
X11911134Y-13711222D02*
X11911134Y-13815984D01*
X11911134Y-13711222D02*
X11920658Y-13692174D01*
X11920658Y-13692174D02*
X11939705Y-13682650D01*
X11939705Y-13682650D02*
X11968277Y-13682650D01*
X11968277Y-13682650D02*
X11987324Y-13692174D01*
X11987324Y-13692174D02*
X11996848Y-13711222D01*
X11996848Y-13711222D02*
X11996848Y-13815984D01*
X12092086Y-13815984D02*
X12092086Y-13682650D01*
X12092086Y-13701698D02*
X12101610Y-13692174D01*
X12101610Y-13692174D02*
X12120658Y-13682650D01*
X12120658Y-13682650D02*
X12149229Y-13682650D01*
X12149229Y-13682650D02*
X12168277Y-13692174D01*
X12168277Y-13692174D02*
X12177801Y-13711222D01*
X12177801Y-13711222D02*
X12177801Y-13815984D01*
X12177801Y-13711222D02*
X12187324Y-13692174D01*
X12187324Y-13692174D02*
X12206372Y-13682650D01*
X12206372Y-13682650D02*
X12234943Y-13682650D01*
X12234943Y-13682650D02*
X12253991Y-13692174D01*
X12253991Y-13692174D02*
X12263515Y-13711222D01*
X12263515Y-13711222D02*
X12263515Y-13815984D01*
X12653991Y-13606460D02*
X12482563Y-13863603D01*
X12911134Y-13615984D02*
X12930182Y-13615984D01*
X12930182Y-13615984D02*
X12949229Y-13625508D01*
X12949229Y-13625508D02*
X12958753Y-13635031D01*
X12958753Y-13635031D02*
X12968277Y-13654079D01*
X12968277Y-13654079D02*
X12977801Y-13692174D01*
X12977801Y-13692174D02*
X12977801Y-13739793D01*
X12977801Y-13739793D02*
X12968277Y-13777888D01*
X12968277Y-13777888D02*
X12958753Y-13796936D01*
X12958753Y-13796936D02*
X12949229Y-13806460D01*
X12949229Y-13806460D02*
X12930182Y-13815984D01*
X12930182Y-13815984D02*
X12911134Y-13815984D01*
X12911134Y-13815984D02*
X12892086Y-13806460D01*
X12892086Y-13806460D02*
X12882563Y-13796936D01*
X12882563Y-13796936D02*
X12873039Y-13777888D01*
X12873039Y-13777888D02*
X12863515Y-13739793D01*
X12863515Y-13739793D02*
X12863515Y-13692174D01*
X12863515Y-13692174D02*
X12873039Y-13654079D01*
X12873039Y-13654079D02*
X12882563Y-13635031D01*
X12882563Y-13635031D02*
X12892086Y-13625508D01*
X12892086Y-13625508D02*
X12911134Y-13615984D01*
X13063515Y-13796936D02*
X13073039Y-13806460D01*
X13073039Y-13806460D02*
X13063515Y-13815984D01*
X13063515Y-13815984D02*
X13053991Y-13806460D01*
X13053991Y-13806460D02*
X13063515Y-13796936D01*
X13063515Y-13796936D02*
X13063515Y-13815984D01*
X13196848Y-13615984D02*
X13215896Y-13615984D01*
X13215896Y-13615984D02*
X13234944Y-13625508D01*
X13234944Y-13625508D02*
X13244467Y-13635031D01*
X13244467Y-13635031D02*
X13253991Y-13654079D01*
X13253991Y-13654079D02*
X13263515Y-13692174D01*
X13263515Y-13692174D02*
X13263515Y-13739793D01*
X13263515Y-13739793D02*
X13253991Y-13777888D01*
X13253991Y-13777888D02*
X13244467Y-13796936D01*
X13244467Y-13796936D02*
X13234944Y-13806460D01*
X13234944Y-13806460D02*
X13215896Y-13815984D01*
X13215896Y-13815984D02*
X13196848Y-13815984D01*
X13196848Y-13815984D02*
X13177801Y-13806460D01*
X13177801Y-13806460D02*
X13168277Y-13796936D01*
X13168277Y-13796936D02*
X13158753Y-13777888D01*
X13158753Y-13777888D02*
X13149229Y-13739793D01*
X13149229Y-13739793D02*
X13149229Y-13692174D01*
X13149229Y-13692174D02*
X13158753Y-13654079D01*
X13158753Y-13654079D02*
X13168277Y-13635031D01*
X13168277Y-13635031D02*
X13177801Y-13625508D01*
X13177801Y-13625508D02*
X13196848Y-13615984D01*
X13434944Y-13682650D02*
X13434944Y-13815984D01*
X13387325Y-13606460D02*
X13339706Y-13749317D01*
X13339706Y-13749317D02*
X13463515Y-13749317D01*
X13520658Y-13615984D02*
X13653991Y-13615984D01*
X13653991Y-13615984D02*
X13568277Y-13815984D01*
X13720658Y-13635031D02*
X13730182Y-13625508D01*
X13730182Y-13625508D02*
X13749229Y-13615984D01*
X13749229Y-13615984D02*
X13796848Y-13615984D01*
X13796848Y-13615984D02*
X13815896Y-13625508D01*
X13815896Y-13625508D02*
X13825420Y-13635031D01*
X13825420Y-13635031D02*
X13834944Y-13654079D01*
X13834944Y-13654079D02*
X13834944Y-13673127D01*
X13834944Y-13673127D02*
X13825420Y-13701698D01*
X13825420Y-13701698D02*
X13711134Y-13815984D01*
X13711134Y-13815984D02*
X13834944Y-13815984D01*
X13911134Y-13615984D02*
X13911134Y-13654079D01*
X13987325Y-13615984D02*
X13987325Y-13654079D01*
X14282563Y-13892174D02*
X14273039Y-13882650D01*
X14273039Y-13882650D02*
X14253991Y-13854079D01*
X14253991Y-13854079D02*
X14244468Y-13835031D01*
X14244468Y-13835031D02*
X14234944Y-13806460D01*
X14234944Y-13806460D02*
X14225420Y-13758841D01*
X14225420Y-13758841D02*
X14225420Y-13720746D01*
X14225420Y-13720746D02*
X14234944Y-13673127D01*
X14234944Y-13673127D02*
X14244468Y-13644555D01*
X14244468Y-13644555D02*
X14253991Y-13625508D01*
X14253991Y-13625508D02*
X14273039Y-13596936D01*
X14273039Y-13596936D02*
X14282563Y-13587412D01*
X14444468Y-13615984D02*
X14406372Y-13615984D01*
X14406372Y-13615984D02*
X14387325Y-13625508D01*
X14387325Y-13625508D02*
X14377801Y-13635031D01*
X14377801Y-13635031D02*
X14358753Y-13663603D01*
X14358753Y-13663603D02*
X14349229Y-13701698D01*
X14349229Y-13701698D02*
X14349229Y-13777888D01*
X14349229Y-13777888D02*
X14358753Y-13796936D01*
X14358753Y-13796936D02*
X14368277Y-13806460D01*
X14368277Y-13806460D02*
X14387325Y-13815984D01*
X14387325Y-13815984D02*
X14425420Y-13815984D01*
X14425420Y-13815984D02*
X14444468Y-13806460D01*
X14444468Y-13806460D02*
X14453991Y-13796936D01*
X14453991Y-13796936D02*
X14463515Y-13777888D01*
X14463515Y-13777888D02*
X14463515Y-13730269D01*
X14463515Y-13730269D02*
X14453991Y-13711222D01*
X14453991Y-13711222D02*
X14444468Y-13701698D01*
X14444468Y-13701698D02*
X14425420Y-13692174D01*
X14425420Y-13692174D02*
X14387325Y-13692174D01*
X14387325Y-13692174D02*
X14368277Y-13701698D01*
X14368277Y-13701698D02*
X14358753Y-13711222D01*
X14358753Y-13711222D02*
X14349229Y-13730269D01*
X14701610Y-13815984D02*
X14701610Y-13615984D01*
X14787325Y-13815984D02*
X14787325Y-13711222D01*
X14787325Y-13711222D02*
X14777801Y-13692174D01*
X14777801Y-13692174D02*
X14758753Y-13682650D01*
X14758753Y-13682650D02*
X14730182Y-13682650D01*
X14730182Y-13682650D02*
X14711134Y-13692174D01*
X14711134Y-13692174D02*
X14701610Y-13701698D01*
X14911134Y-13815984D02*
X14892087Y-13806460D01*
X14892087Y-13806460D02*
X14882563Y-13796936D01*
X14882563Y-13796936D02*
X14873039Y-13777888D01*
X14873039Y-13777888D02*
X14873039Y-13720746D01*
X14873039Y-13720746D02*
X14882563Y-13701698D01*
X14882563Y-13701698D02*
X14892087Y-13692174D01*
X14892087Y-13692174D02*
X14911134Y-13682650D01*
X14911134Y-13682650D02*
X14939706Y-13682650D01*
X14939706Y-13682650D02*
X14958753Y-13692174D01*
X14958753Y-13692174D02*
X14968277Y-13701698D01*
X14968277Y-13701698D02*
X14977801Y-13720746D01*
X14977801Y-13720746D02*
X14977801Y-13777888D01*
X14977801Y-13777888D02*
X14968277Y-13796936D01*
X14968277Y-13796936D02*
X14958753Y-13806460D01*
X14958753Y-13806460D02*
X14939706Y-13815984D01*
X14939706Y-13815984D02*
X14911134Y-13815984D01*
X15092087Y-13815984D02*
X15073039Y-13806460D01*
X15073039Y-13806460D02*
X15063515Y-13787412D01*
X15063515Y-13787412D02*
X15063515Y-13615984D01*
X15244468Y-13806460D02*
X15225420Y-13815984D01*
X15225420Y-13815984D02*
X15187325Y-13815984D01*
X15187325Y-13815984D02*
X15168277Y-13806460D01*
X15168277Y-13806460D02*
X15158753Y-13787412D01*
X15158753Y-13787412D02*
X15158753Y-13711222D01*
X15158753Y-13711222D02*
X15168277Y-13692174D01*
X15168277Y-13692174D02*
X15187325Y-13682650D01*
X15187325Y-13682650D02*
X15225420Y-13682650D01*
X15225420Y-13682650D02*
X15244468Y-13692174D01*
X15244468Y-13692174D02*
X15253991Y-13711222D01*
X15253991Y-13711222D02*
X15253991Y-13730269D01*
X15253991Y-13730269D02*
X15158753Y-13749317D01*
X15330182Y-13806460D02*
X15349230Y-13815984D01*
X15349230Y-13815984D02*
X15387325Y-13815984D01*
X15387325Y-13815984D02*
X15406372Y-13806460D01*
X15406372Y-13806460D02*
X15415896Y-13787412D01*
X15415896Y-13787412D02*
X15415896Y-13777888D01*
X15415896Y-13777888D02*
X15406372Y-13758841D01*
X15406372Y-13758841D02*
X15387325Y-13749317D01*
X15387325Y-13749317D02*
X15358753Y-13749317D01*
X15358753Y-13749317D02*
X15339706Y-13739793D01*
X15339706Y-13739793D02*
X15330182Y-13720746D01*
X15330182Y-13720746D02*
X15330182Y-13711222D01*
X15330182Y-13711222D02*
X15339706Y-13692174D01*
X15339706Y-13692174D02*
X15358753Y-13682650D01*
X15358753Y-13682650D02*
X15387325Y-13682650D01*
X15387325Y-13682650D02*
X15406372Y-13692174D01*
X15482563Y-13892174D02*
X15492087Y-13882650D01*
X15492087Y-13882650D02*
X15511134Y-13854079D01*
X15511134Y-13854079D02*
X15520658Y-13835031D01*
X15520658Y-13835031D02*
X15530182Y-13806460D01*
X15530182Y-13806460D02*
X15539706Y-13758841D01*
X15539706Y-13758841D02*
X15539706Y-13720746D01*
X15539706Y-13720746D02*
X15530182Y-13673127D01*
X15530182Y-13673127D02*
X15520658Y-13644555D01*
X15520658Y-13644555D02*
X15511134Y-13625508D01*
X15511134Y-13625508D02*
X15492087Y-13596936D01*
X15492087Y-13596936D02*
X15482563Y-13587412D01*
D15*
X10575500Y-13922500D02*
X10707500Y-14054500D01*
X10707500Y-13922500D02*
X10575500Y-14054500D01*
X10688170Y-14035169D02*
X10688170Y-13941830D01*
X10594831Y-13941830D01*
X10594831Y-14035169D01*
X10688170Y-14035169D01*
D11*
X11073039Y-14079984D02*
X10958753Y-14079984D01*
X11015896Y-14079984D02*
X11015896Y-13879984D01*
X11015896Y-13879984D02*
X10996848Y-13908555D01*
X10996848Y-13908555D02*
X10977801Y-13927603D01*
X10977801Y-13927603D02*
X10958753Y-13937127D01*
X11158753Y-14060936D02*
X11168277Y-14070460D01*
X11168277Y-14070460D02*
X11158753Y-14079984D01*
X11158753Y-14079984D02*
X11149229Y-14070460D01*
X11149229Y-14070460D02*
X11158753Y-14060936D01*
X11158753Y-14060936D02*
X11158753Y-14079984D01*
X11234943Y-13879984D02*
X11358753Y-13879984D01*
X11358753Y-13879984D02*
X11292086Y-13956174D01*
X11292086Y-13956174D02*
X11320658Y-13956174D01*
X11320658Y-13956174D02*
X11339705Y-13965698D01*
X11339705Y-13965698D02*
X11349229Y-13975222D01*
X11349229Y-13975222D02*
X11358753Y-13994269D01*
X11358753Y-13994269D02*
X11358753Y-14041888D01*
X11358753Y-14041888D02*
X11349229Y-14060936D01*
X11349229Y-14060936D02*
X11339705Y-14070460D01*
X11339705Y-14070460D02*
X11320658Y-14079984D01*
X11320658Y-14079984D02*
X11263515Y-14079984D01*
X11263515Y-14079984D02*
X11244467Y-14070460D01*
X11244467Y-14070460D02*
X11234943Y-14060936D01*
X11434943Y-13899031D02*
X11444467Y-13889508D01*
X11444467Y-13889508D02*
X11463515Y-13879984D01*
X11463515Y-13879984D02*
X11511134Y-13879984D01*
X11511134Y-13879984D02*
X11530182Y-13889508D01*
X11530182Y-13889508D02*
X11539705Y-13899031D01*
X11539705Y-13899031D02*
X11549229Y-13918079D01*
X11549229Y-13918079D02*
X11549229Y-13937127D01*
X11549229Y-13937127D02*
X11539705Y-13965698D01*
X11539705Y-13965698D02*
X11425420Y-14079984D01*
X11425420Y-14079984D02*
X11549229Y-14079984D01*
X11673039Y-13879984D02*
X11692086Y-13879984D01*
X11692086Y-13879984D02*
X11711134Y-13889508D01*
X11711134Y-13889508D02*
X11720658Y-13899031D01*
X11720658Y-13899031D02*
X11730182Y-13918079D01*
X11730182Y-13918079D02*
X11739705Y-13956174D01*
X11739705Y-13956174D02*
X11739705Y-14003793D01*
X11739705Y-14003793D02*
X11730182Y-14041888D01*
X11730182Y-14041888D02*
X11720658Y-14060936D01*
X11720658Y-14060936D02*
X11711134Y-14070460D01*
X11711134Y-14070460D02*
X11692086Y-14079984D01*
X11692086Y-14079984D02*
X11673039Y-14079984D01*
X11673039Y-14079984D02*
X11653991Y-14070460D01*
X11653991Y-14070460D02*
X11644467Y-14060936D01*
X11644467Y-14060936D02*
X11634943Y-14041888D01*
X11634943Y-14041888D02*
X11625420Y-14003793D01*
X11625420Y-14003793D02*
X11625420Y-13956174D01*
X11625420Y-13956174D02*
X11634943Y-13918079D01*
X11634943Y-13918079D02*
X11644467Y-13899031D01*
X11644467Y-13899031D02*
X11653991Y-13889508D01*
X11653991Y-13889508D02*
X11673039Y-13879984D01*
X11825420Y-14079984D02*
X11825420Y-13946650D01*
X11825420Y-13965698D02*
X11834943Y-13956174D01*
X11834943Y-13956174D02*
X11853991Y-13946650D01*
X11853991Y-13946650D02*
X11882563Y-13946650D01*
X11882563Y-13946650D02*
X11901610Y-13956174D01*
X11901610Y-13956174D02*
X11911134Y-13975222D01*
X11911134Y-13975222D02*
X11911134Y-14079984D01*
X11911134Y-13975222D02*
X11920658Y-13956174D01*
X11920658Y-13956174D02*
X11939705Y-13946650D01*
X11939705Y-13946650D02*
X11968277Y-13946650D01*
X11968277Y-13946650D02*
X11987324Y-13956174D01*
X11987324Y-13956174D02*
X11996848Y-13975222D01*
X11996848Y-13975222D02*
X11996848Y-14079984D01*
X12092086Y-14079984D02*
X12092086Y-13946650D01*
X12092086Y-13965698D02*
X12101610Y-13956174D01*
X12101610Y-13956174D02*
X12120658Y-13946650D01*
X12120658Y-13946650D02*
X12149229Y-13946650D01*
X12149229Y-13946650D02*
X12168277Y-13956174D01*
X12168277Y-13956174D02*
X12177801Y-13975222D01*
X12177801Y-13975222D02*
X12177801Y-14079984D01*
X12177801Y-13975222D02*
X12187324Y-13956174D01*
X12187324Y-13956174D02*
X12206372Y-13946650D01*
X12206372Y-13946650D02*
X12234943Y-13946650D01*
X12234943Y-13946650D02*
X12253991Y-13956174D01*
X12253991Y-13956174D02*
X12263515Y-13975222D01*
X12263515Y-13975222D02*
X12263515Y-14079984D01*
X12653991Y-13870460D02*
X12482563Y-14127603D01*
X12911134Y-13879984D02*
X12930182Y-13879984D01*
X12930182Y-13879984D02*
X12949229Y-13889508D01*
X12949229Y-13889508D02*
X12958753Y-13899031D01*
X12958753Y-13899031D02*
X12968277Y-13918079D01*
X12968277Y-13918079D02*
X12977801Y-13956174D01*
X12977801Y-13956174D02*
X12977801Y-14003793D01*
X12977801Y-14003793D02*
X12968277Y-14041888D01*
X12968277Y-14041888D02*
X12958753Y-14060936D01*
X12958753Y-14060936D02*
X12949229Y-14070460D01*
X12949229Y-14070460D02*
X12930182Y-14079984D01*
X12930182Y-14079984D02*
X12911134Y-14079984D01*
X12911134Y-14079984D02*
X12892086Y-14070460D01*
X12892086Y-14070460D02*
X12882563Y-14060936D01*
X12882563Y-14060936D02*
X12873039Y-14041888D01*
X12873039Y-14041888D02*
X12863515Y-14003793D01*
X12863515Y-14003793D02*
X12863515Y-13956174D01*
X12863515Y-13956174D02*
X12873039Y-13918079D01*
X12873039Y-13918079D02*
X12882563Y-13899031D01*
X12882563Y-13899031D02*
X12892086Y-13889508D01*
X12892086Y-13889508D02*
X12911134Y-13879984D01*
X13063515Y-14060936D02*
X13073039Y-14070460D01*
X13073039Y-14070460D02*
X13063515Y-14079984D01*
X13063515Y-14079984D02*
X13053991Y-14070460D01*
X13053991Y-14070460D02*
X13063515Y-14060936D01*
X13063515Y-14060936D02*
X13063515Y-14079984D01*
X13196848Y-13879984D02*
X13215896Y-13879984D01*
X13215896Y-13879984D02*
X13234944Y-13889508D01*
X13234944Y-13889508D02*
X13244467Y-13899031D01*
X13244467Y-13899031D02*
X13253991Y-13918079D01*
X13253991Y-13918079D02*
X13263515Y-13956174D01*
X13263515Y-13956174D02*
X13263515Y-14003793D01*
X13263515Y-14003793D02*
X13253991Y-14041888D01*
X13253991Y-14041888D02*
X13244467Y-14060936D01*
X13244467Y-14060936D02*
X13234944Y-14070460D01*
X13234944Y-14070460D02*
X13215896Y-14079984D01*
X13215896Y-14079984D02*
X13196848Y-14079984D01*
X13196848Y-14079984D02*
X13177801Y-14070460D01*
X13177801Y-14070460D02*
X13168277Y-14060936D01*
X13168277Y-14060936D02*
X13158753Y-14041888D01*
X13158753Y-14041888D02*
X13149229Y-14003793D01*
X13149229Y-14003793D02*
X13149229Y-13956174D01*
X13149229Y-13956174D02*
X13158753Y-13918079D01*
X13158753Y-13918079D02*
X13168277Y-13899031D01*
X13168277Y-13899031D02*
X13177801Y-13889508D01*
X13177801Y-13889508D02*
X13196848Y-13879984D01*
X13444467Y-13879984D02*
X13349229Y-13879984D01*
X13349229Y-13879984D02*
X13339706Y-13975222D01*
X13339706Y-13975222D02*
X13349229Y-13965698D01*
X13349229Y-13965698D02*
X13368277Y-13956174D01*
X13368277Y-13956174D02*
X13415896Y-13956174D01*
X13415896Y-13956174D02*
X13434944Y-13965698D01*
X13434944Y-13965698D02*
X13444467Y-13975222D01*
X13444467Y-13975222D02*
X13453991Y-13994269D01*
X13453991Y-13994269D02*
X13453991Y-14041888D01*
X13453991Y-14041888D02*
X13444467Y-14060936D01*
X13444467Y-14060936D02*
X13434944Y-14070460D01*
X13434944Y-14070460D02*
X13415896Y-14079984D01*
X13415896Y-14079984D02*
X13368277Y-14079984D01*
X13368277Y-14079984D02*
X13349229Y-14070460D01*
X13349229Y-14070460D02*
X13339706Y-14060936D01*
X13530182Y-13899031D02*
X13539706Y-13889508D01*
X13539706Y-13889508D02*
X13558753Y-13879984D01*
X13558753Y-13879984D02*
X13606372Y-13879984D01*
X13606372Y-13879984D02*
X13625420Y-13889508D01*
X13625420Y-13889508D02*
X13634944Y-13899031D01*
X13634944Y-13899031D02*
X13644467Y-13918079D01*
X13644467Y-13918079D02*
X13644467Y-13937127D01*
X13644467Y-13937127D02*
X13634944Y-13965698D01*
X13634944Y-13965698D02*
X13520658Y-14079984D01*
X13520658Y-14079984D02*
X13644467Y-14079984D01*
X13768277Y-13879984D02*
X13787325Y-13879984D01*
X13787325Y-13879984D02*
X13806372Y-13889508D01*
X13806372Y-13889508D02*
X13815896Y-13899031D01*
X13815896Y-13899031D02*
X13825420Y-13918079D01*
X13825420Y-13918079D02*
X13834944Y-13956174D01*
X13834944Y-13956174D02*
X13834944Y-14003793D01*
X13834944Y-14003793D02*
X13825420Y-14041888D01*
X13825420Y-14041888D02*
X13815896Y-14060936D01*
X13815896Y-14060936D02*
X13806372Y-14070460D01*
X13806372Y-14070460D02*
X13787325Y-14079984D01*
X13787325Y-14079984D02*
X13768277Y-14079984D01*
X13768277Y-14079984D02*
X13749229Y-14070460D01*
X13749229Y-14070460D02*
X13739706Y-14060936D01*
X13739706Y-14060936D02*
X13730182Y-14041888D01*
X13730182Y-14041888D02*
X13720658Y-14003793D01*
X13720658Y-14003793D02*
X13720658Y-13956174D01*
X13720658Y-13956174D02*
X13730182Y-13918079D01*
X13730182Y-13918079D02*
X13739706Y-13899031D01*
X13739706Y-13899031D02*
X13749229Y-13889508D01*
X13749229Y-13889508D02*
X13768277Y-13879984D01*
X13911134Y-13879984D02*
X13911134Y-13918079D01*
X13987325Y-13879984D02*
X13987325Y-13918079D01*
X14282563Y-14156174D02*
X14273039Y-14146650D01*
X14273039Y-14146650D02*
X14253991Y-14118079D01*
X14253991Y-14118079D02*
X14244468Y-14099031D01*
X14244468Y-14099031D02*
X14234944Y-14070460D01*
X14234944Y-14070460D02*
X14225420Y-14022841D01*
X14225420Y-14022841D02*
X14225420Y-13984746D01*
X14225420Y-13984746D02*
X14234944Y-13937127D01*
X14234944Y-13937127D02*
X14244468Y-13908555D01*
X14244468Y-13908555D02*
X14253991Y-13889508D01*
X14253991Y-13889508D02*
X14273039Y-13860936D01*
X14273039Y-13860936D02*
X14282563Y-13851412D01*
X14463515Y-14079984D02*
X14349229Y-14079984D01*
X14406372Y-14079984D02*
X14406372Y-13879984D01*
X14406372Y-13879984D02*
X14387325Y-13908555D01*
X14387325Y-13908555D02*
X14368277Y-13927603D01*
X14368277Y-13927603D02*
X14349229Y-13937127D01*
X14587325Y-13879984D02*
X14606372Y-13879984D01*
X14606372Y-13879984D02*
X14625420Y-13889508D01*
X14625420Y-13889508D02*
X14634944Y-13899031D01*
X14634944Y-13899031D02*
X14644468Y-13918079D01*
X14644468Y-13918079D02*
X14653991Y-13956174D01*
X14653991Y-13956174D02*
X14653991Y-14003793D01*
X14653991Y-14003793D02*
X14644468Y-14041888D01*
X14644468Y-14041888D02*
X14634944Y-14060936D01*
X14634944Y-14060936D02*
X14625420Y-14070460D01*
X14625420Y-14070460D02*
X14606372Y-14079984D01*
X14606372Y-14079984D02*
X14587325Y-14079984D01*
X14587325Y-14079984D02*
X14568277Y-14070460D01*
X14568277Y-14070460D02*
X14558753Y-14060936D01*
X14558753Y-14060936D02*
X14549229Y-14041888D01*
X14549229Y-14041888D02*
X14539706Y-14003793D01*
X14539706Y-14003793D02*
X14539706Y-13956174D01*
X14539706Y-13956174D02*
X14549229Y-13918079D01*
X14549229Y-13918079D02*
X14558753Y-13899031D01*
X14558753Y-13899031D02*
X14568277Y-13889508D01*
X14568277Y-13889508D02*
X14587325Y-13879984D01*
X14892087Y-14079984D02*
X14892087Y-13879984D01*
X14977801Y-14079984D02*
X14977801Y-13975222D01*
X14977801Y-13975222D02*
X14968277Y-13956174D01*
X14968277Y-13956174D02*
X14949230Y-13946650D01*
X14949230Y-13946650D02*
X14920658Y-13946650D01*
X14920658Y-13946650D02*
X14901610Y-13956174D01*
X14901610Y-13956174D02*
X14892087Y-13965698D01*
X15101610Y-14079984D02*
X15082563Y-14070460D01*
X15082563Y-14070460D02*
X15073039Y-14060936D01*
X15073039Y-14060936D02*
X15063515Y-14041888D01*
X15063515Y-14041888D02*
X15063515Y-13984746D01*
X15063515Y-13984746D02*
X15073039Y-13965698D01*
X15073039Y-13965698D02*
X15082563Y-13956174D01*
X15082563Y-13956174D02*
X15101610Y-13946650D01*
X15101610Y-13946650D02*
X15130182Y-13946650D01*
X15130182Y-13946650D02*
X15149230Y-13956174D01*
X15149230Y-13956174D02*
X15158753Y-13965698D01*
X15158753Y-13965698D02*
X15168277Y-13984746D01*
X15168277Y-13984746D02*
X15168277Y-14041888D01*
X15168277Y-14041888D02*
X15158753Y-14060936D01*
X15158753Y-14060936D02*
X15149230Y-14070460D01*
X15149230Y-14070460D02*
X15130182Y-14079984D01*
X15130182Y-14079984D02*
X15101610Y-14079984D01*
X15282563Y-14079984D02*
X15263515Y-14070460D01*
X15263515Y-14070460D02*
X15253991Y-14051412D01*
X15253991Y-14051412D02*
X15253991Y-13879984D01*
X15434944Y-14070460D02*
X15415896Y-14079984D01*
X15415896Y-14079984D02*
X15377801Y-14079984D01*
X15377801Y-14079984D02*
X15358753Y-14070460D01*
X15358753Y-14070460D02*
X15349230Y-14051412D01*
X15349230Y-14051412D02*
X15349230Y-13975222D01*
X15349230Y-13975222D02*
X15358753Y-13956174D01*
X15358753Y-13956174D02*
X15377801Y-13946650D01*
X15377801Y-13946650D02*
X15415896Y-13946650D01*
X15415896Y-13946650D02*
X15434944Y-13956174D01*
X15434944Y-13956174D02*
X15444468Y-13975222D01*
X15444468Y-13975222D02*
X15444468Y-13994269D01*
X15444468Y-13994269D02*
X15349230Y-14013317D01*
X15520658Y-14070460D02*
X15539706Y-14079984D01*
X15539706Y-14079984D02*
X15577801Y-14079984D01*
X15577801Y-14079984D02*
X15596849Y-14070460D01*
X15596849Y-14070460D02*
X15606372Y-14051412D01*
X15606372Y-14051412D02*
X15606372Y-14041888D01*
X15606372Y-14041888D02*
X15596849Y-14022841D01*
X15596849Y-14022841D02*
X15577801Y-14013317D01*
X15577801Y-14013317D02*
X15549230Y-14013317D01*
X15549230Y-14013317D02*
X15530182Y-14003793D01*
X15530182Y-14003793D02*
X15520658Y-13984746D01*
X15520658Y-13984746D02*
X15520658Y-13975222D01*
X15520658Y-13975222D02*
X15530182Y-13956174D01*
X15530182Y-13956174D02*
X15549230Y-13946650D01*
X15549230Y-13946650D02*
X15577801Y-13946650D01*
X15577801Y-13946650D02*
X15596849Y-13956174D01*
X15673039Y-14156174D02*
X15682563Y-14146650D01*
X15682563Y-14146650D02*
X15701611Y-14118079D01*
X15701611Y-14118079D02*
X15711134Y-14099031D01*
X15711134Y-14099031D02*
X15720658Y-14070460D01*
X15720658Y-14070460D02*
X15730182Y-14022841D01*
X15730182Y-14022841D02*
X15730182Y-13984746D01*
X15730182Y-13984746D02*
X15720658Y-13937127D01*
X15720658Y-13937127D02*
X15711134Y-13908555D01*
X15711134Y-13908555D02*
X15701611Y-13889508D01*
X15701611Y-13889508D02*
X15682563Y-13860936D01*
X15682563Y-13860936D02*
X15673039Y-13851412D01*
D16*
X10547500Y-14172500D02*
X10707500Y-14332500D01*
X10707500Y-14172500D02*
X10547500Y-14332500D01*
X10627500Y-14332500D02*
X10707500Y-14252500D01*
X10627500Y-14172500D01*
X10547500Y-14252500D01*
X10627500Y-14332500D01*
D11*
X11073039Y-14343984D02*
X10958753Y-14343984D01*
X11015896Y-14343984D02*
X11015896Y-14143984D01*
X11015896Y-14143984D02*
X10996848Y-14172555D01*
X10996848Y-14172555D02*
X10977801Y-14191603D01*
X10977801Y-14191603D02*
X10958753Y-14201127D01*
X11158753Y-14324936D02*
X11168277Y-14334460D01*
X11168277Y-14334460D02*
X11158753Y-14343984D01*
X11158753Y-14343984D02*
X11149229Y-14334460D01*
X11149229Y-14334460D02*
X11158753Y-14324936D01*
X11158753Y-14324936D02*
X11158753Y-14343984D01*
X11339705Y-14143984D02*
X11301610Y-14143984D01*
X11301610Y-14143984D02*
X11282562Y-14153508D01*
X11282562Y-14153508D02*
X11273039Y-14163031D01*
X11273039Y-14163031D02*
X11253991Y-14191603D01*
X11253991Y-14191603D02*
X11244467Y-14229698D01*
X11244467Y-14229698D02*
X11244467Y-14305888D01*
X11244467Y-14305888D02*
X11253991Y-14324936D01*
X11253991Y-14324936D02*
X11263515Y-14334460D01*
X11263515Y-14334460D02*
X11282562Y-14343984D01*
X11282562Y-14343984D02*
X11320658Y-14343984D01*
X11320658Y-14343984D02*
X11339705Y-14334460D01*
X11339705Y-14334460D02*
X11349229Y-14324936D01*
X11349229Y-14324936D02*
X11358753Y-14305888D01*
X11358753Y-14305888D02*
X11358753Y-14258269D01*
X11358753Y-14258269D02*
X11349229Y-14239222D01*
X11349229Y-14239222D02*
X11339705Y-14229698D01*
X11339705Y-14229698D02*
X11320658Y-14220174D01*
X11320658Y-14220174D02*
X11282562Y-14220174D01*
X11282562Y-14220174D02*
X11263515Y-14229698D01*
X11263515Y-14229698D02*
X11253991Y-14239222D01*
X11253991Y-14239222D02*
X11244467Y-14258269D01*
X11482562Y-14143984D02*
X11501610Y-14143984D01*
X11501610Y-14143984D02*
X11520658Y-14153508D01*
X11520658Y-14153508D02*
X11530182Y-14163031D01*
X11530182Y-14163031D02*
X11539705Y-14182079D01*
X11539705Y-14182079D02*
X11549229Y-14220174D01*
X11549229Y-14220174D02*
X11549229Y-14267793D01*
X11549229Y-14267793D02*
X11539705Y-14305888D01*
X11539705Y-14305888D02*
X11530182Y-14324936D01*
X11530182Y-14324936D02*
X11520658Y-14334460D01*
X11520658Y-14334460D02*
X11501610Y-14343984D01*
X11501610Y-14343984D02*
X11482562Y-14343984D01*
X11482562Y-14343984D02*
X11463515Y-14334460D01*
X11463515Y-14334460D02*
X11453991Y-14324936D01*
X11453991Y-14324936D02*
X11444467Y-14305888D01*
X11444467Y-14305888D02*
X11434943Y-14267793D01*
X11434943Y-14267793D02*
X11434943Y-14220174D01*
X11434943Y-14220174D02*
X11444467Y-14182079D01*
X11444467Y-14182079D02*
X11453991Y-14163031D01*
X11453991Y-14163031D02*
X11463515Y-14153508D01*
X11463515Y-14153508D02*
X11482562Y-14143984D01*
X11673039Y-14143984D02*
X11692086Y-14143984D01*
X11692086Y-14143984D02*
X11711134Y-14153508D01*
X11711134Y-14153508D02*
X11720658Y-14163031D01*
X11720658Y-14163031D02*
X11730182Y-14182079D01*
X11730182Y-14182079D02*
X11739705Y-14220174D01*
X11739705Y-14220174D02*
X11739705Y-14267793D01*
X11739705Y-14267793D02*
X11730182Y-14305888D01*
X11730182Y-14305888D02*
X11720658Y-14324936D01*
X11720658Y-14324936D02*
X11711134Y-14334460D01*
X11711134Y-14334460D02*
X11692086Y-14343984D01*
X11692086Y-14343984D02*
X11673039Y-14343984D01*
X11673039Y-14343984D02*
X11653991Y-14334460D01*
X11653991Y-14334460D02*
X11644467Y-14324936D01*
X11644467Y-14324936D02*
X11634943Y-14305888D01*
X11634943Y-14305888D02*
X11625420Y-14267793D01*
X11625420Y-14267793D02*
X11625420Y-14220174D01*
X11625420Y-14220174D02*
X11634943Y-14182079D01*
X11634943Y-14182079D02*
X11644467Y-14163031D01*
X11644467Y-14163031D02*
X11653991Y-14153508D01*
X11653991Y-14153508D02*
X11673039Y-14143984D01*
X11825420Y-14343984D02*
X11825420Y-14210650D01*
X11825420Y-14229698D02*
X11834943Y-14220174D01*
X11834943Y-14220174D02*
X11853991Y-14210650D01*
X11853991Y-14210650D02*
X11882563Y-14210650D01*
X11882563Y-14210650D02*
X11901610Y-14220174D01*
X11901610Y-14220174D02*
X11911134Y-14239222D01*
X11911134Y-14239222D02*
X11911134Y-14343984D01*
X11911134Y-14239222D02*
X11920658Y-14220174D01*
X11920658Y-14220174D02*
X11939705Y-14210650D01*
X11939705Y-14210650D02*
X11968277Y-14210650D01*
X11968277Y-14210650D02*
X11987324Y-14220174D01*
X11987324Y-14220174D02*
X11996848Y-14239222D01*
X11996848Y-14239222D02*
X11996848Y-14343984D01*
X12092086Y-14343984D02*
X12092086Y-14210650D01*
X12092086Y-14229698D02*
X12101610Y-14220174D01*
X12101610Y-14220174D02*
X12120658Y-14210650D01*
X12120658Y-14210650D02*
X12149229Y-14210650D01*
X12149229Y-14210650D02*
X12168277Y-14220174D01*
X12168277Y-14220174D02*
X12177801Y-14239222D01*
X12177801Y-14239222D02*
X12177801Y-14343984D01*
X12177801Y-14239222D02*
X12187324Y-14220174D01*
X12187324Y-14220174D02*
X12206372Y-14210650D01*
X12206372Y-14210650D02*
X12234943Y-14210650D01*
X12234943Y-14210650D02*
X12253991Y-14220174D01*
X12253991Y-14220174D02*
X12263515Y-14239222D01*
X12263515Y-14239222D02*
X12263515Y-14343984D01*
X12653991Y-14134460D02*
X12482563Y-14391603D01*
X12911134Y-14143984D02*
X12930182Y-14143984D01*
X12930182Y-14143984D02*
X12949229Y-14153508D01*
X12949229Y-14153508D02*
X12958753Y-14163031D01*
X12958753Y-14163031D02*
X12968277Y-14182079D01*
X12968277Y-14182079D02*
X12977801Y-14220174D01*
X12977801Y-14220174D02*
X12977801Y-14267793D01*
X12977801Y-14267793D02*
X12968277Y-14305888D01*
X12968277Y-14305888D02*
X12958753Y-14324936D01*
X12958753Y-14324936D02*
X12949229Y-14334460D01*
X12949229Y-14334460D02*
X12930182Y-14343984D01*
X12930182Y-14343984D02*
X12911134Y-14343984D01*
X12911134Y-14343984D02*
X12892086Y-14334460D01*
X12892086Y-14334460D02*
X12882563Y-14324936D01*
X12882563Y-14324936D02*
X12873039Y-14305888D01*
X12873039Y-14305888D02*
X12863515Y-14267793D01*
X12863515Y-14267793D02*
X12863515Y-14220174D01*
X12863515Y-14220174D02*
X12873039Y-14182079D01*
X12873039Y-14182079D02*
X12882563Y-14163031D01*
X12882563Y-14163031D02*
X12892086Y-14153508D01*
X12892086Y-14153508D02*
X12911134Y-14143984D01*
X13063515Y-14324936D02*
X13073039Y-14334460D01*
X13073039Y-14334460D02*
X13063515Y-14343984D01*
X13063515Y-14343984D02*
X13053991Y-14334460D01*
X13053991Y-14334460D02*
X13063515Y-14324936D01*
X13063515Y-14324936D02*
X13063515Y-14343984D01*
X13196848Y-14143984D02*
X13215896Y-14143984D01*
X13215896Y-14143984D02*
X13234944Y-14153508D01*
X13234944Y-14153508D02*
X13244467Y-14163031D01*
X13244467Y-14163031D02*
X13253991Y-14182079D01*
X13253991Y-14182079D02*
X13263515Y-14220174D01*
X13263515Y-14220174D02*
X13263515Y-14267793D01*
X13263515Y-14267793D02*
X13253991Y-14305888D01*
X13253991Y-14305888D02*
X13244467Y-14324936D01*
X13244467Y-14324936D02*
X13234944Y-14334460D01*
X13234944Y-14334460D02*
X13215896Y-14343984D01*
X13215896Y-14343984D02*
X13196848Y-14343984D01*
X13196848Y-14343984D02*
X13177801Y-14334460D01*
X13177801Y-14334460D02*
X13168277Y-14324936D01*
X13168277Y-14324936D02*
X13158753Y-14305888D01*
X13158753Y-14305888D02*
X13149229Y-14267793D01*
X13149229Y-14267793D02*
X13149229Y-14220174D01*
X13149229Y-14220174D02*
X13158753Y-14182079D01*
X13158753Y-14182079D02*
X13168277Y-14163031D01*
X13168277Y-14163031D02*
X13177801Y-14153508D01*
X13177801Y-14153508D02*
X13196848Y-14143984D01*
X13434944Y-14143984D02*
X13396848Y-14143984D01*
X13396848Y-14143984D02*
X13377801Y-14153508D01*
X13377801Y-14153508D02*
X13368277Y-14163031D01*
X13368277Y-14163031D02*
X13349229Y-14191603D01*
X13349229Y-14191603D02*
X13339706Y-14229698D01*
X13339706Y-14229698D02*
X13339706Y-14305888D01*
X13339706Y-14305888D02*
X13349229Y-14324936D01*
X13349229Y-14324936D02*
X13358753Y-14334460D01*
X13358753Y-14334460D02*
X13377801Y-14343984D01*
X13377801Y-14343984D02*
X13415896Y-14343984D01*
X13415896Y-14343984D02*
X13434944Y-14334460D01*
X13434944Y-14334460D02*
X13444467Y-14324936D01*
X13444467Y-14324936D02*
X13453991Y-14305888D01*
X13453991Y-14305888D02*
X13453991Y-14258269D01*
X13453991Y-14258269D02*
X13444467Y-14239222D01*
X13444467Y-14239222D02*
X13434944Y-14229698D01*
X13434944Y-14229698D02*
X13415896Y-14220174D01*
X13415896Y-14220174D02*
X13377801Y-14220174D01*
X13377801Y-14220174D02*
X13358753Y-14229698D01*
X13358753Y-14229698D02*
X13349229Y-14239222D01*
X13349229Y-14239222D02*
X13339706Y-14258269D01*
X13520658Y-14143984D02*
X13644467Y-14143984D01*
X13644467Y-14143984D02*
X13577801Y-14220174D01*
X13577801Y-14220174D02*
X13606372Y-14220174D01*
X13606372Y-14220174D02*
X13625420Y-14229698D01*
X13625420Y-14229698D02*
X13634944Y-14239222D01*
X13634944Y-14239222D02*
X13644467Y-14258269D01*
X13644467Y-14258269D02*
X13644467Y-14305888D01*
X13644467Y-14305888D02*
X13634944Y-14324936D01*
X13634944Y-14324936D02*
X13625420Y-14334460D01*
X13625420Y-14334460D02*
X13606372Y-14343984D01*
X13606372Y-14343984D02*
X13549229Y-14343984D01*
X13549229Y-14343984D02*
X13530182Y-14334460D01*
X13530182Y-14334460D02*
X13520658Y-14324936D01*
X13768277Y-14143984D02*
X13787325Y-14143984D01*
X13787325Y-14143984D02*
X13806372Y-14153508D01*
X13806372Y-14153508D02*
X13815896Y-14163031D01*
X13815896Y-14163031D02*
X13825420Y-14182079D01*
X13825420Y-14182079D02*
X13834944Y-14220174D01*
X13834944Y-14220174D02*
X13834944Y-14267793D01*
X13834944Y-14267793D02*
X13825420Y-14305888D01*
X13825420Y-14305888D02*
X13815896Y-14324936D01*
X13815896Y-14324936D02*
X13806372Y-14334460D01*
X13806372Y-14334460D02*
X13787325Y-14343984D01*
X13787325Y-14343984D02*
X13768277Y-14343984D01*
X13768277Y-14343984D02*
X13749229Y-14334460D01*
X13749229Y-14334460D02*
X13739706Y-14324936D01*
X13739706Y-14324936D02*
X13730182Y-14305888D01*
X13730182Y-14305888D02*
X13720658Y-14267793D01*
X13720658Y-14267793D02*
X13720658Y-14220174D01*
X13720658Y-14220174D02*
X13730182Y-14182079D01*
X13730182Y-14182079D02*
X13739706Y-14163031D01*
X13739706Y-14163031D02*
X13749229Y-14153508D01*
X13749229Y-14153508D02*
X13768277Y-14143984D01*
X13911134Y-14143984D02*
X13911134Y-14182079D01*
X13987325Y-14143984D02*
X13987325Y-14182079D01*
X14282563Y-14420174D02*
X14273039Y-14410650D01*
X14273039Y-14410650D02*
X14253991Y-14382079D01*
X14253991Y-14382079D02*
X14244468Y-14363031D01*
X14244468Y-14363031D02*
X14234944Y-14334460D01*
X14234944Y-14334460D02*
X14225420Y-14286841D01*
X14225420Y-14286841D02*
X14225420Y-14248746D01*
X14225420Y-14248746D02*
X14234944Y-14201127D01*
X14234944Y-14201127D02*
X14244468Y-14172555D01*
X14244468Y-14172555D02*
X14253991Y-14153508D01*
X14253991Y-14153508D02*
X14273039Y-14124936D01*
X14273039Y-14124936D02*
X14282563Y-14115412D01*
X14444468Y-14210650D02*
X14444468Y-14343984D01*
X14396848Y-14134460D02*
X14349229Y-14277317D01*
X14349229Y-14277317D02*
X14473039Y-14277317D01*
X14701610Y-14343984D02*
X14701610Y-14143984D01*
X14787325Y-14343984D02*
X14787325Y-14239222D01*
X14787325Y-14239222D02*
X14777801Y-14220174D01*
X14777801Y-14220174D02*
X14758753Y-14210650D01*
X14758753Y-14210650D02*
X14730182Y-14210650D01*
X14730182Y-14210650D02*
X14711134Y-14220174D01*
X14711134Y-14220174D02*
X14701610Y-14229698D01*
X14911134Y-14343984D02*
X14892087Y-14334460D01*
X14892087Y-14334460D02*
X14882563Y-14324936D01*
X14882563Y-14324936D02*
X14873039Y-14305888D01*
X14873039Y-14305888D02*
X14873039Y-14248746D01*
X14873039Y-14248746D02*
X14882563Y-14229698D01*
X14882563Y-14229698D02*
X14892087Y-14220174D01*
X14892087Y-14220174D02*
X14911134Y-14210650D01*
X14911134Y-14210650D02*
X14939706Y-14210650D01*
X14939706Y-14210650D02*
X14958753Y-14220174D01*
X14958753Y-14220174D02*
X14968277Y-14229698D01*
X14968277Y-14229698D02*
X14977801Y-14248746D01*
X14977801Y-14248746D02*
X14977801Y-14305888D01*
X14977801Y-14305888D02*
X14968277Y-14324936D01*
X14968277Y-14324936D02*
X14958753Y-14334460D01*
X14958753Y-14334460D02*
X14939706Y-14343984D01*
X14939706Y-14343984D02*
X14911134Y-14343984D01*
X15092087Y-14343984D02*
X15073039Y-14334460D01*
X15073039Y-14334460D02*
X15063515Y-14315412D01*
X15063515Y-14315412D02*
X15063515Y-14143984D01*
X15244468Y-14334460D02*
X15225420Y-14343984D01*
X15225420Y-14343984D02*
X15187325Y-14343984D01*
X15187325Y-14343984D02*
X15168277Y-14334460D01*
X15168277Y-14334460D02*
X15158753Y-14315412D01*
X15158753Y-14315412D02*
X15158753Y-14239222D01*
X15158753Y-14239222D02*
X15168277Y-14220174D01*
X15168277Y-14220174D02*
X15187325Y-14210650D01*
X15187325Y-14210650D02*
X15225420Y-14210650D01*
X15225420Y-14210650D02*
X15244468Y-14220174D01*
X15244468Y-14220174D02*
X15253991Y-14239222D01*
X15253991Y-14239222D02*
X15253991Y-14258269D01*
X15253991Y-14258269D02*
X15158753Y-14277317D01*
X15330182Y-14334460D02*
X15349230Y-14343984D01*
X15349230Y-14343984D02*
X15387325Y-14343984D01*
X15387325Y-14343984D02*
X15406372Y-14334460D01*
X15406372Y-14334460D02*
X15415896Y-14315412D01*
X15415896Y-14315412D02*
X15415896Y-14305888D01*
X15415896Y-14305888D02*
X15406372Y-14286841D01*
X15406372Y-14286841D02*
X15387325Y-14277317D01*
X15387325Y-14277317D02*
X15358753Y-14277317D01*
X15358753Y-14277317D02*
X15339706Y-14267793D01*
X15339706Y-14267793D02*
X15330182Y-14248746D01*
X15330182Y-14248746D02*
X15330182Y-14239222D01*
X15330182Y-14239222D02*
X15339706Y-14220174D01*
X15339706Y-14220174D02*
X15358753Y-14210650D01*
X15358753Y-14210650D02*
X15387325Y-14210650D01*
X15387325Y-14210650D02*
X15406372Y-14220174D01*
X15482563Y-14420174D02*
X15492087Y-14410650D01*
X15492087Y-14410650D02*
X15511134Y-14382079D01*
X15511134Y-14382079D02*
X15520658Y-14363031D01*
X15520658Y-14363031D02*
X15530182Y-14334460D01*
X15530182Y-14334460D02*
X15539706Y-14286841D01*
X15539706Y-14286841D02*
X15539706Y-14248746D01*
X15539706Y-14248746D02*
X15530182Y-14201127D01*
X15530182Y-14201127D02*
X15520658Y-14172555D01*
X15520658Y-14172555D02*
X15511134Y-14153508D01*
X15511134Y-14153508D02*
X15492087Y-14124936D01*
X15492087Y-14124936D02*
X15482563Y-14115412D01*
M02*
