G04 #@! TF.GenerationSoftware,KiCad,Pcbnew,8.0.0*
G04 #@! TF.CreationDate,2024-10-15T09:50:15-05:00*
G04 #@! TF.ProjectId,Rain and Switches Control Board,5261696e-2061-46e6-9420-537769746368,rev?*
G04 #@! TF.SameCoordinates,Original*
G04 #@! TF.FileFunction,Soldermask,Bot*
G04 #@! TF.FilePolarity,Negative*
%FSLAX46Y46*%
G04 Gerber Fmt 4.6, Leading zero omitted, Abs format (unit mm)*
G04 Created by KiCad (PCBNEW 8.0.0) date 2024-10-15 09:50:15*
%MOMM*%
%LPD*%
G01*
G04 APERTURE LIST*
G04 Aperture macros list*
%AMRoundRect*
0 Rectangle with rounded corners*
0 $1 Rounding radius*
0 $2 $3 $4 $5 $6 $7 $8 $9 X,Y pos of 4 corners*
0 Add a 4 corners polygon primitive as box body*
4,1,4,$2,$3,$4,$5,$6,$7,$8,$9,$2,$3,0*
0 Add four circle primitives for the rounded corners*
1,1,$1+$1,$2,$3*
1,1,$1+$1,$4,$5*
1,1,$1+$1,$6,$7*
1,1,$1+$1,$8,$9*
0 Add four rect primitives between the rounded corners*
20,1,$1+$1,$2,$3,$4,$5,0*
20,1,$1+$1,$4,$5,$6,$7,0*
20,1,$1+$1,$6,$7,$8,$9,0*
20,1,$1+$1,$8,$9,$2,$3,0*%
G04 Aperture macros list end*
%ADD10C,3.200000*%
%ADD11R,1.300000X1.300000*%
%ADD12C,1.300000*%
%ADD13RoundRect,0.250000X-0.650000X-1.550000X0.650000X-1.550000X0.650000X1.550000X-0.650000X1.550000X0*%
%ADD14O,1.800000X3.600000*%
%ADD15R,1.800000X1.800000*%
%ADD16C,1.800000*%
%ADD17O,1.980000X3.960000*%
%ADD18R,1.980000X3.960000*%
%ADD19C,3.000000*%
%ADD20C,1.500000*%
%ADD21R,1.500000X1.500000*%
%ADD22C,3.250000*%
%ADD23O,3.000000X1.500000*%
%ADD24R,3.000000X1.500000*%
%ADD25C,1.265000*%
G04 APERTURE END LIST*
D10*
X157096000Y-43428800D03*
X166096000Y-93428800D03*
X111096000Y-43428800D03*
X111096000Y-93428800D03*
D11*
X115261600Y-85504000D03*
D12*
X116531600Y-84234000D03*
X117801600Y-85504000D03*
D11*
X120849600Y-85504000D03*
D12*
X122119600Y-84234000D03*
X123389600Y-85504000D03*
D11*
X126437600Y-85504000D03*
D12*
X127707600Y-84234000D03*
X128977600Y-85504000D03*
D11*
X132025600Y-85504000D03*
D12*
X133295600Y-84234000D03*
X134565600Y-85504000D03*
X140153600Y-85504000D03*
X138883600Y-84234000D03*
D11*
X137613600Y-85504000D03*
D13*
X110296000Y-106703800D03*
D14*
X113796000Y-106703800D03*
X117296000Y-106703800D03*
X120796000Y-106703800D03*
X124296000Y-106703800D03*
X127796000Y-106703800D03*
D15*
X126438600Y-42166600D03*
D16*
X126438600Y-44706600D03*
X126438600Y-47246600D03*
D17*
X157578200Y-106535200D03*
D18*
X162578200Y-106535200D03*
D19*
X182873800Y-52150800D03*
X182873800Y-67690800D03*
D20*
X170933800Y-55475800D03*
X173473800Y-56745800D03*
X170933800Y-58015800D03*
X173473800Y-59285800D03*
X170933800Y-60555800D03*
X173473800Y-61825800D03*
X170933800Y-63095800D03*
D21*
X173473800Y-64365800D03*
D22*
X179823800Y-54205800D03*
X179823800Y-65635800D03*
D16*
X138832800Y-47302400D03*
D15*
X141372800Y-47302400D03*
D23*
X174828800Y-47120800D03*
X183028800Y-47120800D03*
D24*
X174828800Y-42120800D03*
X183028800Y-42120800D03*
D17*
X180378200Y-106535200D03*
D18*
X185378200Y-106535200D03*
D19*
X182888800Y-71920800D03*
X182888800Y-87460800D03*
D20*
X170948800Y-75245800D03*
X173488800Y-76515800D03*
X170948800Y-77785800D03*
X173488800Y-79055800D03*
X170948800Y-80325800D03*
X173488800Y-81595800D03*
X170948800Y-82865800D03*
D21*
X173488800Y-84135800D03*
D22*
X179838800Y-73975800D03*
X179838800Y-85405800D03*
D25*
X108657600Y-59088000D03*
X111197600Y-59088000D03*
X113737600Y-59088000D03*
X116277600Y-59088000D03*
X118817600Y-59088000D03*
X121357600Y-59088000D03*
X123897600Y-59088000D03*
X126437600Y-59088000D03*
X128977600Y-59088000D03*
X131517600Y-59088000D03*
X134057600Y-59088000D03*
X136597600Y-59088000D03*
X139137600Y-59088000D03*
X141677600Y-59088000D03*
X141677600Y-61628000D03*
X141677600Y-64168000D03*
X141677600Y-66708000D03*
X141677600Y-69248000D03*
X141677600Y-71788000D03*
X141677600Y-74328000D03*
X139137600Y-74328000D03*
X136597600Y-74328000D03*
X134057600Y-74328000D03*
X131517600Y-74328000D03*
X128977600Y-74328000D03*
X126437600Y-74328000D03*
X123897600Y-74328000D03*
X121357600Y-74328000D03*
X118817600Y-74328000D03*
X116277600Y-74328000D03*
X113737600Y-74328000D03*
X111197600Y-74328000D03*
X108657600Y-74328000D03*
D17*
X134938200Y-106535200D03*
D18*
X139938200Y-106535200D03*
D17*
X146238200Y-106535200D03*
D18*
X151238200Y-106535200D03*
D17*
X168958200Y-106535200D03*
D18*
X173958200Y-106535200D03*
M02*
