M48
; DRILL file {KiCad 8.0.0} date 2024-10-15T09:50:21-0500
; FORMAT={-:-/ absolute / metric / decimal}
; #@! TF.CreationDate,2024-10-15T09:50:21-05:00
; #@! TF.GenerationSoftware,Kicad,Pcbnew,8.0.0
; #@! TF.FileFunction,Plated,1,2,PTH
FMAT,2
METRIC
; #@! TA.AperFunction,Plated,PTH,ViaDrill
T1C0.300
; #@! TA.AperFunction,Plated,PTH,ComponentDrill
T2C0.750
; #@! TA.AperFunction,Plated,PTH,ComponentDrill
T3C0.900
; #@! TA.AperFunction,Plated,PTH,ComponentDrill
T4C0.965
; #@! TA.AperFunction,Plated,PTH,ComponentDrill
T5C1.000
; #@! TA.AperFunction,Plated,PTH,ComponentDrill
T6C1.150
; #@! TA.AperFunction,Plated,PTH,ComponentDrill
T7C1.200
; #@! TA.AperFunction,Plated,PTH,ComponentDrill
T8C1.320
; #@! TA.AperFunction,Plated,PTH,ComponentDrill
T9C1.600
%
G90
G05
T1
X121.446Y-56.779
X150.06Y-64.117
X152.396Y-60.155
X157.527Y-69.248
X158.746Y-63.0
X158.797Y-55.075
X160.016Y-60.155
X160.016Y-63.0
T2
X115.262Y-85.504
X116.532Y-84.234
X117.802Y-85.504
X120.85Y-85.504
X122.12Y-84.234
X123.39Y-85.504
X126.438Y-85.504
X127.708Y-84.234
X128.978Y-85.504
X132.026Y-85.504
X133.296Y-84.234
X134.566Y-85.504
X137.614Y-85.504
X138.884Y-84.234
X140.154Y-85.504
T3
X138.833Y-47.302
X141.373Y-47.302
X170.934Y-55.476
X170.934Y-58.016
X170.934Y-60.556
X170.934Y-63.096
X170.949Y-75.246
X170.949Y-77.786
X170.949Y-80.326
X170.949Y-82.866
X173.474Y-56.746
X173.474Y-59.286
X173.474Y-61.826
X173.474Y-64.366
X173.489Y-76.516
X173.489Y-79.056
X173.489Y-81.596
X173.489Y-84.136
T4
X108.658Y-59.088
X108.658Y-74.328
X111.198Y-59.088
X111.198Y-74.328
X113.738Y-59.088
X113.738Y-74.328
X116.278Y-59.088
X116.278Y-74.328
X118.818Y-59.088
X118.818Y-74.328
X121.358Y-59.088
X121.358Y-74.328
X123.898Y-59.088
X123.898Y-74.328
X126.438Y-59.088
X126.438Y-74.328
X128.978Y-59.088
X128.978Y-74.328
X131.518Y-59.088
X131.518Y-74.328
X134.058Y-59.088
X134.058Y-74.328
X136.598Y-59.088
X136.598Y-74.328
X139.138Y-59.088
X139.138Y-74.328
X141.678Y-59.088
X141.678Y-61.628
X141.678Y-64.168
X141.678Y-66.708
X141.678Y-69.248
X141.678Y-71.788
X141.678Y-74.328
T5
X126.439Y-42.167
X126.439Y-44.707
X126.439Y-47.247
T6
X174.829Y-42.121
X174.829Y-47.121
X183.029Y-42.121
X183.029Y-47.121
T7
X110.296Y-106.704
X113.796Y-106.704
X117.296Y-106.704
X120.796Y-106.704
X124.296Y-106.704
X127.796Y-106.704
T8
X134.938Y-106.535
X139.938Y-106.535
X146.238Y-106.535
X151.238Y-106.535
X157.578Y-106.535
X162.578Y-106.535
X168.958Y-106.535
X173.958Y-106.535
X180.378Y-106.535
X185.378Y-106.535
T9
X182.874Y-52.151
X182.874Y-67.691
X182.889Y-71.921
X182.889Y-87.461
M30
