G04 #@! TF.GenerationSoftware,KiCad,Pcbnew,8.0.0*
G04 #@! TF.CreationDate,2024-10-15T09:50:15-05:00*
G04 #@! TF.ProjectId,Rain and Switches Control Board,5261696e-2061-46e6-9420-537769746368,rev?*
G04 #@! TF.SameCoordinates,Original*
G04 #@! TF.FileFunction,Soldermask,Top*
G04 #@! TF.FilePolarity,Negative*
%FSLAX46Y46*%
G04 Gerber Fmt 4.6, Leading zero omitted, Abs format (unit mm)*
G04 Created by KiCad (PCBNEW 8.0.0) date 2024-10-15 09:50:15*
%MOMM*%
%LPD*%
G01*
G04 APERTURE LIST*
G04 Aperture macros list*
%AMRoundRect*
0 Rectangle with rounded corners*
0 $1 Rounding radius*
0 $2 $3 $4 $5 $6 $7 $8 $9 X,Y pos of 4 corners*
0 Add a 4 corners polygon primitive as box body*
4,1,4,$2,$3,$4,$5,$6,$7,$8,$9,$2,$3,0*
0 Add four circle primitives for the rounded corners*
1,1,$1+$1,$2,$3*
1,1,$1+$1,$4,$5*
1,1,$1+$1,$6,$7*
1,1,$1+$1,$8,$9*
0 Add four rect primitives between the rounded corners*
20,1,$1+$1,$2,$3,$4,$5,0*
20,1,$1+$1,$4,$5,$6,$7,0*
20,1,$1+$1,$6,$7,$8,$9,0*
20,1,$1+$1,$8,$9,$2,$3,0*%
G04 Aperture macros list end*
%ADD10C,3.200000*%
%ADD11RoundRect,0.250000X0.450000X-0.262500X0.450000X0.262500X-0.450000X0.262500X-0.450000X-0.262500X0*%
%ADD12R,1.549400X0.609600*%
%ADD13RoundRect,0.250000X0.625000X-0.312500X0.625000X0.312500X-0.625000X0.312500X-0.625000X-0.312500X0*%
%ADD14R,1.300000X1.300000*%
%ADD15C,1.300000*%
%ADD16RoundRect,0.250000X-0.650000X-1.550000X0.650000X-1.550000X0.650000X1.550000X-0.650000X1.550000X0*%
%ADD17O,1.800000X3.600000*%
%ADD18R,1.800000X1.800000*%
%ADD19C,1.800000*%
%ADD20RoundRect,0.250000X0.312500X0.625000X-0.312500X0.625000X-0.312500X-0.625000X0.312500X-0.625000X0*%
%ADD21RoundRect,0.250000X-0.312500X-0.625000X0.312500X-0.625000X0.312500X0.625000X-0.312500X0.625000X0*%
%ADD22O,1.980000X3.960000*%
%ADD23R,1.980000X3.960000*%
%ADD24C,3.000000*%
%ADD25C,1.500000*%
%ADD26R,1.500000X1.500000*%
%ADD27C,3.250000*%
%ADD28O,3.000000X1.500000*%
%ADD29R,3.000000X1.500000*%
%ADD30R,0.508000X1.104900*%
%ADD31C,1.265000*%
G04 APERTURE END LIST*
D10*
X157096000Y-43428800D03*
X166096000Y-93428800D03*
X111096000Y-43428800D03*
X111096000Y-93428800D03*
D11*
X116582400Y-78243400D03*
X116582400Y-80068400D03*
X122119600Y-78243400D03*
X122119600Y-80068400D03*
X127707600Y-78243400D03*
X127707600Y-80068400D03*
X133295600Y-80068400D03*
X133295600Y-78243400D03*
X138883600Y-80068400D03*
X138883600Y-78243400D03*
D12*
X121459200Y-51671200D03*
X121459200Y-52941200D03*
X121459200Y-54211200D03*
X121459200Y-55481200D03*
X116059200Y-55481200D03*
X116059200Y-54211200D03*
X116059200Y-52941200D03*
X116059200Y-51671200D03*
D13*
X119782800Y-94440400D03*
X119782800Y-91515400D03*
X123237200Y-94440400D03*
X123237200Y-91515400D03*
X126691600Y-94440400D03*
X126691600Y-91515400D03*
X130196800Y-91515400D03*
X130196800Y-94440400D03*
X133752800Y-91464600D03*
X133752800Y-94389600D03*
D14*
X115261600Y-85504000D03*
D15*
X116531600Y-84234000D03*
X117801600Y-85504000D03*
D14*
X120849600Y-85504000D03*
D15*
X122119600Y-84234000D03*
X123389600Y-85504000D03*
D14*
X126437600Y-85504000D03*
D15*
X127707600Y-84234000D03*
X128977600Y-85504000D03*
D14*
X132025600Y-85504000D03*
D15*
X133295600Y-84234000D03*
X134565600Y-85504000D03*
X140153600Y-85504000D03*
X138883600Y-84234000D03*
D14*
X137613600Y-85504000D03*
D16*
X110296000Y-106703800D03*
D17*
X113796000Y-106703800D03*
X117296000Y-106703800D03*
X120796000Y-106703800D03*
X124296000Y-106703800D03*
X127796000Y-106703800D03*
D18*
X126438600Y-42166600D03*
D19*
X126438600Y-44706600D03*
X126438600Y-47246600D03*
D20*
X153651000Y-66403200D03*
X150726000Y-66403200D03*
D21*
X133113800Y-47302400D03*
X136038800Y-47302400D03*
D20*
X160386000Y-56802000D03*
X157461000Y-56802000D03*
D22*
X157578200Y-106535200D03*
D23*
X162578200Y-106535200D03*
D24*
X182873800Y-52150800D03*
X182873800Y-67690800D03*
D25*
X170933800Y-55475800D03*
X173473800Y-56745800D03*
X170933800Y-58015800D03*
X173473800Y-59285800D03*
X170933800Y-60555800D03*
X173473800Y-61825800D03*
X170933800Y-63095800D03*
D26*
X173473800Y-64365800D03*
D27*
X179823800Y-54205800D03*
X179823800Y-65635800D03*
D19*
X138832800Y-47302400D03*
D18*
X141372800Y-47302400D03*
D20*
X159116000Y-66403200D03*
X156191000Y-66403200D03*
D28*
X174828800Y-47120800D03*
X183028800Y-47120800D03*
D29*
X174828800Y-42120800D03*
X183028800Y-42120800D03*
D20*
X154921000Y-56802000D03*
X151996000Y-56802000D03*
D22*
X180378200Y-106535200D03*
D23*
X185378200Y-106535200D03*
D30*
X151126400Y-59037200D03*
X152396400Y-59037200D03*
X153666400Y-59037200D03*
X154936400Y-59037200D03*
X156206400Y-59037200D03*
X157476400Y-59037200D03*
X158746400Y-59037200D03*
X160016400Y-59037200D03*
X160016400Y-64117200D03*
X158746400Y-64117200D03*
X157476400Y-64117200D03*
X156206400Y-64117200D03*
X154936400Y-64117200D03*
X153666400Y-64117200D03*
X152396400Y-64117200D03*
X151126400Y-64117200D03*
D24*
X182888800Y-71920800D03*
X182888800Y-87460800D03*
D25*
X170948800Y-75245800D03*
X173488800Y-76515800D03*
X170948800Y-77785800D03*
X173488800Y-79055800D03*
X170948800Y-80325800D03*
X173488800Y-81595800D03*
X170948800Y-82865800D03*
D26*
X173488800Y-84135800D03*
D27*
X179838800Y-73975800D03*
X179838800Y-85405800D03*
D21*
X159171000Y-72578800D03*
X156246000Y-72578800D03*
D31*
X108657600Y-59088000D03*
X111197600Y-59088000D03*
X113737600Y-59088000D03*
X116277600Y-59088000D03*
X118817600Y-59088000D03*
X121357600Y-59088000D03*
X123897600Y-59088000D03*
X126437600Y-59088000D03*
X128977600Y-59088000D03*
X131517600Y-59088000D03*
X134057600Y-59088000D03*
X136597600Y-59088000D03*
X139137600Y-59088000D03*
X141677600Y-59088000D03*
X141677600Y-61628000D03*
X141677600Y-64168000D03*
X141677600Y-66708000D03*
X141677600Y-69248000D03*
X141677600Y-71788000D03*
X141677600Y-74328000D03*
X139137600Y-74328000D03*
X136597600Y-74328000D03*
X134057600Y-74328000D03*
X131517600Y-74328000D03*
X128977600Y-74328000D03*
X126437600Y-74328000D03*
X123897600Y-74328000D03*
X121357600Y-74328000D03*
X118817600Y-74328000D03*
X116277600Y-74328000D03*
X113737600Y-74328000D03*
X111197600Y-74328000D03*
X108657600Y-74328000D03*
D22*
X134938200Y-106535200D03*
D23*
X139938200Y-106535200D03*
D22*
X146238200Y-106535200D03*
D23*
X151238200Y-106535200D03*
D22*
X168958200Y-106535200D03*
D23*
X173958200Y-106535200D03*
M02*
