G04 #@! TF.GenerationSoftware,KiCad,Pcbnew,8.0.0*
G04 #@! TF.CreationDate,2024-10-15T09:50:15-05:00*
G04 #@! TF.ProjectId,Rain and Switches Control Board,5261696e-2061-46e6-9420-537769746368,rev?*
G04 #@! TF.SameCoordinates,Original*
G04 #@! TF.FileFunction,Copper,L1,Top*
G04 #@! TF.FilePolarity,Positive*
%FSLAX46Y46*%
G04 Gerber Fmt 4.6, Leading zero omitted, Abs format (unit mm)*
G04 Created by KiCad (PCBNEW 8.0.0) date 2024-10-15 09:50:15*
%MOMM*%
%LPD*%
G01*
G04 APERTURE LIST*
G04 Aperture macros list*
%AMRoundRect*
0 Rectangle with rounded corners*
0 $1 Rounding radius*
0 $2 $3 $4 $5 $6 $7 $8 $9 X,Y pos of 4 corners*
0 Add a 4 corners polygon primitive as box body*
4,1,4,$2,$3,$4,$5,$6,$7,$8,$9,$2,$3,0*
0 Add four circle primitives for the rounded corners*
1,1,$1+$1,$2,$3*
1,1,$1+$1,$4,$5*
1,1,$1+$1,$6,$7*
1,1,$1+$1,$8,$9*
0 Add four rect primitives between the rounded corners*
20,1,$1+$1,$2,$3,$4,$5,0*
20,1,$1+$1,$4,$5,$6,$7,0*
20,1,$1+$1,$6,$7,$8,$9,0*
20,1,$1+$1,$8,$9,$2,$3,0*%
G04 Aperture macros list end*
G04 #@! TA.AperFunction,SMDPad,CuDef*
%ADD10RoundRect,0.250000X0.450000X-0.262500X0.450000X0.262500X-0.450000X0.262500X-0.450000X-0.262500X0*%
G04 #@! TD*
G04 #@! TA.AperFunction,SMDPad,CuDef*
%ADD11R,1.549400X0.609600*%
G04 #@! TD*
G04 #@! TA.AperFunction,SMDPad,CuDef*
%ADD12RoundRect,0.250000X0.625000X-0.312500X0.625000X0.312500X-0.625000X0.312500X-0.625000X-0.312500X0*%
G04 #@! TD*
G04 #@! TA.AperFunction,ComponentPad*
%ADD13R,1.300000X1.300000*%
G04 #@! TD*
G04 #@! TA.AperFunction,ComponentPad*
%ADD14C,1.300000*%
G04 #@! TD*
G04 #@! TA.AperFunction,ComponentPad*
%ADD15RoundRect,0.250000X-0.650000X-1.550000X0.650000X-1.550000X0.650000X1.550000X-0.650000X1.550000X0*%
G04 #@! TD*
G04 #@! TA.AperFunction,ComponentPad*
%ADD16O,1.800000X3.600000*%
G04 #@! TD*
G04 #@! TA.AperFunction,ComponentPad*
%ADD17R,1.800000X1.800000*%
G04 #@! TD*
G04 #@! TA.AperFunction,ComponentPad*
%ADD18C,1.800000*%
G04 #@! TD*
G04 #@! TA.AperFunction,SMDPad,CuDef*
%ADD19RoundRect,0.250000X0.312500X0.625000X-0.312500X0.625000X-0.312500X-0.625000X0.312500X-0.625000X0*%
G04 #@! TD*
G04 #@! TA.AperFunction,SMDPad,CuDef*
%ADD20RoundRect,0.250000X-0.312500X-0.625000X0.312500X-0.625000X0.312500X0.625000X-0.312500X0.625000X0*%
G04 #@! TD*
G04 #@! TA.AperFunction,ComponentPad*
%ADD21O,1.980000X3.960000*%
G04 #@! TD*
G04 #@! TA.AperFunction,ComponentPad*
%ADD22R,1.980000X3.960000*%
G04 #@! TD*
G04 #@! TA.AperFunction,ComponentPad*
%ADD23C,3.000000*%
G04 #@! TD*
G04 #@! TA.AperFunction,ComponentPad*
%ADD24C,1.500000*%
G04 #@! TD*
G04 #@! TA.AperFunction,ComponentPad*
%ADD25R,1.500000X1.500000*%
G04 #@! TD*
G04 #@! TA.AperFunction,ComponentPad*
%ADD26O,3.000000X1.500000*%
G04 #@! TD*
G04 #@! TA.AperFunction,ComponentPad*
%ADD27R,3.000000X1.500000*%
G04 #@! TD*
G04 #@! TA.AperFunction,SMDPad,CuDef*
%ADD28R,0.508000X1.104900*%
G04 #@! TD*
G04 #@! TA.AperFunction,ComponentPad*
%ADD29C,1.265000*%
G04 #@! TD*
G04 #@! TA.AperFunction,ViaPad*
%ADD30C,0.600000*%
G04 #@! TD*
G04 #@! TA.AperFunction,Conductor*
%ADD31C,0.200000*%
G04 #@! TD*
G04 #@! TA.AperFunction,Conductor*
%ADD32C,0.762000*%
G04 #@! TD*
G04 APERTURE END LIST*
D10*
X116582400Y-78243400D03*
X116582400Y-80068400D03*
X122119600Y-78243400D03*
X122119600Y-80068400D03*
X127707600Y-78243400D03*
X127707600Y-80068400D03*
X133295600Y-80068400D03*
X133295600Y-78243400D03*
X138883600Y-80068400D03*
X138883600Y-78243400D03*
D11*
X121459200Y-51671200D03*
X121459200Y-52941200D03*
X121459200Y-54211200D03*
X121459200Y-55481200D03*
X116059200Y-55481200D03*
X116059200Y-54211200D03*
X116059200Y-52941200D03*
X116059200Y-51671200D03*
D12*
X119782800Y-94440400D03*
X119782800Y-91515400D03*
X123237200Y-94440400D03*
X123237200Y-91515400D03*
X126691600Y-94440400D03*
X126691600Y-91515400D03*
X130196800Y-91515400D03*
X130196800Y-94440400D03*
X133752800Y-91464600D03*
X133752800Y-94389600D03*
D13*
X115261600Y-85504000D03*
D14*
X116531600Y-84234000D03*
X117801600Y-85504000D03*
D13*
X120849600Y-85504000D03*
D14*
X122119600Y-84234000D03*
X123389600Y-85504000D03*
D13*
X126437600Y-85504000D03*
D14*
X127707600Y-84234000D03*
X128977600Y-85504000D03*
D13*
X132025600Y-85504000D03*
D14*
X133295600Y-84234000D03*
X134565600Y-85504000D03*
X140153600Y-85504000D03*
X138883600Y-84234000D03*
D13*
X137613600Y-85504000D03*
D15*
X110296000Y-106703800D03*
D16*
X113796000Y-106703800D03*
X117296000Y-106703800D03*
X120796000Y-106703800D03*
X124296000Y-106703800D03*
X127796000Y-106703800D03*
D17*
X126438600Y-42166600D03*
D18*
X126438600Y-44706600D03*
X126438600Y-47246600D03*
D19*
X153651000Y-66403200D03*
X150726000Y-66403200D03*
D20*
X133113800Y-47302400D03*
X136038800Y-47302400D03*
D19*
X160386000Y-56802000D03*
X157461000Y-56802000D03*
D21*
X157578200Y-106535200D03*
D22*
X162578200Y-106535200D03*
D23*
X182873800Y-52150800D03*
X182873800Y-67690800D03*
D24*
X170933800Y-55475800D03*
X173473800Y-56745800D03*
X170933800Y-58015800D03*
X173473800Y-59285800D03*
X170933800Y-60555800D03*
X173473800Y-61825800D03*
X170933800Y-63095800D03*
D25*
X173473800Y-64365800D03*
D18*
X138832800Y-47302400D03*
D17*
X141372800Y-47302400D03*
D19*
X159116000Y-66403200D03*
X156191000Y-66403200D03*
D26*
X174828800Y-47120800D03*
X183028800Y-47120800D03*
D27*
X174828800Y-42120800D03*
X183028800Y-42120800D03*
D19*
X154921000Y-56802000D03*
X151996000Y-56802000D03*
D21*
X180378200Y-106535200D03*
D22*
X185378200Y-106535200D03*
D28*
X151126400Y-59037200D03*
X152396400Y-59037200D03*
X153666400Y-59037200D03*
X154936400Y-59037200D03*
X156206400Y-59037200D03*
X157476400Y-59037200D03*
X158746400Y-59037200D03*
X160016400Y-59037200D03*
X160016400Y-64117200D03*
X158746400Y-64117200D03*
X157476400Y-64117200D03*
X156206400Y-64117200D03*
X154936400Y-64117200D03*
X153666400Y-64117200D03*
X152396400Y-64117200D03*
X151126400Y-64117200D03*
D23*
X182888800Y-71920800D03*
X182888800Y-87460800D03*
D24*
X170948800Y-75245800D03*
X173488800Y-76515800D03*
X170948800Y-77785800D03*
X173488800Y-79055800D03*
X170948800Y-80325800D03*
X173488800Y-81595800D03*
X170948800Y-82865800D03*
D25*
X173488800Y-84135800D03*
D20*
X159171000Y-72578800D03*
X156246000Y-72578800D03*
D29*
X108657600Y-59088000D03*
X111197600Y-59088000D03*
X113737600Y-59088000D03*
X116277600Y-59088000D03*
X118817600Y-59088000D03*
X121357600Y-59088000D03*
X123897600Y-59088000D03*
X126437600Y-59088000D03*
X128977600Y-59088000D03*
X131517600Y-59088000D03*
X134057600Y-59088000D03*
X136597600Y-59088000D03*
X139137600Y-59088000D03*
X141677600Y-59088000D03*
X141677600Y-61628000D03*
X141677600Y-64168000D03*
X141677600Y-66708000D03*
X141677600Y-69248000D03*
X141677600Y-71788000D03*
X141677600Y-74328000D03*
X139137600Y-74328000D03*
X136597600Y-74328000D03*
X134057600Y-74328000D03*
X131517600Y-74328000D03*
X128977600Y-74328000D03*
X126437600Y-74328000D03*
X123897600Y-74328000D03*
X121357600Y-74328000D03*
X118817600Y-74328000D03*
X116277600Y-74328000D03*
X113737600Y-74328000D03*
X111197600Y-74328000D03*
X108657600Y-74328000D03*
D21*
X134938200Y-106535200D03*
D22*
X139938200Y-106535200D03*
D21*
X146238200Y-106535200D03*
D22*
X151238200Y-106535200D03*
D21*
X168958200Y-106535200D03*
D22*
X173958200Y-106535200D03*
D30*
X121446000Y-56778800D03*
X157527200Y-69248000D03*
X158797200Y-55074800D03*
X160016400Y-62999600D03*
X150059600Y-64117200D03*
X152396400Y-60154800D03*
X160016400Y-60154800D03*
X158746400Y-62999600D03*
D31*
X121446000Y-55494400D02*
X121459200Y-55481200D01*
X121446000Y-56778800D02*
X121446000Y-55494400D01*
X119069100Y-55481200D02*
X121459200Y-55481200D01*
X116529100Y-52941200D02*
X119069100Y-55481200D01*
X116059200Y-52941200D02*
X116529100Y-52941200D01*
X156246000Y-72578800D02*
X154496000Y-74328800D01*
X167696000Y-74328800D02*
X154496000Y-74328800D01*
X154496000Y-74328800D02*
X147221000Y-74328800D01*
X160571000Y-71178800D02*
X152746000Y-71178800D01*
X170121000Y-71178800D02*
X160571000Y-71178800D01*
X159171000Y-72578800D02*
X160571000Y-71178800D01*
X170948800Y-82865800D02*
X169208000Y-82865800D01*
X169208000Y-82865800D02*
X168246000Y-81903800D01*
X147221000Y-74328800D02*
X146351200Y-73459000D01*
X168246000Y-81903800D02*
X168246000Y-74878800D01*
X142388800Y-53246000D02*
X124151600Y-53246000D01*
X146351200Y-57208400D02*
X142388800Y-53246000D01*
X168246000Y-74878800D02*
X167696000Y-74328800D01*
X123186400Y-54211200D02*
X121459200Y-54211200D01*
X146351200Y-73459000D02*
X146351200Y-57208400D01*
X124151600Y-53246000D02*
X123186400Y-54211200D01*
X173488800Y-84135800D02*
X174921000Y-82703600D01*
X174921000Y-82703600D02*
X174921000Y-75978800D01*
X146859200Y-65292000D02*
X146859200Y-57150714D01*
X146859200Y-57150714D02*
X142554486Y-52846000D01*
X174921000Y-75978800D02*
X170121000Y-71178800D01*
X142554486Y-52846000D02*
X121554400Y-52846000D01*
X152746000Y-71178800D02*
X146859200Y-65292000D01*
X121554400Y-52846000D02*
X121459200Y-52941200D01*
X127809200Y-106690600D02*
X127796000Y-106703800D01*
X127809200Y-100333200D02*
X127809200Y-106690600D01*
X133752800Y-94389600D02*
X127809200Y-100333200D01*
X124296000Y-106471200D02*
X124309200Y-106484400D01*
X124296000Y-100341200D02*
X124296000Y-106471200D01*
X130196800Y-94440400D02*
X124296000Y-100341200D01*
X120809200Y-106690600D02*
X120796000Y-106703800D01*
X120809200Y-100322800D02*
X120809200Y-106690600D01*
X126691600Y-94440400D02*
X120809200Y-100322800D01*
X117309200Y-106690600D02*
X117296000Y-106703800D01*
X117309200Y-100368400D02*
X117309200Y-106690600D01*
X123237200Y-94440400D02*
X117309200Y-100368400D01*
X113809200Y-106690600D02*
X113796000Y-106703800D01*
X113809200Y-100414000D02*
X113809200Y-106690600D01*
X119782800Y-94440400D02*
X113809200Y-100414000D01*
D32*
X169120800Y-47828800D02*
X174828800Y-42120800D01*
X146674400Y-47828800D02*
X169120800Y-47828800D01*
X141012200Y-42166600D02*
X146674400Y-47828800D01*
X126438600Y-42166600D02*
X141012200Y-42166600D01*
X116739800Y-47246600D02*
X108657600Y-55328800D01*
X126438600Y-47246600D02*
X116739800Y-47246600D01*
X108657600Y-55328800D02*
X108657600Y-59088000D01*
D31*
X161060836Y-53691200D02*
X160940836Y-53691200D01*
X168399200Y-52941200D02*
X161540836Y-52941200D01*
X155856800Y-52941200D02*
X151996000Y-56802000D01*
X160460836Y-52041200D02*
X160340836Y-52041200D01*
X158382005Y-52941200D02*
X155856800Y-52941200D01*
X159500836Y-53451200D02*
X159500836Y-53181200D01*
X160100836Y-52281200D02*
X160100836Y-52941200D01*
X160700836Y-53181200D02*
X160700836Y-52281200D01*
X161300836Y-53181200D02*
X161300836Y-53451200D01*
X159140836Y-52941200D02*
X158382005Y-52941200D01*
X159860836Y-53691200D02*
X159740836Y-53691200D01*
X170933800Y-55475800D02*
X168399200Y-52941200D01*
X159260836Y-52941200D02*
X159140836Y-52941200D01*
X160100836Y-52941200D02*
X160100836Y-53451200D01*
X160700836Y-53451200D02*
X160700836Y-53181200D01*
X160340836Y-52041200D02*
G75*
G03*
X160100800Y-52281200I-36J-240000D01*
G01*
X161300836Y-53451200D02*
G75*
G02*
X161060836Y-53691236I-240036J0D01*
G01*
X160100836Y-53451200D02*
G75*
G02*
X159860836Y-53691236I-240036J0D01*
G01*
X161540836Y-52941200D02*
G75*
G03*
X161300800Y-53181200I-36J-240000D01*
G01*
X160700836Y-52281200D02*
G75*
G03*
X160460836Y-52041164I-240036J0D01*
G01*
X160940836Y-53691200D02*
G75*
G02*
X160700800Y-53451200I-36J240000D01*
G01*
X159500836Y-53181200D02*
G75*
G03*
X159260836Y-52941164I-240036J0D01*
G01*
X159740836Y-53691200D02*
G75*
G02*
X159500800Y-53451200I-36J240000D01*
G01*
X160966503Y-54109600D02*
X157613400Y-54109600D01*
X161565796Y-54109600D02*
X160966503Y-54109600D01*
X163125796Y-54349600D02*
X163125796Y-53599600D01*
X162885796Y-53359600D02*
X162765796Y-53359600D01*
X163125796Y-54869600D02*
X163125796Y-54349600D01*
X157613400Y-54109600D02*
X154921000Y-56802000D01*
X161925796Y-54869600D02*
X161925796Y-54349600D01*
X162525796Y-54109600D02*
X162525796Y-54869600D01*
X162525796Y-53599600D02*
X162525796Y-54109600D01*
X163485796Y-55109600D02*
X163365796Y-55109600D01*
X169612200Y-56745800D02*
X166976000Y-54109600D01*
X173473800Y-56745800D02*
X169612200Y-56745800D01*
X161685796Y-54109600D02*
X161565796Y-54109600D01*
X162285796Y-55109600D02*
X162165796Y-55109600D01*
X166976000Y-54109600D02*
X163965796Y-54109600D01*
X163725796Y-54349600D02*
X163725796Y-54869600D01*
X162525796Y-54869600D02*
G75*
G02*
X162285796Y-55109596I-239996J0D01*
G01*
X163125796Y-53599600D02*
G75*
G03*
X162885796Y-53359604I-239996J0D01*
G01*
X163725796Y-54869600D02*
G75*
G02*
X163485796Y-55109596I-239996J0D01*
G01*
X161925796Y-54349600D02*
G75*
G03*
X161685796Y-54109604I-239996J0D01*
G01*
X162765796Y-53359600D02*
G75*
G03*
X162525800Y-53599600I4J-240000D01*
G01*
X163965796Y-54109600D02*
G75*
G03*
X163725800Y-54349600I4J-240000D01*
G01*
X162165796Y-55109600D02*
G75*
G02*
X161925800Y-54869600I4J240000D01*
G01*
X163365796Y-55109600D02*
G75*
G02*
X163125800Y-54869600I4J240000D01*
G01*
X163065540Y-58015800D02*
X162386381Y-58015800D01*
X163365540Y-57515800D02*
X163365540Y-57815800D01*
X165865540Y-58515800D02*
X165865540Y-58015800D01*
X164165540Y-58715800D02*
X164065540Y-58715800D01*
X165165540Y-58715800D02*
X165065540Y-58715800D01*
X163865540Y-58015800D02*
X163865540Y-57515800D01*
X164365540Y-58015800D02*
X164365540Y-58515800D01*
X165365540Y-58015800D02*
X165365540Y-58515800D01*
X164665540Y-57315800D02*
X164565540Y-57315800D01*
X165865540Y-58015800D02*
X165865540Y-57515800D01*
X164865540Y-58515800D02*
X164865540Y-58015800D01*
X164365540Y-57515800D02*
X164365540Y-58015800D01*
X166165540Y-58715800D02*
X166065540Y-58715800D01*
X161599800Y-58015800D02*
X160386000Y-56802000D01*
X165665540Y-57315800D02*
X165565540Y-57315800D01*
X162386381Y-58015800D02*
X161599800Y-58015800D01*
X163165540Y-58015800D02*
X163065540Y-58015800D01*
X167865540Y-58015800D02*
X167865540Y-57515800D01*
X163865540Y-58515800D02*
X163865540Y-58015800D01*
X168165540Y-58715800D02*
X168065540Y-58715800D01*
X166365540Y-58015800D02*
X166365540Y-58515800D01*
X167665540Y-57315800D02*
X167565540Y-57315800D01*
X165365540Y-57515800D02*
X165365540Y-58015800D01*
X170933800Y-58015800D02*
X169565540Y-58015800D01*
X166365540Y-57515800D02*
X166365540Y-58015800D01*
X164865540Y-58015800D02*
X164865540Y-57515800D01*
X166865540Y-58015800D02*
X166865540Y-57515800D01*
X167365540Y-58015800D02*
X167365540Y-58515800D01*
X167165540Y-58715800D02*
X167065540Y-58715800D01*
X163665540Y-57315800D02*
X163565540Y-57315800D01*
X168665540Y-57315800D02*
X168565540Y-57315800D01*
X166665540Y-57315800D02*
X166565540Y-57315800D01*
X169365540Y-58215800D02*
X169365540Y-58515800D01*
X166865540Y-58515800D02*
X166865540Y-58015800D01*
X168365540Y-57515800D02*
X168365540Y-58015800D01*
X168865540Y-58515800D02*
X168865540Y-58215800D01*
X167365540Y-57515800D02*
X167365540Y-58015800D01*
X167865540Y-58515800D02*
X167865540Y-58015800D01*
X168365540Y-58015800D02*
X168365540Y-58515800D01*
X168865540Y-58215800D02*
X168865540Y-57515800D01*
X169165540Y-58715800D02*
X169065540Y-58715800D01*
X164865540Y-57515800D02*
G75*
G03*
X164665540Y-57315760I-200040J0D01*
G01*
X169565540Y-58015800D02*
G75*
G03*
X169365500Y-58215800I-40J-200000D01*
G01*
X167865540Y-57515800D02*
G75*
G03*
X167665540Y-57315760I-200040J0D01*
G01*
X168365540Y-58515800D02*
G75*
G02*
X168165540Y-58715840I-200040J0D01*
G01*
X166865540Y-57515800D02*
G75*
G03*
X166665540Y-57315760I-200040J0D01*
G01*
X164065540Y-58715800D02*
G75*
G02*
X163865500Y-58515800I-40J200000D01*
G01*
X169065540Y-58715800D02*
G75*
G02*
X168865500Y-58515800I-40J200000D01*
G01*
X169365540Y-58515800D02*
G75*
G02*
X169165540Y-58715840I-200040J0D01*
G01*
X164565540Y-57315800D02*
G75*
G03*
X164365500Y-57515800I-40J-200000D01*
G01*
X167365540Y-58515800D02*
G75*
G02*
X167165540Y-58715840I-200040J0D01*
G01*
X163365540Y-57815800D02*
G75*
G02*
X163165540Y-58015840I-200040J0D01*
G01*
X165565540Y-57315800D02*
G75*
G03*
X165365500Y-57515800I-40J-200000D01*
G01*
X166365540Y-58515800D02*
G75*
G02*
X166165540Y-58715840I-200040J0D01*
G01*
X166565540Y-57315800D02*
G75*
G03*
X166365500Y-57515800I-40J-200000D01*
G01*
X167565540Y-57315800D02*
G75*
G03*
X167365500Y-57515800I-40J-200000D01*
G01*
X165065540Y-58715800D02*
G75*
G02*
X164865500Y-58515800I-40J200000D01*
G01*
X167065540Y-58715800D02*
G75*
G02*
X166865500Y-58515800I-40J200000D01*
G01*
X165865540Y-57515800D02*
G75*
G03*
X165665540Y-57315760I-200040J0D01*
G01*
X165365540Y-58515800D02*
G75*
G02*
X165165540Y-58715840I-200040J0D01*
G01*
X163565540Y-57315800D02*
G75*
G03*
X163365500Y-57515800I-40J-200000D01*
G01*
X164365540Y-58515800D02*
G75*
G02*
X164165540Y-58715840I-200040J0D01*
G01*
X166065540Y-58715800D02*
G75*
G02*
X165865500Y-58515800I-40J200000D01*
G01*
X168565540Y-57315800D02*
G75*
G03*
X168365500Y-57515800I-40J-200000D01*
G01*
X168065540Y-58715800D02*
G75*
G02*
X167865500Y-58515800I-40J200000D01*
G01*
X163865540Y-57515800D02*
G75*
G03*
X163665540Y-57315760I-200040J0D01*
G01*
X168865540Y-57515800D02*
G75*
G03*
X168665540Y-57315760I-200040J0D01*
G01*
X163632903Y-65480774D02*
X163251066Y-65098937D01*
X163533907Y-64816090D02*
X163915746Y-65197930D01*
X163915746Y-65424204D02*
X163859177Y-65480774D01*
X163816753Y-64533250D02*
X163434913Y-64151411D01*
X163208639Y-64151411D02*
X163152070Y-64207979D01*
X164198590Y-64915087D02*
X163816753Y-64533250D01*
X163717757Y-63868566D02*
X164099594Y-64250403D01*
X164382440Y-63967563D02*
X164000600Y-63585724D01*
X164665281Y-63684716D02*
X165047120Y-64066556D01*
X164099594Y-64250403D02*
X164481433Y-64632243D01*
X164340013Y-63020037D02*
X164283444Y-63076605D01*
X170933800Y-60555800D02*
X167794200Y-60555800D01*
X163067216Y-66046461D02*
X162798516Y-65777761D01*
X165344104Y-63232171D02*
X165612805Y-63500872D01*
X165061264Y-63515014D02*
X164566287Y-63020037D01*
X165047120Y-64292830D02*
X164990551Y-64349400D01*
X164283444Y-63302879D02*
X164665281Y-63684716D01*
X165612805Y-63727146D02*
X165556238Y-63783714D01*
X163350059Y-65989891D02*
X163293490Y-66046461D01*
X167794200Y-60555800D02*
X165344105Y-63005895D01*
X165329964Y-63783714D02*
X165061264Y-63515014D01*
X164764277Y-64349400D02*
X164382440Y-63967563D01*
X163774326Y-63585724D02*
X163717757Y-63642292D01*
X164481433Y-64858517D02*
X164424864Y-64915087D01*
X163152070Y-64434253D02*
X163533907Y-64816090D01*
X164990550Y-64349399D02*
G75*
G02*
X164764278Y-64349399I-113136J113136D01*
G01*
X165047119Y-64066557D02*
G75*
G02*
X165047126Y-64292836I-113119J-113143D01*
G01*
X163859176Y-65480773D02*
G75*
G02*
X163632904Y-65480773I-113136J113136D01*
G01*
X165344105Y-63005895D02*
G75*
G03*
X165344138Y-63232137I113095J-113105D01*
G01*
X165612804Y-63500873D02*
G75*
G02*
X165612795Y-63727136I-113104J-113127D01*
G01*
X164424863Y-64915086D02*
G75*
G02*
X164198591Y-64915086I-113136J113136D01*
G01*
X164000599Y-63585725D02*
G75*
G03*
X163774327Y-63585725I-113136J-113136D01*
G01*
X165556237Y-63783713D02*
G75*
G02*
X165329965Y-63783713I-113136J113136D01*
G01*
X164481433Y-64632243D02*
G75*
G02*
X164481453Y-64858537I-113133J-113157D01*
G01*
X164283444Y-63076605D02*
G75*
G03*
X164283486Y-63302837I113156J-113095D01*
G01*
X162798515Y-65777762D02*
G75*
G03*
X162572243Y-65777762I-113136J-113136D01*
G01*
X163915746Y-65197930D02*
G75*
G02*
X163915779Y-65424237I-113146J-113170D01*
G01*
X163717757Y-63642292D02*
G75*
G03*
X163717786Y-63868537I113143J-113108D01*
G01*
X163152070Y-64207979D02*
G75*
G03*
X163152086Y-64434237I113130J-113121D01*
G01*
X163434912Y-64151412D02*
G75*
G03*
X163208640Y-64151412I-113136J-113136D01*
G01*
X164566286Y-63020038D02*
G75*
G03*
X164340014Y-63020038I-113136J-113136D01*
G01*
X162869225Y-64717099D02*
G75*
G03*
X162642953Y-64717099I-113136J-113136D01*
G01*
X163350058Y-65763618D02*
G75*
G02*
X163350104Y-65989936I-113158J-113182D01*
G01*
X163293489Y-66046460D02*
G75*
G02*
X163067217Y-66046460I-113136J113136D01*
G01*
X162586383Y-64773666D02*
G75*
G03*
X162586386Y-64999937I113117J-113134D01*
G01*
X162586383Y-64999940D02*
X162968220Y-65381777D01*
X162968220Y-65381777D02*
X163350059Y-65763617D01*
X162304927Y-66045073D02*
X161946800Y-66403200D01*
X162572242Y-65777761D02*
X162515672Y-65834329D01*
X163251066Y-65098937D02*
X162869226Y-64717098D01*
X161946800Y-66403200D02*
X159116000Y-66403200D01*
X162515672Y-65834329D02*
X162304927Y-66045073D01*
X162642952Y-64717098D02*
X162586383Y-64773666D01*
X166468123Y-64269478D02*
X166091201Y-64646399D01*
X157366000Y-67578200D02*
X156191000Y-66403200D01*
X166091201Y-64646399D02*
X163159400Y-67578200D01*
X163159400Y-67578200D02*
X157366000Y-67578200D01*
X166835819Y-62770409D02*
X166750966Y-62855261D01*
X167967192Y-63562370D02*
X167740918Y-63336096D01*
X168391455Y-63477518D02*
X168306604Y-63562370D01*
X168906400Y-61831200D02*
X168165181Y-62572419D01*
X171649600Y-61831200D02*
X168906400Y-61831200D01*
X173473800Y-60007000D02*
X171649600Y-61831200D01*
X173473800Y-59285800D02*
X173473800Y-60007000D01*
X167740918Y-63336096D02*
X167175231Y-62770409D01*
X168165181Y-62911831D02*
X168391456Y-63138106D01*
X166552977Y-64184625D02*
X166468123Y-64269478D01*
X167118661Y-64410900D02*
X166892387Y-64184626D01*
X167146945Y-63590652D02*
X167542926Y-63986634D01*
X166750966Y-63194673D02*
X167146945Y-63590652D01*
X167542926Y-64326046D02*
X167458073Y-64410900D01*
X166892387Y-64184626D02*
G75*
G03*
X166552996Y-64184644I-169687J-169674D01*
G01*
X167175231Y-62770409D02*
G75*
G03*
X166835819Y-62770409I-169706J-169704D01*
G01*
X167542926Y-63986634D02*
G75*
G02*
X167542886Y-64326006I-169726J-169666D01*
G01*
X166750966Y-62855261D02*
G75*
G03*
X166750933Y-63194706I169734J-169739D01*
G01*
X168391456Y-63138106D02*
G75*
G02*
X168391443Y-63477506I-169656J-169694D01*
G01*
X168306603Y-63562369D02*
G75*
G02*
X167967193Y-63562369I-169705J169700D01*
G01*
X167458072Y-64410899D02*
G75*
G02*
X167118662Y-64410899I-169705J169707D01*
G01*
X168165181Y-62572419D02*
G75*
G03*
X168165206Y-62911806I169719J-169681D01*
G01*
X171648509Y-66615359D02*
X170941400Y-65908250D01*
X172461680Y-66792135D02*
X172355615Y-66898201D01*
X170517136Y-65908250D02*
X170411069Y-66014316D01*
X171931351Y-66898201D02*
X171648509Y-66615359D01*
X170411069Y-66438580D02*
X170693911Y-66721422D01*
X170693911Y-67145686D02*
X170587846Y-67251753D01*
X173473800Y-64365800D02*
X172178838Y-65660762D01*
X169455200Y-68384400D02*
X155632200Y-68384400D01*
X170587846Y-67251753D02*
X169953299Y-67886301D01*
X169953299Y-67886301D02*
X169455200Y-68384400D01*
X172178837Y-66085028D02*
X172461680Y-66367871D01*
X155632200Y-68384400D02*
X153651000Y-66403200D01*
X170941399Y-65908251D02*
G75*
G03*
X170517137Y-65908251I-212131J-212131D01*
G01*
X170693911Y-66721422D02*
G75*
G02*
X170693957Y-67145732I-212111J-212178D01*
G01*
X172355614Y-66898200D02*
G75*
G02*
X171931352Y-66898200I-212131J212131D01*
G01*
X172178838Y-65660762D02*
G75*
G03*
X172178833Y-66085032I212162J-212138D01*
G01*
X172461679Y-66367872D02*
G75*
G02*
X172461676Y-66792131I-212179J-212128D01*
G01*
X170411069Y-66014316D02*
G75*
G03*
X170411117Y-66438532I212131J-212084D01*
G01*
X150726000Y-66403200D02*
X153570800Y-69248000D01*
X153570800Y-69248000D02*
X157527200Y-69248000D01*
X157461000Y-56411000D02*
X158797200Y-55074800D01*
X157461000Y-56802000D02*
X157461000Y-56411000D01*
X157476400Y-56817400D02*
X157461000Y-56802000D01*
X157476400Y-59037200D02*
X157476400Y-56817400D01*
X131320400Y-52128400D02*
X126438600Y-47246600D01*
X149348400Y-59037200D02*
X142439600Y-52128400D01*
X142439600Y-52128400D02*
X131320400Y-52128400D01*
X151126400Y-59037200D02*
X149348400Y-59037200D01*
X150059600Y-64117200D02*
X151126400Y-64117200D01*
X152396400Y-60154800D02*
X152396400Y-59037200D01*
X160016400Y-60154800D02*
X160016400Y-59037200D01*
X158746400Y-62999600D02*
X158746400Y-64117200D01*
X160016400Y-62847200D02*
X156206400Y-59037200D01*
X160016400Y-62999600D02*
X160016400Y-62847200D01*
X160016400Y-62999600D02*
X160016400Y-64117200D01*
X137048400Y-56097200D02*
X134057600Y-59088000D01*
X144878000Y-57557115D02*
X143418085Y-56097200D01*
X144878000Y-93835000D02*
X144878000Y-57557115D01*
X157578200Y-106535200D02*
X144878000Y-93835000D01*
X143418085Y-56097200D02*
X137048400Y-56097200D01*
X143583770Y-55697200D02*
X134908400Y-55697200D01*
X145335200Y-57448630D02*
X143583770Y-55697200D01*
X145335200Y-93479600D02*
X145335200Y-57448630D01*
X164836000Y-97588000D02*
X149443600Y-97588000D01*
X134908400Y-55697200D02*
X131517600Y-59088000D01*
X168958200Y-101710200D02*
X164836000Y-97588000D01*
X168958200Y-106535200D02*
X168958200Y-101710200D01*
X149443600Y-97588000D02*
X145335200Y-93479600D01*
X149907200Y-97188000D02*
X145894000Y-93174800D01*
X143749455Y-55297200D02*
X132768400Y-55297200D01*
X132768400Y-55297200D02*
X128977600Y-59088000D01*
X180378200Y-99668200D02*
X177898000Y-97188000D01*
X180378200Y-106535200D02*
X180378200Y-99668200D01*
X177898000Y-97188000D02*
X149907200Y-97188000D01*
X145894000Y-93174800D02*
X145894000Y-57441745D01*
X145894000Y-57441745D02*
X143749455Y-55297200D01*
X139188400Y-56497200D02*
X136597600Y-59088000D01*
X144370000Y-57614800D02*
X143252400Y-56497200D01*
X144370000Y-104667000D02*
X144370000Y-57614800D01*
X146238200Y-106535200D02*
X144370000Y-104667000D01*
X143252400Y-56497200D02*
X139188400Y-56497200D01*
X143912800Y-57868800D02*
X143912800Y-97560600D01*
X143912800Y-97560600D02*
X134938200Y-106535200D01*
X140001200Y-57056000D02*
X143100000Y-57056000D01*
X139137600Y-57919600D02*
X140001200Y-57056000D01*
X139137600Y-59088000D02*
X139137600Y-57919600D01*
X143100000Y-57056000D02*
X143912800Y-57868800D01*
X157476400Y-64763600D02*
X159116000Y-66403200D01*
X157476400Y-64117200D02*
X157476400Y-64763600D01*
X156206400Y-66387800D02*
X156191000Y-66403200D01*
X156206400Y-64117200D02*
X156206400Y-66387800D01*
X153666400Y-64117200D02*
X153666400Y-66387800D01*
X153666400Y-66387800D02*
X153651000Y-66403200D01*
X152396400Y-64732800D02*
X150726000Y-66403200D01*
X152396400Y-64117200D02*
X152396400Y-64732800D01*
X158746400Y-58441600D02*
X160386000Y-56802000D01*
X158746400Y-59037200D02*
X158746400Y-58441600D01*
X154936400Y-56817400D02*
X154921000Y-56802000D01*
X154936400Y-59037200D02*
X154936400Y-56817400D01*
X153666400Y-58472400D02*
X151996000Y-56802000D01*
X153666400Y-59037200D02*
X153666400Y-58472400D01*
X126494400Y-47302400D02*
X126438600Y-47246600D01*
X133113800Y-47302400D02*
X126494400Y-47302400D01*
X136038800Y-47302400D02*
X138832800Y-47302400D01*
X120087600Y-59748400D02*
X119122400Y-60713600D01*
X119122400Y-60713600D02*
X110283200Y-60713600D01*
X120087600Y-57769700D02*
X120087600Y-59748400D01*
X116529100Y-54211200D02*
X120087600Y-57769700D01*
X116059200Y-54211200D02*
X116529100Y-54211200D01*
X110283200Y-60713600D02*
X108657600Y-59088000D01*
X113331200Y-58681600D02*
X113737600Y-59088000D01*
X113331200Y-52382400D02*
X113331200Y-58681600D01*
X120646400Y-50858400D02*
X114855200Y-50858400D01*
X121459200Y-51671200D02*
X120646400Y-50858400D01*
X114855200Y-50858400D02*
X113331200Y-52382400D01*
X118157200Y-59088000D02*
X118817600Y-59088000D01*
X116059200Y-56990000D02*
X118157200Y-59088000D01*
X116059200Y-55481200D02*
X116059200Y-56990000D01*
X114144000Y-56954400D02*
X116277600Y-59088000D01*
X114144000Y-53116500D02*
X114144000Y-56954400D01*
X115589300Y-51671200D02*
X114144000Y-53116500D01*
X116059200Y-51671200D02*
X115589300Y-51671200D01*
D32*
X174828800Y-42120800D02*
X183028800Y-42120800D01*
D31*
X137613600Y-87603800D02*
X133752800Y-91464600D01*
X137613600Y-85504000D02*
X137613600Y-87603800D01*
X132025600Y-89686600D02*
X130196800Y-91515400D01*
X132025600Y-85504000D02*
X132025600Y-89686600D01*
X126437600Y-91261400D02*
X126691600Y-91515400D01*
X126437600Y-85504000D02*
X126437600Y-91261400D01*
X120849600Y-89127800D02*
X123237200Y-91515400D01*
X120849600Y-85504000D02*
X120849600Y-89127800D01*
X115261600Y-86994200D02*
X119782800Y-91515400D01*
X115261600Y-85504000D02*
X115261600Y-86994200D01*
X138883600Y-80068400D02*
X138883600Y-84234000D01*
X133295600Y-80068400D02*
X133295600Y-84234000D01*
X127707600Y-80068400D02*
X127707600Y-84234000D01*
X122119600Y-80068400D02*
X122119600Y-84234000D01*
X116582400Y-84183200D02*
X116531600Y-84234000D01*
X116582400Y-80068400D02*
X116582400Y-84183200D01*
X131517600Y-74433400D02*
X131517600Y-74328000D01*
X127707600Y-78243400D02*
X131517600Y-74433400D01*
X136597600Y-75957400D02*
X138883600Y-78243400D01*
X136597600Y-74328000D02*
X136597600Y-75957400D01*
X133295600Y-75090000D02*
X133295600Y-78243400D01*
X134057600Y-74328000D02*
X133295600Y-75090000D01*
X123495000Y-76868000D02*
X122119600Y-78243400D01*
X128977600Y-74328000D02*
X126437600Y-76868000D01*
X126437600Y-76868000D02*
X123495000Y-76868000D01*
X124456400Y-76309200D02*
X126437600Y-74328000D01*
X118516600Y-76309200D02*
X124456400Y-76309200D01*
X116582400Y-78243400D02*
X118516600Y-76309200D01*
M02*
