G04 #@! TF.GenerationSoftware,KiCad,Pcbnew,8.0.0*
G04 #@! TF.CreationDate,2024-12-24T11:36:35-06:00*
G04 #@! TF.ProjectId,Rain and Switches Control Board,5261696e-2061-46e6-9420-537769746368,rev?*
G04 #@! TF.SameCoordinates,Original*
G04 #@! TF.FileFunction,Paste,Top*
G04 #@! TF.FilePolarity,Positive*
%FSLAX46Y46*%
G04 Gerber Fmt 4.6, Leading zero omitted, Abs format (unit mm)*
G04 Created by KiCad (PCBNEW 8.0.0) date 2024-12-24 11:36:35*
%MOMM*%
%LPD*%
G01*
G04 APERTURE LIST*
G04 Aperture macros list*
%AMRoundRect*
0 Rectangle with rounded corners*
0 $1 Rounding radius*
0 $2 $3 $4 $5 $6 $7 $8 $9 X,Y pos of 4 corners*
0 Add a 4 corners polygon primitive as box body*
4,1,4,$2,$3,$4,$5,$6,$7,$8,$9,$2,$3,0*
0 Add four circle primitives for the rounded corners*
1,1,$1+$1,$2,$3*
1,1,$1+$1,$4,$5*
1,1,$1+$1,$6,$7*
1,1,$1+$1,$8,$9*
0 Add four rect primitives between the rounded corners*
20,1,$1+$1,$2,$3,$4,$5,0*
20,1,$1+$1,$4,$5,$6,$7,0*
20,1,$1+$1,$6,$7,$8,$9,0*
20,1,$1+$1,$8,$9,$2,$3,0*%
G04 Aperture macros list end*
%ADD10RoundRect,0.250000X-0.312500X-0.625000X0.312500X-0.625000X0.312500X0.625000X-0.312500X0.625000X0*%
%ADD11RoundRect,0.250000X-0.450000X0.262500X-0.450000X-0.262500X0.450000X-0.262500X0.450000X0.262500X0*%
%ADD12RoundRect,0.250000X0.625000X-0.312500X0.625000X0.312500X-0.625000X0.312500X-0.625000X-0.312500X0*%
%ADD13RoundRect,0.250000X0.312500X0.625000X-0.312500X0.625000X-0.312500X-0.625000X0.312500X-0.625000X0*%
%ADD14R,0.508000X1.104900*%
%ADD15R,0.609600X1.549400*%
G04 APERTURE END LIST*
D10*
X185833500Y-61928800D03*
X188758500Y-61928800D03*
D11*
X158158500Y-72603800D03*
X158158500Y-74428800D03*
D12*
X148096000Y-74241300D03*
X148096000Y-71316300D03*
D13*
X185796000Y-84178800D03*
X182871000Y-84178800D03*
X156333500Y-45628800D03*
X159258500Y-45628800D03*
X192571000Y-73428800D03*
X189646000Y-73428800D03*
D12*
X148196000Y-63241300D03*
X148196000Y-60316300D03*
D13*
X191271000Y-84178800D03*
X188346000Y-84178800D03*
D11*
X158346000Y-83616300D03*
X158346000Y-85441300D03*
X158046000Y-67116300D03*
X158046000Y-68941300D03*
D13*
X187096000Y-73428800D03*
X184171000Y-73428800D03*
D12*
X148096000Y-79766300D03*
X148096000Y-76841300D03*
D14*
X183276000Y-76278800D03*
X184546000Y-76278800D03*
X185816000Y-76278800D03*
X187086000Y-76278800D03*
X188356000Y-76278800D03*
X189626000Y-76278800D03*
X190896000Y-76278800D03*
X192166000Y-76278800D03*
X192166000Y-81358800D03*
X190896000Y-81358800D03*
X189626000Y-81358800D03*
X188356000Y-81358800D03*
X187086000Y-81358800D03*
X185816000Y-81358800D03*
X184546000Y-81358800D03*
X183276000Y-81358800D03*
D12*
X148146000Y-68741300D03*
X148146000Y-65816300D03*
D15*
X189201000Y-53028800D03*
X187931000Y-53028800D03*
X186661000Y-53028800D03*
X185391000Y-53028800D03*
X185391000Y-58428800D03*
X186661000Y-58428800D03*
X187931000Y-58428800D03*
X189201000Y-58428800D03*
D11*
X158046000Y-61566300D03*
X158046000Y-63391300D03*
X158196000Y-78116300D03*
X158196000Y-79941300D03*
D12*
X148096000Y-85241300D03*
X148096000Y-82316300D03*
M02*
