M48
; DRILL file {KiCad 8.0.0} date 2024-12-24T11:36:38-0600
; FORMAT={-:-/ absolute / metric / decimal}
; #@! TF.CreationDate,2024-12-24T11:36:38-06:00
; #@! TF.GenerationSoftware,Kicad,Pcbnew,8.0.0
; #@! TF.FileFunction,Plated,1,2,PTH
FMAT,2
METRIC
; #@! TA.AperFunction,Plated,PTH,ViaDrill
T1C0.300
; #@! TA.AperFunction,Plated,PTH,ComponentDrill
T2C0.750
; #@! TA.AperFunction,Plated,PTH,ComponentDrill
T3C0.900
; #@! TA.AperFunction,Plated,PTH,ComponentDrill
T4C0.965
; #@! TA.AperFunction,Plated,PTH,ComponentDrill
T5C1.000
; #@! TA.AperFunction,Plated,PTH,ComponentDrill
T6C1.150
; #@! TA.AperFunction,Plated,PTH,ComponentDrill
T7C1.200
; #@! TA.AperFunction,Plated,PTH,ComponentDrill
T8C1.320
; #@! TA.AperFunction,Plated,PTH,ComponentDrill
T9C1.600
%
G90
G05
T1
X158.046Y-64.641
X158.046Y-70.241
X158.159Y-75.754
X158.196Y-81.241
X158.346Y-86.791
X181.346Y-84.179
X182.646Y-73.429
X184.096Y-58.429
X187.946Y-51.479
X188.346Y-74.879
X190.446Y-58.429
X193.446Y-81.379
T2
X152.426Y-82.346
X152.426Y-84.886
X152.446Y-60.326
X152.446Y-62.866
X152.446Y-65.826
X152.446Y-68.366
X152.446Y-71.326
X152.446Y-73.866
X152.446Y-76.826
X152.446Y-79.366
X153.696Y-83.616
X153.716Y-61.596
X153.716Y-67.096
X153.716Y-72.596
X153.716Y-78.096
T3
X156.506Y-41.579
X159.046Y-41.579
X197.756Y-55.249
X197.756Y-57.789
X197.756Y-60.329
X197.756Y-62.869
X197.756Y-74.904
X197.756Y-77.444
X197.756Y-79.984
X197.756Y-82.524
X200.296Y-56.519
X200.296Y-59.059
X200.296Y-61.599
X200.296Y-64.139
X200.296Y-76.174
X200.296Y-78.714
X200.296Y-81.254
X200.296Y-83.794
T4
X162.906Y-40.879
X162.906Y-43.419
X162.906Y-45.959
X162.906Y-48.499
X162.906Y-51.039
X162.906Y-53.579
X162.906Y-56.119
X162.906Y-58.659
X162.906Y-61.199
X162.906Y-63.739
X162.906Y-66.279
X162.906Y-68.819
X162.906Y-71.359
X162.906Y-73.899
X165.446Y-73.899
X167.986Y-73.899
X170.526Y-73.899
X173.066Y-73.899
X175.606Y-73.899
X178.146Y-40.879
X178.146Y-43.419
X178.146Y-45.959
X178.146Y-48.499
X178.146Y-51.039
X178.146Y-53.579
X178.146Y-56.119
X178.146Y-58.659
X178.146Y-61.199
X178.146Y-63.739
X178.146Y-66.279
X178.146Y-68.819
X178.146Y-71.359
X178.146Y-73.899
T5
X186.096Y-42.029
X186.096Y-44.569
X186.096Y-47.109
T6
X201.796Y-42.029
X201.796Y-47.029
X209.996Y-42.029
X209.996Y-47.029
T7
X137.607Y-42.621
X137.607Y-46.121
X137.607Y-49.621
X137.607Y-53.121
X137.607Y-56.621
X137.607Y-60.121
T8
X135.946Y-88.524
X135.946Y-93.524
X135.946Y-99.979
X135.946Y-104.979
X161.179Y-99.693
X166.179Y-99.693
X172.599Y-99.693
X177.599Y-99.693
X183.979Y-99.693
X188.979Y-99.693
X195.319Y-99.693
X200.319Y-99.693
X206.619Y-99.693
X211.619Y-99.693
T9
X209.696Y-51.924
X209.696Y-67.464
X209.696Y-71.579
X209.696Y-87.119
M30
