%TF.GenerationSoftware,KiCad,Pcbnew,8.0.0*%
%TF.CreationDate,2024-12-24T11:36:40-06:00*%
%TF.ProjectId,Rain and Switches Control Board,5261696e-2061-46e6-9420-537769746368,rev?*%
%TF.SameCoordinates,Original*%
%TF.FileFunction,Drillmap*%
%TF.FilePolarity,Positive*%
%FSLAX45Y45*%
G04 Gerber Fmt 4.5, Leading zero omitted, Abs format (unit mm)*
G04 Created by KiCad (PCBNEW 8.0.0) date 2024-12-24 11:36:40*
%MOMM*%
%LPD*%
G01*
G04 APERTURE LIST*
%ADD10C,0.050000*%
%ADD11C,0.200000*%
%ADD12C,0.320000*%
%ADD13C,0.325000*%
G04 APERTURE END LIST*
D10*
X12940000Y-3914000D02*
X21537760Y-3914000D01*
X21537760Y-10848000D01*
X12940000Y-10848000D01*
X12940000Y-3914000D01*
D11*
D12*
X15074600Y-4887880D02*
X15394600Y-5207880D01*
X15394600Y-4887880D02*
X15074600Y-5207880D01*
X15079600Y-9342880D02*
X15399600Y-9662880D01*
X15399600Y-9342880D02*
X15079600Y-9662880D01*
X18329600Y-6667880D02*
X18649600Y-6987880D01*
X18649600Y-6667880D02*
X18329600Y-6987880D01*
D13*
X20827100Y-5397880D02*
G75*
G02*
X20502100Y-5397880I-162500J0D01*
G01*
X20502100Y-5397880D02*
G75*
G02*
X20827100Y-5397880I162500J0D01*
G01*
X20827100Y-6540880D02*
G75*
G02*
X20502100Y-6540880I-162500J0D01*
G01*
X20502100Y-6540880D02*
G75*
G02*
X20827100Y-6540880I162500J0D01*
G01*
X20827100Y-7363380D02*
G75*
G02*
X20502100Y-7363380I-162500J0D01*
G01*
X20502100Y-7363380D02*
G75*
G02*
X20827100Y-7363380I162500J0D01*
G01*
X20827100Y-8506380D02*
G75*
G02*
X20502100Y-8506380I-162500J0D01*
G01*
X20502100Y-8506380D02*
G75*
G02*
X20827100Y-8506380I162500J0D01*
G01*
D11*
X13198277Y-11161984D02*
X13198277Y-10961984D01*
X13198277Y-10961984D02*
X13245896Y-10961984D01*
X13245896Y-10961984D02*
X13274467Y-10971508D01*
X13274467Y-10971508D02*
X13293515Y-10990555D01*
X13293515Y-10990555D02*
X13303039Y-11009603D01*
X13303039Y-11009603D02*
X13312562Y-11047698D01*
X13312562Y-11047698D02*
X13312562Y-11076270D01*
X13312562Y-11076270D02*
X13303039Y-11114365D01*
X13303039Y-11114365D02*
X13293515Y-11133412D01*
X13293515Y-11133412D02*
X13274467Y-11152460D01*
X13274467Y-11152460D02*
X13245896Y-11161984D01*
X13245896Y-11161984D02*
X13198277Y-11161984D01*
X13398277Y-11161984D02*
X13398277Y-11028650D01*
X13398277Y-11066746D02*
X13407801Y-11047698D01*
X13407801Y-11047698D02*
X13417324Y-11038174D01*
X13417324Y-11038174D02*
X13436372Y-11028650D01*
X13436372Y-11028650D02*
X13455420Y-11028650D01*
X13522086Y-11161984D02*
X13522086Y-11028650D01*
X13522086Y-10961984D02*
X13512562Y-10971508D01*
X13512562Y-10971508D02*
X13522086Y-10981031D01*
X13522086Y-10981031D02*
X13531610Y-10971508D01*
X13531610Y-10971508D02*
X13522086Y-10961984D01*
X13522086Y-10961984D02*
X13522086Y-10981031D01*
X13645896Y-11161984D02*
X13626848Y-11152460D01*
X13626848Y-11152460D02*
X13617324Y-11133412D01*
X13617324Y-11133412D02*
X13617324Y-10961984D01*
X13750658Y-11161984D02*
X13731610Y-11152460D01*
X13731610Y-11152460D02*
X13722086Y-11133412D01*
X13722086Y-11133412D02*
X13722086Y-10961984D01*
X13979229Y-11161984D02*
X13979229Y-10961984D01*
X13979229Y-10961984D02*
X14045896Y-11104841D01*
X14045896Y-11104841D02*
X14112562Y-10961984D01*
X14112562Y-10961984D02*
X14112562Y-11161984D01*
X14293515Y-11161984D02*
X14293515Y-11057222D01*
X14293515Y-11057222D02*
X14283991Y-11038174D01*
X14283991Y-11038174D02*
X14264943Y-11028650D01*
X14264943Y-11028650D02*
X14226848Y-11028650D01*
X14226848Y-11028650D02*
X14207801Y-11038174D01*
X14293515Y-11152460D02*
X14274467Y-11161984D01*
X14274467Y-11161984D02*
X14226848Y-11161984D01*
X14226848Y-11161984D02*
X14207801Y-11152460D01*
X14207801Y-11152460D02*
X14198277Y-11133412D01*
X14198277Y-11133412D02*
X14198277Y-11114365D01*
X14198277Y-11114365D02*
X14207801Y-11095317D01*
X14207801Y-11095317D02*
X14226848Y-11085793D01*
X14226848Y-11085793D02*
X14274467Y-11085793D01*
X14274467Y-11085793D02*
X14293515Y-11076270D01*
X14388753Y-11028650D02*
X14388753Y-11228650D01*
X14388753Y-11038174D02*
X14407801Y-11028650D01*
X14407801Y-11028650D02*
X14445896Y-11028650D01*
X14445896Y-11028650D02*
X14464943Y-11038174D01*
X14464943Y-11038174D02*
X14474467Y-11047698D01*
X14474467Y-11047698D02*
X14483991Y-11066746D01*
X14483991Y-11066746D02*
X14483991Y-11123889D01*
X14483991Y-11123889D02*
X14474467Y-11142936D01*
X14474467Y-11142936D02*
X14464943Y-11152460D01*
X14464943Y-11152460D02*
X14445896Y-11161984D01*
X14445896Y-11161984D02*
X14407801Y-11161984D01*
X14407801Y-11161984D02*
X14388753Y-11152460D01*
X14569705Y-11142936D02*
X14579229Y-11152460D01*
X14579229Y-11152460D02*
X14569705Y-11161984D01*
X14569705Y-11161984D02*
X14560182Y-11152460D01*
X14560182Y-11152460D02*
X14569705Y-11142936D01*
X14569705Y-11142936D02*
X14569705Y-11161984D01*
X14569705Y-11038174D02*
X14579229Y-11047698D01*
X14579229Y-11047698D02*
X14569705Y-11057222D01*
X14569705Y-11057222D02*
X14560182Y-11047698D01*
X14560182Y-11047698D02*
X14569705Y-11038174D01*
X14569705Y-11038174D02*
X14569705Y-11057222D01*
X12737500Y-11390500D02*
X12937500Y-11590500D01*
X12937500Y-11390500D02*
X12737500Y-11590500D01*
X13179229Y-11381984D02*
X13303039Y-11381984D01*
X13303039Y-11381984D02*
X13236372Y-11458174D01*
X13236372Y-11458174D02*
X13264943Y-11458174D01*
X13264943Y-11458174D02*
X13283991Y-11467698D01*
X13283991Y-11467698D02*
X13293515Y-11477222D01*
X13293515Y-11477222D02*
X13303039Y-11496269D01*
X13303039Y-11496269D02*
X13303039Y-11543888D01*
X13303039Y-11543888D02*
X13293515Y-11562936D01*
X13293515Y-11562936D02*
X13283991Y-11572460D01*
X13283991Y-11572460D02*
X13264943Y-11581984D01*
X13264943Y-11581984D02*
X13207801Y-11581984D01*
X13207801Y-11581984D02*
X13188753Y-11572460D01*
X13188753Y-11572460D02*
X13179229Y-11562936D01*
X13388753Y-11562936D02*
X13398277Y-11572460D01*
X13398277Y-11572460D02*
X13388753Y-11581984D01*
X13388753Y-11581984D02*
X13379229Y-11572460D01*
X13379229Y-11572460D02*
X13388753Y-11562936D01*
X13388753Y-11562936D02*
X13388753Y-11581984D01*
X13474467Y-11401031D02*
X13483991Y-11391508D01*
X13483991Y-11391508D02*
X13503039Y-11381984D01*
X13503039Y-11381984D02*
X13550658Y-11381984D01*
X13550658Y-11381984D02*
X13569705Y-11391508D01*
X13569705Y-11391508D02*
X13579229Y-11401031D01*
X13579229Y-11401031D02*
X13588753Y-11420079D01*
X13588753Y-11420079D02*
X13588753Y-11439127D01*
X13588753Y-11439127D02*
X13579229Y-11467698D01*
X13579229Y-11467698D02*
X13464943Y-11581984D01*
X13464943Y-11581984D02*
X13588753Y-11581984D01*
X13712562Y-11381984D02*
X13731610Y-11381984D01*
X13731610Y-11381984D02*
X13750658Y-11391508D01*
X13750658Y-11391508D02*
X13760182Y-11401031D01*
X13760182Y-11401031D02*
X13769705Y-11420079D01*
X13769705Y-11420079D02*
X13779229Y-11458174D01*
X13779229Y-11458174D02*
X13779229Y-11505793D01*
X13779229Y-11505793D02*
X13769705Y-11543888D01*
X13769705Y-11543888D02*
X13760182Y-11562936D01*
X13760182Y-11562936D02*
X13750658Y-11572460D01*
X13750658Y-11572460D02*
X13731610Y-11581984D01*
X13731610Y-11581984D02*
X13712562Y-11581984D01*
X13712562Y-11581984D02*
X13693515Y-11572460D01*
X13693515Y-11572460D02*
X13683991Y-11562936D01*
X13683991Y-11562936D02*
X13674467Y-11543888D01*
X13674467Y-11543888D02*
X13664943Y-11505793D01*
X13664943Y-11505793D02*
X13664943Y-11458174D01*
X13664943Y-11458174D02*
X13674467Y-11420079D01*
X13674467Y-11420079D02*
X13683991Y-11401031D01*
X13683991Y-11401031D02*
X13693515Y-11391508D01*
X13693515Y-11391508D02*
X13712562Y-11381984D01*
X13903039Y-11381984D02*
X13922086Y-11381984D01*
X13922086Y-11381984D02*
X13941134Y-11391508D01*
X13941134Y-11391508D02*
X13950658Y-11401031D01*
X13950658Y-11401031D02*
X13960182Y-11420079D01*
X13960182Y-11420079D02*
X13969705Y-11458174D01*
X13969705Y-11458174D02*
X13969705Y-11505793D01*
X13969705Y-11505793D02*
X13960182Y-11543888D01*
X13960182Y-11543888D02*
X13950658Y-11562936D01*
X13950658Y-11562936D02*
X13941134Y-11572460D01*
X13941134Y-11572460D02*
X13922086Y-11581984D01*
X13922086Y-11581984D02*
X13903039Y-11581984D01*
X13903039Y-11581984D02*
X13883991Y-11572460D01*
X13883991Y-11572460D02*
X13874467Y-11562936D01*
X13874467Y-11562936D02*
X13864943Y-11543888D01*
X13864943Y-11543888D02*
X13855420Y-11505793D01*
X13855420Y-11505793D02*
X13855420Y-11458174D01*
X13855420Y-11458174D02*
X13864943Y-11420079D01*
X13864943Y-11420079D02*
X13874467Y-11401031D01*
X13874467Y-11401031D02*
X13883991Y-11391508D01*
X13883991Y-11391508D02*
X13903039Y-11381984D01*
X14055420Y-11581984D02*
X14055420Y-11448650D01*
X14055420Y-11467698D02*
X14064943Y-11458174D01*
X14064943Y-11458174D02*
X14083991Y-11448650D01*
X14083991Y-11448650D02*
X14112563Y-11448650D01*
X14112563Y-11448650D02*
X14131610Y-11458174D01*
X14131610Y-11458174D02*
X14141134Y-11477222D01*
X14141134Y-11477222D02*
X14141134Y-11581984D01*
X14141134Y-11477222D02*
X14150658Y-11458174D01*
X14150658Y-11458174D02*
X14169705Y-11448650D01*
X14169705Y-11448650D02*
X14198277Y-11448650D01*
X14198277Y-11448650D02*
X14217324Y-11458174D01*
X14217324Y-11458174D02*
X14226848Y-11477222D01*
X14226848Y-11477222D02*
X14226848Y-11581984D01*
X14322086Y-11581984D02*
X14322086Y-11448650D01*
X14322086Y-11467698D02*
X14331610Y-11458174D01*
X14331610Y-11458174D02*
X14350658Y-11448650D01*
X14350658Y-11448650D02*
X14379229Y-11448650D01*
X14379229Y-11448650D02*
X14398277Y-11458174D01*
X14398277Y-11458174D02*
X14407801Y-11477222D01*
X14407801Y-11477222D02*
X14407801Y-11581984D01*
X14407801Y-11477222D02*
X14417324Y-11458174D01*
X14417324Y-11458174D02*
X14436372Y-11448650D01*
X14436372Y-11448650D02*
X14464943Y-11448650D01*
X14464943Y-11448650D02*
X14483991Y-11458174D01*
X14483991Y-11458174D02*
X14493515Y-11477222D01*
X14493515Y-11477222D02*
X14493515Y-11581984D01*
X14883991Y-11372460D02*
X14712563Y-11629603D01*
X15141134Y-11381984D02*
X15160182Y-11381984D01*
X15160182Y-11381984D02*
X15179229Y-11391508D01*
X15179229Y-11391508D02*
X15188753Y-11401031D01*
X15188753Y-11401031D02*
X15198277Y-11420079D01*
X15198277Y-11420079D02*
X15207801Y-11458174D01*
X15207801Y-11458174D02*
X15207801Y-11505793D01*
X15207801Y-11505793D02*
X15198277Y-11543888D01*
X15198277Y-11543888D02*
X15188753Y-11562936D01*
X15188753Y-11562936D02*
X15179229Y-11572460D01*
X15179229Y-11572460D02*
X15160182Y-11581984D01*
X15160182Y-11581984D02*
X15141134Y-11581984D01*
X15141134Y-11581984D02*
X15122086Y-11572460D01*
X15122086Y-11572460D02*
X15112563Y-11562936D01*
X15112563Y-11562936D02*
X15103039Y-11543888D01*
X15103039Y-11543888D02*
X15093515Y-11505793D01*
X15093515Y-11505793D02*
X15093515Y-11458174D01*
X15093515Y-11458174D02*
X15103039Y-11420079D01*
X15103039Y-11420079D02*
X15112563Y-11401031D01*
X15112563Y-11401031D02*
X15122086Y-11391508D01*
X15122086Y-11391508D02*
X15141134Y-11381984D01*
X15293515Y-11562936D02*
X15303039Y-11572460D01*
X15303039Y-11572460D02*
X15293515Y-11581984D01*
X15293515Y-11581984D02*
X15283991Y-11572460D01*
X15283991Y-11572460D02*
X15293515Y-11562936D01*
X15293515Y-11562936D02*
X15293515Y-11581984D01*
X15493515Y-11581984D02*
X15379229Y-11581984D01*
X15436372Y-11581984D02*
X15436372Y-11381984D01*
X15436372Y-11381984D02*
X15417325Y-11410555D01*
X15417325Y-11410555D02*
X15398277Y-11429603D01*
X15398277Y-11429603D02*
X15379229Y-11439127D01*
X15569706Y-11401031D02*
X15579229Y-11391508D01*
X15579229Y-11391508D02*
X15598277Y-11381984D01*
X15598277Y-11381984D02*
X15645896Y-11381984D01*
X15645896Y-11381984D02*
X15664944Y-11391508D01*
X15664944Y-11391508D02*
X15674467Y-11401031D01*
X15674467Y-11401031D02*
X15683991Y-11420079D01*
X15683991Y-11420079D02*
X15683991Y-11439127D01*
X15683991Y-11439127D02*
X15674467Y-11467698D01*
X15674467Y-11467698D02*
X15560182Y-11581984D01*
X15560182Y-11581984D02*
X15683991Y-11581984D01*
X15855420Y-11381984D02*
X15817325Y-11381984D01*
X15817325Y-11381984D02*
X15798277Y-11391508D01*
X15798277Y-11391508D02*
X15788753Y-11401031D01*
X15788753Y-11401031D02*
X15769706Y-11429603D01*
X15769706Y-11429603D02*
X15760182Y-11467698D01*
X15760182Y-11467698D02*
X15760182Y-11543888D01*
X15760182Y-11543888D02*
X15769706Y-11562936D01*
X15769706Y-11562936D02*
X15779229Y-11572460D01*
X15779229Y-11572460D02*
X15798277Y-11581984D01*
X15798277Y-11581984D02*
X15836372Y-11581984D01*
X15836372Y-11581984D02*
X15855420Y-11572460D01*
X15855420Y-11572460D02*
X15864944Y-11562936D01*
X15864944Y-11562936D02*
X15874467Y-11543888D01*
X15874467Y-11543888D02*
X15874467Y-11496269D01*
X15874467Y-11496269D02*
X15864944Y-11477222D01*
X15864944Y-11477222D02*
X15855420Y-11467698D01*
X15855420Y-11467698D02*
X15836372Y-11458174D01*
X15836372Y-11458174D02*
X15798277Y-11458174D01*
X15798277Y-11458174D02*
X15779229Y-11467698D01*
X15779229Y-11467698D02*
X15769706Y-11477222D01*
X15769706Y-11477222D02*
X15760182Y-11496269D01*
X15998277Y-11381984D02*
X16017325Y-11381984D01*
X16017325Y-11381984D02*
X16036372Y-11391508D01*
X16036372Y-11391508D02*
X16045896Y-11401031D01*
X16045896Y-11401031D02*
X16055420Y-11420079D01*
X16055420Y-11420079D02*
X16064944Y-11458174D01*
X16064944Y-11458174D02*
X16064944Y-11505793D01*
X16064944Y-11505793D02*
X16055420Y-11543888D01*
X16055420Y-11543888D02*
X16045896Y-11562936D01*
X16045896Y-11562936D02*
X16036372Y-11572460D01*
X16036372Y-11572460D02*
X16017325Y-11581984D01*
X16017325Y-11581984D02*
X15998277Y-11581984D01*
X15998277Y-11581984D02*
X15979229Y-11572460D01*
X15979229Y-11572460D02*
X15969706Y-11562936D01*
X15969706Y-11562936D02*
X15960182Y-11543888D01*
X15960182Y-11543888D02*
X15950658Y-11505793D01*
X15950658Y-11505793D02*
X15950658Y-11458174D01*
X15950658Y-11458174D02*
X15960182Y-11420079D01*
X15960182Y-11420079D02*
X15969706Y-11401031D01*
X15969706Y-11401031D02*
X15979229Y-11391508D01*
X15979229Y-11391508D02*
X15998277Y-11381984D01*
X16141134Y-11381984D02*
X16141134Y-11420079D01*
X16217325Y-11381984D02*
X16217325Y-11420079D01*
X16512563Y-11658174D02*
X16503039Y-11648650D01*
X16503039Y-11648650D02*
X16483991Y-11620079D01*
X16483991Y-11620079D02*
X16474468Y-11601031D01*
X16474468Y-11601031D02*
X16464944Y-11572460D01*
X16464944Y-11572460D02*
X16455420Y-11524841D01*
X16455420Y-11524841D02*
X16455420Y-11486746D01*
X16455420Y-11486746D02*
X16464944Y-11439127D01*
X16464944Y-11439127D02*
X16474468Y-11410555D01*
X16474468Y-11410555D02*
X16483991Y-11391508D01*
X16483991Y-11391508D02*
X16503039Y-11362936D01*
X16503039Y-11362936D02*
X16512563Y-11353412D01*
X16569706Y-11381984D02*
X16693515Y-11381984D01*
X16693515Y-11381984D02*
X16626848Y-11458174D01*
X16626848Y-11458174D02*
X16655420Y-11458174D01*
X16655420Y-11458174D02*
X16674468Y-11467698D01*
X16674468Y-11467698D02*
X16683991Y-11477222D01*
X16683991Y-11477222D02*
X16693515Y-11496269D01*
X16693515Y-11496269D02*
X16693515Y-11543888D01*
X16693515Y-11543888D02*
X16683991Y-11562936D01*
X16683991Y-11562936D02*
X16674468Y-11572460D01*
X16674468Y-11572460D02*
X16655420Y-11581984D01*
X16655420Y-11581984D02*
X16598277Y-11581984D01*
X16598277Y-11581984D02*
X16579229Y-11572460D01*
X16579229Y-11572460D02*
X16569706Y-11562936D01*
X16931611Y-11581984D02*
X16931611Y-11381984D01*
X17017325Y-11581984D02*
X17017325Y-11477222D01*
X17017325Y-11477222D02*
X17007801Y-11458174D01*
X17007801Y-11458174D02*
X16988753Y-11448650D01*
X16988753Y-11448650D02*
X16960182Y-11448650D01*
X16960182Y-11448650D02*
X16941134Y-11458174D01*
X16941134Y-11458174D02*
X16931611Y-11467698D01*
X17141134Y-11581984D02*
X17122087Y-11572460D01*
X17122087Y-11572460D02*
X17112563Y-11562936D01*
X17112563Y-11562936D02*
X17103039Y-11543888D01*
X17103039Y-11543888D02*
X17103039Y-11486746D01*
X17103039Y-11486746D02*
X17112563Y-11467698D01*
X17112563Y-11467698D02*
X17122087Y-11458174D01*
X17122087Y-11458174D02*
X17141134Y-11448650D01*
X17141134Y-11448650D02*
X17169706Y-11448650D01*
X17169706Y-11448650D02*
X17188753Y-11458174D01*
X17188753Y-11458174D02*
X17198277Y-11467698D01*
X17198277Y-11467698D02*
X17207801Y-11486746D01*
X17207801Y-11486746D02*
X17207801Y-11543888D01*
X17207801Y-11543888D02*
X17198277Y-11562936D01*
X17198277Y-11562936D02*
X17188753Y-11572460D01*
X17188753Y-11572460D02*
X17169706Y-11581984D01*
X17169706Y-11581984D02*
X17141134Y-11581984D01*
X17322087Y-11581984D02*
X17303039Y-11572460D01*
X17303039Y-11572460D02*
X17293515Y-11553412D01*
X17293515Y-11553412D02*
X17293515Y-11381984D01*
X17474468Y-11572460D02*
X17455420Y-11581984D01*
X17455420Y-11581984D02*
X17417325Y-11581984D01*
X17417325Y-11581984D02*
X17398277Y-11572460D01*
X17398277Y-11572460D02*
X17388753Y-11553412D01*
X17388753Y-11553412D02*
X17388753Y-11477222D01*
X17388753Y-11477222D02*
X17398277Y-11458174D01*
X17398277Y-11458174D02*
X17417325Y-11448650D01*
X17417325Y-11448650D02*
X17455420Y-11448650D01*
X17455420Y-11448650D02*
X17474468Y-11458174D01*
X17474468Y-11458174D02*
X17483992Y-11477222D01*
X17483992Y-11477222D02*
X17483992Y-11496269D01*
X17483992Y-11496269D02*
X17388753Y-11515317D01*
X17560182Y-11572460D02*
X17579230Y-11581984D01*
X17579230Y-11581984D02*
X17617325Y-11581984D01*
X17617325Y-11581984D02*
X17636373Y-11572460D01*
X17636373Y-11572460D02*
X17645896Y-11553412D01*
X17645896Y-11553412D02*
X17645896Y-11543888D01*
X17645896Y-11543888D02*
X17636373Y-11524841D01*
X17636373Y-11524841D02*
X17617325Y-11515317D01*
X17617325Y-11515317D02*
X17588753Y-11515317D01*
X17588753Y-11515317D02*
X17569706Y-11505793D01*
X17569706Y-11505793D02*
X17560182Y-11486746D01*
X17560182Y-11486746D02*
X17560182Y-11477222D01*
X17560182Y-11477222D02*
X17569706Y-11458174D01*
X17569706Y-11458174D02*
X17588753Y-11448650D01*
X17588753Y-11448650D02*
X17617325Y-11448650D01*
X17617325Y-11448650D02*
X17636373Y-11458174D01*
X17712563Y-11658174D02*
X17722087Y-11648650D01*
X17722087Y-11648650D02*
X17741134Y-11620079D01*
X17741134Y-11620079D02*
X17750658Y-11601031D01*
X17750658Y-11601031D02*
X17760182Y-11572460D01*
X17760182Y-11572460D02*
X17769706Y-11524841D01*
X17769706Y-11524841D02*
X17769706Y-11486746D01*
X17769706Y-11486746D02*
X17760182Y-11439127D01*
X17760182Y-11439127D02*
X17750658Y-11410555D01*
X17750658Y-11410555D02*
X17741134Y-11391508D01*
X17741134Y-11391508D02*
X17722087Y-11362936D01*
X17722087Y-11362936D02*
X17712563Y-11353412D01*
X18074468Y-11658174D02*
X18064944Y-11648650D01*
X18064944Y-11648650D02*
X18045896Y-11620079D01*
X18045896Y-11620079D02*
X18036373Y-11601031D01*
X18036373Y-11601031D02*
X18026849Y-11572460D01*
X18026849Y-11572460D02*
X18017325Y-11524841D01*
X18017325Y-11524841D02*
X18017325Y-11486746D01*
X18017325Y-11486746D02*
X18026849Y-11439127D01*
X18026849Y-11439127D02*
X18036373Y-11410555D01*
X18036373Y-11410555D02*
X18045896Y-11391508D01*
X18045896Y-11391508D02*
X18064944Y-11362936D01*
X18064944Y-11362936D02*
X18074468Y-11353412D01*
X18150658Y-11448650D02*
X18150658Y-11581984D01*
X18150658Y-11467698D02*
X18160182Y-11458174D01*
X18160182Y-11458174D02*
X18179230Y-11448650D01*
X18179230Y-11448650D02*
X18207801Y-11448650D01*
X18207801Y-11448650D02*
X18226849Y-11458174D01*
X18226849Y-11458174D02*
X18236373Y-11477222D01*
X18236373Y-11477222D02*
X18236373Y-11581984D01*
X18360182Y-11581984D02*
X18341134Y-11572460D01*
X18341134Y-11572460D02*
X18331611Y-11562936D01*
X18331611Y-11562936D02*
X18322087Y-11543888D01*
X18322087Y-11543888D02*
X18322087Y-11486746D01*
X18322087Y-11486746D02*
X18331611Y-11467698D01*
X18331611Y-11467698D02*
X18341134Y-11458174D01*
X18341134Y-11458174D02*
X18360182Y-11448650D01*
X18360182Y-11448650D02*
X18388754Y-11448650D01*
X18388754Y-11448650D02*
X18407801Y-11458174D01*
X18407801Y-11458174D02*
X18417325Y-11467698D01*
X18417325Y-11467698D02*
X18426849Y-11486746D01*
X18426849Y-11486746D02*
X18426849Y-11543888D01*
X18426849Y-11543888D02*
X18417325Y-11562936D01*
X18417325Y-11562936D02*
X18407801Y-11572460D01*
X18407801Y-11572460D02*
X18388754Y-11581984D01*
X18388754Y-11581984D02*
X18360182Y-11581984D01*
X18483992Y-11448650D02*
X18560182Y-11448650D01*
X18512563Y-11381984D02*
X18512563Y-11553412D01*
X18512563Y-11553412D02*
X18522087Y-11572460D01*
X18522087Y-11572460D02*
X18541134Y-11581984D01*
X18541134Y-11581984D02*
X18560182Y-11581984D01*
X18779230Y-11448650D02*
X18779230Y-11648650D01*
X18779230Y-11458174D02*
X18798277Y-11448650D01*
X18798277Y-11448650D02*
X18836373Y-11448650D01*
X18836373Y-11448650D02*
X18855420Y-11458174D01*
X18855420Y-11458174D02*
X18864944Y-11467698D01*
X18864944Y-11467698D02*
X18874468Y-11486746D01*
X18874468Y-11486746D02*
X18874468Y-11543888D01*
X18874468Y-11543888D02*
X18864944Y-11562936D01*
X18864944Y-11562936D02*
X18855420Y-11572460D01*
X18855420Y-11572460D02*
X18836373Y-11581984D01*
X18836373Y-11581984D02*
X18798277Y-11581984D01*
X18798277Y-11581984D02*
X18779230Y-11572460D01*
X18988754Y-11581984D02*
X18969706Y-11572460D01*
X18969706Y-11572460D02*
X18960182Y-11553412D01*
X18960182Y-11553412D02*
X18960182Y-11381984D01*
X19150658Y-11581984D02*
X19150658Y-11477222D01*
X19150658Y-11477222D02*
X19141135Y-11458174D01*
X19141135Y-11458174D02*
X19122087Y-11448650D01*
X19122087Y-11448650D02*
X19083992Y-11448650D01*
X19083992Y-11448650D02*
X19064944Y-11458174D01*
X19150658Y-11572460D02*
X19131611Y-11581984D01*
X19131611Y-11581984D02*
X19083992Y-11581984D01*
X19083992Y-11581984D02*
X19064944Y-11572460D01*
X19064944Y-11572460D02*
X19055420Y-11553412D01*
X19055420Y-11553412D02*
X19055420Y-11534365D01*
X19055420Y-11534365D02*
X19064944Y-11515317D01*
X19064944Y-11515317D02*
X19083992Y-11505793D01*
X19083992Y-11505793D02*
X19131611Y-11505793D01*
X19131611Y-11505793D02*
X19150658Y-11496269D01*
X19217325Y-11448650D02*
X19293515Y-11448650D01*
X19245896Y-11381984D02*
X19245896Y-11553412D01*
X19245896Y-11553412D02*
X19255420Y-11572460D01*
X19255420Y-11572460D02*
X19274468Y-11581984D01*
X19274468Y-11581984D02*
X19293515Y-11581984D01*
X19436373Y-11572460D02*
X19417325Y-11581984D01*
X19417325Y-11581984D02*
X19379230Y-11581984D01*
X19379230Y-11581984D02*
X19360182Y-11572460D01*
X19360182Y-11572460D02*
X19350658Y-11553412D01*
X19350658Y-11553412D02*
X19350658Y-11477222D01*
X19350658Y-11477222D02*
X19360182Y-11458174D01*
X19360182Y-11458174D02*
X19379230Y-11448650D01*
X19379230Y-11448650D02*
X19417325Y-11448650D01*
X19417325Y-11448650D02*
X19436373Y-11458174D01*
X19436373Y-11458174D02*
X19445896Y-11477222D01*
X19445896Y-11477222D02*
X19445896Y-11496269D01*
X19445896Y-11496269D02*
X19350658Y-11515317D01*
X19617325Y-11581984D02*
X19617325Y-11381984D01*
X19617325Y-11572460D02*
X19598277Y-11581984D01*
X19598277Y-11581984D02*
X19560182Y-11581984D01*
X19560182Y-11581984D02*
X19541135Y-11572460D01*
X19541135Y-11572460D02*
X19531611Y-11562936D01*
X19531611Y-11562936D02*
X19522087Y-11543888D01*
X19522087Y-11543888D02*
X19522087Y-11486746D01*
X19522087Y-11486746D02*
X19531611Y-11467698D01*
X19531611Y-11467698D02*
X19541135Y-11458174D01*
X19541135Y-11458174D02*
X19560182Y-11448650D01*
X19560182Y-11448650D02*
X19598277Y-11448650D01*
X19598277Y-11448650D02*
X19617325Y-11458174D01*
X19693516Y-11658174D02*
X19703039Y-11648650D01*
X19703039Y-11648650D02*
X19722087Y-11620079D01*
X19722087Y-11620079D02*
X19731611Y-11601031D01*
X19731611Y-11601031D02*
X19741135Y-11572460D01*
X19741135Y-11572460D02*
X19750658Y-11524841D01*
X19750658Y-11524841D02*
X19750658Y-11486746D01*
X19750658Y-11486746D02*
X19741135Y-11439127D01*
X19741135Y-11439127D02*
X19731611Y-11410555D01*
X19731611Y-11410555D02*
X19722087Y-11391508D01*
X19722087Y-11391508D02*
X19703039Y-11362936D01*
X19703039Y-11362936D02*
X19693516Y-11353412D01*
X12937500Y-11810500D02*
G75*
G02*
X12737500Y-11810500I-100000J0D01*
G01*
X12737500Y-11810500D02*
G75*
G02*
X12937500Y-11810500I100000J0D01*
G01*
X13179229Y-11701984D02*
X13303039Y-11701984D01*
X13303039Y-11701984D02*
X13236372Y-11778174D01*
X13236372Y-11778174D02*
X13264943Y-11778174D01*
X13264943Y-11778174D02*
X13283991Y-11787698D01*
X13283991Y-11787698D02*
X13293515Y-11797222D01*
X13293515Y-11797222D02*
X13303039Y-11816269D01*
X13303039Y-11816269D02*
X13303039Y-11863888D01*
X13303039Y-11863888D02*
X13293515Y-11882936D01*
X13293515Y-11882936D02*
X13283991Y-11892460D01*
X13283991Y-11892460D02*
X13264943Y-11901984D01*
X13264943Y-11901984D02*
X13207801Y-11901984D01*
X13207801Y-11901984D02*
X13188753Y-11892460D01*
X13188753Y-11892460D02*
X13179229Y-11882936D01*
X13388753Y-11882936D02*
X13398277Y-11892460D01*
X13398277Y-11892460D02*
X13388753Y-11901984D01*
X13388753Y-11901984D02*
X13379229Y-11892460D01*
X13379229Y-11892460D02*
X13388753Y-11882936D01*
X13388753Y-11882936D02*
X13388753Y-11901984D01*
X13474467Y-11721031D02*
X13483991Y-11711508D01*
X13483991Y-11711508D02*
X13503039Y-11701984D01*
X13503039Y-11701984D02*
X13550658Y-11701984D01*
X13550658Y-11701984D02*
X13569705Y-11711508D01*
X13569705Y-11711508D02*
X13579229Y-11721031D01*
X13579229Y-11721031D02*
X13588753Y-11740079D01*
X13588753Y-11740079D02*
X13588753Y-11759127D01*
X13588753Y-11759127D02*
X13579229Y-11787698D01*
X13579229Y-11787698D02*
X13464943Y-11901984D01*
X13464943Y-11901984D02*
X13588753Y-11901984D01*
X13769705Y-11701984D02*
X13674467Y-11701984D01*
X13674467Y-11701984D02*
X13664943Y-11797222D01*
X13664943Y-11797222D02*
X13674467Y-11787698D01*
X13674467Y-11787698D02*
X13693515Y-11778174D01*
X13693515Y-11778174D02*
X13741134Y-11778174D01*
X13741134Y-11778174D02*
X13760182Y-11787698D01*
X13760182Y-11787698D02*
X13769705Y-11797222D01*
X13769705Y-11797222D02*
X13779229Y-11816269D01*
X13779229Y-11816269D02*
X13779229Y-11863888D01*
X13779229Y-11863888D02*
X13769705Y-11882936D01*
X13769705Y-11882936D02*
X13760182Y-11892460D01*
X13760182Y-11892460D02*
X13741134Y-11901984D01*
X13741134Y-11901984D02*
X13693515Y-11901984D01*
X13693515Y-11901984D02*
X13674467Y-11892460D01*
X13674467Y-11892460D02*
X13664943Y-11882936D01*
X13903039Y-11701984D02*
X13922086Y-11701984D01*
X13922086Y-11701984D02*
X13941134Y-11711508D01*
X13941134Y-11711508D02*
X13950658Y-11721031D01*
X13950658Y-11721031D02*
X13960182Y-11740079D01*
X13960182Y-11740079D02*
X13969705Y-11778174D01*
X13969705Y-11778174D02*
X13969705Y-11825793D01*
X13969705Y-11825793D02*
X13960182Y-11863888D01*
X13960182Y-11863888D02*
X13950658Y-11882936D01*
X13950658Y-11882936D02*
X13941134Y-11892460D01*
X13941134Y-11892460D02*
X13922086Y-11901984D01*
X13922086Y-11901984D02*
X13903039Y-11901984D01*
X13903039Y-11901984D02*
X13883991Y-11892460D01*
X13883991Y-11892460D02*
X13874467Y-11882936D01*
X13874467Y-11882936D02*
X13864943Y-11863888D01*
X13864943Y-11863888D02*
X13855420Y-11825793D01*
X13855420Y-11825793D02*
X13855420Y-11778174D01*
X13855420Y-11778174D02*
X13864943Y-11740079D01*
X13864943Y-11740079D02*
X13874467Y-11721031D01*
X13874467Y-11721031D02*
X13883991Y-11711508D01*
X13883991Y-11711508D02*
X13903039Y-11701984D01*
X14055420Y-11901984D02*
X14055420Y-11768650D01*
X14055420Y-11787698D02*
X14064943Y-11778174D01*
X14064943Y-11778174D02*
X14083991Y-11768650D01*
X14083991Y-11768650D02*
X14112563Y-11768650D01*
X14112563Y-11768650D02*
X14131610Y-11778174D01*
X14131610Y-11778174D02*
X14141134Y-11797222D01*
X14141134Y-11797222D02*
X14141134Y-11901984D01*
X14141134Y-11797222D02*
X14150658Y-11778174D01*
X14150658Y-11778174D02*
X14169705Y-11768650D01*
X14169705Y-11768650D02*
X14198277Y-11768650D01*
X14198277Y-11768650D02*
X14217324Y-11778174D01*
X14217324Y-11778174D02*
X14226848Y-11797222D01*
X14226848Y-11797222D02*
X14226848Y-11901984D01*
X14322086Y-11901984D02*
X14322086Y-11768650D01*
X14322086Y-11787698D02*
X14331610Y-11778174D01*
X14331610Y-11778174D02*
X14350658Y-11768650D01*
X14350658Y-11768650D02*
X14379229Y-11768650D01*
X14379229Y-11768650D02*
X14398277Y-11778174D01*
X14398277Y-11778174D02*
X14407801Y-11797222D01*
X14407801Y-11797222D02*
X14407801Y-11901984D01*
X14407801Y-11797222D02*
X14417324Y-11778174D01*
X14417324Y-11778174D02*
X14436372Y-11768650D01*
X14436372Y-11768650D02*
X14464943Y-11768650D01*
X14464943Y-11768650D02*
X14483991Y-11778174D01*
X14483991Y-11778174D02*
X14493515Y-11797222D01*
X14493515Y-11797222D02*
X14493515Y-11901984D01*
X14883991Y-11692460D02*
X14712563Y-11949603D01*
X15141134Y-11701984D02*
X15160182Y-11701984D01*
X15160182Y-11701984D02*
X15179229Y-11711508D01*
X15179229Y-11711508D02*
X15188753Y-11721031D01*
X15188753Y-11721031D02*
X15198277Y-11740079D01*
X15198277Y-11740079D02*
X15207801Y-11778174D01*
X15207801Y-11778174D02*
X15207801Y-11825793D01*
X15207801Y-11825793D02*
X15198277Y-11863888D01*
X15198277Y-11863888D02*
X15188753Y-11882936D01*
X15188753Y-11882936D02*
X15179229Y-11892460D01*
X15179229Y-11892460D02*
X15160182Y-11901984D01*
X15160182Y-11901984D02*
X15141134Y-11901984D01*
X15141134Y-11901984D02*
X15122086Y-11892460D01*
X15122086Y-11892460D02*
X15112563Y-11882936D01*
X15112563Y-11882936D02*
X15103039Y-11863888D01*
X15103039Y-11863888D02*
X15093515Y-11825793D01*
X15093515Y-11825793D02*
X15093515Y-11778174D01*
X15093515Y-11778174D02*
X15103039Y-11740079D01*
X15103039Y-11740079D02*
X15112563Y-11721031D01*
X15112563Y-11721031D02*
X15122086Y-11711508D01*
X15122086Y-11711508D02*
X15141134Y-11701984D01*
X15293515Y-11882936D02*
X15303039Y-11892460D01*
X15303039Y-11892460D02*
X15293515Y-11901984D01*
X15293515Y-11901984D02*
X15283991Y-11892460D01*
X15283991Y-11892460D02*
X15293515Y-11882936D01*
X15293515Y-11882936D02*
X15293515Y-11901984D01*
X15493515Y-11901984D02*
X15379229Y-11901984D01*
X15436372Y-11901984D02*
X15436372Y-11701984D01*
X15436372Y-11701984D02*
X15417325Y-11730555D01*
X15417325Y-11730555D02*
X15398277Y-11749603D01*
X15398277Y-11749603D02*
X15379229Y-11759127D01*
X15569706Y-11721031D02*
X15579229Y-11711508D01*
X15579229Y-11711508D02*
X15598277Y-11701984D01*
X15598277Y-11701984D02*
X15645896Y-11701984D01*
X15645896Y-11701984D02*
X15664944Y-11711508D01*
X15664944Y-11711508D02*
X15674467Y-11721031D01*
X15674467Y-11721031D02*
X15683991Y-11740079D01*
X15683991Y-11740079D02*
X15683991Y-11759127D01*
X15683991Y-11759127D02*
X15674467Y-11787698D01*
X15674467Y-11787698D02*
X15560182Y-11901984D01*
X15560182Y-11901984D02*
X15683991Y-11901984D01*
X15798277Y-11787698D02*
X15779229Y-11778174D01*
X15779229Y-11778174D02*
X15769706Y-11768650D01*
X15769706Y-11768650D02*
X15760182Y-11749603D01*
X15760182Y-11749603D02*
X15760182Y-11740079D01*
X15760182Y-11740079D02*
X15769706Y-11721031D01*
X15769706Y-11721031D02*
X15779229Y-11711508D01*
X15779229Y-11711508D02*
X15798277Y-11701984D01*
X15798277Y-11701984D02*
X15836372Y-11701984D01*
X15836372Y-11701984D02*
X15855420Y-11711508D01*
X15855420Y-11711508D02*
X15864944Y-11721031D01*
X15864944Y-11721031D02*
X15874467Y-11740079D01*
X15874467Y-11740079D02*
X15874467Y-11749603D01*
X15874467Y-11749603D02*
X15864944Y-11768650D01*
X15864944Y-11768650D02*
X15855420Y-11778174D01*
X15855420Y-11778174D02*
X15836372Y-11787698D01*
X15836372Y-11787698D02*
X15798277Y-11787698D01*
X15798277Y-11787698D02*
X15779229Y-11797222D01*
X15779229Y-11797222D02*
X15769706Y-11806746D01*
X15769706Y-11806746D02*
X15760182Y-11825793D01*
X15760182Y-11825793D02*
X15760182Y-11863888D01*
X15760182Y-11863888D02*
X15769706Y-11882936D01*
X15769706Y-11882936D02*
X15779229Y-11892460D01*
X15779229Y-11892460D02*
X15798277Y-11901984D01*
X15798277Y-11901984D02*
X15836372Y-11901984D01*
X15836372Y-11901984D02*
X15855420Y-11892460D01*
X15855420Y-11892460D02*
X15864944Y-11882936D01*
X15864944Y-11882936D02*
X15874467Y-11863888D01*
X15874467Y-11863888D02*
X15874467Y-11825793D01*
X15874467Y-11825793D02*
X15864944Y-11806746D01*
X15864944Y-11806746D02*
X15855420Y-11797222D01*
X15855420Y-11797222D02*
X15836372Y-11787698D01*
X15998277Y-11701984D02*
X16017325Y-11701984D01*
X16017325Y-11701984D02*
X16036372Y-11711508D01*
X16036372Y-11711508D02*
X16045896Y-11721031D01*
X16045896Y-11721031D02*
X16055420Y-11740079D01*
X16055420Y-11740079D02*
X16064944Y-11778174D01*
X16064944Y-11778174D02*
X16064944Y-11825793D01*
X16064944Y-11825793D02*
X16055420Y-11863888D01*
X16055420Y-11863888D02*
X16045896Y-11882936D01*
X16045896Y-11882936D02*
X16036372Y-11892460D01*
X16036372Y-11892460D02*
X16017325Y-11901984D01*
X16017325Y-11901984D02*
X15998277Y-11901984D01*
X15998277Y-11901984D02*
X15979229Y-11892460D01*
X15979229Y-11892460D02*
X15969706Y-11882936D01*
X15969706Y-11882936D02*
X15960182Y-11863888D01*
X15960182Y-11863888D02*
X15950658Y-11825793D01*
X15950658Y-11825793D02*
X15950658Y-11778174D01*
X15950658Y-11778174D02*
X15960182Y-11740079D01*
X15960182Y-11740079D02*
X15969706Y-11721031D01*
X15969706Y-11721031D02*
X15979229Y-11711508D01*
X15979229Y-11711508D02*
X15998277Y-11701984D01*
X16141134Y-11701984D02*
X16141134Y-11740079D01*
X16217325Y-11701984D02*
X16217325Y-11740079D01*
X16512563Y-11978174D02*
X16503039Y-11968650D01*
X16503039Y-11968650D02*
X16483991Y-11940079D01*
X16483991Y-11940079D02*
X16474468Y-11921031D01*
X16474468Y-11921031D02*
X16464944Y-11892460D01*
X16464944Y-11892460D02*
X16455420Y-11844841D01*
X16455420Y-11844841D02*
X16455420Y-11806746D01*
X16455420Y-11806746D02*
X16464944Y-11759127D01*
X16464944Y-11759127D02*
X16474468Y-11730555D01*
X16474468Y-11730555D02*
X16483991Y-11711508D01*
X16483991Y-11711508D02*
X16503039Y-11682936D01*
X16503039Y-11682936D02*
X16512563Y-11673412D01*
X16674468Y-11768650D02*
X16674468Y-11901984D01*
X16626848Y-11692460D02*
X16579229Y-11835317D01*
X16579229Y-11835317D02*
X16703039Y-11835317D01*
X16931611Y-11901984D02*
X16931611Y-11701984D01*
X17017325Y-11901984D02*
X17017325Y-11797222D01*
X17017325Y-11797222D02*
X17007801Y-11778174D01*
X17007801Y-11778174D02*
X16988753Y-11768650D01*
X16988753Y-11768650D02*
X16960182Y-11768650D01*
X16960182Y-11768650D02*
X16941134Y-11778174D01*
X16941134Y-11778174D02*
X16931611Y-11787698D01*
X17141134Y-11901984D02*
X17122087Y-11892460D01*
X17122087Y-11892460D02*
X17112563Y-11882936D01*
X17112563Y-11882936D02*
X17103039Y-11863888D01*
X17103039Y-11863888D02*
X17103039Y-11806746D01*
X17103039Y-11806746D02*
X17112563Y-11787698D01*
X17112563Y-11787698D02*
X17122087Y-11778174D01*
X17122087Y-11778174D02*
X17141134Y-11768650D01*
X17141134Y-11768650D02*
X17169706Y-11768650D01*
X17169706Y-11768650D02*
X17188753Y-11778174D01*
X17188753Y-11778174D02*
X17198277Y-11787698D01*
X17198277Y-11787698D02*
X17207801Y-11806746D01*
X17207801Y-11806746D02*
X17207801Y-11863888D01*
X17207801Y-11863888D02*
X17198277Y-11882936D01*
X17198277Y-11882936D02*
X17188753Y-11892460D01*
X17188753Y-11892460D02*
X17169706Y-11901984D01*
X17169706Y-11901984D02*
X17141134Y-11901984D01*
X17322087Y-11901984D02*
X17303039Y-11892460D01*
X17303039Y-11892460D02*
X17293515Y-11873412D01*
X17293515Y-11873412D02*
X17293515Y-11701984D01*
X17474468Y-11892460D02*
X17455420Y-11901984D01*
X17455420Y-11901984D02*
X17417325Y-11901984D01*
X17417325Y-11901984D02*
X17398277Y-11892460D01*
X17398277Y-11892460D02*
X17388753Y-11873412D01*
X17388753Y-11873412D02*
X17388753Y-11797222D01*
X17388753Y-11797222D02*
X17398277Y-11778174D01*
X17398277Y-11778174D02*
X17417325Y-11768650D01*
X17417325Y-11768650D02*
X17455420Y-11768650D01*
X17455420Y-11768650D02*
X17474468Y-11778174D01*
X17474468Y-11778174D02*
X17483992Y-11797222D01*
X17483992Y-11797222D02*
X17483992Y-11816269D01*
X17483992Y-11816269D02*
X17388753Y-11835317D01*
X17560182Y-11892460D02*
X17579230Y-11901984D01*
X17579230Y-11901984D02*
X17617325Y-11901984D01*
X17617325Y-11901984D02*
X17636373Y-11892460D01*
X17636373Y-11892460D02*
X17645896Y-11873412D01*
X17645896Y-11873412D02*
X17645896Y-11863888D01*
X17645896Y-11863888D02*
X17636373Y-11844841D01*
X17636373Y-11844841D02*
X17617325Y-11835317D01*
X17617325Y-11835317D02*
X17588753Y-11835317D01*
X17588753Y-11835317D02*
X17569706Y-11825793D01*
X17569706Y-11825793D02*
X17560182Y-11806746D01*
X17560182Y-11806746D02*
X17560182Y-11797222D01*
X17560182Y-11797222D02*
X17569706Y-11778174D01*
X17569706Y-11778174D02*
X17588753Y-11768650D01*
X17588753Y-11768650D02*
X17617325Y-11768650D01*
X17617325Y-11768650D02*
X17636373Y-11778174D01*
X17712563Y-11978174D02*
X17722087Y-11968650D01*
X17722087Y-11968650D02*
X17741134Y-11940079D01*
X17741134Y-11940079D02*
X17750658Y-11921031D01*
X17750658Y-11921031D02*
X17760182Y-11892460D01*
X17760182Y-11892460D02*
X17769706Y-11844841D01*
X17769706Y-11844841D02*
X17769706Y-11806746D01*
X17769706Y-11806746D02*
X17760182Y-11759127D01*
X17760182Y-11759127D02*
X17750658Y-11730555D01*
X17750658Y-11730555D02*
X17741134Y-11711508D01*
X17741134Y-11711508D02*
X17722087Y-11682936D01*
X17722087Y-11682936D02*
X17712563Y-11673412D01*
X18074468Y-11978174D02*
X18064944Y-11968650D01*
X18064944Y-11968650D02*
X18045896Y-11940079D01*
X18045896Y-11940079D02*
X18036373Y-11921031D01*
X18036373Y-11921031D02*
X18026849Y-11892460D01*
X18026849Y-11892460D02*
X18017325Y-11844841D01*
X18017325Y-11844841D02*
X18017325Y-11806746D01*
X18017325Y-11806746D02*
X18026849Y-11759127D01*
X18026849Y-11759127D02*
X18036373Y-11730555D01*
X18036373Y-11730555D02*
X18045896Y-11711508D01*
X18045896Y-11711508D02*
X18064944Y-11682936D01*
X18064944Y-11682936D02*
X18074468Y-11673412D01*
X18150658Y-11768650D02*
X18150658Y-11901984D01*
X18150658Y-11787698D02*
X18160182Y-11778174D01*
X18160182Y-11778174D02*
X18179230Y-11768650D01*
X18179230Y-11768650D02*
X18207801Y-11768650D01*
X18207801Y-11768650D02*
X18226849Y-11778174D01*
X18226849Y-11778174D02*
X18236373Y-11797222D01*
X18236373Y-11797222D02*
X18236373Y-11901984D01*
X18360182Y-11901984D02*
X18341134Y-11892460D01*
X18341134Y-11892460D02*
X18331611Y-11882936D01*
X18331611Y-11882936D02*
X18322087Y-11863888D01*
X18322087Y-11863888D02*
X18322087Y-11806746D01*
X18322087Y-11806746D02*
X18331611Y-11787698D01*
X18331611Y-11787698D02*
X18341134Y-11778174D01*
X18341134Y-11778174D02*
X18360182Y-11768650D01*
X18360182Y-11768650D02*
X18388754Y-11768650D01*
X18388754Y-11768650D02*
X18407801Y-11778174D01*
X18407801Y-11778174D02*
X18417325Y-11787698D01*
X18417325Y-11787698D02*
X18426849Y-11806746D01*
X18426849Y-11806746D02*
X18426849Y-11863888D01*
X18426849Y-11863888D02*
X18417325Y-11882936D01*
X18417325Y-11882936D02*
X18407801Y-11892460D01*
X18407801Y-11892460D02*
X18388754Y-11901984D01*
X18388754Y-11901984D02*
X18360182Y-11901984D01*
X18483992Y-11768650D02*
X18560182Y-11768650D01*
X18512563Y-11701984D02*
X18512563Y-11873412D01*
X18512563Y-11873412D02*
X18522087Y-11892460D01*
X18522087Y-11892460D02*
X18541134Y-11901984D01*
X18541134Y-11901984D02*
X18560182Y-11901984D01*
X18779230Y-11768650D02*
X18779230Y-11968650D01*
X18779230Y-11778174D02*
X18798277Y-11768650D01*
X18798277Y-11768650D02*
X18836373Y-11768650D01*
X18836373Y-11768650D02*
X18855420Y-11778174D01*
X18855420Y-11778174D02*
X18864944Y-11787698D01*
X18864944Y-11787698D02*
X18874468Y-11806746D01*
X18874468Y-11806746D02*
X18874468Y-11863888D01*
X18874468Y-11863888D02*
X18864944Y-11882936D01*
X18864944Y-11882936D02*
X18855420Y-11892460D01*
X18855420Y-11892460D02*
X18836373Y-11901984D01*
X18836373Y-11901984D02*
X18798277Y-11901984D01*
X18798277Y-11901984D02*
X18779230Y-11892460D01*
X18988754Y-11901984D02*
X18969706Y-11892460D01*
X18969706Y-11892460D02*
X18960182Y-11873412D01*
X18960182Y-11873412D02*
X18960182Y-11701984D01*
X19150658Y-11901984D02*
X19150658Y-11797222D01*
X19150658Y-11797222D02*
X19141135Y-11778174D01*
X19141135Y-11778174D02*
X19122087Y-11768650D01*
X19122087Y-11768650D02*
X19083992Y-11768650D01*
X19083992Y-11768650D02*
X19064944Y-11778174D01*
X19150658Y-11892460D02*
X19131611Y-11901984D01*
X19131611Y-11901984D02*
X19083992Y-11901984D01*
X19083992Y-11901984D02*
X19064944Y-11892460D01*
X19064944Y-11892460D02*
X19055420Y-11873412D01*
X19055420Y-11873412D02*
X19055420Y-11854365D01*
X19055420Y-11854365D02*
X19064944Y-11835317D01*
X19064944Y-11835317D02*
X19083992Y-11825793D01*
X19083992Y-11825793D02*
X19131611Y-11825793D01*
X19131611Y-11825793D02*
X19150658Y-11816269D01*
X19217325Y-11768650D02*
X19293515Y-11768650D01*
X19245896Y-11701984D02*
X19245896Y-11873412D01*
X19245896Y-11873412D02*
X19255420Y-11892460D01*
X19255420Y-11892460D02*
X19274468Y-11901984D01*
X19274468Y-11901984D02*
X19293515Y-11901984D01*
X19436373Y-11892460D02*
X19417325Y-11901984D01*
X19417325Y-11901984D02*
X19379230Y-11901984D01*
X19379230Y-11901984D02*
X19360182Y-11892460D01*
X19360182Y-11892460D02*
X19350658Y-11873412D01*
X19350658Y-11873412D02*
X19350658Y-11797222D01*
X19350658Y-11797222D02*
X19360182Y-11778174D01*
X19360182Y-11778174D02*
X19379230Y-11768650D01*
X19379230Y-11768650D02*
X19417325Y-11768650D01*
X19417325Y-11768650D02*
X19436373Y-11778174D01*
X19436373Y-11778174D02*
X19445896Y-11797222D01*
X19445896Y-11797222D02*
X19445896Y-11816269D01*
X19445896Y-11816269D02*
X19350658Y-11835317D01*
X19617325Y-11901984D02*
X19617325Y-11701984D01*
X19617325Y-11892460D02*
X19598277Y-11901984D01*
X19598277Y-11901984D02*
X19560182Y-11901984D01*
X19560182Y-11901984D02*
X19541135Y-11892460D01*
X19541135Y-11892460D02*
X19531611Y-11882936D01*
X19531611Y-11882936D02*
X19522087Y-11863888D01*
X19522087Y-11863888D02*
X19522087Y-11806746D01*
X19522087Y-11806746D02*
X19531611Y-11787698D01*
X19531611Y-11787698D02*
X19541135Y-11778174D01*
X19541135Y-11778174D02*
X19560182Y-11768650D01*
X19560182Y-11768650D02*
X19598277Y-11768650D01*
X19598277Y-11768650D02*
X19617325Y-11778174D01*
X19693516Y-11978174D02*
X19703039Y-11968650D01*
X19703039Y-11968650D02*
X19722087Y-11940079D01*
X19722087Y-11940079D02*
X19731611Y-11921031D01*
X19731611Y-11921031D02*
X19741135Y-11892460D01*
X19741135Y-11892460D02*
X19750658Y-11844841D01*
X19750658Y-11844841D02*
X19750658Y-11806746D01*
X19750658Y-11806746D02*
X19741135Y-11759127D01*
X19741135Y-11759127D02*
X19731611Y-11730555D01*
X19731611Y-11730555D02*
X19722087Y-11711508D01*
X19722087Y-11711508D02*
X19703039Y-11682936D01*
X19703039Y-11682936D02*
X19693516Y-11673412D01*
M02*
