G04 #@! TF.GenerationSoftware,KiCad,Pcbnew,8.0.0*
G04 #@! TF.CreationDate,2024-12-24T11:36:35-06:00*
G04 #@! TF.ProjectId,Rain and Switches Control Board,5261696e-2061-46e6-9420-537769746368,rev?*
G04 #@! TF.SameCoordinates,Original*
G04 #@! TF.FileFunction,Copper,L2,Bot*
G04 #@! TF.FilePolarity,Positive*
%FSLAX46Y46*%
G04 Gerber Fmt 4.6, Leading zero omitted, Abs format (unit mm)*
G04 Created by KiCad (PCBNEW 8.0.0) date 2024-12-24 11:36:35*
%MOMM*%
%LPD*%
G01*
G04 APERTURE LIST*
G04 Aperture macros list*
%AMRoundRect*
0 Rectangle with rounded corners*
0 $1 Rounding radius*
0 $2 $3 $4 $5 $6 $7 $8 $9 X,Y pos of 4 corners*
0 Add a 4 corners polygon primitive as box body*
4,1,4,$2,$3,$4,$5,$6,$7,$8,$9,$2,$3,0*
0 Add four circle primitives for the rounded corners*
1,1,$1+$1,$2,$3*
1,1,$1+$1,$4,$5*
1,1,$1+$1,$6,$7*
1,1,$1+$1,$8,$9*
0 Add four rect primitives between the rounded corners*
20,1,$1+$1,$2,$3,$4,$5,0*
20,1,$1+$1,$4,$5,$6,$7,0*
20,1,$1+$1,$6,$7,$8,$9,0*
20,1,$1+$1,$8,$9,$2,$3,0*%
G04 Aperture macros list end*
G04 #@! TA.AperFunction,ComponentPad*
%ADD10R,1.800000X1.800000*%
G04 #@! TD*
G04 #@! TA.AperFunction,ComponentPad*
%ADD11C,1.800000*%
G04 #@! TD*
G04 #@! TA.AperFunction,ComponentPad*
%ADD12O,3.960000X1.980000*%
G04 #@! TD*
G04 #@! TA.AperFunction,ComponentPad*
%ADD13R,3.960000X1.980000*%
G04 #@! TD*
G04 #@! TA.AperFunction,ComponentPad*
%ADD14O,1.980000X3.960000*%
G04 #@! TD*
G04 #@! TA.AperFunction,ComponentPad*
%ADD15R,1.980000X3.960000*%
G04 #@! TD*
G04 #@! TA.AperFunction,ComponentPad*
%ADD16R,1.500000X1.500000*%
G04 #@! TD*
G04 #@! TA.AperFunction,ComponentPad*
%ADD17C,1.500000*%
G04 #@! TD*
G04 #@! TA.AperFunction,ComponentPad*
%ADD18C,3.000000*%
G04 #@! TD*
G04 #@! TA.AperFunction,ComponentPad*
%ADD19C,1.300000*%
G04 #@! TD*
G04 #@! TA.AperFunction,ComponentPad*
%ADD20R,1.300000X1.300000*%
G04 #@! TD*
G04 #@! TA.AperFunction,ComponentPad*
%ADD21O,3.600000X1.800000*%
G04 #@! TD*
G04 #@! TA.AperFunction,ComponentPad*
%ADD22RoundRect,0.250000X-1.550000X0.650000X-1.550000X-0.650000X1.550000X-0.650000X1.550000X0.650000X0*%
G04 #@! TD*
G04 #@! TA.AperFunction,ComponentPad*
%ADD23R,3.000000X1.500000*%
G04 #@! TD*
G04 #@! TA.AperFunction,ComponentPad*
%ADD24O,3.000000X1.500000*%
G04 #@! TD*
G04 #@! TA.AperFunction,ComponentPad*
%ADD25C,1.265000*%
G04 #@! TD*
G04 #@! TA.AperFunction,ViaPad*
%ADD26C,0.600000*%
G04 #@! TD*
G04 #@! TA.AperFunction,Conductor*
%ADD27C,0.200000*%
G04 #@! TD*
G04 #@! TA.AperFunction,Conductor*
%ADD28C,0.762000*%
G04 #@! TD*
G04 #@! TA.AperFunction,Conductor*
%ADD29C,2.032000*%
G04 #@! TD*
G04 APERTURE END LIST*
D10*
X186096000Y-42028800D03*
D11*
X186096000Y-44568800D03*
X186096000Y-47108800D03*
D12*
X135946000Y-104978800D03*
D13*
X135946000Y-99978800D03*
X135946000Y-88523800D03*
D12*
X135946000Y-93523800D03*
D14*
X188978800Y-99692800D03*
D15*
X183978800Y-99692800D03*
D16*
X200296000Y-83793800D03*
D17*
X197756000Y-82523800D03*
X200296000Y-81253800D03*
X197756000Y-79983800D03*
X200296000Y-78713800D03*
X197756000Y-77443800D03*
X200296000Y-76173800D03*
X197756000Y-74903800D03*
D18*
X209696000Y-87118800D03*
X209696000Y-71578800D03*
D10*
X156506000Y-41578800D03*
D11*
X159046000Y-41578800D03*
D19*
X152446000Y-68366300D03*
X153716000Y-67096300D03*
D20*
X152446000Y-65826300D03*
X152446000Y-60326300D03*
D19*
X153716000Y-61596300D03*
X152446000Y-62866300D03*
D21*
X137607192Y-60120800D03*
X137607192Y-56620800D03*
X137607192Y-53120800D03*
X137607192Y-49620800D03*
X137607192Y-46120800D03*
D22*
X137607192Y-42620800D03*
D23*
X209996000Y-42028800D03*
X201796000Y-42028800D03*
D24*
X209996000Y-47028800D03*
X201796000Y-47028800D03*
D14*
X166178800Y-99692800D03*
D15*
X161178800Y-99692800D03*
D20*
X152446000Y-76826300D03*
D19*
X153716000Y-78096300D03*
X152446000Y-79366300D03*
D20*
X152446000Y-71326300D03*
D19*
X153716000Y-72596300D03*
X152446000Y-73866300D03*
D20*
X152426000Y-82346300D03*
D19*
X153696000Y-83616300D03*
X152426000Y-84886300D03*
D16*
X200296000Y-64138800D03*
D17*
X197756000Y-62868800D03*
X200296000Y-61598800D03*
X197756000Y-60328800D03*
X200296000Y-59058800D03*
X197756000Y-57788800D03*
X200296000Y-56518800D03*
X197756000Y-55248800D03*
D18*
X209696000Y-67463800D03*
X209696000Y-51923800D03*
D25*
X162906000Y-40878800D03*
X162906000Y-43418800D03*
X162906000Y-45958800D03*
X162906000Y-48498800D03*
X162906000Y-51038800D03*
X162906000Y-53578800D03*
X162906000Y-56118800D03*
X162906000Y-58658800D03*
X162906000Y-61198800D03*
X162906000Y-63738800D03*
X162906000Y-66278800D03*
X162906000Y-68818800D03*
X162906000Y-71358800D03*
X162906000Y-73898800D03*
X165446000Y-73898800D03*
X167986000Y-73898800D03*
X170526000Y-73898800D03*
X173066000Y-73898800D03*
X175606000Y-73898800D03*
X178146000Y-73898800D03*
X178146000Y-71358800D03*
X178146000Y-68818800D03*
X178146000Y-66278800D03*
X178146000Y-63738800D03*
X178146000Y-61198800D03*
X178146000Y-58658800D03*
X178146000Y-56118800D03*
X178146000Y-53578800D03*
X178146000Y-51038800D03*
X178146000Y-48498800D03*
X178146000Y-45958800D03*
X178146000Y-43418800D03*
X178146000Y-40878800D03*
D14*
X211618800Y-99692800D03*
D15*
X206618800Y-99692800D03*
D14*
X200318800Y-99692800D03*
D15*
X195318800Y-99692800D03*
D14*
X177598800Y-99692800D03*
D15*
X172598800Y-99692800D03*
D26*
X188346000Y-74878800D03*
X158346000Y-86791300D03*
X158196000Y-81241300D03*
X158158500Y-75753800D03*
X158046000Y-70241300D03*
X158046000Y-64641300D03*
X193446000Y-81378800D03*
X182646000Y-73428800D03*
X181346000Y-84178800D03*
X184096000Y-58428800D03*
X187946000Y-51478800D03*
X190446000Y-58428800D03*
D27*
X163838500Y-88286300D02*
X161946000Y-90178800D01*
X163838500Y-70426300D02*
X163838500Y-88286300D01*
X161946000Y-90178800D02*
X139291000Y-90178800D01*
X139291000Y-90178800D02*
X135946000Y-93523800D01*
X178146000Y-56118800D02*
X163838500Y-70426300D01*
X150596000Y-104978800D02*
X135946000Y-104978800D01*
X164513500Y-91061300D02*
X150596000Y-104978800D01*
X164513500Y-72291300D02*
X164513500Y-91061300D01*
X178146000Y-58658800D02*
X164513500Y-72291300D01*
X169196000Y-91290000D02*
X177598800Y-99692800D01*
X169196000Y-72688800D02*
X169196000Y-91290000D01*
X178146000Y-63738800D02*
X169196000Y-72688800D01*
X166796000Y-99075600D02*
X166178800Y-99692800D01*
X166796000Y-72548800D02*
X166796000Y-99075600D01*
X178146000Y-61198800D02*
X166796000Y-72548800D01*
X189896000Y-94078800D02*
X206004800Y-94078800D01*
X179996000Y-84178800D02*
X189896000Y-94078800D01*
X179996000Y-73208800D02*
X179996000Y-84178800D01*
X206004800Y-94078800D02*
X211618800Y-99692800D01*
X178146000Y-71358800D02*
X179996000Y-73208800D01*
X177146000Y-69818800D02*
X178146000Y-68818800D01*
X177146000Y-82478800D02*
X177146000Y-69818800D01*
X195354800Y-94728800D02*
X189396000Y-94728800D01*
X200318800Y-99692800D02*
X195354800Y-94728800D01*
X189396000Y-94728800D02*
X177146000Y-82478800D01*
X174296000Y-80778800D02*
X188978800Y-95461600D01*
X174296000Y-70128800D02*
X174296000Y-80778800D01*
X188978800Y-95461600D02*
X188978800Y-99692800D01*
X178146000Y-66278800D02*
X174296000Y-70128800D01*
X159996000Y-85141300D02*
X158346000Y-86791300D01*
X159996000Y-71728800D02*
X159996000Y-85141300D01*
X162906000Y-68818800D02*
X159996000Y-71728800D01*
X159296000Y-69888800D02*
X162906000Y-66278800D01*
X159296000Y-80141300D02*
X159296000Y-69888800D01*
X158196000Y-81241300D02*
X159296000Y-80141300D01*
X158646000Y-67998800D02*
X162906000Y-63738800D01*
X158646000Y-75266300D02*
X158646000Y-67998800D01*
X158158500Y-75753800D02*
X158646000Y-75266300D01*
X158046000Y-66058800D02*
X162906000Y-61198800D01*
X158046000Y-70241300D02*
X158046000Y-66058800D01*
X158046000Y-63518800D02*
X162906000Y-58658800D01*
X158046000Y-64641300D02*
X158046000Y-63518800D01*
X196281000Y-73428800D02*
X197756000Y-74903800D01*
X182646000Y-73428800D02*
X196281000Y-73428800D01*
X196101000Y-84178800D02*
X197756000Y-82523800D01*
X181346000Y-84178800D02*
X196101000Y-84178800D01*
X184096000Y-51908800D02*
X178146000Y-45958800D01*
X184096000Y-58428800D02*
X184096000Y-51908800D01*
D28*
X179296000Y-44568800D02*
X186096000Y-44568800D01*
X178146000Y-43418800D02*
X179296000Y-44568800D01*
D29*
X199336000Y-44568800D02*
X201796000Y-47028800D01*
X186096000Y-44568800D02*
X199336000Y-44568800D01*
X209996000Y-47028800D02*
X201796000Y-47028800D01*
G04 #@! TA.AperFunction,Conductor*
G36*
X162384924Y-39660185D02*
G01*
X162430679Y-39712989D01*
X162440623Y-39782147D01*
X162411598Y-39845703D01*
X162383162Y-39869927D01*
X162220291Y-39970771D01*
X162220289Y-39970773D01*
X162065117Y-40112230D01*
X161938577Y-40279796D01*
X161844987Y-40467749D01*
X161844982Y-40467762D01*
X161787519Y-40669720D01*
X161768146Y-40878799D01*
X161768146Y-40878800D01*
X161787519Y-41087879D01*
X161844982Y-41289837D01*
X161844987Y-41289850D01*
X161938577Y-41477803D01*
X162065117Y-41645369D01*
X162220289Y-41786826D01*
X162220291Y-41786828D01*
X162398811Y-41897363D01*
X162398812Y-41897363D01*
X162398815Y-41897365D01*
X162594611Y-41973217D01*
X162801012Y-42011800D01*
X162801014Y-42011800D01*
X163010986Y-42011800D01*
X163010988Y-42011800D01*
X163217389Y-41973217D01*
X163413185Y-41897365D01*
X163591710Y-41786827D01*
X163746884Y-41645367D01*
X163873423Y-41477803D01*
X163967017Y-41289840D01*
X164024480Y-41087880D01*
X164043854Y-40878800D01*
X164024480Y-40669720D01*
X163967017Y-40467760D01*
X163934439Y-40402335D01*
X163894243Y-40321609D01*
X163873423Y-40279797D01*
X163746884Y-40112233D01*
X163746882Y-40112230D01*
X163591710Y-39970773D01*
X163591708Y-39970771D01*
X163428838Y-39869927D01*
X163382202Y-39817899D01*
X163371098Y-39748918D01*
X163399051Y-39684883D01*
X163457186Y-39646127D01*
X163494115Y-39640500D01*
X177557885Y-39640500D01*
X177624924Y-39660185D01*
X177670679Y-39712989D01*
X177680623Y-39782147D01*
X177651598Y-39845703D01*
X177623162Y-39869927D01*
X177460291Y-39970771D01*
X177460289Y-39970773D01*
X177305117Y-40112230D01*
X177178577Y-40279796D01*
X177084987Y-40467749D01*
X177084982Y-40467762D01*
X177027519Y-40669720D01*
X177008146Y-40878799D01*
X177008146Y-40878800D01*
X177027519Y-41087879D01*
X177084982Y-41289837D01*
X177084987Y-41289850D01*
X177178577Y-41477803D01*
X177305117Y-41645369D01*
X177460289Y-41786826D01*
X177460291Y-41786828D01*
X177638811Y-41897363D01*
X177638812Y-41897363D01*
X177638815Y-41897365D01*
X177834611Y-41973217D01*
X178041012Y-42011800D01*
X178041014Y-42011800D01*
X178250986Y-42011800D01*
X178250988Y-42011800D01*
X178457389Y-41973217D01*
X178653185Y-41897365D01*
X178831710Y-41786827D01*
X178986884Y-41645367D01*
X179113423Y-41477803D01*
X179207017Y-41289840D01*
X179264480Y-41087880D01*
X179283854Y-40878800D01*
X179264480Y-40669720D01*
X179207017Y-40467760D01*
X179174439Y-40402335D01*
X179134243Y-40321609D01*
X179113423Y-40279797D01*
X178986884Y-40112233D01*
X178986882Y-40112230D01*
X178831710Y-39970773D01*
X178831708Y-39970771D01*
X178668838Y-39869927D01*
X178622202Y-39817899D01*
X178611098Y-39748918D01*
X178639051Y-39684883D01*
X178697186Y-39646127D01*
X178734115Y-39640500D01*
X214753100Y-39640500D01*
X214820139Y-39660185D01*
X214865894Y-39712989D01*
X214877100Y-39764500D01*
X214877100Y-107855500D01*
X214857415Y-107922539D01*
X214804611Y-107968294D01*
X214753100Y-107979500D01*
X130024500Y-107979500D01*
X129957461Y-107959815D01*
X129911706Y-107907011D01*
X129900500Y-107855500D01*
X129900500Y-105096104D01*
X133465500Y-105096104D01*
X133502201Y-105327827D01*
X133574697Y-105550950D01*
X133681212Y-105759995D01*
X133819104Y-105949789D01*
X133819108Y-105949794D01*
X133985005Y-106115691D01*
X133985010Y-106115695D01*
X134150558Y-106235971D01*
X134174808Y-106253590D01*
X134383847Y-106360101D01*
X134383849Y-106360102D01*
X134495410Y-106396350D01*
X134606974Y-106432599D01*
X134838695Y-106469300D01*
X134838696Y-106469300D01*
X137053304Y-106469300D01*
X137053305Y-106469300D01*
X137285026Y-106432599D01*
X137508153Y-106360101D01*
X137717192Y-106253590D01*
X137906996Y-106115690D01*
X138072890Y-105949796D01*
X138210790Y-105759992D01*
X138268360Y-105647005D01*
X138316335Y-105596209D01*
X138378845Y-105579300D01*
X150509331Y-105579300D01*
X150509347Y-105579301D01*
X150516943Y-105579301D01*
X150675054Y-105579301D01*
X150675057Y-105579301D01*
X150827785Y-105538377D01*
X150877904Y-105509439D01*
X150964716Y-105459320D01*
X151076520Y-105347516D01*
X151076520Y-105347514D01*
X151086728Y-105337307D01*
X151086730Y-105337304D01*
X155741234Y-100682800D01*
X159688800Y-100682800D01*
X159688800Y-101720644D01*
X159695201Y-101780172D01*
X159695203Y-101780179D01*
X159745445Y-101914886D01*
X159745449Y-101914893D01*
X159831609Y-102029987D01*
X159831612Y-102029990D01*
X159946706Y-102116150D01*
X159946713Y-102116154D01*
X160081420Y-102166396D01*
X160081427Y-102166398D01*
X160140955Y-102172799D01*
X160140972Y-102172800D01*
X160188800Y-102172800D01*
X160188800Y-100682800D01*
X162168800Y-100682800D01*
X162168800Y-102172800D01*
X162216628Y-102172800D01*
X162216644Y-102172799D01*
X162276172Y-102166398D01*
X162276179Y-102166396D01*
X162410886Y-102116154D01*
X162410893Y-102116150D01*
X162525987Y-102029990D01*
X162525990Y-102029987D01*
X162612150Y-101914893D01*
X162612154Y-101914886D01*
X162662396Y-101780179D01*
X162662398Y-101780172D01*
X162668799Y-101720644D01*
X162668800Y-101720627D01*
X162668800Y-100682800D01*
X162168800Y-100682800D01*
X160188800Y-100682800D01*
X159688800Y-100682800D01*
X155741234Y-100682800D01*
X156666230Y-99757804D01*
X160518800Y-99757804D01*
X160544164Y-99885315D01*
X160593916Y-100005427D01*
X160666145Y-100113525D01*
X160758075Y-100205455D01*
X160866173Y-100277684D01*
X160986285Y-100327436D01*
X161113796Y-100352800D01*
X161243804Y-100352800D01*
X161371315Y-100327436D01*
X161491427Y-100277684D01*
X161599525Y-100205455D01*
X161691455Y-100113525D01*
X161763684Y-100005427D01*
X161813436Y-99885315D01*
X161838800Y-99757804D01*
X161838800Y-99627796D01*
X161813436Y-99500285D01*
X161763684Y-99380173D01*
X161691455Y-99272075D01*
X161599525Y-99180145D01*
X161491427Y-99107916D01*
X161371315Y-99058164D01*
X161243804Y-99032800D01*
X161113796Y-99032800D01*
X160986285Y-99058164D01*
X160866173Y-99107916D01*
X160758075Y-99180145D01*
X160666145Y-99272075D01*
X160593916Y-99380173D01*
X160544164Y-99500285D01*
X160518800Y-99627796D01*
X160518800Y-99757804D01*
X156666230Y-99757804D01*
X157721234Y-98702800D01*
X159688800Y-98702800D01*
X160188800Y-98702800D01*
X160188800Y-97212800D01*
X162168800Y-97212800D01*
X162168800Y-98702800D01*
X162668800Y-98702800D01*
X162668800Y-97664972D01*
X162668799Y-97664955D01*
X162662398Y-97605427D01*
X162662396Y-97605420D01*
X162612154Y-97470713D01*
X162612150Y-97470706D01*
X162525990Y-97355612D01*
X162525987Y-97355609D01*
X162410893Y-97269449D01*
X162410886Y-97269445D01*
X162276179Y-97219203D01*
X162276172Y-97219201D01*
X162216644Y-97212800D01*
X162168800Y-97212800D01*
X160188800Y-97212800D01*
X160140955Y-97212800D01*
X160081427Y-97219201D01*
X160081420Y-97219203D01*
X159946713Y-97269445D01*
X159946706Y-97269449D01*
X159831612Y-97355609D01*
X159831609Y-97355612D01*
X159745449Y-97470706D01*
X159745445Y-97470713D01*
X159695203Y-97605420D01*
X159695201Y-97605427D01*
X159688800Y-97664955D01*
X159688800Y-98702800D01*
X157721234Y-98702800D01*
X164882213Y-91541821D01*
X164882216Y-91541820D01*
X164994020Y-91430016D01*
X165044139Y-91343204D01*
X165073077Y-91293085D01*
X165114000Y-91140358D01*
X165114000Y-90982243D01*
X165114000Y-75138691D01*
X165133685Y-75071652D01*
X165186489Y-75025897D01*
X165255647Y-75015953D01*
X165260731Y-75016793D01*
X165341012Y-75031800D01*
X165341015Y-75031800D01*
X165550986Y-75031800D01*
X165550988Y-75031800D01*
X165757389Y-74993217D01*
X165953185Y-74917365D01*
X166006224Y-74884524D01*
X166073582Y-74865969D01*
X166140282Y-74886777D01*
X166185144Y-74940342D01*
X166195500Y-74989952D01*
X166195500Y-97088300D01*
X166175815Y-97155339D01*
X166123011Y-97201094D01*
X166071500Y-97212300D01*
X166061495Y-97212300D01*
X165984254Y-97224533D01*
X165829772Y-97249001D01*
X165606649Y-97321497D01*
X165397604Y-97428012D01*
X165207810Y-97565904D01*
X165207805Y-97565908D01*
X165041908Y-97731805D01*
X165041904Y-97731810D01*
X164904012Y-97921604D01*
X164797497Y-98130649D01*
X164725001Y-98353772D01*
X164688300Y-98585495D01*
X164688300Y-100800104D01*
X164725001Y-101031827D01*
X164797497Y-101254950D01*
X164904012Y-101463995D01*
X165041904Y-101653789D01*
X165041908Y-101653794D01*
X165207805Y-101819691D01*
X165207810Y-101819695D01*
X165338831Y-101914886D01*
X165397608Y-101957590D01*
X165539695Y-102029987D01*
X165606649Y-102064102D01*
X165718210Y-102100350D01*
X165829774Y-102136599D01*
X166061495Y-102173300D01*
X166061496Y-102173300D01*
X166296104Y-102173300D01*
X166296105Y-102173300D01*
X166527826Y-102136599D01*
X166750953Y-102064101D01*
X166959992Y-101957590D01*
X167149796Y-101819690D01*
X167315690Y-101653796D01*
X167453590Y-101463992D01*
X167560101Y-101254953D01*
X167632599Y-101031826D01*
X167669300Y-100800105D01*
X167669300Y-100682800D01*
X171108800Y-100682800D01*
X171108800Y-101720644D01*
X171115201Y-101780172D01*
X171115203Y-101780179D01*
X171165445Y-101914886D01*
X171165449Y-101914893D01*
X171251609Y-102029987D01*
X171251612Y-102029990D01*
X171366706Y-102116150D01*
X171366713Y-102116154D01*
X171501420Y-102166396D01*
X171501427Y-102166398D01*
X171560955Y-102172799D01*
X171560972Y-102172800D01*
X171608800Y-102172800D01*
X171608800Y-100682800D01*
X173588800Y-100682800D01*
X173588800Y-102172800D01*
X173636628Y-102172800D01*
X173636644Y-102172799D01*
X173696172Y-102166398D01*
X173696179Y-102166396D01*
X173830886Y-102116154D01*
X173830893Y-102116150D01*
X173945987Y-102029990D01*
X173945990Y-102029987D01*
X174032150Y-101914893D01*
X174032154Y-101914886D01*
X174082396Y-101780179D01*
X174082398Y-101780172D01*
X174088799Y-101720644D01*
X174088800Y-101720627D01*
X174088800Y-100682800D01*
X173588800Y-100682800D01*
X171608800Y-100682800D01*
X171108800Y-100682800D01*
X167669300Y-100682800D01*
X167669300Y-99757804D01*
X171938800Y-99757804D01*
X171964164Y-99885315D01*
X172013916Y-100005427D01*
X172086145Y-100113525D01*
X172178075Y-100205455D01*
X172286173Y-100277684D01*
X172406285Y-100327436D01*
X172533796Y-100352800D01*
X172663804Y-100352800D01*
X172791315Y-100327436D01*
X172911427Y-100277684D01*
X173019525Y-100205455D01*
X173111455Y-100113525D01*
X173183684Y-100005427D01*
X173233436Y-99885315D01*
X173258800Y-99757804D01*
X173258800Y-99627796D01*
X173233436Y-99500285D01*
X173183684Y-99380173D01*
X173111455Y-99272075D01*
X173019525Y-99180145D01*
X172911427Y-99107916D01*
X172791315Y-99058164D01*
X172663804Y-99032800D01*
X172533796Y-99032800D01*
X172406285Y-99058164D01*
X172286173Y-99107916D01*
X172178075Y-99180145D01*
X172086145Y-99272075D01*
X172013916Y-99380173D01*
X171964164Y-99500285D01*
X171938800Y-99627796D01*
X171938800Y-99757804D01*
X167669300Y-99757804D01*
X167669300Y-98702800D01*
X171108800Y-98702800D01*
X171608800Y-98702800D01*
X171608800Y-97212800D01*
X173588800Y-97212800D01*
X173588800Y-98702800D01*
X174088800Y-98702800D01*
X174088800Y-97664972D01*
X174088799Y-97664955D01*
X174082398Y-97605427D01*
X174082396Y-97605420D01*
X174032154Y-97470713D01*
X174032150Y-97470706D01*
X173945990Y-97355612D01*
X173945987Y-97355609D01*
X173830893Y-97269449D01*
X173830886Y-97269445D01*
X173696179Y-97219203D01*
X173696172Y-97219201D01*
X173636644Y-97212800D01*
X173588800Y-97212800D01*
X171608800Y-97212800D01*
X171560955Y-97212800D01*
X171501427Y-97219201D01*
X171501420Y-97219203D01*
X171366713Y-97269445D01*
X171366706Y-97269449D01*
X171251612Y-97355609D01*
X171251609Y-97355612D01*
X171165449Y-97470706D01*
X171165445Y-97470713D01*
X171115203Y-97605420D01*
X171115201Y-97605427D01*
X171108800Y-97664955D01*
X171108800Y-98702800D01*
X167669300Y-98702800D01*
X167669300Y-98585495D01*
X167632599Y-98353774D01*
X167560101Y-98130647D01*
X167453590Y-97921608D01*
X167420181Y-97875623D01*
X167396702Y-97809816D01*
X167396500Y-97802739D01*
X167396500Y-75066493D01*
X167416185Y-74999454D01*
X167468989Y-74953699D01*
X167538147Y-74943755D01*
X167565292Y-74950866D01*
X167674611Y-74993217D01*
X167881012Y-75031800D01*
X167881014Y-75031800D01*
X168090986Y-75031800D01*
X168090988Y-75031800D01*
X168297389Y-74993217D01*
X168426706Y-74943118D01*
X168496329Y-74937256D01*
X168558069Y-74969966D01*
X168592324Y-75030862D01*
X168595500Y-75058745D01*
X168595500Y-91203330D01*
X168595499Y-91203348D01*
X168595499Y-91369054D01*
X168595498Y-91369054D01*
X168636423Y-91521785D01*
X168665358Y-91571900D01*
X168665359Y-91571904D01*
X168665360Y-91571904D01*
X168715479Y-91658714D01*
X168715481Y-91658717D01*
X168834349Y-91777585D01*
X168834355Y-91777590D01*
X176071981Y-99015216D01*
X176105466Y-99076539D01*
X176108300Y-99102897D01*
X176108300Y-100800104D01*
X176145001Y-101031827D01*
X176217497Y-101254950D01*
X176324012Y-101463995D01*
X176461904Y-101653789D01*
X176461908Y-101653794D01*
X176627805Y-101819691D01*
X176627810Y-101819695D01*
X176758831Y-101914886D01*
X176817608Y-101957590D01*
X176959695Y-102029987D01*
X177026649Y-102064102D01*
X177138210Y-102100350D01*
X177249774Y-102136599D01*
X177481495Y-102173300D01*
X177481496Y-102173300D01*
X177716104Y-102173300D01*
X177716105Y-102173300D01*
X177947826Y-102136599D01*
X178170953Y-102064101D01*
X178379992Y-101957590D01*
X178569796Y-101819690D01*
X178735690Y-101653796D01*
X178873590Y-101463992D01*
X178980101Y-101254953D01*
X179052599Y-101031826D01*
X179089300Y-100800105D01*
X179089300Y-100682800D01*
X182488800Y-100682800D01*
X182488800Y-101720644D01*
X182495201Y-101780172D01*
X182495203Y-101780179D01*
X182545445Y-101914886D01*
X182545449Y-101914893D01*
X182631609Y-102029987D01*
X182631612Y-102029990D01*
X182746706Y-102116150D01*
X182746713Y-102116154D01*
X182881420Y-102166396D01*
X182881427Y-102166398D01*
X182940955Y-102172799D01*
X182940972Y-102172800D01*
X182988800Y-102172800D01*
X182988800Y-100682800D01*
X184968800Y-100682800D01*
X184968800Y-102172800D01*
X185016628Y-102172800D01*
X185016644Y-102172799D01*
X185076172Y-102166398D01*
X185076179Y-102166396D01*
X185210886Y-102116154D01*
X185210893Y-102116150D01*
X185325987Y-102029990D01*
X185325990Y-102029987D01*
X185412150Y-101914893D01*
X185412154Y-101914886D01*
X185462396Y-101780179D01*
X185462398Y-101780172D01*
X185468799Y-101720644D01*
X185468800Y-101720627D01*
X185468800Y-100682800D01*
X184968800Y-100682800D01*
X182988800Y-100682800D01*
X182488800Y-100682800D01*
X179089300Y-100682800D01*
X179089300Y-99757804D01*
X183318800Y-99757804D01*
X183344164Y-99885315D01*
X183393916Y-100005427D01*
X183466145Y-100113525D01*
X183558075Y-100205455D01*
X183666173Y-100277684D01*
X183786285Y-100327436D01*
X183913796Y-100352800D01*
X184043804Y-100352800D01*
X184171315Y-100327436D01*
X184291427Y-100277684D01*
X184399525Y-100205455D01*
X184491455Y-100113525D01*
X184563684Y-100005427D01*
X184613436Y-99885315D01*
X184638800Y-99757804D01*
X184638800Y-99627796D01*
X184613436Y-99500285D01*
X184563684Y-99380173D01*
X184491455Y-99272075D01*
X184399525Y-99180145D01*
X184291427Y-99107916D01*
X184171315Y-99058164D01*
X184043804Y-99032800D01*
X183913796Y-99032800D01*
X183786285Y-99058164D01*
X183666173Y-99107916D01*
X183558075Y-99180145D01*
X183466145Y-99272075D01*
X183393916Y-99380173D01*
X183344164Y-99500285D01*
X183318800Y-99627796D01*
X183318800Y-99757804D01*
X179089300Y-99757804D01*
X179089300Y-98702800D01*
X182488800Y-98702800D01*
X182988800Y-98702800D01*
X182988800Y-97212800D01*
X184968800Y-97212800D01*
X184968800Y-98702800D01*
X185468800Y-98702800D01*
X185468800Y-97664972D01*
X185468799Y-97664955D01*
X185462398Y-97605427D01*
X185462396Y-97605420D01*
X185412154Y-97470713D01*
X185412150Y-97470706D01*
X185325990Y-97355612D01*
X185325987Y-97355609D01*
X185210893Y-97269449D01*
X185210886Y-97269445D01*
X185076179Y-97219203D01*
X185076172Y-97219201D01*
X185016644Y-97212800D01*
X184968800Y-97212800D01*
X182988800Y-97212800D01*
X182940955Y-97212800D01*
X182881427Y-97219201D01*
X182881420Y-97219203D01*
X182746713Y-97269445D01*
X182746706Y-97269449D01*
X182631612Y-97355609D01*
X182631609Y-97355612D01*
X182545449Y-97470706D01*
X182545445Y-97470713D01*
X182495203Y-97605420D01*
X182495201Y-97605427D01*
X182488800Y-97664955D01*
X182488800Y-98702800D01*
X179089300Y-98702800D01*
X179089300Y-98585495D01*
X179052599Y-98353774D01*
X178980101Y-98130647D01*
X178873590Y-97921608D01*
X178840180Y-97875623D01*
X178735695Y-97731810D01*
X178735691Y-97731805D01*
X178569794Y-97565908D01*
X178569789Y-97565904D01*
X178379995Y-97428012D01*
X178379994Y-97428011D01*
X178379992Y-97428010D01*
X178267001Y-97370438D01*
X178170950Y-97321497D01*
X177947827Y-97249001D01*
X177831965Y-97230650D01*
X177716105Y-97212300D01*
X177481495Y-97212300D01*
X177404254Y-97224533D01*
X177249772Y-97249001D01*
X177026649Y-97321497D01*
X176817604Y-97428012D01*
X176627807Y-97565906D01*
X176562153Y-97631559D01*
X176500829Y-97665043D01*
X176431138Y-97660057D01*
X176386792Y-97631557D01*
X169832819Y-91077583D01*
X169799334Y-91016260D01*
X169796500Y-90989902D01*
X169796500Y-75002335D01*
X169816185Y-74935296D01*
X169868989Y-74889541D01*
X169938147Y-74879597D01*
X169985775Y-74896907D01*
X170018815Y-74917365D01*
X170214611Y-74993217D01*
X170421012Y-75031800D01*
X170421014Y-75031800D01*
X170630986Y-75031800D01*
X170630988Y-75031800D01*
X170837389Y-74993217D01*
X171033185Y-74917365D01*
X171211710Y-74806827D01*
X171366884Y-74665367D01*
X171493423Y-74497803D01*
X171587017Y-74309840D01*
X171644480Y-74107880D01*
X171663854Y-73898800D01*
X171660842Y-73866300D01*
X171644480Y-73689720D01*
X171595721Y-73518352D01*
X171587017Y-73487760D01*
X171493423Y-73299797D01*
X171366884Y-73132233D01*
X171366882Y-73132230D01*
X171211710Y-72990773D01*
X171211708Y-72990771D01*
X171033185Y-72880235D01*
X171033182Y-72880234D01*
X171018861Y-72874686D01*
X170837389Y-72804383D01*
X170630988Y-72765800D01*
X170421012Y-72765800D01*
X170257750Y-72796318D01*
X170188236Y-72789288D01*
X170133557Y-72745790D01*
X170111075Y-72679636D01*
X170127928Y-72611830D01*
X170147281Y-72586753D01*
X176834351Y-65899682D01*
X176895672Y-65866199D01*
X176965364Y-65871183D01*
X177021297Y-65913055D01*
X177045714Y-65978519D01*
X177041297Y-66021298D01*
X177027519Y-66069722D01*
X177008146Y-66278799D01*
X177008146Y-66278800D01*
X177027251Y-66484980D01*
X177013836Y-66553550D01*
X176991461Y-66584102D01*
X173927286Y-69648278D01*
X173815481Y-69760082D01*
X173815479Y-69760084D01*
X173795328Y-69794988D01*
X173786810Y-69809743D01*
X173736423Y-69897015D01*
X173695499Y-70049743D01*
X173695499Y-70049745D01*
X173695499Y-70217846D01*
X173695500Y-70217859D01*
X173695500Y-72746602D01*
X173675815Y-72813641D01*
X173623011Y-72859396D01*
X173553853Y-72869340D01*
X173526707Y-72862229D01*
X173439123Y-72828299D01*
X173377389Y-72804383D01*
X173170988Y-72765800D01*
X172961012Y-72765800D01*
X172754611Y-72804383D01*
X172662454Y-72840085D01*
X172558817Y-72880234D01*
X172558815Y-72880235D01*
X172380291Y-72990771D01*
X172380289Y-72990773D01*
X172225117Y-73132230D01*
X172098577Y-73299796D01*
X172004987Y-73487749D01*
X172004982Y-73487762D01*
X171947519Y-73689720D01*
X171928146Y-73898799D01*
X171928146Y-73898800D01*
X171947519Y-74107879D01*
X172004982Y-74309837D01*
X172004987Y-74309850D01*
X172098577Y-74497803D01*
X172225117Y-74665369D01*
X172380289Y-74806826D01*
X172380291Y-74806828D01*
X172558811Y-74917363D01*
X172558812Y-74917363D01*
X172558815Y-74917365D01*
X172754611Y-74993217D01*
X172961012Y-75031800D01*
X172961014Y-75031800D01*
X173170986Y-75031800D01*
X173170988Y-75031800D01*
X173377389Y-74993217D01*
X173526706Y-74935370D01*
X173596329Y-74929508D01*
X173658069Y-74962218D01*
X173692324Y-75023114D01*
X173695500Y-75050997D01*
X173695500Y-80692130D01*
X173695499Y-80692148D01*
X173695499Y-80857854D01*
X173695498Y-80857854D01*
X173736423Y-81010585D01*
X173765358Y-81060700D01*
X173765359Y-81060704D01*
X173765360Y-81060704D01*
X173811959Y-81141418D01*
X173815479Y-81147514D01*
X173815481Y-81147517D01*
X173934349Y-81266385D01*
X173934355Y-81266390D01*
X188341981Y-95674016D01*
X188375466Y-95735339D01*
X188378300Y-95761697D01*
X188378300Y-97259954D01*
X188358615Y-97326993D01*
X188310596Y-97370438D01*
X188197606Y-97428010D01*
X188007810Y-97565904D01*
X188007805Y-97565908D01*
X187841908Y-97731805D01*
X187841904Y-97731810D01*
X187704012Y-97921604D01*
X187597497Y-98130649D01*
X187525001Y-98353772D01*
X187488300Y-98585495D01*
X187488300Y-100800104D01*
X187525001Y-101031827D01*
X187597497Y-101254950D01*
X187704012Y-101463995D01*
X187841904Y-101653789D01*
X187841908Y-101653794D01*
X188007805Y-101819691D01*
X188007810Y-101819695D01*
X188138831Y-101914886D01*
X188197608Y-101957590D01*
X188339695Y-102029987D01*
X188406649Y-102064102D01*
X188518210Y-102100350D01*
X188629774Y-102136599D01*
X188861495Y-102173300D01*
X188861496Y-102173300D01*
X189096104Y-102173300D01*
X189096105Y-102173300D01*
X189327826Y-102136599D01*
X189550953Y-102064101D01*
X189759992Y-101957590D01*
X189949796Y-101819690D01*
X190115690Y-101653796D01*
X190253590Y-101463992D01*
X190360101Y-101254953D01*
X190432599Y-101031826D01*
X190469300Y-100800105D01*
X190469300Y-100682800D01*
X193828800Y-100682800D01*
X193828800Y-101720644D01*
X193835201Y-101780172D01*
X193835203Y-101780179D01*
X193885445Y-101914886D01*
X193885449Y-101914893D01*
X193971609Y-102029987D01*
X193971612Y-102029990D01*
X194086706Y-102116150D01*
X194086713Y-102116154D01*
X194221420Y-102166396D01*
X194221427Y-102166398D01*
X194280955Y-102172799D01*
X194280972Y-102172800D01*
X194328800Y-102172800D01*
X194328800Y-100682800D01*
X196308800Y-100682800D01*
X196308800Y-102172800D01*
X196356628Y-102172800D01*
X196356644Y-102172799D01*
X196416172Y-102166398D01*
X196416179Y-102166396D01*
X196550886Y-102116154D01*
X196550893Y-102116150D01*
X196665987Y-102029990D01*
X196665990Y-102029987D01*
X196752150Y-101914893D01*
X196752154Y-101914886D01*
X196802396Y-101780179D01*
X196802398Y-101780172D01*
X196808799Y-101720644D01*
X196808800Y-101720627D01*
X196808800Y-100682800D01*
X196308800Y-100682800D01*
X194328800Y-100682800D01*
X193828800Y-100682800D01*
X190469300Y-100682800D01*
X190469300Y-99757804D01*
X194658800Y-99757804D01*
X194684164Y-99885315D01*
X194733916Y-100005427D01*
X194806145Y-100113525D01*
X194898075Y-100205455D01*
X195006173Y-100277684D01*
X195126285Y-100327436D01*
X195253796Y-100352800D01*
X195383804Y-100352800D01*
X195511315Y-100327436D01*
X195631427Y-100277684D01*
X195739525Y-100205455D01*
X195831455Y-100113525D01*
X195903684Y-100005427D01*
X195953436Y-99885315D01*
X195978800Y-99757804D01*
X195978800Y-99627796D01*
X195953436Y-99500285D01*
X195903684Y-99380173D01*
X195831455Y-99272075D01*
X195739525Y-99180145D01*
X195631427Y-99107916D01*
X195511315Y-99058164D01*
X195383804Y-99032800D01*
X195253796Y-99032800D01*
X195126285Y-99058164D01*
X195006173Y-99107916D01*
X194898075Y-99180145D01*
X194806145Y-99272075D01*
X194733916Y-99380173D01*
X194684164Y-99500285D01*
X194658800Y-99627796D01*
X194658800Y-99757804D01*
X190469300Y-99757804D01*
X190469300Y-98702800D01*
X193828800Y-98702800D01*
X194328800Y-98702800D01*
X194328800Y-97212800D01*
X196308800Y-97212800D01*
X196308800Y-98702800D01*
X196808800Y-98702800D01*
X196808800Y-97664972D01*
X196808799Y-97664955D01*
X196802398Y-97605427D01*
X196802396Y-97605420D01*
X196752154Y-97470713D01*
X196752150Y-97470706D01*
X196665990Y-97355612D01*
X196665987Y-97355609D01*
X196550893Y-97269449D01*
X196550886Y-97269445D01*
X196416179Y-97219203D01*
X196416172Y-97219201D01*
X196356644Y-97212800D01*
X196308800Y-97212800D01*
X194328800Y-97212800D01*
X194280955Y-97212800D01*
X194221427Y-97219201D01*
X194221420Y-97219203D01*
X194086713Y-97269445D01*
X194086706Y-97269449D01*
X193971612Y-97355609D01*
X193971609Y-97355612D01*
X193885449Y-97470706D01*
X193885445Y-97470713D01*
X193835203Y-97605420D01*
X193835201Y-97605427D01*
X193828800Y-97664955D01*
X193828800Y-98702800D01*
X190469300Y-98702800D01*
X190469300Y-98585495D01*
X190432599Y-98353774D01*
X190360101Y-98130647D01*
X190253590Y-97921608D01*
X190220180Y-97875623D01*
X190115695Y-97731810D01*
X190115691Y-97731805D01*
X189949794Y-97565908D01*
X189949789Y-97565904D01*
X189759993Y-97428010D01*
X189647004Y-97370438D01*
X189596209Y-97322463D01*
X189579300Y-97259954D01*
X189579300Y-95550659D01*
X189579301Y-95550646D01*
X189579301Y-95453300D01*
X189598986Y-95386261D01*
X189651790Y-95340506D01*
X189703301Y-95329300D01*
X195054703Y-95329300D01*
X195121742Y-95348985D01*
X195142384Y-95365619D01*
X198791981Y-99015216D01*
X198825466Y-99076539D01*
X198828300Y-99102897D01*
X198828300Y-100800104D01*
X198865001Y-101031827D01*
X198937497Y-101254950D01*
X199044012Y-101463995D01*
X199181904Y-101653789D01*
X199181908Y-101653794D01*
X199347805Y-101819691D01*
X199347810Y-101819695D01*
X199478831Y-101914886D01*
X199537608Y-101957590D01*
X199679695Y-102029987D01*
X199746649Y-102064102D01*
X199858210Y-102100350D01*
X199969774Y-102136599D01*
X200201495Y-102173300D01*
X200201496Y-102173300D01*
X200436104Y-102173300D01*
X200436105Y-102173300D01*
X200667826Y-102136599D01*
X200890953Y-102064101D01*
X201099992Y-101957590D01*
X201289796Y-101819690D01*
X201455690Y-101653796D01*
X201593590Y-101463992D01*
X201700101Y-101254953D01*
X201772599Y-101031826D01*
X201809300Y-100800105D01*
X201809300Y-100682800D01*
X205128800Y-100682800D01*
X205128800Y-101720644D01*
X205135201Y-101780172D01*
X205135203Y-101780179D01*
X205185445Y-101914886D01*
X205185449Y-101914893D01*
X205271609Y-102029987D01*
X205271612Y-102029990D01*
X205386706Y-102116150D01*
X205386713Y-102116154D01*
X205521420Y-102166396D01*
X205521427Y-102166398D01*
X205580955Y-102172799D01*
X205580972Y-102172800D01*
X205628800Y-102172800D01*
X205628800Y-100682800D01*
X207608800Y-100682800D01*
X207608800Y-102172800D01*
X207656628Y-102172800D01*
X207656644Y-102172799D01*
X207716172Y-102166398D01*
X207716179Y-102166396D01*
X207850886Y-102116154D01*
X207850893Y-102116150D01*
X207965987Y-102029990D01*
X207965990Y-102029987D01*
X208052150Y-101914893D01*
X208052154Y-101914886D01*
X208102396Y-101780179D01*
X208102398Y-101780172D01*
X208108799Y-101720644D01*
X208108800Y-101720627D01*
X208108800Y-100682800D01*
X207608800Y-100682800D01*
X205628800Y-100682800D01*
X205128800Y-100682800D01*
X201809300Y-100682800D01*
X201809300Y-99757804D01*
X205958800Y-99757804D01*
X205984164Y-99885315D01*
X206033916Y-100005427D01*
X206106145Y-100113525D01*
X206198075Y-100205455D01*
X206306173Y-100277684D01*
X206426285Y-100327436D01*
X206553796Y-100352800D01*
X206683804Y-100352800D01*
X206811315Y-100327436D01*
X206931427Y-100277684D01*
X207039525Y-100205455D01*
X207131455Y-100113525D01*
X207203684Y-100005427D01*
X207253436Y-99885315D01*
X207278800Y-99757804D01*
X207278800Y-99627796D01*
X207253436Y-99500285D01*
X207203684Y-99380173D01*
X207131455Y-99272075D01*
X207039525Y-99180145D01*
X206931427Y-99107916D01*
X206811315Y-99058164D01*
X206683804Y-99032800D01*
X206553796Y-99032800D01*
X206426285Y-99058164D01*
X206306173Y-99107916D01*
X206198075Y-99180145D01*
X206106145Y-99272075D01*
X206033916Y-99380173D01*
X205984164Y-99500285D01*
X205958800Y-99627796D01*
X205958800Y-99757804D01*
X201809300Y-99757804D01*
X201809300Y-98702800D01*
X205128800Y-98702800D01*
X205628800Y-98702800D01*
X205628800Y-97212800D01*
X207608800Y-97212800D01*
X207608800Y-98702800D01*
X208108800Y-98702800D01*
X208108800Y-97664972D01*
X208108799Y-97664955D01*
X208102398Y-97605427D01*
X208102396Y-97605420D01*
X208052154Y-97470713D01*
X208052150Y-97470706D01*
X207965990Y-97355612D01*
X207965987Y-97355609D01*
X207850893Y-97269449D01*
X207850886Y-97269445D01*
X207716179Y-97219203D01*
X207716172Y-97219201D01*
X207656644Y-97212800D01*
X207608800Y-97212800D01*
X205628800Y-97212800D01*
X205580955Y-97212800D01*
X205521427Y-97219201D01*
X205521420Y-97219203D01*
X205386713Y-97269445D01*
X205386706Y-97269449D01*
X205271612Y-97355609D01*
X205271609Y-97355612D01*
X205185449Y-97470706D01*
X205185445Y-97470713D01*
X205135203Y-97605420D01*
X205135201Y-97605427D01*
X205128800Y-97664955D01*
X205128800Y-98702800D01*
X201809300Y-98702800D01*
X201809300Y-98585495D01*
X201772599Y-98353774D01*
X201700101Y-98130647D01*
X201593590Y-97921608D01*
X201560180Y-97875623D01*
X201455695Y-97731810D01*
X201455691Y-97731805D01*
X201289794Y-97565908D01*
X201289789Y-97565904D01*
X201099995Y-97428012D01*
X201099994Y-97428011D01*
X201099992Y-97428010D01*
X200987001Y-97370438D01*
X200890950Y-97321497D01*
X200667827Y-97249001D01*
X200551965Y-97230650D01*
X200436105Y-97212300D01*
X200201495Y-97212300D01*
X200124254Y-97224533D01*
X199969772Y-97249001D01*
X199746649Y-97321497D01*
X199537604Y-97428012D01*
X199347807Y-97565906D01*
X199282153Y-97631559D01*
X199220829Y-97665043D01*
X199151138Y-97660057D01*
X199106792Y-97631557D01*
X196366216Y-94890981D01*
X196332731Y-94829658D01*
X196337715Y-94759966D01*
X196379587Y-94704033D01*
X196445051Y-94679616D01*
X196453897Y-94679300D01*
X205704703Y-94679300D01*
X205771742Y-94698985D01*
X205792384Y-94715619D01*
X210091981Y-99015216D01*
X210125466Y-99076539D01*
X210128300Y-99102897D01*
X210128300Y-100800104D01*
X210165001Y-101031827D01*
X210237497Y-101254950D01*
X210344012Y-101463995D01*
X210481904Y-101653789D01*
X210481908Y-101653794D01*
X210647805Y-101819691D01*
X210647810Y-101819695D01*
X210778831Y-101914886D01*
X210837608Y-101957590D01*
X210979695Y-102029987D01*
X211046649Y-102064102D01*
X211158210Y-102100350D01*
X211269774Y-102136599D01*
X211501495Y-102173300D01*
X211501496Y-102173300D01*
X211736104Y-102173300D01*
X211736105Y-102173300D01*
X211967826Y-102136599D01*
X212190953Y-102064101D01*
X212399992Y-101957590D01*
X212589796Y-101819690D01*
X212755690Y-101653796D01*
X212893590Y-101463992D01*
X213000101Y-101254953D01*
X213072599Y-101031826D01*
X213109300Y-100800105D01*
X213109300Y-98585495D01*
X213072599Y-98353774D01*
X213000101Y-98130647D01*
X212893590Y-97921608D01*
X212860180Y-97875623D01*
X212755695Y-97731810D01*
X212755691Y-97731805D01*
X212589794Y-97565908D01*
X212589789Y-97565904D01*
X212399995Y-97428012D01*
X212399994Y-97428011D01*
X212399992Y-97428010D01*
X212287001Y-97370438D01*
X212190950Y-97321497D01*
X211967827Y-97249001D01*
X211851965Y-97230650D01*
X211736105Y-97212300D01*
X211501495Y-97212300D01*
X211424254Y-97224533D01*
X211269772Y-97249001D01*
X211046649Y-97321497D01*
X210837604Y-97428012D01*
X210647807Y-97565906D01*
X210582153Y-97631559D01*
X210520829Y-97665043D01*
X210451138Y-97660057D01*
X210406792Y-97631557D01*
X206492390Y-93717155D01*
X206492388Y-93717152D01*
X206373517Y-93598281D01*
X206373516Y-93598280D01*
X206286704Y-93548160D01*
X206286704Y-93548159D01*
X206286700Y-93548158D01*
X206236585Y-93519223D01*
X206083857Y-93478299D01*
X205925743Y-93478299D01*
X205918147Y-93478299D01*
X205918131Y-93478300D01*
X190196097Y-93478300D01*
X190129058Y-93458615D01*
X190108416Y-93441981D01*
X181853169Y-85186734D01*
X204770500Y-85186734D01*
X204784680Y-85294433D01*
X204802591Y-85430477D01*
X204848837Y-85603070D01*
X204866222Y-85667952D01*
X204866225Y-85667962D01*
X204923152Y-85805394D01*
X204960306Y-85895092D01*
X205083233Y-86108008D01*
X205083235Y-86108011D01*
X205083236Y-86108012D01*
X205232897Y-86303054D01*
X205232903Y-86303061D01*
X205406738Y-86476896D01*
X205406745Y-86476902D01*
X205506911Y-86553762D01*
X205601792Y-86626567D01*
X205814708Y-86749494D01*
X205983037Y-86819218D01*
X206017207Y-86833372D01*
X206041847Y-86843578D01*
X206279323Y-86907209D01*
X206523073Y-86939300D01*
X206523080Y-86939300D01*
X206768920Y-86939300D01*
X206768927Y-86939300D01*
X207012677Y-86907209D01*
X207250153Y-86843578D01*
X207477292Y-86749494D01*
X207524766Y-86722084D01*
X207592665Y-86705611D01*
X207658692Y-86728463D01*
X207701883Y-86783383D01*
X207710450Y-86838317D01*
X207690390Y-87118798D01*
X207690390Y-87118801D01*
X207710804Y-87404233D01*
X207771628Y-87683837D01*
X207771630Y-87683843D01*
X207771631Y-87683846D01*
X207871633Y-87951961D01*
X207871635Y-87951966D01*
X208008770Y-88203109D01*
X208008775Y-88203117D01*
X208180254Y-88432187D01*
X208180270Y-88432205D01*
X208382594Y-88634529D01*
X208382612Y-88634545D01*
X208611682Y-88806024D01*
X208611690Y-88806029D01*
X208862833Y-88943164D01*
X208862832Y-88943164D01*
X208862836Y-88943165D01*
X208862839Y-88943167D01*
X209130954Y-89043169D01*
X209130960Y-89043170D01*
X209130962Y-89043171D01*
X209410566Y-89103995D01*
X209410568Y-89103995D01*
X209410572Y-89103996D01*
X209664220Y-89122137D01*
X209695999Y-89124410D01*
X209696000Y-89124410D01*
X209696001Y-89124410D01*
X209724595Y-89122364D01*
X209981428Y-89103996D01*
X210261046Y-89043169D01*
X210529161Y-88943167D01*
X210780315Y-88806026D01*
X211009395Y-88634539D01*
X211211739Y-88432195D01*
X211383226Y-88203115D01*
X211520367Y-87951961D01*
X211620369Y-87683846D01*
X211663414Y-87485972D01*
X211681195Y-87404233D01*
X211681195Y-87404232D01*
X211681196Y-87404228D01*
X211701610Y-87118800D01*
X211681196Y-86833372D01*
X211676075Y-86809833D01*
X211620371Y-86553762D01*
X211620370Y-86553760D01*
X211620369Y-86553754D01*
X211520367Y-86285639D01*
X211383226Y-86034485D01*
X211354519Y-85996137D01*
X211211745Y-85805412D01*
X211211729Y-85805394D01*
X211009405Y-85603070D01*
X211009387Y-85603054D01*
X210780317Y-85431575D01*
X210780309Y-85431570D01*
X210529166Y-85294435D01*
X210529167Y-85294435D01*
X210330553Y-85220356D01*
X210261046Y-85194431D01*
X210261043Y-85194430D01*
X210261037Y-85194428D01*
X209981433Y-85133604D01*
X209696001Y-85113190D01*
X209695999Y-85113190D01*
X209410566Y-85133604D01*
X209130962Y-85194428D01*
X208862832Y-85294435D01*
X208694008Y-85386621D01*
X208625735Y-85401473D01*
X208560270Y-85377056D01*
X208518399Y-85321122D01*
X208511642Y-85261603D01*
X208517073Y-85220356D01*
X208521500Y-85186727D01*
X208521500Y-84940873D01*
X208489409Y-84697123D01*
X208425778Y-84459647D01*
X208331694Y-84232508D01*
X208208767Y-84019592D01*
X208059101Y-83824544D01*
X208059096Y-83824538D01*
X207885261Y-83650703D01*
X207885254Y-83650697D01*
X207690212Y-83501036D01*
X207690211Y-83501035D01*
X207690208Y-83501033D01*
X207516260Y-83400604D01*
X207477294Y-83378107D01*
X207477285Y-83378103D01*
X207250162Y-83284025D01*
X207250155Y-83284023D01*
X207250153Y-83284022D01*
X207012677Y-83220391D01*
X206971939Y-83215027D01*
X206768934Y-83188300D01*
X206768927Y-83188300D01*
X206523073Y-83188300D01*
X206523065Y-83188300D01*
X206291059Y-83218845D01*
X206279323Y-83220391D01*
X206211250Y-83238631D01*
X206041847Y-83284022D01*
X206041837Y-83284025D01*
X205814714Y-83378103D01*
X205814705Y-83378107D01*
X205601787Y-83501036D01*
X205406745Y-83650697D01*
X205406738Y-83650703D01*
X205232903Y-83824538D01*
X205232897Y-83824545D01*
X205083236Y-84019587D01*
X204960307Y-84232505D01*
X204960303Y-84232514D01*
X204866225Y-84459637D01*
X204866222Y-84459647D01*
X204830849Y-84591664D01*
X204802592Y-84697120D01*
X204802590Y-84697131D01*
X204770500Y-84940865D01*
X204770500Y-85186734D01*
X181853169Y-85186734D01*
X181729013Y-85062578D01*
X181695528Y-85001255D01*
X181700512Y-84931563D01*
X181742384Y-84875630D01*
X181750707Y-84869913D01*
X181848262Y-84808616D01*
X181848264Y-84808613D01*
X181851097Y-84806355D01*
X181853278Y-84805464D01*
X181854159Y-84804911D01*
X181854255Y-84805065D01*
X181915783Y-84779945D01*
X181928412Y-84779300D01*
X196014331Y-84779300D01*
X196014347Y-84779301D01*
X196021943Y-84779301D01*
X196180054Y-84779301D01*
X196180057Y-84779301D01*
X196332785Y-84738377D01*
X196385792Y-84707773D01*
X196469716Y-84659320D01*
X196581520Y-84547516D01*
X196581520Y-84547514D01*
X196591724Y-84537311D01*
X196591728Y-84537306D01*
X197354119Y-83774914D01*
X197415440Y-83741431D01*
X197473891Y-83742822D01*
X197538023Y-83760007D01*
X197725787Y-83776433D01*
X197755998Y-83779077D01*
X197756000Y-83779077D01*
X197756002Y-83779077D01*
X197784254Y-83776605D01*
X197973977Y-83760007D01*
X198185330Y-83703375D01*
X198383639Y-83610902D01*
X198562877Y-83485398D01*
X198717598Y-83330677D01*
X198819926Y-83184536D01*
X198874502Y-83140913D01*
X198944001Y-83133721D01*
X199006355Y-83165243D01*
X199041769Y-83225473D01*
X199045500Y-83255662D01*
X199045500Y-84591670D01*
X199045501Y-84591676D01*
X199051908Y-84651283D01*
X199102202Y-84786128D01*
X199102206Y-84786135D01*
X199188452Y-84901344D01*
X199188455Y-84901347D01*
X199303664Y-84987593D01*
X199303671Y-84987597D01*
X199438517Y-85037891D01*
X199438516Y-85037891D01*
X199445444Y-85038635D01*
X199498127Y-85044300D01*
X201093872Y-85044299D01*
X201153483Y-85037891D01*
X201288331Y-84987596D01*
X201403546Y-84901346D01*
X201489796Y-84786131D01*
X201540091Y-84651283D01*
X201546500Y-84591673D01*
X201546499Y-82995928D01*
X201540091Y-82936317D01*
X201517243Y-82875059D01*
X201489797Y-82801471D01*
X201489793Y-82801464D01*
X201403547Y-82686255D01*
X201403544Y-82686252D01*
X201288335Y-82600006D01*
X201288328Y-82600002D01*
X201153482Y-82549708D01*
X201153483Y-82549708D01*
X201093883Y-82543301D01*
X201093881Y-82543300D01*
X201093873Y-82543300D01*
X201093865Y-82543300D01*
X201027862Y-82543300D01*
X200960823Y-82523615D01*
X200915068Y-82470811D01*
X200905124Y-82401653D01*
X200934149Y-82338097D01*
X200956734Y-82317728D01*
X201102877Y-82215398D01*
X201257598Y-82060677D01*
X201383102Y-81881439D01*
X201475575Y-81683130D01*
X201532207Y-81471777D01*
X201551277Y-81253800D01*
X201551163Y-81252502D01*
X201545730Y-81190396D01*
X201532207Y-81035823D01*
X201475575Y-80824470D01*
X201383102Y-80626162D01*
X201383100Y-80626159D01*
X201383099Y-80626157D01*
X201257599Y-80446924D01*
X201221273Y-80410598D01*
X201102877Y-80292202D01*
X200923639Y-80166698D01*
X200772414Y-80096181D01*
X200719977Y-80050010D01*
X200700825Y-79982816D01*
X200721041Y-79915935D01*
X200772414Y-79871418D01*
X200923639Y-79800902D01*
X201102877Y-79675398D01*
X201257598Y-79520677D01*
X201383102Y-79341439D01*
X201475575Y-79143130D01*
X201532207Y-78931777D01*
X201551277Y-78713800D01*
X201532207Y-78495823D01*
X201475575Y-78284470D01*
X201383102Y-78086162D01*
X201383100Y-78086159D01*
X201383099Y-78086157D01*
X201257599Y-77906924D01*
X201184519Y-77833844D01*
X201102877Y-77752202D01*
X200923639Y-77626698D01*
X200772414Y-77556181D01*
X200719977Y-77510010D01*
X200700825Y-77442816D01*
X200721041Y-77375935D01*
X200772414Y-77331418D01*
X200923639Y-77260902D01*
X201102877Y-77135398D01*
X201257598Y-76980677D01*
X201383102Y-76801439D01*
X201475575Y-76603130D01*
X201532207Y-76391777D01*
X201551277Y-76173800D01*
X201532207Y-75955823D01*
X201475575Y-75744470D01*
X201383102Y-75546162D01*
X201383100Y-75546159D01*
X201383099Y-75546157D01*
X201257599Y-75366924D01*
X201210167Y-75319492D01*
X201102877Y-75212202D01*
X200923639Y-75086698D01*
X200923640Y-75086698D01*
X200923638Y-75086697D01*
X200797784Y-75028011D01*
X200725330Y-74994225D01*
X200725326Y-74994224D01*
X200725322Y-74994222D01*
X200513977Y-74937593D01*
X200296002Y-74918523D01*
X200295998Y-74918523D01*
X200170437Y-74929508D01*
X200078023Y-74937593D01*
X200078020Y-74937593D01*
X199866677Y-74994222D01*
X199866670Y-74994224D01*
X199866670Y-74994225D01*
X199849278Y-75002335D01*
X199668361Y-75086698D01*
X199668357Y-75086700D01*
X199489121Y-75212202D01*
X199334402Y-75366921D01*
X199208900Y-75546157D01*
X199208898Y-75546161D01*
X199116426Y-75744468D01*
X199116422Y-75744477D01*
X199059793Y-75955820D01*
X199059793Y-75955824D01*
X199040723Y-76173797D01*
X199040723Y-76173802D01*
X199059793Y-76391775D01*
X199059793Y-76391779D01*
X199116422Y-76603122D01*
X199116424Y-76603126D01*
X199116425Y-76603130D01*
X199162661Y-76702284D01*
X199208897Y-76801438D01*
X199219206Y-76816161D01*
X199334402Y-76980677D01*
X199489123Y-77135398D01*
X199618265Y-77225824D01*
X199668361Y-77260902D01*
X199819583Y-77331418D01*
X199872022Y-77377590D01*
X199891174Y-77444784D01*
X199870958Y-77511665D01*
X199819583Y-77556182D01*
X199668361Y-77626698D01*
X199668357Y-77626700D01*
X199489121Y-77752202D01*
X199334402Y-77906921D01*
X199208900Y-78086157D01*
X199208898Y-78086161D01*
X199116426Y-78284468D01*
X199116422Y-78284477D01*
X199059793Y-78495820D01*
X199059793Y-78495824D01*
X199040723Y-78713797D01*
X199040723Y-78713802D01*
X199059793Y-78931775D01*
X199059793Y-78931779D01*
X199116422Y-79143122D01*
X199116424Y-79143126D01*
X199116425Y-79143130D01*
X199146497Y-79207619D01*
X199208897Y-79341438D01*
X199226305Y-79366299D01*
X199334402Y-79520677D01*
X199489123Y-79675398D01*
X199618265Y-79765824D01*
X199668361Y-79800902D01*
X199819583Y-79871418D01*
X199872022Y-79917590D01*
X199891174Y-79984784D01*
X199870958Y-80051665D01*
X199819583Y-80096182D01*
X199668361Y-80166698D01*
X199668357Y-80166700D01*
X199489121Y-80292202D01*
X199334402Y-80446921D01*
X199208900Y-80626157D01*
X199208898Y-80626161D01*
X199116426Y-80824468D01*
X199116422Y-80824477D01*
X199059793Y-81035820D01*
X199059793Y-81035823D01*
X199056870Y-81069230D01*
X199040723Y-81253797D01*
X199040723Y-81253802D01*
X199059793Y-81471775D01*
X199059793Y-81471779D01*
X199116422Y-81683122D01*
X199116424Y-81683126D01*
X199116425Y-81683130D01*
X199144605Y-81743562D01*
X199208897Y-81881438D01*
X199219206Y-81896161D01*
X199334402Y-82060677D01*
X199489123Y-82215398D01*
X199635263Y-82317726D01*
X199678887Y-82372302D01*
X199686081Y-82441800D01*
X199654558Y-82504155D01*
X199594328Y-82539569D01*
X199564141Y-82543300D01*
X199498130Y-82543300D01*
X199498123Y-82543301D01*
X199438516Y-82549708D01*
X199303671Y-82600002D01*
X199303668Y-82600004D01*
X199205660Y-82673373D01*
X199140195Y-82697790D01*
X199071922Y-82682938D01*
X199022517Y-82633533D01*
X199007665Y-82565260D01*
X199007815Y-82563366D01*
X199011277Y-82523800D01*
X199009630Y-82504979D01*
X199006641Y-82470811D01*
X198992207Y-82305823D01*
X198935575Y-82094470D01*
X198843102Y-81896162D01*
X198843100Y-81896159D01*
X198843099Y-81896157D01*
X198717599Y-81716924D01*
X198649091Y-81648416D01*
X198562877Y-81562202D01*
X198383639Y-81436698D01*
X198232414Y-81366181D01*
X198179977Y-81320010D01*
X198160825Y-81252816D01*
X198181041Y-81185935D01*
X198232414Y-81141418D01*
X198383639Y-81070902D01*
X198562877Y-80945398D01*
X198717598Y-80790677D01*
X198843102Y-80611439D01*
X198935575Y-80413130D01*
X198992207Y-80201777D01*
X199011277Y-79983800D01*
X198992207Y-79765823D01*
X198942812Y-79581478D01*
X198935577Y-79554477D01*
X198935576Y-79554476D01*
X198935575Y-79554470D01*
X198843102Y-79356162D01*
X198843100Y-79356159D01*
X198843099Y-79356157D01*
X198717599Y-79176924D01*
X198671272Y-79130597D01*
X198562877Y-79022202D01*
X198383639Y-78896698D01*
X198232414Y-78826181D01*
X198179977Y-78780010D01*
X198160825Y-78712816D01*
X198181041Y-78645935D01*
X198232414Y-78601418D01*
X198383639Y-78530902D01*
X198562877Y-78405398D01*
X198717598Y-78250677D01*
X198843102Y-78071439D01*
X198935575Y-77873130D01*
X198992207Y-77661777D01*
X199011277Y-77443800D01*
X198992207Y-77225823D01*
X198935575Y-77014470D01*
X198843102Y-76816162D01*
X198843100Y-76816159D01*
X198843099Y-76816157D01*
X198717599Y-76636924D01*
X198666825Y-76586150D01*
X198562877Y-76482202D01*
X198383639Y-76356698D01*
X198232414Y-76286181D01*
X198179977Y-76240010D01*
X198160825Y-76172816D01*
X198181041Y-76105935D01*
X198232414Y-76061418D01*
X198383639Y-75990902D01*
X198562877Y-75865398D01*
X198717598Y-75710677D01*
X198843102Y-75531439D01*
X198935575Y-75333130D01*
X198992207Y-75121777D01*
X199010090Y-74917364D01*
X199011277Y-74903802D01*
X199011277Y-74903797D01*
X199001028Y-74786653D01*
X198992207Y-74685823D01*
X198951735Y-74534778D01*
X198935577Y-74474477D01*
X198935576Y-74474476D01*
X198935575Y-74474470D01*
X198843102Y-74276162D01*
X198843100Y-74276159D01*
X198843099Y-74276157D01*
X198717599Y-74096924D01*
X198649975Y-74029300D01*
X198562877Y-73942202D01*
X198424978Y-73845644D01*
X198383638Y-73816697D01*
X198284484Y-73770461D01*
X198255046Y-73756734D01*
X204770500Y-73756734D01*
X204791426Y-73915670D01*
X204802591Y-74000477D01*
X204843885Y-74154588D01*
X204866222Y-74237952D01*
X204866225Y-74237962D01*
X204934694Y-74403260D01*
X204960306Y-74465092D01*
X205083233Y-74678008D01*
X205083235Y-74678011D01*
X205083236Y-74678012D01*
X205232897Y-74873054D01*
X205232903Y-74873061D01*
X205406738Y-75046896D01*
X205406745Y-75046902D01*
X205439000Y-75071652D01*
X205601792Y-75196567D01*
X205814708Y-75319494D01*
X206041847Y-75413578D01*
X206279323Y-75477209D01*
X206523073Y-75509300D01*
X206523080Y-75509300D01*
X206768920Y-75509300D01*
X206768927Y-75509300D01*
X207012677Y-75477209D01*
X207250153Y-75413578D01*
X207477292Y-75319494D01*
X207690208Y-75196567D01*
X207885256Y-75046901D01*
X208059101Y-74873056D01*
X208208767Y-74678008D01*
X208331694Y-74465092D01*
X208425778Y-74237953D01*
X208489409Y-74000477D01*
X208521500Y-73756727D01*
X208521500Y-73510873D01*
X208511642Y-73435995D01*
X208522407Y-73366960D01*
X208568787Y-73314704D01*
X208636056Y-73295819D01*
X208694008Y-73310978D01*
X208862833Y-73403164D01*
X208862832Y-73403164D01*
X208862836Y-73403165D01*
X208862839Y-73403167D01*
X209130954Y-73503169D01*
X209130960Y-73503170D01*
X209130962Y-73503171D01*
X209410566Y-73563995D01*
X209410568Y-73563995D01*
X209410572Y-73563996D01*
X209664220Y-73582137D01*
X209695999Y-73584410D01*
X209696000Y-73584410D01*
X209696001Y-73584410D01*
X209724595Y-73582364D01*
X209981428Y-73563996D01*
X210261046Y-73503169D01*
X210529161Y-73403167D01*
X210780315Y-73266026D01*
X211009395Y-73094539D01*
X211211739Y-72892195D01*
X211383226Y-72663115D01*
X211520367Y-72411961D01*
X211620369Y-72143846D01*
X211636208Y-72071036D01*
X211681195Y-71864233D01*
X211681195Y-71864232D01*
X211681196Y-71864228D01*
X211701610Y-71578800D01*
X211681196Y-71293372D01*
X211680791Y-71291512D01*
X211620371Y-71013762D01*
X211620370Y-71013760D01*
X211620369Y-71013754D01*
X211520367Y-70745639D01*
X211461982Y-70638716D01*
X211383229Y-70494490D01*
X211383224Y-70494482D01*
X211211745Y-70265412D01*
X211211729Y-70265394D01*
X211009405Y-70063070D01*
X211009387Y-70063054D01*
X210780317Y-69891575D01*
X210780309Y-69891570D01*
X210529166Y-69754435D01*
X210529167Y-69754435D01*
X210311008Y-69673066D01*
X210261046Y-69654431D01*
X210261043Y-69654430D01*
X210261037Y-69654428D01*
X210206046Y-69642466D01*
X210144723Y-69608981D01*
X210111238Y-69547658D01*
X210116222Y-69477966D01*
X210158094Y-69422033D01*
X210206046Y-69400134D01*
X210261037Y-69388171D01*
X210261037Y-69388170D01*
X210261046Y-69388169D01*
X210529161Y-69288167D01*
X210780315Y-69151026D01*
X211009395Y-68979539D01*
X211211739Y-68777195D01*
X211383226Y-68548115D01*
X211520367Y-68296961D01*
X211620369Y-68028846D01*
X211628537Y-67991300D01*
X211681195Y-67749233D01*
X211681195Y-67749232D01*
X211681196Y-67749228D01*
X211701610Y-67463800D01*
X211681196Y-67178372D01*
X211674820Y-67149064D01*
X211620371Y-66898762D01*
X211620370Y-66898760D01*
X211620369Y-66898754D01*
X211520367Y-66630639D01*
X211512142Y-66615577D01*
X211383229Y-66379490D01*
X211383224Y-66379482D01*
X211211745Y-66150412D01*
X211211729Y-66150394D01*
X211009405Y-65948070D01*
X211009387Y-65948054D01*
X210780317Y-65776575D01*
X210780309Y-65776570D01*
X210529166Y-65639435D01*
X210529167Y-65639435D01*
X210365204Y-65578280D01*
X210261046Y-65539431D01*
X210261043Y-65539430D01*
X210261037Y-65539428D01*
X209981433Y-65478604D01*
X209696001Y-65458190D01*
X209695999Y-65458190D01*
X209410566Y-65478604D01*
X209130962Y-65539428D01*
X208862832Y-65639435D01*
X208694008Y-65731621D01*
X208625735Y-65746473D01*
X208560270Y-65722056D01*
X208518399Y-65666122D01*
X208511642Y-65606603D01*
X208521499Y-65531734D01*
X208521500Y-65531727D01*
X208521500Y-65285873D01*
X208489409Y-65042123D01*
X208425778Y-64804647D01*
X208331694Y-64577508D01*
X208208767Y-64364592D01*
X208059101Y-64169544D01*
X208059096Y-64169538D01*
X207885261Y-63995703D01*
X207885254Y-63995697D01*
X207690212Y-63846036D01*
X207690211Y-63846035D01*
X207690208Y-63846033D01*
X207477292Y-63723106D01*
X207477285Y-63723103D01*
X207250162Y-63629025D01*
X207250155Y-63629023D01*
X207250153Y-63629022D01*
X207012677Y-63565391D01*
X206971939Y-63560027D01*
X206768934Y-63533300D01*
X206768927Y-63533300D01*
X206523073Y-63533300D01*
X206523065Y-63533300D01*
X206291059Y-63563845D01*
X206279323Y-63565391D01*
X206158146Y-63597860D01*
X206041847Y-63629022D01*
X206041837Y-63629025D01*
X205814714Y-63723103D01*
X205814705Y-63723107D01*
X205601787Y-63846036D01*
X205406745Y-63995697D01*
X205406738Y-63995703D01*
X205232903Y-64169538D01*
X205232897Y-64169545D01*
X205083236Y-64364587D01*
X204960307Y-64577505D01*
X204960303Y-64577514D01*
X204866225Y-64804637D01*
X204866222Y-64804647D01*
X204830849Y-64936664D01*
X204802592Y-65042120D01*
X204802590Y-65042131D01*
X204770500Y-65285865D01*
X204770500Y-65531734D01*
X204791349Y-65690087D01*
X204802591Y-65775477D01*
X204858727Y-65984980D01*
X204866222Y-66012952D01*
X204866225Y-66012962D01*
X204960303Y-66240085D01*
X204960306Y-66240092D01*
X205083233Y-66453008D01*
X205083235Y-66453011D01*
X205083236Y-66453012D01*
X205232897Y-66648054D01*
X205232903Y-66648061D01*
X205406738Y-66821896D01*
X205406745Y-66821902D01*
X205506911Y-66898762D01*
X205601792Y-66971567D01*
X205814708Y-67094494D01*
X205946452Y-67149064D01*
X206037619Y-67186827D01*
X206041847Y-67188578D01*
X206279323Y-67252209D01*
X206523073Y-67284300D01*
X206523080Y-67284300D01*
X206768920Y-67284300D01*
X206768927Y-67284300D01*
X207012677Y-67252209D01*
X207250153Y-67188578D01*
X207477292Y-67094494D01*
X207524766Y-67067084D01*
X207592665Y-67050611D01*
X207658692Y-67073463D01*
X207701883Y-67128383D01*
X207710450Y-67183317D01*
X207690390Y-67463798D01*
X207690390Y-67463801D01*
X207710804Y-67749233D01*
X207771628Y-68028837D01*
X207771630Y-68028843D01*
X207771631Y-68028846D01*
X207871633Y-68296961D01*
X207871635Y-68296966D01*
X208008770Y-68548109D01*
X208008775Y-68548117D01*
X208180254Y-68777187D01*
X208180270Y-68777205D01*
X208382594Y-68979529D01*
X208382612Y-68979545D01*
X208611682Y-69151024D01*
X208611690Y-69151029D01*
X208862833Y-69288164D01*
X208862832Y-69288164D01*
X208862836Y-69288165D01*
X208862839Y-69288167D01*
X209130954Y-69388169D01*
X209130960Y-69388170D01*
X209130962Y-69388171D01*
X209185953Y-69400134D01*
X209247277Y-69433619D01*
X209280761Y-69494942D01*
X209275777Y-69564634D01*
X209233905Y-69620567D01*
X209185953Y-69642466D01*
X209130962Y-69654428D01*
X208862833Y-69754435D01*
X208611690Y-69891570D01*
X208611682Y-69891575D01*
X208382612Y-70063054D01*
X208382594Y-70063070D01*
X208180270Y-70265394D01*
X208180254Y-70265412D01*
X208008775Y-70494482D01*
X208008770Y-70494490D01*
X207871635Y-70745633D01*
X207771628Y-71013762D01*
X207710804Y-71293366D01*
X207690390Y-71578798D01*
X207690390Y-71578801D01*
X207710450Y-71859282D01*
X207695598Y-71927555D01*
X207646193Y-71976960D01*
X207577920Y-71991812D01*
X207524766Y-71975515D01*
X207477295Y-71948107D01*
X207477285Y-71948103D01*
X207250162Y-71854025D01*
X207250155Y-71854023D01*
X207250153Y-71854022D01*
X207012677Y-71790391D01*
X206971939Y-71785027D01*
X206768934Y-71758300D01*
X206768927Y-71758300D01*
X206523073Y-71758300D01*
X206523065Y-71758300D01*
X206291059Y-71788845D01*
X206279323Y-71790391D01*
X206041847Y-71854022D01*
X206041837Y-71854025D01*
X205814714Y-71948103D01*
X205814705Y-71948107D01*
X205674775Y-72028896D01*
X205606561Y-72068280D01*
X205601787Y-72071036D01*
X205406745Y-72220697D01*
X205406738Y-72220703D01*
X205232903Y-72394538D01*
X205232897Y-72394545D01*
X205083236Y-72589587D01*
X205083233Y-72589591D01*
X205083233Y-72589592D01*
X205080986Y-72593484D01*
X204960307Y-72802505D01*
X204960303Y-72802514D01*
X204866225Y-73029637D01*
X204866222Y-73029647D01*
X204802886Y-73266024D01*
X204802592Y-73267120D01*
X204802590Y-73267131D01*
X204770500Y-73510865D01*
X204770500Y-73756734D01*
X198255046Y-73756734D01*
X198185330Y-73724225D01*
X198185326Y-73724224D01*
X198185322Y-73724222D01*
X197973977Y-73667593D01*
X197756002Y-73648523D01*
X197755998Y-73648523D01*
X197538029Y-73667592D01*
X197538011Y-73667595D01*
X197473889Y-73684776D01*
X197404039Y-73683112D01*
X197354117Y-73652682D01*
X196768590Y-73067155D01*
X196768588Y-73067152D01*
X196649717Y-72948281D01*
X196649712Y-72948277D01*
X196552572Y-72892194D01*
X196531858Y-72880235D01*
X196512785Y-72869223D01*
X196512782Y-72869222D01*
X196457764Y-72854480D01*
X196360057Y-72828299D01*
X196201943Y-72828299D01*
X196194347Y-72828299D01*
X196194331Y-72828300D01*
X183228412Y-72828300D01*
X183161373Y-72808615D01*
X183151097Y-72801245D01*
X183148263Y-72798985D01*
X183148262Y-72798984D01*
X183064897Y-72746602D01*
X182995523Y-72703011D01*
X182825254Y-72643431D01*
X182825249Y-72643430D01*
X182646004Y-72623235D01*
X182645996Y-72623235D01*
X182466750Y-72643430D01*
X182466745Y-72643431D01*
X182296476Y-72703011D01*
X182143737Y-72798984D01*
X182016184Y-72926537D01*
X181920211Y-73079276D01*
X181860631Y-73249545D01*
X181860630Y-73249550D01*
X181840435Y-73428796D01*
X181840435Y-73428803D01*
X181860630Y-73608049D01*
X181860631Y-73608054D01*
X181920211Y-73778323D01*
X182016184Y-73931062D01*
X182143738Y-74058616D01*
X182296478Y-74154589D01*
X182466745Y-74214168D01*
X182466750Y-74214169D01*
X182645996Y-74234365D01*
X182646000Y-74234365D01*
X182646004Y-74234365D01*
X182825249Y-74214169D01*
X182825252Y-74214168D01*
X182825255Y-74214168D01*
X182995522Y-74154589D01*
X183148262Y-74058616D01*
X183148267Y-74058610D01*
X183151097Y-74056355D01*
X183153275Y-74055465D01*
X183154158Y-74054911D01*
X183154255Y-74055065D01*
X183215783Y-74029945D01*
X183228412Y-74029300D01*
X195980903Y-74029300D01*
X196047942Y-74048985D01*
X196068584Y-74065619D01*
X196504882Y-74501917D01*
X196538367Y-74563240D01*
X196536976Y-74621689D01*
X196519795Y-74685811D01*
X196519792Y-74685829D01*
X196500723Y-74903797D01*
X196500723Y-74903802D01*
X196504562Y-74947680D01*
X196513242Y-75046902D01*
X196519793Y-75121775D01*
X196519793Y-75121779D01*
X196576422Y-75333122D01*
X196576424Y-75333126D01*
X196576425Y-75333130D01*
X196609601Y-75404276D01*
X196668897Y-75531438D01*
X196679206Y-75546161D01*
X196794402Y-75710677D01*
X196949123Y-75865398D01*
X197078265Y-75955824D01*
X197128361Y-75990902D01*
X197279583Y-76061418D01*
X197332022Y-76107590D01*
X197351174Y-76174784D01*
X197330958Y-76241665D01*
X197279583Y-76286182D01*
X197128361Y-76356698D01*
X197128357Y-76356700D01*
X196949121Y-76482202D01*
X196794402Y-76636921D01*
X196668900Y-76816157D01*
X196668898Y-76816161D01*
X196576426Y-77014468D01*
X196576422Y-77014477D01*
X196519793Y-77225820D01*
X196519793Y-77225824D01*
X196500723Y-77443797D01*
X196500723Y-77443802D01*
X196519793Y-77661775D01*
X196519793Y-77661779D01*
X196576422Y-77873122D01*
X196576424Y-77873126D01*
X196576425Y-77873130D01*
X196598324Y-77920093D01*
X196668897Y-78071438D01*
X196679206Y-78086161D01*
X196794402Y-78250677D01*
X196949123Y-78405398D01*
X197128360Y-78530901D01*
X197128361Y-78530902D01*
X197279583Y-78601418D01*
X197332022Y-78647590D01*
X197351174Y-78714784D01*
X197330958Y-78781665D01*
X197279583Y-78826182D01*
X197128361Y-78896698D01*
X197128357Y-78896700D01*
X196949121Y-79022202D01*
X196794402Y-79176921D01*
X196668900Y-79356157D01*
X196668898Y-79356161D01*
X196576426Y-79554468D01*
X196576422Y-79554477D01*
X196519793Y-79765820D01*
X196519793Y-79765824D01*
X196500723Y-79983797D01*
X196500723Y-79983802D01*
X196519793Y-80201775D01*
X196519793Y-80201779D01*
X196576422Y-80413122D01*
X196576424Y-80413126D01*
X196576425Y-80413130D01*
X196596383Y-80455930D01*
X196668897Y-80611438D01*
X196679206Y-80626161D01*
X196794402Y-80790677D01*
X196949123Y-80945398D01*
X197078265Y-81035824D01*
X197128361Y-81070902D01*
X197279583Y-81141418D01*
X197332022Y-81187590D01*
X197351174Y-81254784D01*
X197330958Y-81321665D01*
X197279583Y-81366182D01*
X197128361Y-81436698D01*
X197128357Y-81436700D01*
X196949121Y-81562202D01*
X196794402Y-81716921D01*
X196668900Y-81896157D01*
X196668898Y-81896161D01*
X196576426Y-82094468D01*
X196576422Y-82094477D01*
X196519793Y-82305820D01*
X196519793Y-82305823D01*
X196516724Y-82340902D01*
X196500723Y-82523797D01*
X196500723Y-82523802D01*
X196519792Y-82741770D01*
X196519795Y-82741784D01*
X196536976Y-82805908D01*
X196535313Y-82875758D01*
X196504882Y-82925681D01*
X195888584Y-83541981D01*
X195827261Y-83575466D01*
X195800903Y-83578300D01*
X181928412Y-83578300D01*
X181861373Y-83558615D01*
X181851097Y-83551245D01*
X181848263Y-83548985D01*
X181848262Y-83548984D01*
X181771953Y-83501036D01*
X181695523Y-83453011D01*
X181525254Y-83393431D01*
X181525249Y-83393430D01*
X181346004Y-83373235D01*
X181345996Y-83373235D01*
X181166750Y-83393430D01*
X181166745Y-83393431D01*
X180996476Y-83453011D01*
X180843737Y-83548984D01*
X180808181Y-83584541D01*
X180746858Y-83618026D01*
X180677166Y-83613042D01*
X180621233Y-83571170D01*
X180596816Y-83505706D01*
X180596500Y-83496860D01*
X180596500Y-73129745D01*
X180596500Y-73129743D01*
X180577147Y-73057516D01*
X180555577Y-72977015D01*
X180506606Y-72892195D01*
X180487670Y-72859396D01*
X180476521Y-72840085D01*
X180360385Y-72723949D01*
X180360374Y-72723939D01*
X179300538Y-71664103D01*
X179267053Y-71602780D01*
X179264748Y-71564984D01*
X179283854Y-71358800D01*
X179280425Y-71321800D01*
X179264480Y-71149720D01*
X179225794Y-71013754D01*
X179207017Y-70947760D01*
X179113423Y-70759797D01*
X179037575Y-70659358D01*
X178986882Y-70592230D01*
X178831710Y-70450773D01*
X178831708Y-70450771D01*
X178653188Y-70340236D01*
X178653182Y-70340234D01*
X178457389Y-70264383D01*
X178250988Y-70225800D01*
X178041012Y-70225800D01*
X177893285Y-70253415D01*
X177823770Y-70246384D01*
X177769091Y-70202886D01*
X177746609Y-70136732D01*
X177746500Y-70131526D01*
X177746500Y-70118897D01*
X177766185Y-70051858D01*
X177782813Y-70031221D01*
X177844176Y-69969858D01*
X177905495Y-69936376D01*
X177954638Y-69935654D01*
X178041012Y-69951800D01*
X178041013Y-69951800D01*
X178250986Y-69951800D01*
X178250988Y-69951800D01*
X178457389Y-69913217D01*
X178653185Y-69837365D01*
X178831710Y-69726827D01*
X178963574Y-69606616D01*
X178986882Y-69585369D01*
X178986884Y-69585367D01*
X179113423Y-69417803D01*
X179207017Y-69229840D01*
X179264480Y-69027880D01*
X179283854Y-68818800D01*
X179264480Y-68609720D01*
X179207017Y-68407760D01*
X179203197Y-68400088D01*
X183045500Y-68400088D01*
X183077161Y-68640585D01*
X183139947Y-68874904D01*
X183232773Y-69099005D01*
X183232776Y-69099012D01*
X183354064Y-69309089D01*
X183354066Y-69309092D01*
X183354067Y-69309093D01*
X183501733Y-69501536D01*
X183501739Y-69501543D01*
X183673256Y-69673060D01*
X183673262Y-69673065D01*
X183865711Y-69820736D01*
X184075788Y-69942024D01*
X184299900Y-70034854D01*
X184534211Y-70097638D01*
X184708506Y-70120584D01*
X184774711Y-70129300D01*
X184774712Y-70129300D01*
X185017289Y-70129300D01*
X185083486Y-70120585D01*
X185257789Y-70097638D01*
X185492100Y-70034854D01*
X185716212Y-69942024D01*
X185926289Y-69820736D01*
X186118738Y-69673065D01*
X186290265Y-69501538D01*
X186437936Y-69309089D01*
X186559224Y-69099012D01*
X186652054Y-68874900D01*
X186714838Y-68640589D01*
X186746500Y-68400088D01*
X186746500Y-68157512D01*
X186714838Y-67917011D01*
X186652054Y-67682700D01*
X186559224Y-67458588D01*
X186437936Y-67248511D01*
X186321140Y-67096299D01*
X186290266Y-67056063D01*
X186290260Y-67056056D01*
X186118743Y-66884539D01*
X186118736Y-66884533D01*
X185926293Y-66736867D01*
X185926292Y-66736866D01*
X185926289Y-66736864D01*
X185742302Y-66630639D01*
X185716214Y-66615577D01*
X185716205Y-66615573D01*
X185492104Y-66522747D01*
X185257785Y-66459961D01*
X185017289Y-66428300D01*
X185017288Y-66428300D01*
X184774712Y-66428300D01*
X184774711Y-66428300D01*
X184534214Y-66459961D01*
X184299895Y-66522747D01*
X184075794Y-66615573D01*
X184075785Y-66615577D01*
X183865706Y-66736867D01*
X183673263Y-66884533D01*
X183673256Y-66884539D01*
X183501739Y-67056056D01*
X183501733Y-67056063D01*
X183354067Y-67248506D01*
X183232777Y-67458585D01*
X183232773Y-67458594D01*
X183139947Y-67682695D01*
X183077161Y-67917014D01*
X183045500Y-68157511D01*
X183045500Y-68400088D01*
X179203197Y-68400088D01*
X179186372Y-68366300D01*
X179151846Y-68296961D01*
X179113423Y-68219797D01*
X179046062Y-68130597D01*
X178986882Y-68052230D01*
X178831710Y-67910773D01*
X178831708Y-67910771D01*
X178653188Y-67800236D01*
X178653182Y-67800234D01*
X178457389Y-67724383D01*
X178250988Y-67685800D01*
X178041012Y-67685800D01*
X177877750Y-67716319D01*
X177808235Y-67709288D01*
X177753556Y-67665790D01*
X177731074Y-67599636D01*
X177747927Y-67531829D01*
X177767280Y-67506753D01*
X177844174Y-67429859D01*
X177905495Y-67396376D01*
X177954633Y-67395653D01*
X178041012Y-67411800D01*
X178041015Y-67411800D01*
X178250986Y-67411800D01*
X178250988Y-67411800D01*
X178457389Y-67373217D01*
X178653185Y-67297365D01*
X178831710Y-67186827D01*
X178986884Y-67045367D01*
X179113423Y-66877803D01*
X179207017Y-66689840D01*
X179264480Y-66487880D01*
X179283854Y-66278800D01*
X179264480Y-66069720D01*
X179207017Y-65867760D01*
X179206240Y-65866200D01*
X179161061Y-65775468D01*
X179113423Y-65679797D01*
X178986884Y-65512233D01*
X178986882Y-65512230D01*
X178831710Y-65370773D01*
X178831708Y-65370771D01*
X178653188Y-65260236D01*
X178653182Y-65260234D01*
X178457389Y-65184383D01*
X178250988Y-65145800D01*
X178041012Y-65145800D01*
X177877750Y-65176319D01*
X177808235Y-65169288D01*
X177753556Y-65125790D01*
X177731074Y-65059636D01*
X177747927Y-64991829D01*
X177767280Y-64966753D01*
X177844174Y-64889859D01*
X177905495Y-64856376D01*
X177954633Y-64855653D01*
X178041012Y-64871800D01*
X178041015Y-64871800D01*
X178250986Y-64871800D01*
X178250988Y-64871800D01*
X178457389Y-64833217D01*
X178653185Y-64757365D01*
X178831710Y-64646827D01*
X178986884Y-64505367D01*
X179113423Y-64337803D01*
X179207017Y-64149840D01*
X179264480Y-63947880D01*
X179283854Y-63738800D01*
X179282399Y-63723103D01*
X179264480Y-63529720D01*
X179249969Y-63478721D01*
X179207017Y-63327760D01*
X179186728Y-63287015D01*
X179126657Y-63166375D01*
X179113423Y-63139797D01*
X179028951Y-63027938D01*
X178986882Y-62972230D01*
X178873426Y-62868802D01*
X196500723Y-62868802D01*
X196502990Y-62894709D01*
X196519329Y-63081479D01*
X196519793Y-63086775D01*
X196519793Y-63086779D01*
X196576422Y-63298122D01*
X196576424Y-63298126D01*
X196576425Y-63298130D01*
X196589514Y-63326199D01*
X196668897Y-63496438D01*
X196692074Y-63529538D01*
X196794402Y-63675677D01*
X196949123Y-63830398D01*
X197128361Y-63955902D01*
X197326670Y-64048375D01*
X197538023Y-64105007D01*
X197720926Y-64121008D01*
X197755998Y-64124077D01*
X197756000Y-64124077D01*
X197756002Y-64124077D01*
X197784254Y-64121605D01*
X197973977Y-64105007D01*
X198185330Y-64048375D01*
X198383639Y-63955902D01*
X198562877Y-63830398D01*
X198717598Y-63675677D01*
X198819926Y-63529536D01*
X198874502Y-63485913D01*
X198944001Y-63478721D01*
X199006355Y-63510243D01*
X199041769Y-63570473D01*
X199045500Y-63600662D01*
X199045500Y-64936670D01*
X199045501Y-64936676D01*
X199051908Y-64996283D01*
X199102202Y-65131128D01*
X199102206Y-65131135D01*
X199188452Y-65246344D01*
X199188455Y-65246347D01*
X199303664Y-65332593D01*
X199303671Y-65332597D01*
X199438517Y-65382891D01*
X199438516Y-65382891D01*
X199445444Y-65383635D01*
X199498127Y-65389300D01*
X201093872Y-65389299D01*
X201153483Y-65382891D01*
X201288331Y-65332596D01*
X201403546Y-65246346D01*
X201489796Y-65131131D01*
X201540091Y-64996283D01*
X201546500Y-64936673D01*
X201546499Y-63340928D01*
X201540091Y-63281317D01*
X201519021Y-63224826D01*
X201489797Y-63146471D01*
X201489793Y-63146464D01*
X201403547Y-63031255D01*
X201403544Y-63031252D01*
X201288335Y-62945006D01*
X201288328Y-62945002D01*
X201153482Y-62894708D01*
X201153483Y-62894708D01*
X201093883Y-62888301D01*
X201093881Y-62888300D01*
X201093873Y-62888300D01*
X201093865Y-62888300D01*
X201027862Y-62888300D01*
X200960823Y-62868615D01*
X200915068Y-62815811D01*
X200905124Y-62746653D01*
X200934149Y-62683097D01*
X200956734Y-62662728D01*
X201102877Y-62560398D01*
X201257598Y-62405677D01*
X201383102Y-62226439D01*
X201475575Y-62028130D01*
X201532207Y-61816777D01*
X201550311Y-61609840D01*
X201551277Y-61598802D01*
X201551277Y-61598797D01*
X201546945Y-61549287D01*
X201532207Y-61380823D01*
X201475575Y-61169470D01*
X201383102Y-60971162D01*
X201383100Y-60971159D01*
X201383099Y-60971157D01*
X201257599Y-60791924D01*
X201223797Y-60758122D01*
X201102877Y-60637202D01*
X200923639Y-60511698D01*
X200772414Y-60441181D01*
X200719977Y-60395010D01*
X200700825Y-60327816D01*
X200721041Y-60260935D01*
X200772414Y-60216418D01*
X200923639Y-60145902D01*
X201102877Y-60020398D01*
X201257598Y-59865677D01*
X201383102Y-59686439D01*
X201475575Y-59488130D01*
X201532207Y-59276777D01*
X201550311Y-59069840D01*
X201551277Y-59058802D01*
X201551277Y-59058797D01*
X201547569Y-59016418D01*
X201532207Y-58840823D01*
X201475575Y-58629470D01*
X201383102Y-58431162D01*
X201383100Y-58431159D01*
X201383099Y-58431157D01*
X201257599Y-58251924D01*
X201223797Y-58218122D01*
X201102877Y-58097202D01*
X200923639Y-57971698D01*
X200772414Y-57901181D01*
X200719977Y-57855010D01*
X200700825Y-57787816D01*
X200721041Y-57720935D01*
X200772414Y-57676418D01*
X200923639Y-57605902D01*
X201102877Y-57480398D01*
X201257598Y-57325677D01*
X201383102Y-57146439D01*
X201475575Y-56948130D01*
X201532207Y-56736777D01*
X201550311Y-56529840D01*
X201551277Y-56518802D01*
X201551277Y-56518797D01*
X201547569Y-56476418D01*
X201532207Y-56300823D01*
X201475575Y-56089470D01*
X201383102Y-55891162D01*
X201383100Y-55891159D01*
X201383099Y-55891157D01*
X201257599Y-55711924D01*
X201210167Y-55664492D01*
X201102877Y-55557202D01*
X200923639Y-55431698D01*
X200923640Y-55431698D01*
X200923638Y-55431697D01*
X200824484Y-55385461D01*
X200725330Y-55339225D01*
X200725326Y-55339224D01*
X200725322Y-55339222D01*
X200513977Y-55282593D01*
X200296002Y-55263523D01*
X200295998Y-55263523D01*
X200150682Y-55276236D01*
X200078023Y-55282593D01*
X200078020Y-55282593D01*
X199866677Y-55339222D01*
X199866668Y-55339226D01*
X199668361Y-55431698D01*
X199668357Y-55431700D01*
X199489121Y-55557202D01*
X199334402Y-55711921D01*
X199208900Y-55891157D01*
X199208898Y-55891161D01*
X199116426Y-56089468D01*
X199116422Y-56089477D01*
X199059793Y-56300820D01*
X199059793Y-56300824D01*
X199040723Y-56518797D01*
X199040723Y-56518802D01*
X199041689Y-56529840D01*
X199059289Y-56731021D01*
X199059793Y-56736775D01*
X199059793Y-56736779D01*
X199116422Y-56948122D01*
X199116424Y-56948126D01*
X199116425Y-56948130D01*
X199162661Y-57047284D01*
X199208897Y-57146438D01*
X199219206Y-57161161D01*
X199334402Y-57325677D01*
X199489123Y-57480398D01*
X199618265Y-57570824D01*
X199668361Y-57605902D01*
X199819583Y-57676418D01*
X199872022Y-57722590D01*
X199891174Y-57789784D01*
X199870958Y-57856665D01*
X199819583Y-57901182D01*
X199668361Y-57971698D01*
X199668357Y-57971700D01*
X199489121Y-58097202D01*
X199334402Y-58251921D01*
X199208900Y-58431157D01*
X199208898Y-58431161D01*
X199208898Y-58431162D01*
X199126412Y-58608054D01*
X199116426Y-58629468D01*
X199116422Y-58629477D01*
X199059793Y-58840820D01*
X199059793Y-58840824D01*
X199040723Y-59058797D01*
X199040723Y-59058802D01*
X199059793Y-59276775D01*
X199059793Y-59276779D01*
X199116422Y-59488122D01*
X199116424Y-59488126D01*
X199116425Y-59488130D01*
X199154050Y-59568817D01*
X199208897Y-59686438D01*
X199219206Y-59701161D01*
X199334402Y-59865677D01*
X199489123Y-60020398D01*
X199618265Y-60110824D01*
X199668361Y-60145902D01*
X199819583Y-60216418D01*
X199872022Y-60262590D01*
X199891174Y-60329784D01*
X199870958Y-60396665D01*
X199819583Y-60441182D01*
X199668361Y-60511698D01*
X199668357Y-60511700D01*
X199489121Y-60637202D01*
X199334402Y-60791921D01*
X199208900Y-60971157D01*
X199208898Y-60971161D01*
X199116426Y-61169468D01*
X199116422Y-61169477D01*
X199059793Y-61380820D01*
X199059793Y-61380824D01*
X199040723Y-61598797D01*
X199040723Y-61598802D01*
X199041689Y-61609840D01*
X199059078Y-61808610D01*
X199059793Y-61816775D01*
X199059793Y-61816779D01*
X199116422Y-62028122D01*
X199116424Y-62028126D01*
X199116425Y-62028130D01*
X199162661Y-62127284D01*
X199208897Y-62226438D01*
X199219206Y-62241161D01*
X199334402Y-62405677D01*
X199489123Y-62560398D01*
X199635263Y-62662726D01*
X199678887Y-62717302D01*
X199686081Y-62786800D01*
X199654558Y-62849155D01*
X199594328Y-62884569D01*
X199564141Y-62888300D01*
X199498130Y-62888300D01*
X199498123Y-62888301D01*
X199438516Y-62894708D01*
X199303671Y-62945002D01*
X199303668Y-62945004D01*
X199205660Y-63018373D01*
X199140195Y-63042790D01*
X199071922Y-63027938D01*
X199022517Y-62978533D01*
X199007665Y-62910260D01*
X199007815Y-62908366D01*
X199011277Y-62868800D01*
X199011058Y-62866300D01*
X199001584Y-62758006D01*
X198992207Y-62650823D01*
X198935575Y-62439470D01*
X198843102Y-62241162D01*
X198843100Y-62241159D01*
X198843099Y-62241157D01*
X198717599Y-62061924D01*
X198669364Y-62013689D01*
X198562877Y-61907202D01*
X198383639Y-61781698D01*
X198232414Y-61711181D01*
X198179977Y-61665010D01*
X198160825Y-61597816D01*
X198181041Y-61530935D01*
X198232414Y-61486418D01*
X198383639Y-61415902D01*
X198562877Y-61290398D01*
X198717598Y-61135677D01*
X198843102Y-60956439D01*
X198935575Y-60758130D01*
X198992207Y-60546777D01*
X199011277Y-60328800D01*
X198992207Y-60110823D01*
X198935575Y-59899470D01*
X198843102Y-59701162D01*
X198843100Y-59701159D01*
X198843099Y-59701157D01*
X198717599Y-59521924D01*
X198683797Y-59488122D01*
X198562877Y-59367202D01*
X198383639Y-59241698D01*
X198232414Y-59171181D01*
X198179977Y-59125010D01*
X198160825Y-59057816D01*
X198181041Y-58990935D01*
X198232414Y-58946418D01*
X198383639Y-58875902D01*
X198562877Y-58750398D01*
X198717598Y-58595677D01*
X198843102Y-58416439D01*
X198935575Y-58218130D01*
X198992207Y-58006777D01*
X199011277Y-57788800D01*
X198992207Y-57570823D01*
X198935575Y-57359470D01*
X198843102Y-57161162D01*
X198843100Y-57161159D01*
X198843099Y-57161157D01*
X198717599Y-56981924D01*
X198683797Y-56948122D01*
X198562877Y-56827202D01*
X198383639Y-56701698D01*
X198232414Y-56631181D01*
X198179977Y-56585010D01*
X198160825Y-56517816D01*
X198181041Y-56450935D01*
X198232414Y-56406418D01*
X198383639Y-56335902D01*
X198562877Y-56210398D01*
X198717598Y-56055677D01*
X198843102Y-55876439D01*
X198935575Y-55678130D01*
X198992207Y-55466777D01*
X199009989Y-55263523D01*
X199011277Y-55248802D01*
X199011277Y-55248797D01*
X199007569Y-55206418D01*
X198992207Y-55030823D01*
X198935575Y-54819470D01*
X198843102Y-54621162D01*
X198843100Y-54621159D01*
X198843099Y-54621157D01*
X198717599Y-54441924D01*
X198694370Y-54418695D01*
X198562877Y-54287202D01*
X198383639Y-54161698D01*
X198383640Y-54161698D01*
X198383638Y-54161697D01*
X198284484Y-54115461D01*
X198255046Y-54101734D01*
X204770500Y-54101734D01*
X204781996Y-54189047D01*
X204802591Y-54345477D01*
X204866222Y-54582952D01*
X204866225Y-54582962D01*
X204919592Y-54711800D01*
X204960306Y-54810092D01*
X205083233Y-55023008D01*
X205083235Y-55023011D01*
X205083236Y-55023012D01*
X205232897Y-55218054D01*
X205232903Y-55218061D01*
X205406738Y-55391896D01*
X205406744Y-55391901D01*
X205601792Y-55541567D01*
X205814708Y-55664494D01*
X206041847Y-55758578D01*
X206279323Y-55822209D01*
X206523073Y-55854300D01*
X206523080Y-55854300D01*
X206768920Y-55854300D01*
X206768927Y-55854300D01*
X207012677Y-55822209D01*
X207250153Y-55758578D01*
X207477292Y-55664494D01*
X207690208Y-55541567D01*
X207885256Y-55391901D01*
X208059101Y-55218056D01*
X208208767Y-55023008D01*
X208331694Y-54810092D01*
X208425778Y-54582953D01*
X208489409Y-54345477D01*
X208521500Y-54101727D01*
X208521500Y-53855873D01*
X208511642Y-53780995D01*
X208522407Y-53711960D01*
X208568787Y-53659704D01*
X208636056Y-53640819D01*
X208694008Y-53655978D01*
X208862833Y-53748164D01*
X208862832Y-53748164D01*
X208862836Y-53748165D01*
X208862839Y-53748167D01*
X209130954Y-53848169D01*
X209130960Y-53848170D01*
X209130962Y-53848171D01*
X209410566Y-53908995D01*
X209410568Y-53908995D01*
X209410572Y-53908996D01*
X209664220Y-53927137D01*
X209695999Y-53929410D01*
X209696000Y-53929410D01*
X209696001Y-53929410D01*
X209724595Y-53927364D01*
X209981428Y-53908996D01*
X210261046Y-53848169D01*
X210529161Y-53748167D01*
X210780315Y-53611026D01*
X211009395Y-53439539D01*
X211211739Y-53237195D01*
X211383226Y-53008115D01*
X211520367Y-52756961D01*
X211620369Y-52488846D01*
X211636208Y-52416036D01*
X211681195Y-52209233D01*
X211681195Y-52209232D01*
X211681196Y-52209228D01*
X211701610Y-51923800D01*
X211681196Y-51638372D01*
X211681072Y-51637803D01*
X211620371Y-51358762D01*
X211620370Y-51358760D01*
X211620369Y-51358754D01*
X211520367Y-51090639D01*
X211383226Y-50839485D01*
X211270606Y-50689042D01*
X211211745Y-50610412D01*
X211211729Y-50610394D01*
X211009405Y-50408070D01*
X211009387Y-50408054D01*
X210780317Y-50236575D01*
X210780309Y-50236570D01*
X210529166Y-50099435D01*
X210529167Y-50099435D01*
X210316826Y-50020236D01*
X210261046Y-49999431D01*
X210261043Y-49999430D01*
X210261037Y-49999428D01*
X209981433Y-49938604D01*
X209696001Y-49918190D01*
X209695999Y-49918190D01*
X209410566Y-49938604D01*
X209130962Y-49999428D01*
X208862833Y-50099435D01*
X208611690Y-50236570D01*
X208611682Y-50236575D01*
X208382612Y-50408054D01*
X208382594Y-50408070D01*
X208180270Y-50610394D01*
X208180254Y-50610412D01*
X208008775Y-50839482D01*
X208008770Y-50839490D01*
X207871635Y-51090633D01*
X207771628Y-51358762D01*
X207710804Y-51638366D01*
X207690390Y-51923798D01*
X207690390Y-51923801D01*
X207710450Y-52204282D01*
X207695598Y-52272555D01*
X207646193Y-52321960D01*
X207577920Y-52336812D01*
X207524766Y-52320515D01*
X207477295Y-52293107D01*
X207477285Y-52293103D01*
X207250162Y-52199025D01*
X207250155Y-52199023D01*
X207250153Y-52199022D01*
X207012677Y-52135391D01*
X206971939Y-52130027D01*
X206768934Y-52103300D01*
X206768927Y-52103300D01*
X206523073Y-52103300D01*
X206523065Y-52103300D01*
X206295843Y-52133216D01*
X206279323Y-52135391D01*
X206254561Y-52142026D01*
X206041847Y-52199022D01*
X206041837Y-52199025D01*
X205814714Y-52293103D01*
X205814705Y-52293107D01*
X205601787Y-52416036D01*
X205406745Y-52565697D01*
X205406738Y-52565703D01*
X205232903Y-52739538D01*
X205232897Y-52739545D01*
X205083236Y-52934587D01*
X204960307Y-53147505D01*
X204960303Y-53147514D01*
X204866225Y-53374637D01*
X204866222Y-53374647D01*
X204802886Y-53611024D01*
X204802592Y-53612120D01*
X204802590Y-53612131D01*
X204770500Y-53855865D01*
X204770500Y-54101734D01*
X198255046Y-54101734D01*
X198185330Y-54069225D01*
X198185326Y-54069224D01*
X198185322Y-54069222D01*
X197973977Y-54012593D01*
X197756002Y-53993523D01*
X197755998Y-53993523D01*
X197610682Y-54006236D01*
X197538023Y-54012593D01*
X197538020Y-54012593D01*
X197326677Y-54069222D01*
X197326668Y-54069226D01*
X197128361Y-54161698D01*
X197128357Y-54161700D01*
X196949121Y-54287202D01*
X196794402Y-54441921D01*
X196668900Y-54621157D01*
X196668898Y-54621161D01*
X196576426Y-54819468D01*
X196576422Y-54819477D01*
X196519793Y-55030820D01*
X196519793Y-55030824D01*
X196500723Y-55248797D01*
X196500723Y-55248802D01*
X196502011Y-55263523D01*
X196513242Y-55391902D01*
X196519793Y-55466775D01*
X196519793Y-55466779D01*
X196576422Y-55678122D01*
X196576424Y-55678126D01*
X196576425Y-55678130D01*
X196613937Y-55758574D01*
X196668897Y-55876438D01*
X196679206Y-55891161D01*
X196794402Y-56055677D01*
X196949123Y-56210398D01*
X197128360Y-56335901D01*
X197128361Y-56335902D01*
X197279583Y-56406418D01*
X197332022Y-56452590D01*
X197351174Y-56519784D01*
X197330958Y-56586665D01*
X197279583Y-56631182D01*
X197128361Y-56701698D01*
X197128357Y-56701700D01*
X196949121Y-56827202D01*
X196794402Y-56981921D01*
X196668900Y-57161157D01*
X196668898Y-57161161D01*
X196576426Y-57359468D01*
X196576422Y-57359477D01*
X196519793Y-57570820D01*
X196519793Y-57570824D01*
X196500723Y-57788797D01*
X196500723Y-57788802D01*
X196519793Y-58006775D01*
X196519793Y-58006779D01*
X196576422Y-58218122D01*
X196576424Y-58218126D01*
X196576425Y-58218130D01*
X196605129Y-58279685D01*
X196668897Y-58416438D01*
X196679206Y-58431161D01*
X196794402Y-58595677D01*
X196949123Y-58750398D01*
X197128360Y-58875901D01*
X197128361Y-58875902D01*
X197279583Y-58946418D01*
X197332022Y-58992590D01*
X197351174Y-59059784D01*
X197330958Y-59126665D01*
X197279583Y-59171182D01*
X197128361Y-59241698D01*
X197128357Y-59241700D01*
X196949121Y-59367202D01*
X196794402Y-59521921D01*
X196668900Y-59701157D01*
X196668898Y-59701161D01*
X196576426Y-59899468D01*
X196576422Y-59899477D01*
X196519793Y-60110820D01*
X196519793Y-60110824D01*
X196500723Y-60328797D01*
X196500723Y-60328802D01*
X196519793Y-60546775D01*
X196519793Y-60546779D01*
X196576422Y-60758122D01*
X196576424Y-60758126D01*
X196576425Y-60758130D01*
X196604293Y-60817893D01*
X196668897Y-60956438D01*
X196679206Y-60971161D01*
X196794402Y-61135677D01*
X196949123Y-61290398D01*
X197128360Y-61415901D01*
X197128361Y-61415902D01*
X197279583Y-61486418D01*
X197332022Y-61532590D01*
X197351174Y-61599784D01*
X197330958Y-61666665D01*
X197279583Y-61711182D01*
X197128361Y-61781698D01*
X197128357Y-61781700D01*
X196949121Y-61907202D01*
X196794402Y-62061921D01*
X196668900Y-62241157D01*
X196668898Y-62241161D01*
X196576426Y-62439468D01*
X196576422Y-62439477D01*
X196519793Y-62650820D01*
X196519793Y-62650823D01*
X196516724Y-62685902D01*
X196500723Y-62868797D01*
X196500723Y-62868802D01*
X178873426Y-62868802D01*
X178831710Y-62830773D01*
X178831708Y-62830771D01*
X178653188Y-62720236D01*
X178653182Y-62720234D01*
X178645614Y-62717302D01*
X178457389Y-62644383D01*
X178250988Y-62605800D01*
X178041012Y-62605800D01*
X177877750Y-62636319D01*
X177808235Y-62629288D01*
X177753556Y-62585790D01*
X177731074Y-62519636D01*
X177747927Y-62451829D01*
X177767280Y-62426753D01*
X177844174Y-62349859D01*
X177905495Y-62316376D01*
X177954633Y-62315653D01*
X178041012Y-62331800D01*
X178041015Y-62331800D01*
X178250986Y-62331800D01*
X178250988Y-62331800D01*
X178457389Y-62293217D01*
X178653185Y-62217365D01*
X178831710Y-62106827D01*
X178986884Y-61965367D01*
X179113423Y-61797803D01*
X179207017Y-61609840D01*
X179264480Y-61407880D01*
X179283854Y-61198800D01*
X179282010Y-61178905D01*
X179264480Y-60989720D01*
X179238531Y-60898519D01*
X179207017Y-60787760D01*
X179113423Y-60599797D01*
X178998949Y-60448209D01*
X178986882Y-60432230D01*
X178831710Y-60290773D01*
X178831708Y-60290771D01*
X178653188Y-60180236D01*
X178653182Y-60180234D01*
X178457389Y-60104383D01*
X178250988Y-60065800D01*
X178041012Y-60065800D01*
X177877750Y-60096319D01*
X177808235Y-60089288D01*
X177753556Y-60045790D01*
X177731074Y-59979636D01*
X177747927Y-59911829D01*
X177767280Y-59886753D01*
X177844174Y-59809859D01*
X177905495Y-59776376D01*
X177954633Y-59775653D01*
X178041012Y-59791800D01*
X178041015Y-59791800D01*
X178250986Y-59791800D01*
X178250988Y-59791800D01*
X178457389Y-59753217D01*
X178653185Y-59677365D01*
X178831710Y-59566827D01*
X178986884Y-59425367D01*
X179113423Y-59257803D01*
X179207017Y-59069840D01*
X179264480Y-58867880D01*
X179283854Y-58658800D01*
X179264480Y-58449720D01*
X179207017Y-58247760D01*
X179206240Y-58246200D01*
X179123122Y-58079276D01*
X179113423Y-58059797D01*
X179008338Y-57920642D01*
X178986882Y-57892230D01*
X178831710Y-57750773D01*
X178831708Y-57750771D01*
X178653188Y-57640236D01*
X178653182Y-57640234D01*
X178457389Y-57564383D01*
X178250988Y-57525800D01*
X178041012Y-57525800D01*
X177877750Y-57556318D01*
X177808236Y-57549288D01*
X177753557Y-57505790D01*
X177731075Y-57439636D01*
X177747928Y-57371830D01*
X177767281Y-57346753D01*
X177844175Y-57269859D01*
X177905496Y-57236376D01*
X177954638Y-57235654D01*
X178041012Y-57251800D01*
X178041013Y-57251800D01*
X178250986Y-57251800D01*
X178250988Y-57251800D01*
X178457389Y-57213217D01*
X178653185Y-57137365D01*
X178831710Y-57026827D01*
X178986884Y-56885367D01*
X179113423Y-56717803D01*
X179207017Y-56529840D01*
X179264480Y-56327880D01*
X179283854Y-56118800D01*
X179264480Y-55909720D01*
X179207017Y-55707760D01*
X179113423Y-55519797D01*
X178986884Y-55352233D01*
X178986882Y-55352230D01*
X178831710Y-55210773D01*
X178831708Y-55210771D01*
X178653188Y-55100236D01*
X178653182Y-55100234D01*
X178457389Y-55024383D01*
X178250988Y-54985800D01*
X178041012Y-54985800D01*
X177834611Y-55024383D01*
X177710792Y-55072350D01*
X177638817Y-55100234D01*
X177638811Y-55100236D01*
X177460291Y-55210771D01*
X177460289Y-55210773D01*
X177305117Y-55352230D01*
X177178577Y-55519796D01*
X177084987Y-55707749D01*
X177084982Y-55707762D01*
X177027519Y-55909720D01*
X177008146Y-56118799D01*
X177008146Y-56118800D01*
X177027251Y-56324979D01*
X177013836Y-56393549D01*
X176991461Y-56424101D01*
X164217650Y-69197913D01*
X164156327Y-69231398D01*
X164086635Y-69226414D01*
X164030702Y-69184542D01*
X164006285Y-69119078D01*
X164010702Y-69076303D01*
X164024480Y-69027880D01*
X164043854Y-68818800D01*
X164024480Y-68609720D01*
X163967017Y-68407760D01*
X163946372Y-68366300D01*
X163911846Y-68296961D01*
X163873423Y-68219797D01*
X163806062Y-68130597D01*
X163746882Y-68052230D01*
X163591710Y-67910773D01*
X163591708Y-67910771D01*
X163413188Y-67800236D01*
X163413182Y-67800234D01*
X163217389Y-67724383D01*
X163010988Y-67685800D01*
X162801012Y-67685800D01*
X162637750Y-67716319D01*
X162568235Y-67709288D01*
X162513556Y-67665790D01*
X162491074Y-67599636D01*
X162507927Y-67531829D01*
X162527280Y-67506753D01*
X162604174Y-67429859D01*
X162665495Y-67396376D01*
X162714633Y-67395653D01*
X162801012Y-67411800D01*
X162801015Y-67411800D01*
X163010986Y-67411800D01*
X163010988Y-67411800D01*
X163217389Y-67373217D01*
X163413185Y-67297365D01*
X163591710Y-67186827D01*
X163746884Y-67045367D01*
X163873423Y-66877803D01*
X163967017Y-66689840D01*
X164024480Y-66487880D01*
X164043854Y-66278800D01*
X164024480Y-66069720D01*
X163967017Y-65867760D01*
X163966240Y-65866200D01*
X163921061Y-65775468D01*
X163873423Y-65679797D01*
X163746884Y-65512233D01*
X163746882Y-65512230D01*
X163591710Y-65370773D01*
X163591708Y-65370771D01*
X163413188Y-65260236D01*
X163413182Y-65260234D01*
X163217389Y-65184383D01*
X163010988Y-65145800D01*
X162801012Y-65145800D01*
X162637750Y-65176318D01*
X162568236Y-65169288D01*
X162513557Y-65125790D01*
X162491075Y-65059636D01*
X162507928Y-64991830D01*
X162527281Y-64966753D01*
X162604175Y-64889859D01*
X162665496Y-64856376D01*
X162714638Y-64855654D01*
X162801012Y-64871800D01*
X162801013Y-64871800D01*
X163010986Y-64871800D01*
X163010988Y-64871800D01*
X163217389Y-64833217D01*
X163413185Y-64757365D01*
X163591710Y-64646827D01*
X163746884Y-64505367D01*
X163873423Y-64337803D01*
X163967017Y-64149840D01*
X164024480Y-63947880D01*
X164043854Y-63738800D01*
X164042399Y-63723103D01*
X164024480Y-63529720D01*
X164009969Y-63478721D01*
X163967017Y-63327760D01*
X163946728Y-63287015D01*
X163886657Y-63166375D01*
X163873423Y-63139797D01*
X163788951Y-63027938D01*
X163746882Y-62972230D01*
X163591710Y-62830773D01*
X163591708Y-62830771D01*
X163413188Y-62720236D01*
X163413182Y-62720234D01*
X163405614Y-62717302D01*
X163217389Y-62644383D01*
X163010988Y-62605800D01*
X162801012Y-62605800D01*
X162637750Y-62636319D01*
X162568235Y-62629288D01*
X162513556Y-62585790D01*
X162491074Y-62519636D01*
X162507927Y-62451829D01*
X162527280Y-62426753D01*
X162604174Y-62349859D01*
X162665495Y-62316376D01*
X162714633Y-62315653D01*
X162801012Y-62331800D01*
X162801015Y-62331800D01*
X163010986Y-62331800D01*
X163010988Y-62331800D01*
X163217389Y-62293217D01*
X163413185Y-62217365D01*
X163591710Y-62106827D01*
X163746884Y-61965367D01*
X163873423Y-61797803D01*
X163967017Y-61609840D01*
X164024480Y-61407880D01*
X164043854Y-61198800D01*
X164042010Y-61178905D01*
X164024480Y-60989720D01*
X163998531Y-60898519D01*
X163967017Y-60787760D01*
X163873423Y-60599797D01*
X163758949Y-60448209D01*
X163746882Y-60432230D01*
X163591710Y-60290773D01*
X163591708Y-60290771D01*
X163413188Y-60180236D01*
X163413182Y-60180234D01*
X163217389Y-60104383D01*
X163010988Y-60065800D01*
X162801012Y-60065800D01*
X162637750Y-60096319D01*
X162568235Y-60089288D01*
X162513556Y-60045790D01*
X162491074Y-59979636D01*
X162507927Y-59911829D01*
X162527280Y-59886753D01*
X162604174Y-59809859D01*
X162665495Y-59776376D01*
X162714633Y-59775653D01*
X162801012Y-59791800D01*
X162801015Y-59791800D01*
X163010986Y-59791800D01*
X163010988Y-59791800D01*
X163217389Y-59753217D01*
X163413185Y-59677365D01*
X163591710Y-59566827D01*
X163746884Y-59425367D01*
X163873423Y-59257803D01*
X163967017Y-59069840D01*
X164024480Y-58867880D01*
X164043854Y-58658800D01*
X164024480Y-58449720D01*
X163967017Y-58247760D01*
X163966240Y-58246200D01*
X163883122Y-58079276D01*
X163873423Y-58059797D01*
X163768338Y-57920642D01*
X163746882Y-57892230D01*
X163591710Y-57750773D01*
X163591708Y-57750771D01*
X163413188Y-57640236D01*
X163413182Y-57640234D01*
X163217389Y-57564383D01*
X163010988Y-57525800D01*
X162801012Y-57525800D01*
X162594611Y-57564383D01*
X162470792Y-57612350D01*
X162398817Y-57640234D01*
X162398811Y-57640236D01*
X162220291Y-57750771D01*
X162220289Y-57750773D01*
X162065117Y-57892230D01*
X161938577Y-58059796D01*
X161844987Y-58247749D01*
X161844982Y-58247762D01*
X161787519Y-58449720D01*
X161768146Y-58658799D01*
X161768146Y-58658800D01*
X161787251Y-58864980D01*
X161773836Y-58933550D01*
X161751461Y-58964102D01*
X157677286Y-63038278D01*
X157565481Y-63150082D01*
X157565479Y-63150085D01*
X157522329Y-63224825D01*
X157522328Y-63224826D01*
X157512817Y-63241300D01*
X157486423Y-63287015D01*
X157445499Y-63439743D01*
X157445499Y-63439745D01*
X157445499Y-63607846D01*
X157445500Y-63607859D01*
X157445500Y-64058887D01*
X157425815Y-64125926D01*
X157418450Y-64136196D01*
X157416186Y-64139034D01*
X157320211Y-64291776D01*
X157260631Y-64462045D01*
X157260630Y-64462050D01*
X157240435Y-64641296D01*
X157240435Y-64641303D01*
X157260630Y-64820549D01*
X157260631Y-64820554D01*
X157320211Y-64990823D01*
X157406674Y-65128427D01*
X157416184Y-65143562D01*
X157543738Y-65271116D01*
X157641578Y-65332593D01*
X157682729Y-65358450D01*
X157729020Y-65410785D01*
X157739668Y-65479839D01*
X157711293Y-65543687D01*
X157704440Y-65551124D01*
X157677286Y-65578278D01*
X157565481Y-65690082D01*
X157565477Y-65690087D01*
X157516179Y-65775474D01*
X157516180Y-65775475D01*
X157486422Y-65827016D01*
X157469184Y-65891350D01*
X157445499Y-65979743D01*
X157445499Y-65979745D01*
X157445499Y-66147846D01*
X157445500Y-66147859D01*
X157445500Y-69658887D01*
X157425815Y-69725926D01*
X157418450Y-69736196D01*
X157416186Y-69739034D01*
X157320211Y-69891776D01*
X157260631Y-70062045D01*
X157260630Y-70062050D01*
X157240435Y-70241296D01*
X157240435Y-70241303D01*
X157260630Y-70420549D01*
X157260631Y-70420554D01*
X157320211Y-70590823D01*
X157416184Y-70743562D01*
X157543738Y-70871116D01*
X157634080Y-70927882D01*
X157665698Y-70947749D01*
X157696478Y-70967089D01*
X157866745Y-71026668D01*
X157935384Y-71034401D01*
X157999796Y-71061466D01*
X158039352Y-71119060D01*
X158045500Y-71157621D01*
X158045500Y-74857265D01*
X158025815Y-74924304D01*
X157973011Y-74970059D01*
X157962455Y-74974307D01*
X157808977Y-75028011D01*
X157656237Y-75123984D01*
X157528684Y-75251537D01*
X157432711Y-75404276D01*
X157373131Y-75574545D01*
X157373130Y-75574550D01*
X157352935Y-75753796D01*
X157352935Y-75753803D01*
X157373130Y-75933049D01*
X157373131Y-75933054D01*
X157432711Y-76103323D01*
X157486246Y-76188523D01*
X157528684Y-76256062D01*
X157656238Y-76383616D01*
X157746580Y-76440382D01*
X157804171Y-76476569D01*
X157808978Y-76479589D01*
X157817349Y-76482518D01*
X157979245Y-76539168D01*
X157979250Y-76539169D01*
X158158496Y-76559365D01*
X158158500Y-76559365D01*
X158158504Y-76559365D01*
X158337749Y-76539169D01*
X158337752Y-76539168D01*
X158337755Y-76539168D01*
X158508022Y-76479589D01*
X158508023Y-76479587D01*
X158508029Y-76479586D01*
X158514295Y-76476569D01*
X158515190Y-76478428D01*
X158572755Y-76462156D01*
X158639592Y-76482518D01*
X158684810Y-76535783D01*
X158695500Y-76586150D01*
X158695500Y-79841202D01*
X158675815Y-79908241D01*
X158659181Y-79928883D01*
X158177465Y-80410598D01*
X158116142Y-80444083D01*
X158103668Y-80446137D01*
X158016750Y-80455930D01*
X157846478Y-80515510D01*
X157693737Y-80611484D01*
X157566184Y-80739037D01*
X157470211Y-80891776D01*
X157410631Y-81062045D01*
X157410630Y-81062050D01*
X157390435Y-81241296D01*
X157390435Y-81241303D01*
X157410630Y-81420549D01*
X157410631Y-81420554D01*
X157470211Y-81590823D01*
X157549446Y-81716924D01*
X157566184Y-81743562D01*
X157693738Y-81871116D01*
X157846478Y-81967089D01*
X158016745Y-82026668D01*
X158016750Y-82026669D01*
X158195996Y-82046865D01*
X158196000Y-82046865D01*
X158196004Y-82046865D01*
X158375249Y-82026669D01*
X158375252Y-82026668D01*
X158375255Y-82026668D01*
X158545522Y-81967089D01*
X158698262Y-81871116D01*
X158825816Y-81743562D01*
X158921789Y-81590822D01*
X158981368Y-81420555D01*
X158991161Y-81333629D01*
X159018226Y-81269218D01*
X159026680Y-81259853D01*
X159183822Y-81102712D01*
X159245142Y-81069230D01*
X159314834Y-81074214D01*
X159370767Y-81116086D01*
X159395184Y-81181550D01*
X159395500Y-81190396D01*
X159395500Y-84841202D01*
X159375815Y-84908241D01*
X159359181Y-84928883D01*
X158327465Y-85960598D01*
X158266142Y-85994083D01*
X158253668Y-85996137D01*
X158166750Y-86005930D01*
X157996478Y-86065510D01*
X157843737Y-86161484D01*
X157716184Y-86289037D01*
X157620211Y-86441776D01*
X157560631Y-86612045D01*
X157560630Y-86612050D01*
X157540435Y-86791296D01*
X157540435Y-86791303D01*
X157560630Y-86970549D01*
X157560631Y-86970554D01*
X157620211Y-87140823D01*
X157642697Y-87176609D01*
X157716184Y-87293562D01*
X157843738Y-87421116D01*
X157934080Y-87477882D01*
X157946928Y-87485955D01*
X157996478Y-87517089D01*
X158166745Y-87576668D01*
X158166750Y-87576669D01*
X158345996Y-87596865D01*
X158346000Y-87596865D01*
X158346004Y-87596865D01*
X158525249Y-87576669D01*
X158525252Y-87576668D01*
X158525255Y-87576668D01*
X158695522Y-87517089D01*
X158848262Y-87421116D01*
X158975816Y-87293562D01*
X159071789Y-87140822D01*
X159131368Y-86970555D01*
X159141161Y-86883629D01*
X159168226Y-86819218D01*
X159176690Y-86809843D01*
X160354506Y-85632028D01*
X160354511Y-85632024D01*
X160364714Y-85621820D01*
X160364716Y-85621820D01*
X160476520Y-85510016D01*
X160555577Y-85373084D01*
X160596500Y-85220357D01*
X160596500Y-72028896D01*
X160616185Y-71961857D01*
X160632814Y-71941220D01*
X161594352Y-70979682D01*
X161655672Y-70946199D01*
X161725363Y-70951183D01*
X161781297Y-70993055D01*
X161805714Y-71058519D01*
X161801297Y-71101298D01*
X161787519Y-71149722D01*
X161768146Y-71358799D01*
X161768146Y-71358800D01*
X161787519Y-71567879D01*
X161844982Y-71769837D01*
X161844987Y-71769850D01*
X161938577Y-71957803D01*
X162065117Y-72125369D01*
X162220289Y-72266826D01*
X162220291Y-72266828D01*
X162398811Y-72377363D01*
X162398812Y-72377363D01*
X162398815Y-72377365D01*
X162594611Y-72453217D01*
X162801012Y-72491800D01*
X162801014Y-72491800D01*
X163010985Y-72491800D01*
X163010988Y-72491800D01*
X163091218Y-72476802D01*
X163160729Y-72483833D01*
X163215408Y-72527330D01*
X163237891Y-72593484D01*
X163238000Y-72598691D01*
X163238000Y-72658908D01*
X163218315Y-72725947D01*
X163165511Y-72771702D01*
X163096353Y-72781646D01*
X163091216Y-72780797D01*
X163042561Y-72771702D01*
X163010988Y-72765800D01*
X162801012Y-72765800D01*
X162594611Y-72804383D01*
X162502454Y-72840085D01*
X162398817Y-72880234D01*
X162398815Y-72880235D01*
X162220291Y-72990771D01*
X162220289Y-72990773D01*
X162065117Y-73132230D01*
X161938577Y-73299796D01*
X161844987Y-73487749D01*
X161844982Y-73487762D01*
X161787519Y-73689720D01*
X161768146Y-73898799D01*
X161768146Y-73898800D01*
X161787519Y-74107879D01*
X161844982Y-74309837D01*
X161844987Y-74309850D01*
X161938577Y-74497803D01*
X162065117Y-74665369D01*
X162220289Y-74806826D01*
X162220291Y-74806828D01*
X162398811Y-74917363D01*
X162398812Y-74917363D01*
X162398815Y-74917365D01*
X162594611Y-74993217D01*
X162801012Y-75031800D01*
X162801014Y-75031800D01*
X163010985Y-75031800D01*
X163010988Y-75031800D01*
X163091218Y-75016802D01*
X163160729Y-75023833D01*
X163215408Y-75067330D01*
X163237891Y-75133484D01*
X163238000Y-75138691D01*
X163238000Y-87986203D01*
X163218315Y-88053242D01*
X163201681Y-88073884D01*
X161733584Y-89541981D01*
X161672261Y-89575466D01*
X161645903Y-89578300D01*
X139211940Y-89578300D01*
X139171019Y-89589264D01*
X139171019Y-89589265D01*
X139133751Y-89599251D01*
X139059214Y-89619223D01*
X139059209Y-89619226D01*
X138922290Y-89698275D01*
X138922282Y-89698281D01*
X138810478Y-89810086D01*
X136623584Y-91996981D01*
X136562261Y-92030466D01*
X136535903Y-92033300D01*
X134838695Y-92033300D01*
X134761454Y-92045533D01*
X134606972Y-92070001D01*
X134383849Y-92142497D01*
X134174804Y-92249012D01*
X133985010Y-92386904D01*
X133985005Y-92386908D01*
X133819108Y-92552805D01*
X133819104Y-92552810D01*
X133681212Y-92742604D01*
X133574697Y-92951649D01*
X133502201Y-93174772D01*
X133465500Y-93406495D01*
X133465500Y-93641104D01*
X133502201Y-93872827D01*
X133574697Y-94095950D01*
X133681212Y-94304995D01*
X133819104Y-94494789D01*
X133819108Y-94494794D01*
X133985005Y-94660691D01*
X133985010Y-94660695D01*
X134121646Y-94759966D01*
X134174808Y-94798590D01*
X134356135Y-94890981D01*
X134383849Y-94905102D01*
X134495410Y-94941350D01*
X134606974Y-94977599D01*
X134838695Y-95014300D01*
X134838696Y-95014300D01*
X137053304Y-95014300D01*
X137053305Y-95014300D01*
X137285026Y-94977599D01*
X137508153Y-94905101D01*
X137717192Y-94798590D01*
X137906996Y-94660690D01*
X138072890Y-94494796D01*
X138210790Y-94304992D01*
X138317301Y-94095953D01*
X138389799Y-93872826D01*
X138426500Y-93641105D01*
X138426500Y-93406495D01*
X138389799Y-93174774D01*
X138317301Y-92951647D01*
X138210790Y-92742608D01*
X138193171Y-92718358D01*
X138072895Y-92552810D01*
X138072891Y-92552805D01*
X138007241Y-92487155D01*
X137973756Y-92425832D01*
X137978740Y-92356140D01*
X138007241Y-92311793D01*
X138747131Y-91571904D01*
X139503416Y-90815619D01*
X139564739Y-90782134D01*
X139591097Y-90779300D01*
X161859331Y-90779300D01*
X161859347Y-90779301D01*
X161866943Y-90779301D01*
X162025054Y-90779301D01*
X162025057Y-90779301D01*
X162177785Y-90738377D01*
X162227904Y-90709439D01*
X162314716Y-90659320D01*
X162426520Y-90547516D01*
X162426520Y-90547514D01*
X162436728Y-90537307D01*
X162436729Y-90537304D01*
X163701320Y-89272713D01*
X163762642Y-89239230D01*
X163832334Y-89244214D01*
X163888267Y-89286086D01*
X163912684Y-89351550D01*
X163913000Y-89360396D01*
X163913000Y-90761203D01*
X163893315Y-90828242D01*
X163876681Y-90848884D01*
X150383584Y-104341981D01*
X150322261Y-104375466D01*
X150295903Y-104378300D01*
X138378845Y-104378300D01*
X138311806Y-104358615D01*
X138268360Y-104310595D01*
X138252810Y-104280078D01*
X138210790Y-104197608D01*
X138193171Y-104173358D01*
X138072895Y-104007810D01*
X138072891Y-104007805D01*
X137906994Y-103841908D01*
X137906989Y-103841904D01*
X137717195Y-103704012D01*
X137717194Y-103704011D01*
X137717192Y-103704010D01*
X137612672Y-103650754D01*
X137508150Y-103597497D01*
X137285027Y-103525001D01*
X137169165Y-103506650D01*
X137053305Y-103488300D01*
X134838695Y-103488300D01*
X134761454Y-103500533D01*
X134606972Y-103525001D01*
X134383849Y-103597497D01*
X134174804Y-103704012D01*
X133985010Y-103841904D01*
X133985005Y-103841908D01*
X133819108Y-104007805D01*
X133819104Y-104007810D01*
X133681212Y-104197604D01*
X133574697Y-104406649D01*
X133502201Y-104629772D01*
X133465500Y-104861495D01*
X133465500Y-105096104D01*
X129900500Y-105096104D01*
X129900500Y-100968800D01*
X133466000Y-100968800D01*
X133466000Y-101016644D01*
X133472401Y-101076172D01*
X133472403Y-101076179D01*
X133522645Y-101210886D01*
X133522649Y-101210893D01*
X133608809Y-101325987D01*
X133608812Y-101325990D01*
X133723906Y-101412150D01*
X133723913Y-101412154D01*
X133858620Y-101462396D01*
X133858627Y-101462398D01*
X133918155Y-101468799D01*
X133918172Y-101468800D01*
X134956000Y-101468800D01*
X134956000Y-100968800D01*
X136936000Y-100968800D01*
X136936000Y-101468800D01*
X137973828Y-101468800D01*
X137973844Y-101468799D01*
X138033372Y-101462398D01*
X138033379Y-101462396D01*
X138168086Y-101412154D01*
X138168093Y-101412150D01*
X138283187Y-101325990D01*
X138283190Y-101325987D01*
X138369350Y-101210893D01*
X138369354Y-101210886D01*
X138419596Y-101076179D01*
X138419598Y-101076172D01*
X138425999Y-101016644D01*
X138426000Y-101016627D01*
X138426000Y-100968800D01*
X136936000Y-100968800D01*
X134956000Y-100968800D01*
X133466000Y-100968800D01*
X129900500Y-100968800D01*
X129900500Y-100043804D01*
X135286000Y-100043804D01*
X135311364Y-100171315D01*
X135361116Y-100291427D01*
X135433345Y-100399525D01*
X135525275Y-100491455D01*
X135633373Y-100563684D01*
X135753485Y-100613436D01*
X135880996Y-100638800D01*
X136011004Y-100638800D01*
X136138515Y-100613436D01*
X136258627Y-100563684D01*
X136366725Y-100491455D01*
X136458655Y-100399525D01*
X136530884Y-100291427D01*
X136580636Y-100171315D01*
X136606000Y-100043804D01*
X136606000Y-99913796D01*
X136580636Y-99786285D01*
X136530884Y-99666173D01*
X136458655Y-99558075D01*
X136366725Y-99466145D01*
X136258627Y-99393916D01*
X136138515Y-99344164D01*
X136011004Y-99318800D01*
X135880996Y-99318800D01*
X135753485Y-99344164D01*
X135633373Y-99393916D01*
X135525275Y-99466145D01*
X135433345Y-99558075D01*
X135361116Y-99666173D01*
X135311364Y-99786285D01*
X135286000Y-99913796D01*
X135286000Y-100043804D01*
X129900500Y-100043804D01*
X129900500Y-98988800D01*
X133466000Y-98988800D01*
X134956000Y-98988800D01*
X134956000Y-98488800D01*
X136936000Y-98488800D01*
X136936000Y-98988800D01*
X138426000Y-98988800D01*
X138426000Y-98940972D01*
X138425999Y-98940955D01*
X138419598Y-98881427D01*
X138419596Y-98881420D01*
X138369354Y-98746713D01*
X138369350Y-98746706D01*
X138283190Y-98631612D01*
X138283187Y-98631609D01*
X138168093Y-98545449D01*
X138168086Y-98545445D01*
X138033379Y-98495203D01*
X138033372Y-98495201D01*
X137973844Y-98488800D01*
X136936000Y-98488800D01*
X134956000Y-98488800D01*
X133918155Y-98488800D01*
X133858627Y-98495201D01*
X133858620Y-98495203D01*
X133723913Y-98545445D01*
X133723906Y-98545449D01*
X133608812Y-98631609D01*
X133608809Y-98631612D01*
X133522649Y-98746706D01*
X133522645Y-98746713D01*
X133472403Y-98881420D01*
X133472401Y-98881427D01*
X133466000Y-98940955D01*
X133466000Y-98988800D01*
X129900500Y-98988800D01*
X129900500Y-95150088D01*
X150545500Y-95150088D01*
X150577161Y-95390585D01*
X150639947Y-95624904D01*
X150660290Y-95674016D01*
X150732776Y-95849012D01*
X150854064Y-96059089D01*
X150854066Y-96059092D01*
X150854067Y-96059093D01*
X151001733Y-96251536D01*
X151001739Y-96251543D01*
X151173256Y-96423060D01*
X151173262Y-96423065D01*
X151365711Y-96570736D01*
X151575788Y-96692024D01*
X151799900Y-96784854D01*
X152034211Y-96847638D01*
X152214586Y-96871384D01*
X152274711Y-96879300D01*
X152274712Y-96879300D01*
X152517289Y-96879300D01*
X152565388Y-96872967D01*
X152757789Y-96847638D01*
X152992100Y-96784854D01*
X153216212Y-96692024D01*
X153426289Y-96570736D01*
X153618738Y-96423065D01*
X153790265Y-96251538D01*
X153937936Y-96059089D01*
X154059224Y-95849012D01*
X154152054Y-95624900D01*
X154214838Y-95390589D01*
X154246500Y-95150088D01*
X154246500Y-94907512D01*
X154214838Y-94667011D01*
X154152054Y-94432700D01*
X154059224Y-94208588D01*
X153937936Y-93998511D01*
X153877018Y-93919121D01*
X153790266Y-93806063D01*
X153790260Y-93806056D01*
X153618743Y-93634539D01*
X153618736Y-93634533D01*
X153426293Y-93486867D01*
X153426292Y-93486866D01*
X153426289Y-93486864D01*
X153216212Y-93365576D01*
X153216205Y-93365573D01*
X152992104Y-93272747D01*
X152757785Y-93209961D01*
X152517289Y-93178300D01*
X152517288Y-93178300D01*
X152274712Y-93178300D01*
X152274711Y-93178300D01*
X152034214Y-93209961D01*
X151799895Y-93272747D01*
X151575794Y-93365573D01*
X151575785Y-93365577D01*
X151365706Y-93486867D01*
X151173263Y-93634533D01*
X151173256Y-93634539D01*
X151001739Y-93806056D01*
X151001733Y-93806063D01*
X150854067Y-93998506D01*
X150732777Y-94208585D01*
X150732773Y-94208594D01*
X150639947Y-94432695D01*
X150577161Y-94667014D01*
X150545500Y-94907511D01*
X150545500Y-95150088D01*
X129900500Y-95150088D01*
X129900500Y-89513800D01*
X133466000Y-89513800D01*
X133466000Y-89561644D01*
X133472401Y-89621172D01*
X133472403Y-89621179D01*
X133522645Y-89755886D01*
X133522649Y-89755893D01*
X133608809Y-89870987D01*
X133608812Y-89870990D01*
X133723906Y-89957150D01*
X133723913Y-89957154D01*
X133858620Y-90007396D01*
X133858627Y-90007398D01*
X133918155Y-90013799D01*
X133918172Y-90013800D01*
X134956000Y-90013800D01*
X134956000Y-89513800D01*
X136936000Y-89513800D01*
X136936000Y-90013800D01*
X137973828Y-90013800D01*
X137973844Y-90013799D01*
X138033372Y-90007398D01*
X138033379Y-90007396D01*
X138168086Y-89957154D01*
X138168093Y-89957150D01*
X138283187Y-89870990D01*
X138283190Y-89870987D01*
X138369350Y-89755893D01*
X138369354Y-89755886D01*
X138419596Y-89621179D01*
X138419598Y-89621172D01*
X138425999Y-89561644D01*
X138426000Y-89561627D01*
X138426000Y-89513800D01*
X136936000Y-89513800D01*
X134956000Y-89513800D01*
X133466000Y-89513800D01*
X129900500Y-89513800D01*
X129900500Y-88588804D01*
X135286000Y-88588804D01*
X135311364Y-88716315D01*
X135361116Y-88836427D01*
X135433345Y-88944525D01*
X135525275Y-89036455D01*
X135633373Y-89108684D01*
X135753485Y-89158436D01*
X135880996Y-89183800D01*
X136011004Y-89183800D01*
X136138515Y-89158436D01*
X136258627Y-89108684D01*
X136366725Y-89036455D01*
X136458655Y-88944525D01*
X136530884Y-88836427D01*
X136580636Y-88716315D01*
X136606000Y-88588804D01*
X136606000Y-88458796D01*
X136580636Y-88331285D01*
X136530884Y-88211173D01*
X136458655Y-88103075D01*
X136366725Y-88011145D01*
X136258627Y-87938916D01*
X136138515Y-87889164D01*
X136011004Y-87863800D01*
X135880996Y-87863800D01*
X135753485Y-87889164D01*
X135633373Y-87938916D01*
X135525275Y-88011145D01*
X135433345Y-88103075D01*
X135361116Y-88211173D01*
X135311364Y-88331285D01*
X135286000Y-88458796D01*
X135286000Y-88588804D01*
X129900500Y-88588804D01*
X129900500Y-87533800D01*
X133466000Y-87533800D01*
X134956000Y-87533800D01*
X134956000Y-87033800D01*
X136936000Y-87033800D01*
X136936000Y-87533800D01*
X138426000Y-87533800D01*
X138426000Y-87485972D01*
X138425999Y-87485955D01*
X138419598Y-87426427D01*
X138419596Y-87426420D01*
X138369354Y-87291713D01*
X138369350Y-87291706D01*
X138283190Y-87176612D01*
X138283187Y-87176609D01*
X138168093Y-87090449D01*
X138168086Y-87090445D01*
X138033379Y-87040203D01*
X138033372Y-87040201D01*
X137973844Y-87033800D01*
X136936000Y-87033800D01*
X134956000Y-87033800D01*
X133918155Y-87033800D01*
X133858627Y-87040201D01*
X133858620Y-87040203D01*
X133723913Y-87090445D01*
X133723906Y-87090449D01*
X133608812Y-87176609D01*
X133608809Y-87176612D01*
X133522649Y-87291706D01*
X133522645Y-87291713D01*
X133472403Y-87426420D01*
X133472401Y-87426427D01*
X133466000Y-87485955D01*
X133466000Y-87533800D01*
X129900500Y-87533800D01*
X129900500Y-86016738D01*
X152214799Y-86016738D01*
X152319440Y-86036300D01*
X152532561Y-86036300D01*
X152637200Y-86016738D01*
X152426001Y-85805539D01*
X152214799Y-86016738D01*
X129900500Y-86016738D01*
X129900500Y-84886300D01*
X151271073Y-84886300D01*
X151290737Y-85098516D01*
X151291580Y-85101478D01*
X151457389Y-84935670D01*
X152051000Y-84935670D01*
X152076556Y-85031045D01*
X152125925Y-85116555D01*
X152195745Y-85186375D01*
X152281255Y-85235744D01*
X152376630Y-85261300D01*
X152475370Y-85261300D01*
X152570745Y-85235744D01*
X152656255Y-85186375D01*
X152726075Y-85116555D01*
X152775444Y-85031045D01*
X152801000Y-84935670D01*
X152801000Y-84836930D01*
X152775444Y-84741555D01*
X152726075Y-84656045D01*
X152656255Y-84586225D01*
X152570745Y-84536856D01*
X152475370Y-84511300D01*
X152376630Y-84511300D01*
X152281255Y-84536856D01*
X152195745Y-84586225D01*
X152125925Y-84656045D01*
X152076556Y-84741555D01*
X152051000Y-84836930D01*
X152051000Y-84935670D01*
X151457389Y-84935670D01*
X151506760Y-84886299D01*
X151291580Y-84671119D01*
X151290738Y-84674081D01*
X151271073Y-84886299D01*
X151271073Y-84886300D01*
X129900500Y-84886300D01*
X129900500Y-83044170D01*
X151275500Y-83044170D01*
X151275501Y-83044176D01*
X151281908Y-83103783D01*
X151332202Y-83238628D01*
X151332206Y-83238635D01*
X151418452Y-83353844D01*
X151418455Y-83353847D01*
X151533664Y-83440093D01*
X151533671Y-83440097D01*
X151668517Y-83490391D01*
X151668516Y-83490391D01*
X151675444Y-83491135D01*
X151728127Y-83496800D01*
X152262480Y-83496799D01*
X152329518Y-83516483D01*
X152375273Y-83569287D01*
X152385217Y-83638446D01*
X152356192Y-83702002D01*
X152297414Y-83739776D01*
X152285264Y-83742688D01*
X152214799Y-83755859D01*
X152214799Y-83755860D01*
X152800512Y-84341573D01*
X152811780Y-84354521D01*
X152842127Y-84394706D01*
X152842129Y-84394708D01*
X152970356Y-84511603D01*
X152974498Y-84515559D01*
X153560418Y-85101479D01*
X153561261Y-85098521D01*
X153561262Y-85098515D01*
X153581456Y-84880592D01*
X153583859Y-84880814D01*
X153600612Y-84823761D01*
X153653416Y-84778006D01*
X153704927Y-84766800D01*
X153802608Y-84766800D01*
X153802610Y-84766800D01*
X154012198Y-84727621D01*
X154211019Y-84650598D01*
X154392302Y-84538352D01*
X154549872Y-84394707D01*
X154678366Y-84224555D01*
X154773405Y-84033689D01*
X154831756Y-83828610D01*
X154851429Y-83616300D01*
X154831756Y-83403990D01*
X154773405Y-83198911D01*
X154773403Y-83198906D01*
X154773403Y-83198905D01*
X154678367Y-83008046D01*
X154549872Y-82837893D01*
X154509917Y-82801469D01*
X154392302Y-82694248D01*
X154211019Y-82582002D01*
X154211017Y-82582001D01*
X154022776Y-82509077D01*
X154012198Y-82504979D01*
X153802610Y-82465800D01*
X153700499Y-82465800D01*
X153633460Y-82446115D01*
X153587705Y-82393311D01*
X153576499Y-82341800D01*
X153576499Y-81648429D01*
X153576498Y-81648423D01*
X153576497Y-81648416D01*
X153570307Y-81590822D01*
X153570091Y-81588816D01*
X153519797Y-81453971D01*
X153519793Y-81453964D01*
X153433547Y-81338755D01*
X153433544Y-81338752D01*
X153318335Y-81252506D01*
X153318328Y-81252502D01*
X153183482Y-81202208D01*
X153183483Y-81202208D01*
X153123883Y-81195801D01*
X153123881Y-81195800D01*
X153123873Y-81195800D01*
X153123864Y-81195800D01*
X151728129Y-81195800D01*
X151728123Y-81195801D01*
X151668516Y-81202208D01*
X151533671Y-81252502D01*
X151533664Y-81252506D01*
X151418455Y-81338752D01*
X151418452Y-81338755D01*
X151332206Y-81453964D01*
X151332202Y-81453971D01*
X151281908Y-81588817D01*
X151275501Y-81648416D01*
X151275501Y-81648423D01*
X151275500Y-81648435D01*
X151275500Y-83044170D01*
X129900500Y-83044170D01*
X129900500Y-80496738D01*
X152234799Y-80496738D01*
X152339440Y-80516300D01*
X152552561Y-80516300D01*
X152657200Y-80496738D01*
X152446001Y-80285539D01*
X152234799Y-80496738D01*
X129900500Y-80496738D01*
X129900500Y-79366300D01*
X151291073Y-79366300D01*
X151310737Y-79578516D01*
X151311580Y-79581478D01*
X151477389Y-79415670D01*
X152071000Y-79415670D01*
X152096556Y-79511045D01*
X152145925Y-79596555D01*
X152215745Y-79666375D01*
X152301255Y-79715744D01*
X152396630Y-79741300D01*
X152495370Y-79741300D01*
X152590745Y-79715744D01*
X152676255Y-79666375D01*
X152746075Y-79596555D01*
X152795444Y-79511045D01*
X152821000Y-79415670D01*
X152821000Y-79316930D01*
X152795444Y-79221555D01*
X152746075Y-79136045D01*
X152676255Y-79066225D01*
X152590745Y-79016856D01*
X152495370Y-78991300D01*
X152396630Y-78991300D01*
X152301255Y-79016856D01*
X152215745Y-79066225D01*
X152145925Y-79136045D01*
X152096556Y-79221555D01*
X152071000Y-79316930D01*
X152071000Y-79415670D01*
X151477389Y-79415670D01*
X151526760Y-79366299D01*
X151311580Y-79151119D01*
X151310738Y-79154081D01*
X151291073Y-79366299D01*
X151291073Y-79366300D01*
X129900500Y-79366300D01*
X129900500Y-77524170D01*
X151295500Y-77524170D01*
X151295501Y-77524176D01*
X151301908Y-77583783D01*
X151352202Y-77718628D01*
X151352206Y-77718635D01*
X151438452Y-77833844D01*
X151438455Y-77833847D01*
X151553664Y-77920093D01*
X151553671Y-77920097D01*
X151688517Y-77970391D01*
X151688516Y-77970391D01*
X151695444Y-77971135D01*
X151748127Y-77976800D01*
X152282480Y-77976799D01*
X152349518Y-77996483D01*
X152395273Y-78049287D01*
X152405217Y-78118446D01*
X152376192Y-78182002D01*
X152317414Y-78219776D01*
X152305264Y-78222688D01*
X152234799Y-78235859D01*
X152234799Y-78235860D01*
X152820512Y-78821573D01*
X152831780Y-78834521D01*
X152862127Y-78874706D01*
X152862129Y-78874708D01*
X152990356Y-78991603D01*
X152994498Y-78995559D01*
X153580418Y-79581479D01*
X153581261Y-79578521D01*
X153581262Y-79578515D01*
X153601456Y-79360592D01*
X153603859Y-79360814D01*
X153620612Y-79303761D01*
X153673416Y-79258006D01*
X153724927Y-79246800D01*
X153822608Y-79246800D01*
X153822610Y-79246800D01*
X154032198Y-79207621D01*
X154231019Y-79130598D01*
X154412302Y-79018352D01*
X154569872Y-78874707D01*
X154698366Y-78704555D01*
X154727555Y-78645935D01*
X154793403Y-78513694D01*
X154793403Y-78513693D01*
X154793405Y-78513689D01*
X154851756Y-78308610D01*
X154871429Y-78096300D01*
X154851756Y-77883990D01*
X154793405Y-77678911D01*
X154793403Y-77678906D01*
X154793403Y-77678905D01*
X154698367Y-77488046D01*
X154569872Y-77317893D01*
X154507355Y-77260901D01*
X154412302Y-77174248D01*
X154231019Y-77062002D01*
X154231017Y-77062001D01*
X154108324Y-77014470D01*
X154032198Y-76984979D01*
X153822610Y-76945800D01*
X153720499Y-76945800D01*
X153653460Y-76926115D01*
X153607705Y-76873311D01*
X153596499Y-76821800D01*
X153596499Y-76128429D01*
X153596498Y-76128423D01*
X153596497Y-76128416D01*
X153590091Y-76068817D01*
X153587331Y-76061418D01*
X153539797Y-75933971D01*
X153539793Y-75933964D01*
X153453547Y-75818755D01*
X153453544Y-75818752D01*
X153338335Y-75732506D01*
X153338328Y-75732502D01*
X153203482Y-75682208D01*
X153203483Y-75682208D01*
X153143883Y-75675801D01*
X153143881Y-75675800D01*
X153143873Y-75675800D01*
X153143864Y-75675800D01*
X151748129Y-75675800D01*
X151748123Y-75675801D01*
X151688516Y-75682208D01*
X151553671Y-75732502D01*
X151553664Y-75732506D01*
X151438455Y-75818752D01*
X151438452Y-75818755D01*
X151352206Y-75933964D01*
X151352202Y-75933971D01*
X151301908Y-76068817D01*
X151298199Y-76103322D01*
X151295501Y-76128423D01*
X151295500Y-76128435D01*
X151295500Y-77524170D01*
X129900500Y-77524170D01*
X129900500Y-74996738D01*
X152234799Y-74996738D01*
X152339440Y-75016300D01*
X152552561Y-75016300D01*
X152657200Y-74996738D01*
X152446001Y-74785539D01*
X152234799Y-74996738D01*
X129900500Y-74996738D01*
X129900500Y-73866300D01*
X151291073Y-73866300D01*
X151310737Y-74078516D01*
X151311580Y-74081478D01*
X151477389Y-73915670D01*
X152071000Y-73915670D01*
X152096556Y-74011045D01*
X152145925Y-74096555D01*
X152215745Y-74166375D01*
X152301255Y-74215744D01*
X152396630Y-74241300D01*
X152495370Y-74241300D01*
X152590745Y-74215744D01*
X152676255Y-74166375D01*
X152746075Y-74096555D01*
X152795444Y-74011045D01*
X152821000Y-73915670D01*
X152821000Y-73816930D01*
X152795444Y-73721555D01*
X152746075Y-73636045D01*
X152676255Y-73566225D01*
X152590745Y-73516856D01*
X152495370Y-73491300D01*
X152396630Y-73491300D01*
X152301255Y-73516856D01*
X152215745Y-73566225D01*
X152145925Y-73636045D01*
X152096556Y-73721555D01*
X152071000Y-73816930D01*
X152071000Y-73915670D01*
X151477389Y-73915670D01*
X151526760Y-73866299D01*
X151311580Y-73651119D01*
X151310738Y-73654081D01*
X151291073Y-73866299D01*
X151291073Y-73866300D01*
X129900500Y-73866300D01*
X129900500Y-72024170D01*
X151295500Y-72024170D01*
X151295501Y-72024176D01*
X151301908Y-72083783D01*
X151352202Y-72218628D01*
X151352206Y-72218635D01*
X151438452Y-72333844D01*
X151438455Y-72333847D01*
X151553664Y-72420093D01*
X151553671Y-72420097D01*
X151688517Y-72470391D01*
X151688516Y-72470391D01*
X151695444Y-72471135D01*
X151748127Y-72476800D01*
X152282480Y-72476799D01*
X152349518Y-72496483D01*
X152395273Y-72549287D01*
X152405217Y-72618446D01*
X152376192Y-72682002D01*
X152317414Y-72719776D01*
X152305264Y-72722688D01*
X152234799Y-72735859D01*
X152234799Y-72735860D01*
X152820512Y-73321573D01*
X152831780Y-73334521D01*
X152856278Y-73366960D01*
X152862129Y-73374708D01*
X152990356Y-73491603D01*
X152994498Y-73495559D01*
X153580418Y-74081479D01*
X153581261Y-74078521D01*
X153581262Y-74078515D01*
X153601456Y-73860592D01*
X153603859Y-73860814D01*
X153620612Y-73803761D01*
X153673416Y-73758006D01*
X153724927Y-73746800D01*
X153822608Y-73746800D01*
X153822610Y-73746800D01*
X154032198Y-73707621D01*
X154231019Y-73630598D01*
X154412302Y-73518352D01*
X154569872Y-73374707D01*
X154698366Y-73204555D01*
X154760747Y-73079276D01*
X154793403Y-73013694D01*
X154793403Y-73013693D01*
X154793405Y-73013689D01*
X154851756Y-72808610D01*
X154871429Y-72596300D01*
X154851756Y-72383990D01*
X154793405Y-72178911D01*
X154793403Y-72178906D01*
X154793403Y-72178905D01*
X154698367Y-71988046D01*
X154569872Y-71817893D01*
X154539703Y-71790390D01*
X154412302Y-71674248D01*
X154231019Y-71562002D01*
X154231017Y-71562001D01*
X154131608Y-71523490D01*
X154032198Y-71484979D01*
X153822610Y-71445800D01*
X153720499Y-71445800D01*
X153653460Y-71426115D01*
X153607705Y-71373311D01*
X153596499Y-71321800D01*
X153596499Y-70628429D01*
X153596498Y-70628423D01*
X153596497Y-70628416D01*
X153590091Y-70568817D01*
X153546063Y-70450773D01*
X153539797Y-70433971D01*
X153539793Y-70433964D01*
X153453547Y-70318755D01*
X153453544Y-70318752D01*
X153338335Y-70232506D01*
X153338328Y-70232502D01*
X153203482Y-70182208D01*
X153203483Y-70182208D01*
X153143883Y-70175801D01*
X153143881Y-70175800D01*
X153143873Y-70175800D01*
X153143864Y-70175800D01*
X151748129Y-70175800D01*
X151748123Y-70175801D01*
X151688516Y-70182208D01*
X151553671Y-70232502D01*
X151553664Y-70232506D01*
X151438455Y-70318752D01*
X151438452Y-70318755D01*
X151352206Y-70433964D01*
X151352202Y-70433971D01*
X151301908Y-70568817D01*
X151299391Y-70592233D01*
X151295501Y-70628423D01*
X151295500Y-70628435D01*
X151295500Y-72024170D01*
X129900500Y-72024170D01*
X129900500Y-69496738D01*
X152234799Y-69496738D01*
X152339440Y-69516300D01*
X152552561Y-69516300D01*
X152657200Y-69496738D01*
X152446001Y-69285539D01*
X152234799Y-69496738D01*
X129900500Y-69496738D01*
X129900500Y-68366300D01*
X151291073Y-68366300D01*
X151310737Y-68578516D01*
X151311580Y-68581478D01*
X151477389Y-68415670D01*
X152071000Y-68415670D01*
X152096556Y-68511045D01*
X152145925Y-68596555D01*
X152215745Y-68666375D01*
X152301255Y-68715744D01*
X152396630Y-68741300D01*
X152495370Y-68741300D01*
X152590745Y-68715744D01*
X152676255Y-68666375D01*
X152746075Y-68596555D01*
X152795444Y-68511045D01*
X152821000Y-68415670D01*
X152821000Y-68316930D01*
X152795444Y-68221555D01*
X152746075Y-68136045D01*
X152676255Y-68066225D01*
X152590745Y-68016856D01*
X152495370Y-67991300D01*
X152396630Y-67991300D01*
X152301255Y-68016856D01*
X152215745Y-68066225D01*
X152145925Y-68136045D01*
X152096556Y-68221555D01*
X152071000Y-68316930D01*
X152071000Y-68415670D01*
X151477389Y-68415670D01*
X151526760Y-68366299D01*
X151311580Y-68151119D01*
X151310738Y-68154081D01*
X151291073Y-68366299D01*
X151291073Y-68366300D01*
X129900500Y-68366300D01*
X129900500Y-66524170D01*
X151295500Y-66524170D01*
X151295501Y-66524176D01*
X151301908Y-66583783D01*
X151352202Y-66718628D01*
X151352206Y-66718635D01*
X151438452Y-66833844D01*
X151438455Y-66833847D01*
X151553664Y-66920093D01*
X151553671Y-66920097D01*
X151688517Y-66970391D01*
X151688516Y-66970391D01*
X151692944Y-66970867D01*
X151748127Y-66976800D01*
X152282480Y-66976799D01*
X152349518Y-66996483D01*
X152395273Y-67049287D01*
X152405217Y-67118446D01*
X152376192Y-67182002D01*
X152317414Y-67219776D01*
X152305264Y-67222688D01*
X152234799Y-67235859D01*
X152234799Y-67235860D01*
X152820512Y-67821573D01*
X152831780Y-67834521D01*
X152862127Y-67874706D01*
X152862129Y-67874708D01*
X152990356Y-67991603D01*
X152994498Y-67995559D01*
X153580418Y-68581479D01*
X153581261Y-68578521D01*
X153581262Y-68578515D01*
X153601456Y-68360592D01*
X153603859Y-68360814D01*
X153620612Y-68303761D01*
X153673416Y-68258006D01*
X153724927Y-68246800D01*
X153822608Y-68246800D01*
X153822610Y-68246800D01*
X154032198Y-68207621D01*
X154231019Y-68130598D01*
X154412302Y-68018352D01*
X154569872Y-67874707D01*
X154698366Y-67704555D01*
X154709251Y-67682695D01*
X154793403Y-67513694D01*
X154793403Y-67513693D01*
X154793405Y-67513689D01*
X154851756Y-67308610D01*
X154871429Y-67096300D01*
X154871261Y-67094492D01*
X154868722Y-67067085D01*
X154851756Y-66883990D01*
X154793405Y-66678911D01*
X154793403Y-66678906D01*
X154793403Y-66678905D01*
X154698367Y-66488046D01*
X154569872Y-66317893D01*
X154484531Y-66240094D01*
X154412302Y-66174248D01*
X154231019Y-66062002D01*
X154231017Y-66062001D01*
X154104405Y-66012952D01*
X154032198Y-65984979D01*
X153822610Y-65945800D01*
X153720499Y-65945800D01*
X153653460Y-65926115D01*
X153607705Y-65873311D01*
X153596499Y-65821800D01*
X153596499Y-65128429D01*
X153596498Y-65128423D01*
X153596497Y-65128416D01*
X153590091Y-65068817D01*
X153563037Y-64996282D01*
X153539797Y-64933971D01*
X153539793Y-64933964D01*
X153453547Y-64818755D01*
X153453544Y-64818752D01*
X153338335Y-64732506D01*
X153338328Y-64732502D01*
X153203482Y-64682208D01*
X153203483Y-64682208D01*
X153143883Y-64675801D01*
X153143881Y-64675800D01*
X153143873Y-64675800D01*
X153143864Y-64675800D01*
X151748129Y-64675800D01*
X151748123Y-64675801D01*
X151688516Y-64682208D01*
X151553671Y-64732502D01*
X151553664Y-64732506D01*
X151438455Y-64818752D01*
X151438452Y-64818755D01*
X151352206Y-64933964D01*
X151352202Y-64933971D01*
X151301908Y-65068817D01*
X151295501Y-65128416D01*
X151295501Y-65128423D01*
X151295500Y-65128435D01*
X151295500Y-66524170D01*
X129900500Y-66524170D01*
X129900500Y-63996738D01*
X152234799Y-63996738D01*
X152339440Y-64016300D01*
X152552561Y-64016300D01*
X152657200Y-63996738D01*
X152446001Y-63785539D01*
X152234799Y-63996738D01*
X129900500Y-63996738D01*
X129900500Y-62866300D01*
X151291073Y-62866300D01*
X151310737Y-63078516D01*
X151311580Y-63081478D01*
X151477389Y-62915670D01*
X152071000Y-62915670D01*
X152096556Y-63011045D01*
X152145925Y-63096555D01*
X152215745Y-63166375D01*
X152301255Y-63215744D01*
X152396630Y-63241300D01*
X152495370Y-63241300D01*
X152590745Y-63215744D01*
X152676255Y-63166375D01*
X152746075Y-63096555D01*
X152795444Y-63011045D01*
X152821000Y-62915670D01*
X152821000Y-62816930D01*
X152795444Y-62721555D01*
X152746075Y-62636045D01*
X152676255Y-62566225D01*
X152590745Y-62516856D01*
X152495370Y-62491300D01*
X152396630Y-62491300D01*
X152301255Y-62516856D01*
X152215745Y-62566225D01*
X152145925Y-62636045D01*
X152096556Y-62721555D01*
X152071000Y-62816930D01*
X152071000Y-62915670D01*
X151477389Y-62915670D01*
X151526760Y-62866299D01*
X151311580Y-62651119D01*
X151310738Y-62654081D01*
X151291073Y-62866299D01*
X151291073Y-62866300D01*
X129900500Y-62866300D01*
X129900500Y-60231021D01*
X135306692Y-60231021D01*
X135341177Y-60448752D01*
X135409295Y-60658403D01*
X135409296Y-60658406D01*
X135509379Y-60854825D01*
X135638944Y-61033158D01*
X135638948Y-61033163D01*
X135794828Y-61189043D01*
X135794833Y-61189047D01*
X135934332Y-61290398D01*
X135973170Y-61318615D01*
X136095253Y-61380820D01*
X136169585Y-61418695D01*
X136169588Y-61418696D01*
X136274413Y-61452755D01*
X136379241Y-61486815D01*
X136596970Y-61521300D01*
X136596971Y-61521300D01*
X138617413Y-61521300D01*
X138617414Y-61521300D01*
X138835143Y-61486815D01*
X139044798Y-61418695D01*
X139241214Y-61318615D01*
X139419557Y-61189042D01*
X139575434Y-61033165D01*
X139581969Y-61024170D01*
X151295500Y-61024170D01*
X151295501Y-61024176D01*
X151301908Y-61083783D01*
X151352202Y-61218628D01*
X151352206Y-61218635D01*
X151438452Y-61333844D01*
X151438455Y-61333847D01*
X151553664Y-61420093D01*
X151553671Y-61420097D01*
X151688517Y-61470391D01*
X151688516Y-61470391D01*
X151695444Y-61471135D01*
X151748127Y-61476800D01*
X152282480Y-61476799D01*
X152349518Y-61496483D01*
X152395273Y-61549287D01*
X152405217Y-61618446D01*
X152376192Y-61682002D01*
X152317414Y-61719776D01*
X152305264Y-61722688D01*
X152234799Y-61735859D01*
X152234799Y-61735860D01*
X152820512Y-62321573D01*
X152831780Y-62334521D01*
X152843365Y-62349861D01*
X152862129Y-62374708D01*
X152990356Y-62491603D01*
X152994498Y-62495559D01*
X153580417Y-63081479D01*
X153580418Y-63081479D01*
X153581261Y-63078521D01*
X153581262Y-63078515D01*
X153601456Y-62860592D01*
X153603859Y-62860814D01*
X153620612Y-62803761D01*
X153673416Y-62758006D01*
X153724927Y-62746800D01*
X153822608Y-62746800D01*
X153822610Y-62746800D01*
X154032198Y-62707621D01*
X154231019Y-62630598D01*
X154412302Y-62518352D01*
X154569872Y-62374707D01*
X154698366Y-62204555D01*
X154747028Y-62106828D01*
X154793403Y-62013694D01*
X154793403Y-62013693D01*
X154793405Y-62013689D01*
X154851756Y-61808610D01*
X154871429Y-61596300D01*
X154851756Y-61383990D01*
X154793405Y-61178911D01*
X154793403Y-61178906D01*
X154793403Y-61178905D01*
X154698367Y-60988046D01*
X154569872Y-60817893D01*
X154412302Y-60674248D01*
X154231019Y-60562002D01*
X154231017Y-60562001D01*
X154101168Y-60511698D01*
X154032198Y-60484979D01*
X153822610Y-60445800D01*
X153720499Y-60445800D01*
X153653460Y-60426115D01*
X153607705Y-60373311D01*
X153596499Y-60321800D01*
X153596499Y-59628429D01*
X153596498Y-59628423D01*
X153596497Y-59628416D01*
X153590091Y-59568817D01*
X153589349Y-59566828D01*
X153539797Y-59433971D01*
X153539793Y-59433964D01*
X153453547Y-59318755D01*
X153453544Y-59318752D01*
X153338335Y-59232506D01*
X153338328Y-59232502D01*
X153203482Y-59182208D01*
X153203483Y-59182208D01*
X153143883Y-59175801D01*
X153143881Y-59175800D01*
X153143873Y-59175800D01*
X153143864Y-59175800D01*
X151748129Y-59175800D01*
X151748123Y-59175801D01*
X151688516Y-59182208D01*
X151553671Y-59232502D01*
X151553664Y-59232506D01*
X151438455Y-59318752D01*
X151438452Y-59318755D01*
X151352206Y-59433964D01*
X151352202Y-59433971D01*
X151301908Y-59568817D01*
X151295501Y-59628416D01*
X151295501Y-59628423D01*
X151295500Y-59628435D01*
X151295500Y-61024170D01*
X139581969Y-61024170D01*
X139705007Y-60854822D01*
X139805087Y-60658406D01*
X139873207Y-60448751D01*
X139907692Y-60231022D01*
X139907692Y-60010578D01*
X139873207Y-59792849D01*
X139838633Y-59686439D01*
X139805088Y-59583196D01*
X139805087Y-59583193D01*
X139729052Y-59433969D01*
X139705007Y-59386778D01*
X139611302Y-59257803D01*
X139575439Y-59208441D01*
X139575435Y-59208436D01*
X139419555Y-59052556D01*
X139419550Y-59052552D01*
X139241217Y-58922987D01*
X139241216Y-58922986D01*
X139241214Y-58922985D01*
X139178288Y-58890922D01*
X139044798Y-58822904D01*
X139044795Y-58822903D01*
X138835144Y-58754785D01*
X138726278Y-58737542D01*
X138617414Y-58720300D01*
X136596970Y-58720300D01*
X136524393Y-58731795D01*
X136379239Y-58754785D01*
X136169588Y-58822903D01*
X136169585Y-58822904D01*
X135973166Y-58922987D01*
X135794833Y-59052552D01*
X135794828Y-59052556D01*
X135638948Y-59208436D01*
X135638944Y-59208441D01*
X135509379Y-59386774D01*
X135409296Y-59583193D01*
X135409295Y-59583196D01*
X135341177Y-59792847D01*
X135306692Y-60010578D01*
X135306692Y-60231021D01*
X129900500Y-60231021D01*
X129900500Y-56731021D01*
X135306692Y-56731021D01*
X135341177Y-56948752D01*
X135409295Y-57158403D01*
X135409296Y-57158406D01*
X135509379Y-57354825D01*
X135638944Y-57533158D01*
X135638948Y-57533163D01*
X135794828Y-57689043D01*
X135794833Y-57689047D01*
X135932129Y-57788797D01*
X135973170Y-57818615D01*
X136092123Y-57879225D01*
X136169585Y-57918695D01*
X136169588Y-57918696D01*
X136274413Y-57952755D01*
X136379241Y-57986815D01*
X136596970Y-58021300D01*
X136596971Y-58021300D01*
X138617413Y-58021300D01*
X138617414Y-58021300D01*
X138835143Y-57986815D01*
X139044798Y-57918695D01*
X139241214Y-57818615D01*
X139419557Y-57689042D01*
X139575434Y-57533165D01*
X139705007Y-57354822D01*
X139805087Y-57158406D01*
X139873207Y-56948751D01*
X139907692Y-56731022D01*
X139907692Y-56510578D01*
X139873207Y-56292849D01*
X139816656Y-56118800D01*
X161768146Y-56118800D01*
X161787519Y-56327879D01*
X161844982Y-56529837D01*
X161844987Y-56529850D01*
X161938577Y-56717803D01*
X162065117Y-56885369D01*
X162220289Y-57026826D01*
X162220291Y-57026828D01*
X162398811Y-57137363D01*
X162398812Y-57137363D01*
X162398815Y-57137365D01*
X162594611Y-57213217D01*
X162801012Y-57251800D01*
X162801014Y-57251800D01*
X163010986Y-57251800D01*
X163010988Y-57251800D01*
X163217389Y-57213217D01*
X163413185Y-57137365D01*
X163591710Y-57026827D01*
X163746884Y-56885367D01*
X163873423Y-56717803D01*
X163967017Y-56529840D01*
X164024480Y-56327880D01*
X164043854Y-56118800D01*
X164024480Y-55909720D01*
X163967017Y-55707760D01*
X163873423Y-55519797D01*
X163746884Y-55352233D01*
X163746882Y-55352230D01*
X163591710Y-55210773D01*
X163591708Y-55210771D01*
X163413188Y-55100236D01*
X163413182Y-55100234D01*
X163217389Y-55024383D01*
X163010988Y-54985800D01*
X162801012Y-54985800D01*
X162594611Y-55024383D01*
X162470792Y-55072350D01*
X162398817Y-55100234D01*
X162398811Y-55100236D01*
X162220291Y-55210771D01*
X162220289Y-55210773D01*
X162065117Y-55352230D01*
X161938577Y-55519796D01*
X161844987Y-55707749D01*
X161844982Y-55707762D01*
X161787519Y-55909720D01*
X161768146Y-56118799D01*
X161768146Y-56118800D01*
X139816656Y-56118800D01*
X139816656Y-56118799D01*
X139805088Y-56083196D01*
X139805087Y-56083193D01*
X139770429Y-56015175D01*
X139705007Y-55886778D01*
X139688452Y-55863992D01*
X139575439Y-55708441D01*
X139575435Y-55708436D01*
X139419555Y-55552556D01*
X139419550Y-55552552D01*
X139241217Y-55422987D01*
X139241216Y-55422986D01*
X139241214Y-55422985D01*
X139178288Y-55390922D01*
X139044798Y-55322904D01*
X139044795Y-55322903D01*
X138835144Y-55254785D01*
X138726278Y-55237542D01*
X138617414Y-55220300D01*
X136596970Y-55220300D01*
X136524393Y-55231795D01*
X136379239Y-55254785D01*
X136169588Y-55322903D01*
X136169585Y-55322904D01*
X135973166Y-55422987D01*
X135794833Y-55552552D01*
X135794828Y-55552556D01*
X135638948Y-55708436D01*
X135638944Y-55708441D01*
X135509379Y-55886774D01*
X135409296Y-56083193D01*
X135409295Y-56083196D01*
X135341177Y-56292847D01*
X135306692Y-56510578D01*
X135306692Y-56731021D01*
X129900500Y-56731021D01*
X129900500Y-53231022D01*
X135306692Y-53231022D01*
X135307670Y-53237195D01*
X135341177Y-53448752D01*
X135409295Y-53658403D01*
X135409296Y-53658406D01*
X135436584Y-53711960D01*
X135505988Y-53848171D01*
X135509379Y-53854825D01*
X135638944Y-54033158D01*
X135638948Y-54033163D01*
X135794828Y-54189043D01*
X135794833Y-54189047D01*
X135929933Y-54287202D01*
X135973170Y-54318615D01*
X136101567Y-54384037D01*
X136169585Y-54418695D01*
X136169588Y-54418696D01*
X136274413Y-54452755D01*
X136379241Y-54486815D01*
X136596970Y-54521300D01*
X136596971Y-54521300D01*
X138617413Y-54521300D01*
X138617414Y-54521300D01*
X138835143Y-54486815D01*
X139044798Y-54418695D01*
X139241214Y-54318615D01*
X139419557Y-54189042D01*
X139575434Y-54033165D01*
X139705007Y-53854822D01*
X139805087Y-53658406D01*
X139830952Y-53578800D01*
X161768146Y-53578800D01*
X161787519Y-53787879D01*
X161844982Y-53989837D01*
X161844987Y-53989850D01*
X161938577Y-54177803D01*
X162065117Y-54345369D01*
X162220289Y-54486826D01*
X162220291Y-54486828D01*
X162398811Y-54597363D01*
X162398812Y-54597363D01*
X162398815Y-54597365D01*
X162594611Y-54673217D01*
X162801012Y-54711800D01*
X162801014Y-54711800D01*
X163010986Y-54711800D01*
X163010988Y-54711800D01*
X163217389Y-54673217D01*
X163413185Y-54597365D01*
X163591710Y-54486827D01*
X163746761Y-54345479D01*
X163746882Y-54345369D01*
X163767086Y-54318615D01*
X163873423Y-54177803D01*
X163967017Y-53989840D01*
X164024480Y-53787880D01*
X164043854Y-53578800D01*
X177008146Y-53578800D01*
X177027519Y-53787879D01*
X177084982Y-53989837D01*
X177084987Y-53989850D01*
X177178577Y-54177803D01*
X177305117Y-54345369D01*
X177460289Y-54486826D01*
X177460291Y-54486828D01*
X177638811Y-54597363D01*
X177638812Y-54597363D01*
X177638815Y-54597365D01*
X177834611Y-54673217D01*
X178041012Y-54711800D01*
X178041014Y-54711800D01*
X178250986Y-54711800D01*
X178250988Y-54711800D01*
X178457389Y-54673217D01*
X178653185Y-54597365D01*
X178831710Y-54486827D01*
X178986761Y-54345479D01*
X178986882Y-54345369D01*
X179007086Y-54318615D01*
X179113423Y-54177803D01*
X179207017Y-53989840D01*
X179264480Y-53787880D01*
X179283854Y-53578800D01*
X179264480Y-53369720D01*
X179207017Y-53167760D01*
X179196931Y-53147505D01*
X179128750Y-53010578D01*
X179113423Y-52979797D01*
X178986884Y-52812233D01*
X178986882Y-52812230D01*
X178831710Y-52670773D01*
X178831708Y-52670771D01*
X178653188Y-52560236D01*
X178653182Y-52560234D01*
X178457389Y-52484383D01*
X178250988Y-52445800D01*
X178041012Y-52445800D01*
X177834611Y-52484383D01*
X177710792Y-52532350D01*
X177638817Y-52560234D01*
X177638811Y-52560236D01*
X177460291Y-52670771D01*
X177460289Y-52670773D01*
X177305117Y-52812230D01*
X177178577Y-52979796D01*
X177084987Y-53167749D01*
X177084982Y-53167762D01*
X177027519Y-53369720D01*
X177008146Y-53578799D01*
X177008146Y-53578800D01*
X164043854Y-53578800D01*
X164024480Y-53369720D01*
X163967017Y-53167760D01*
X163956931Y-53147505D01*
X163888750Y-53010578D01*
X163873423Y-52979797D01*
X163746884Y-52812233D01*
X163746882Y-52812230D01*
X163591710Y-52670773D01*
X163591708Y-52670771D01*
X163413188Y-52560236D01*
X163413182Y-52560234D01*
X163217389Y-52484383D01*
X163010988Y-52445800D01*
X162801012Y-52445800D01*
X162594611Y-52484383D01*
X162470792Y-52532350D01*
X162398817Y-52560234D01*
X162398811Y-52560236D01*
X162220291Y-52670771D01*
X162220289Y-52670773D01*
X162065117Y-52812230D01*
X161938577Y-52979796D01*
X161844987Y-53167749D01*
X161844982Y-53167762D01*
X161787519Y-53369720D01*
X161768146Y-53578799D01*
X161768146Y-53578800D01*
X139830952Y-53578800D01*
X139873207Y-53448751D01*
X139907692Y-53231022D01*
X139907692Y-53010578D01*
X139873207Y-52792849D01*
X139805087Y-52583194D01*
X139805087Y-52583193D01*
X139754740Y-52484383D01*
X139705007Y-52386778D01*
X139657914Y-52321960D01*
X139575439Y-52208441D01*
X139575435Y-52208436D01*
X139419555Y-52052556D01*
X139419550Y-52052552D01*
X139241217Y-51922987D01*
X139241216Y-51922986D01*
X139241214Y-51922985D01*
X139178288Y-51890922D01*
X139044798Y-51822904D01*
X139044795Y-51822903D01*
X138835144Y-51754785D01*
X138726278Y-51737542D01*
X138617414Y-51720300D01*
X136596970Y-51720300D01*
X136524393Y-51731795D01*
X136379239Y-51754785D01*
X136169588Y-51822903D01*
X136169585Y-51822904D01*
X135973166Y-51922987D01*
X135794833Y-52052552D01*
X135794828Y-52052556D01*
X135638948Y-52208436D01*
X135638944Y-52208441D01*
X135509379Y-52386774D01*
X135409296Y-52583193D01*
X135409295Y-52583196D01*
X135341177Y-52792847D01*
X135341177Y-52792849D01*
X135306692Y-53010578D01*
X135306692Y-53231022D01*
X129900500Y-53231022D01*
X129900500Y-49731021D01*
X135306692Y-49731021D01*
X135341177Y-49948752D01*
X135409295Y-50158403D01*
X135409296Y-50158406D01*
X135509379Y-50354825D01*
X135638944Y-50533158D01*
X135638948Y-50533163D01*
X135794828Y-50689043D01*
X135794833Y-50689047D01*
X135950384Y-50802060D01*
X135973170Y-50818615D01*
X136101567Y-50884037D01*
X136169585Y-50918695D01*
X136169588Y-50918696D01*
X136274413Y-50952755D01*
X136379241Y-50986815D01*
X136596970Y-51021300D01*
X136596971Y-51021300D01*
X138617413Y-51021300D01*
X138617414Y-51021300D01*
X138835143Y-50986815D01*
X139044798Y-50918695D01*
X139241214Y-50818615D01*
X139419557Y-50689042D01*
X139508511Y-50600088D01*
X150495500Y-50600088D01*
X150527161Y-50840585D01*
X150589947Y-51074904D01*
X150596465Y-51090639D01*
X150682776Y-51299012D01*
X150804064Y-51509089D01*
X150804066Y-51509092D01*
X150804067Y-51509093D01*
X150951733Y-51701536D01*
X150951739Y-51701543D01*
X151123256Y-51873060D01*
X151123263Y-51873066D01*
X151219389Y-51946826D01*
X151315711Y-52020736D01*
X151525788Y-52142024D01*
X151749900Y-52234854D01*
X151984211Y-52297638D01*
X152157982Y-52320515D01*
X152224711Y-52329300D01*
X152224712Y-52329300D01*
X152467289Y-52329300D01*
X152523042Y-52321960D01*
X152707789Y-52297638D01*
X152942100Y-52234854D01*
X153166212Y-52142024D01*
X153376289Y-52020736D01*
X153568738Y-51873065D01*
X153740265Y-51701538D01*
X153887936Y-51509089D01*
X154009224Y-51299012D01*
X154102054Y-51074900D01*
X154111727Y-51038800D01*
X161768146Y-51038800D01*
X161787519Y-51247879D01*
X161844982Y-51449837D01*
X161844987Y-51449850D01*
X161938577Y-51637803D01*
X162065117Y-51805369D01*
X162220289Y-51946826D01*
X162220291Y-51946828D01*
X162398811Y-52057363D01*
X162398812Y-52057363D01*
X162398815Y-52057365D01*
X162594611Y-52133217D01*
X162801012Y-52171800D01*
X162801014Y-52171800D01*
X163010986Y-52171800D01*
X163010988Y-52171800D01*
X163217389Y-52133217D01*
X163413185Y-52057365D01*
X163591710Y-51946827D01*
X163746884Y-51805367D01*
X163873423Y-51637803D01*
X163967017Y-51449840D01*
X164024480Y-51247880D01*
X164043854Y-51038800D01*
X177008146Y-51038800D01*
X177027519Y-51247879D01*
X177084982Y-51449837D01*
X177084987Y-51449850D01*
X177178577Y-51637803D01*
X177305117Y-51805369D01*
X177460289Y-51946826D01*
X177460291Y-51946828D01*
X177638811Y-52057363D01*
X177638812Y-52057363D01*
X177638815Y-52057365D01*
X177834611Y-52133217D01*
X178041012Y-52171800D01*
X178041014Y-52171800D01*
X178250986Y-52171800D01*
X178250988Y-52171800D01*
X178457389Y-52133217D01*
X178653185Y-52057365D01*
X178831710Y-51946827D01*
X178986884Y-51805367D01*
X179113423Y-51637803D01*
X179207017Y-51449840D01*
X179264480Y-51247880D01*
X179283854Y-51038800D01*
X179264480Y-50829720D01*
X179207017Y-50627760D01*
X179198375Y-50610405D01*
X179161399Y-50536146D01*
X179113423Y-50439797D01*
X178986884Y-50272233D01*
X178986882Y-50272230D01*
X178831710Y-50130773D01*
X178831708Y-50130771D01*
X178653188Y-50020236D01*
X178653182Y-50020234D01*
X178457389Y-49944383D01*
X178250988Y-49905800D01*
X178041012Y-49905800D01*
X177834611Y-49944383D01*
X177710792Y-49992350D01*
X177638817Y-50020234D01*
X177638811Y-50020236D01*
X177460291Y-50130771D01*
X177460289Y-50130773D01*
X177305117Y-50272230D01*
X177178577Y-50439796D01*
X177084987Y-50627749D01*
X177084982Y-50627762D01*
X177027519Y-50829720D01*
X177008146Y-51038799D01*
X177008146Y-51038800D01*
X164043854Y-51038800D01*
X164024480Y-50829720D01*
X163967017Y-50627760D01*
X163958375Y-50610405D01*
X163921399Y-50536146D01*
X163873423Y-50439797D01*
X163746884Y-50272233D01*
X163746882Y-50272230D01*
X163591710Y-50130773D01*
X163591708Y-50130771D01*
X163413188Y-50020236D01*
X163413182Y-50020234D01*
X163217389Y-49944383D01*
X163010988Y-49905800D01*
X162801012Y-49905800D01*
X162594611Y-49944383D01*
X162470792Y-49992350D01*
X162398817Y-50020234D01*
X162398811Y-50020236D01*
X162220291Y-50130771D01*
X162220289Y-50130773D01*
X162065117Y-50272230D01*
X161938577Y-50439796D01*
X161844987Y-50627749D01*
X161844982Y-50627762D01*
X161787519Y-50829720D01*
X161768146Y-51038799D01*
X161768146Y-51038800D01*
X154111727Y-51038800D01*
X154164838Y-50840589D01*
X154196500Y-50600088D01*
X154196500Y-50357512D01*
X154164838Y-50117011D01*
X154102054Y-49882700D01*
X154009224Y-49658588D01*
X153887936Y-49448511D01*
X153768491Y-49292847D01*
X153740266Y-49256063D01*
X153740260Y-49256056D01*
X153568743Y-49084539D01*
X153568736Y-49084533D01*
X153376293Y-48936867D01*
X153376292Y-48936866D01*
X153376289Y-48936864D01*
X153166212Y-48815576D01*
X153166205Y-48815573D01*
X152942104Y-48722747D01*
X152707785Y-48659961D01*
X152467289Y-48628300D01*
X152467288Y-48628300D01*
X152224712Y-48628300D01*
X152224711Y-48628300D01*
X151984214Y-48659961D01*
X151749895Y-48722747D01*
X151525794Y-48815573D01*
X151525785Y-48815577D01*
X151315706Y-48936867D01*
X151123263Y-49084533D01*
X151123256Y-49084539D01*
X150951739Y-49256056D01*
X150951733Y-49256063D01*
X150804067Y-49448506D01*
X150682777Y-49658585D01*
X150682773Y-49658594D01*
X150589947Y-49882695D01*
X150527161Y-50117014D01*
X150495500Y-50357511D01*
X150495500Y-50600088D01*
X139508511Y-50600088D01*
X139575434Y-50533165D01*
X139705007Y-50354822D01*
X139805087Y-50158406D01*
X139873207Y-49948751D01*
X139907692Y-49731022D01*
X139907692Y-49510578D01*
X139873207Y-49292849D01*
X139805087Y-49083194D01*
X139805087Y-49083193D01*
X139770429Y-49015175D01*
X139705007Y-48886778D01*
X139653274Y-48815573D01*
X139575439Y-48708441D01*
X139575435Y-48708436D01*
X139419555Y-48552556D01*
X139419550Y-48552552D01*
X139345566Y-48498800D01*
X161768146Y-48498800D01*
X161787519Y-48707879D01*
X161844982Y-48909837D01*
X161844987Y-48909850D01*
X161938577Y-49097803D01*
X162065117Y-49265369D01*
X162220289Y-49406826D01*
X162220291Y-49406828D01*
X162398811Y-49517363D01*
X162398812Y-49517363D01*
X162398815Y-49517365D01*
X162594611Y-49593217D01*
X162801012Y-49631800D01*
X162801014Y-49631800D01*
X163010986Y-49631800D01*
X163010988Y-49631800D01*
X163217389Y-49593217D01*
X163413185Y-49517365D01*
X163591710Y-49406827D01*
X163746884Y-49265367D01*
X163873423Y-49097803D01*
X163967017Y-48909840D01*
X164024480Y-48707880D01*
X164043854Y-48498800D01*
X177008146Y-48498800D01*
X177027519Y-48707879D01*
X177084982Y-48909837D01*
X177084987Y-48909850D01*
X177178577Y-49097803D01*
X177305117Y-49265369D01*
X177460289Y-49406826D01*
X177460291Y-49406828D01*
X177638811Y-49517363D01*
X177638812Y-49517363D01*
X177638815Y-49517365D01*
X177834611Y-49593217D01*
X178041012Y-49631800D01*
X178041014Y-49631800D01*
X178250986Y-49631800D01*
X178250988Y-49631800D01*
X178457389Y-49593217D01*
X178653185Y-49517365D01*
X178831710Y-49406827D01*
X178986884Y-49265367D01*
X179113423Y-49097803D01*
X179207017Y-48909840D01*
X179264480Y-48707880D01*
X179283854Y-48498800D01*
X179264480Y-48289720D01*
X179250703Y-48241299D01*
X179251289Y-48171436D01*
X179289555Y-48112976D01*
X179353352Y-48084485D01*
X179422425Y-48095009D01*
X179457650Y-48119686D01*
X183459181Y-52121216D01*
X183492666Y-52182539D01*
X183495500Y-52208897D01*
X183495500Y-57846387D01*
X183475815Y-57913426D01*
X183468450Y-57923696D01*
X183466186Y-57926534D01*
X183370211Y-58079276D01*
X183310631Y-58249545D01*
X183310630Y-58249550D01*
X183290435Y-58428796D01*
X183290435Y-58428803D01*
X183310630Y-58608049D01*
X183310631Y-58608054D01*
X183370211Y-58778323D01*
X183455914Y-58914718D01*
X183466184Y-58931062D01*
X183593738Y-59058616D01*
X183746478Y-59154589D01*
X183900361Y-59208435D01*
X183916745Y-59214168D01*
X183916750Y-59214169D01*
X184095996Y-59234365D01*
X184096000Y-59234365D01*
X184096004Y-59234365D01*
X184275249Y-59214169D01*
X184275252Y-59214168D01*
X184275255Y-59214168D01*
X184445522Y-59154589D01*
X184598262Y-59058616D01*
X184725816Y-58931062D01*
X184821789Y-58778322D01*
X184881368Y-58608055D01*
X184881369Y-58608049D01*
X184901565Y-58428803D01*
X184901565Y-58428796D01*
X184881369Y-58249550D01*
X184881368Y-58249545D01*
X184821788Y-58079276D01*
X184776235Y-58006779D01*
X184725816Y-57926538D01*
X184725814Y-57926536D01*
X184725813Y-57926534D01*
X184723550Y-57923696D01*
X184722659Y-57921515D01*
X184722111Y-57920642D01*
X184722264Y-57920545D01*
X184697144Y-57859009D01*
X184696500Y-57846387D01*
X184696500Y-51997860D01*
X184696501Y-51997847D01*
X184696501Y-51829744D01*
X184696501Y-51829743D01*
X184655577Y-51677016D01*
X184632938Y-51637803D01*
X184576524Y-51540090D01*
X184576518Y-51540082D01*
X181946273Y-48909837D01*
X180145241Y-47108806D01*
X184690700Y-47108806D01*
X184709864Y-47340097D01*
X184709866Y-47340108D01*
X184766842Y-47565100D01*
X184860075Y-47777648D01*
X184987016Y-47971947D01*
X184987019Y-47971951D01*
X184987021Y-47971953D01*
X185144216Y-48142713D01*
X185144219Y-48142715D01*
X185144222Y-48142718D01*
X185327365Y-48285264D01*
X185327371Y-48285268D01*
X185327374Y-48285270D01*
X185531497Y-48395736D01*
X185645487Y-48434868D01*
X185751015Y-48471097D01*
X185751017Y-48471097D01*
X185751019Y-48471098D01*
X185979951Y-48509300D01*
X185979952Y-48509300D01*
X186212048Y-48509300D01*
X186212049Y-48509300D01*
X186440981Y-48471098D01*
X186660503Y-48395736D01*
X186864626Y-48285270D01*
X187047784Y-48142713D01*
X187204979Y-47971953D01*
X187331172Y-47778800D01*
X200045823Y-47778800D01*
X200092555Y-47843121D01*
X200231678Y-47982244D01*
X200390856Y-48097895D01*
X200566164Y-48187218D01*
X200753294Y-48248021D01*
X200947618Y-48278800D01*
X201046000Y-48278800D01*
X201046000Y-47778800D01*
X202546000Y-47778800D01*
X202546000Y-48278800D01*
X202644382Y-48278800D01*
X202838705Y-48248021D01*
X203025835Y-48187218D01*
X203201143Y-48097895D01*
X203360321Y-47982244D01*
X203499444Y-47843121D01*
X203546177Y-47778800D01*
X208245823Y-47778800D01*
X208292555Y-47843121D01*
X208431678Y-47982244D01*
X208590856Y-48097895D01*
X208766164Y-48187218D01*
X208953294Y-48248021D01*
X209147618Y-48278800D01*
X209246000Y-48278800D01*
X209246000Y-47778800D01*
X210746000Y-47778800D01*
X210746000Y-48278800D01*
X210844382Y-48278800D01*
X211038705Y-48248021D01*
X211225835Y-48187218D01*
X211401143Y-48097895D01*
X211560321Y-47982244D01*
X211699444Y-47843121D01*
X211746177Y-47778800D01*
X210746000Y-47778800D01*
X209246000Y-47778800D01*
X208245823Y-47778800D01*
X203546177Y-47778800D01*
X202546000Y-47778800D01*
X201046000Y-47778800D01*
X200045823Y-47778800D01*
X187331172Y-47778800D01*
X187331924Y-47777649D01*
X187425157Y-47565100D01*
X187482134Y-47340105D01*
X187483915Y-47318612D01*
X187501300Y-47108806D01*
X187501300Y-47108793D01*
X187500944Y-47104500D01*
X201221000Y-47104500D01*
X201260185Y-47250742D01*
X201335885Y-47381858D01*
X201442942Y-47488915D01*
X201574058Y-47564615D01*
X201720300Y-47603800D01*
X201871700Y-47603800D01*
X202017942Y-47564615D01*
X202149058Y-47488915D01*
X202256115Y-47381858D01*
X202331815Y-47250742D01*
X202371000Y-47104500D01*
X209421000Y-47104500D01*
X209460185Y-47250742D01*
X209535885Y-47381858D01*
X209642942Y-47488915D01*
X209774058Y-47564615D01*
X209920300Y-47603800D01*
X210071700Y-47603800D01*
X210217942Y-47564615D01*
X210349058Y-47488915D01*
X210456115Y-47381858D01*
X210531815Y-47250742D01*
X210571000Y-47104500D01*
X210571000Y-46953100D01*
X210531815Y-46806858D01*
X210456115Y-46675742D01*
X210349058Y-46568685D01*
X210217942Y-46492985D01*
X210071700Y-46453800D01*
X209920300Y-46453800D01*
X209774058Y-46492985D01*
X209642942Y-46568685D01*
X209535885Y-46675742D01*
X209460185Y-46806858D01*
X209421000Y-46953100D01*
X209421000Y-47104500D01*
X202371000Y-47104500D01*
X202371000Y-46953100D01*
X202331815Y-46806858D01*
X202256115Y-46675742D01*
X202149058Y-46568685D01*
X202017942Y-46492985D01*
X201871700Y-46453800D01*
X201720300Y-46453800D01*
X201574058Y-46492985D01*
X201442942Y-46568685D01*
X201335885Y-46675742D01*
X201260185Y-46806858D01*
X201221000Y-46953100D01*
X201221000Y-47104500D01*
X187500944Y-47104500D01*
X187482135Y-46877502D01*
X187482133Y-46877491D01*
X187425157Y-46652499D01*
X187331924Y-46439951D01*
X187226640Y-46278800D01*
X200045823Y-46278800D01*
X201046000Y-46278800D01*
X201046000Y-45778800D01*
X202546000Y-45778800D01*
X202546000Y-46278800D01*
X203546177Y-46278800D01*
X208245823Y-46278800D01*
X209246000Y-46278800D01*
X209246000Y-45778800D01*
X210746000Y-45778800D01*
X210746000Y-46278800D01*
X211746177Y-46278800D01*
X211699444Y-46214478D01*
X211560321Y-46075355D01*
X211401143Y-45959704D01*
X211225835Y-45870381D01*
X211038705Y-45809578D01*
X210844382Y-45778800D01*
X210746000Y-45778800D01*
X209246000Y-45778800D01*
X209147618Y-45778800D01*
X208953294Y-45809578D01*
X208766164Y-45870381D01*
X208590856Y-45959704D01*
X208431678Y-46075355D01*
X208292555Y-46214478D01*
X208245823Y-46278800D01*
X203546177Y-46278800D01*
X203499444Y-46214478D01*
X203360321Y-46075355D01*
X203201143Y-45959704D01*
X203025835Y-45870381D01*
X202838705Y-45809578D01*
X202644382Y-45778800D01*
X202546000Y-45778800D01*
X201046000Y-45778800D01*
X200947618Y-45778800D01*
X200753294Y-45809578D01*
X200566164Y-45870381D01*
X200390856Y-45959704D01*
X200231678Y-46075355D01*
X200092555Y-46214478D01*
X200045823Y-46278800D01*
X187226640Y-46278800D01*
X187204983Y-46245652D01*
X187204980Y-46245649D01*
X187204979Y-46245647D01*
X187047784Y-46074887D01*
X187047779Y-46074883D01*
X187047777Y-46074881D01*
X186864634Y-45932335D01*
X186864628Y-45932331D01*
X186660504Y-45821864D01*
X186660495Y-45821861D01*
X186440984Y-45746502D01*
X186269282Y-45717850D01*
X186212049Y-45708300D01*
X185979951Y-45708300D01*
X185934164Y-45715940D01*
X185751015Y-45746502D01*
X185531504Y-45821861D01*
X185531495Y-45821864D01*
X185327371Y-45932331D01*
X185327365Y-45932335D01*
X185144222Y-46074881D01*
X185144219Y-46074884D01*
X184987016Y-46245652D01*
X184860075Y-46439951D01*
X184766842Y-46652499D01*
X184709866Y-46877491D01*
X184709864Y-46877502D01*
X184690700Y-47108793D01*
X184690700Y-47108806D01*
X180145241Y-47108806D01*
X179300537Y-46264102D01*
X179267053Y-46202780D01*
X179264748Y-46164984D01*
X179283854Y-45958800D01*
X179264480Y-45749720D01*
X179207017Y-45547760D01*
X179113423Y-45359797D01*
X178986884Y-45192233D01*
X178986882Y-45192230D01*
X178831710Y-45050773D01*
X178831708Y-45050771D01*
X178653188Y-44940236D01*
X178653182Y-44940234D01*
X178457389Y-44864383D01*
X178250988Y-44825800D01*
X178041012Y-44825800D01*
X177834611Y-44864383D01*
X177710792Y-44912350D01*
X177638817Y-44940234D01*
X177638811Y-44940236D01*
X177460291Y-45050771D01*
X177460289Y-45050773D01*
X177305117Y-45192230D01*
X177178577Y-45359796D01*
X177084987Y-45547749D01*
X177084982Y-45547762D01*
X177027519Y-45749720D01*
X177008146Y-45958799D01*
X177008146Y-45958800D01*
X177027519Y-46167879D01*
X177084982Y-46369837D01*
X177084987Y-46369850D01*
X177178577Y-46557803D01*
X177305117Y-46725369D01*
X177460289Y-46866826D01*
X177460291Y-46866828D01*
X177638811Y-46977363D01*
X177638812Y-46977363D01*
X177638815Y-46977365D01*
X177834611Y-47053217D01*
X178041012Y-47091800D01*
X178041014Y-47091800D01*
X178250987Y-47091800D01*
X178250988Y-47091800D01*
X178337359Y-47075654D01*
X178406873Y-47082684D01*
X178447825Y-47109861D01*
X178524712Y-47186748D01*
X178558197Y-47248071D01*
X178553213Y-47317763D01*
X178511341Y-47373696D01*
X178445877Y-47398113D01*
X178414246Y-47396318D01*
X178360666Y-47386302D01*
X178250988Y-47365800D01*
X178041012Y-47365800D01*
X177834611Y-47404383D01*
X177710792Y-47452350D01*
X177638817Y-47480234D01*
X177638811Y-47480236D01*
X177460291Y-47590771D01*
X177460289Y-47590773D01*
X177305117Y-47732230D01*
X177178577Y-47899796D01*
X177084987Y-48087749D01*
X177084982Y-48087762D01*
X177027519Y-48289720D01*
X177008146Y-48498799D01*
X177008146Y-48498800D01*
X164043854Y-48498800D01*
X164024480Y-48289720D01*
X163967017Y-48087760D01*
X163965386Y-48084485D01*
X163921399Y-47996146D01*
X163873423Y-47899797D01*
X163746884Y-47732233D01*
X163746882Y-47732230D01*
X163591710Y-47590773D01*
X163591708Y-47590771D01*
X163413188Y-47480236D01*
X163413182Y-47480234D01*
X163217389Y-47404383D01*
X163010988Y-47365800D01*
X162801012Y-47365800D01*
X162594611Y-47404383D01*
X162470792Y-47452350D01*
X162398817Y-47480234D01*
X162398811Y-47480236D01*
X162220291Y-47590771D01*
X162220289Y-47590773D01*
X162065117Y-47732230D01*
X161938577Y-47899796D01*
X161844987Y-48087749D01*
X161844982Y-48087762D01*
X161787519Y-48289720D01*
X161768146Y-48498799D01*
X161768146Y-48498800D01*
X139345566Y-48498800D01*
X139241217Y-48422987D01*
X139241216Y-48422986D01*
X139241214Y-48422985D01*
X139178288Y-48390922D01*
X139044798Y-48322904D01*
X139044795Y-48322903D01*
X138835144Y-48254785D01*
X138726278Y-48237542D01*
X138617414Y-48220300D01*
X136596970Y-48220300D01*
X136524393Y-48231795D01*
X136379239Y-48254785D01*
X136169588Y-48322903D01*
X136169585Y-48322904D01*
X135973166Y-48422987D01*
X135794833Y-48552552D01*
X135794828Y-48552556D01*
X135638948Y-48708436D01*
X135638944Y-48708441D01*
X135509379Y-48886774D01*
X135409296Y-49083193D01*
X135409295Y-49083196D01*
X135341177Y-49292847D01*
X135306692Y-49510578D01*
X135306692Y-49731021D01*
X129900500Y-49731021D01*
X129900500Y-46231022D01*
X135306692Y-46231022D01*
X135309009Y-46245652D01*
X135341177Y-46448752D01*
X135409295Y-46658403D01*
X135409296Y-46658406D01*
X135509379Y-46854825D01*
X135638944Y-47033158D01*
X135638948Y-47033163D01*
X135794828Y-47189043D01*
X135794833Y-47189047D01*
X135876074Y-47248071D01*
X135973170Y-47318615D01*
X136097290Y-47381858D01*
X136169585Y-47418695D01*
X136169588Y-47418696D01*
X136274413Y-47452755D01*
X136379241Y-47486815D01*
X136596970Y-47521300D01*
X136596971Y-47521300D01*
X138617413Y-47521300D01*
X138617414Y-47521300D01*
X138835143Y-47486815D01*
X139044798Y-47418695D01*
X139241214Y-47318615D01*
X139419557Y-47189042D01*
X139575434Y-47033165D01*
X139705007Y-46854822D01*
X139805087Y-46658406D01*
X139873207Y-46448751D01*
X139907692Y-46231022D01*
X139907692Y-46010578D01*
X139899491Y-45958800D01*
X161768146Y-45958800D01*
X161787519Y-46167879D01*
X161844982Y-46369837D01*
X161844987Y-46369850D01*
X161938577Y-46557803D01*
X162065117Y-46725369D01*
X162220289Y-46866826D01*
X162220291Y-46866828D01*
X162398811Y-46977363D01*
X162398812Y-46977363D01*
X162398815Y-46977365D01*
X162594611Y-47053217D01*
X162801012Y-47091800D01*
X162801014Y-47091800D01*
X163010986Y-47091800D01*
X163010988Y-47091800D01*
X163217389Y-47053217D01*
X163413185Y-46977365D01*
X163591710Y-46866827D01*
X163746884Y-46725367D01*
X163873423Y-46557803D01*
X163967017Y-46369840D01*
X164024480Y-46167880D01*
X164043854Y-45958800D01*
X164024480Y-45749720D01*
X163967017Y-45547760D01*
X163873423Y-45359797D01*
X163746884Y-45192233D01*
X163746882Y-45192230D01*
X163591710Y-45050773D01*
X163591708Y-45050771D01*
X163413188Y-44940236D01*
X163413182Y-44940234D01*
X163217389Y-44864383D01*
X163010988Y-44825800D01*
X162801012Y-44825800D01*
X162594611Y-44864383D01*
X162470792Y-44912350D01*
X162398817Y-44940234D01*
X162398811Y-44940236D01*
X162220291Y-45050771D01*
X162220289Y-45050773D01*
X162065117Y-45192230D01*
X161938577Y-45359796D01*
X161844987Y-45547749D01*
X161844982Y-45547762D01*
X161787519Y-45749720D01*
X161768146Y-45958799D01*
X161768146Y-45958800D01*
X139899491Y-45958800D01*
X139873207Y-45792849D01*
X139805087Y-45583194D01*
X139805087Y-45583193D01*
X139770429Y-45515175D01*
X139705007Y-45386778D01*
X139685404Y-45359796D01*
X139575439Y-45208441D01*
X139575435Y-45208436D01*
X139419555Y-45052556D01*
X139419550Y-45052552D01*
X139241217Y-44922987D01*
X139241216Y-44922986D01*
X139241214Y-44922985D01*
X139148623Y-44875807D01*
X139044798Y-44822904D01*
X139044795Y-44822903D01*
X138835144Y-44754785D01*
X138726278Y-44737542D01*
X138617414Y-44720300D01*
X136596970Y-44720300D01*
X136524393Y-44731795D01*
X136379239Y-44754785D01*
X136169588Y-44822903D01*
X136169585Y-44822904D01*
X135973166Y-44922987D01*
X135794833Y-45052552D01*
X135794828Y-45052556D01*
X135638948Y-45208436D01*
X135638944Y-45208441D01*
X135509379Y-45386774D01*
X135409296Y-45583193D01*
X135409295Y-45583196D01*
X135341177Y-45792847D01*
X135314893Y-45958799D01*
X135306692Y-46010578D01*
X135306692Y-46231022D01*
X129900500Y-46231022D01*
X129900500Y-44568800D01*
X184691202Y-44568800D01*
X184701303Y-44690703D01*
X184757380Y-44634626D01*
X185596000Y-44634626D01*
X185630075Y-44761793D01*
X185695901Y-44875807D01*
X185788993Y-44968899D01*
X185903007Y-45034725D01*
X186030174Y-45068800D01*
X186161826Y-45068800D01*
X186288993Y-45034725D01*
X186403007Y-44968899D01*
X186496099Y-44875807D01*
X186561925Y-44761793D01*
X186596000Y-44634626D01*
X186596000Y-44568801D01*
X187368792Y-44568801D01*
X187490695Y-44690704D01*
X187490696Y-44690704D01*
X187500798Y-44568804D01*
X187500798Y-44568794D01*
X187490696Y-44446895D01*
X187368792Y-44568800D01*
X187368792Y-44568801D01*
X186596000Y-44568801D01*
X186596000Y-44502974D01*
X186561925Y-44375807D01*
X186496099Y-44261793D01*
X186403007Y-44168701D01*
X186288993Y-44102875D01*
X186161826Y-44068800D01*
X186030174Y-44068800D01*
X185903007Y-44102875D01*
X185788993Y-44168701D01*
X185695901Y-44261793D01*
X185630075Y-44375807D01*
X185596000Y-44502974D01*
X185596000Y-44634626D01*
X184757380Y-44634626D01*
X184823207Y-44568799D01*
X184701303Y-44446895D01*
X184691202Y-44568800D01*
X129900500Y-44568800D01*
X129900500Y-43520800D01*
X135349929Y-43520800D01*
X135372833Y-43589920D01*
X135464876Y-43739145D01*
X135588846Y-43863115D01*
X135738067Y-43955156D01*
X135738072Y-43955158D01*
X135904494Y-44010305D01*
X135904501Y-44010306D01*
X136007211Y-44020799D01*
X136707191Y-44020799D01*
X136707192Y-44020798D01*
X136707192Y-43520800D01*
X138507192Y-43520800D01*
X138507192Y-44020799D01*
X139207164Y-44020799D01*
X139207178Y-44020798D01*
X139309889Y-44010305D01*
X139476311Y-43955158D01*
X139476316Y-43955156D01*
X139625537Y-43863115D01*
X139749507Y-43739145D01*
X139841550Y-43589920D01*
X139864455Y-43520800D01*
X138507192Y-43520800D01*
X136707192Y-43520800D01*
X135349929Y-43520800D01*
X129900500Y-43520800D01*
X129900500Y-43418800D01*
X161768146Y-43418800D01*
X161787519Y-43627879D01*
X161844982Y-43829837D01*
X161844987Y-43829850D01*
X161938577Y-44017803D01*
X162065117Y-44185369D01*
X162220289Y-44326826D01*
X162220291Y-44326828D01*
X162398811Y-44437363D01*
X162398812Y-44437363D01*
X162398815Y-44437365D01*
X162594611Y-44513217D01*
X162801012Y-44551800D01*
X162801014Y-44551800D01*
X163010986Y-44551800D01*
X163010988Y-44551800D01*
X163125784Y-44530341D01*
X177928947Y-44530341D01*
X178041061Y-44551300D01*
X178250939Y-44551300D01*
X178363052Y-44530341D01*
X178146001Y-44313290D01*
X177928947Y-44530341D01*
X163125784Y-44530341D01*
X163217389Y-44513217D01*
X163413185Y-44437365D01*
X163591710Y-44326827D01*
X163746884Y-44185367D01*
X163873423Y-44017803D01*
X163967017Y-43829840D01*
X164024480Y-43627880D01*
X164043854Y-43418800D01*
X177008648Y-43418800D01*
X177028014Y-43627790D01*
X177031226Y-43639081D01*
X177187986Y-43482322D01*
X177663500Y-43482322D01*
X177696382Y-43605038D01*
X177759904Y-43715062D01*
X177849738Y-43804896D01*
X177959762Y-43868418D01*
X178082478Y-43901300D01*
X178209522Y-43901300D01*
X178332238Y-43868418D01*
X178442262Y-43804896D01*
X178532096Y-43715062D01*
X178595618Y-43605038D01*
X178628500Y-43482322D01*
X178628500Y-43418801D01*
X179040490Y-43418801D01*
X179260771Y-43639082D01*
X179263985Y-43627790D01*
X179263986Y-43627782D01*
X179283352Y-43418800D01*
X179283352Y-43418799D01*
X179263985Y-43209809D01*
X179260772Y-43198517D01*
X179260771Y-43198517D01*
X179040490Y-43418800D01*
X179040490Y-43418801D01*
X178628500Y-43418801D01*
X178628500Y-43355278D01*
X178595618Y-43232562D01*
X178532096Y-43122538D01*
X178442262Y-43032704D01*
X178345208Y-42976670D01*
X184695500Y-42976670D01*
X184695501Y-42976676D01*
X184701908Y-43036283D01*
X184752202Y-43171128D01*
X184752206Y-43171135D01*
X184838452Y-43286344D01*
X184838455Y-43286347D01*
X184953664Y-43372593D01*
X184953671Y-43372597D01*
X185088517Y-43422891D01*
X185088516Y-43422891D01*
X185095444Y-43423635D01*
X185148127Y-43429300D01*
X187043872Y-43429299D01*
X187103483Y-43422891D01*
X187238331Y-43372596D01*
X187353546Y-43286346D01*
X187439796Y-43171131D01*
X187490091Y-43036283D01*
X187496500Y-42976673D01*
X187496500Y-42826670D01*
X199795500Y-42826670D01*
X199795501Y-42826676D01*
X199801908Y-42886283D01*
X199852202Y-43021128D01*
X199852206Y-43021135D01*
X199938452Y-43136344D01*
X199938455Y-43136347D01*
X200053664Y-43222593D01*
X200053671Y-43222597D01*
X200188517Y-43272891D01*
X200188516Y-43272891D01*
X200195444Y-43273635D01*
X200248127Y-43279300D01*
X203343872Y-43279299D01*
X203403483Y-43272891D01*
X203538331Y-43222596D01*
X203653546Y-43136346D01*
X203739796Y-43021131D01*
X203790091Y-42886283D01*
X203796500Y-42826673D01*
X203796500Y-42826670D01*
X207995500Y-42826670D01*
X207995501Y-42826676D01*
X208001908Y-42886283D01*
X208052202Y-43021128D01*
X208052206Y-43021135D01*
X208138452Y-43136344D01*
X208138455Y-43136347D01*
X208253664Y-43222593D01*
X208253671Y-43222597D01*
X208388517Y-43272891D01*
X208388516Y-43272891D01*
X208395444Y-43273635D01*
X208448127Y-43279300D01*
X211543872Y-43279299D01*
X211603483Y-43272891D01*
X211738331Y-43222596D01*
X211853546Y-43136346D01*
X211939796Y-43021131D01*
X211990091Y-42886283D01*
X211996500Y-42826673D01*
X211996499Y-41230928D01*
X211990091Y-41171317D01*
X211985671Y-41159467D01*
X211939797Y-41036471D01*
X211939793Y-41036464D01*
X211853547Y-40921255D01*
X211853544Y-40921252D01*
X211738335Y-40835006D01*
X211738328Y-40835002D01*
X211603482Y-40784708D01*
X211603483Y-40784708D01*
X211543883Y-40778301D01*
X211543881Y-40778300D01*
X211543873Y-40778300D01*
X211543864Y-40778300D01*
X208448129Y-40778300D01*
X208448123Y-40778301D01*
X208388516Y-40784708D01*
X208253671Y-40835002D01*
X208253664Y-40835006D01*
X208138455Y-40921252D01*
X208138452Y-40921255D01*
X208052206Y-41036464D01*
X208052202Y-41036471D01*
X208001908Y-41171317D01*
X207995501Y-41230916D01*
X207995501Y-41230923D01*
X207995500Y-41230935D01*
X207995500Y-42826670D01*
X203796500Y-42826670D01*
X203796499Y-41230928D01*
X203790091Y-41171317D01*
X203785671Y-41159467D01*
X203739797Y-41036471D01*
X203739793Y-41036464D01*
X203653547Y-40921255D01*
X203653544Y-40921252D01*
X203538335Y-40835006D01*
X203538328Y-40835002D01*
X203403482Y-40784708D01*
X203403483Y-40784708D01*
X203343883Y-40778301D01*
X203343881Y-40778300D01*
X203343873Y-40778300D01*
X203343864Y-40778300D01*
X200248129Y-40778300D01*
X200248123Y-40778301D01*
X200188516Y-40784708D01*
X200053671Y-40835002D01*
X200053664Y-40835006D01*
X199938455Y-40921252D01*
X199938452Y-40921255D01*
X199852206Y-41036464D01*
X199852202Y-41036471D01*
X199801908Y-41171317D01*
X199795501Y-41230916D01*
X199795501Y-41230923D01*
X199795500Y-41230935D01*
X199795500Y-42826670D01*
X187496500Y-42826670D01*
X187496499Y-41080928D01*
X187490091Y-41021317D01*
X187452770Y-40921255D01*
X187439797Y-40886471D01*
X187439793Y-40886464D01*
X187353547Y-40771255D01*
X187353544Y-40771252D01*
X187238335Y-40685006D01*
X187238328Y-40685002D01*
X187103482Y-40634708D01*
X187103483Y-40634708D01*
X187043883Y-40628301D01*
X187043881Y-40628300D01*
X187043873Y-40628300D01*
X187043864Y-40628300D01*
X185148129Y-40628300D01*
X185148123Y-40628301D01*
X185088516Y-40634708D01*
X184953671Y-40685002D01*
X184953664Y-40685006D01*
X184838455Y-40771252D01*
X184838452Y-40771255D01*
X184752206Y-40886464D01*
X184752202Y-40886471D01*
X184701908Y-41021317D01*
X184695501Y-41080916D01*
X184695501Y-41080923D01*
X184695500Y-41080935D01*
X184695500Y-42976670D01*
X178345208Y-42976670D01*
X178332238Y-42969182D01*
X178209522Y-42936300D01*
X178082478Y-42936300D01*
X177959762Y-42969182D01*
X177849738Y-43032704D01*
X177759904Y-43122538D01*
X177696382Y-43232562D01*
X177663500Y-43355278D01*
X177663500Y-43482322D01*
X177187986Y-43482322D01*
X177251510Y-43418799D01*
X177031227Y-43198516D01*
X177028014Y-43209813D01*
X177008648Y-43418800D01*
X164043854Y-43418800D01*
X164031580Y-43286347D01*
X164024480Y-43209720D01*
X164021292Y-43198516D01*
X163967017Y-43007760D01*
X163957779Y-42989208D01*
X163896297Y-42865735D01*
X163873423Y-42819797D01*
X163746884Y-42652233D01*
X163746882Y-42652230D01*
X163591710Y-42510773D01*
X163591708Y-42510771D01*
X163413188Y-42400236D01*
X163413182Y-42400234D01*
X163217389Y-42324383D01*
X163125773Y-42307257D01*
X177928947Y-42307257D01*
X178145999Y-42524309D01*
X178363050Y-42307257D01*
X178250940Y-42286300D01*
X178041060Y-42286300D01*
X177928947Y-42307257D01*
X163125773Y-42307257D01*
X163010988Y-42285800D01*
X162801012Y-42285800D01*
X162594611Y-42324383D01*
X162470792Y-42372350D01*
X162398817Y-42400234D01*
X162398811Y-42400236D01*
X162220291Y-42510771D01*
X162220289Y-42510773D01*
X162065117Y-42652230D01*
X161938577Y-42819796D01*
X161844987Y-43007749D01*
X161844982Y-43007762D01*
X161787519Y-43209720D01*
X161768146Y-43418799D01*
X161768146Y-43418800D01*
X129900500Y-43418800D01*
X129900500Y-42699791D01*
X137007192Y-42699791D01*
X137048081Y-42852391D01*
X137127073Y-42989208D01*
X137238784Y-43100919D01*
X137375601Y-43179911D01*
X137528201Y-43220800D01*
X137686183Y-43220800D01*
X137838783Y-43179911D01*
X137975600Y-43100919D01*
X138087311Y-42989208D01*
X138166303Y-42852391D01*
X138207192Y-42699791D01*
X138207192Y-42541809D01*
X138190309Y-42478800D01*
X155106000Y-42478800D01*
X155106000Y-42526644D01*
X155112401Y-42586172D01*
X155112403Y-42586179D01*
X155162645Y-42720886D01*
X155162649Y-42720893D01*
X155248809Y-42835987D01*
X155248812Y-42835990D01*
X155363906Y-42922150D01*
X155363913Y-42922154D01*
X155498620Y-42972396D01*
X155498627Y-42972398D01*
X155558155Y-42978799D01*
X155558172Y-42978800D01*
X155606000Y-42978800D01*
X157406000Y-42978800D01*
X157453828Y-42978800D01*
X157453844Y-42978799D01*
X157513372Y-42972398D01*
X157513379Y-42972396D01*
X157648086Y-42922154D01*
X157648093Y-42922150D01*
X157763187Y-42835990D01*
X157763190Y-42835987D01*
X157849350Y-42720893D01*
X157849355Y-42720884D01*
X157878075Y-42643881D01*
X157919945Y-42587947D01*
X157985409Y-42563529D01*
X158053682Y-42578380D01*
X158085484Y-42603228D01*
X158094216Y-42612713D01*
X158094219Y-42612715D01*
X158094222Y-42612718D01*
X158277365Y-42755264D01*
X158277371Y-42755268D01*
X158277374Y-42755270D01*
X158481497Y-42865736D01*
X158595487Y-42904868D01*
X158701015Y-42941097D01*
X158701017Y-42941097D01*
X158701019Y-42941098D01*
X158929951Y-42979300D01*
X158929952Y-42979300D01*
X159162048Y-42979300D01*
X159162049Y-42979300D01*
X159390981Y-42941098D01*
X159610503Y-42865736D01*
X159814626Y-42755270D01*
X159997784Y-42612713D01*
X160154979Y-42441953D01*
X160281924Y-42247649D01*
X160375157Y-42035100D01*
X160432134Y-41810105D01*
X160439534Y-41720800D01*
X160451300Y-41578806D01*
X160451300Y-41578793D01*
X160432135Y-41347502D01*
X160432133Y-41347491D01*
X160375157Y-41122499D01*
X160281924Y-40909951D01*
X160154983Y-40715652D01*
X160154980Y-40715649D01*
X160154979Y-40715647D01*
X159997784Y-40544887D01*
X159997779Y-40544883D01*
X159997777Y-40544881D01*
X159814634Y-40402335D01*
X159814628Y-40402331D01*
X159610504Y-40291864D01*
X159610495Y-40291861D01*
X159390984Y-40216502D01*
X159203404Y-40185201D01*
X159162049Y-40178300D01*
X158929951Y-40178300D01*
X158888596Y-40185201D01*
X158701015Y-40216502D01*
X158481504Y-40291861D01*
X158481495Y-40291864D01*
X158277371Y-40402331D01*
X158277365Y-40402335D01*
X158094222Y-40544881D01*
X158094215Y-40544887D01*
X158085484Y-40554372D01*
X158025595Y-40590361D01*
X157955757Y-40588258D01*
X157898143Y-40548732D01*
X157878075Y-40513718D01*
X157849355Y-40436715D01*
X157849350Y-40436706D01*
X157763190Y-40321612D01*
X157763187Y-40321609D01*
X157648093Y-40235449D01*
X157648086Y-40235445D01*
X157513379Y-40185203D01*
X157513372Y-40185201D01*
X157453844Y-40178800D01*
X157406000Y-40178800D01*
X157406000Y-42978800D01*
X155606000Y-42978800D01*
X155606000Y-42478800D01*
X155106000Y-42478800D01*
X138190309Y-42478800D01*
X138166303Y-42389209D01*
X138087311Y-42252392D01*
X137975600Y-42140681D01*
X137838783Y-42061689D01*
X137686183Y-42020800D01*
X137528201Y-42020800D01*
X137375601Y-42061689D01*
X137238784Y-42140681D01*
X137127073Y-42252392D01*
X137048081Y-42389209D01*
X137007192Y-42541809D01*
X137007192Y-42699791D01*
X129900500Y-42699791D01*
X129900500Y-41720800D01*
X135349929Y-41720800D01*
X136707192Y-41720800D01*
X136707192Y-41220800D01*
X138507192Y-41220800D01*
X138507192Y-41720800D01*
X139864454Y-41720800D01*
X139841550Y-41651679D01*
X139833140Y-41638044D01*
X156056000Y-41638044D01*
X156086667Y-41752494D01*
X156145910Y-41855106D01*
X156229694Y-41938890D01*
X156332306Y-41998133D01*
X156446756Y-42028800D01*
X156565244Y-42028800D01*
X156679694Y-41998133D01*
X156782306Y-41938890D01*
X156866090Y-41855106D01*
X156925333Y-41752494D01*
X156956000Y-41638044D01*
X156956000Y-41519556D01*
X156925333Y-41405106D01*
X156866090Y-41302494D01*
X156782306Y-41218710D01*
X156679694Y-41159467D01*
X156565244Y-41128800D01*
X156446756Y-41128800D01*
X156332306Y-41159467D01*
X156229694Y-41218710D01*
X156145910Y-41302494D01*
X156086667Y-41405106D01*
X156056000Y-41519556D01*
X156056000Y-41638044D01*
X139833140Y-41638044D01*
X139749507Y-41502454D01*
X139625537Y-41378484D01*
X139476316Y-41286443D01*
X139476311Y-41286441D01*
X139309889Y-41231294D01*
X139309882Y-41231293D01*
X139207178Y-41220800D01*
X138507192Y-41220800D01*
X136707192Y-41220800D01*
X136007220Y-41220800D01*
X136007204Y-41220801D01*
X135904494Y-41231294D01*
X135738072Y-41286441D01*
X135738067Y-41286443D01*
X135588846Y-41378484D01*
X135464876Y-41502454D01*
X135372833Y-41651679D01*
X135349929Y-41720800D01*
X129900500Y-41720800D01*
X129900500Y-40678800D01*
X155106000Y-40678800D01*
X155606000Y-40678800D01*
X155606000Y-40178800D01*
X155558155Y-40178800D01*
X155498627Y-40185201D01*
X155498620Y-40185203D01*
X155363913Y-40235445D01*
X155363906Y-40235449D01*
X155248812Y-40321609D01*
X155248809Y-40321612D01*
X155162649Y-40436706D01*
X155162645Y-40436713D01*
X155112403Y-40571420D01*
X155112401Y-40571427D01*
X155106000Y-40630955D01*
X155106000Y-40678800D01*
X129900500Y-40678800D01*
X129900500Y-39764500D01*
X129920185Y-39697461D01*
X129972989Y-39651706D01*
X130024500Y-39640500D01*
X162317885Y-39640500D01*
X162384924Y-39660185D01*
G37*
G04 #@! TD.AperFunction*
M02*
