G04 #@! TF.GenerationSoftware,KiCad,Pcbnew,8.0.0*
G04 #@! TF.CreationDate,2024-12-24T11:36:35-06:00*
G04 #@! TF.ProjectId,Rain and Switches Control Board,5261696e-2061-46e6-9420-537769746368,rev?*
G04 #@! TF.SameCoordinates,Original*
G04 #@! TF.FileFunction,Soldermask,Top*
G04 #@! TF.FilePolarity,Negative*
%FSLAX46Y46*%
G04 Gerber Fmt 4.6, Leading zero omitted, Abs format (unit mm)*
G04 Created by KiCad (PCBNEW 8.0.0) date 2024-12-24 11:36:35*
%MOMM*%
%LPD*%
G01*
G04 APERTURE LIST*
G04 Aperture macros list*
%AMRoundRect*
0 Rectangle with rounded corners*
0 $1 Rounding radius*
0 $2 $3 $4 $5 $6 $7 $8 $9 X,Y pos of 4 corners*
0 Add a 4 corners polygon primitive as box body*
4,1,4,$2,$3,$4,$5,$6,$7,$8,$9,$2,$3,0*
0 Add four circle primitives for the rounded corners*
1,1,$1+$1,$2,$3*
1,1,$1+$1,$4,$5*
1,1,$1+$1,$6,$7*
1,1,$1+$1,$8,$9*
0 Add four rect primitives between the rounded corners*
20,1,$1+$1,$2,$3,$4,$5,0*
20,1,$1+$1,$4,$5,$6,$7,0*
20,1,$1+$1,$6,$7,$8,$9,0*
20,1,$1+$1,$8,$9,$2,$3,0*%
G04 Aperture macros list end*
%ADD10RoundRect,0.250000X-0.312500X-0.625000X0.312500X-0.625000X0.312500X0.625000X-0.312500X0.625000X0*%
%ADD11C,3.200000*%
%ADD12R,1.800000X1.800000*%
%ADD13C,1.800000*%
%ADD14O,3.960000X1.980000*%
%ADD15R,3.960000X1.980000*%
%ADD16RoundRect,0.250000X-0.450000X0.262500X-0.450000X-0.262500X0.450000X-0.262500X0.450000X0.262500X0*%
%ADD17RoundRect,0.250000X0.625000X-0.312500X0.625000X0.312500X-0.625000X0.312500X-0.625000X-0.312500X0*%
%ADD18RoundRect,0.250000X0.312500X0.625000X-0.312500X0.625000X-0.312500X-0.625000X0.312500X-0.625000X0*%
%ADD19O,1.980000X3.960000*%
%ADD20R,1.980000X3.960000*%
%ADD21C,3.250000*%
%ADD22R,1.500000X1.500000*%
%ADD23C,1.500000*%
%ADD24C,3.000000*%
%ADD25C,1.300000*%
%ADD26R,1.300000X1.300000*%
%ADD27O,3.600000X1.800000*%
%ADD28RoundRect,0.250000X-1.550000X0.650000X-1.550000X-0.650000X1.550000X-0.650000X1.550000X0.650000X0*%
%ADD29R,3.000000X1.500000*%
%ADD30O,3.000000X1.500000*%
%ADD31R,0.508000X1.104900*%
%ADD32R,0.609600X1.549400*%
%ADD33C,1.265000*%
G04 APERTURE END LIST*
D10*
X185833500Y-61928800D03*
X188758500Y-61928800D03*
D11*
X184896000Y-68278800D03*
X152396000Y-95028800D03*
X152346000Y-50478800D03*
D12*
X186096000Y-42028800D03*
D13*
X186096000Y-44568800D03*
X186096000Y-47108800D03*
D14*
X135946000Y-104978800D03*
D15*
X135946000Y-99978800D03*
X135946000Y-88523800D03*
D14*
X135946000Y-93523800D03*
D16*
X158158500Y-72603800D03*
X158158500Y-74428800D03*
D17*
X148096000Y-74241300D03*
X148096000Y-71316300D03*
D18*
X185796000Y-84178800D03*
X182871000Y-84178800D03*
X156333500Y-45628800D03*
X159258500Y-45628800D03*
X192571000Y-73428800D03*
X189646000Y-73428800D03*
D19*
X188978800Y-99692800D03*
D20*
X183978800Y-99692800D03*
D21*
X206646000Y-85063800D03*
X206646000Y-73633800D03*
D22*
X200296000Y-83793800D03*
D23*
X197756000Y-82523800D03*
X200296000Y-81253800D03*
X197756000Y-79983800D03*
X200296000Y-78713800D03*
X197756000Y-77443800D03*
X200296000Y-76173800D03*
X197756000Y-74903800D03*
D24*
X209696000Y-87118800D03*
X209696000Y-71578800D03*
D12*
X156506000Y-41578800D03*
D13*
X159046000Y-41578800D03*
D17*
X148196000Y-63241300D03*
X148196000Y-60316300D03*
D18*
X191271000Y-84178800D03*
X188346000Y-84178800D03*
D16*
X158346000Y-83616300D03*
X158346000Y-85441300D03*
X158046000Y-67116300D03*
X158046000Y-68941300D03*
D25*
X152446000Y-68366300D03*
X153716000Y-67096300D03*
D26*
X152446000Y-65826300D03*
X152446000Y-60326300D03*
D25*
X153716000Y-61596300D03*
X152446000Y-62866300D03*
D27*
X137607192Y-60120800D03*
X137607192Y-56620800D03*
X137607192Y-53120800D03*
X137607192Y-49620800D03*
X137607192Y-46120800D03*
D28*
X137607192Y-42620800D03*
D29*
X209996000Y-42028800D03*
X201796000Y-42028800D03*
D30*
X209996000Y-47028800D03*
X201796000Y-47028800D03*
D18*
X187096000Y-73428800D03*
X184171000Y-73428800D03*
D19*
X166178800Y-99692800D03*
D20*
X161178800Y-99692800D03*
D26*
X152446000Y-76826300D03*
D25*
X153716000Y-78096300D03*
X152446000Y-79366300D03*
D17*
X148096000Y-79766300D03*
X148096000Y-76841300D03*
D31*
X183276000Y-76278800D03*
X184546000Y-76278800D03*
X185816000Y-76278800D03*
X187086000Y-76278800D03*
X188356000Y-76278800D03*
X189626000Y-76278800D03*
X190896000Y-76278800D03*
X192166000Y-76278800D03*
X192166000Y-81358800D03*
X190896000Y-81358800D03*
X189626000Y-81358800D03*
X188356000Y-81358800D03*
X187086000Y-81358800D03*
X185816000Y-81358800D03*
X184546000Y-81358800D03*
X183276000Y-81358800D03*
D17*
X148146000Y-68741300D03*
X148146000Y-65816300D03*
D32*
X189201000Y-53028800D03*
X187931000Y-53028800D03*
X186661000Y-53028800D03*
X185391000Y-53028800D03*
X185391000Y-58428800D03*
X186661000Y-58428800D03*
X187931000Y-58428800D03*
X189201000Y-58428800D03*
D26*
X152446000Y-71326300D03*
D25*
X153716000Y-72596300D03*
X152446000Y-73866300D03*
D26*
X152426000Y-82346300D03*
D25*
X153696000Y-83616300D03*
X152426000Y-84886300D03*
D21*
X206646000Y-65408800D03*
X206646000Y-53978800D03*
D22*
X200296000Y-64138800D03*
D23*
X197756000Y-62868800D03*
X200296000Y-61598800D03*
X197756000Y-60328800D03*
X200296000Y-59058800D03*
X197756000Y-57788800D03*
X200296000Y-56518800D03*
X197756000Y-55248800D03*
D24*
X209696000Y-67463800D03*
X209696000Y-51923800D03*
D16*
X158046000Y-61566300D03*
X158046000Y-63391300D03*
X158196000Y-78116300D03*
X158196000Y-79941300D03*
D33*
X162906000Y-40878800D03*
X162906000Y-43418800D03*
X162906000Y-45958800D03*
X162906000Y-48498800D03*
X162906000Y-51038800D03*
X162906000Y-53578800D03*
X162906000Y-56118800D03*
X162906000Y-58658800D03*
X162906000Y-61198800D03*
X162906000Y-63738800D03*
X162906000Y-66278800D03*
X162906000Y-68818800D03*
X162906000Y-71358800D03*
X162906000Y-73898800D03*
X165446000Y-73898800D03*
X167986000Y-73898800D03*
X170526000Y-73898800D03*
X173066000Y-73898800D03*
X175606000Y-73898800D03*
X178146000Y-73898800D03*
X178146000Y-71358800D03*
X178146000Y-68818800D03*
X178146000Y-66278800D03*
X178146000Y-63738800D03*
X178146000Y-61198800D03*
X178146000Y-58658800D03*
X178146000Y-56118800D03*
X178146000Y-53578800D03*
X178146000Y-51038800D03*
X178146000Y-48498800D03*
X178146000Y-45958800D03*
X178146000Y-43418800D03*
X178146000Y-40878800D03*
D19*
X211618800Y-99692800D03*
D20*
X206618800Y-99692800D03*
D19*
X200318800Y-99692800D03*
D20*
X195318800Y-99692800D03*
D19*
X177598800Y-99692800D03*
D20*
X172598800Y-99692800D03*
D17*
X148096000Y-85241300D03*
X148096000Y-82316300D03*
M02*
